<?xml version="1.0" encoding="utf-8" standalone="no"?>
<!DOCTYPE svg PUBLIC "-//W3C//DTD SVG 1.1//EN"
  "http://www.w3.org/Graphics/SVG/1.1/DTD/svg11.dtd">
<svg xmlns:xlink="http://www.w3.org/1999/xlink" width="475.2pt" height="259.2pt" viewBox="0 0 475.2 259.2" xmlns="http://www.w3.org/2000/svg" version="1.1">
 <metadata>
  <rdf:RDF xmlns:dc="http://purl.org/dc/elements/1.1/" xmlns:cc="http://creativecommons.org/ns#" xmlns:rdf="http://www.w3.org/1999/02/22-rdf-syntax-ns#">
   <cc:Work>
    <dc:type rdf:resource="http://purl.org/dc/dcmitype/StillImage"/>
    <dc:date>2026-02-12T18:30:00.646556</dc:date>
    <dc:format>image/svg+xml</dc:format>
    <dc:creator>
     <cc:Agent>
      <dc:title>Matplotlib v3.8.4, https://matplotlib.org/</dc:title>
     </cc:Agent>
    </dc:creator>
   </cc:Work>
  </rdf:RDF>
 </metadata>
 <defs>
  <style type="text/css">*{stroke-linejoin: round; stroke-linecap: butt}</style>
 </defs>
 <g id="figure_1">
  <g id="patch_1">
   <path d="M 0 259.2 
L 475.2 259.2 
L 475.2 0 
L 0 0 
z
" style="fill: #ffffff"/>
  </g>
  <g id="axes_1">
   <g id="patch_2">
    <path d="M 57.184847 210.846005 
L 468 210.846005 
L 468 7.2 
L 57.184847 7.2 
z
" style="fill: #ffffff"/>
   </g>
   <g id="matplotlib.axis_1">
    <g id="xtick_1">
     <g id="line2d_1">
      <defs>
       <path id="m99bd167c15" d="M 0 0 
L 0 -6 
" style="stroke: #000000; stroke-width: 0.8"/>
      </defs>
      <g>
       <use xlink:href="#m99bd167c15" x="87.580789" y="210.846005" style="stroke: #000000; stroke-width: 0.8"/>
      </g>
     </g>
     <g id="line2d_2">
      <defs>
       <path id="m6f6af660a7" d="M 0 0 
L 0 6 
" style="stroke: #000000; stroke-width: 0.8"/>
      </defs>
      <g>
       <use xlink:href="#m6f6af660a7" x="87.580789" y="7.2" style="stroke: #000000; stroke-width: 0.8"/>
      </g>
     </g>
     <g id="text_1">
      <!-- $\mathdefault{10^{1}}$ -->
      <g transform="translate(76.283699 226.799305) scale(0.18 -0.18)">
       <defs>
        <path id="CMR17-31" d="M 1702 4058 
C 1702 4192 1696 4192 1606 4192 
C 1357 3916 979 3827 621 3827 
C 602 3827 570 3827 563 3808 
C 557 3795 557 3782 557 3648 
C 755 3648 1088 3686 1344 3839 
L 1344 461 
C 1344 236 1331 160 781 160 
L 589 160 
L 589 0 
C 896 0 1216 0 1523 0 
C 1830 0 2150 0 2458 0 
L 2458 160 
L 2266 160 
C 1715 160 1702 230 1702 458 
L 1702 4058 
z
" transform="scale(0.015625)"/>
        <path id="CMR17-30" d="M 2688 2025 
C 2688 2416 2682 3080 2413 3591 
C 2176 4039 1798 4198 1466 4198 
C 1158 4198 768 4058 525 3597 
C 269 3118 243 2524 243 2025 
C 243 1661 250 1106 448 619 
C 723 -39 1216 -128 1466 -128 
C 1760 -128 2208 -7 2470 600 
C 2662 1042 2688 1559 2688 2025 
z
M 1466 -26 
C 1056 -26 813 325 723 812 
C 653 1188 653 1738 653 2096 
C 653 2588 653 2997 736 3387 
C 858 3929 1216 4096 1466 4096 
C 1728 4096 2067 3923 2189 3400 
C 2272 3036 2278 2607 2278 2096 
C 2278 1680 2278 1169 2202 792 
C 2067 95 1690 -26 1466 -26 
z
" transform="scale(0.015625)"/>
       </defs>
       <use xlink:href="#CMR17-31" transform="scale(0.996264)"/>
       <use xlink:href="#CMR17-30" transform="translate(45.690477 0) scale(0.996264)"/>
       <use xlink:href="#CMR17-31" transform="translate(91.380954 36.153639) scale(0.697382)"/>
      </g>
     </g>
    </g>
    <g id="xtick_2">
     <g id="line2d_3">
      <g>
       <use xlink:href="#m99bd167c15" x="260.046034" y="210.846005" style="stroke: #000000; stroke-width: 0.8"/>
      </g>
     </g>
     <g id="line2d_4">
      <g>
       <use xlink:href="#m6f6af660a7" x="260.046034" y="7.2" style="stroke: #000000; stroke-width: 0.8"/>
      </g>
     </g>
     <g id="text_2">
      <!-- $\mathdefault{10^{2}}$ -->
      <g transform="translate(248.748944 226.799305) scale(0.18 -0.18)">
       <defs>
        <path id="CMR17-32" d="M 2669 989 
L 2554 989 
C 2490 536 2438 459 2413 420 
C 2381 369 1920 369 1830 369 
L 602 369 
C 832 619 1280 1072 1824 1597 
C 2214 1967 2669 2402 2669 3035 
C 2669 3790 2067 4224 1395 4224 
C 691 4224 262 3604 262 3030 
C 262 2780 448 2748 525 2748 
C 589 2748 781 2787 781 3010 
C 781 3207 614 3264 525 3264 
C 486 3264 448 3258 422 3245 
C 544 3790 915 4058 1306 4058 
C 1862 4058 2227 3617 2227 3035 
C 2227 2479 1901 2000 1536 1584 
L 262 146 
L 262 0 
L 2515 0 
L 2669 989 
z
" transform="scale(0.015625)"/>
       </defs>
       <use xlink:href="#CMR17-31" transform="scale(0.996264)"/>
       <use xlink:href="#CMR17-30" transform="translate(45.690477 0) scale(0.996264)"/>
       <use xlink:href="#CMR17-32" transform="translate(91.380954 36.153639) scale(0.697382)"/>
      </g>
     </g>
    </g>
    <g id="xtick_3">
     <g id="line2d_5">
      <g>
       <use xlink:href="#m99bd167c15" x="432.511279" y="210.846005" style="stroke: #000000; stroke-width: 0.8"/>
      </g>
     </g>
     <g id="line2d_6">
      <g>
       <use xlink:href="#m6f6af660a7" x="432.511279" y="7.2" style="stroke: #000000; stroke-width: 0.8"/>
      </g>
     </g>
     <g id="text_3">
      <!-- $\mathdefault{10^{3}}$ -->
      <g transform="translate(421.214189 226.799305) scale(0.18 -0.18)">
       <defs>
        <path id="CMR17-33" d="M 1414 2157 
C 1984 2157 2234 1662 2234 1090 
C 2234 320 1824 25 1453 25 
C 1114 25 563 194 390 693 
C 422 680 454 680 486 680 
C 640 680 755 782 755 948 
C 755 1133 614 1216 486 1216 
C 378 1216 211 1165 211 926 
C 211 335 787 -128 1466 -128 
C 2176 -128 2720 430 2720 1085 
C 2720 1707 2208 2157 1600 2227 
C 2086 2328 2554 2756 2554 3329 
C 2554 3820 2048 4179 1472 4179 
C 890 4179 378 3829 378 3329 
C 378 3110 544 3072 627 3072 
C 762 3072 877 3155 877 3321 
C 877 3486 762 3569 627 3569 
C 602 3569 570 3569 544 3557 
C 730 3959 1235 4032 1459 4032 
C 1683 4032 2106 3925 2106 3320 
C 2106 3143 2080 2828 1862 2550 
C 1670 2304 1453 2304 1242 2284 
C 1210 2284 1062 2269 1037 2269 
C 992 2263 966 2257 966 2208 
C 966 2163 973 2157 1101 2157 
L 1414 2157 
z
" transform="scale(0.015625)"/>
       </defs>
       <use xlink:href="#CMR17-31" transform="scale(0.996264)"/>
       <use xlink:href="#CMR17-30" transform="translate(45.690477 0) scale(0.996264)"/>
       <use xlink:href="#CMR17-33" transform="translate(91.380954 36.153639) scale(0.697382)"/>
      </g>
     </g>
    </g>
    <g id="xtick_4">
     <g id="line2d_7">
      <defs>
       <path id="m7bc8d72468" d="M 0 0 
L 0 -3 
" style="stroke: #000000; stroke-width: 0.6"/>
      </defs>
      <g>
       <use xlink:href="#m7bc8d72468" x="60.865585" y="210.846005" style="stroke: #000000; stroke-width: 0.6"/>
      </g>
     </g>
     <g id="line2d_8">
      <defs>
       <path id="mb9bf08ae53" d="M 0 0 
L 0 3 
" style="stroke: #000000; stroke-width: 0.6"/>
      </defs>
      <g>
       <use xlink:href="#mb9bf08ae53" x="60.865585" y="7.2" style="stroke: #000000; stroke-width: 0.6"/>
      </g>
     </g>
    </g>
    <g id="xtick_5">
     <g id="line2d_9">
      <g>
       <use xlink:href="#m7bc8d72468" x="70.86718" y="210.846005" style="stroke: #000000; stroke-width: 0.6"/>
      </g>
     </g>
     <g id="line2d_10">
      <g>
       <use xlink:href="#mb9bf08ae53" x="70.86718" y="7.2" style="stroke: #000000; stroke-width: 0.6"/>
      </g>
     </g>
    </g>
    <g id="xtick_6">
     <g id="line2d_11">
      <g>
       <use xlink:href="#m7bc8d72468" x="79.689212" y="210.846005" style="stroke: #000000; stroke-width: 0.6"/>
      </g>
     </g>
     <g id="line2d_12">
      <g>
       <use xlink:href="#mb9bf08ae53" x="79.689212" y="7.2" style="stroke: #000000; stroke-width: 0.6"/>
      </g>
     </g>
    </g>
    <g id="xtick_7">
     <g id="line2d_13">
      <g>
       <use xlink:href="#m7bc8d72468" x="139.498001" y="210.846005" style="stroke: #000000; stroke-width: 0.6"/>
      </g>
     </g>
     <g id="line2d_14">
      <g>
       <use xlink:href="#mb9bf08ae53" x="139.498001" y="7.2" style="stroke: #000000; stroke-width: 0.6"/>
      </g>
     </g>
    </g>
    <g id="xtick_8">
     <g id="line2d_15">
      <g>
       <use xlink:href="#m7bc8d72468" x="169.867623" y="210.846005" style="stroke: #000000; stroke-width: 0.6"/>
      </g>
     </g>
     <g id="line2d_16">
      <g>
       <use xlink:href="#mb9bf08ae53" x="169.867623" y="7.2" style="stroke: #000000; stroke-width: 0.6"/>
      </g>
     </g>
    </g>
    <g id="xtick_9">
     <g id="line2d_17">
      <g>
       <use xlink:href="#m7bc8d72468" x="191.415213" y="210.846005" style="stroke: #000000; stroke-width: 0.6"/>
      </g>
     </g>
     <g id="line2d_18">
      <g>
       <use xlink:href="#mb9bf08ae53" x="191.415213" y="7.2" style="stroke: #000000; stroke-width: 0.6"/>
      </g>
     </g>
    </g>
    <g id="xtick_10">
     <g id="line2d_19">
      <g>
       <use xlink:href="#m7bc8d72468" x="208.128822" y="210.846005" style="stroke: #000000; stroke-width: 0.6"/>
      </g>
     </g>
     <g id="line2d_20">
      <g>
       <use xlink:href="#mb9bf08ae53" x="208.128822" y="7.2" style="stroke: #000000; stroke-width: 0.6"/>
      </g>
     </g>
    </g>
    <g id="xtick_11">
     <g id="line2d_21">
      <g>
       <use xlink:href="#m7bc8d72468" x="221.784835" y="210.846005" style="stroke: #000000; stroke-width: 0.6"/>
      </g>
     </g>
     <g id="line2d_22">
      <g>
       <use xlink:href="#mb9bf08ae53" x="221.784835" y="7.2" style="stroke: #000000; stroke-width: 0.6"/>
      </g>
     </g>
    </g>
    <g id="xtick_12">
     <g id="line2d_23">
      <g>
       <use xlink:href="#m7bc8d72468" x="233.33083" y="210.846005" style="stroke: #000000; stroke-width: 0.6"/>
      </g>
     </g>
     <g id="line2d_24">
      <g>
       <use xlink:href="#mb9bf08ae53" x="233.33083" y="7.2" style="stroke: #000000; stroke-width: 0.6"/>
      </g>
     </g>
    </g>
    <g id="xtick_13">
     <g id="line2d_25">
      <g>
       <use xlink:href="#m7bc8d72468" x="243.332425" y="210.846005" style="stroke: #000000; stroke-width: 0.6"/>
      </g>
     </g>
     <g id="line2d_26">
      <g>
       <use xlink:href="#mb9bf08ae53" x="243.332425" y="7.2" style="stroke: #000000; stroke-width: 0.6"/>
      </g>
     </g>
    </g>
    <g id="xtick_14">
     <g id="line2d_27">
      <g>
       <use xlink:href="#m7bc8d72468" x="252.154457" y="210.846005" style="stroke: #000000; stroke-width: 0.6"/>
      </g>
     </g>
     <g id="line2d_28">
      <g>
       <use xlink:href="#mb9bf08ae53" x="252.154457" y="7.2" style="stroke: #000000; stroke-width: 0.6"/>
      </g>
     </g>
    </g>
    <g id="xtick_15">
     <g id="line2d_29">
      <g>
       <use xlink:href="#m7bc8d72468" x="311.963246" y="210.846005" style="stroke: #000000; stroke-width: 0.6"/>
      </g>
     </g>
     <g id="line2d_30">
      <g>
       <use xlink:href="#mb9bf08ae53" x="311.963246" y="7.2" style="stroke: #000000; stroke-width: 0.6"/>
      </g>
     </g>
    </g>
    <g id="xtick_16">
     <g id="line2d_31">
      <g>
       <use xlink:href="#m7bc8d72468" x="342.332868" y="210.846005" style="stroke: #000000; stroke-width: 0.6"/>
      </g>
     </g>
     <g id="line2d_32">
      <g>
       <use xlink:href="#mb9bf08ae53" x="342.332868" y="7.2" style="stroke: #000000; stroke-width: 0.6"/>
      </g>
     </g>
    </g>
    <g id="xtick_17">
     <g id="line2d_33">
      <g>
       <use xlink:href="#m7bc8d72468" x="363.880458" y="210.846005" style="stroke: #000000; stroke-width: 0.6"/>
      </g>
     </g>
     <g id="line2d_34">
      <g>
       <use xlink:href="#mb9bf08ae53" x="363.880458" y="7.2" style="stroke: #000000; stroke-width: 0.6"/>
      </g>
     </g>
    </g>
    <g id="xtick_18">
     <g id="line2d_35">
      <g>
       <use xlink:href="#m7bc8d72468" x="380.594067" y="210.846005" style="stroke: #000000; stroke-width: 0.6"/>
      </g>
     </g>
     <g id="line2d_36">
      <g>
       <use xlink:href="#mb9bf08ae53" x="380.594067" y="7.2" style="stroke: #000000; stroke-width: 0.6"/>
      </g>
     </g>
    </g>
    <g id="xtick_19">
     <g id="line2d_37">
      <g>
       <use xlink:href="#m7bc8d72468" x="394.25008" y="210.846005" style="stroke: #000000; stroke-width: 0.6"/>
      </g>
     </g>
     <g id="line2d_38">
      <g>
       <use xlink:href="#mb9bf08ae53" x="394.25008" y="7.2" style="stroke: #000000; stroke-width: 0.6"/>
      </g>
     </g>
    </g>
    <g id="xtick_20">
     <g id="line2d_39">
      <g>
       <use xlink:href="#m7bc8d72468" x="405.796075" y="210.846005" style="stroke: #000000; stroke-width: 0.6"/>
      </g>
     </g>
     <g id="line2d_40">
      <g>
       <use xlink:href="#mb9bf08ae53" x="405.796075" y="7.2" style="stroke: #000000; stroke-width: 0.6"/>
      </g>
     </g>
    </g>
    <g id="xtick_21">
     <g id="line2d_41">
      <g>
       <use xlink:href="#m7bc8d72468" x="415.79767" y="210.846005" style="stroke: #000000; stroke-width: 0.6"/>
      </g>
     </g>
     <g id="line2d_42">
      <g>
       <use xlink:href="#mb9bf08ae53" x="415.79767" y="7.2" style="stroke: #000000; stroke-width: 0.6"/>
      </g>
     </g>
    </g>
    <g id="xtick_22">
     <g id="line2d_43">
      <g>
       <use xlink:href="#m7bc8d72468" x="424.619703" y="210.846005" style="stroke: #000000; stroke-width: 0.6"/>
      </g>
     </g>
     <g id="line2d_44">
      <g>
       <use xlink:href="#mb9bf08ae53" x="424.619703" y="7.2" style="stroke: #000000; stroke-width: 0.6"/>
      </g>
     </g>
    </g>
    <g id="text_4">
     <!-- $k$ -->
     <g transform="translate(257.518905 248.124366) scale(0.2 -0.2)">
      <defs>
       <path id="CMMI12-6b" d="M 1798 4257 
C 1805 4283 1818 4321 1818 4352 
C 1818 4416 1754 4416 1741 4416 
C 1734 4416 1504 4393 1389 4377 
C 1280 4377 1184 4358 1069 4358 
C 915 4345 870 4339 870 4224 
C 870 4160 934 4160 998 4160 
C 1325 4160 1325 4103 1325 4040 
C 1325 4015 1325 4002 1293 3888 
L 378 248 
C 352 152 352 140 352 101 
C 352 -38 461 -64 525 -64 
C 704 -64 742 77 794 275 
L 1094 1469 
C 1555 1418 1830 1226 1830 920 
C 1830 881 1830 856 1811 760 
C 1786 664 1786 588 1786 556 
C 1786 185 2029 -64 2355 -64 
C 2650 -64 2803 204 2854 294 
C 2989 530 3072 888 3072 913 
C 3072 945 3046 971 3008 971 
C 2950 971 2944 945 2918 843 
C 2829 511 2694 64 2368 64 
C 2240 64 2157 128 2157 370 
C 2157 492 2182 632 2208 728 
C 2234 843 2234 849 2234 926 
C 2234 1303 1894 1514 1306 1590 
C 1536 1731 1766 1980 1856 2076 
C 2221 2484 2470 2689 2765 2689 
C 2912 2689 2950 2650 2995 2612 
C 2758 2586 2669 2420 2669 2293 
C 2669 2139 2790 2088 2880 2088 
C 3053 2088 3206 2235 3206 2440 
C 3206 2625 3059 2816 2771 2816 
C 2419 2816 2131 2567 1677 2056 
C 1613 1980 1376 1737 1139 1648 
L 1798 4257 
z
" transform="scale(0.015625)"/>
      </defs>
      <use xlink:href="#CMMI12-6b" transform="scale(0.996264)"/>
     </g>
    </g>
   </g>
   <g id="matplotlib.axis_2">
    <g id="ytick_1">
     <g id="line2d_45">
      <defs>
       <path id="m5ec1c84a30" d="M 0 0 
L 6 0 
" style="stroke: #000000; stroke-width: 0.8"/>
      </defs>
      <g>
       <use xlink:href="#m5ec1c84a30" x="57.184847" y="179.36885" style="stroke: #000000; stroke-width: 0.8"/>
      </g>
     </g>
     <g id="line2d_46">
      <defs>
       <path id="me2d0ca0811" d="M 0 0 
L -6 0 
" style="stroke: #000000; stroke-width: 0.8"/>
      </defs>
      <g>
       <use xlink:href="#me2d0ca0811" x="468" y="179.36885" style="stroke: #000000; stroke-width: 0.8"/>
      </g>
     </g>
     <g id="text_5">
      <!-- $\mathdefault{10^{1}}$ -->
      <g transform="translate(31.090666 185.5955) scale(0.18 -0.18)">
       <use xlink:href="#CMR17-31" transform="scale(0.996264)"/>
       <use xlink:href="#CMR17-30" transform="translate(45.690477 0) scale(0.996264)"/>
       <use xlink:href="#CMR17-31" transform="translate(91.380954 36.153639) scale(0.697382)"/>
      </g>
     </g>
    </g>
    <g id="ytick_2">
     <g id="line2d_47">
      <g>
       <use xlink:href="#m5ec1c84a30" x="57.184847" y="133.001301" style="stroke: #000000; stroke-width: 0.8"/>
      </g>
     </g>
     <g id="line2d_48">
      <g>
       <use xlink:href="#me2d0ca0811" x="468" y="133.001301" style="stroke: #000000; stroke-width: 0.8"/>
      </g>
     </g>
     <g id="text_6">
      <!-- $\mathdefault{10^{3}}$ -->
      <g transform="translate(31.090666 139.227951) scale(0.18 -0.18)">
       <use xlink:href="#CMR17-31" transform="scale(0.996264)"/>
       <use xlink:href="#CMR17-30" transform="translate(45.690477 0) scale(0.996264)"/>
       <use xlink:href="#CMR17-33" transform="translate(91.380954 36.153639) scale(0.697382)"/>
      </g>
     </g>
    </g>
    <g id="ytick_3">
     <g id="line2d_49">
      <g>
       <use xlink:href="#m5ec1c84a30" x="57.184847" y="86.633753" style="stroke: #000000; stroke-width: 0.8"/>
      </g>
     </g>
     <g id="line2d_50">
      <g>
       <use xlink:href="#me2d0ca0811" x="468" y="86.633753" style="stroke: #000000; stroke-width: 0.8"/>
      </g>
     </g>
     <g id="text_7">
      <!-- $\mathdefault{10^{5}}$ -->
      <g transform="translate(31.090666 92.860403) scale(0.18 -0.18)">
       <defs>
        <path id="CMR17-35" d="M 730 3692 
C 794 3666 1056 3584 1325 3584 
C 1920 3584 2246 3911 2432 4100 
C 2432 4157 2432 4192 2394 4192 
C 2387 4192 2374 4192 2323 4163 
C 2099 4058 1837 3973 1517 3973 
C 1325 3973 1037 3999 723 4139 
C 653 4171 640 4171 634 4171 
C 602 4171 595 4164 595 4037 
L 595 2203 
C 595 2089 595 2057 659 2057 
C 691 2057 704 2070 736 2114 
C 941 2401 1222 2522 1542 2522 
C 1766 2522 2246 2382 2246 1289 
C 2246 1085 2246 715 2054 421 
C 1894 159 1645 25 1370 25 
C 947 25 518 320 403 814 
C 429 807 480 795 506 795 
C 589 795 749 840 749 1038 
C 749 1210 627 1280 506 1280 
C 358 1280 262 1190 262 1011 
C 262 454 704 -128 1382 -128 
C 2042 -128 2669 440 2669 1264 
C 2669 2030 2170 2624 1549 2624 
C 1222 2624 947 2503 730 2274 
L 730 3692 
z
" transform="scale(0.015625)"/>
       </defs>
       <use xlink:href="#CMR17-31" transform="scale(0.996264)"/>
       <use xlink:href="#CMR17-30" transform="translate(45.690477 0) scale(0.996264)"/>
       <use xlink:href="#CMR17-35" transform="translate(91.380954 36.153639) scale(0.697382)"/>
      </g>
     </g>
    </g>
    <g id="ytick_4">
     <g id="line2d_51">
      <g>
       <use xlink:href="#m5ec1c84a30" x="57.184847" y="40.266204" style="stroke: #000000; stroke-width: 0.8"/>
      </g>
     </g>
     <g id="line2d_52">
      <g>
       <use xlink:href="#me2d0ca0811" x="468" y="40.266204" style="stroke: #000000; stroke-width: 0.8"/>
      </g>
     </g>
     <g id="text_8">
      <!-- $\mathdefault{10^{7}}$ -->
      <g transform="translate(31.090666 46.492854) scale(0.18 -0.18)">
       <defs>
        <path id="CMR17-37" d="M 2886 3941 
L 2886 4081 
L 1382 4081 
C 634 4081 621 4165 595 4288 
L 480 4288 
L 294 3094 
L 410 3094 
C 429 3215 474 3540 550 3661 
C 589 3712 1062 3712 1171 3712 
L 2579 3712 
L 1869 2661 
C 1395 1954 1069 999 1069 165 
C 1069 89 1069 -128 1299 -128 
C 1530 -128 1530 89 1530 171 
L 1530 465 
C 1530 1508 1709 2196 2003 2636 
L 2886 3941 
z
" transform="scale(0.015625)"/>
       </defs>
       <use xlink:href="#CMR17-31" transform="scale(0.996264)"/>
       <use xlink:href="#CMR17-30" transform="translate(45.690477 0) scale(0.996264)"/>
       <use xlink:href="#CMR17-37" transform="translate(91.380954 36.153639) scale(0.697382)"/>
      </g>
     </g>
    </g>
    <g id="text_9">
     <!-- $P(k)$ -->
     <g transform="translate(22.126022 129.129655) rotate(-90) scale(0.2 -0.2)">
      <defs>
       <path id="CMMI12-50" d="M 1894 2023 
L 2970 2023 
C 3853 2023 4736 2673 4736 3401 
C 4736 3898 4314 4352 3507 4352 
L 1530 4352 
C 1408 4352 1350 4352 1350 4231 
C 1350 4167 1408 4167 1504 4167 
C 1894 4167 1894 4116 1894 4046 
C 1894 4034 1894 3995 1869 3899 
L 1005 472 
C 947 249 934 185 486 185 
C 365 185 301 185 301 70 
C 301 0 358 0 397 0 
C 518 0 646 0 768 0 
L 1517 0 
C 1638 0 1773 0 1894 0 
C 1946 0 2016 0 2016 121 
C 2016 185 1958 185 1862 185 
C 1478 185 1472 230 1472 293 
C 1472 325 1478 369 1485 401 
L 1894 2023 
z
M 2355 3930 
C 2413 4167 2438 4167 2688 4167 
L 3322 4167 
C 3802 4167 4198 4013 4198 3535 
C 4198 3369 4115 2827 3821 2534 
C 3712 2419 3405 2176 2822 2176 
L 1920 2176 
L 2355 3930 
z
" transform="scale(0.015625)"/>
       <path id="CMR17-28" d="M 1958 -1561 
C 1958 -1555 1958 -1542 1939 -1523 
C 1645 -1224 858 -407 858 1581 
C 858 3569 1632 4379 1946 4697 
C 1946 4704 1958 4717 1958 4736 
C 1958 4755 1939 4768 1914 4768 
C 1843 4768 1299 4296 986 3594 
C 666 2887 576 2199 576 1588 
C 576 1128 621 351 1005 -471 
C 1312 -1135 1837 -1600 1914 -1600 
C 1946 -1600 1958 -1587 1958 -1561 
z
" transform="scale(0.015625)"/>
       <path id="CMR17-29" d="M 1683 1581 
C 1683 2040 1638 2817 1254 3639 
C 947 4303 422 4768 346 4768 
C 326 4768 301 4761 301 4729 
C 301 4717 307 4710 314 4697 
C 621 4378 1402 3568 1402 1584 
C 1402 -407 627 -1217 314 -1537 
C 307 -1549 301 -1556 301 -1568 
C 301 -1600 326 -1600 346 -1600 
C 416 -1600 960 -1128 1274 -426 
C 1594 281 1683 969 1683 1581 
z
" transform="scale(0.015625)"/>
      </defs>
      <use xlink:href="#CMMI12-50" transform="scale(0.996264)"/>
      <use xlink:href="#CMR17-28" transform="translate(76.425821 0) scale(0.996264)"/>
      <use xlink:href="#CMMI12-6b" transform="translate(111.706589 0) scale(0.996264)"/>
      <use xlink:href="#CMR17-29" transform="translate(165.785789 0) scale(0.996264)"/>
     </g>
    </g>
   </g>
   <g id="line2d_53">
    <path d="M 57.184847 7.2 
L 95.446046 10.709078 
L 120.648053 20.428448 
L 139.471681 18.711845 
L 154.502057 31.98338 
L 167.014526 31.681193 
L 177.73288 38.261418 
L 187.107688 42.146762 
L 195.438566 44.41029 
L 202.934887 43.324794 
L 209.748738 48.714492 
L 215.994079 48.505908 
L 221.758515 50.63713 
L 227.110842 57.012532 
L 232.106073 61.245545 
L 236.788892 59.041822 
L 241.196086 60.67111 
L 245.358307 64.382115 
L 249.30136 65.973813 
L 253.047176 68.298569 
L 256.61455 68.361392 
L 260.019714 66.932663 
L 263.27678 66.311166 
L 266.398094 70.87197 
L 269.394522 71.415208 
L 272.275673 72.669465 
L 275.050091 73.283365 
L 277.7254 74.904546 
L 280.308439 77.207548 
L 282.80536 76.828136 
L 285.221722 78.939235 
L 287.562559 81.284133 
L 289.832451 80.80462 
L 292.035572 83.118102 
L 294.175738 84.714857 
L 296.256447 83.346302 
L 298.280913 85.416292 
L 300.252098 86.228469 
L 302.172734 88.211106 
L 304.045349 88.752783 
L 305.872286 88.965402 
L 307.655721 89.795347 
L 309.397676 90.940203 
L 311.100038 92.497398 
L 312.764567 91.629529 
L 314.392907 91.622498 
L 315.986599 92.500784 
L 317.547087 94.718638 
L 319.075726 93.387436 
L 320.57379 92.775519 
L 322.042478 96.199221 
L 323.482921 96.498219 
L 324.896183 97.938246 
L 326.283273 97.045606 
L 327.645142 98.728596 
L 328.98269 98.682583 
L 330.296771 99.986201 
L 331.588194 100.67736 
L 332.857728 100.678259 
L 334.106102 101.662339 
L 335.33401 103.557989 
L 336.542112 104.096086 
L 337.731037 103.759948 
L 338.901384 105.101655 
L 340.053726 105.392099 
L 341.188607 106.364172 
L 342.306548 106.401557 
L 343.408049 107.767859 
L 344.493586 107.066876 
L 345.563614 107.734505 
L 346.618571 108.956599 
L 347.658875 110.757933 
L 348.684928 111.496024 
L 349.697115 111.129447 
L 350.695806 112.164875 
L 351.681356 112.003253 
L 352.654106 112.549111 
L 353.614385 112.812632 
L 355.498778 113.050841 
L 356.42349 114.868724 
L 357.336925 114.703387 
L 358.239354 115.569059 
L 359.131039 115.908625 
L 360.012234 115.991909 
L 360.883182 115.670519 
L 361.74412 117.866306 
L 362.595273 117.540408 
L 363.436863 117.005305 
L 364.269102 119.078015 
L 365.092194 119.615062 
L 365.906341 119.509792 
L 366.711732 119.934769 
L 367.508556 121.554697 
L 368.296992 120.883163 
L 369.077214 121.063382 
L 369.849393 121.832503 
L 370.613693 121.916707 
L 371.370272 124.069068 
L 372.119285 124.226214 
L 372.860883 123.252898 
L 373.595209 124.70979 
L 374.322406 125.499421 
L 375.042611 124.959649 
L 375.755956 125.580375 
L 376.462572 125.739168 
L 377.162583 127.029018 
L 377.856113 126.893927 
L 378.543281 127.555622 
L 379.224201 127.920544 
L 379.898987 128.107029 
L 380.567747 130.49799 
L 381.23059 129.301627 
L 381.887618 130.108535 
L 382.538932 130.578322 
L 383.184632 130.766551 
L 383.824813 131.568008 
L 384.459568 131.837452 
L 385.08899 132.569889 
L 385.713166 132.050694 
L 386.332183 132.647145 
L 387.555079 135.238848 
L 388.15912 134.326501 
L 388.758329 135.199635 
L 389.352782 135.041373 
L 390.52772 136.722289 
L 391.108348 136.408344 
L 391.68451 137.213062 
L 392.256274 137.254133 
L 392.823706 138.476363 
L 393.386872 138.066638 
L 393.945835 139.458232 
L 394.500658 139.22517 
L 395.051401 140.569162 
L 395.598124 141.228626 
L 396.140885 141.0737 
L 396.679741 141.242921 
L 397.214748 141.60095 
L 397.745961 143.115889 
L 398.273433 142.41744 
L 398.797217 143.08759 
L 399.317362 142.785911 
L 399.833921 143.556106 
L 400.346942 143.43135 
L 401.36256 146.173811 
L 401.865251 145.598977 
L 402.364591 145.678265 
L 402.860624 146.612561 
L 403.842942 147.156465 
L 404.329312 147.662047 
L 404.812544 147.632295 
L 405.292679 146.730661 
L 405.769755 148.171119 
L 406.243811 148.647959 
L 406.714887 148.764511 
L 407.183018 149.781875 
L 407.648241 150.493959 
L 408.110592 150.698647 
L 408.570107 150.422453 
L 409.02682 150.801635 
L 409.480765 151.420031 
L 410.826323 152.304248 
L 411.269524 152.234674 
L 411.710118 153.993492 
L 412.148135 153.917186 
L 412.583605 155.263774 
L 413.016558 155.082642 
L 413.447023 154.603793 
L 413.875028 155.9323 
L 414.300602 155.538159 
L 415.144562 156.571965 
L 415.563003 156.806904 
L 415.979119 157.346794 
L 416.392936 157.503687 
L 416.80448 157.873477 
L 417.620844 158.257685 
L 418.025714 158.602099 
L 418.428407 157.945432 
L 418.828946 158.421476 
L 419.227355 158.61946 
L 419.623656 159.586877 
L 420.017871 158.491222 
L 420.410022 159.689228 
L 421.188219 160.870399 
L 421.574306 161.227212 
L 421.958413 161.994098 
L 422.720767 162.549679 
L 423.475441 163.673261 
L 423.849945 164.210354 
L 424.593382 164.761971 
L 424.962352 165.71849 
L 425.329513 165.820816 
L 425.694883 165.609671 
L 426.05848 165.636894 
L 426.420319 166.48368 
L 426.78042 166.653971 
L 427.138797 167.081266 
L 427.850448 166.842241 
L 428.555401 168.142607 
L 428.905405 168.209976 
L 429.253781 168.462762 
L 429.600544 169.135794 
L 429.945709 168.883821 
L 430.289291 169.02669 
L 430.631304 169.895501 
L 430.971762 169.983151 
L 431.31068 169.846062 
L 432.651221 171.440962 
L 432.98264 172.745418 
L 433.3126 172.455673 
L 433.641112 172.431134 
L 433.96819 172.617036 
L 434.94094 174.568076 
L 435.262403 173.795076 
L 435.582492 174.435683 
L 435.901219 174.681196 
L 436.218595 174.605218 
L 436.849342 176.534876 
L 437.162734 175.128628 
L 437.474821 175.658892 
L 437.785613 176.658667 
L 438.09512 176.114221 
L 438.403354 176.239987 
L 439.320517 177.135029 
L 439.623759 176.960978 
L 439.925778 177.648564 
L 440.226585 177.60592 
L 440.526188 179.529692 
L 440.824597 179.241208 
L 441.121823 179.836387 
L 441.417873 179.335349 
L 442.299068 181.67809 
L 442.590511 181.485965 
L 442.880824 182.80517 
L 443.170017 183.025859 
L 443.458097 182.380918 
L 443.745073 182.620204 
L 444.030954 184.083491 
L 444.315748 183.41265 
L 444.599463 183.771829 
L 444.882107 184.459794 
L 445.163689 183.614311 
L 445.723697 185.169423 
L 446.002139 185.361223 
L 446.279549 185.382766 
L 446.555936 186.327407 
L 446.831306 186.042124 
L 447.105668 186.62281 
L 447.379029 186.129842 
L 447.651395 186.379983 
L 447.922775 187.627456 
L 448.193175 187.405822 
L 448.462602 186.793668 
L 448.731064 186.995471 
L 448.998566 187.986617 
L 449.265117 188.107133 
L 449.530723 188.597426 
L 449.79539 188.541629 
L 450.059125 188.14789 
L 450.321935 188.114427 
L 450.583826 189.049666 
L 450.844804 189.468194 
L 451.104876 189.201809 
L 451.364048 189.806134 
L 451.879718 189.976496 
L 452.136227 190.319142 
L 452.391862 191.102132 
L 452.646626 190.805588 
L 453.15357 192.090982 
L 453.405761 190.980135 
L 453.90761 192.087919 
L 454.15728 192.054581 
L 454.406119 191.585545 
L 454.654135 191.953364 
L 454.901333 191.870099 
L 455.147717 192.160816 
L 455.393293 192.134917 
L 455.638067 193.756243 
L 455.882043 192.883577 
L 456.125227 192.523644 
L 456.367625 193.375513 
L 456.60924 192.858983 
L 456.850079 193.521077 
L 457.090145 193.636008 
L 457.329445 194.742215 
L 457.805763 194.15859 
L 458.04279 194.846793 
L 458.27907 194.911359 
L 458.514607 195.259494 
L 458.749406 195.402762 
L 458.983471 196.521294 
L 459.216807 194.179109 
L 459.449418 195.454963 
L 459.912484 195.647172 
L 460.142948 195.358556 
L 460.601759 196.414376 
L 460.830115 195.999028 
L 461.057777 196.800084 
L 461.284749 195.964645 
L 461.511035 197.100309 
L 461.73664 196.325996 
L 461.961567 197.17443 
L 462.185821 196.501269 
L 462.409405 197.080329 
L 462.632324 197.056119 
L 462.854581 197.827529 
L 463.076181 197.267627 
L 463.297127 197.790638 
L 463.737074 197.709637 
L 463.956082 197.864252 
L 464.174452 197.632663 
L 464.392187 198.889092 
L 464.60929 197.247909 
L 465.041619 198.88784 
L 465.256851 198.029652 
L 465.898861 199.376285 
L 466.111647 198.702675 
L 466.535414 198.630801 
L 466.746402 198.423245 
L 466.956798 198.545384 
L 467.166604 198.516196 
L 467.375824 200.584027 
L 467.584461 198.492946 
L 467.792519 198.822086 
L 468 200.227187 
L 468 200.227187 
" clip-path="url(#pb832d3c654)" style="fill: none; stroke: #0000ff; stroke-width: 2.5; stroke-linecap: square"/>
   </g>
   <g id="line2d_54">
    <path d="M 57.184847 11.193764 
L 95.446046 18.674273 
L 120.648053 22.111318 
L 139.471681 28.758014 
L 154.502057 33.696914 
L 167.014526 41.436666 
L 177.73288 43.260927 
L 187.107688 44.519367 
L 195.438566 51.159941 
L 202.934887 46.922282 
L 209.748738 48.622937 
L 215.994079 51.434685 
L 221.758515 55.064626 
L 227.110842 61.339826 
L 232.106073 66.084185 
L 236.788892 60.037593 
L 241.196086 65.095128 
L 245.358307 67.089691 
L 249.30136 70.047899 
L 256.61455 74.284859 
L 260.019714 72.874332 
L 263.27678 72.464875 
L 266.398094 77.069986 
L 269.394522 80.140888 
L 272.275673 77.03228 
L 275.050091 78.708216 
L 277.7254 80.064754 
L 280.308439 83.483434 
L 282.80536 82.638192 
L 285.221722 84.950867 
L 287.562559 86.82107 
L 289.832451 88.401148 
L 292.035572 89.405646 
L 294.175738 91.623892 
L 296.256447 89.732445 
L 298.280913 91.603836 
L 300.252098 91.565664 
L 302.172734 95.086644 
L 304.045349 94.079185 
L 307.655721 93.060629 
L 309.397676 96.559405 
L 311.100038 97.961158 
L 312.764567 98.221271 
L 314.392907 96.528538 
L 315.986599 97.278677 
L 317.547087 98.938233 
L 319.075726 99.316292 
L 320.57379 97.866796 
L 322.042478 104.524512 
L 323.482921 103.59355 
L 324.896183 104.013476 
L 326.283273 107.093943 
L 327.645142 105.862777 
L 328.98269 107.068713 
L 330.296771 106.502439 
L 331.588194 108.624739 
L 332.857728 107.639634 
L 334.106102 108.95449 
L 335.33401 110.748039 
L 336.542112 112.124934 
L 337.731037 111.453527 
L 340.053726 113.320933 
L 341.188607 112.141986 
L 342.306548 113.395728 
L 343.408049 114.845535 
L 344.493586 115.970619 
L 345.563614 114.449932 
L 346.618571 116.153642 
L 347.658875 115.850579 
L 348.684928 119.228722 
L 349.697115 118.25462 
L 350.695806 119.107612 
L 351.681356 118.373888 
L 352.654106 121.627734 
L 353.614385 119.33685 
L 354.562507 121.108788 
L 355.498778 121.681647 
L 356.42349 122.736556 
L 357.336925 123.277253 
L 358.239354 123.030176 
L 359.131039 123.577174 
L 360.012234 124.45038 
L 360.883182 124.762923 
L 361.74412 124.913611 
L 362.595273 125.282957 
L 363.436863 125.217018 
L 364.269102 127.413715 
L 365.092194 126.532796 
L 365.906341 128.79564 
L 366.711732 127.977516 
L 367.508556 129.472066 
L 368.296992 128.812416 
L 369.077214 128.463551 
L 369.849393 131.116186 
L 370.613693 130.528046 
L 371.370272 132.010322 
L 372.119285 132.060544 
L 372.860883 131.579538 
L 373.595209 133.499448 
L 374.322406 133.653526 
L 375.042611 133.113582 
L 375.755956 135.207073 
L 376.462572 134.037949 
L 377.162583 136.50983 
L 377.856113 136.835866 
L 378.543281 136.347305 
L 379.224201 137.109146 
L 379.898987 137.421768 
L 380.567747 138.740984 
L 381.23059 139.097 
L 381.887618 138.558018 
L 382.538932 138.792483 
L 383.184632 139.435271 
L 383.824813 140.523895 
L 384.459568 140.298793 
L 385.713166 141.751845 
L 386.332183 140.949077 
L 386.946127 143.456601 
L 388.15912 144.008699 
L 388.758329 143.97802 
L 389.942555 144.84306 
L 390.52772 144.266672 
L 391.108348 145.211839 
L 391.68451 147.17685 
L 392.256274 146.103996 
L 392.823706 147.935566 
L 393.386872 147.834672 
L 393.945835 148.035571 
L 394.500658 148.358759 
L 395.051401 150.061038 
L 395.598124 149.640982 
L 396.140885 150.919506 
L 396.679741 150.077343 
L 397.214748 150.945642 
L 397.745961 151.356961 
L 398.273433 150.039844 
L 398.797217 151.28102 
L 399.317362 151.153788 
L 399.833921 152.859781 
L 400.346942 152.463118 
L 400.856472 153.300386 
L 401.36256 154.491186 
L 401.865251 154.455039 
L 402.364591 154.139655 
L 403.842942 155.99769 
L 404.329312 156.103517 
L 404.812544 157.68954 
L 405.292679 156.158055 
L 405.769755 159.005687 
L 406.243811 158.630222 
L 407.183018 159.003822 
L 407.648241 160.188915 
L 408.110592 159.4677 
L 408.570107 160.985719 
L 409.02682 159.573841 
L 409.480765 160.59959 
L 410.380484 161.97223 
L 410.826323 161.883561 
L 411.269524 163.137231 
L 411.710118 163.451763 
L 412.148135 162.965705 
L 412.583605 163.773143 
L 413.016558 165.045207 
L 413.447023 163.241673 
L 413.875028 165.341606 
L 414.300602 166.055886 
L 414.723771 164.770274 
L 415.563003 166.912254 
L 416.392936 166.991708 
L 416.80448 167.056591 
L 417.213774 168.611387 
L 417.620844 168.958633 
L 418.025714 168.616664 
L 418.428407 168.774157 
L 418.828946 169.3398 
L 419.227355 170.148741 
L 419.623656 169.92061 
L 420.017871 170.888656 
L 420.410022 171.41772 
L 420.800131 170.948378 
L 421.188219 170.907846 
L 421.574306 172.058279 
L 421.958413 171.989475 
L 422.34056 172.045942 
L 422.720767 173.362746 
L 423.099054 174.033222 
L 423.475441 173.682775 
L 423.849945 175.002113 
L 424.593382 174.690364 
L 424.962352 175.744668 
L 425.694883 176.038411 
L 426.05848 175.50203 
L 426.420319 176.458613 
L 426.78042 176.548565 
L 427.138797 177.146714 
L 427.495468 178.137724 
L 427.850448 177.871546 
L 428.203754 177.263029 
L 428.555401 179.004284 
L 428.905405 180.09545 
L 429.253781 179.899516 
L 429.600544 179.445335 
L 429.945709 180.970384 
L 430.289291 179.80767 
L 430.631304 181.277739 
L 430.971762 181.725641 
L 431.31068 181.176193 
L 431.648071 181.498435 
L 431.983949 182.108694 
L 432.651221 181.642771 
L 433.3126 183.51177 
L 433.96819 183.723973 
L 434.293846 183.499722 
L 434.618092 185.161727 
L 434.94094 184.39307 
L 435.262403 184.03969 
L 435.582492 185.868246 
L 435.901219 185.883534 
L 436.218595 185.508772 
L 436.534632 185.658639 
L 436.849342 187.216606 
L 437.162734 186.434484 
L 437.474821 186.374732 
L 437.785613 187.018549 
L 438.710324 188.147702 
L 439.016042 188.085638 
L 439.320517 188.79654 
L 439.623759 188.286998 
L 439.925778 190.276334 
L 440.226585 189.324614 
L 441.121823 191.168931 
L 441.417873 190.705453 
L 442.006487 190.979824 
L 442.299068 190.963327 
L 442.880824 192.312154 
L 443.170017 192.414135 
L 443.458097 193.054736 
L 444.030954 193.187384 
L 444.315748 193.819922 
L 444.599463 193.35785 
L 445.163689 194.747423 
L 445.444217 194.315352 
L 445.723697 195.136529 
L 446.002139 196.400945 
L 446.279549 195.280041 
L 446.555936 195.46414 
L 447.105668 196.480126 
L 447.379029 196.437591 
L 447.651395 196.072514 
L 447.922775 196.820567 
L 448.193175 196.931553 
L 448.462602 197.905661 
L 448.731064 197.068953 
L 448.998566 198.608675 
L 449.265117 198.028188 
L 449.530723 199.257364 
L 449.79539 198.311147 
L 450.321935 198.644192 
L 450.583826 199.368441 
L 450.844804 199.380389 
L 451.879718 200.411747 
L 452.136227 200.855235 
L 452.391862 201.702924 
L 452.646626 200.512827 
L 452.900527 201.529088 
L 453.15357 201.246506 
L 453.405761 200.657685 
L 453.657106 201.553884 
L 453.90761 202.031765 
L 454.406119 201.787225 
L 454.654135 201.809141 
L 454.901333 203.028126 
L 455.147717 202.726093 
L 455.393293 201.933575 
L 455.638067 203.533347 
L 455.882043 203.248268 
L 456.125227 203.752602 
L 456.367625 203.699016 
L 456.60924 204.442355 
L 456.850079 204.469867 
L 457.090145 204.145663 
L 457.329445 205.614255 
L 457.567982 204.776789 
L 457.805763 204.50809 
L 458.27907 206.510208 
L 458.514607 206.290919 
L 458.749406 205.89582 
L 458.983471 206.295764 
L 459.216807 204.335148 
L 459.449418 206.237792 
L 459.681308 206.737965 
L 459.912484 206.870106 
L 460.142948 206.566034 
L 460.372705 206.874404 
L 460.601759 207.441285 
L 461.057777 207.244976 
L 461.284749 207.51558 
L 461.511035 208.522987 
L 461.73664 206.98534 
L 461.961567 207.289532 
L 462.185821 208.387656 
L 462.409405 207.845695 
L 462.632324 208.541702 
L 463.076181 208.422046 
L 463.297127 207.91274 
L 463.517424 208.57494 
L 463.737074 208.496386 
L 463.956082 208.907287 
L 464.174452 208.236452 
L 464.392187 209.125723 
L 464.60929 208.801499 
L 464.825766 208.012362 
L 465.041619 209.737871 
L 465.256851 208.538318 
L 465.471466 208.881012 
L 465.685468 208.862023 
L 465.898861 210.042047 
L 466.111647 208.696181 
L 466.535414 210.846005 
L 466.746402 209.536695 
L 466.956798 209.531843 
L 467.166604 209.2297 
L 467.375824 210.346416 
L 467.584461 209.411286 
L 467.792519 209.966845 
L 468 210.188516 
L 468 210.188516 
" clip-path="url(#pb832d3c654)" style="fill: none; stroke: #ff0000; stroke-width: 2.5; stroke-linecap: square"/>
   </g>
   <g id="line2d_55">
    <path d="M 126.141142 -1 
L 468 167.500354 
L 468 167.500354 
" clip-path="url(#pb832d3c654)" style="fill: none; stroke-dasharray: 14.8,6.4; stroke-dashoffset: 0; stroke: #000000; stroke-width: 4"/>
   </g>
   <g id="patch_3">
    <path d="M 57.184847 210.846005 
L 57.184847 7.2 
" style="fill: none; stroke: #000000; stroke-linejoin: miter; stroke-linecap: square"/>
   </g>
   <g id="patch_4">
    <path d="M 468 210.846005 
L 468 7.2 
" style="fill: none; stroke: #000000; stroke-linejoin: miter; stroke-linecap: square"/>
   </g>
   <g id="patch_5">
    <path d="M 57.184847 210.846005 
L 468 210.846005 
" style="fill: none; stroke: #000000; stroke-linejoin: miter; stroke-linecap: square"/>
   </g>
   <g id="patch_6">
    <path d="M 57.184847 7.2 
L 468 7.2 
" style="fill: none; stroke: #000000; stroke-linejoin: miter; stroke-linecap: square"/>
   </g>
   <g id="legend_1">
    <g id="line2d_56">
     <path d="M 73.384847 134.681813 
L 91.384847 134.681813 
L 109.384847 134.681813 
" style="fill: none; stroke: #0000ff; stroke-width: 2.5; stroke-linecap: square"/>
    </g>
    <g id="text_10">
     <!-- $M_s=10, M_A=0.8$ -->
     <g transform="translate(123.784847 140.981813) scale(0.18 -0.18)">
      <defs>
       <path id="CMMI12-4d" d="M 5811 3886 
C 5869 4103 5882 4167 6336 4167 
C 6458 4167 6515 4167 6515 4288 
C 6515 4352 6470 4352 6349 4352 
L 5581 4352 
C 5421 4352 5414 4346 5344 4243 
L 3008 562 
L 2528 4211 
C 2509 4352 2502 4352 2336 4352 
L 1542 4352 
C 1421 4352 1363 4352 1363 4231 
C 1363 4167 1421 4167 1517 4167 
C 1907 4167 1907 4116 1907 4046 
C 1907 4034 1907 3995 1882 3899 
L 1062 634 
C 986 327 838 186 410 186 
C 390 186 314 186 314 73 
C 314 0 371 0 397 0 
C 525 0 851 0 979 0 
L 1286 0 
C 1376 0 1485 0 1574 0 
C 1619 0 1690 0 1690 122 
C 1690 180 1626 186 1600 186 
C 1389 186 1184 224 1184 454 
C 1184 518 1184 524 1210 613 
L 2093 4129 
L 2099 4129 
L 2630 172 
C 2650 19 2656 0 2714 0 
C 2784 0 2816 51 2848 109 
L 5421 4161 
L 5427 4161 
L 4499 473 
C 4442 250 4429 186 3981 186 
C 3859 186 3795 186 3795 70 
C 3795 0 3853 0 3891 0 
C 4000 0 4128 0 4237 0 
L 4992 0 
C 5101 0 5235 0 5344 0 
C 5395 0 5466 0 5466 122 
C 5466 186 5408 186 5312 186 
C 4922 186 4922 234 4922 294 
C 4922 301 4922 345 4934 396 
L 5811 3886 
z
" transform="scale(0.015625)"/>
       <path id="CMMI12-73" d="M 1459 1280 
C 1568 1261 1741 1223 1779 1216 
C 1862 1192 2150 1090 2150 783 
C 2150 586 1971 70 1229 70 
C 1094 70 614 70 486 436 
C 742 404 870 603 870 745 
C 870 880 781 950 653 950 
C 512 950 326 841 326 552 
C 326 173 710 -64 1222 -64 
C 2195 -64 2483 651 2483 984 
C 2483 1079 2483 1258 2278 1462 
C 2118 1616 1965 1648 1619 1718 
C 1446 1756 1171 1814 1171 2101 
C 1171 2229 1286 2689 1894 2689 
C 2163 2689 2426 2589 2490 2368 
C 2208 2368 2195 2125 2195 2119 
C 2195 1984 2317 1946 2374 1946 
C 2464 1946 2643 2015 2643 2281 
C 2643 2545 2400 2816 1901 2816 
C 1062 2816 838 2160 838 1899 
C 838 1414 1312 1312 1459 1280 
z
" transform="scale(0.015625)"/>
       <path id="CMR17-3d" d="M 4115 2017 
C 4211 2017 4307 2017 4307 2125 
C 4307 2240 4198 2240 4090 2240 
L 512 2240 
C 403 2240 294 2240 294 2125 
C 294 2017 390 2017 486 2017 
L 4115 2017 
z
M 4090 896 
C 4198 896 4307 896 4307 1011 
C 4307 1119 4211 1119 4115 1119 
L 486 1119 
C 390 1119 294 1119 294 1011 
C 294 896 403 896 512 896 
L 4090 896 
z
" transform="scale(0.015625)"/>
       <path id="CMMI12-3b" d="M 1248 -31 
C 1248 343 1126 619 864 619 
C 659 619 557 453 557 313 
C 557 172 653 0 870 0 
C 954 0 1024 26 1082 83 
C 1094 96 1101 96 1107 96 
C 1120 96 1120 5 1120 -27 
C 1120 -240 1082 -659 710 -1080 
C 640 -1157 640 -1170 640 -1183 
C 640 -1216 672 -1248 704 -1248 
C 755 -1248 1248 -771 1248 -31 
z
" transform="scale(0.015625)"/>
       <path id="CMMI12-41" d="M 1088 691 
C 864 314 646 186 339 186 
C 269 180 218 180 218 58 
C 218 24 250 0 294 0 
C 410 0 698 0 813 0 
C 998 0 1203 0 1382 0 
C 1421 0 1498 0 1498 122 
C 1498 180 1446 186 1408 186 
C 1261 186 1139 236 1139 388 
C 1139 476 1178 546 1261 685 
L 1747 1479 
L 3379 1479 
C 3386 1423 3386 1373 3392 1316 
C 3411 1152 3488 495 3488 376 
C 3488 186 3162 186 3059 186 
C 2989 186 2918 186 2918 70 
C 2918 0 2976 0 3014 0 
C 3123 0 3251 0 3360 0 
L 3725 0 
C 4115 0 4397 0 4403 0 
C 4448 0 4518 0 4518 122 
C 4518 186 4461 186 4365 186 
C 4013 186 4006 244 3987 434 
L 3597 4404 
C 3584 4531 3558 4544 3488 4544 
C 3424 4544 3386 4531 3328 4435 
L 1088 691 
z
M 1856 1664 
L 3142 3819 
L 3360 1664 
L 1856 1664 
z
" transform="scale(0.015625)"/>
       <path id="CMMI12-3a" d="M 1178 307 
C 1178 492 1024 619 870 619 
C 685 619 557 466 557 313 
C 557 128 710 0 864 0 
C 1050 0 1178 153 1178 307 
z
" transform="scale(0.015625)"/>
       <path id="CMR17-38" d="M 1741 2264 
C 2144 2467 2554 2773 2554 3263 
C 2554 3841 1990 4179 1472 4179 
C 890 4179 378 3759 378 3180 
C 378 3021 416 2747 666 2505 
C 730 2442 998 2251 1171 2130 
C 883 1983 211 1634 211 934 
C 211 279 838 -128 1459 -128 
C 2144 -128 2720 362 2720 1010 
C 2720 1590 2330 1857 2074 2029 
L 1741 2264 
z
M 902 2822 
C 851 2854 595 3051 595 3351 
C 595 3739 998 4032 1459 4032 
C 1965 4032 2336 3676 2336 3262 
C 2336 2669 1670 2331 1638 2331 
C 1632 2331 1626 2331 1574 2370 
L 902 2822 
z
M 2080 1519 
C 2176 1449 2483 1240 2483 851 
C 2483 381 2010 25 1472 25 
C 890 25 448 438 448 940 
C 448 1443 838 1862 1280 2060 
L 2080 1519 
z
" transform="scale(0.015625)"/>
      </defs>
      <use xlink:href="#CMMI12-4d" transform="scale(0.996264)"/>
      <use xlink:href="#CMMI12-73" transform="translate(94.373425 -14.943915) scale(0.697382)"/>
      <use xlink:href="#CMR17-3d" transform="translate(154.710455 0) scale(0.996264)"/>
      <use xlink:href="#CMR17-31" transform="translate(254.099252 0) scale(0.996264)"/>
      <use xlink:href="#CMR17-30" transform="translate(299.789729 0) scale(0.996264)"/>
      <use xlink:href="#CMMI12-3b" transform="translate(345.480206 0) scale(0.996264)"/>
      <use xlink:href="#CMMI12-4d" transform="translate(389.181788 0) scale(0.996264)"/>
      <use xlink:href="#CMMI12-41" transform="translate(483.555213 -14.943915) scale(0.697382)"/>
      <use xlink:href="#CMR17-3d" transform="translate(562.91665 0) scale(0.996264)"/>
      <use xlink:href="#CMR17-30" transform="translate(662.305448 0) scale(0.996264)"/>
      <use xlink:href="#CMMI12-3a" transform="translate(707.995925 0) scale(0.996264)"/>
      <use xlink:href="#CMR17-38" transform="translate(735.093102 0) scale(0.996264)"/>
     </g>
    </g>
    <g id="line2d_57">
     <path d="M 73.384847 159.769877 
L 91.384847 159.769877 
L 109.384847 159.769877 
" style="fill: none; stroke: #ff0000; stroke-width: 2.5; stroke-linecap: square"/>
    </g>
    <g id="text_11">
     <!-- $M_s=1, M_A=0.8$ -->
     <g transform="translate(123.784847 166.069877) scale(0.18 -0.18)">
      <use xlink:href="#CMMI12-4d" transform="scale(0.996264)"/>
      <use xlink:href="#CMMI12-73" transform="translate(94.373425 -14.943915) scale(0.697382)"/>
      <use xlink:href="#CMR17-3d" transform="translate(154.710455 0) scale(0.996264)"/>
      <use xlink:href="#CMR17-31" transform="translate(254.099252 0) scale(0.996264)"/>
      <use xlink:href="#CMMI12-3b" transform="translate(299.789729 0) scale(0.996264)"/>
      <use xlink:href="#CMMI12-4d" transform="translate(343.491311 0) scale(0.996264)"/>
      <use xlink:href="#CMMI12-41" transform="translate(437.864736 -14.943915) scale(0.697382)"/>
      <use xlink:href="#CMR17-3d" transform="translate(517.226173 0) scale(0.996264)"/>
      <use xlink:href="#CMR17-30" transform="translate(616.61497 0) scale(0.996264)"/>
      <use xlink:href="#CMMI12-3a" transform="translate(662.305448 0) scale(0.996264)"/>
      <use xlink:href="#CMR17-38" transform="translate(689.402625 0) scale(0.996264)"/>
     </g>
    </g>
    <g id="line2d_58">
     <path d="M 73.384847 184.857941 
L 91.384847 184.857941 
L 109.384847 184.857941 
" style="fill: none; stroke-dasharray: 14.8,6.4; stroke-dashoffset: 0; stroke: #000000; stroke-width: 4"/>
    </g>
    <g id="text_12">
     <!-- $k^{-11/3}$ -->
     <g transform="translate(123.784847 191.157941) scale(0.18 -0.18)">
      <defs>
       <path id="CMSY10-0" d="M 4218 1472 
C 4326 1472 4442 1472 4442 1600 
C 4442 1728 4326 1728 4218 1728 
L 755 1728 
C 646 1728 531 1728 531 1600 
C 531 1472 646 1472 755 1472 
L 4218 1472 
z
" transform="scale(0.015625)"/>
       <path id="CMMI12-3d" d="M 2746 4562 
C 2746 4569 2784 4666 2784 4678 
C 2784 4755 2720 4800 2669 4800 
C 2637 4800 2579 4800 2528 4659 
L 384 -1363 
C 384 -1370 346 -1465 346 -1478 
C 346 -1555 410 -1600 461 -1600 
C 499 -1600 557 -1593 602 -1459 
L 2746 4562 
z
" transform="scale(0.015625)"/>
      </defs>
      <use xlink:href="#CMMI12-6b" transform="scale(0.996264)"/>
      <use xlink:href="#CMSY10-0" transform="translate(54.079201 36.153639) scale(0.697382)"/>
      <use xlink:href="#CMR17-31" transform="translate(108.320194 36.153639) scale(0.697382)"/>
      <use xlink:href="#CMR17-31" transform="translate(140.303376 36.153639) scale(0.697382)"/>
      <use xlink:href="#CMMI12-3d" transform="translate(172.286558 36.153639) scale(0.697382)"/>
      <use xlink:href="#CMR17-33" transform="translate(206.428849 36.153639) scale(0.697382)"/>
     </g>
    </g>
   </g>
  </g>
 </g>
 <defs>
  <clipPath id="pb832d3c654">
   <rect x="57.184847" y="7.2" width="410.815153" height="203.646005"/>
  </clipPath>
 </defs>
</svg>
