<?xml version="1.0" encoding="utf-8" standalone="no"?>
<!DOCTYPE svg PUBLIC "-//W3C//DTD SVG 1.1//EN"
  "http://www.w3.org/Graphics/SVG/1.1/DTD/svg11.dtd">
<svg xmlns:xlink="http://www.w3.org/1999/xlink" width="475.2pt" height="259.2pt" viewBox="0 0 475.2 259.2" xmlns="http://www.w3.org/2000/svg" version="1.1">
 <metadata>
  <rdf:RDF xmlns:dc="http://purl.org/dc/elements/1.1/" xmlns:cc="http://creativecommons.org/ns#" xmlns:rdf="http://www.w3.org/1999/02/22-rdf-syntax-ns#">
   <cc:Work>
    <dc:type rdf:resource="http://purl.org/dc/dcmitype/StillImage"/>
    <dc:date>2026-02-12T17:57:16.707587</dc:date>
    <dc:format>image/svg+xml</dc:format>
    <dc:creator>
     <cc:Agent>
      <dc:title>Matplotlib v3.8.4, https://matplotlib.org/</dc:title>
     </cc:Agent>
    </dc:creator>
   </cc:Work>
  </rdf:RDF>
 </metadata>
 <defs>
  <style type="text/css">*{stroke-linejoin: round; stroke-linecap: butt}</style>
 </defs>
 <g id="figure_1">
  <g id="patch_1">
   <path d="M 0 259.2 
L 475.2 259.2 
L 475.2 0 
L 0 0 
z
" style="fill: #ffffff"/>
  </g>
  <g id="axes_1">
   <g id="patch_2">
    <path d="M 65.021594 210.846005 
L 468 210.846005 
L 468 7.2 
L 65.021594 7.2 
z
" style="fill: #ffffff"/>
   </g>
   <g id="matplotlib.axis_1">
    <g id="xtick_1">
     <g id="line2d_1">
      <defs>
       <path id="m883545cbe5" d="M 0 0 
L 0 -6 
" style="stroke: #000000; stroke-width: 0.8"/>
      </defs>
      <g>
       <use xlink:href="#m883545cbe5" x="152.497646" y="210.846005" style="stroke: #000000; stroke-width: 0.8"/>
      </g>
     </g>
     <g id="line2d_2">
      <defs>
       <path id="mf20b10b57f" d="M 0 0 
L 0 6 
" style="stroke: #000000; stroke-width: 0.8"/>
      </defs>
      <g>
       <use xlink:href="#mf20b10b57f" x="152.497646" y="7.2" style="stroke: #000000; stroke-width: 0.8"/>
      </g>
     </g>
     <g id="text_1">
      <!-- $\mathdefault{10^{1}}$ -->
      <g transform="translate(141.200555 226.799305) scale(0.18 -0.18)">
       <defs>
        <path id="CMR17-31" d="M 1702 4058 
C 1702 4192 1696 4192 1606 4192 
C 1357 3916 979 3827 621 3827 
C 602 3827 570 3827 563 3808 
C 557 3795 557 3782 557 3648 
C 755 3648 1088 3686 1344 3839 
L 1344 461 
C 1344 236 1331 160 781 160 
L 589 160 
L 589 0 
C 896 0 1216 0 1523 0 
C 1830 0 2150 0 2458 0 
L 2458 160 
L 2266 160 
C 1715 160 1702 230 1702 458 
L 1702 4058 
z
" transform="scale(0.015625)"/>
        <path id="CMR17-30" d="M 2688 2025 
C 2688 2416 2682 3080 2413 3591 
C 2176 4039 1798 4198 1466 4198 
C 1158 4198 768 4058 525 3597 
C 269 3118 243 2524 243 2025 
C 243 1661 250 1106 448 619 
C 723 -39 1216 -128 1466 -128 
C 1760 -128 2208 -7 2470 600 
C 2662 1042 2688 1559 2688 2025 
z
M 1466 -26 
C 1056 -26 813 325 723 812 
C 653 1188 653 1738 653 2096 
C 653 2588 653 2997 736 3387 
C 858 3929 1216 4096 1466 4096 
C 1728 4096 2067 3923 2189 3400 
C 2272 3036 2278 2607 2278 2096 
C 2278 1680 2278 1169 2202 792 
C 2067 95 1690 -26 1466 -26 
z
" transform="scale(0.015625)"/>
       </defs>
       <use xlink:href="#CMR17-31" transform="scale(0.996264)"/>
       <use xlink:href="#CMR17-30" transform="translate(45.690477 0) scale(0.996264)"/>
       <use xlink:href="#CMR17-31" transform="translate(91.380954 36.153639) scale(0.697382)"/>
      </g>
     </g>
    </g>
    <g id="xtick_2">
     <g id="line2d_3">
      <g>
       <use xlink:href="#m883545cbe5" x="286.383047" y="210.846005" style="stroke: #000000; stroke-width: 0.8"/>
      </g>
     </g>
     <g id="line2d_4">
      <g>
       <use xlink:href="#mf20b10b57f" x="286.383047" y="7.2" style="stroke: #000000; stroke-width: 0.8"/>
      </g>
     </g>
     <g id="text_2">
      <!-- $\mathdefault{10^{2}}$ -->
      <g transform="translate(275.085956 226.799305) scale(0.18 -0.18)">
       <defs>
        <path id="CMR17-32" d="M 2669 989 
L 2554 989 
C 2490 536 2438 459 2413 420 
C 2381 369 1920 369 1830 369 
L 602 369 
C 832 619 1280 1072 1824 1597 
C 2214 1967 2669 2402 2669 3035 
C 2669 3790 2067 4224 1395 4224 
C 691 4224 262 3604 262 3030 
C 262 2780 448 2748 525 2748 
C 589 2748 781 2787 781 3010 
C 781 3207 614 3264 525 3264 
C 486 3264 448 3258 422 3245 
C 544 3790 915 4058 1306 4058 
C 1862 4058 2227 3617 2227 3035 
C 2227 2479 1901 2000 1536 1584 
L 262 146 
L 262 0 
L 2515 0 
L 2669 989 
z
" transform="scale(0.015625)"/>
       </defs>
       <use xlink:href="#CMR17-31" transform="scale(0.996264)"/>
       <use xlink:href="#CMR17-30" transform="translate(45.690477 0) scale(0.996264)"/>
       <use xlink:href="#CMR17-32" transform="translate(91.380954 36.153639) scale(0.697382)"/>
      </g>
     </g>
    </g>
    <g id="xtick_3">
     <g id="line2d_5">
      <g>
       <use xlink:href="#m883545cbe5" x="420.268448" y="210.846005" style="stroke: #000000; stroke-width: 0.8"/>
      </g>
     </g>
     <g id="line2d_6">
      <g>
       <use xlink:href="#mf20b10b57f" x="420.268448" y="7.2" style="stroke: #000000; stroke-width: 0.8"/>
      </g>
     </g>
     <g id="text_3">
      <!-- $\mathdefault{10^{3}}$ -->
      <g transform="translate(408.971357 226.799305) scale(0.18 -0.18)">
       <defs>
        <path id="CMR17-33" d="M 1414 2157 
C 1984 2157 2234 1662 2234 1090 
C 2234 320 1824 25 1453 25 
C 1114 25 563 194 390 693 
C 422 680 454 680 486 680 
C 640 680 755 782 755 948 
C 755 1133 614 1216 486 1216 
C 378 1216 211 1165 211 926 
C 211 335 787 -128 1466 -128 
C 2176 -128 2720 430 2720 1085 
C 2720 1707 2208 2157 1600 2227 
C 2086 2328 2554 2756 2554 3329 
C 2554 3820 2048 4179 1472 4179 
C 890 4179 378 3829 378 3329 
C 378 3110 544 3072 627 3072 
C 762 3072 877 3155 877 3321 
C 877 3486 762 3569 627 3569 
C 602 3569 570 3569 544 3557 
C 730 3959 1235 4032 1459 4032 
C 1683 4032 2106 3925 2106 3320 
C 2106 3143 2080 2828 1862 2550 
C 1670 2304 1453 2304 1242 2284 
C 1210 2284 1062 2269 1037 2269 
C 992 2263 966 2257 966 2208 
C 966 2163 973 2157 1101 2157 
L 1414 2157 
z
" transform="scale(0.015625)"/>
       </defs>
       <use xlink:href="#CMR17-31" transform="scale(0.996264)"/>
       <use xlink:href="#CMR17-30" transform="translate(45.690477 0) scale(0.996264)"/>
       <use xlink:href="#CMR17-33" transform="translate(91.380954 36.153639) scale(0.697382)"/>
      </g>
     </g>
    </g>
    <g id="xtick_4">
     <g id="line2d_7">
      <defs>
       <path id="m25918bd64f" d="M 0 0 
L 0 -3 
" style="stroke: #000000; stroke-width: 0.6"/>
      </defs>
      <g>
       <use xlink:href="#m25918bd64f" x="82.491815" y="210.846005" style="stroke: #000000; stroke-width: 0.6"/>
      </g>
     </g>
     <g id="line2d_8">
      <defs>
       <path id="m67dc54c473" d="M 0 0 
L 0 3 
" style="stroke: #000000; stroke-width: 0.6"/>
      </defs>
      <g>
       <use xlink:href="#m67dc54c473" x="82.491815" y="7.2" style="stroke: #000000; stroke-width: 0.6"/>
      </g>
     </g>
    </g>
    <g id="xtick_5">
     <g id="line2d_9">
      <g>
       <use xlink:href="#m25918bd64f" x="99.219288" y="210.846005" style="stroke: #000000; stroke-width: 0.6"/>
      </g>
     </g>
     <g id="line2d_10">
      <g>
       <use xlink:href="#m67dc54c473" x="99.219288" y="7.2" style="stroke: #000000; stroke-width: 0.6"/>
      </g>
     </g>
    </g>
    <g id="xtick_6">
     <g id="line2d_11">
      <g>
       <use xlink:href="#m25918bd64f" x="112.194124" y="210.846005" style="stroke: #000000; stroke-width: 0.6"/>
      </g>
     </g>
     <g id="line2d_12">
      <g>
       <use xlink:href="#m67dc54c473" x="112.194124" y="7.2" style="stroke: #000000; stroke-width: 0.6"/>
      </g>
     </g>
    </g>
    <g id="xtick_7">
     <g id="line2d_13">
      <g>
       <use xlink:href="#m25918bd64f" x="122.795337" y="210.846005" style="stroke: #000000; stroke-width: 0.6"/>
      </g>
     </g>
     <g id="line2d_14">
      <g>
       <use xlink:href="#m67dc54c473" x="122.795337" y="7.2" style="stroke: #000000; stroke-width: 0.6"/>
      </g>
     </g>
    </g>
    <g id="xtick_8">
     <g id="line2d_15">
      <g>
       <use xlink:href="#m25918bd64f" x="131.758534" y="210.846005" style="stroke: #000000; stroke-width: 0.6"/>
      </g>
     </g>
     <g id="line2d_16">
      <g>
       <use xlink:href="#m67dc54c473" x="131.758534" y="7.2" style="stroke: #000000; stroke-width: 0.6"/>
      </g>
     </g>
    </g>
    <g id="xtick_9">
     <g id="line2d_17">
      <g>
       <use xlink:href="#m25918bd64f" x="139.52281" y="210.846005" style="stroke: #000000; stroke-width: 0.6"/>
      </g>
     </g>
     <g id="line2d_18">
      <g>
       <use xlink:href="#m67dc54c473" x="139.52281" y="7.2" style="stroke: #000000; stroke-width: 0.6"/>
      </g>
     </g>
    </g>
    <g id="xtick_10">
     <g id="line2d_19">
      <g>
       <use xlink:href="#m25918bd64f" x="146.371386" y="210.846005" style="stroke: #000000; stroke-width: 0.6"/>
      </g>
     </g>
     <g id="line2d_20">
      <g>
       <use xlink:href="#m67dc54c473" x="146.371386" y="7.2" style="stroke: #000000; stroke-width: 0.6"/>
      </g>
     </g>
    </g>
    <g id="xtick_11">
     <g id="line2d_21">
      <g>
       <use xlink:href="#m25918bd64f" x="192.801167" y="210.846005" style="stroke: #000000; stroke-width: 0.6"/>
      </g>
     </g>
     <g id="line2d_22">
      <g>
       <use xlink:href="#m67dc54c473" x="192.801167" y="7.2" style="stroke: #000000; stroke-width: 0.6"/>
      </g>
     </g>
    </g>
    <g id="xtick_12">
     <g id="line2d_23">
      <g>
       <use xlink:href="#m25918bd64f" x="216.377216" y="210.846005" style="stroke: #000000; stroke-width: 0.6"/>
      </g>
     </g>
     <g id="line2d_24">
      <g>
       <use xlink:href="#m67dc54c473" x="216.377216" y="7.2" style="stroke: #000000; stroke-width: 0.6"/>
      </g>
     </g>
    </g>
    <g id="xtick_13">
     <g id="line2d_25">
      <g>
       <use xlink:href="#m25918bd64f" x="233.104689" y="210.846005" style="stroke: #000000; stroke-width: 0.6"/>
      </g>
     </g>
     <g id="line2d_26">
      <g>
       <use xlink:href="#m67dc54c473" x="233.104689" y="7.2" style="stroke: #000000; stroke-width: 0.6"/>
      </g>
     </g>
    </g>
    <g id="xtick_14">
     <g id="line2d_27">
      <g>
       <use xlink:href="#m25918bd64f" x="246.079525" y="210.846005" style="stroke: #000000; stroke-width: 0.6"/>
      </g>
     </g>
     <g id="line2d_28">
      <g>
       <use xlink:href="#m67dc54c473" x="246.079525" y="7.2" style="stroke: #000000; stroke-width: 0.6"/>
      </g>
     </g>
    </g>
    <g id="xtick_15">
     <g id="line2d_29">
      <g>
       <use xlink:href="#m25918bd64f" x="256.680738" y="210.846005" style="stroke: #000000; stroke-width: 0.6"/>
      </g>
     </g>
     <g id="line2d_30">
      <g>
       <use xlink:href="#m67dc54c473" x="256.680738" y="7.2" style="stroke: #000000; stroke-width: 0.6"/>
      </g>
     </g>
    </g>
    <g id="xtick_16">
     <g id="line2d_31">
      <g>
       <use xlink:href="#m25918bd64f" x="265.643936" y="210.846005" style="stroke: #000000; stroke-width: 0.6"/>
      </g>
     </g>
     <g id="line2d_32">
      <g>
       <use xlink:href="#m67dc54c473" x="265.643936" y="7.2" style="stroke: #000000; stroke-width: 0.6"/>
      </g>
     </g>
    </g>
    <g id="xtick_17">
     <g id="line2d_33">
      <g>
       <use xlink:href="#m25918bd64f" x="273.408211" y="210.846005" style="stroke: #000000; stroke-width: 0.6"/>
      </g>
     </g>
     <g id="line2d_34">
      <g>
       <use xlink:href="#m67dc54c473" x="273.408211" y="7.2" style="stroke: #000000; stroke-width: 0.6"/>
      </g>
     </g>
    </g>
    <g id="xtick_18">
     <g id="line2d_35">
      <g>
       <use xlink:href="#m25918bd64f" x="280.256787" y="210.846005" style="stroke: #000000; stroke-width: 0.6"/>
      </g>
     </g>
     <g id="line2d_36">
      <g>
       <use xlink:href="#m67dc54c473" x="280.256787" y="7.2" style="stroke: #000000; stroke-width: 0.6"/>
      </g>
     </g>
    </g>
    <g id="xtick_19">
     <g id="line2d_37">
      <g>
       <use xlink:href="#m25918bd64f" x="326.686568" y="210.846005" style="stroke: #000000; stroke-width: 0.6"/>
      </g>
     </g>
     <g id="line2d_38">
      <g>
       <use xlink:href="#m67dc54c473" x="326.686568" y="7.2" style="stroke: #000000; stroke-width: 0.6"/>
      </g>
     </g>
    </g>
    <g id="xtick_20">
     <g id="line2d_39">
      <g>
       <use xlink:href="#m25918bd64f" x="350.262617" y="210.846005" style="stroke: #000000; stroke-width: 0.6"/>
      </g>
     </g>
     <g id="line2d_40">
      <g>
       <use xlink:href="#m67dc54c473" x="350.262617" y="7.2" style="stroke: #000000; stroke-width: 0.6"/>
      </g>
     </g>
    </g>
    <g id="xtick_21">
     <g id="line2d_41">
      <g>
       <use xlink:href="#m25918bd64f" x="366.99009" y="210.846005" style="stroke: #000000; stroke-width: 0.6"/>
      </g>
     </g>
     <g id="line2d_42">
      <g>
       <use xlink:href="#m67dc54c473" x="366.99009" y="7.2" style="stroke: #000000; stroke-width: 0.6"/>
      </g>
     </g>
    </g>
    <g id="xtick_22">
     <g id="line2d_43">
      <g>
       <use xlink:href="#m25918bd64f" x="379.964926" y="210.846005" style="stroke: #000000; stroke-width: 0.6"/>
      </g>
     </g>
     <g id="line2d_44">
      <g>
       <use xlink:href="#m67dc54c473" x="379.964926" y="7.2" style="stroke: #000000; stroke-width: 0.6"/>
      </g>
     </g>
    </g>
    <g id="xtick_23">
     <g id="line2d_45">
      <g>
       <use xlink:href="#m25918bd64f" x="390.566139" y="210.846005" style="stroke: #000000; stroke-width: 0.6"/>
      </g>
     </g>
     <g id="line2d_46">
      <g>
       <use xlink:href="#m67dc54c473" x="390.566139" y="7.2" style="stroke: #000000; stroke-width: 0.6"/>
      </g>
     </g>
    </g>
    <g id="xtick_24">
     <g id="line2d_47">
      <g>
       <use xlink:href="#m25918bd64f" x="399.529337" y="210.846005" style="stroke: #000000; stroke-width: 0.6"/>
      </g>
     </g>
     <g id="line2d_48">
      <g>
       <use xlink:href="#m67dc54c473" x="399.529337" y="7.2" style="stroke: #000000; stroke-width: 0.6"/>
      </g>
     </g>
    </g>
    <g id="xtick_25">
     <g id="line2d_49">
      <g>
       <use xlink:href="#m25918bd64f" x="407.293612" y="210.846005" style="stroke: #000000; stroke-width: 0.6"/>
      </g>
     </g>
     <g id="line2d_50">
      <g>
       <use xlink:href="#m67dc54c473" x="407.293612" y="7.2" style="stroke: #000000; stroke-width: 0.6"/>
      </g>
     </g>
    </g>
    <g id="xtick_26">
     <g id="line2d_51">
      <g>
       <use xlink:href="#m25918bd64f" x="414.142188" y="210.846005" style="stroke: #000000; stroke-width: 0.6"/>
      </g>
     </g>
     <g id="line2d_52">
      <g>
       <use xlink:href="#m67dc54c473" x="414.142188" y="7.2" style="stroke: #000000; stroke-width: 0.6"/>
      </g>
     </g>
    </g>
    <g id="xtick_27">
     <g id="line2d_53">
      <g>
       <use xlink:href="#m25918bd64f" x="460.571969" y="210.846005" style="stroke: #000000; stroke-width: 0.6"/>
      </g>
     </g>
     <g id="line2d_54">
      <g>
       <use xlink:href="#m67dc54c473" x="460.571969" y="7.2" style="stroke: #000000; stroke-width: 0.6"/>
      </g>
     </g>
    </g>
    <g id="text_4">
     <!-- $k$ -->
     <g transform="translate(261.437278 248.124366) scale(0.2 -0.2)">
      <defs>
       <path id="CMMI12-6b" d="M 1798 4257 
C 1805 4283 1818 4321 1818 4352 
C 1818 4416 1754 4416 1741 4416 
C 1734 4416 1504 4393 1389 4377 
C 1280 4377 1184 4358 1069 4358 
C 915 4345 870 4339 870 4224 
C 870 4160 934 4160 998 4160 
C 1325 4160 1325 4103 1325 4040 
C 1325 4015 1325 4002 1293 3888 
L 378 248 
C 352 152 352 140 352 101 
C 352 -38 461 -64 525 -64 
C 704 -64 742 77 794 275 
L 1094 1469 
C 1555 1418 1830 1226 1830 920 
C 1830 881 1830 856 1811 760 
C 1786 664 1786 588 1786 556 
C 1786 185 2029 -64 2355 -64 
C 2650 -64 2803 204 2854 294 
C 2989 530 3072 888 3072 913 
C 3072 945 3046 971 3008 971 
C 2950 971 2944 945 2918 843 
C 2829 511 2694 64 2368 64 
C 2240 64 2157 128 2157 370 
C 2157 492 2182 632 2208 728 
C 2234 843 2234 849 2234 926 
C 2234 1303 1894 1514 1306 1590 
C 1536 1731 1766 1980 1856 2076 
C 2221 2484 2470 2689 2765 2689 
C 2912 2689 2950 2650 2995 2612 
C 2758 2586 2669 2420 2669 2293 
C 2669 2139 2790 2088 2880 2088 
C 3053 2088 3206 2235 3206 2440 
C 3206 2625 3059 2816 2771 2816 
C 2419 2816 2131 2567 1677 2056 
C 1613 1980 1376 1737 1139 1648 
L 1798 4257 
z
" transform="scale(0.015625)"/>
      </defs>
      <use xlink:href="#CMMI12-6b" transform="scale(0.996264)"/>
     </g>
    </g>
   </g>
   <g id="matplotlib.axis_2">
    <g id="ytick_1">
     <g id="line2d_55">
      <defs>
       <path id="m5d4f0881cb" d="M 0 0 
L 6 0 
" style="stroke: #000000; stroke-width: 0.8"/>
      </defs>
      <g>
       <use xlink:href="#m5d4f0881cb" x="65.021594" y="210.323117" style="stroke: #000000; stroke-width: 0.8"/>
      </g>
     </g>
     <g id="line2d_56">
      <defs>
       <path id="m9bde812cf2" d="M 0 0 
L -6 0 
" style="stroke: #000000; stroke-width: 0.8"/>
      </defs>
      <g>
       <use xlink:href="#m9bde812cf2" x="468" y="210.323117" style="stroke: #000000; stroke-width: 0.8"/>
      </g>
     </g>
     <g id="text_5">
      <!-- $\mathdefault{−15}$ -->
      <g transform="translate(31.12528 216.549768) scale(0.18 -0.18)">
       <defs>
        <path id="CMSY10-0" d="M 4218 1472 
C 4326 1472 4442 1472 4442 1600 
C 4442 1728 4326 1728 4218 1728 
L 755 1728 
C 646 1728 531 1728 531 1600 
C 531 1472 646 1472 755 1472 
L 4218 1472 
z
" transform="scale(0.015625)"/>
        <path id="CMR17-35" d="M 730 3692 
C 794 3666 1056 3584 1325 3584 
C 1920 3584 2246 3911 2432 4100 
C 2432 4157 2432 4192 2394 4192 
C 2387 4192 2374 4192 2323 4163 
C 2099 4058 1837 3973 1517 3973 
C 1325 3973 1037 3999 723 4139 
C 653 4171 640 4171 634 4171 
C 602 4171 595 4164 595 4037 
L 595 2203 
C 595 2089 595 2057 659 2057 
C 691 2057 704 2070 736 2114 
C 941 2401 1222 2522 1542 2522 
C 1766 2522 2246 2382 2246 1289 
C 2246 1085 2246 715 2054 421 
C 1894 159 1645 25 1370 25 
C 947 25 518 320 403 814 
C 429 807 480 795 506 795 
C 589 795 749 840 749 1038 
C 749 1210 627 1280 506 1280 
C 358 1280 262 1190 262 1011 
C 262 454 704 -128 1382 -128 
C 2042 -128 2669 440 2669 1264 
C 2669 2030 2170 2624 1549 2624 
C 1222 2624 947 2503 730 2274 
L 730 3692 
z
" transform="scale(0.015625)"/>
       </defs>
       <use xlink:href="#CMSY10-0" transform="scale(0.996264)"/>
       <use xlink:href="#CMR17-31" transform="translate(77.487468 0) scale(0.996264)"/>
       <use xlink:href="#CMR17-35" transform="translate(123.177945 0) scale(0.996264)"/>
      </g>
     </g>
    </g>
    <g id="ytick_2">
     <g id="line2d_57">
      <g>
       <use xlink:href="#m5d4f0881cb" x="65.021594" y="145.071436" style="stroke: #000000; stroke-width: 0.8"/>
      </g>
     </g>
     <g id="line2d_58">
      <g>
       <use xlink:href="#m9bde812cf2" x="468" y="145.071436" style="stroke: #000000; stroke-width: 0.8"/>
      </g>
     </g>
     <g id="text_6">
      <!-- $\mathdefault{−10}$ -->
      <g transform="translate(31.12528 151.298086) scale(0.18 -0.18)">
       <use xlink:href="#CMSY10-0" transform="scale(0.996264)"/>
       <use xlink:href="#CMR17-31" transform="translate(77.487468 0) scale(0.996264)"/>
       <use xlink:href="#CMR17-30" transform="translate(123.177945 0) scale(0.996264)"/>
      </g>
     </g>
    </g>
    <g id="ytick_3">
     <g id="line2d_59">
      <g>
       <use xlink:href="#m5d4f0881cb" x="65.021594" y="79.819754" style="stroke: #000000; stroke-width: 0.8"/>
      </g>
     </g>
     <g id="line2d_60">
      <g>
       <use xlink:href="#m9bde812cf2" x="468" y="79.819754" style="stroke: #000000; stroke-width: 0.8"/>
      </g>
     </g>
     <g id="text_7">
      <!-- $\mathdefault{−5}$ -->
      <g transform="translate(39.349566 86.046404) scale(0.18 -0.18)">
       <use xlink:href="#CMSY10-0" transform="scale(0.996264)"/>
       <use xlink:href="#CMR17-35" transform="translate(77.487468 0) scale(0.996264)"/>
      </g>
     </g>
    </g>
    <g id="ytick_4">
     <g id="line2d_61">
      <g>
       <use xlink:href="#m5d4f0881cb" x="65.021594" y="14.568072" style="stroke: #000000; stroke-width: 0.8"/>
      </g>
     </g>
     <g id="line2d_62">
      <g>
       <use xlink:href="#m9bde812cf2" x="468" y="14.568072" style="stroke: #000000; stroke-width: 0.8"/>
      </g>
     </g>
     <g id="text_8">
      <!-- $\mathdefault{0}$ -->
      <g transform="translate(53.297308 20.794722) scale(0.18 -0.18)">
       <use xlink:href="#CMR17-30" transform="scale(0.996264)"/>
      </g>
     </g>
    </g>
    <g id="text_9">
     <!-- $\mathrm{d}(\log P)/\mathrm{d}(\log k)$ -->
     <g transform="translate(22.14396 178.073831) rotate(-90) scale(0.2 -0.2)">
      <defs>
       <path id="CMR17-64" d="M 1869 4326 
L 1869 4160 
C 2246 4160 2304 4122 2304 3820 
L 2304 2345 
C 2278 2377 2016 2790 1498 2790 
C 845 2790 211 2208 211 1364 
C 211 525 806 -64 1434 -64 
C 1978 -64 2259 337 2291 380 
L 2291 -63 
L 3066 -63 
L 3066 128 
C 2688 128 2630 166 2630 473 
L 2630 4396 
L 1869 4326 
z
M 2291 755 
C 2291 563 2176 390 2029 262 
C 1811 70 1594 38 1472 38 
C 1286 38 621 134 621 1356 
C 621 2612 1363 2688 1530 2688 
C 1824 2688 2061 2522 2208 2291 
C 2291 2157 2291 2138 2291 2023 
L 2291 755 
z
" transform="scale(0.015625)"/>
       <path id="CMR17-28" d="M 1958 -1561 
C 1958 -1555 1958 -1542 1939 -1523 
C 1645 -1224 858 -407 858 1581 
C 858 3569 1632 4379 1946 4697 
C 1946 4704 1958 4717 1958 4736 
C 1958 4755 1939 4768 1914 4768 
C 1843 4768 1299 4296 986 3594 
C 666 2887 576 2199 576 1588 
C 576 1128 621 351 1005 -471 
C 1312 -1135 1837 -1600 1914 -1600 
C 1946 -1600 1958 -1587 1958 -1561 
z
" transform="scale(0.015625)"/>
       <path id="CMR17-6c" d="M 979 4396 
L 218 4326 
L 218 4160 
C 595 4160 653 4122 653 3817 
L 653 426 
C 653 184 627 153 218 153 
L 218 -13 
C 371 0 653 0 813 0 
C 979 0 1261 0 1414 -13 
L 1414 153 
C 1005 153 979 178 979 426 
L 979 4396 
z
" transform="scale(0.015625)"/>
       <path id="CMR17-6f" d="M 2758 1356 
C 2758 2176 2163 2816 1466 2816 
C 768 2816 173 2176 173 1356 
C 173 551 768 -64 1466 -64 
C 2163 -64 2758 551 2758 1356 
z
M 1466 51 
C 1165 51 909 230 762 480 
C 602 767 582 1126 582 1408 
C 582 1677 595 2010 762 2298 
C 890 2509 1139 2714 1466 2714 
C 1754 2714 1997 2554 2150 2330 
C 2349 2029 2349 1607 2349 1408 
C 2349 1158 2336 775 2163 467 
C 1984 173 1709 51 1466 51 
z
" transform="scale(0.015625)"/>
       <path id="CMR17-67" d="M 710 1164 
C 832 1068 1043 960 1299 960 
C 1805 960 2240 1357 2240 1888 
C 2240 2054 2189 2310 1997 2509 
C 2176 2692 2438 2752 2586 2752 
C 2611 2752 2650 2752 2682 2734 
C 2656 2728 2598 2703 2598 2605 
C 2598 2527 2656 2471 2739 2471 
C 2835 2471 2886 2533 2886 2614 
C 2886 2731 2790 2854 2586 2854 
C 2330 2854 2106 2738 1926 2580 
C 1734 2753 1504 2816 1299 2816 
C 794 2816 358 2419 358 1888 
C 358 1522 570 1292 634 1228 
C 442 1004 442 743 442 711 
C 442 545 506 302 723 168 
C 390 85 128 -169 128 -486 
C 128 -943 736 -1280 1466 -1280 
C 2170 -1280 2803 -956 2803 -479 
C 2803 384 1856 384 1363 384 
C 1216 384 954 384 922 391 
C 723 423 589 602 589 826 
C 589 883 589 1024 710 1164 
z
M 1299 1068 
C 736 1068 736 1760 736 1889 
C 736 2016 736 2708 1299 2708 
C 1862 2708 1862 2016 1862 1889 
C 1862 1760 1862 1068 1299 1068 
z
M 1466 -1171 
C 826 -1171 384 -835 384 -486 
C 384 -289 493 -105 634 -4 
C 794 104 858 104 1293 104 
C 1818 104 2547 104 2547 -486 
C 2547 -835 2106 -1171 1466 -1171 
z
" transform="scale(0.015625)"/>
       <path id="CMMI12-50" d="M 1894 2023 
L 2970 2023 
C 3853 2023 4736 2673 4736 3401 
C 4736 3898 4314 4352 3507 4352 
L 1530 4352 
C 1408 4352 1350 4352 1350 4231 
C 1350 4167 1408 4167 1504 4167 
C 1894 4167 1894 4116 1894 4046 
C 1894 4034 1894 3995 1869 3899 
L 1005 472 
C 947 249 934 185 486 185 
C 365 185 301 185 301 70 
C 301 0 358 0 397 0 
C 518 0 646 0 768 0 
L 1517 0 
C 1638 0 1773 0 1894 0 
C 1946 0 2016 0 2016 121 
C 2016 185 1958 185 1862 185 
C 1478 185 1472 230 1472 293 
C 1472 325 1478 369 1485 401 
L 1894 2023 
z
M 2355 3930 
C 2413 4167 2438 4167 2688 4167 
L 3322 4167 
C 3802 4167 4198 4013 4198 3535 
C 4198 3369 4115 2827 3821 2534 
C 3712 2419 3405 2176 2822 2176 
L 1920 2176 
L 2355 3930 
z
" transform="scale(0.015625)"/>
       <path id="CMR17-29" d="M 1683 1581 
C 1683 2040 1638 2817 1254 3639 
C 947 4303 422 4768 346 4768 
C 326 4768 301 4761 301 4729 
C 301 4717 307 4710 314 4697 
C 621 4378 1402 3568 1402 1584 
C 1402 -407 627 -1217 314 -1537 
C 307 -1549 301 -1556 301 -1568 
C 301 -1600 326 -1600 346 -1600 
C 416 -1600 960 -1128 1274 -426 
C 1594 281 1683 969 1683 1581 
z
" transform="scale(0.015625)"/>
       <path id="CMMI12-3d" d="M 2746 4562 
C 2746 4569 2784 4666 2784 4678 
C 2784 4755 2720 4800 2669 4800 
C 2637 4800 2579 4800 2528 4659 
L 384 -1363 
C 384 -1370 346 -1465 346 -1478 
C 346 -1555 410 -1600 461 -1600 
C 499 -1600 557 -1593 602 -1459 
L 2746 4562 
z
" transform="scale(0.015625)"/>
      </defs>
      <use xlink:href="#CMR17-64" transform="scale(0.996264)"/>
      <use xlink:href="#CMR17-28" transform="translate(50.89537 0) scale(0.996264)"/>
      <use xlink:href="#CMR17-6c" transform="translate(86.176138 0) scale(0.996264)"/>
      <use xlink:href="#CMR17-6f" transform="translate(111.047196 0) scale(0.996264)"/>
      <use xlink:href="#CMR17-67" transform="translate(156.737673 0) scale(0.996264)"/>
      <use xlink:href="#CMMI12-50" transform="translate(220.333722 0) scale(0.996264)"/>
      <use xlink:href="#CMR17-29" transform="translate(296.759542 0) scale(0.996264)"/>
      <use xlink:href="#CMMI12-3d" transform="translate(332.04031 0) scale(0.996264)"/>
      <use xlink:href="#CMR17-64" transform="translate(380.815229 0) scale(0.996264)"/>
      <use xlink:href="#CMR17-28" transform="translate(431.710599 0) scale(0.996264)"/>
      <use xlink:href="#CMR17-6c" transform="translate(466.991367 0) scale(0.996264)"/>
      <use xlink:href="#CMR17-6f" transform="translate(491.862425 0) scale(0.996264)"/>
      <use xlink:href="#CMR17-67" transform="translate(537.552902 0) scale(0.996264)"/>
      <use xlink:href="#CMMI12-6b" transform="translate(601.148951 0) scale(0.996264)"/>
      <use xlink:href="#CMR17-29" transform="translate(655.228151 0) scale(0.996264)"/>
     </g>
    </g>
   </g>
   <g id="line2d_63">
    <path d="M 65.021594 16.456637 
L 128.901164 17.978249 
L 158.603473 20.060316 
L 178.167884 22.337222 
L 192.780735 24.556753 
L 204.448871 26.772659 
L 214.162346 29.198695 
L 222.483044 31.711303 
L 229.760741 34.038099 
L 236.228032 36.666805 
L 242.047454 39.415619 
L 247.337071 41.705715 
L 252.185352 44.349064 
L 260.815336 49.302577 
L 264.693152 51.853049 
L 268.328442 54.61254 
L 274.98091 60.396519 
L 278.041917 63.373124 
L 280.949807 66.65016 
L 286.362614 71.475663 
L 288.891086 74.434982 
L 293.640312 80.448609 
L 295.87696 73.202806 
L 298.03075 64.545812 
L 300.107603 62.384596 
L 302.112825 61.278186 
L 304.051195 60.653672 
L 305.927025 60.679822 
L 307.744226 61.208376 
L 309.506351 60.744786 
L 311.216642 59.567562 
L 312.87806 60.330447 
L 314.493322 60.098882 
L 316.064923 58.27662 
L 317.595161 59.577939 
L 319.086158 57.288874 
L 320.539876 55.797626 
L 323.34262 59.79023 
L 324.694907 59.48082 
L 326.016457 58.500488 
L 327.308636 57.255892 
L 328.572723 56.707859 
L 329.809912 58.425623 
L 331.021324 57.840081 
L 332.208012 58.013746 
L 333.370965 59.545319 
L 334.511113 59.342269 
L 335.629334 59.399681 
L 336.726455 58.678423 
L 337.803257 56.784886 
L 338.860481 57.15453 
L 339.898824 58.607863 
L 340.91895 58.463911 
L 341.921487 56.770778 
L 342.907031 57.935961 
L 343.876148 58.03804 
L 344.829378 55.964753 
L 345.767232 58.74569 
L 346.690199 58.885943 
L 347.598743 57.558493 
L 349.374322 60.294377 
L 350.242185 59.890798 
L 351.097284 58.747181 
L 351.93999 60.15875 
L 352.770657 58.904876 
L 353.589623 57.449168 
L 354.397215 59.134301 
L 356.754796 60.832171 
L 357.519882 59.464058 
L 358.275032 58.601054 
L 359.020499 59.412123 
L 359.756531 58.811074 
L 360.483361 58.966677 
L 361.201218 57.034841 
L 361.910321 55.49326 
L 362.61088 57.590082 
L 363.303099 54.813573 
L 363.987173 55.350435 
L 364.663294 57.644935 
L 365.331642 56.764901 
L 366.645725 56.892221 
L 367.291795 56.247341 
L 367.930765 56.55642 
L 368.56279 58.579544 
L 369.188018 58.047566 
L 369.806595 58.61611 
L 370.418661 58.929611 
L 371.024351 58.232169 
L 371.623796 59.308107 
L 372.217125 58.903075 
L 372.80446 60.224754 
L 373.385922 60.413024 
L 373.961626 57.654137 
L 374.531686 58.780765 
L 375.096212 60.739267 
L 375.65531 61.06752 
L 376.209082 61.914931 
L 376.757631 62.422409 
L 377.301052 60.709628 
L 377.839442 61.582015 
L 378.372893 63.641063 
L 378.901493 61.003701 
L 379.425332 60.824444 
L 379.944493 63.646159 
L 380.45906 60.086157 
L 380.969114 60.135618 
L 381.474732 62.766091 
L 381.975991 63.29465 
L 382.472965 64.623849 
L 382.965728 63.634632 
L 383.454351 63.042777 
L 383.938901 62.085851 
L 384.419446 62.159946 
L 384.896053 60.606755 
L 385.368785 62.105458 
L 385.837704 64.367711 
L 386.302872 62.187773 
L 386.764348 60.659915 
L 387.222191 62.207326 
L 387.676456 63.086458 
L 388.1272 62.678778 
L 388.574477 64.128482 
L 389.01834 62.021106 
L 389.458839 61.894429 
L 389.896027 63.312967 
L 390.329952 62.777801 
L 390.760663 64.728602 
L 391.188207 64.788684 
L 391.61263 62.263139 
L 392.033977 62.421108 
L 392.452293 62.162308 
L 392.867621 61.326587 
L 393.280004 64.572331 
L 393.689482 63.099491 
L 394.096097 59.81093 
L 394.499888 60.02843 
L 395.299154 58.736356 
L 395.694705 59.514177 
L 396.087583 59.440613 
L 396.477824 57.862587 
L 396.865463 57.724143 
L 397.250535 58.221784 
L 397.633074 57.619857 
L 398.390683 59.138213 
L 398.765818 59.235747 
L 399.138548 57.575014 
L 399.508904 56.662123 
L 399.876916 59.532692 
L 400.242613 57.80101 
L 400.606025 57.199471 
L 400.96718 60.44261 
L 401.326105 58.690397 
L 401.682828 55.513631 
L 402.037376 57.503843 
L 402.389775 58.041112 
L 402.740052 57.80074 
L 403.08823 57.391314 
L 403.434337 54.776848 
L 403.778395 56.220517 
L 404.120429 56.405977 
L 404.460464 55.098498 
L 404.798521 56.65014 
L 405.134624 57.454846 
L 405.468796 56.714394 
L 405.801058 56.710029 
L 406.131432 55.090498 
L 406.786602 60.062989 
L 407.434471 54.912571 
L 407.755719 54.596556 
L 408.075201 58.785406 
L 408.392938 58.063025 
L 408.708948 57.021333 
L 409.02325 56.453507 
L 409.335862 53.76903 
L 409.646802 52.629402 
L 409.956089 53.754984 
L 410.263738 55.488291 
L 410.569769 52.813416 
L 411.17704 55.12386 
L 411.478314 52.775963 
L 412.076218 55.836115 
L 412.372881 56.036882 
L 412.668037 54.015669 
L 412.961703 54.120747 
L 413.253893 55.660116 
L 413.544622 54.265012 
L 413.833905 55.570214 
L 414.121755 54.896648 
L 414.693216 53.011444 
L 414.976854 50.859043 
L 415.259115 52.548605 
L 415.540013 51.196826 
L 415.81956 50.458053 
L 416.09777 49.208579 
L 416.374655 45.6596 
L 416.650227 45.920505 
L 416.9245 47.770856 
L 417.197485 48.595721 
L 417.469194 45.46823 
L 417.73964 46.120349 
L 418.008833 47.878143 
L 418.276786 45.736657 
L 418.54351 44.868263 
L 418.809016 45.186108 
L 419.336418 44.483937 
L 419.598336 46.544094 
L 419.859079 47.594464 
L 420.377084 43.023865 
L 420.634367 47.528264 
L 420.890516 49.021422 
L 421.145541 42.488816 
L 421.399453 43.665999 
L 421.65226 46.55692 
L 421.903974 44.417812 
L 422.154602 46.69279 
L 422.404155 49.979184 
L 422.652641 49.067188 
L 422.90007 45.15283 
L 423.391791 52.076939 
L 423.636101 48.923647 
L 423.879389 52.955259 
L 424.121663 54.735349 
L 424.603203 52.974068 
L 424.842486 56.1644 
L 425.080789 56.787864 
L 425.318119 53.613892 
L 425.554483 55.119371 
L 426.257867 51.167703 
L 426.49045 52.316148 
L 426.722107 52.236644 
L 426.952844 47.25328 
L 427.182669 52.508815 
L 427.411589 51.983313 
L 427.639612 46.080051 
L 427.866744 47.803381 
L 428.092992 52.69585 
L 428.318363 52.568714 
L 428.542864 46.728805 
L 428.766502 57.129531 
L 428.989283 59.244232 
L 429.211213 49.207617 
L 429.432299 51.429578 
L 429.652549 54.982777 
L 429.871967 55.022173 
L 430.09056 50.807044 
L 430.308334 56.806666 
L 430.525296 58.041092 
L 430.741451 50.254948 
L 430.956806 55.366566 
L 431.171366 56.860615 
L 431.598125 50.199272 
L 432.021775 53.283178 
L 432.232448 50.720536 
L 432.44236 52.37288 
L 432.651518 52.738191 
L 432.859925 48.015518 
L 433.067589 48.62545 
L 433.274513 50.19312 
L 433.480704 48.680351 
L 433.686166 45.987369 
L 433.890904 46.689967 
L 434.094925 46.262559 
L 434.298231 42.537301 
L 434.50083 44.314743 
L 434.702725 47.907472 
L 434.903921 44.924324 
L 435.104424 37.700018 
L 435.503367 47.644952 
L 435.701816 38.542215 
L 435.899591 39.920865 
L 436.096695 42.325708 
L 436.293133 37.323804 
L 436.48891 39.296365 
L 436.68403 42.762029 
L 437.072317 40.02914 
L 437.265492 43.209212 
L 437.458028 43.114367 
L 437.841197 38.025697 
L 438.221857 49.198298 
L 438.600042 40.10361 
L 438.788216 44.418525 
L 438.975783 45.687092 
L 439.162747 37.577803 
L 439.349111 39.562487 
L 439.53488 44.313505 
L 439.720058 37.902489 
L 439.904647 37.333018 
L 440.088653 40.387452 
L 440.272078 39.323979 
L 440.454926 33.140454 
L 440.637201 31.501145 
L 440.818907 35.244917 
L 441.000046 30.99235 
L 441.180623 31.720211 
L 441.360641 33.216483 
L 441.540103 31.294507 
L 441.897374 34.091925 
L 442.252463 28.144315 
L 442.605397 38.163852 
L 442.781064 32.245187 
L 442.956202 31.673486 
L 443.130814 37.199281 
L 443.304903 36.680842 
L 443.478472 35.402477 
L 443.651525 43.905027 
L 443.824064 62.4132 
L 444.167614 71.291273 
L 444.509146 89.40918 
L 444.679163 82.320899 
L 445.017712 114.8397 
L 445.186251 108.688348 
L 445.354302 114.502124 
L 445.521869 125.442148 
L 445.688954 125.49417 
L 445.855561 122.922084 
L 446.187349 134.361553 
L 446.352536 123.934949 
L 446.681508 144.210035 
L 446.845299 134.584042 
L 447.00863 134.32947 
L 447.171503 145.080862 
L 447.333921 146.412973 
L 447.495887 137.215503 
L 447.818471 156.862381 
L 447.979095 147.710439 
L 448.139276 149.28523 
L 448.299017 163.349232 
L 448.45832 162.65039 
L 448.617188 154.371971 
L 448.933628 168.668889 
L 449.091205 165.575888 
L 449.405082 180.40652 
L 449.561388 177.898936 
L 449.717275 180.492007 
L 449.872745 187.741154 
L 450.182443 180.472798 
L 450.4905 201.589369 
L 450.796934 190.941737 
L 451.101761 196.17172 
L 451.253578 191.099036 
L 451.404999 192.419115 
L 451.556027 198.041853 
L 452.454048 148.249785 
L 452.602379 143.509689 
L 453.33841 101.949088 
L 453.630233 93.391978 
L 453.775598 95.310981 
L 454.06524 85.896807 
L 454.209523 92.239689 
L 454.497017 77.536055 
L 454.640233 83.265899 
L 454.783098 83.874857 
L 455.067777 67.344088 
L 455.209596 73.267605 
L 455.35107 67.369023 
L 455.4922 56.756848 
L 455.773437 63.928795 
L 456.331864 46.955668 
L 456.470636 51.314379 
L 456.747192 35.073067 
L 456.884978 39.898468 
L 457.159574 27.582783 
L 457.296388 28.497669 
L 457.569053 30.825764 
L 457.840445 18.173889 
L 458.110577 29.538009 
L 458.245173 27.071762 
L 458.513435 35.70548 
L 458.647103 32.107637 
L 458.780465 35.987652 
L 458.913522 34.242193 
L 459.046275 30.014875 
L 459.178725 34.840845 
L 459.310874 26.481025 
L 459.442724 26.0168 
L 459.574275 29.153005 
L 459.70553 21.247248 
L 459.967153 27.091818 
L 460.097525 24.612116 
L 460.227605 24.553272 
L 460.486895 29.1231 
L 460.616107 25.557066 
L 460.745033 27.526462 
L 460.873674 31.702325 
L 461.002031 29.476525 
L 461.130106 25.155801 
L 461.385411 28.654107 
L 461.512645 21.764095 
L 461.766279 30.424277 
L 462.018813 22.414053 
L 462.270254 33.92707 
L 462.520612 26.061622 
L 462.645389 29.652578 
L 462.769898 24.760037 
L 463.018119 58.342459 
L 463.141833 40.085323 
L 463.265285 40.286195 
L 463.388475 61.139633 
L 463.634075 50.106817 
L 464.00054 77.182111 
L 464.122184 63.546932 
L 464.243574 64.738033 
L 464.485596 76.852624 
L 464.60623 46.765866 
L 464.726614 53.08816 
L 464.84675 84.264487 
L 464.966638 81.513279 
L 465.08628 83.32905 
L 465.205675 75.008636 
L 465.443734 81.925952 
L 465.562399 74.977227 
L 465.680822 83.854995 
L 465.799004 83.188571 
L 465.916947 79.234783 
L 466.03465 85.471649 
L 466.152116 85.542994 
L 466.269346 87.474066 
L 466.619622 83.985153 
L 466.851973 87.095053 
L 466.967801 79.613848 
L 467.083399 81.147486 
L 467.198767 86.956565 
L 467.313907 86.594899 
L 467.42882 82.963781 
L 467.657966 93.36949 
L 467.772201 85.051842 
L 467.886212 85.207878 
L 468 92.864876 
L 468 92.864876 
" clip-path="url(#p147ad9262d)" style="fill: none; stroke: #0000ff; stroke-width: 2.5; stroke-linecap: square"/>
   </g>
   <g id="line2d_64">
    <path d="M 65.021594 62.419305 
L 468 62.419305 
" clip-path="url(#p147ad9262d)" style="fill: none; stroke-dasharray: 14.8,6.4; stroke-dashoffset: 0; stroke: #000000; stroke-width: 4"/>
   </g>
   <g id="patch_3">
    <path d="M 65.021594 210.846005 
L 65.021594 7.2 
" style="fill: none; stroke: #000000; stroke-linejoin: miter; stroke-linecap: square"/>
   </g>
   <g id="patch_4">
    <path d="M 468 210.846005 
L 468 7.2 
" style="fill: none; stroke: #000000; stroke-linejoin: miter; stroke-linecap: square"/>
   </g>
   <g id="patch_5">
    <path d="M 65.021594 210.846005 
L 468 210.846005 
" style="fill: none; stroke: #000000; stroke-linejoin: miter; stroke-linecap: square"/>
   </g>
   <g id="patch_6">
    <path d="M 65.021594 7.2 
L 468 7.2 
" style="fill: none; stroke: #000000; stroke-linejoin: miter; stroke-linecap: square"/>
   </g>
   <g id="legend_1">
    <g id="line2d_65">
     <path d="M 81.221594 159.769877 
L 99.221594 159.769877 
L 117.221594 159.769877 
" style="fill: none; stroke: #0000ff; stroke-width: 2.5; stroke-linecap: square"/>
    </g>
    <g id="text_10">
     <!-- Directional Spectrum -->
     <g transform="translate(131.621594 166.069877) scale(0.18 -0.18)">
      <defs>
       <path id="CMR17-44" d="M 333 4352 
L 333 4186 
C 774 4186 845 4186 845 3900 
L 845 452 
C 845 166 774 166 333 166 
L 333 0 
L 2368 0 
C 3398 0 4224 943 4224 2141 
C 4224 3346 3411 4352 2368 4352 
L 333 4352 
z
M 1523 166 
C 1267 166 1254 197 1254 414 
L 1254 3938 
C 1254 4155 1267 4186 1523 4186 
L 2240 4186 
C 2771 4186 3750 3874 3750 2141 
C 3750 1242 3488 879 3366 707 
C 3213 510 2848 166 2240 166 
L 1523 166 
z
" transform="scale(0.015625)"/>
       <path id="CMR17-69" d="M 992 3909 
C 992 4049 877 4170 730 4170 
C 589 4170 467 4056 467 3909 
C 467 3769 582 3648 730 3648 
C 870 3648 992 3763 992 3909 
z
M 243 2706 
L 243 2541 
C 602 2541 653 2502 653 2197 
L 653 427 
C 653 184 627 153 218 153 
L 218 -13 
C 371 0 646 0 806 0 
C 960 0 1222 0 1370 -13 
L 1370 153 
C 992 153 979 191 979 420 
L 979 2776 
L 243 2706 
z
" transform="scale(0.015625)"/>
       <path id="CMR17-72" d="M 960 1497 
C 960 2112 1222 2688 1702 2688 
C 1747 2688 1792 2682 1837 2662 
C 1837 2662 1696 2617 1696 2452 
C 1696 2298 1818 2234 1914 2234 
C 1990 2234 2131 2279 2131 2458 
C 2131 2663 1926 2790 1709 2790 
C 1222 2790 1011 2317 947 2093 
L 941 2093 
L 941 2790 
L 198 2720 
L 198 2554 
C 576 2554 634 2515 634 2208 
L 634 428 
C 634 184 608 153 198 153 
L 198 -13 
C 352 0 646 0 813 0 
C 998 0 1325 0 1498 -13 
L 1498 153 
C 1037 153 960 153 960 440 
L 960 1497 
z
" transform="scale(0.015625)"/>
       <path id="CMR17-65" d="M 2438 1472 
C 2464 1498 2464 1511 2464 1576 
C 2464 2238 2118 2816 1389 2816 
C 710 2816 173 2169 173 1383 
C 173 551 781 -64 1459 -64 
C 2176 -64 2458 607 2458 740 
C 2458 784 2419 784 2406 784 
C 2362 784 2355 771 2330 696 
C 2189 265 1837 51 1504 51 
C 1229 51 954 203 781 480 
C 582 803 582 1176 582 1472 
L 2438 1472 
z
M 589 1568 
C 634 2505 1126 2714 1382 2714 
C 1818 2714 2112 2297 2118 1568 
L 589 1568 
z
" transform="scale(0.015625)"/>
       <path id="CMR17-63" d="M 2234 2240 
C 2112 2240 1933 2240 1933 2017 
C 1933 1838 2080 1787 2163 1787 
C 2208 1787 2394 1807 2394 2024 
C 2394 2467 1958 2803 1466 2803 
C 787 2803 211 2178 211 1363 
C 211 516 813 -64 1466 -64 
C 2259 -64 2458 677 2458 748 
C 2458 774 2451 793 2406 793 
C 2362 793 2355 787 2330 703 
C 2163 180 1798 51 1523 51 
C 1114 51 621 427 621 1369 
C 621 2338 1094 2688 1472 2688 
C 1722 2688 2093 2573 2234 2240 
z
" transform="scale(0.015625)"/>
       <path id="CMR17-74" d="M 966 2560 
L 1862 2560 
L 1862 2725 
L 966 2725 
L 966 3904 
L 851 3904 
C 838 3245 614 2668 70 2668 
L 70 2560 
L 627 2560 
L 627 771 
C 627 650 627 -64 1370 -64 
C 1747 -64 1965 306 1965 777 
L 1965 1140 
L 1850 1140 
L 1850 783 
C 1850 344 1677 51 1408 51 
C 1222 51 966 178 966 758 
L 966 2560 
z
" transform="scale(0.015625)"/>
       <path id="CMR17-6e" d="M 2656 1933 
C 2656 2259 2592 2790 1837 2790 
C 1331 2790 1069 2400 973 2144 
L 966 2144 
L 966 2790 
L 211 2720 
L 211 2554 
C 589 2554 646 2515 646 2208 
L 646 428 
C 646 184 621 153 211 153 
L 211 -13 
C 365 0 646 0 813 0 
C 979 0 1267 0 1421 -13 
L 1421 153 
C 1011 153 986 178 986 428 
L 986 1658 
C 986 2247 1344 2688 1792 2688 
C 2266 2688 2317 2266 2317 1958 
L 2317 428 
C 2317 184 2291 153 1882 153 
L 1882 -13 
C 2035 0 2317 0 2483 0 
C 2650 0 2938 0 3091 -13 
L 3091 153 
C 2682 153 2656 178 2656 428 
L 2656 1933 
z
" transform="scale(0.015625)"/>
       <path id="CMR17-61" d="M 2304 1653 
C 2304 2072 2304 2294 2035 2543 
C 1798 2752 1523 2816 1306 2816 
C 800 2816 435 2407 435 1971 
C 435 1728 627 1728 666 1728 
C 749 1728 896 1778 896 1954 
C 896 2112 774 2181 666 2181 
C 640 2181 608 2174 589 2168 
C 723 2592 1069 2714 1293 2714 
C 1613 2714 1965 2429 1965 1885 
L 1965 1600 
C 1587 1600 1133 1549 774 1357 
C 371 1133 256 813 256 570 
C 256 77 832 -64 1171 -64 
C 1523 -64 1850 139 1990 511 
C 2003 233 2182 -18 2464 -18 
C 2598 -18 2938 70 2938 567 
L 2938 920 
L 2822 920 
L 2822 562 
C 2822 178 2650 128 2566 128 
C 2304 128 2304 458 2304 738 
L 2304 1653 
z
M 1965 870 
C 1965 317 1568 38 1216 38 
C 896 38 646 275 646 570 
C 646 761 730 1100 1101 1305 
C 1408 1478 1760 1504 1965 1504 
L 1965 870 
z
" transform="scale(0.015625)"/>
       <path id="CMR17-53" d="M 2803 4290 
C 2803 4404 2797 4411 2758 4411 
C 2720 4411 2707 4385 2682 4328 
L 2490 3907 
C 2246 4257 1875 4416 1472 4416 
C 819 4416 294 3901 294 3253 
C 294 3056 339 2776 557 2510 
C 794 2218 1018 2167 1530 2033 
C 1722 1982 2042 1899 2106 1874 
C 2470 1722 2662 1341 2662 985 
C 2662 527 2336 38 1779 38 
C 1094 38 454 419 410 1311 
C 403 1413 397 1419 352 1419 
C 301 1419 294 1413 294 1285 
L 294 -1 
C 294 -115 301 -122 339 -122 
C 384 -122 397 -90 486 108 
C 493 127 493 140 614 381 
C 934 -39 1472 -128 1779 -128 
C 2477 -128 2970 451 2970 1124 
C 2970 1454 2848 1708 2778 1823 
C 2509 2230 2221 2306 1914 2382 
C 1869 2402 1856 2402 1498 2490 
C 1152 2579 1005 2624 845 2796 
C 666 2992 602 3196 602 3399 
C 602 3812 934 4263 1478 4263 
C 2157 4263 2579 3786 2675 2993 
C 2694 2878 2701 2872 2746 2872 
C 2803 2872 2803 2891 2803 2999 
L 2803 4290 
z
" transform="scale(0.015625)"/>
       <path id="CMR17-70" d="M 1408 -1063 
C 998 -1063 973 -1037 973 -789 
L 973 402 
C 1158 134 1427 -38 1766 -38 
C 2406 -38 3053 523 3053 1388 
C 3053 2191 2496 2802 1837 2802 
C 1453 2802 1139 2592 960 2338 
L 960 2802 
L 198 2732 
L 198 2567 
C 576 2567 634 2528 634 2223 
L 634 -789 
C 634 -1031 608 -1063 198 -1063 
L 198 -1228 
C 352 -1216 634 -1216 800 -1216 
C 966 -1216 1254 -1216 1408 -1228 
L 1408 -1063 
z
M 973 2012 
C 973 2102 973 2235 1222 2471 
C 1254 2497 1472 2688 1792 2688 
C 2259 2688 2643 2108 2643 1382 
C 2643 656 2234 64 1728 64 
C 1498 64 1248 172 1056 472 
C 973 612 973 650 973 752 
L 973 2012 
z
" transform="scale(0.015625)"/>
       <path id="CMR17-75" d="M 1882 2693 
L 1882 2528 
C 2259 2528 2317 2489 2317 2186 
L 2317 1032 
C 2317 500 2029 38 1555 38 
C 1030 38 986 348 986 678 
L 986 2763 
L 211 2693 
L 211 2528 
C 467 2528 640 2528 646 2274 
L 646 1058 
C 646 633 646 361 813 183 
C 896 101 1056 -64 1517 -64 
C 2061 -64 2272 377 2323 506 
L 2330 506 
L 2330 -63 
L 3091 -63 
L 3091 128 
C 2714 128 2656 166 2656 473 
L 2656 2763 
L 1882 2693 
z
" transform="scale(0.015625)"/>
       <path id="CMR17-6d" d="M 4326 1933 
C 4326 2252 4269 2790 3507 2790 
C 3072 2790 2771 2496 2656 2151 
L 2650 2151 
C 2573 2676 2195 2790 1837 2790 
C 1331 2790 1069 2400 973 2144 
L 966 2144 
L 966 2790 
L 211 2720 
L 211 2554 
C 589 2554 646 2515 646 2208 
L 646 428 
C 646 184 621 153 211 153 
L 211 -13 
C 365 0 646 0 813 0 
C 979 0 1267 0 1421 -13 
L 1421 153 
C 1011 153 986 178 986 428 
L 986 1658 
C 986 2247 1344 2688 1792 2688 
C 2266 2688 2317 2266 2317 1958 
L 2317 428 
C 2317 184 2291 153 1882 153 
L 1882 -13 
C 2035 0 2317 0 2483 0 
C 2650 0 2938 0 3091 -13 
L 3091 153 
C 2682 153 2656 178 2656 428 
L 2656 1658 
C 2656 2247 3014 2688 3462 2688 
C 3936 2688 3987 2266 3987 1958 
L 3987 428 
C 3987 184 3962 153 3552 153 
L 3552 -13 
C 3706 0 3987 0 4154 0 
C 4320 0 4608 0 4762 -13 
L 4762 153 
C 4352 153 4326 178 4326 428 
L 4326 1933 
z
" transform="scale(0.015625)"/>
      </defs>
      <use xlink:href="#CMR17-44" transform="scale(0.996264)"/>
      <use xlink:href="#CMR17-69" transform="translate(70.393556 0) scale(0.996264)"/>
      <use xlink:href="#CMR17-72" transform="translate(95.264614 0) scale(0.996264)"/>
      <use xlink:href="#CMR17-65" transform="translate(130.545382 0) scale(0.996264)"/>
      <use xlink:href="#CMR17-63" transform="translate(171.031043 0) scale(0.996264)"/>
      <use xlink:href="#CMR17-74" transform="translate(211.516703 0) scale(0.996264)"/>
      <use xlink:href="#CMR17-69" transform="translate(246.797471 0) scale(0.996264)"/>
      <use xlink:href="#CMR17-6f" transform="translate(271.668529 0) scale(0.996264)"/>
      <use xlink:href="#CMR17-6e" transform="translate(317.359007 0) scale(0.996264)"/>
      <use xlink:href="#CMR17-61" transform="translate(368.254376 0) scale(0.996264)"/>
      <use xlink:href="#CMR17-6c" transform="translate(413.944853 0) scale(0.996264)"/>
      <use xlink:href="#CMR17-53" transform="translate(468.891878 0) scale(0.996264)"/>
      <use xlink:href="#CMR17-70" transform="translate(519.787248 0) scale(0.996264)"/>
      <use xlink:href="#CMR17-65" transform="translate(573.285057 0) scale(0.996264)"/>
      <use xlink:href="#CMR17-63" transform="translate(613.770717 0) scale(0.996264)"/>
      <use xlink:href="#CMR17-74" transform="translate(654.256377 0) scale(0.996264)"/>
      <use xlink:href="#CMR17-72" transform="translate(689.537145 0) scale(0.996264)"/>
      <use xlink:href="#CMR17-75" transform="translate(724.817913 0) scale(0.996264)"/>
      <use xlink:href="#CMR17-6d" transform="translate(775.713283 0) scale(0.996264)"/>
     </g>
    </g>
    <g id="line2d_66">
     <path d="M 81.221594 184.857941 
L 99.221594 184.857941 
L 117.221594 184.857941 
" style="fill: none; stroke-dasharray: 14.8,6.4; stroke-dashoffset: 0; stroke: #000000; stroke-width: 4"/>
    </g>
    <g id="text_11">
     <!-- $k^{-11/3}$ -->
     <g transform="translate(131.621594 191.157941) scale(0.18 -0.18)">
      <use xlink:href="#CMMI12-6b" transform="scale(0.996264)"/>
      <use xlink:href="#CMSY10-0" transform="translate(54.079201 36.153639) scale(0.697382)"/>
      <use xlink:href="#CMR17-31" transform="translate(108.320194 36.153639) scale(0.697382)"/>
      <use xlink:href="#CMR17-31" transform="translate(140.303376 36.153639) scale(0.697382)"/>
      <use xlink:href="#CMMI12-3d" transform="translate(172.286558 36.153639) scale(0.697382)"/>
      <use xlink:href="#CMR17-33" transform="translate(206.428849 36.153639) scale(0.697382)"/>
     </g>
    </g>
   </g>
  </g>
 </g>
 <defs>
  <clipPath id="p147ad9262d">
   <rect x="65.021594" y="7.2" width="402.978406" height="203.646005"/>
  </clipPath>
 </defs>
</svg>
