<?xml version="1.0" encoding="utf-8" standalone="no"?>
<!DOCTYPE svg PUBLIC "-//W3C//DTD SVG 1.1//EN"
  "http://www.w3.org/Graphics/SVG/1.1/DTD/svg11.dtd">
<svg xmlns:xlink="http://www.w3.org/1999/xlink" width="486pt" height="270pt" viewBox="0 0 486 270" xmlns="http://www.w3.org/2000/svg" version="1.1">
 <metadata>
  <rdf:RDF xmlns:dc="http://purl.org/dc/elements/1.1/" xmlns:cc="http://creativecommons.org/ns#" xmlns:rdf="http://www.w3.org/1999/02/22-rdf-syntax-ns#">
   <cc:Work>
    <dc:type rdf:resource="http://purl.org/dc/dcmitype/StillImage"/>
    <dc:date>2026-02-13T18:25:43.058798</dc:date>
    <dc:format>image/svg+xml</dc:format>
    <dc:creator>
     <cc:Agent>
      <dc:title>Matplotlib v3.8.4, https://matplotlib.org/</dc:title>
     </cc:Agent>
    </dc:creator>
   </cc:Work>
  </rdf:RDF>
 </metadata>
 <defs>
  <style type="text/css">*{stroke-linejoin: round; stroke-linecap: butt}</style>
 </defs>
 <g id="figure_1">
  <g id="patch_1">
   <path d="M 0 270 
L 486 270 
L 486 0 
L 0 0 
z
" style="fill: #ffffff"/>
  </g>
  <g id="axes_1">
   <g id="patch_2">
    <path d="M 49.506807 228.733061 
L 478.8 228.733061 
L 478.8 7.2 
L 49.506807 7.2 
z
" style="fill: #ffffff"/>
   </g>
   <g id="matplotlib.axis_1">
    <g id="xtick_1">
     <g id="line2d_1">
      <defs>
       <path id="m84b03fc025" d="M 0 0 
L 0 -6 
" style="stroke: #000000; stroke-width: 0.8"/>
      </defs>
      <g>
       <use xlink:href="#m84b03fc025" x="81.269927" y="228.733061" style="stroke: #000000; stroke-width: 0.8"/>
      </g>
     </g>
     <g id="line2d_2">
      <defs>
       <path id="mbffffe9e86" d="M 0 0 
L 0 6 
" style="stroke: #000000; stroke-width: 0.8"/>
      </defs>
      <g>
       <use xlink:href="#mbffffe9e86" x="81.269927" y="7.2" style="stroke: #000000; stroke-width: 0.8"/>
      </g>
     </g>
     <g id="text_1">
      <!-- $\mathdefault{10^{1}}$ -->
      <g transform="translate(71.338504 242.610786) scale(0.15 -0.15)">
       <defs>
        <path id="CMR17-31" d="M 1702 4058 
C 1702 4192 1696 4192 1606 4192 
C 1357 3916 979 3827 621 3827 
C 602 3827 570 3827 563 3808 
C 557 3795 557 3782 557 3648 
C 755 3648 1088 3686 1344 3839 
L 1344 461 
C 1344 236 1331 160 781 160 
L 589 160 
L 589 0 
C 896 0 1216 0 1523 0 
C 1830 0 2150 0 2458 0 
L 2458 160 
L 2266 160 
C 1715 160 1702 230 1702 458 
L 1702 4058 
z
" transform="scale(0.015625)"/>
        <path id="CMR17-30" d="M 2688 2025 
C 2688 2416 2682 3080 2413 3591 
C 2176 4039 1798 4198 1466 4198 
C 1158 4198 768 4058 525 3597 
C 269 3118 243 2524 243 2025 
C 243 1661 250 1106 448 619 
C 723 -39 1216 -128 1466 -128 
C 1760 -128 2208 -7 2470 600 
C 2662 1042 2688 1559 2688 2025 
z
M 1466 -26 
C 1056 -26 813 325 723 812 
C 653 1188 653 1738 653 2096 
C 653 2588 653 2997 736 3387 
C 858 3929 1216 4096 1466 4096 
C 1728 4096 2067 3923 2189 3400 
C 2272 3036 2278 2607 2278 2096 
C 2278 1680 2278 1169 2202 792 
C 2067 95 1690 -26 1466 -26 
z
" transform="scale(0.015625)"/>
       </defs>
       <use xlink:href="#CMR17-31" transform="scale(0.996264)"/>
       <use xlink:href="#CMR17-30" transform="translate(45.690477 0) scale(0.996264)"/>
       <use xlink:href="#CMR17-31" transform="translate(91.380954 36.153639) scale(0.697382)"/>
      </g>
     </g>
    </g>
    <g id="xtick_2">
     <g id="line2d_3">
      <g>
       <use xlink:href="#m84b03fc025" x="261.49248" y="228.733061" style="stroke: #000000; stroke-width: 0.8"/>
      </g>
     </g>
     <g id="line2d_4">
      <g>
       <use xlink:href="#mbffffe9e86" x="261.49248" y="7.2" style="stroke: #000000; stroke-width: 0.8"/>
      </g>
     </g>
     <g id="text_2">
      <!-- $\mathdefault{10^{2}}$ -->
      <g transform="translate(251.561057 242.610786) scale(0.15 -0.15)">
       <defs>
        <path id="CMR17-32" d="M 2669 989 
L 2554 989 
C 2490 536 2438 459 2413 420 
C 2381 369 1920 369 1830 369 
L 602 369 
C 832 619 1280 1072 1824 1597 
C 2214 1967 2669 2402 2669 3035 
C 2669 3790 2067 4224 1395 4224 
C 691 4224 262 3604 262 3030 
C 262 2780 448 2748 525 2748 
C 589 2748 781 2787 781 3010 
C 781 3207 614 3264 525 3264 
C 486 3264 448 3258 422 3245 
C 544 3790 915 4058 1306 4058 
C 1862 4058 2227 3617 2227 3035 
C 2227 2479 1901 2000 1536 1584 
L 262 146 
L 262 0 
L 2515 0 
L 2669 989 
z
" transform="scale(0.015625)"/>
       </defs>
       <use xlink:href="#CMR17-31" transform="scale(0.996264)"/>
       <use xlink:href="#CMR17-30" transform="translate(45.690477 0) scale(0.996264)"/>
       <use xlink:href="#CMR17-32" transform="translate(91.380954 36.153639) scale(0.697382)"/>
      </g>
     </g>
    </g>
    <g id="xtick_3">
     <g id="line2d_5">
      <g>
       <use xlink:href="#m84b03fc025" x="441.715034" y="228.733061" style="stroke: #000000; stroke-width: 0.8"/>
      </g>
     </g>
     <g id="line2d_6">
      <g>
       <use xlink:href="#mbffffe9e86" x="441.715034" y="7.2" style="stroke: #000000; stroke-width: 0.8"/>
      </g>
     </g>
     <g id="text_3">
      <!-- $\mathdefault{10^{3}}$ -->
      <g transform="translate(431.78361 242.610786) scale(0.15 -0.15)">
       <defs>
        <path id="CMR17-33" d="M 1414 2157 
C 1984 2157 2234 1662 2234 1090 
C 2234 320 1824 25 1453 25 
C 1114 25 563 194 390 693 
C 422 680 454 680 486 680 
C 640 680 755 782 755 948 
C 755 1133 614 1216 486 1216 
C 378 1216 211 1165 211 926 
C 211 335 787 -128 1466 -128 
C 2176 -128 2720 430 2720 1085 
C 2720 1707 2208 2157 1600 2227 
C 2086 2328 2554 2756 2554 3329 
C 2554 3820 2048 4179 1472 4179 
C 890 4179 378 3829 378 3329 
C 378 3110 544 3072 627 3072 
C 762 3072 877 3155 877 3321 
C 877 3486 762 3569 627 3569 
C 602 3569 570 3569 544 3557 
C 730 3959 1235 4032 1459 4032 
C 1683 4032 2106 3925 2106 3320 
C 2106 3143 2080 2828 1862 2550 
C 1670 2304 1453 2304 1242 2284 
C 1210 2284 1062 2269 1037 2269 
C 992 2263 966 2257 966 2208 
C 966 2163 973 2157 1101 2157 
L 1414 2157 
z
" transform="scale(0.015625)"/>
       </defs>
       <use xlink:href="#CMR17-31" transform="scale(0.996264)"/>
       <use xlink:href="#CMR17-30" transform="translate(45.690477 0) scale(0.996264)"/>
       <use xlink:href="#CMR17-33" transform="translate(91.380954 36.153639) scale(0.697382)"/>
      </g>
     </g>
    </g>
    <g id="xtick_4">
     <g id="line2d_7">
      <defs>
       <path id="m9651710596" d="M 0 0 
L 0 -3 
" style="stroke: #000000; stroke-width: 0.6"/>
      </defs>
      <g>
       <use xlink:href="#m9651710596" x="53.3531" y="228.733061" style="stroke: #000000; stroke-width: 0.6"/>
      </g>
     </g>
     <g id="line2d_8">
      <defs>
       <path id="m505de62157" d="M 0 0 
L 0 3 
" style="stroke: #000000; stroke-width: 0.6"/>
      </defs>
      <g>
       <use xlink:href="#m505de62157" x="53.3531" y="7.2" style="stroke: #000000; stroke-width: 0.6"/>
      </g>
     </g>
    </g>
    <g id="xtick_5">
     <g id="line2d_9">
      <g>
       <use xlink:href="#m9651710596" x="63.804557" y="228.733061" style="stroke: #000000; stroke-width: 0.6"/>
      </g>
     </g>
     <g id="line2d_10">
      <g>
       <use xlink:href="#m505de62157" x="63.804557" y="7.2" style="stroke: #000000; stroke-width: 0.6"/>
      </g>
     </g>
    </g>
    <g id="xtick_6">
     <g id="line2d_11">
      <g>
       <use xlink:href="#m9651710596" x="73.023395" y="228.733061" style="stroke: #000000; stroke-width: 0.6"/>
      </g>
     </g>
     <g id="line2d_12">
      <g>
       <use xlink:href="#m505de62157" x="73.023395" y="7.2" style="stroke: #000000; stroke-width: 0.6"/>
      </g>
     </g>
    </g>
    <g id="xtick_7">
     <g id="line2d_13">
      <g>
       <use xlink:href="#m9651710596" x="135.522321" y="228.733061" style="stroke: #000000; stroke-width: 0.6"/>
      </g>
     </g>
     <g id="line2d_14">
      <g>
       <use xlink:href="#m505de62157" x="135.522321" y="7.2" style="stroke: #000000; stroke-width: 0.6"/>
      </g>
     </g>
    </g>
    <g id="xtick_8">
     <g id="line2d_15">
      <g>
       <use xlink:href="#m9651710596" x="167.257938" y="228.733061" style="stroke: #000000; stroke-width: 0.6"/>
      </g>
     </g>
     <g id="line2d_16">
      <g>
       <use xlink:href="#m505de62157" x="167.257938" y="7.2" style="stroke: #000000; stroke-width: 0.6"/>
      </g>
     </g>
    </g>
    <g id="xtick_9">
     <g id="line2d_17">
      <g>
       <use xlink:href="#m9651710596" x="189.774716" y="228.733061" style="stroke: #000000; stroke-width: 0.6"/>
      </g>
     </g>
     <g id="line2d_18">
      <g>
       <use xlink:href="#m505de62157" x="189.774716" y="7.2" style="stroke: #000000; stroke-width: 0.6"/>
      </g>
     </g>
    </g>
    <g id="xtick_10">
     <g id="line2d_19">
      <g>
       <use xlink:href="#m9651710596" x="207.240086" y="228.733061" style="stroke: #000000; stroke-width: 0.6"/>
      </g>
     </g>
     <g id="line2d_20">
      <g>
       <use xlink:href="#m505de62157" x="207.240086" y="7.2" style="stroke: #000000; stroke-width: 0.6"/>
      </g>
     </g>
    </g>
    <g id="xtick_11">
     <g id="line2d_21">
      <g>
       <use xlink:href="#m9651710596" x="221.510332" y="228.733061" style="stroke: #000000; stroke-width: 0.6"/>
      </g>
     </g>
     <g id="line2d_22">
      <g>
       <use xlink:href="#m505de62157" x="221.510332" y="7.2" style="stroke: #000000; stroke-width: 0.6"/>
      </g>
     </g>
    </g>
    <g id="xtick_12">
     <g id="line2d_23">
      <g>
       <use xlink:href="#m9651710596" x="233.575653" y="228.733061" style="stroke: #000000; stroke-width: 0.6"/>
      </g>
     </g>
     <g id="line2d_24">
      <g>
       <use xlink:href="#m505de62157" x="233.575653" y="7.2" style="stroke: #000000; stroke-width: 0.6"/>
      </g>
     </g>
    </g>
    <g id="xtick_13">
     <g id="line2d_25">
      <g>
       <use xlink:href="#m9651710596" x="244.02711" y="228.733061" style="stroke: #000000; stroke-width: 0.6"/>
      </g>
     </g>
     <g id="line2d_26">
      <g>
       <use xlink:href="#m505de62157" x="244.02711" y="7.2" style="stroke: #000000; stroke-width: 0.6"/>
      </g>
     </g>
    </g>
    <g id="xtick_14">
     <g id="line2d_27">
      <g>
       <use xlink:href="#m9651710596" x="253.245948" y="228.733061" style="stroke: #000000; stroke-width: 0.6"/>
      </g>
     </g>
     <g id="line2d_28">
      <g>
       <use xlink:href="#m505de62157" x="253.245948" y="7.2" style="stroke: #000000; stroke-width: 0.6"/>
      </g>
     </g>
    </g>
    <g id="xtick_15">
     <g id="line2d_29">
      <g>
       <use xlink:href="#m9651710596" x="315.744875" y="228.733061" style="stroke: #000000; stroke-width: 0.6"/>
      </g>
     </g>
     <g id="line2d_30">
      <g>
       <use xlink:href="#m505de62157" x="315.744875" y="7.2" style="stroke: #000000; stroke-width: 0.6"/>
      </g>
     </g>
    </g>
    <g id="xtick_16">
     <g id="line2d_31">
      <g>
       <use xlink:href="#m9651710596" x="347.480491" y="228.733061" style="stroke: #000000; stroke-width: 0.6"/>
      </g>
     </g>
     <g id="line2d_32">
      <g>
       <use xlink:href="#m505de62157" x="347.480491" y="7.2" style="stroke: #000000; stroke-width: 0.6"/>
      </g>
     </g>
    </g>
    <g id="xtick_17">
     <g id="line2d_33">
      <g>
       <use xlink:href="#m9651710596" x="369.997269" y="228.733061" style="stroke: #000000; stroke-width: 0.6"/>
      </g>
     </g>
     <g id="line2d_34">
      <g>
       <use xlink:href="#m505de62157" x="369.997269" y="7.2" style="stroke: #000000; stroke-width: 0.6"/>
      </g>
     </g>
    </g>
    <g id="xtick_18">
     <g id="line2d_35">
      <g>
       <use xlink:href="#m9651710596" x="387.462639" y="228.733061" style="stroke: #000000; stroke-width: 0.6"/>
      </g>
     </g>
     <g id="line2d_36">
      <g>
       <use xlink:href="#m505de62157" x="387.462639" y="7.2" style="stroke: #000000; stroke-width: 0.6"/>
      </g>
     </g>
    </g>
    <g id="xtick_19">
     <g id="line2d_37">
      <g>
       <use xlink:href="#m9651710596" x="401.732885" y="228.733061" style="stroke: #000000; stroke-width: 0.6"/>
      </g>
     </g>
     <g id="line2d_38">
      <g>
       <use xlink:href="#m505de62157" x="401.732885" y="7.2" style="stroke: #000000; stroke-width: 0.6"/>
      </g>
     </g>
    </g>
    <g id="xtick_20">
     <g id="line2d_39">
      <g>
       <use xlink:href="#m9651710596" x="413.798207" y="228.733061" style="stroke: #000000; stroke-width: 0.6"/>
      </g>
     </g>
     <g id="line2d_40">
      <g>
       <use xlink:href="#m505de62157" x="413.798207" y="7.2" style="stroke: #000000; stroke-width: 0.6"/>
      </g>
     </g>
    </g>
    <g id="xtick_21">
     <g id="line2d_41">
      <g>
       <use xlink:href="#m9651710596" x="424.249664" y="228.733061" style="stroke: #000000; stroke-width: 0.6"/>
      </g>
     </g>
     <g id="line2d_42">
      <g>
       <use xlink:href="#m505de62157" x="424.249664" y="7.2" style="stroke: #000000; stroke-width: 0.6"/>
      </g>
     </g>
    </g>
    <g id="xtick_22">
     <g id="line2d_43">
      <g>
       <use xlink:href="#m9651710596" x="433.468502" y="228.733061" style="stroke: #000000; stroke-width: 0.6"/>
      </g>
     </g>
     <g id="line2d_44">
      <g>
       <use xlink:href="#m505de62157" x="433.468502" y="7.2" style="stroke: #000000; stroke-width: 0.6"/>
      </g>
     </g>
    </g>
    <g id="text_4">
     <!-- $k$ -->
     <g transform="translate(260.348268 259.894255) scale(0.15 -0.15)">
      <defs>
       <path id="CMMI12-6b" d="M 1798 4257 
C 1805 4283 1818 4321 1818 4352 
C 1818 4416 1754 4416 1741 4416 
C 1734 4416 1504 4393 1389 4377 
C 1280 4377 1184 4358 1069 4358 
C 915 4345 870 4339 870 4224 
C 870 4160 934 4160 998 4160 
C 1325 4160 1325 4103 1325 4040 
C 1325 4015 1325 4002 1293 3888 
L 378 248 
C 352 152 352 140 352 101 
C 352 -38 461 -64 525 -64 
C 704 -64 742 77 794 275 
L 1094 1469 
C 1555 1418 1830 1226 1830 920 
C 1830 881 1830 856 1811 760 
C 1786 664 1786 588 1786 556 
C 1786 185 2029 -64 2355 -64 
C 2650 -64 2803 204 2854 294 
C 2989 530 3072 888 3072 913 
C 3072 945 3046 971 3008 971 
C 2950 971 2944 945 2918 843 
C 2829 511 2694 64 2368 64 
C 2240 64 2157 128 2157 370 
C 2157 492 2182 632 2208 728 
C 2234 843 2234 849 2234 926 
C 2234 1303 1894 1514 1306 1590 
C 1536 1731 1766 1980 1856 2076 
C 2221 2484 2470 2689 2765 2689 
C 2912 2689 2950 2650 2995 2612 
C 2758 2586 2669 2420 2669 2293 
C 2669 2139 2790 2088 2880 2088 
C 3053 2088 3206 2235 3206 2440 
C 3206 2625 3059 2816 2771 2816 
C 2419 2816 2131 2567 1677 2056 
C 1613 1980 1376 1737 1139 1648 
L 1798 4257 
z
" transform="scale(0.015625)"/>
      </defs>
      <use xlink:href="#CMMI12-6b" transform="scale(0.996264)"/>
     </g>
    </g>
   </g>
   <g id="matplotlib.axis_2">
    <g id="ytick_1">
     <g id="line2d_45">
      <defs>
       <path id="mbc5a45ad51" d="M 0 0 
L 6 0 
" style="stroke: #000000; stroke-width: 0.8"/>
      </defs>
      <g>
       <use xlink:href="#mbc5a45ad51" x="49.506807" y="213.151676" style="stroke: #000000; stroke-width: 0.8"/>
      </g>
     </g>
     <g id="line2d_46">
      <defs>
       <path id="mcbbe2ee220" d="M 0 0 
L -6 0 
" style="stroke: #000000; stroke-width: 0.8"/>
      </defs>
      <g>
       <use xlink:href="#mcbbe2ee220" x="478.8" y="213.151676" style="stroke: #000000; stroke-width: 0.8"/>
      </g>
     </g>
     <g id="text_5">
      <!-- $\mathdefault{10^{3}}$ -->
      <g transform="translate(26.14396 218.340538) scale(0.15 -0.15)">
       <use xlink:href="#CMR17-31" transform="scale(0.996264)"/>
       <use xlink:href="#CMR17-30" transform="translate(45.690477 0) scale(0.996264)"/>
       <use xlink:href="#CMR17-33" transform="translate(91.380954 36.153639) scale(0.697382)"/>
      </g>
     </g>
    </g>
    <g id="ytick_2">
     <g id="line2d_47">
      <g>
       <use xlink:href="#mbc5a45ad51" x="49.506807" y="180.404583" style="stroke: #000000; stroke-width: 0.8"/>
      </g>
     </g>
     <g id="line2d_48">
      <g>
       <use xlink:href="#mcbbe2ee220" x="478.8" y="180.404583" style="stroke: #000000; stroke-width: 0.8"/>
      </g>
     </g>
     <g id="text_6">
      <!-- $\mathdefault{10^{4}}$ -->
      <g transform="translate(26.14396 185.593446) scale(0.15 -0.15)">
       <defs>
        <path id="CMR17-34" d="M 2150 4122 
C 2150 4256 2144 4256 2029 4256 
L 128 1254 
L 128 1088 
L 1779 1088 
L 1779 457 
C 1779 224 1766 160 1318 160 
L 1197 160 
L 1197 0 
C 1402 0 1747 0 1965 0 
C 2182 0 2528 0 2733 0 
L 2733 160 
L 2611 160 
C 2163 160 2150 224 2150 457 
L 2150 1088 
L 2803 1088 
L 2803 1254 
L 2150 1254 
L 2150 4122 
z
M 1798 3703 
L 1798 1254 
L 256 1254 
L 1798 3703 
z
" transform="scale(0.015625)"/>
       </defs>
       <use xlink:href="#CMR17-31" transform="scale(0.996264)"/>
       <use xlink:href="#CMR17-30" transform="translate(45.690477 0) scale(0.996264)"/>
       <use xlink:href="#CMR17-34" transform="translate(91.380954 36.153639) scale(0.697382)"/>
      </g>
     </g>
    </g>
    <g id="ytick_3">
     <g id="line2d_49">
      <g>
       <use xlink:href="#mbc5a45ad51" x="49.506807" y="147.657491" style="stroke: #000000; stroke-width: 0.8"/>
      </g>
     </g>
     <g id="line2d_50">
      <g>
       <use xlink:href="#mcbbe2ee220" x="478.8" y="147.657491" style="stroke: #000000; stroke-width: 0.8"/>
      </g>
     </g>
     <g id="text_7">
      <!-- $\mathdefault{10^{5}}$ -->
      <g transform="translate(26.14396 152.846354) scale(0.15 -0.15)">
       <defs>
        <path id="CMR17-35" d="M 730 3692 
C 794 3666 1056 3584 1325 3584 
C 1920 3584 2246 3911 2432 4100 
C 2432 4157 2432 4192 2394 4192 
C 2387 4192 2374 4192 2323 4163 
C 2099 4058 1837 3973 1517 3973 
C 1325 3973 1037 3999 723 4139 
C 653 4171 640 4171 634 4171 
C 602 4171 595 4164 595 4037 
L 595 2203 
C 595 2089 595 2057 659 2057 
C 691 2057 704 2070 736 2114 
C 941 2401 1222 2522 1542 2522 
C 1766 2522 2246 2382 2246 1289 
C 2246 1085 2246 715 2054 421 
C 1894 159 1645 25 1370 25 
C 947 25 518 320 403 814 
C 429 807 480 795 506 795 
C 589 795 749 840 749 1038 
C 749 1210 627 1280 506 1280 
C 358 1280 262 1190 262 1011 
C 262 454 704 -128 1382 -128 
C 2042 -128 2669 440 2669 1264 
C 2669 2030 2170 2624 1549 2624 
C 1222 2624 947 2503 730 2274 
L 730 3692 
z
" transform="scale(0.015625)"/>
       </defs>
       <use xlink:href="#CMR17-31" transform="scale(0.996264)"/>
       <use xlink:href="#CMR17-30" transform="translate(45.690477 0) scale(0.996264)"/>
       <use xlink:href="#CMR17-35" transform="translate(91.380954 36.153639) scale(0.697382)"/>
      </g>
     </g>
    </g>
    <g id="ytick_4">
     <g id="line2d_51">
      <g>
       <use xlink:href="#mbc5a45ad51" x="49.506807" y="114.910399" style="stroke: #000000; stroke-width: 0.8"/>
      </g>
     </g>
     <g id="line2d_52">
      <g>
       <use xlink:href="#mcbbe2ee220" x="478.8" y="114.910399" style="stroke: #000000; stroke-width: 0.8"/>
      </g>
     </g>
     <g id="text_8">
      <!-- $\mathdefault{10^{6}}$ -->
      <g transform="translate(26.14396 120.099261) scale(0.15 -0.15)">
       <defs>
        <path id="CMR17-36" d="M 678 2176 
C 678 3690 1395 4032 1811 4032 
C 1946 4032 2272 4009 2400 3776 
C 2298 3776 2106 3776 2106 3553 
C 2106 3381 2246 3323 2336 3323 
C 2394 3323 2566 3348 2566 3560 
C 2566 3954 2246 4179 1805 4179 
C 1043 4179 243 3390 243 1984 
C 243 253 966 -128 1478 -128 
C 2099 -128 2688 427 2688 1283 
C 2688 2081 2170 2662 1517 2662 
C 1126 2662 838 2407 678 1960 
L 678 2176 
z
M 1478 25 
C 691 25 691 1200 691 1436 
C 691 1896 909 2560 1504 2560 
C 1613 2560 1926 2560 2138 2120 
C 2253 1870 2253 1609 2253 1289 
C 2253 944 2253 690 2118 434 
C 1978 171 1773 25 1478 25 
z
" transform="scale(0.015625)"/>
       </defs>
       <use xlink:href="#CMR17-31" transform="scale(0.996264)"/>
       <use xlink:href="#CMR17-30" transform="translate(45.690477 0) scale(0.996264)"/>
       <use xlink:href="#CMR17-36" transform="translate(91.380954 36.153639) scale(0.697382)"/>
      </g>
     </g>
    </g>
    <g id="ytick_5">
     <g id="line2d_53">
      <g>
       <use xlink:href="#mbc5a45ad51" x="49.506807" y="82.163307" style="stroke: #000000; stroke-width: 0.8"/>
      </g>
     </g>
     <g id="line2d_54">
      <g>
       <use xlink:href="#mcbbe2ee220" x="478.8" y="82.163307" style="stroke: #000000; stroke-width: 0.8"/>
      </g>
     </g>
     <g id="text_9">
      <!-- $\mathdefault{10^{7}}$ -->
      <g transform="translate(26.14396 87.352169) scale(0.15 -0.15)">
       <defs>
        <path id="CMR17-37" d="M 2886 3941 
L 2886 4081 
L 1382 4081 
C 634 4081 621 4165 595 4288 
L 480 4288 
L 294 3094 
L 410 3094 
C 429 3215 474 3540 550 3661 
C 589 3712 1062 3712 1171 3712 
L 2579 3712 
L 1869 2661 
C 1395 1954 1069 999 1069 165 
C 1069 89 1069 -128 1299 -128 
C 1530 -128 1530 89 1530 171 
L 1530 465 
C 1530 1508 1709 2196 2003 2636 
L 2886 3941 
z
" transform="scale(0.015625)"/>
       </defs>
       <use xlink:href="#CMR17-31" transform="scale(0.996264)"/>
       <use xlink:href="#CMR17-30" transform="translate(45.690477 0) scale(0.996264)"/>
       <use xlink:href="#CMR17-37" transform="translate(91.380954 36.153639) scale(0.697382)"/>
      </g>
     </g>
    </g>
    <g id="ytick_6">
     <g id="line2d_55">
      <g>
       <use xlink:href="#mbc5a45ad51" x="49.506807" y="49.416215" style="stroke: #000000; stroke-width: 0.8"/>
      </g>
     </g>
     <g id="line2d_56">
      <g>
       <use xlink:href="#mcbbe2ee220" x="478.8" y="49.416215" style="stroke: #000000; stroke-width: 0.8"/>
      </g>
     </g>
     <g id="text_10">
      <!-- $\mathdefault{10^{8}}$ -->
      <g transform="translate(26.14396 54.605077) scale(0.15 -0.15)">
       <defs>
        <path id="CMR17-38" d="M 1741 2264 
C 2144 2467 2554 2773 2554 3263 
C 2554 3841 1990 4179 1472 4179 
C 890 4179 378 3759 378 3180 
C 378 3021 416 2747 666 2505 
C 730 2442 998 2251 1171 2130 
C 883 1983 211 1634 211 934 
C 211 279 838 -128 1459 -128 
C 2144 -128 2720 362 2720 1010 
C 2720 1590 2330 1857 2074 2029 
L 1741 2264 
z
M 902 2822 
C 851 2854 595 3051 595 3351 
C 595 3739 998 4032 1459 4032 
C 1965 4032 2336 3676 2336 3262 
C 2336 2669 1670 2331 1638 2331 
C 1632 2331 1626 2331 1574 2370 
L 902 2822 
z
M 2080 1519 
C 2176 1449 2483 1240 2483 851 
C 2483 381 2010 25 1472 25 
C 890 25 448 438 448 940 
C 448 1443 838 1862 1280 2060 
L 2080 1519 
z
" transform="scale(0.015625)"/>
       </defs>
       <use xlink:href="#CMR17-31" transform="scale(0.996264)"/>
       <use xlink:href="#CMR17-30" transform="translate(45.690477 0) scale(0.996264)"/>
       <use xlink:href="#CMR17-38" transform="translate(91.380954 36.153639) scale(0.697382)"/>
      </g>
     </g>
    </g>
    <g id="ytick_7">
     <g id="line2d_57">
      <g>
       <use xlink:href="#mbc5a45ad51" x="49.506807" y="16.669122" style="stroke: #000000; stroke-width: 0.8"/>
      </g>
     </g>
     <g id="line2d_58">
      <g>
       <use xlink:href="#mcbbe2ee220" x="478.8" y="16.669122" style="stroke: #000000; stroke-width: 0.8"/>
      </g>
     </g>
     <g id="text_11">
      <!-- $\mathdefault{10^{9}}$ -->
      <g transform="translate(26.14396 21.857985) scale(0.15 -0.15)">
       <defs>
        <path id="CMR17-39" d="M 2253 1864 
C 2253 464 1670 31 1190 31 
C 1043 31 685 31 538 294 
C 704 268 826 357 826 518 
C 826 692 685 749 595 749 
C 538 749 365 723 365 506 
C 365 71 742 -128 1203 -128 
C 1939 -128 2688 674 2688 2073 
C 2688 3817 1971 4179 1485 4179 
C 851 4179 243 3628 243 2778 
C 243 1991 762 1408 1414 1408 
C 1952 1408 2189 1903 2253 2112 
L 2253 1864 
z
M 1427 1510 
C 1254 1510 1011 1542 813 1922 
C 678 2169 678 2461 678 2771 
C 678 3146 678 3405 858 3684 
C 947 3817 1114 4032 1485 4032 
C 2240 4032 2240 2885 2240 2632 
C 2240 2182 2035 1510 1427 1510 
z
" transform="scale(0.015625)"/>
       </defs>
       <use xlink:href="#CMR17-31" transform="scale(0.996264)"/>
       <use xlink:href="#CMR17-30" transform="translate(45.690477 0) scale(0.996264)"/>
       <use xlink:href="#CMR17-39" transform="translate(91.380954 36.153639) scale(0.697382)"/>
      </g>
     </g>
    </g>
    <g id="ytick_8">
     <g id="line2d_59">
      <defs>
       <path id="m33c1a38e6e" d="M 0 0 
L 3 0 
" style="stroke: #000000; stroke-width: 0.6"/>
      </defs>
      <g>
       <use xlink:href="#m33c1a38e6e" x="49.506807" y="226.183054" style="stroke: #000000; stroke-width: 0.6"/>
      </g>
     </g>
     <g id="line2d_60">
      <defs>
       <path id="mfc0b7fb6b7" d="M 0 0 
L -3 0 
" style="stroke: #000000; stroke-width: 0.6"/>
      </defs>
      <g>
       <use xlink:href="#mfc0b7fb6b7" x="478.8" y="226.183054" style="stroke: #000000; stroke-width: 0.6"/>
      </g>
     </g>
    </g>
    <g id="ytick_9">
     <g id="line2d_61">
      <g>
       <use xlink:href="#m33c1a38e6e" x="49.506807" y="223.009533" style="stroke: #000000; stroke-width: 0.6"/>
      </g>
     </g>
     <g id="line2d_62">
      <g>
       <use xlink:href="#mfc0b7fb6b7" x="478.8" y="223.009533" style="stroke: #000000; stroke-width: 0.6"/>
      </g>
     </g>
    </g>
    <g id="ytick_10">
     <g id="line2d_63">
      <g>
       <use xlink:href="#m33c1a38e6e" x="49.506807" y="220.416577" style="stroke: #000000; stroke-width: 0.6"/>
      </g>
     </g>
     <g id="line2d_64">
      <g>
       <use xlink:href="#mfc0b7fb6b7" x="478.8" y="220.416577" style="stroke: #000000; stroke-width: 0.6"/>
      </g>
     </g>
    </g>
    <g id="ytick_11">
     <g id="line2d_65">
      <g>
       <use xlink:href="#m33c1a38e6e" x="49.506807" y="218.224264" style="stroke: #000000; stroke-width: 0.6"/>
      </g>
     </g>
     <g id="line2d_66">
      <g>
       <use xlink:href="#mfc0b7fb6b7" x="478.8" y="218.224264" style="stroke: #000000; stroke-width: 0.6"/>
      </g>
     </g>
    </g>
    <g id="ytick_12">
     <g id="line2d_67">
      <g>
       <use xlink:href="#m33c1a38e6e" x="49.506807" y="216.325197" style="stroke: #000000; stroke-width: 0.6"/>
      </g>
     </g>
     <g id="line2d_68">
      <g>
       <use xlink:href="#mfc0b7fb6b7" x="478.8" y="216.325197" style="stroke: #000000; stroke-width: 0.6"/>
      </g>
     </g>
    </g>
    <g id="ytick_13">
     <g id="line2d_69">
      <g>
       <use xlink:href="#m33c1a38e6e" x="49.506807" y="214.6501" style="stroke: #000000; stroke-width: 0.6"/>
      </g>
     </g>
     <g id="line2d_70">
      <g>
       <use xlink:href="#mfc0b7fb6b7" x="478.8" y="214.6501" style="stroke: #000000; stroke-width: 0.6"/>
      </g>
     </g>
    </g>
    <g id="ytick_14">
     <g id="line2d_71">
      <g>
       <use xlink:href="#m33c1a38e6e" x="49.506807" y="203.293819" style="stroke: #000000; stroke-width: 0.6"/>
      </g>
     </g>
     <g id="line2d_72">
      <g>
       <use xlink:href="#mfc0b7fb6b7" x="478.8" y="203.293819" style="stroke: #000000; stroke-width: 0.6"/>
      </g>
     </g>
    </g>
    <g id="ytick_15">
     <g id="line2d_73">
      <g>
       <use xlink:href="#m33c1a38e6e" x="49.506807" y="197.527342" style="stroke: #000000; stroke-width: 0.6"/>
      </g>
     </g>
     <g id="line2d_74">
      <g>
       <use xlink:href="#mfc0b7fb6b7" x="478.8" y="197.527342" style="stroke: #000000; stroke-width: 0.6"/>
      </g>
     </g>
    </g>
    <g id="ytick_16">
     <g id="line2d_75">
      <g>
       <use xlink:href="#m33c1a38e6e" x="49.506807" y="193.435962" style="stroke: #000000; stroke-width: 0.6"/>
      </g>
     </g>
     <g id="line2d_76">
      <g>
       <use xlink:href="#mfc0b7fb6b7" x="478.8" y="193.435962" style="stroke: #000000; stroke-width: 0.6"/>
      </g>
     </g>
    </g>
    <g id="ytick_17">
     <g id="line2d_77">
      <g>
       <use xlink:href="#m33c1a38e6e" x="49.506807" y="190.26244" style="stroke: #000000; stroke-width: 0.6"/>
      </g>
     </g>
     <g id="line2d_78">
      <g>
       <use xlink:href="#mfc0b7fb6b7" x="478.8" y="190.26244" style="stroke: #000000; stroke-width: 0.6"/>
      </g>
     </g>
    </g>
    <g id="ytick_18">
     <g id="line2d_79">
      <g>
       <use xlink:href="#m33c1a38e6e" x="49.506807" y="187.669485" style="stroke: #000000; stroke-width: 0.6"/>
      </g>
     </g>
     <g id="line2d_80">
      <g>
       <use xlink:href="#mfc0b7fb6b7" x="478.8" y="187.669485" style="stroke: #000000; stroke-width: 0.6"/>
      </g>
     </g>
    </g>
    <g id="ytick_19">
     <g id="line2d_81">
      <g>
       <use xlink:href="#m33c1a38e6e" x="49.506807" y="185.477172" style="stroke: #000000; stroke-width: 0.6"/>
      </g>
     </g>
     <g id="line2d_82">
      <g>
       <use xlink:href="#mfc0b7fb6b7" x="478.8" y="185.477172" style="stroke: #000000; stroke-width: 0.6"/>
      </g>
     </g>
    </g>
    <g id="ytick_20">
     <g id="line2d_83">
      <g>
       <use xlink:href="#m33c1a38e6e" x="49.506807" y="183.578105" style="stroke: #000000; stroke-width: 0.6"/>
      </g>
     </g>
     <g id="line2d_84">
      <g>
       <use xlink:href="#mfc0b7fb6b7" x="478.8" y="183.578105" style="stroke: #000000; stroke-width: 0.6"/>
      </g>
     </g>
    </g>
    <g id="ytick_21">
     <g id="line2d_85">
      <g>
       <use xlink:href="#m33c1a38e6e" x="49.506807" y="181.903008" style="stroke: #000000; stroke-width: 0.6"/>
      </g>
     </g>
     <g id="line2d_86">
      <g>
       <use xlink:href="#mfc0b7fb6b7" x="478.8" y="181.903008" style="stroke: #000000; stroke-width: 0.6"/>
      </g>
     </g>
    </g>
    <g id="ytick_22">
     <g id="line2d_87">
      <g>
       <use xlink:href="#m33c1a38e6e" x="49.506807" y="170.546726" style="stroke: #000000; stroke-width: 0.6"/>
      </g>
     </g>
     <g id="line2d_88">
      <g>
       <use xlink:href="#mfc0b7fb6b7" x="478.8" y="170.546726" style="stroke: #000000; stroke-width: 0.6"/>
      </g>
     </g>
    </g>
    <g id="ytick_23">
     <g id="line2d_89">
      <g>
       <use xlink:href="#m33c1a38e6e" x="49.506807" y="164.78025" style="stroke: #000000; stroke-width: 0.6"/>
      </g>
     </g>
     <g id="line2d_90">
      <g>
       <use xlink:href="#mfc0b7fb6b7" x="478.8" y="164.78025" style="stroke: #000000; stroke-width: 0.6"/>
      </g>
     </g>
    </g>
    <g id="ytick_24">
     <g id="line2d_91">
      <g>
       <use xlink:href="#m33c1a38e6e" x="49.506807" y="160.688869" style="stroke: #000000; stroke-width: 0.6"/>
      </g>
     </g>
     <g id="line2d_92">
      <g>
       <use xlink:href="#mfc0b7fb6b7" x="478.8" y="160.688869" style="stroke: #000000; stroke-width: 0.6"/>
      </g>
     </g>
    </g>
    <g id="ytick_25">
     <g id="line2d_93">
      <g>
       <use xlink:href="#m33c1a38e6e" x="49.506807" y="157.515348" style="stroke: #000000; stroke-width: 0.6"/>
      </g>
     </g>
     <g id="line2d_94">
      <g>
       <use xlink:href="#mfc0b7fb6b7" x="478.8" y="157.515348" style="stroke: #000000; stroke-width: 0.6"/>
      </g>
     </g>
    </g>
    <g id="ytick_26">
     <g id="line2d_95">
      <g>
       <use xlink:href="#m33c1a38e6e" x="49.506807" y="154.922393" style="stroke: #000000; stroke-width: 0.6"/>
      </g>
     </g>
     <g id="line2d_96">
      <g>
       <use xlink:href="#mfc0b7fb6b7" x="478.8" y="154.922393" style="stroke: #000000; stroke-width: 0.6"/>
      </g>
     </g>
    </g>
    <g id="ytick_27">
     <g id="line2d_97">
      <g>
       <use xlink:href="#m33c1a38e6e" x="49.506807" y="152.73008" style="stroke: #000000; stroke-width: 0.6"/>
      </g>
     </g>
     <g id="line2d_98">
      <g>
       <use xlink:href="#mfc0b7fb6b7" x="478.8" y="152.73008" style="stroke: #000000; stroke-width: 0.6"/>
      </g>
     </g>
    </g>
    <g id="ytick_28">
     <g id="line2d_99">
      <g>
       <use xlink:href="#m33c1a38e6e" x="49.506807" y="150.831012" style="stroke: #000000; stroke-width: 0.6"/>
      </g>
     </g>
     <g id="line2d_100">
      <g>
       <use xlink:href="#mfc0b7fb6b7" x="478.8" y="150.831012" style="stroke: #000000; stroke-width: 0.6"/>
      </g>
     </g>
    </g>
    <g id="ytick_29">
     <g id="line2d_101">
      <g>
       <use xlink:href="#m33c1a38e6e" x="49.506807" y="149.155916" style="stroke: #000000; stroke-width: 0.6"/>
      </g>
     </g>
     <g id="line2d_102">
      <g>
       <use xlink:href="#mfc0b7fb6b7" x="478.8" y="149.155916" style="stroke: #000000; stroke-width: 0.6"/>
      </g>
     </g>
    </g>
    <g id="ytick_30">
     <g id="line2d_103">
      <g>
       <use xlink:href="#m33c1a38e6e" x="49.506807" y="137.799634" style="stroke: #000000; stroke-width: 0.6"/>
      </g>
     </g>
     <g id="line2d_104">
      <g>
       <use xlink:href="#mfc0b7fb6b7" x="478.8" y="137.799634" style="stroke: #000000; stroke-width: 0.6"/>
      </g>
     </g>
    </g>
    <g id="ytick_31">
     <g id="line2d_105">
      <g>
       <use xlink:href="#m33c1a38e6e" x="49.506807" y="132.033157" style="stroke: #000000; stroke-width: 0.6"/>
      </g>
     </g>
     <g id="line2d_106">
      <g>
       <use xlink:href="#mfc0b7fb6b7" x="478.8" y="132.033157" style="stroke: #000000; stroke-width: 0.6"/>
      </g>
     </g>
    </g>
    <g id="ytick_32">
     <g id="line2d_107">
      <g>
       <use xlink:href="#m33c1a38e6e" x="49.506807" y="127.941777" style="stroke: #000000; stroke-width: 0.6"/>
      </g>
     </g>
     <g id="line2d_108">
      <g>
       <use xlink:href="#mfc0b7fb6b7" x="478.8" y="127.941777" style="stroke: #000000; stroke-width: 0.6"/>
      </g>
     </g>
    </g>
    <g id="ytick_33">
     <g id="line2d_109">
      <g>
       <use xlink:href="#m33c1a38e6e" x="49.506807" y="124.768256" style="stroke: #000000; stroke-width: 0.6"/>
      </g>
     </g>
     <g id="line2d_110">
      <g>
       <use xlink:href="#mfc0b7fb6b7" x="478.8" y="124.768256" style="stroke: #000000; stroke-width: 0.6"/>
      </g>
     </g>
    </g>
    <g id="ytick_34">
     <g id="line2d_111">
      <g>
       <use xlink:href="#m33c1a38e6e" x="49.506807" y="122.1753" style="stroke: #000000; stroke-width: 0.6"/>
      </g>
     </g>
     <g id="line2d_112">
      <g>
       <use xlink:href="#mfc0b7fb6b7" x="478.8" y="122.1753" style="stroke: #000000; stroke-width: 0.6"/>
      </g>
     </g>
    </g>
    <g id="ytick_35">
     <g id="line2d_113">
      <g>
       <use xlink:href="#m33c1a38e6e" x="49.506807" y="119.982988" style="stroke: #000000; stroke-width: 0.6"/>
      </g>
     </g>
     <g id="line2d_114">
      <g>
       <use xlink:href="#mfc0b7fb6b7" x="478.8" y="119.982988" style="stroke: #000000; stroke-width: 0.6"/>
      </g>
     </g>
    </g>
    <g id="ytick_36">
     <g id="line2d_115">
      <g>
       <use xlink:href="#m33c1a38e6e" x="49.506807" y="118.08392" style="stroke: #000000; stroke-width: 0.6"/>
      </g>
     </g>
     <g id="line2d_116">
      <g>
       <use xlink:href="#mfc0b7fb6b7" x="478.8" y="118.08392" style="stroke: #000000; stroke-width: 0.6"/>
      </g>
     </g>
    </g>
    <g id="ytick_37">
     <g id="line2d_117">
      <g>
       <use xlink:href="#m33c1a38e6e" x="49.506807" y="116.408824" style="stroke: #000000; stroke-width: 0.6"/>
      </g>
     </g>
     <g id="line2d_118">
      <g>
       <use xlink:href="#mfc0b7fb6b7" x="478.8" y="116.408824" style="stroke: #000000; stroke-width: 0.6"/>
      </g>
     </g>
    </g>
    <g id="ytick_38">
     <g id="line2d_119">
      <g>
       <use xlink:href="#m33c1a38e6e" x="49.506807" y="105.052542" style="stroke: #000000; stroke-width: 0.6"/>
      </g>
     </g>
     <g id="line2d_120">
      <g>
       <use xlink:href="#mfc0b7fb6b7" x="478.8" y="105.052542" style="stroke: #000000; stroke-width: 0.6"/>
      </g>
     </g>
    </g>
    <g id="ytick_39">
     <g id="line2d_121">
      <g>
       <use xlink:href="#m33c1a38e6e" x="49.506807" y="99.286065" style="stroke: #000000; stroke-width: 0.6"/>
      </g>
     </g>
     <g id="line2d_122">
      <g>
       <use xlink:href="#mfc0b7fb6b7" x="478.8" y="99.286065" style="stroke: #000000; stroke-width: 0.6"/>
      </g>
     </g>
    </g>
    <g id="ytick_40">
     <g id="line2d_123">
      <g>
       <use xlink:href="#m33c1a38e6e" x="49.506807" y="95.194685" style="stroke: #000000; stroke-width: 0.6"/>
      </g>
     </g>
     <g id="line2d_124">
      <g>
       <use xlink:href="#mfc0b7fb6b7" x="478.8" y="95.194685" style="stroke: #000000; stroke-width: 0.6"/>
      </g>
     </g>
    </g>
    <g id="ytick_41">
     <g id="line2d_125">
      <g>
       <use xlink:href="#m33c1a38e6e" x="49.506807" y="92.021164" style="stroke: #000000; stroke-width: 0.6"/>
      </g>
     </g>
     <g id="line2d_126">
      <g>
       <use xlink:href="#mfc0b7fb6b7" x="478.8" y="92.021164" style="stroke: #000000; stroke-width: 0.6"/>
      </g>
     </g>
    </g>
    <g id="ytick_42">
     <g id="line2d_127">
      <g>
       <use xlink:href="#m33c1a38e6e" x="49.506807" y="89.428208" style="stroke: #000000; stroke-width: 0.6"/>
      </g>
     </g>
     <g id="line2d_128">
      <g>
       <use xlink:href="#mfc0b7fb6b7" x="478.8" y="89.428208" style="stroke: #000000; stroke-width: 0.6"/>
      </g>
     </g>
    </g>
    <g id="ytick_43">
     <g id="line2d_129">
      <g>
       <use xlink:href="#m33c1a38e6e" x="49.506807" y="87.235896" style="stroke: #000000; stroke-width: 0.6"/>
      </g>
     </g>
     <g id="line2d_130">
      <g>
       <use xlink:href="#mfc0b7fb6b7" x="478.8" y="87.235896" style="stroke: #000000; stroke-width: 0.6"/>
      </g>
     </g>
    </g>
    <g id="ytick_44">
     <g id="line2d_131">
      <g>
       <use xlink:href="#m33c1a38e6e" x="49.506807" y="85.336828" style="stroke: #000000; stroke-width: 0.6"/>
      </g>
     </g>
     <g id="line2d_132">
      <g>
       <use xlink:href="#mfc0b7fb6b7" x="478.8" y="85.336828" style="stroke: #000000; stroke-width: 0.6"/>
      </g>
     </g>
    </g>
    <g id="ytick_45">
     <g id="line2d_133">
      <g>
       <use xlink:href="#m33c1a38e6e" x="49.506807" y="83.661732" style="stroke: #000000; stroke-width: 0.6"/>
      </g>
     </g>
     <g id="line2d_134">
      <g>
       <use xlink:href="#mfc0b7fb6b7" x="478.8" y="83.661732" style="stroke: #000000; stroke-width: 0.6"/>
      </g>
     </g>
    </g>
    <g id="ytick_46">
     <g id="line2d_135">
      <g>
       <use xlink:href="#m33c1a38e6e" x="49.506807" y="72.30545" style="stroke: #000000; stroke-width: 0.6"/>
      </g>
     </g>
     <g id="line2d_136">
      <g>
       <use xlink:href="#mfc0b7fb6b7" x="478.8" y="72.30545" style="stroke: #000000; stroke-width: 0.6"/>
      </g>
     </g>
    </g>
    <g id="ytick_47">
     <g id="line2d_137">
      <g>
       <use xlink:href="#m33c1a38e6e" x="49.506807" y="66.538973" style="stroke: #000000; stroke-width: 0.6"/>
      </g>
     </g>
     <g id="line2d_138">
      <g>
       <use xlink:href="#mfc0b7fb6b7" x="478.8" y="66.538973" style="stroke: #000000; stroke-width: 0.6"/>
      </g>
     </g>
    </g>
    <g id="ytick_48">
     <g id="line2d_139">
      <g>
       <use xlink:href="#m33c1a38e6e" x="49.506807" y="62.447593" style="stroke: #000000; stroke-width: 0.6"/>
      </g>
     </g>
     <g id="line2d_140">
      <g>
       <use xlink:href="#mfc0b7fb6b7" x="478.8" y="62.447593" style="stroke: #000000; stroke-width: 0.6"/>
      </g>
     </g>
    </g>
    <g id="ytick_49">
     <g id="line2d_141">
      <g>
       <use xlink:href="#m33c1a38e6e" x="49.506807" y="59.274072" style="stroke: #000000; stroke-width: 0.6"/>
      </g>
     </g>
     <g id="line2d_142">
      <g>
       <use xlink:href="#mfc0b7fb6b7" x="478.8" y="59.274072" style="stroke: #000000; stroke-width: 0.6"/>
      </g>
     </g>
    </g>
    <g id="ytick_50">
     <g id="line2d_143">
      <g>
       <use xlink:href="#m33c1a38e6e" x="49.506807" y="56.681116" style="stroke: #000000; stroke-width: 0.6"/>
      </g>
     </g>
     <g id="line2d_144">
      <g>
       <use xlink:href="#mfc0b7fb6b7" x="478.8" y="56.681116" style="stroke: #000000; stroke-width: 0.6"/>
      </g>
     </g>
    </g>
    <g id="ytick_51">
     <g id="line2d_145">
      <g>
       <use xlink:href="#m33c1a38e6e" x="49.506807" y="54.488803" style="stroke: #000000; stroke-width: 0.6"/>
      </g>
     </g>
     <g id="line2d_146">
      <g>
       <use xlink:href="#mfc0b7fb6b7" x="478.8" y="54.488803" style="stroke: #000000; stroke-width: 0.6"/>
      </g>
     </g>
    </g>
    <g id="ytick_52">
     <g id="line2d_147">
      <g>
       <use xlink:href="#m33c1a38e6e" x="49.506807" y="52.589736" style="stroke: #000000; stroke-width: 0.6"/>
      </g>
     </g>
     <g id="line2d_148">
      <g>
       <use xlink:href="#mfc0b7fb6b7" x="478.8" y="52.589736" style="stroke: #000000; stroke-width: 0.6"/>
      </g>
     </g>
    </g>
    <g id="ytick_53">
     <g id="line2d_149">
      <g>
       <use xlink:href="#m33c1a38e6e" x="49.506807" y="50.914639" style="stroke: #000000; stroke-width: 0.6"/>
      </g>
     </g>
     <g id="line2d_150">
      <g>
       <use xlink:href="#mfc0b7fb6b7" x="478.8" y="50.914639" style="stroke: #000000; stroke-width: 0.6"/>
      </g>
     </g>
    </g>
    <g id="ytick_54">
     <g id="line2d_151">
      <g>
       <use xlink:href="#m33c1a38e6e" x="49.506807" y="39.558358" style="stroke: #000000; stroke-width: 0.6"/>
      </g>
     </g>
     <g id="line2d_152">
      <g>
       <use xlink:href="#mfc0b7fb6b7" x="478.8" y="39.558358" style="stroke: #000000; stroke-width: 0.6"/>
      </g>
     </g>
    </g>
    <g id="ytick_55">
     <g id="line2d_153">
      <g>
       <use xlink:href="#m33c1a38e6e" x="49.506807" y="33.791881" style="stroke: #000000; stroke-width: 0.6"/>
      </g>
     </g>
     <g id="line2d_154">
      <g>
       <use xlink:href="#mfc0b7fb6b7" x="478.8" y="33.791881" style="stroke: #000000; stroke-width: 0.6"/>
      </g>
     </g>
    </g>
    <g id="ytick_56">
     <g id="line2d_155">
      <g>
       <use xlink:href="#m33c1a38e6e" x="49.506807" y="29.700501" style="stroke: #000000; stroke-width: 0.6"/>
      </g>
     </g>
     <g id="line2d_156">
      <g>
       <use xlink:href="#mfc0b7fb6b7" x="478.8" y="29.700501" style="stroke: #000000; stroke-width: 0.6"/>
      </g>
     </g>
    </g>
    <g id="ytick_57">
     <g id="line2d_157">
      <g>
       <use xlink:href="#m33c1a38e6e" x="49.506807" y="26.526979" style="stroke: #000000; stroke-width: 0.6"/>
      </g>
     </g>
     <g id="line2d_158">
      <g>
       <use xlink:href="#mfc0b7fb6b7" x="478.8" y="26.526979" style="stroke: #000000; stroke-width: 0.6"/>
      </g>
     </g>
    </g>
    <g id="ytick_58">
     <g id="line2d_159">
      <g>
       <use xlink:href="#m33c1a38e6e" x="49.506807" y="23.934024" style="stroke: #000000; stroke-width: 0.6"/>
      </g>
     </g>
     <g id="line2d_160">
      <g>
       <use xlink:href="#mfc0b7fb6b7" x="478.8" y="23.934024" style="stroke: #000000; stroke-width: 0.6"/>
      </g>
     </g>
    </g>
    <g id="ytick_59">
     <g id="line2d_161">
      <g>
       <use xlink:href="#m33c1a38e6e" x="49.506807" y="21.741711" style="stroke: #000000; stroke-width: 0.6"/>
      </g>
     </g>
     <g id="line2d_162">
      <g>
       <use xlink:href="#mfc0b7fb6b7" x="478.8" y="21.741711" style="stroke: #000000; stroke-width: 0.6"/>
      </g>
     </g>
    </g>
    <g id="ytick_60">
     <g id="line2d_163">
      <g>
       <use xlink:href="#m33c1a38e6e" x="49.506807" y="19.842644" style="stroke: #000000; stroke-width: 0.6"/>
      </g>
     </g>
     <g id="line2d_164">
      <g>
       <use xlink:href="#mfc0b7fb6b7" x="478.8" y="19.842644" style="stroke: #000000; stroke-width: 0.6"/>
      </g>
     </g>
    </g>
    <g id="ytick_61">
     <g id="line2d_165">
      <g>
       <use xlink:href="#m33c1a38e6e" x="49.506807" y="18.167547" style="stroke: #000000; stroke-width: 0.6"/>
      </g>
     </g>
     <g id="line2d_166">
      <g>
       <use xlink:href="#mfc0b7fb6b7" x="478.8" y="18.167547" style="stroke: #000000; stroke-width: 0.6"/>
      </g>
     </g>
    </g>
    <g id="text_12">
     <!-- $P(k)$ -->
     <g transform="translate(18.40797 133.444803) rotate(-90) scale(0.15 -0.15)">
      <defs>
       <path id="CMMI12-50" d="M 1894 2023 
L 2970 2023 
C 3853 2023 4736 2673 4736 3401 
C 4736 3898 4314 4352 3507 4352 
L 1530 4352 
C 1408 4352 1350 4352 1350 4231 
C 1350 4167 1408 4167 1504 4167 
C 1894 4167 1894 4116 1894 4046 
C 1894 4034 1894 3995 1869 3899 
L 1005 472 
C 947 249 934 185 486 185 
C 365 185 301 185 301 70 
C 301 0 358 0 397 0 
C 518 0 646 0 768 0 
L 1517 0 
C 1638 0 1773 0 1894 0 
C 1946 0 2016 0 2016 121 
C 2016 185 1958 185 1862 185 
C 1478 185 1472 230 1472 293 
C 1472 325 1478 369 1485 401 
L 1894 2023 
z
M 2355 3930 
C 2413 4167 2438 4167 2688 4167 
L 3322 4167 
C 3802 4167 4198 4013 4198 3535 
C 4198 3369 4115 2827 3821 2534 
C 3712 2419 3405 2176 2822 2176 
L 1920 2176 
L 2355 3930 
z
" transform="scale(0.015625)"/>
       <path id="CMR17-28" d="M 1958 -1561 
C 1958 -1555 1958 -1542 1939 -1523 
C 1645 -1224 858 -407 858 1581 
C 858 3569 1632 4379 1946 4697 
C 1946 4704 1958 4717 1958 4736 
C 1958 4755 1939 4768 1914 4768 
C 1843 4768 1299 4296 986 3594 
C 666 2887 576 2199 576 1588 
C 576 1128 621 351 1005 -471 
C 1312 -1135 1837 -1600 1914 -1600 
C 1946 -1600 1958 -1587 1958 -1561 
z
" transform="scale(0.015625)"/>
       <path id="CMR17-29" d="M 1683 1581 
C 1683 2040 1638 2817 1254 3639 
C 947 4303 422 4768 346 4768 
C 326 4768 301 4761 301 4729 
C 301 4717 307 4710 314 4697 
C 621 4378 1402 3568 1402 1584 
C 1402 -407 627 -1217 314 -1537 
C 307 -1549 301 -1556 301 -1568 
C 301 -1600 326 -1600 346 -1600 
C 416 -1600 960 -1128 1274 -426 
C 1594 281 1683 969 1683 1581 
z
" transform="scale(0.015625)"/>
      </defs>
      <use xlink:href="#CMMI12-50" transform="scale(0.996264)"/>
      <use xlink:href="#CMR17-28" transform="translate(76.425821 0) scale(0.996264)"/>
      <use xlink:href="#CMMI12-6b" transform="translate(111.706589 0) scale(0.996264)"/>
      <use xlink:href="#CMR17-29" transform="translate(165.785789 0) scale(0.996264)"/>
     </g>
    </g>
   </g>
   <g id="line2d_167">
    <path d="M 49.506807 7.2 
L 89.488955 22.639143 
L 115.824522 25.586198 
L 135.494817 36.908492 
L 151.201245 42.429774 
L 164.276511 50.965812 
L 175.476965 49.783496 
L 185.273442 53.450678 
L 193.979035 56.927403 
L 201.812533 57.259723 
L 208.932863 64.73839 
L 215.459114 64.327621 
L 221.482828 64.3959 
L 227.075897 62.384159 
L 232.295808 68.940443 
L 237.189255 73.656489 
L 241.794681 74.649807 
L 246.144115 72.206802 
L 250.264522 76.178567 
L 254.17882 79.381925 
L 257.906652 80.470975 
L 261.464976 85.616482 
L 264.868541 81.950904 
L 268.130249 85.25271 
L 271.261453 86.136943 
L 274.272196 90.413218 
L 277.171403 89.124405 
L 279.967046 91.143617 
L 282.666267 91.82535 
L 285.275497 93.42172 
L 287.800544 95.933689 
L 290.24667 95.733625 
L 294.920874 97.970621 
L 297.157302 100.422994 
L 299.331599 98.709946 
L 301.447124 103.474075 
L 303.506971 103.750645 
L 305.513995 106.272523 
L 307.470839 103.371983 
L 309.37995 108.223692 
L 311.243601 106.923471 
L 313.063908 106.560994 
L 314.84284 109.532689 
L 316.582238 109.537569 
L 318.283819 110.684934 
L 319.949194 111.523902 
L 321.579871 113.370575 
L 323.177266 111.745174 
L 324.742711 112.78803 
L 326.27746 114.823348 
L 327.782692 113.916066 
L 329.259522 116.464617 
L 330.709001 116.437233 
L 332.132125 117.693757 
L 333.529835 120.644494 
L 334.903022 120.815165 
L 336.252533 119.414004 
L 337.579169 120.973003 
L 338.883693 122.944555 
L 340.166831 123.863577 
L 341.429272 126.729878 
L 342.671674 125.523551 
L 343.894662 125.284612 
L 345.098835 126.142818 
L 346.284761 128.586939 
L 347.452987 127.998593 
L 348.604032 128.34718 
L 349.738395 130.544847 
L 350.856552 129.57544 
L 351.95896 133.872972 
L 353.046056 133.637099 
L 354.11826 132.996033 
L 355.175974 133.633422 
L 356.219585 133.912596 
L 357.249464 133.646295 
L 358.265967 135.699954 
L 361.23859 138.23887 
L 362.204894 138.409186 
L 363.159414 136.77196 
L 364.102434 140.553795 
L 365.034226 139.760863 
L 365.955056 141.056543 
L 366.865179 141.875099 
L 367.76484 143.257128 
L 368.654278 143.761825 
L 369.533721 143.746419 
L 370.403393 144.644031 
L 371.263508 143.164422 
L 372.114273 144.171483 
L 372.955891 145.551824 
L 373.788555 144.630742 
L 374.612453 147.373855 
L 375.42777 146.605656 
L 376.234681 147.077051 
L 377.033358 148.294247 
L 377.823967 147.666661 
L 379.381624 150.212814 
L 380.148979 151.911326 
L 380.908885 152.235583 
L 381.661484 153.650577 
L 382.406915 152.204947 
L 383.145313 152.835685 
L 383.87681 153.954228 
L 384.601535 153.626636 
L 386.031157 157.579273 
L 387.435135 158.252344 
L 388.127791 158.805131 
L 388.814372 158.578689 
L 389.494982 159.107666 
L 390.169724 158.551068 
L 390.8387 159.582716 
L 391.502006 158.958179 
L 392.159738 159.947006 
L 392.811989 160.122925 
L 394.100408 163.010396 
L 394.73675 164.476695 
L 395.36796 162.250042 
L 396.615312 166.152064 
L 397.231612 164.844886 
L 397.843097 164.319292 
L 398.449841 166.791474 
L 399.051918 166.708026 
L 399.6494 168.063335 
L 400.242355 168.14086 
L 400.830851 168.654277 
L 401.994734 169.165029 
L 402.570248 170.178526 
L 403.141562 169.016961 
L 403.708736 169.475485 
L 404.27183 172.592591 
L 404.830901 171.913569 
L 405.937204 172.942775 
L 407.028088 173.158244 
L 407.567881 174.026936 
L 408.103977 173.785829 
L 408.636426 173.71512 
L 409.165277 174.639638 
L 409.690579 175.794334 
L 410.212378 175.710588 
L 410.730722 177.170702 
L 411.245656 176.069232 
L 411.757224 178.458878 
L 412.265471 176.616207 
L 413.272168 179.260228 
L 413.770703 178.776004 
L 414.266082 179.104057 
L 414.758346 181.309146 
L 415.247533 179.608212 
L 415.733681 180.304138 
L 416.216829 180.438635 
L 416.697012 182.88896 
L 417.174268 182.210783 
L 417.648631 180.882848 
L 418.120136 182.222637 
L 418.588818 182.389174 
L 419.05471 183.764068 
L 419.517846 184.394819 
L 420.435976 184.932398 
L 420.891033 183.656692 
L 421.34346 185.5958 
L 421.793287 185.791657 
L 422.685258 187.527785 
L 423.127461 186.560496 
L 423.567179 187.79613 
L 424.004441 187.934155 
L 424.439274 188.734181 
L 424.871704 188.124519 
L 425.301758 189.613108 
L 425.729462 189.159245 
L 426.577922 190.588884 
L 426.998728 191.047893 
L 427.417283 192.381324 
L 427.833612 192.408865 
L 428.247738 192.98741 
L 428.659685 192.629439 
L 429.069475 193.033378 
L 429.47713 192.139984 
L 429.882673 192.59474 
L 430.286126 193.719857 
L 430.68751 194.243183 
L 431.086846 194.310497 
L 431.484154 196.185353 
L 431.879456 196.671576 
L 432.272772 196.825007 
L 432.664121 196.258499 
L 433.053523 197.401962 
L 433.440998 196.643922 
L 433.826563 198.050998 
L 434.210239 197.600996 
L 434.592043 197.982468 
L 434.971993 197.569 
L 435.350108 198.988445 
L 435.726406 198.562205 
L 436.100902 199.148164 
L 436.473616 200.210242 
L 436.844563 200.520969 
L 437.21376 199.604661 
L 437.581224 199.631324 
L 437.94697 201.066478 
L 438.311016 201.19367 
L 438.673376 202.162623 
L 439.034067 201.802778 
L 439.393102 202.196457 
L 439.750499 201.328467 
L 440.10627 202.492235 
L 440.460432 202.809638 
L 440.812999 203.752881 
L 441.163985 202.637014 
L 441.513403 204.52842 
L 441.861269 204.132905 
L 442.207596 204.013758 
L 442.552396 205.284851 
L 442.895685 205.129096 
L 443.237474 205.528621 
L 443.577778 205.325417 
L 443.916608 206.305062 
L 444.253978 206.560214 
L 444.5899 204.742233 
L 444.924386 206.09451 
L 445.257449 206.239943 
L 445.5891 208.099536 
L 446.248217 209.015068 
L 446.575706 208.954688 
L 446.90183 209.07546 
L 447.226601 208.619578 
L 447.550029 210.00705 
L 447.872127 209.334946 
L 448.192905 209.798983 
L 448.512373 211.215694 
L 448.830543 209.725829 
L 449.147425 210.595002 
L 449.463029 210.551041 
L 449.777365 209.842394 
L 450.402276 212.427152 
L 450.71287 210.571252 
L 451.022237 211.338983 
L 451.330386 212.493037 
L 451.637326 213.100012 
L 451.943067 212.980204 
L 452.247619 213.044041 
L 452.55099 213.727295 
L 452.85319 213.215792 
L 453.454111 213.834379 
L 453.752851 215.145558 
L 454.050454 214.811874 
L 454.346931 215.299968 
L 454.642288 216.1988 
L 454.936536 215.69427 
L 455.229681 215.431135 
L 455.521732 215.668972 
L 455.812698 215.425194 
L 456.102586 217.461349 
L 456.391404 217.243057 
L 456.67916 216.608977 
L 456.965863 216.49994 
L 457.536136 217.223322 
L 457.819722 218.624774 
L 458.102284 218.519194 
L 458.38383 218.731256 
L 458.943902 218.664364 
L 459.222442 219.564118 
L 459.499994 218.556681 
L 460.052163 218.770544 
L 460.326794 218.251302 
L 460.600464 219.435806 
L 460.873181 219.401366 
L 461.144951 219.098434 
L 461.415781 219.289873 
L 461.685676 218.936426 
L 461.954644 219.75076 
L 462.222691 219.7346 
L 462.489824 221.766894 
L 462.756047 220.687536 
L 463.285793 220.998796 
L 463.549328 220.842067 
L 463.811978 221.788584 
L 464.073749 221.329763 
L 464.334648 221.81279 
L 464.594681 221.8736 
L 464.853852 221.605847 
L 465.112168 222.023593 
L 465.626256 222.17858 
L 465.88204 223.259375 
L 466.391113 223.464835 
L 466.896896 222.635808 
L 467.148567 223.230439 
L 467.399431 224.94303 
L 467.649494 224.054857 
L 467.898761 223.885137 
L 468.394925 224.325297 
L 468.641833 223.688446 
L 468.887964 224.599935 
L 469.133324 224.057129 
L 469.377917 226.25229 
L 469.621748 225.184316 
L 469.864821 226.065657 
L 470.107142 226.269639 
L 470.348716 226.28284 
L 470.589546 225.388567 
L 470.829637 226.43294 
L 471.068994 225.637248 
L 471.307621 224.402696 
L 471.545523 226.241221 
L 471.782704 226.217487 
L 472.019168 226.68989 
L 472.25492 225.323511 
L 472.489964 225.957755 
L 472.724305 227.145293 
L 472.957946 225.01033 
L 473.190891 226.905436 
L 473.423146 226.758277 
L 473.654713 226.986393 
L 473.885597 227.930475 
L 474.345332 226.74947 
L 474.574191 227.635811 
L 474.802383 226.852762 
L 475.029911 227.739206 
L 475.482993 227.719 
L 475.708554 227.81257 
L 475.933467 226.42572 
L 476.157735 228.534801 
L 476.381363 227.798371 
L 476.604354 228.70739 
L 476.826711 228.458042 
L 477.048438 227.644027 
L 477.269539 228.733061 
L 477.490017 227.418342 
L 478.147749 228.243958 
L 478.365771 227.565989 
L 478.583186 228.033973 
L 478.8 227.858668 
L 478.8 227.858668 
" clip-path="url(#p83ea81ceaf)" style="fill: none; stroke: #0000ff; stroke-width: 2.5; stroke-linecap: square"/>
   </g>
   <g id="line2d_168">
    <path d="M 49.506807 12.410155 
L 89.488955 20.94896 
L 115.824522 41.739809 
L 135.494817 44.80657 
L 151.201245 57.525707 
L 164.276511 53.362341 
L 175.476965 63.43484 
L 185.273442 65.503096 
L 193.979035 65.098159 
L 201.812533 71.471472 
L 208.932863 72.950067 
L 215.459114 74.120149 
L 221.482828 75.525556 
L 227.075897 78.584626 
L 232.295808 77.171821 
L 237.189255 79.710502 
L 241.794681 84.447392 
L 246.144115 82.06785 
L 250.264522 83.229976 
L 254.17882 86.822456 
L 257.906652 88.908578 
L 261.464976 90.672686 
L 264.868541 88.967383 
L 268.130249 92.909481 
L 271.261453 91.438755 
L 274.272196 92.595116 
L 277.171403 95.095025 
L 279.967046 94.525873 
L 282.666267 98.403451 
L 285.275497 97.448673 
L 287.800544 96.061356 
L 290.24667 96.819122 
L 292.618659 98.316351 
L 294.920874 100.66576 
L 297.157302 102.535103 
L 299.331599 103.525399 
L 301.447124 103.689281 
L 303.506971 104.301173 
L 305.513995 105.415577 
L 307.470839 103.621605 
L 309.37995 106.247083 
L 311.243601 105.965709 
L 313.063908 108.034162 
L 314.84284 111.116621 
L 316.582238 108.569476 
L 318.283819 108.079007 
L 319.949194 112.049023 
L 321.579871 113.094557 
L 323.177266 112.758439 
L 326.27746 115.115296 
L 327.782692 116.887063 
L 329.259522 117.771832 
L 330.709001 117.20018 
L 332.132125 117.361344 
L 333.529835 117.157107 
L 334.903022 117.860326 
L 336.252533 118.00409 
L 337.579169 120.799945 
L 338.883693 121.01689 
L 340.166831 122.50103 
L 341.429272 122.966968 
L 342.671674 122.096333 
L 343.894662 123.771899 
L 345.098835 123.097937 
L 346.284761 124.697857 
L 347.452987 124.327097 
L 348.604032 125.327444 
L 349.738395 125.475533 
L 351.95896 126.155056 
L 353.046056 127.675392 
L 354.11826 125.977116 
L 355.175974 129.613527 
L 356.219585 130.060386 
L 358.265967 131.679237 
L 359.269438 131.255946 
L 360.260206 131.567309 
L 361.23859 131.018399 
L 362.204894 132.816484 
L 363.159414 133.861461 
L 364.102434 132.310676 
L 365.034226 133.645546 
L 365.955056 133.465756 
L 366.865179 134.852154 
L 367.76484 134.432866 
L 368.654278 135.464963 
L 369.533721 134.555365 
L 370.403393 136.059926 
L 371.263508 137.242185 
L 372.114273 137.310237 
L 372.955891 139.17394 
L 373.788555 137.117555 
L 374.612453 137.524018 
L 375.42777 140.053914 
L 376.234681 138.383219 
L 377.033358 140.523508 
L 377.823967 140.835935 
L 378.60667 141.35655 
L 379.381624 142.512826 
L 380.148979 143.04349 
L 380.908885 141.032046 
L 381.661484 143.759669 
L 382.406915 141.799154 
L 383.145313 143.869866 
L 383.87681 145.121252 
L 384.601535 145.662391 
L 385.31961 144.210134 
L 386.031157 145.717651 
L 386.736294 147.746279 
L 387.435135 148.425524 
L 388.127791 146.59183 
L 388.814372 148.031647 
L 389.494982 148.141531 
L 390.169724 148.596812 
L 390.8387 149.250305 
L 391.502006 148.322387 
L 392.159738 148.5336 
L 392.811989 150.506447 
L 393.45885 150.55853 
L 394.100408 150.890898 
L 394.73675 150.706492 
L 395.36796 151.75326 
L 396.615312 152.485335 
L 397.231612 152.339434 
L 397.843097 154.238436 
L 398.449841 152.506862 
L 399.051918 153.338971 
L 399.6494 151.884567 
L 400.242355 152.587136 
L 400.830851 155.447268 
L 401.414956 154.666656 
L 403.141562 155.252964 
L 403.708736 156.096307 
L 404.27183 156.397936 
L 404.830901 159.652709 
L 406.484547 157.963609 
L 407.028088 160.22343 
L 407.567881 158.215221 
L 408.636426 159.659586 
L 409.165277 159.972382 
L 409.690579 160.550765 
L 410.212378 159.95512 
L 410.730722 160.936708 
L 411.245656 160.982927 
L 411.757224 161.800199 
L 412.265471 162.895346 
L 412.770438 162.719264 
L 414.266082 163.522265 
L 414.758346 164.401552 
L 415.247533 163.732854 
L 415.733681 163.986764 
L 416.216829 165.168789 
L 416.697012 162.91831 
L 417.174268 164.425575 
L 417.648631 164.874825 
L 418.120136 167.304866 
L 418.588818 166.781263 
L 419.05471 165.83363 
L 419.517846 166.587306 
L 419.978257 166.63547 
L 420.435976 167.30123 
L 420.891033 166.762129 
L 421.34346 168.157086 
L 421.793287 169.946419 
L 422.240543 167.059056 
L 422.685258 169.971819 
L 423.127461 169.505704 
L 423.567179 168.686873 
L 424.004441 169.318855 
L 424.439274 168.861705 
L 424.871704 169.147767 
L 425.301758 168.188771 
L 426.154842 172.390629 
L 426.577922 170.21884 
L 426.998728 172.753739 
L 427.417283 170.734147 
L 427.833612 172.34542 
L 428.247738 172.03577 
L 428.659685 171.875591 
L 429.069475 173.029305 
L 429.47713 173.753644 
L 429.882673 173.775065 
L 430.286126 174.057469 
L 430.68751 174.506197 
L 431.086846 173.971553 
L 431.484154 174.267666 
L 431.879456 174.226902 
L 432.272772 175.46419 
L 433.053523 175.195932 
L 433.440998 175.319462 
L 433.826563 176.544824 
L 434.210239 176.251493 
L 434.592043 176.934869 
L 434.971993 177.847425 
L 435.726406 176.406904 
L 436.100902 177.903985 
L 436.473616 177.758174 
L 436.844563 178.353832 
L 437.21376 177.845223 
L 437.581224 178.591713 
L 437.94697 178.007243 
L 438.311016 179.875542 
L 438.673376 179.633437 
L 439.034067 180.926472 
L 439.393102 179.612255 
L 439.750499 180.327943 
L 440.10627 179.93402 
L 441.163985 181.289583 
L 441.513403 181.398231 
L 441.861269 181.959699 
L 442.207596 182.787267 
L 442.552396 181.473633 
L 442.895685 181.574208 
L 443.237474 182.318357 
L 443.577778 181.878158 
L 443.916608 182.455328 
L 444.253978 183.457382 
L 444.5899 183.914888 
L 444.924386 182.989056 
L 445.257449 183.554347 
L 445.5891 182.936939 
L 446.575706 184.556925 
L 446.90183 184.724336 
L 447.226601 184.256917 
L 447.550029 185.810637 
L 447.872127 185.29742 
L 448.192905 184.141617 
L 448.512373 185.06454 
L 448.830543 185.335491 
L 449.147425 185.403253 
L 449.463029 186.955346 
L 449.777365 185.89608 
L 450.090444 186.840097 
L 450.402276 186.656415 
L 450.71287 186.74498 
L 451.022237 187.393602 
L 451.330386 186.281227 
L 451.637326 187.759605 
L 452.247619 188.651555 
L 452.55099 188.010387 
L 452.85319 187.877055 
L 453.154227 188.076127 
L 453.454111 189.182576 
L 453.752851 188.266632 
L 454.050454 188.1773 
L 454.346931 190.479767 
L 454.642288 188.831428 
L 454.936536 189.489099 
L 455.229681 189.532982 
L 455.521732 190.488105 
L 455.812698 190.458419 
L 456.102586 190.672051 
L 456.391404 190.701721 
L 456.965863 191.083777 
L 457.251519 190.658286 
L 457.536136 191.555058 
L 457.819722 191.124144 
L 458.102284 192.877138 
L 458.38383 192.434712 
L 458.664367 193.191017 
L 458.943902 191.94136 
L 459.222442 192.914141 
L 459.499994 193.206116 
L 459.776565 193.297935 
L 460.052163 192.541446 
L 460.326794 193.368554 
L 460.600464 193.117192 
L 460.873181 193.04319 
L 461.144951 193.996716 
L 461.415781 194.258565 
L 461.685676 194.685039 
L 461.954644 194.043325 
L 462.222691 194.268098 
L 462.489824 193.871859 
L 463.021368 195.133648 
L 463.285793 194.344159 
L 463.549328 195.649337 
L 463.811978 195.397412 
L 464.073749 194.582197 
L 464.334648 194.510143 
L 464.853852 196.411259 
L 465.112168 195.603987 
L 465.369634 196.892171 
L 465.626256 196.218524 
L 465.88204 196.022802 
L 466.644413 196.526327 
L 466.896896 196.515014 
L 467.399431 196.882185 
L 467.649494 196.745306 
L 467.898761 196.873753 
L 468.394925 198.037038 
L 468.887964 196.983898 
L 469.133324 197.458967 
L 469.377917 199.011151 
L 469.621748 198.139121 
L 470.107142 198.066859 
L 470.348716 198.186556 
L 470.589546 197.693939 
L 470.829637 198.767022 
L 471.068994 198.313461 
L 471.307621 198.634983 
L 471.545523 197.649091 
L 471.782704 199.028931 
L 472.019168 198.994028 
L 472.25492 199.156264 
L 472.489964 198.91533 
L 472.724305 199.803522 
L 472.957946 199.640296 
L 473.190891 199.980743 
L 473.654713 199.655352 
L 473.885597 200.359956 
L 474.115802 200.265818 
L 474.345332 199.280521 
L 474.574191 200.618345 
L 474.802383 200.63261 
L 475.029911 201.285772 
L 475.25678 199.957291 
L 475.482993 200.725167 
L 475.708554 200.358853 
L 475.933467 201.039717 
L 476.157735 200.76782 
L 476.381363 201.342281 
L 476.604354 200.980438 
L 476.826711 201.791696 
L 477.048438 200.828551 
L 477.490017 201.210665 
L 477.709876 201.959927 
L 477.929119 202.197502 
L 478.365771 201.484439 
L 478.583186 202.242589 
L 478.8 202.241173 
L 478.8 202.241173 
" clip-path="url(#p83ea81ceaf)" style="fill: none; stroke: #ff0000; stroke-width: 2.5; stroke-linecap: square"/>
   </g>
   <g id="line2d_169">
    <path d="M 49.506807 18.557457 
L 89.488955 23.419654 
L 115.824522 33.77515 
L 135.494817 43.274905 
L 151.201245 46.14716 
L 164.276511 55.457674 
L 175.476965 54.485448 
L 185.273442 58.545971 
L 193.979035 65.439824 
L 201.812533 65.492397 
L 208.932863 66.673557 
L 215.459114 66.967816 
L 221.482828 73.285393 
L 227.075897 74.986107 
L 232.295808 80.33699 
L 237.189255 79.286422 
L 241.794681 79.132441 
L 246.144115 83.936555 
L 250.264522 87.156398 
L 254.17882 82.572282 
L 257.906652 83.186452 
L 261.464976 85.385678 
L 264.868541 89.948398 
L 268.130249 91.385328 
L 271.261453 91.062638 
L 274.272196 92.079144 
L 277.171403 92.866641 
L 279.967046 91.851681 
L 282.666267 95.338605 
L 285.275497 95.822561 
L 287.800544 98.657958 
L 290.24667 97.160313 
L 292.618659 97.594632 
L 294.920874 98.806187 
L 297.157302 102.833335 
L 299.331599 98.247151 
L 301.447124 102.677897 
L 303.506971 101.568204 
L 305.513995 104.500525 
L 307.470839 105.945487 
L 309.37995 105.1953 
L 313.063908 106.307514 
L 314.84284 110.238619 
L 316.582238 110.887773 
L 318.283819 110.671363 
L 319.949194 111.57635 
L 321.579871 109.605954 
L 323.177266 112.705984 
L 324.742711 110.35887 
L 326.27746 114.390441 
L 327.782692 113.622329 
L 329.259522 114.25784 
L 330.709001 115.907117 
L 332.132125 116.603445 
L 333.529835 118.786899 
L 334.903022 117.967884 
L 336.252533 119.30626 
L 337.579169 118.497278 
L 338.883693 118.018503 
L 340.166831 121.248615 
L 341.429272 120.900837 
L 342.671674 120.735562 
L 343.894662 122.370116 
L 345.098835 121.682155 
L 346.284761 123.171398 
L 347.452987 124.133147 
L 348.604032 124.350966 
L 349.738395 126.355622 
L 350.856552 126.941724 
L 351.95896 124.566294 
L 353.046056 127.113948 
L 354.11826 127.067361 
L 355.175974 128.928494 
L 356.219585 128.19723 
L 357.249464 127.990781 
L 358.265967 132.071462 
L 359.269438 129.196095 
L 360.260206 131.655139 
L 361.23859 131.142119 
L 362.204894 132.544006 
L 363.159414 132.837941 
L 364.102434 133.011946 
L 365.034226 135.10933 
L 365.955056 134.097231 
L 366.865179 136.116994 
L 368.654278 138.406848 
L 369.533721 136.055773 
L 370.403393 136.434649 
L 371.263508 137.242041 
L 372.114273 139.087699 
L 372.955891 139.641128 
L 373.788555 137.385977 
L 374.612453 139.316008 
L 375.42777 140.740817 
L 376.234681 139.347462 
L 377.033358 140.107025 
L 377.823967 141.254893 
L 378.60667 141.53591 
L 379.381624 143.15842 
L 380.148979 143.85021 
L 380.908885 143.880453 
L 381.661484 145.022142 
L 382.406915 145.720378 
L 383.145313 143.759953 
L 383.87681 146.788329 
L 384.601535 145.054986 
L 385.31961 146.824009 
L 386.031157 146.194859 
L 387.435135 147.190149 
L 388.127791 147.089087 
L 388.814372 150.67383 
L 389.494982 149.180873 
L 390.8387 151.039544 
L 391.502006 151.727669 
L 392.159738 152.069433 
L 392.811989 152.790259 
L 393.45885 152.372126 
L 394.100408 152.156025 
L 394.73675 152.304181 
L 395.994121 154.052885 
L 396.615312 154.382555 
L 397.231612 155.114556 
L 398.449841 157.379079 
L 399.051918 155.704753 
L 399.6494 156.41899 
L 400.242355 156.535264 
L 400.830851 158.235924 
L 401.414956 158.035841 
L 401.994734 161.009069 
L 402.570248 160.462758 
L 403.141562 161.068548 
L 403.708736 160.31692 
L 404.27183 161.100212 
L 404.830901 160.029269 
L 405.386007 161.230289 
L 405.937204 161.176908 
L 406.484547 162.486898 
L 407.028088 161.371306 
L 407.567881 162.640372 
L 408.103977 163.115713 
L 408.636426 163.408679 
L 409.165277 164.613493 
L 409.690579 165.312175 
L 410.212378 165.647245 
L 410.730722 163.984452 
L 411.245656 164.566692 
L 411.757224 166.41857 
L 412.265471 166.482365 
L 412.770438 165.657951 
L 413.272168 167.647912 
L 413.770703 168.512355 
L 414.266082 168.071449 
L 414.758346 168.834372 
L 415.247533 168.535072 
L 415.733681 170.133006 
L 416.216829 169.881554 
L 416.697012 169.132679 
L 417.174268 170.290576 
L 417.648631 170.653842 
L 418.120136 170.566517 
L 419.05471 172.816206 
L 419.517846 172.541977 
L 419.978257 174.026984 
L 420.435976 173.486419 
L 420.891033 173.341149 
L 421.34346 172.969837 
L 422.240543 174.236134 
L 422.685258 175.450938 
L 423.127461 174.681324 
L 423.567179 176.005583 
L 424.004441 175.655968 
L 424.439274 176.649143 
L 424.871704 176.180636 
L 425.301758 176.947673 
L 425.729462 176.494559 
L 426.154842 178.23281 
L 426.577922 177.55975 
L 426.998728 178.568458 
L 427.417283 177.967272 
L 427.833612 179.742548 
L 428.247738 180.72289 
L 428.659685 177.712761 
L 429.069475 180.047552 
L 429.47713 180.398855 
L 429.882673 179.678176 
L 430.68751 180.510332 
L 431.086846 181.460213 
L 431.484154 181.210421 
L 432.272772 182.851798 
L 432.664121 182.141286 
L 433.053523 181.032341 
L 433.440998 183.881584 
L 434.210239 183.002604 
L 434.971993 185.37001 
L 435.350108 184.697645 
L 435.726406 184.769463 
L 436.100902 185.160029 
L 436.473616 186.047562 
L 436.844563 185.923275 
L 437.21376 186.402158 
L 437.581224 187.135199 
L 437.94697 186.309006 
L 438.311016 187.053146 
L 438.673376 187.411748 
L 439.034067 186.828206 
L 439.393102 186.489806 
L 439.750499 187.955505 
L 440.460432 188.92311 
L 440.812999 188.424671 
L 441.163985 189.220582 
L 441.513403 189.15486 
L 441.861269 189.357833 
L 442.207596 191.327307 
L 442.552396 190.818226 
L 442.895685 190.903031 
L 443.237474 191.26627 
L 443.577778 190.81471 
L 443.916608 190.908284 
L 444.253978 192.11366 
L 444.5899 191.749646 
L 445.257449 193.201016 
L 445.5891 192.185736 
L 446.248217 193.707265 
L 446.575706 193.793986 
L 446.90183 194.202517 
L 447.226601 193.387002 
L 448.192905 195.031254 
L 448.512373 195.468079 
L 448.830543 195.253109 
L 449.463029 196.846442 
L 449.777365 196.490735 
L 450.090444 196.942922 
L 450.402276 198.461096 
L 450.71287 196.928636 
L 451.022237 197.393813 
L 451.330386 198.587121 
L 451.637326 198.241494 
L 451.943067 197.368507 
L 452.247619 198.481896 
L 452.55099 197.943102 
L 453.154227 199.711022 
L 453.454111 198.432148 
L 453.752851 199.975935 
L 454.050454 200.784006 
L 454.346931 200.044478 
L 454.936536 202.358565 
L 455.229681 201.14387 
L 455.521732 202.054056 
L 455.812698 201.718669 
L 456.102586 202.478585 
L 456.391404 202.85082 
L 456.67916 201.937171 
L 456.965863 202.17442 
L 457.251519 203.758941 
L 457.536136 202.663529 
L 457.819722 204.107327 
L 458.102284 204.167639 
L 458.664367 203.112143 
L 458.943902 204.385357 
L 459.222442 204.5426 
L 459.499994 203.664462 
L 459.776565 205.196195 
L 460.052163 205.373809 
L 460.326794 204.103188 
L 460.873181 205.648767 
L 461.144951 205.437076 
L 461.415781 206.042977 
L 461.685676 206.364084 
L 461.954644 206.26705 
L 462.222691 207.522236 
L 462.489824 206.699254 
L 462.756047 206.857091 
L 463.021368 208.485899 
L 463.285793 206.929977 
L 464.073749 208.34116 
L 464.334648 208.199675 
L 464.594681 207.504605 
L 464.853852 209.165369 
L 465.369634 208.453758 
L 465.626256 209.612471 
L 465.88204 208.432279 
L 466.13699 209.307314 
L 466.391113 209.04803 
L 466.644413 209.962854 
L 466.896896 208.909528 
L 467.148567 209.320247 
L 467.399431 210.305116 
L 467.649494 210.073238 
L 467.898761 210.338649 
L 468.147236 210.183115 
L 468.394925 210.604102 
L 468.641833 209.715402 
L 469.133324 211.002394 
L 469.377917 211.246458 
L 469.864821 210.080723 
L 470.107142 210.866487 
L 470.348716 210.481806 
L 471.068994 211.495459 
L 471.307621 212.199142 
L 471.545523 211.195283 
L 472.019168 212.564921 
L 472.25492 211.995599 
L 472.489964 212.443875 
L 472.724305 211.868082 
L 472.957946 212.472168 
L 473.423146 212.672547 
L 473.654713 213.053645 
L 473.885597 213.64759 
L 474.115802 213.298337 
L 474.345332 213.16128 
L 474.802383 214.785106 
L 475.029911 214.188473 
L 475.25678 214.308359 
L 475.482993 214.775648 
L 475.708554 214.416478 
L 475.933467 215.191491 
L 476.157735 214.182058 
L 476.381363 215.10082 
L 476.826711 214.663164 
L 477.490017 215.928216 
L 477.709876 215.629422 
L 477.929119 215.649078 
L 478.147749 215.003618 
L 478.365771 215.767389 
L 478.583186 215.619963 
L 478.8 216.094488 
L 478.8 216.094488 
" clip-path="url(#p83ea81ceaf)" style="fill: none; stroke: #008000; stroke-width: 2.5; stroke-linecap: square"/>
   </g>
   <g id="line2d_170">
    <path d="M 159.044579 -1 
L 478.8 212.035976 
L 478.8 212.035976 
" clip-path="url(#p83ea81ceaf)" style="fill: none; stroke-dasharray: 14.8,6.4; stroke-dashoffset: 0; stroke: #000000; stroke-width: 4"/>
   </g>
   <g id="patch_3">
    <path d="M 49.506807 228.733061 
L 49.506807 7.2 
" style="fill: none; stroke: #000000; stroke-linejoin: miter; stroke-linecap: square"/>
   </g>
   <g id="patch_4">
    <path d="M 478.8 228.733061 
L 478.8 7.2 
" style="fill: none; stroke: #000000; stroke-linejoin: miter; stroke-linecap: square"/>
   </g>
   <g id="patch_5">
    <path d="M 49.506807 228.733061 
L 478.8 228.733061 
" style="fill: none; stroke: #000000; stroke-linejoin: miter; stroke-linecap: square"/>
   </g>
   <g id="patch_6">
    <path d="M 49.506807 7.2 
L 478.8 7.2 
" style="fill: none; stroke: #000000; stroke-linejoin: miter; stroke-linecap: square"/>
   </g>
   <g id="legend_1">
    <g id="line2d_171">
     <path d="M 63.006807 144.360082 
L 78.006807 144.360082 
L 93.006807 144.360082 
" style="fill: none; stroke: #0000ff; stroke-width: 2.5; stroke-linecap: square"/>
    </g>
    <g id="text_13">
     <!-- $M_s=1, M_A=0.8$ -->
     <g transform="translate(105.006807 149.610082) scale(0.15 -0.15)">
      <defs>
       <path id="CMMI12-4d" d="M 5811 3886 
C 5869 4103 5882 4167 6336 4167 
C 6458 4167 6515 4167 6515 4288 
C 6515 4352 6470 4352 6349 4352 
L 5581 4352 
C 5421 4352 5414 4346 5344 4243 
L 3008 562 
L 2528 4211 
C 2509 4352 2502 4352 2336 4352 
L 1542 4352 
C 1421 4352 1363 4352 1363 4231 
C 1363 4167 1421 4167 1517 4167 
C 1907 4167 1907 4116 1907 4046 
C 1907 4034 1907 3995 1882 3899 
L 1062 634 
C 986 327 838 186 410 186 
C 390 186 314 186 314 73 
C 314 0 371 0 397 0 
C 525 0 851 0 979 0 
L 1286 0 
C 1376 0 1485 0 1574 0 
C 1619 0 1690 0 1690 122 
C 1690 180 1626 186 1600 186 
C 1389 186 1184 224 1184 454 
C 1184 518 1184 524 1210 613 
L 2093 4129 
L 2099 4129 
L 2630 172 
C 2650 19 2656 0 2714 0 
C 2784 0 2816 51 2848 109 
L 5421 4161 
L 5427 4161 
L 4499 473 
C 4442 250 4429 186 3981 186 
C 3859 186 3795 186 3795 70 
C 3795 0 3853 0 3891 0 
C 4000 0 4128 0 4237 0 
L 4992 0 
C 5101 0 5235 0 5344 0 
C 5395 0 5466 0 5466 122 
C 5466 186 5408 186 5312 186 
C 4922 186 4922 234 4922 294 
C 4922 301 4922 345 4934 396 
L 5811 3886 
z
" transform="scale(0.015625)"/>
       <path id="CMMI12-73" d="M 1459 1280 
C 1568 1261 1741 1223 1779 1216 
C 1862 1192 2150 1090 2150 783 
C 2150 586 1971 70 1229 70 
C 1094 70 614 70 486 436 
C 742 404 870 603 870 745 
C 870 880 781 950 653 950 
C 512 950 326 841 326 552 
C 326 173 710 -64 1222 -64 
C 2195 -64 2483 651 2483 984 
C 2483 1079 2483 1258 2278 1462 
C 2118 1616 1965 1648 1619 1718 
C 1446 1756 1171 1814 1171 2101 
C 1171 2229 1286 2689 1894 2689 
C 2163 2689 2426 2589 2490 2368 
C 2208 2368 2195 2125 2195 2119 
C 2195 1984 2317 1946 2374 1946 
C 2464 1946 2643 2015 2643 2281 
C 2643 2545 2400 2816 1901 2816 
C 1062 2816 838 2160 838 1899 
C 838 1414 1312 1312 1459 1280 
z
" transform="scale(0.015625)"/>
       <path id="CMR17-3d" d="M 4115 2017 
C 4211 2017 4307 2017 4307 2125 
C 4307 2240 4198 2240 4090 2240 
L 512 2240 
C 403 2240 294 2240 294 2125 
C 294 2017 390 2017 486 2017 
L 4115 2017 
z
M 4090 896 
C 4198 896 4307 896 4307 1011 
C 4307 1119 4211 1119 4115 1119 
L 486 1119 
C 390 1119 294 1119 294 1011 
C 294 896 403 896 512 896 
L 4090 896 
z
" transform="scale(0.015625)"/>
       <path id="CMMI12-3b" d="M 1248 -31 
C 1248 343 1126 619 864 619 
C 659 619 557 453 557 313 
C 557 172 653 0 870 0 
C 954 0 1024 26 1082 83 
C 1094 96 1101 96 1107 96 
C 1120 96 1120 5 1120 -27 
C 1120 -240 1082 -659 710 -1080 
C 640 -1157 640 -1170 640 -1183 
C 640 -1216 672 -1248 704 -1248 
C 755 -1248 1248 -771 1248 -31 
z
" transform="scale(0.015625)"/>
       <path id="CMMI12-41" d="M 1088 691 
C 864 314 646 186 339 186 
C 269 180 218 180 218 58 
C 218 24 250 0 294 0 
C 410 0 698 0 813 0 
C 998 0 1203 0 1382 0 
C 1421 0 1498 0 1498 122 
C 1498 180 1446 186 1408 186 
C 1261 186 1139 236 1139 388 
C 1139 476 1178 546 1261 685 
L 1747 1479 
L 3379 1479 
C 3386 1423 3386 1373 3392 1316 
C 3411 1152 3488 495 3488 376 
C 3488 186 3162 186 3059 186 
C 2989 186 2918 186 2918 70 
C 2918 0 2976 0 3014 0 
C 3123 0 3251 0 3360 0 
L 3725 0 
C 4115 0 4397 0 4403 0 
C 4448 0 4518 0 4518 122 
C 4518 186 4461 186 4365 186 
C 4013 186 4006 244 3987 434 
L 3597 4404 
C 3584 4531 3558 4544 3488 4544 
C 3424 4544 3386 4531 3328 4435 
L 1088 691 
z
M 1856 1664 
L 3142 3819 
L 3360 1664 
L 1856 1664 
z
" transform="scale(0.015625)"/>
       <path id="CMMI12-3a" d="M 1178 307 
C 1178 492 1024 619 870 619 
C 685 619 557 466 557 313 
C 557 128 710 0 864 0 
C 1050 0 1178 153 1178 307 
z
" transform="scale(0.015625)"/>
      </defs>
      <use xlink:href="#CMMI12-4d" transform="scale(0.996264)"/>
      <use xlink:href="#CMMI12-73" transform="translate(94.373425 -14.943915) scale(0.697382)"/>
      <use xlink:href="#CMR17-3d" transform="translate(154.710455 0) scale(0.996264)"/>
      <use xlink:href="#CMR17-31" transform="translate(254.099252 0) scale(0.996264)"/>
      <use xlink:href="#CMMI12-3b" transform="translate(299.789729 0) scale(0.996264)"/>
      <use xlink:href="#CMMI12-4d" transform="translate(343.491311 0) scale(0.996264)"/>
      <use xlink:href="#CMMI12-41" transform="translate(437.864736 -14.943915) scale(0.697382)"/>
      <use xlink:href="#CMR17-3d" transform="translate(517.226173 0) scale(0.996264)"/>
      <use xlink:href="#CMR17-30" transform="translate(616.61497 0) scale(0.996264)"/>
      <use xlink:href="#CMMI12-3a" transform="translate(662.305448 0) scale(0.996264)"/>
      <use xlink:href="#CMR17-38" transform="translate(689.402625 0) scale(0.996264)"/>
     </g>
    </g>
    <g id="line2d_172">
     <path d="M 63.006807 165.265827 
L 78.006807 165.265827 
L 93.006807 165.265827 
" style="fill: none; stroke: #ff0000; stroke-width: 2.5; stroke-linecap: square"/>
    </g>
    <g id="text_14">
     <!-- $M_s=10, M_A=0.8, t=0.25$ -->
     <g transform="translate(105.006807 170.515827) scale(0.15 -0.15)">
      <defs>
       <path id="CMMI12-74" d="M 1286 2566 
L 1875 2566 
C 1997 2566 2061 2566 2061 2681 
C 2061 2752 2022 2752 1894 2752 
L 1331 2752 
L 1568 3692 
C 1594 3781 1594 3794 1594 3840 
C 1594 3943 1510 4000 1427 4000 
C 1376 4000 1229 3981 1178 3775 
L 928 2752 
L 326 2752 
C 198 2752 141 2752 141 2630 
C 141 2566 186 2566 307 2566 
L 877 2566 
L 454 881 
C 403 658 384 594 384 511 
C 384 211 595 -64 954 -64 
C 1600 -64 1946 868 1946 912 
C 1946 951 1920 970 1882 970 
C 1869 970 1843 970 1830 944 
C 1824 938 1818 931 1773 829 
C 1638 511 1344 64 973 64 
C 781 64 768 224 768 364 
C 768 370 768 492 787 568 
L 1286 2566 
z
" transform="scale(0.015625)"/>
      </defs>
      <use xlink:href="#CMMI12-4d" transform="scale(0.996264)"/>
      <use xlink:href="#CMMI12-73" transform="translate(94.373425 -14.943915) scale(0.697382)"/>
      <use xlink:href="#CMR17-3d" transform="translate(154.710455 0) scale(0.996264)"/>
      <use xlink:href="#CMR17-31" transform="translate(254.099252 0) scale(0.996264)"/>
      <use xlink:href="#CMR17-30" transform="translate(299.789729 0) scale(0.996264)"/>
      <use xlink:href="#CMMI12-3b" transform="translate(345.480206 0) scale(0.996264)"/>
      <use xlink:href="#CMMI12-4d" transform="translate(389.181788 0) scale(0.996264)"/>
      <use xlink:href="#CMMI12-41" transform="translate(483.555213 -14.943915) scale(0.697382)"/>
      <use xlink:href="#CMR17-3d" transform="translate(562.91665 0) scale(0.996264)"/>
      <use xlink:href="#CMR17-30" transform="translate(662.305448 0) scale(0.996264)"/>
      <use xlink:href="#CMMI12-3a" transform="translate(707.995925 0) scale(0.996264)"/>
      <use xlink:href="#CMR17-38" transform="translate(735.093102 0) scale(0.996264)"/>
      <use xlink:href="#CMMI12-3b" transform="translate(780.783579 0) scale(0.996264)"/>
      <use xlink:href="#CMMI12-74" transform="translate(824.485161 0) scale(0.996264)"/>
      <use xlink:href="#CMR17-3d" transform="translate(887.3855 0) scale(0.996264)"/>
      <use xlink:href="#CMR17-30" transform="translate(986.774297 0) scale(0.996264)"/>
      <use xlink:href="#CMMI12-3a" transform="translate(1032.464774 0) scale(0.996264)"/>
      <use xlink:href="#CMR17-32" transform="translate(1059.561952 0) scale(0.996264)"/>
      <use xlink:href="#CMR17-35" transform="translate(1105.252429 0) scale(0.996264)"/>
     </g>
    </g>
    <g id="line2d_173">
     <path d="M 63.006807 186.171572 
L 78.006807 186.171572 
L 93.006807 186.171572 
" style="fill: none; stroke: #008000; stroke-width: 2.5; stroke-linecap: square"/>
    </g>
    <g id="text_15">
     <!-- $M_s=10, M_A=0.8, t=0.25$ \&amp; $M_s=1, M_A=0.8$ -->
     <g transform="translate(105.006807 191.421572) scale(0.15 -0.15)">
      <defs>
       <path id="CMR17-26" d="M 429 1327 
C 288 1169 211 992 211 782 
C 211 264 704 -128 1306 -128 
C 1907 -128 2291 240 2419 361 
C 2592 202 2944 -128 3456 -128 
C 3910 -128 4294 214 4307 740 
L 4192 740 
C 4179 247 3763 38 3482 38 
C 3104 38 2790 411 2637 588 
C 2758 733 2963 980 3386 1732 
C 3507 1941 3686 2257 3782 2339 
C 3872 2415 4019 2522 4339 2522 
L 4339 2694 
C 4218 2688 3949 2688 3821 2688 
C 3629 2688 3328 2688 3142 2688 
L 3142 2522 
C 3354 2522 3526 2434 3526 2264 
C 3526 2163 3379 1917 3104 1463 
C 3008 1300 2784 928 2560 683 
C 2464 803 1830 1606 1517 2421 
C 2176 3211 2246 3499 2246 3703 
C 2246 3958 2163 4480 1747 4480 
C 1370 4480 979 4136 979 3518 
C 979 3193 1030 2792 1222 2238 
L 429 1327 
z
M 1478 2543 
C 1357 2875 1286 3295 1286 3639 
C 1286 4200 1549 4378 1754 4378 
C 2112 4378 2131 3805 2131 3709 
C 2131 3486 2016 3168 1478 2543 
z
M 1267 2143 
C 1581 1436 2035 793 2336 449 
C 2022 158 1677 38 1363 38 
C 845 38 621 563 621 978 
C 621 1239 704 1500 870 1691 
L 1267 2143 
z
" transform="scale(0.015625)"/>
      </defs>
      <use xlink:href="#CMMI12-4d" transform="scale(0.996264)"/>
      <use xlink:href="#CMMI12-73" transform="translate(94.373425 -14.943915) scale(0.697382)"/>
      <use xlink:href="#CMR17-3d" transform="translate(154.710455 0) scale(0.996264)"/>
      <use xlink:href="#CMR17-31" transform="translate(254.099252 0) scale(0.996264)"/>
      <use xlink:href="#CMR17-30" transform="translate(299.789729 0) scale(0.996264)"/>
      <use xlink:href="#CMMI12-3b" transform="translate(345.480206 0) scale(0.996264)"/>
      <use xlink:href="#CMMI12-4d" transform="translate(389.181788 0) scale(0.996264)"/>
      <use xlink:href="#CMMI12-41" transform="translate(483.555213 -14.943915) scale(0.697382)"/>
      <use xlink:href="#CMR17-3d" transform="translate(562.91665 0) scale(0.996264)"/>
      <use xlink:href="#CMR17-30" transform="translate(662.305448 0) scale(0.996264)"/>
      <use xlink:href="#CMMI12-3a" transform="translate(707.995925 0) scale(0.996264)"/>
      <use xlink:href="#CMR17-38" transform="translate(735.093102 0) scale(0.996264)"/>
      <use xlink:href="#CMMI12-3b" transform="translate(780.783579 0) scale(0.996264)"/>
      <use xlink:href="#CMMI12-74" transform="translate(824.485161 0) scale(0.996264)"/>
      <use xlink:href="#CMR17-3d" transform="translate(887.3855 0) scale(0.996264)"/>
      <use xlink:href="#CMR17-30" transform="translate(986.774297 0) scale(0.996264)"/>
      <use xlink:href="#CMMI12-3a" transform="translate(1032.464774 0) scale(0.996264)"/>
      <use xlink:href="#CMR17-32" transform="translate(1059.561952 0) scale(0.996264)"/>
      <use xlink:href="#CMR17-35" transform="translate(1105.252429 0) scale(0.996264)"/>
      <use xlink:href="#CMR17-26" transform="translate(1181.018872 0) scale(0.996264)"/>
      <use xlink:href="#CMMI12-4d" transform="translate(1282.809627 0) scale(0.996264)"/>
      <use xlink:href="#CMMI12-73" transform="translate(1377.183052 -14.943915) scale(0.697382)"/>
      <use xlink:href="#CMR17-3d" transform="translate(1437.520082 0) scale(0.996264)"/>
      <use xlink:href="#CMR17-31" transform="translate(1536.908879 0) scale(0.996264)"/>
      <use xlink:href="#CMMI12-3b" transform="translate(1582.599356 0) scale(0.996264)"/>
      <use xlink:href="#CMMI12-4d" transform="translate(1626.300938 0) scale(0.996264)"/>
      <use xlink:href="#CMMI12-41" transform="translate(1720.674363 -14.943915) scale(0.697382)"/>
      <use xlink:href="#CMR17-3d" transform="translate(1800.0358 0) scale(0.996264)"/>
      <use xlink:href="#CMR17-30" transform="translate(1899.424597 0) scale(0.996264)"/>
      <use xlink:href="#CMMI12-3a" transform="translate(1945.115074 0) scale(0.996264)"/>
      <use xlink:href="#CMR17-38" transform="translate(1972.212252 0) scale(0.996264)"/>
     </g>
    </g>
    <g id="line2d_174">
     <path d="M 63.006807 207.077316 
L 78.006807 207.077316 
L 93.006807 207.077316 
" style="fill: none; stroke-dasharray: 14.8,6.4; stroke-dashoffset: 0; stroke: #000000; stroke-width: 4"/>
    </g>
    <g id="text_16">
     <!-- $k^{-11/3}$ -->
     <g transform="translate(105.006807 212.327316) scale(0.15 -0.15)">
      <defs>
       <path id="CMSY10-0" d="M 4218 1472 
C 4326 1472 4442 1472 4442 1600 
C 4442 1728 4326 1728 4218 1728 
L 755 1728 
C 646 1728 531 1728 531 1600 
C 531 1472 646 1472 755 1472 
L 4218 1472 
z
" transform="scale(0.015625)"/>
       <path id="CMMI12-3d" d="M 2746 4562 
C 2746 4569 2784 4666 2784 4678 
C 2784 4755 2720 4800 2669 4800 
C 2637 4800 2579 4800 2528 4659 
L 384 -1363 
C 384 -1370 346 -1465 346 -1478 
C 346 -1555 410 -1600 461 -1600 
C 499 -1600 557 -1593 602 -1459 
L 2746 4562 
z
" transform="scale(0.015625)"/>
      </defs>
      <use xlink:href="#CMMI12-6b" transform="scale(0.996264)"/>
      <use xlink:href="#CMSY10-0" transform="translate(54.079201 36.153639) scale(0.697382)"/>
      <use xlink:href="#CMR17-31" transform="translate(108.320194 36.153639) scale(0.697382)"/>
      <use xlink:href="#CMR17-31" transform="translate(140.303376 36.153639) scale(0.697382)"/>
      <use xlink:href="#CMMI12-3d" transform="translate(172.286558 36.153639) scale(0.697382)"/>
      <use xlink:href="#CMR17-33" transform="translate(206.428849 36.153639) scale(0.697382)"/>
     </g>
    </g>
   </g>
  </g>
 </g>
 <defs>
  <clipPath id="p83ea81ceaf">
   <rect x="49.506807" y="7.2" width="429.293193" height="221.533061"/>
  </clipPath>
 </defs>
</svg>
