<?xml version="1.0" encoding="utf-8" standalone="no"?>
<!DOCTYPE svg PUBLIC "-//W3C//DTD SVG 1.1//EN"
  "http://www.w3.org/Graphics/SVG/1.1/DTD/svg11.dtd">
<svg xmlns:xlink="http://www.w3.org/1999/xlink" width="488.16pt" height="272.16pt" viewBox="0 0 488.16 272.16" xmlns="http://www.w3.org/2000/svg" version="1.1">
 <metadata>
  <rdf:RDF xmlns:dc="http://purl.org/dc/elements/1.1/" xmlns:cc="http://creativecommons.org/ns#" xmlns:rdf="http://www.w3.org/1999/02/22-rdf-syntax-ns#">
   <cc:Work>
    <dc:type rdf:resource="http://purl.org/dc/dcmitype/StillImage"/>
    <dc:date>2026-02-13T22:35:40.589983</dc:date>
    <dc:format>image/svg+xml</dc:format>
    <dc:creator>
     <cc:Agent>
      <dc:title>Matplotlib v3.8.4, https://matplotlib.org/</dc:title>
     </cc:Agent>
    </dc:creator>
   </cc:Work>
  </rdf:RDF>
 </metadata>
 <defs>
  <style type="text/css">*{stroke-linejoin: round; stroke-linecap: butt}</style>
 </defs>
 <g id="figure_1">
  <g id="patch_1">
   <path d="M 0 272.16 
L 488.16 272.16 
L 488.16 0 
L 0 0 
z
" style="fill: #ffffff"/>
  </g>
  <g id="axes_1">
   <g id="patch_2">
    <path d="M 47.3219 232.66419 
L 480.96 232.66419 
L 480.96 7.2 
L 47.3219 7.2 
z
" style="fill: #ffffff"/>
   </g>
   <g id="matplotlib.axis_1">
    <g id="xtick_1">
     <g id="line2d_1">
      <defs>
       <path id="mbe406dcfac" d="M 0 0 
L 0 -6 
" style="stroke: #000000; stroke-width: 0.8"/>
      </defs>
      <g>
       <use xlink:href="#mbe406dcfac" x="79.406497" y="232.66419" style="stroke: #000000; stroke-width: 0.8"/>
      </g>
     </g>
     <g id="line2d_2">
      <defs>
       <path id="mdd0943f9b1" d="M 0 0 
L 0 6 
" style="stroke: #000000; stroke-width: 0.8"/>
      </defs>
      <g>
       <use xlink:href="#mdd0943f9b1" x="79.406497" y="7.2" style="stroke: #000000; stroke-width: 0.8"/>
      </g>
     </g>
     <g id="text_1">
      <!-- $\mathdefault{10^{1}}$ -->
      <g transform="translate(70.069395 245.850067) scale(0.14 -0.14)">
       <defs>
        <path id="CMR17-31" d="M 1702 4058 
C 1702 4192 1696 4192 1606 4192 
C 1357 3916 979 3827 621 3827 
C 602 3827 570 3827 563 3808 
C 557 3795 557 3782 557 3648 
C 755 3648 1088 3686 1344 3839 
L 1344 461 
C 1344 236 1331 160 781 160 
L 589 160 
L 589 0 
C 896 0 1216 0 1523 0 
C 1830 0 2150 0 2458 0 
L 2458 160 
L 2266 160 
C 1715 160 1702 230 1702 458 
L 1702 4058 
z
" transform="scale(0.015625)"/>
        <path id="CMR17-30" d="M 2688 2025 
C 2688 2416 2682 3080 2413 3591 
C 2176 4039 1798 4198 1466 4198 
C 1158 4198 768 4058 525 3597 
C 269 3118 243 2524 243 2025 
C 243 1661 250 1106 448 619 
C 723 -39 1216 -128 1466 -128 
C 1760 -128 2208 -7 2470 600 
C 2662 1042 2688 1559 2688 2025 
z
M 1466 -26 
C 1056 -26 813 325 723 812 
C 653 1188 653 1738 653 2096 
C 653 2588 653 2997 736 3387 
C 858 3929 1216 4096 1466 4096 
C 1728 4096 2067 3923 2189 3400 
C 2272 3036 2278 2607 2278 2096 
C 2278 1680 2278 1169 2202 792 
C 2067 95 1690 -26 1466 -26 
z
" transform="scale(0.015625)"/>
       </defs>
       <use xlink:href="#CMR17-31" transform="scale(0.996264)"/>
       <use xlink:href="#CMR17-30" transform="translate(45.690477 0) scale(0.996264)"/>
       <use xlink:href="#CMR17-31" transform="translate(91.380954 36.153639) scale(0.697382)"/>
      </g>
     </g>
    </g>
    <g id="xtick_2">
     <g id="line2d_3">
      <g>
       <use xlink:href="#mbe406dcfac" x="261.453096" y="232.66419" style="stroke: #000000; stroke-width: 0.8"/>
      </g>
     </g>
     <g id="line2d_4">
      <g>
       <use xlink:href="#mdd0943f9b1" x="261.453096" y="7.2" style="stroke: #000000; stroke-width: 0.8"/>
      </g>
     </g>
     <g id="text_2">
      <!-- $\mathdefault{10^{2}}$ -->
      <g transform="translate(252.115994 245.850067) scale(0.14 -0.14)">
       <defs>
        <path id="CMR17-32" d="M 2669 989 
L 2554 989 
C 2490 536 2438 459 2413 420 
C 2381 369 1920 369 1830 369 
L 602 369 
C 832 619 1280 1072 1824 1597 
C 2214 1967 2669 2402 2669 3035 
C 2669 3790 2067 4224 1395 4224 
C 691 4224 262 3604 262 3030 
C 262 2780 448 2748 525 2748 
C 589 2748 781 2787 781 3010 
C 781 3207 614 3264 525 3264 
C 486 3264 448 3258 422 3245 
C 544 3790 915 4058 1306 4058 
C 1862 4058 2227 3617 2227 3035 
C 2227 2479 1901 2000 1536 1584 
L 262 146 
L 262 0 
L 2515 0 
L 2669 989 
z
" transform="scale(0.015625)"/>
       </defs>
       <use xlink:href="#CMR17-31" transform="scale(0.996264)"/>
       <use xlink:href="#CMR17-30" transform="translate(45.690477 0) scale(0.996264)"/>
       <use xlink:href="#CMR17-32" transform="translate(91.380954 36.153639) scale(0.697382)"/>
      </g>
     </g>
    </g>
    <g id="xtick_3">
     <g id="line2d_5">
      <g>
       <use xlink:href="#mbe406dcfac" x="443.499694" y="232.66419" style="stroke: #000000; stroke-width: 0.8"/>
      </g>
     </g>
     <g id="line2d_6">
      <g>
       <use xlink:href="#mdd0943f9b1" x="443.499694" y="7.2" style="stroke: #000000; stroke-width: 0.8"/>
      </g>
     </g>
     <g id="text_3">
      <!-- $\mathdefault{10^{3}}$ -->
      <g transform="translate(434.162592 245.850067) scale(0.14 -0.14)">
       <defs>
        <path id="CMR17-33" d="M 1414 2157 
C 1984 2157 2234 1662 2234 1090 
C 2234 320 1824 25 1453 25 
C 1114 25 563 194 390 693 
C 422 680 454 680 486 680 
C 640 680 755 782 755 948 
C 755 1133 614 1216 486 1216 
C 378 1216 211 1165 211 926 
C 211 335 787 -128 1466 -128 
C 2176 -128 2720 430 2720 1085 
C 2720 1707 2208 2157 1600 2227 
C 2086 2328 2554 2756 2554 3329 
C 2554 3820 2048 4179 1472 4179 
C 890 4179 378 3829 378 3329 
C 378 3110 544 3072 627 3072 
C 762 3072 877 3155 877 3321 
C 877 3486 762 3569 627 3569 
C 602 3569 570 3569 544 3557 
C 730 3959 1235 4032 1459 4032 
C 1683 4032 2106 3925 2106 3320 
C 2106 3143 2080 2828 1862 2550 
C 1670 2304 1453 2304 1242 2284 
C 1210 2284 1062 2269 1037 2269 
C 992 2263 966 2257 966 2208 
C 966 2163 973 2157 1101 2157 
L 1414 2157 
z
" transform="scale(0.015625)"/>
       </defs>
       <use xlink:href="#CMR17-31" transform="scale(0.996264)"/>
       <use xlink:href="#CMR17-30" transform="translate(45.690477 0) scale(0.996264)"/>
       <use xlink:href="#CMR17-33" transform="translate(91.380954 36.153639) scale(0.697382)"/>
      </g>
     </g>
    </g>
    <g id="xtick_4">
     <g id="line2d_7">
      <defs>
       <path id="m29d43e5bb2" d="M 0 0 
L 0 -3 
" style="stroke: #000000; stroke-width: 0.6"/>
      </defs>
      <g>
       <use xlink:href="#m29d43e5bb2" x="51.207122" y="232.66419" style="stroke: #000000; stroke-width: 0.6"/>
      </g>
     </g>
     <g id="line2d_8">
      <defs>
       <path id="m9e65162c90" d="M 0 0 
L 0 3 
" style="stroke: #000000; stroke-width: 0.6"/>
      </defs>
      <g>
       <use xlink:href="#m9e65162c90" x="51.207122" y="7.2" style="stroke: #000000; stroke-width: 0.6"/>
      </g>
     </g>
    </g>
    <g id="xtick_5">
     <g id="line2d_9">
      <g>
       <use xlink:href="#m29d43e5bb2" x="61.764359" y="232.66419" style="stroke: #000000; stroke-width: 0.6"/>
      </g>
     </g>
     <g id="line2d_10">
      <g>
       <use xlink:href="#m9e65162c90" x="61.764359" y="7.2" style="stroke: #000000; stroke-width: 0.6"/>
      </g>
     </g>
    </g>
    <g id="xtick_6">
     <g id="line2d_11">
      <g>
       <use xlink:href="#m29d43e5bb2" x="71.076502" y="232.66419" style="stroke: #000000; stroke-width: 0.6"/>
      </g>
     </g>
     <g id="line2d_12">
      <g>
       <use xlink:href="#m9e65162c90" x="71.076502" y="7.2" style="stroke: #000000; stroke-width: 0.6"/>
      </g>
     </g>
    </g>
    <g id="xtick_7">
     <g id="line2d_13">
      <g>
       <use xlink:href="#m29d43e5bb2" x="134.207984" y="232.66419" style="stroke: #000000; stroke-width: 0.6"/>
      </g>
     </g>
     <g id="line2d_14">
      <g>
       <use xlink:href="#m9e65162c90" x="134.207984" y="7.2" style="stroke: #000000; stroke-width: 0.6"/>
      </g>
     </g>
    </g>
    <g id="xtick_8">
     <g id="line2d_15">
      <g>
       <use xlink:href="#m29d43e5bb2" x="166.264799" y="232.66419" style="stroke: #000000; stroke-width: 0.6"/>
      </g>
     </g>
     <g id="line2d_16">
      <g>
       <use xlink:href="#m9e65162c90" x="166.264799" y="7.2" style="stroke: #000000; stroke-width: 0.6"/>
      </g>
     </g>
    </g>
    <g id="xtick_9">
     <g id="line2d_17">
      <g>
       <use xlink:href="#m29d43e5bb2" x="189.009471" y="232.66419" style="stroke: #000000; stroke-width: 0.6"/>
      </g>
     </g>
     <g id="line2d_18">
      <g>
       <use xlink:href="#m9e65162c90" x="189.009471" y="7.2" style="stroke: #000000; stroke-width: 0.6"/>
      </g>
     </g>
    </g>
    <g id="xtick_10">
     <g id="line2d_19">
      <g>
       <use xlink:href="#m29d43e5bb2" x="206.651609" y="232.66419" style="stroke: #000000; stroke-width: 0.6"/>
      </g>
     </g>
     <g id="line2d_20">
      <g>
       <use xlink:href="#m9e65162c90" x="206.651609" y="7.2" style="stroke: #000000; stroke-width: 0.6"/>
      </g>
     </g>
    </g>
    <g id="xtick_11">
     <g id="line2d_21">
      <g>
       <use xlink:href="#m29d43e5bb2" x="221.066285" y="232.66419" style="stroke: #000000; stroke-width: 0.6"/>
      </g>
     </g>
     <g id="line2d_22">
      <g>
       <use xlink:href="#m9e65162c90" x="221.066285" y="7.2" style="stroke: #000000; stroke-width: 0.6"/>
      </g>
     </g>
    </g>
    <g id="xtick_12">
     <g id="line2d_23">
      <g>
       <use xlink:href="#m29d43e5bb2" x="233.253721" y="232.66419" style="stroke: #000000; stroke-width: 0.6"/>
      </g>
     </g>
     <g id="line2d_24">
      <g>
       <use xlink:href="#m9e65162c90" x="233.253721" y="7.2" style="stroke: #000000; stroke-width: 0.6"/>
      </g>
     </g>
    </g>
    <g id="xtick_13">
     <g id="line2d_25">
      <g>
       <use xlink:href="#m29d43e5bb2" x="243.810957" y="232.66419" style="stroke: #000000; stroke-width: 0.6"/>
      </g>
     </g>
     <g id="line2d_26">
      <g>
       <use xlink:href="#m9e65162c90" x="243.810957" y="7.2" style="stroke: #000000; stroke-width: 0.6"/>
      </g>
     </g>
    </g>
    <g id="xtick_14">
     <g id="line2d_27">
      <g>
       <use xlink:href="#m29d43e5bb2" x="253.1231" y="232.66419" style="stroke: #000000; stroke-width: 0.6"/>
      </g>
     </g>
     <g id="line2d_28">
      <g>
       <use xlink:href="#m9e65162c90" x="253.1231" y="7.2" style="stroke: #000000; stroke-width: 0.6"/>
      </g>
     </g>
    </g>
    <g id="xtick_15">
     <g id="line2d_29">
      <g>
       <use xlink:href="#m29d43e5bb2" x="316.254582" y="232.66419" style="stroke: #000000; stroke-width: 0.6"/>
      </g>
     </g>
     <g id="line2d_30">
      <g>
       <use xlink:href="#m9e65162c90" x="316.254582" y="7.2" style="stroke: #000000; stroke-width: 0.6"/>
      </g>
     </g>
    </g>
    <g id="xtick_16">
     <g id="line2d_31">
      <g>
       <use xlink:href="#m29d43e5bb2" x="348.311397" y="232.66419" style="stroke: #000000; stroke-width: 0.6"/>
      </g>
     </g>
     <g id="line2d_32">
      <g>
       <use xlink:href="#m9e65162c90" x="348.311397" y="7.2" style="stroke: #000000; stroke-width: 0.6"/>
      </g>
     </g>
    </g>
    <g id="xtick_17">
     <g id="line2d_33">
      <g>
       <use xlink:href="#m29d43e5bb2" x="371.056069" y="232.66419" style="stroke: #000000; stroke-width: 0.6"/>
      </g>
     </g>
     <g id="line2d_34">
      <g>
       <use xlink:href="#m9e65162c90" x="371.056069" y="7.2" style="stroke: #000000; stroke-width: 0.6"/>
      </g>
     </g>
    </g>
    <g id="xtick_18">
     <g id="line2d_35">
      <g>
       <use xlink:href="#m29d43e5bb2" x="388.698207" y="232.66419" style="stroke: #000000; stroke-width: 0.6"/>
      </g>
     </g>
     <g id="line2d_36">
      <g>
       <use xlink:href="#m9e65162c90" x="388.698207" y="7.2" style="stroke: #000000; stroke-width: 0.6"/>
      </g>
     </g>
    </g>
    <g id="xtick_19">
     <g id="line2d_37">
      <g>
       <use xlink:href="#m29d43e5bb2" x="403.112884" y="232.66419" style="stroke: #000000; stroke-width: 0.6"/>
      </g>
     </g>
     <g id="line2d_38">
      <g>
       <use xlink:href="#m9e65162c90" x="403.112884" y="7.2" style="stroke: #000000; stroke-width: 0.6"/>
      </g>
     </g>
    </g>
    <g id="xtick_20">
     <g id="line2d_39">
      <g>
       <use xlink:href="#m29d43e5bb2" x="415.300319" y="232.66419" style="stroke: #000000; stroke-width: 0.6"/>
      </g>
     </g>
     <g id="line2d_40">
      <g>
       <use xlink:href="#m9e65162c90" x="415.300319" y="7.2" style="stroke: #000000; stroke-width: 0.6"/>
      </g>
     </g>
    </g>
    <g id="xtick_21">
     <g id="line2d_41">
      <g>
       <use xlink:href="#m29d43e5bb2" x="425.857556" y="232.66419" style="stroke: #000000; stroke-width: 0.6"/>
      </g>
     </g>
     <g id="line2d_42">
      <g>
       <use xlink:href="#m9e65162c90" x="425.857556" y="7.2" style="stroke: #000000; stroke-width: 0.6"/>
      </g>
     </g>
    </g>
    <g id="xtick_22">
     <g id="line2d_43">
      <g>
       <use xlink:href="#m29d43e5bb2" x="435.169698" y="232.66419" style="stroke: #000000; stroke-width: 0.6"/>
      </g>
     </g>
     <g id="line2d_44">
      <g>
       <use xlink:href="#m9e65162c90" x="435.169698" y="7.2" style="stroke: #000000; stroke-width: 0.6"/>
      </g>
     </g>
    </g>
    <g id="text_4">
     <!-- $k$ -->
     <g transform="translate(260.589487 262.247972) scale(0.14 -0.14)">
      <defs>
       <path id="CMMI12-6b" d="M 1798 4257 
C 1805 4283 1818 4321 1818 4352 
C 1818 4416 1754 4416 1741 4416 
C 1734 4416 1504 4393 1389 4377 
C 1280 4377 1184 4358 1069 4358 
C 915 4345 870 4339 870 4224 
C 870 4160 934 4160 998 4160 
C 1325 4160 1325 4103 1325 4040 
C 1325 4015 1325 4002 1293 3888 
L 378 248 
C 352 152 352 140 352 101 
C 352 -38 461 -64 525 -64 
C 704 -64 742 77 794 275 
L 1094 1469 
C 1555 1418 1830 1226 1830 920 
C 1830 881 1830 856 1811 760 
C 1786 664 1786 588 1786 556 
C 1786 185 2029 -64 2355 -64 
C 2650 -64 2803 204 2854 294 
C 2989 530 3072 888 3072 913 
C 3072 945 3046 971 3008 971 
C 2950 971 2944 945 2918 843 
C 2829 511 2694 64 2368 64 
C 2240 64 2157 128 2157 370 
C 2157 492 2182 632 2208 728 
C 2234 843 2234 849 2234 926 
C 2234 1303 1894 1514 1306 1590 
C 1536 1731 1766 1980 1856 2076 
C 2221 2484 2470 2689 2765 2689 
C 2912 2689 2950 2650 2995 2612 
C 2758 2586 2669 2420 2669 2293 
C 2669 2139 2790 2088 2880 2088 
C 3053 2088 3206 2235 3206 2440 
C 3206 2625 3059 2816 2771 2816 
C 2419 2816 2131 2567 1677 2056 
C 1613 1980 1376 1737 1139 1648 
L 1798 4257 
z
" transform="scale(0.015625)"/>
      </defs>
      <use xlink:href="#CMMI12-6b" transform="scale(0.996264)"/>
     </g>
    </g>
   </g>
   <g id="matplotlib.axis_2">
    <g id="ytick_1">
     <g id="line2d_45">
      <defs>
       <path id="mb6c8d73b2d" d="M 0 0 
L 6 0 
" style="stroke: #000000; stroke-width: 0.8"/>
      </defs>
      <g>
       <use xlink:href="#mb6c8d73b2d" x="47.3219" y="207.521163" style="stroke: #000000; stroke-width: 0.8"/>
      </g>
     </g>
     <g id="line2d_46">
      <defs>
       <path id="me126cd748f" d="M 0 0 
L -6 0 
" style="stroke: #000000; stroke-width: 0.8"/>
      </defs>
      <g>
       <use xlink:href="#me126cd748f" x="480.96" y="207.521163" style="stroke: #000000; stroke-width: 0.8"/>
      </g>
     </g>
     <g id="text_5">
      <!-- $\mathdefault{10^{0}}$ -->
      <g transform="translate(25.147696 212.364102) scale(0.14 -0.14)">
       <use xlink:href="#CMR17-31" transform="scale(0.996264)"/>
       <use xlink:href="#CMR17-30" transform="translate(45.690477 0) scale(0.996264)"/>
       <use xlink:href="#CMR17-30" transform="translate(91.380954 36.153639) scale(0.697382)"/>
      </g>
     </g>
    </g>
    <g id="ytick_2">
     <g id="line2d_47">
      <g>
       <use xlink:href="#mb6c8d73b2d" x="47.3219" y="167.117334" style="stroke: #000000; stroke-width: 0.8"/>
      </g>
     </g>
     <g id="line2d_48">
      <g>
       <use xlink:href="#me126cd748f" x="480.96" y="167.117334" style="stroke: #000000; stroke-width: 0.8"/>
      </g>
     </g>
     <g id="text_6">
      <!-- $\mathdefault{10^{2}}$ -->
      <g transform="translate(25.147696 171.960273) scale(0.14 -0.14)">
       <use xlink:href="#CMR17-31" transform="scale(0.996264)"/>
       <use xlink:href="#CMR17-30" transform="translate(45.690477 0) scale(0.996264)"/>
       <use xlink:href="#CMR17-32" transform="translate(91.380954 36.153639) scale(0.697382)"/>
      </g>
     </g>
    </g>
    <g id="ytick_3">
     <g id="line2d_49">
      <g>
       <use xlink:href="#mb6c8d73b2d" x="47.3219" y="126.713505" style="stroke: #000000; stroke-width: 0.8"/>
      </g>
     </g>
     <g id="line2d_50">
      <g>
       <use xlink:href="#me126cd748f" x="480.96" y="126.713505" style="stroke: #000000; stroke-width: 0.8"/>
      </g>
     </g>
     <g id="text_7">
      <!-- $\mathdefault{10^{4}}$ -->
      <g transform="translate(25.147696 131.556443) scale(0.14 -0.14)">
       <defs>
        <path id="CMR17-34" d="M 2150 4122 
C 2150 4256 2144 4256 2029 4256 
L 128 1254 
L 128 1088 
L 1779 1088 
L 1779 457 
C 1779 224 1766 160 1318 160 
L 1197 160 
L 1197 0 
C 1402 0 1747 0 1965 0 
C 2182 0 2528 0 2733 0 
L 2733 160 
L 2611 160 
C 2163 160 2150 224 2150 457 
L 2150 1088 
L 2803 1088 
L 2803 1254 
L 2150 1254 
L 2150 4122 
z
M 1798 3703 
L 1798 1254 
L 256 1254 
L 1798 3703 
z
" transform="scale(0.015625)"/>
       </defs>
       <use xlink:href="#CMR17-31" transform="scale(0.996264)"/>
       <use xlink:href="#CMR17-30" transform="translate(45.690477 0) scale(0.996264)"/>
       <use xlink:href="#CMR17-34" transform="translate(91.380954 36.153639) scale(0.697382)"/>
      </g>
     </g>
    </g>
    <g id="ytick_4">
     <g id="line2d_51">
      <g>
       <use xlink:href="#mb6c8d73b2d" x="47.3219" y="86.309676" style="stroke: #000000; stroke-width: 0.8"/>
      </g>
     </g>
     <g id="line2d_52">
      <g>
       <use xlink:href="#me126cd748f" x="480.96" y="86.309676" style="stroke: #000000; stroke-width: 0.8"/>
      </g>
     </g>
     <g id="text_8">
      <!-- $\mathdefault{10^{6}}$ -->
      <g transform="translate(25.147696 91.152614) scale(0.14 -0.14)">
       <defs>
        <path id="CMR17-36" d="M 678 2176 
C 678 3690 1395 4032 1811 4032 
C 1946 4032 2272 4009 2400 3776 
C 2298 3776 2106 3776 2106 3553 
C 2106 3381 2246 3323 2336 3323 
C 2394 3323 2566 3348 2566 3560 
C 2566 3954 2246 4179 1805 4179 
C 1043 4179 243 3390 243 1984 
C 243 253 966 -128 1478 -128 
C 2099 -128 2688 427 2688 1283 
C 2688 2081 2170 2662 1517 2662 
C 1126 2662 838 2407 678 1960 
L 678 2176 
z
M 1478 25 
C 691 25 691 1200 691 1436 
C 691 1896 909 2560 1504 2560 
C 1613 2560 1926 2560 2138 2120 
C 2253 1870 2253 1609 2253 1289 
C 2253 944 2253 690 2118 434 
C 1978 171 1773 25 1478 25 
z
" transform="scale(0.015625)"/>
       </defs>
       <use xlink:href="#CMR17-31" transform="scale(0.996264)"/>
       <use xlink:href="#CMR17-30" transform="translate(45.690477 0) scale(0.996264)"/>
       <use xlink:href="#CMR17-36" transform="translate(91.380954 36.153639) scale(0.697382)"/>
      </g>
     </g>
    </g>
    <g id="ytick_5">
     <g id="line2d_53">
      <g>
       <use xlink:href="#mb6c8d73b2d" x="47.3219" y="45.905847" style="stroke: #000000; stroke-width: 0.8"/>
      </g>
     </g>
     <g id="line2d_54">
      <g>
       <use xlink:href="#me126cd748f" x="480.96" y="45.905847" style="stroke: #000000; stroke-width: 0.8"/>
      </g>
     </g>
     <g id="text_9">
      <!-- $\mathdefault{10^{8}}$ -->
      <g transform="translate(25.147696 50.748785) scale(0.14 -0.14)">
       <defs>
        <path id="CMR17-38" d="M 1741 2264 
C 2144 2467 2554 2773 2554 3263 
C 2554 3841 1990 4179 1472 4179 
C 890 4179 378 3759 378 3180 
C 378 3021 416 2747 666 2505 
C 730 2442 998 2251 1171 2130 
C 883 1983 211 1634 211 934 
C 211 279 838 -128 1459 -128 
C 2144 -128 2720 362 2720 1010 
C 2720 1590 2330 1857 2074 2029 
L 1741 2264 
z
M 902 2822 
C 851 2854 595 3051 595 3351 
C 595 3739 998 4032 1459 4032 
C 1965 4032 2336 3676 2336 3262 
C 2336 2669 1670 2331 1638 2331 
C 1632 2331 1626 2331 1574 2370 
L 902 2822 
z
M 2080 1519 
C 2176 1449 2483 1240 2483 851 
C 2483 381 2010 25 1472 25 
C 890 25 448 438 448 940 
C 448 1443 838 1862 1280 2060 
L 2080 1519 
z
" transform="scale(0.015625)"/>
       </defs>
       <use xlink:href="#CMR17-31" transform="scale(0.996264)"/>
       <use xlink:href="#CMR17-30" transform="translate(45.690477 0) scale(0.996264)"/>
       <use xlink:href="#CMR17-38" transform="translate(91.380954 36.153639) scale(0.697382)"/>
      </g>
     </g>
    </g>
    <g id="text_10">
     <!-- $E_{n_e B}(k)$ -->
     <g transform="translate(17.660772 143.537704) rotate(-90) scale(0.14 -0.14)">
      <defs>
       <path id="CMMI12-45" d="M 4448 1489 
C 4454 1508 4474 1554 4474 1579 
C 4474 1611 4448 1643 4410 1643 
C 4384 1643 4371 1637 4352 1617 
C 4339 1611 4339 1598 4282 1469 
C 3904 570 3629 185 2605 185 
L 1670 185 
C 1581 185 1568 185 1530 192 
C 1459 198 1453 211 1453 262 
C 1453 307 1466 345 1478 403 
L 1920 2176 
L 2554 2176 
C 3053 2176 3091 2066 3091 1874 
C 3091 1810 3091 1752 3046 1560 
C 3034 1534 3027 1508 3027 1489 
C 3027 1444 3059 1425 3098 1425 
C 3155 1425 3162 1469 3187 1559 
L 3552 3042 
C 3552 3073 3526 3105 3488 3105 
C 3430 3105 3424 3080 3398 2990 
C 3270 2501 3142 2361 2573 2361 
L 1965 2361 
L 2362 3930 
C 2419 4154 2432 4154 2694 4154 
L 3610 4154 
C 4397 4154 4557 3943 4557 3458 
C 4557 3451 4557 3273 4531 3062 
C 4525 3036 4518 2998 4518 2985 
C 4518 2934 4550 2915 4589 2915 
C 4634 2915 4659 2941 4672 3055 
L 4806 4174 
C 4806 4195 4819 4263 4819 4277 
C 4819 4352 4762 4352 4646 4352 
L 1523 4352 
C 1402 4352 1338 4352 1338 4229 
C 1338 4154 1382 4154 1491 4154 
C 1888 4154 1888 4114 1888 4052 
C 1888 4020 1882 3994 1862 3924 
L 998 473 
C 941 249 928 185 480 185 
C 358 185 294 185 294 70 
C 294 0 333 0 461 0 
L 3674 0 
C 3814 0 3821 6 3866 110 
L 4448 1489 
z
" transform="scale(0.015625)"/>
       <path id="CMMI12-6e" d="M 1318 1871 
C 1331 1910 1491 2229 1728 2433 
C 1894 2586 2112 2689 2362 2689 
C 2618 2689 2707 2497 2707 2242 
C 2707 1878 2445 1150 2317 805 
C 2259 651 2227 568 2227 453 
C 2227 166 2426 -64 2733 -64 
C 3328 -64 3552 875 3552 913 
C 3552 945 3526 971 3488 971 
C 3430 971 3424 952 3392 843 
C 3245 319 3002 64 2752 64 
C 2688 64 2586 64 2586 269 
C 2586 429 2656 621 2694 710 
C 2822 1063 3091 1780 3091 2145 
C 3091 2528 2867 2816 2381 2816 
C 1811 2816 1510 2415 1395 2255 
C 1376 2618 1114 2816 832 2816 
C 627 2816 486 2695 378 2478 
C 262 2248 173 1865 173 1839 
C 173 1814 198 1782 243 1782 
C 294 1782 301 1788 339 1935 
C 442 2325 557 2689 813 2689 
C 960 2689 1011 2586 1011 2395 
C 1011 2254 947 2005 902 1807 
L 723 1118 
C 698 996 627 709 595 594 
C 550 428 480 128 480 96 
C 480 6 550 -64 646 -64 
C 723 -64 813 -26 864 70 
C 877 102 934 326 966 453 
L 1107 1028 
L 1318 1871 
z
" transform="scale(0.015625)"/>
       <path id="CMMI12-65" d="M 1146 1479 
C 1318 1479 1754 1479 2061 1595 
C 2547 1783 2592 2158 2592 2274 
C 2592 2558 2349 2816 1926 2816 
C 1254 2816 288 2210 288 1073 
C 288 402 672 -64 1254 -64 
C 2125 -64 2675 609 2675 692 
C 2675 730 2637 762 2611 762 
C 2592 762 2586 756 2528 699 
C 2118 159 1510 64 1267 64 
C 902 64 710 350 710 822 
C 710 911 710 1071 806 1479 
L 1146 1479 
z
M 838 1600 
C 1114 2592 1722 2689 1926 2689 
C 2208 2689 2400 2522 2400 2277 
C 2400 1600 1376 1600 1107 1600 
L 838 1600 
z
" transform="scale(0.015625)"/>
       <path id="CMMI12-42" d="M 2342 3921 
C 2400 4160 2426 4160 2675 4160 
L 3507 4160 
C 4230 4160 4230 3544 4230 3485 
C 4230 2966 3712 2304 2867 2304 
L 1946 2304 
L 2342 3921 
z
M 3424 2275 
C 4122 2402 4755 2886 4755 3473 
C 4755 3970 4314 4352 3590 4352 
L 1536 4352 
C 1414 4352 1357 4352 1357 4226 
C 1357 4160 1414 4160 1510 4160 
C 1901 4160 1901 4112 1901 4044 
C 1901 4032 1901 3993 1875 3897 
L 1011 472 
C 954 249 941 185 493 185 
C 371 185 307 185 307 70 
C 307 0 346 0 474 0 
L 2669 0 
C 3648 0 4403 739 4403 1383 
C 4403 1906 3942 2224 3424 2275 
z
M 2515 185 
L 1651 185 
C 1562 185 1549 185 1510 192 
C 1440 198 1434 211 1434 261 
C 1434 305 1446 343 1459 399 
L 1907 2176 
L 3110 2176 
C 3866 2176 3866 1483 3866 1433 
C 3866 828 3309 185 2515 185 
z
" transform="scale(0.015625)"/>
       <path id="CMR17-28" d="M 1958 -1561 
C 1958 -1555 1958 -1542 1939 -1523 
C 1645 -1224 858 -407 858 1581 
C 858 3569 1632 4379 1946 4697 
C 1946 4704 1958 4717 1958 4736 
C 1958 4755 1939 4768 1914 4768 
C 1843 4768 1299 4296 986 3594 
C 666 2887 576 2199 576 1588 
C 576 1128 621 351 1005 -471 
C 1312 -1135 1837 -1600 1914 -1600 
C 1946 -1600 1958 -1587 1958 -1561 
z
" transform="scale(0.015625)"/>
       <path id="CMR17-29" d="M 1683 1581 
C 1683 2040 1638 2817 1254 3639 
C 947 4303 422 4768 346 4768 
C 326 4768 301 4761 301 4729 
C 301 4717 307 4710 314 4697 
C 621 4378 1402 3568 1402 1584 
C 1402 -407 627 -1217 314 -1537 
C 307 -1549 301 -1556 301 -1568 
C 301 -1600 326 -1600 346 -1600 
C 416 -1600 960 -1128 1274 -426 
C 1594 281 1683 969 1683 1581 
z
" transform="scale(0.015625)"/>
      </defs>
      <use xlink:href="#CMMI12-45" transform="scale(0.996264)"/>
      <use xlink:href="#CMMI12-6e" transform="translate(72.211218 -14.943915) scale(0.697382)"/>
      <use xlink:href="#CMMI12-65" transform="translate(112.972061 -25.404611) scale(0.498132)"/>
      <use xlink:href="#CMMI12-42" transform="translate(136.076186 -14.943915) scale(0.697382)"/>
      <use xlink:href="#CMR17-28" transform="translate(191.968944 0) scale(0.996264)"/>
      <use xlink:href="#CMMI12-6b" transform="translate(227.249712 0) scale(0.996264)"/>
      <use xlink:href="#CMR17-29" transform="translate(281.328912 0) scale(0.996264)"/>
     </g>
    </g>
   </g>
   <g id="line2d_55">
    <path d="M 47.3219 69.879812 
L 87.70871 64.561755 
L 114.310822 66.221656 
L 134.180202 75.502732 
L 150.045595 71.884017 
L 163.253197 74.029145 
L 174.567012 77.472756 
L 184.462639 83.526155 
L 193.256342 81.780654 
L 201.169124 87.858303 
L 208.361519 82.099302 
L 214.953822 90.281146 
L 221.038503 89.954298 
L 226.68818 98.310177 
L 231.960922 95.714815 
L 236.903896 99.660095 
L 241.555934 100.982416 
L 245.949388 101.009554 
L 250.111498 102.065832 
L 254.065414 105.486763 
L 257.830975 104.491827 
L 261.425313 105.930764 
L 264.863326 106.098914 
L 268.158046 108.40214 
L 271.320941 112.907785 
L 274.362155 112.045271 
L 277.290706 111.677419 
L 280.114643 117.028074 
L 282.841184 116.626049 
L 285.476822 115.071237 
L 288.027425 116.13739 
L 290.498308 120.813782 
L 292.894305 120.51451 
L 295.219821 119.583412 
L 297.478884 119.874105 
L 299.675187 121.044059 
L 301.812123 119.4006 
L 303.892818 121.34428 
L 305.920156 123.60913 
L 307.896804 126.312593 
L 309.825237 124.389043 
L 311.707751 122.003973 
L 313.546481 127.708365 
L 315.343418 126.021238 
L 317.10042 129.385891 
L 318.819223 126.283436 
L 320.501454 128.155179 
L 322.148635 127.529752 
L 323.762197 129.117037 
L 325.343487 127.140868 
L 326.893769 132.576713 
L 328.414235 132.352352 
L 329.906012 130.798156 
L 331.370162 133.59623 
L 332.80769 134.75982 
L 334.219546 134.445439 
L 335.606631 135.083648 
L 336.9698 137.125151 
L 338.309863 133.466279 
L 339.62759 136.208939 
L 340.923715 137.518167 
L 342.198934 138.025522 
L 343.45391 137.714262 
L 344.689276 138.551983 
L 347.103565 141.095246 
L 348.283615 140.460531 
L 349.44631 140.286032 
L 350.592153 140.764128 
L 352.835193 142.1361 
L 353.933291 142.701704 
L 355.016347 143.881934 
L 356.084766 142.583727 
L 357.13894 145.469821 
L 358.179242 146.216502 
L 359.206034 147.635726 
L 360.219661 145.403447 
L 361.220457 147.242136 
L 363.184827 148.008537 
L 364.149008 147.878889 
L 365.101571 150.370812 
L 366.042795 150.173157 
L 366.972945 149.537324 
L 367.892279 151.508373 
L 368.801045 152.100534 
L 369.699485 152.247935 
L 370.58783 151.252523 
L 371.466303 151.556903 
L 372.335124 153.30766 
L 373.1945 154.518913 
L 374.044635 153.39302 
L 374.885726 154.356647 
L 375.717964 153.804983 
L 376.541532 154.635809 
L 377.35661 155.633171 
L 378.961981 155.893969 
L 379.752606 156.964717 
L 380.535403 157.187394 
L 381.310525 157.137466 
L 382.078122 157.662296 
L 382.838338 157.318496 
L 383.591313 160.0256 
L 384.337185 159.75491 
L 385.076086 159.858424 
L 385.808145 159.707671 
L 386.533488 160.120341 
L 387.252237 161.563279 
L 387.964511 162.130048 
L 388.670425 160.864285 
L 389.370092 161.912255 
L 390.063621 163.504184 
L 390.751119 163.716895 
L 391.432691 163.569593 
L 392.778457 162.99372 
L 393.442846 165.150896 
L 394.101699 165.171388 
L 394.755106 165.37112 
L 395.403157 166.722577 
L 396.04594 167.366837 
L 396.683539 165.81516 
L 397.943515 167.542979 
L 398.566052 166.923826 
L 399.183726 168.139753 
L 399.796612 169.057031 
L 400.404783 170.427556 
L 401.008311 167.866733 
L 401.607267 170.382678 
L 402.20172 169.433257 
L 402.791736 171.43356 
L 403.377382 170.692106 
L 403.958722 172.453921 
L 404.535818 171.97453 
L 405.108732 173.243496 
L 405.677525 172.385323 
L 406.242255 171.90698 
L 406.802979 173.430631 
L 407.359755 172.730513 
L 407.912637 173.449219 
L 408.46168 174.34604 
L 409.006936 174.241586 
L 409.548458 175.015351 
L 410.086295 174.993043 
L 410.620499 176.161145 
L 411.151117 174.87606 
L 411.678198 175.660758 
L 412.201788 175.840486 
L 412.721934 176.243431 
L 413.23868 177.572108 
L 413.75207 177.851962 
L 414.262148 178.419281 
L 414.768956 177.730195 
L 415.272537 179.230107 
L 415.77293 181.291202 
L 416.270176 180.982234 
L 416.764314 179.123986 
L 417.255383 180.354863 
L 417.74342 180.433113 
L 418.228464 182.90795 
L 418.710549 180.945829 
L 419.189713 181.382021 
L 419.665991 184.059306 
L 420.139417 183.195634 
L 420.610024 184.148742 
L 421.077847 184.229013 
L 421.542918 183.830146 
L 422.464932 184.719285 
L 422.921938 185.719636 
L 423.376318 185.719636 
L 423.828101 187.003706 
L 424.277317 187.522507 
L 424.723995 186.884951 
L 425.168164 186.930265 
L 425.609852 188.167914 
L 426.049085 188.957942 
L 426.485892 188.975489 
L 426.920299 189.277017 
L 427.352332 189.277017 
L 427.782017 190.063236 
L 428.209379 190.609864 
L 428.634444 189.398034 
L 429.057235 190.174368 
L 429.477778 191.602961 
L 429.896095 191.347268 
L 430.726148 193.833139 
L 431.547577 191.037617 
L 431.955114 193.758786 
L 432.36056 193.366292 
L 432.763937 193.723622 
L 433.165267 194.699322 
L 433.56457 193.703779 
L 433.961867 195.413063 
L 434.357177 195.698064 
L 434.75052 197.316167 
L 435.141916 195.136271 
L 435.531384 197.010081 
L 435.918943 197.1501 
L 436.688407 196.445769 
L 437.070349 195.41446 
L 437.450455 199.076767 
L 437.828742 197.89952 
L 438.205227 199.840168 
L 438.579929 200.536559 
L 438.952863 198.396481 
L 439.324046 198.567773 
L 439.693494 201.011717 
L 440.061224 199.72126 
L 440.427252 200.023828 
L 440.791593 202.265492 
L 441.154262 201.697089 
L 441.874649 201.161231 
L 442.232395 202.142042 
L 442.58853 201.343894 
L 442.943068 201.588071 
L 443.296023 202.524318 
L 443.64741 201.996218 
L 443.997241 202.226001 
L 444.345532 203.163573 
L 444.692295 202.844303 
L 445.381291 202.726019 
L 445.723551 204.479535 
L 446.403657 202.807888 
L 446.741528 203.685233 
L 447.077962 205.602476 
L 447.41297 203.590383 
L 447.746565 204.09981 
L 448.078758 203.980902 
L 448.409561 204.409238 
L 448.738986 205.747497 
L 449.067044 205.699423 
L 449.393746 206.86448 
L 449.719104 204.233761 
L 450.043128 205.442617 
L 450.36583 207.319463 
L 450.68722 206.515159 
L 451.007309 206.86448 
L 451.326107 207.911165 
L 451.643625 207.220816 
L 451.959873 207.566741 
L 452.274861 208.773346 
L 452.588598 208.982607 
L 452.901096 208.009945 
L 453.212364 208.223425 
L 453.522411 207.382994 
L 454.445322 209.906996 
L 454.75058 209.256803 
L 455.054665 209.865117 
L 455.357584 209.695574 
L 455.659347 210.27072 
L 455.959963 210.031446 
L 456.25944 208.902056 
L 456.557787 212.07121 
L 456.855012 211.567326 
L 457.151124 212.3127 
L 457.446131 210.831385 
L 457.740042 212.608247 
L 458.032863 212.030308 
L 458.324605 212.3127 
L 458.615274 211.864764 
L 458.904878 213.201856 
L 459.193425 213.283471 
L 459.480923 212.3127 
L 459.767379 212.82489 
L 460.052801 213.910422 
L 460.337197 216.356554 
L 460.620573 211.610439 
L 460.902937 213.910422 
L 461.184296 214.676449 
L 461.464657 215.032987 
L 461.744028 216.153922 
L 462.022415 213.83446 
L 462.299825 216.748297 
L 462.576265 214.346886 
L 462.851742 217.049565 
L 463.126263 216.6326 
L 463.399834 213.796231 
L 463.672461 216.671335 
L 463.944151 215.148684 
L 464.484747 218.590368 
L 465.021672 215.148684 
L 465.288773 216.862488 
L 465.554974 216.937799 
L 465.820283 219.117694 
L 466.084704 216.824589 
L 466.348244 216.593692 
L 466.610908 217.482917 
L 466.872702 217.376569 
L 467.393705 219.298599 
L 467.652924 215.812549 
L 467.911296 218.820256 
L 468.168827 218.820256 
L 468.425521 219.615115 
L 468.681385 219.440684 
L 468.936423 224.787447 
L 469.190642 219.649589 
L 469.444045 219.190504 
L 469.696639 219.475849 
L 469.948429 219.405378 
L 470.199419 219.649589 
L 470.449615 221.714506 
L 470.699021 221.568276 
L 470.947644 222.411188 
L 471.195487 221.893931 
L 471.442555 219.298599 
L 471.688854 219.580505 
L 471.934388 222.477907 
L 472.179161 219.615115 
L 472.42318 231.42548 
L 472.666447 220.183508 
L 472.908968 219.475849 
L 473.150748 222.06976 
L 473.39179 222.411188 
L 473.6321 222.477907 
L 474.110539 221.999851 
L 474.348677 220.151073 
L 474.822812 225.522067 
L 475.058818 220.375638 
L 475.294121 225.833587 
L 475.528726 225.661888 
L 475.762637 220.501426 
L 475.995858 222.772021 
L 476.228393 232.248606 
L 476.460246 219.683928 
L 476.691421 222.8041 
L 476.921922 232.281282 
L 477.151753 222.444611 
L 477.380918 222.962759 
L 477.609421 226.425289 
L 477.837265 222.739825 
L 478.064454 222.544123 
L 478.290993 226.67598 
L 478.516884 222.511078 
L 478.742131 223.025428 
L 478.966739 226.45702 
L 479.19071 223.025428 
L 479.414049 232.313838 
L 479.636759 220.343907 
L 479.858842 223.481696 
L 480.080304 232.346272 
L 480.301148 223.025428 
L 480.521376 232.66419 
L 480.740992 220.898212 
L 480.96 226.167224 
L 480.96 226.167224 
" clip-path="url(#p182c9f8de7)" style="fill: none; stroke: #0000ff; stroke-width: 2.5; stroke-linecap: square"/>
   </g>
   <g id="line2d_56">
    <path d="M 174.567012 76.248866 
L 178.411774 77.622345 
L 182.078205 78.932118 
L 185.582118 80.183833 
L 188.937309 81.382421 
L 192.155892 82.532207 
L 195.248556 83.637011 
L 198.224786 84.700221 
L 201.093029 85.724854 
L 203.86085 86.713613 
L 206.535043 87.668924 
L 209.121735 88.592978 
L 211.626472 89.487754 
L 214.054287 90.355052 
L 216.409766 91.196508 
L 218.697093 92.013619 
L 220.920103 92.807752 
L 223.082313 93.580167 
L 225.18696 94.332018 
L 227.237032 95.064372 
L 229.235286 95.778216 
L 231.184277 96.474461 
L 233.086376 97.153955 
L 234.943787 97.817485 
L 236.758562 98.465784 
L 238.532613 99.099535 
L 240.267729 99.719376 
L 241.965582 100.325907 
L 243.627738 100.919685 
L 245.255669 101.501237 
L 246.850754 102.071055 
L 248.414294 102.629604 
L 249.947512 103.177321 
L 251.451561 103.714618 
L 252.927531 104.241885 
L 254.376452 104.759488 
L 255.799295 105.267775 
L 257.196985 105.767077 
L 258.570394 106.257705 
L 259.920352 106.739956 
L 261.247646 107.21411 
L 262.553025 107.680435 
L 263.837201 108.139186 
L 265.100851 108.590604 
L 266.344621 109.034921 
L 267.569128 109.472356 
L 268.774958 109.903119 
L 269.962674 110.327411 
L 271.13281 110.745424 
L 272.285881 111.157339 
L 273.422376 111.563334 
L 274.542765 111.963574 
L 275.647499 112.358223 
L 276.737009 112.747432 
L 277.811709 113.131351 
L 278.871996 113.510121 
L 279.918251 113.883879 
L 280.950842 114.252755 
L 281.97012 114.616876 
L 282.976425 114.976362 
L 283.970082 115.33133 
L 284.951405 115.681891 
L 285.920697 116.028155 
L 286.87825 116.370225 
L 287.824344 116.708202 
L 288.759251 117.042182 
L 289.683231 117.372259 
L 290.596537 117.698523 
L 291.499414 118.021061 
L 292.392096 118.339957 
L 293.274811 118.655292 
L 294.147779 118.967146 
L 295.011214 119.275594 
L 295.865321 119.58071 
L 296.710299 119.882565 
L 297.546343 120.181227 
L 298.373637 120.476765 
L 299.192365 120.769242 
L 300.002701 121.058722 
L 300.804816 121.345264 
L 301.598875 121.628929 
L 302.385038 121.909772 
L 303.16346 122.187851 
L 303.934293 122.463219 
L 304.697683 122.735927 
L 305.453773 123.006028 
L 306.2027 123.27357 
L 306.944599 123.538601 
L 307.679601 123.801169 
L 308.407834 124.061318 
L 309.129419 124.319093 
L 309.844479 124.574536 
L 310.553129 124.82769 
L 311.255483 125.078594 
L 311.951653 125.32729 
L 312.641747 125.573814 
L 313.325869 125.818206 
L 314.004122 126.060501 
L 314.676606 126.300735 
L 315.343418 126.538943 
" clip-path="url(#p182c9f8de7)" style="fill: none; stroke-dasharray: 2,3.3; stroke-dashoffset: 0; stroke: #0000ff; stroke-opacity: 0.7; stroke-width: 2"/>
   </g>
   <g id="line2d_57">
    <path d="M 47.3219 11.221977 
L 87.70871 7.2 
L 114.310822 17.466887 
L 134.180202 23.563073 
L 150.045595 28.591624 
L 163.253197 29.626958 
L 174.567012 33.770047 
L 184.462639 39.040465 
L 193.256342 34.347418 
L 201.169124 37.528998 
L 214.953822 44.905823 
L 221.038503 40.56432 
L 226.68818 44.488662 
L 231.960922 43.972229 
L 236.903896 45.122546 
L 241.555934 47.500093 
L 245.949388 47.48013 
L 250.111498 46.71194 
L 254.065414 49.400442 
L 257.830975 50.126007 
L 261.425313 52.589776 
L 264.863326 53.085983 
L 271.320941 56.057956 
L 274.362155 54.568363 
L 277.290706 56.477051 
L 280.114643 56.390552 
L 282.841184 58.126266 
L 285.476822 56.030403 
L 288.027425 59.467157 
L 290.498308 59.436443 
L 292.894305 60.505025 
L 295.219821 61.899766 
L 297.478884 60.210152 
L 299.675187 59.952564 
L 301.812123 62.091172 
L 303.892818 62.195364 
L 305.920156 62.823645 
L 307.896804 64.660482 
L 309.825237 66.049682 
L 311.707751 63.862263 
L 313.546481 66.420963 
L 315.343418 68.237338 
L 317.10042 66.427009 
L 318.819223 67.468387 
L 322.148635 67.911512 
L 323.762197 67.854302 
L 325.343487 68.093301 
L 326.893769 71.253323 
L 328.414235 70.602009 
L 329.906012 70.607126 
L 331.370162 73.204237 
L 332.80769 71.015975 
L 334.219546 72.084402 
L 335.606631 72.537315 
L 336.9698 72.136855 
L 338.309863 73.433366 
L 339.62759 73.08887 
L 342.198934 75.515454 
L 343.45391 74.204363 
L 344.689276 76.129734 
L 345.905636 75.293647 
L 347.103565 75.513039 
L 348.283615 76.698662 
L 350.592153 77.841871 
L 351.721627 77.884885 
L 352.835193 78.836217 
L 353.933291 79.383861 
L 355.016347 78.651417 
L 356.084766 78.552213 
L 357.13894 79.936155 
L 358.179242 80.757827 
L 359.206034 80.468727 
L 360.219661 80.829795 
L 361.220457 82.053898 
L 362.208743 81.389199 
L 363.184827 83.268509 
L 364.149008 82.24788 
L 365.101571 83.049068 
L 366.042795 85.078697 
L 366.972945 85.424277 
L 367.892279 83.975443 
L 368.801045 85.855521 
L 369.699485 85.074944 
L 370.58783 86.014512 
L 371.466303 85.497384 
L 372.335124 85.575172 
L 373.1945 86.972973 
L 374.044635 87.530956 
L 374.885726 87.815734 
L 375.717964 86.81522 
L 376.541532 88.392423 
L 377.35661 89.045671 
L 379.752606 90.395984 
L 380.535403 89.514596 
L 381.310525 91.135367 
L 382.078122 91.234101 
L 382.838338 91.991236 
L 383.591313 91.93982 
L 384.337185 92.810475 
L 385.076086 91.650709 
L 385.808145 91.847209 
L 386.533488 92.317362 
L 387.252237 93.32783 
L 387.964511 92.790023 
L 388.670425 95.209609 
L 389.370092 94.963008 
L 390.751119 95.903062 
L 391.432691 96.344495 
L 392.108438 96.214487 
L 392.778457 97.033742 
L 393.442846 95.56778 
L 394.101699 98.105282 
L 394.755106 96.655755 
L 395.403157 97.944964 
L 396.04594 97.883749 
L 396.683539 99.73162 
L 397.316037 97.277512 
L 397.943515 99.498484 
L 398.566052 99.78298 
L 399.183726 99.372635 
L 399.796612 99.377699 
L 400.404783 100.272408 
L 401.008311 101.547293 
L 401.607267 101.236969 
L 402.20172 100.342269 
L 402.791736 101.986212 
L 403.958722 101.787045 
L 404.535818 103.260962 
L 405.108732 102.579693 
L 405.677525 102.434222 
L 406.242255 103.922868 
L 406.802979 104.175894 
L 407.359755 104.845852 
L 407.912637 103.539123 
L 408.46168 105.319327 
L 409.006936 105.666428 
L 409.548458 106.187304 
L 410.086295 105.537112 
L 410.620499 106.413509 
L 411.151117 107.680997 
L 412.201788 106.811449 
L 412.721934 108.861146 
L 413.23868 107.925757 
L 413.75207 108.592942 
L 414.262148 108.730097 
L 414.768956 109.318856 
L 415.272537 108.631048 
L 415.77293 110.26904 
L 416.270176 109.57567 
L 416.764314 110.098977 
L 417.255383 111.88341 
L 417.74342 111.58014 
L 418.228464 111.538054 
L 418.710549 111.664793 
L 419.189713 112.830133 
L 419.665991 111.689385 
L 420.139417 113.83661 
L 420.610024 112.960767 
L 421.077847 114.252145 
L 421.542918 113.232539 
L 422.005269 114.72219 
L 422.464932 114.342662 
L 422.921938 115.921655 
L 423.376318 114.394424 
L 423.828101 114.567959 
L 424.277317 115.082957 
L 424.723995 115.252513 
L 425.609852 116.054999 
L 426.049085 117.046124 
L 426.485892 116.580959 
L 426.920299 117.808172 
L 427.352332 116.610482 
L 427.782017 117.561964 
L 428.209379 117.806332 
L 428.634444 118.394459 
L 429.057235 118.273443 
L 429.477778 119.490046 
L 429.896095 118.993702 
L 430.312211 119.153068 
L 430.726148 119.948512 
L 431.547577 120.066801 
L 432.36056 121.103398 
L 432.763937 121.036912 
L 433.56457 122.354265 
L 433.961867 122.246623 
L 434.357177 122.63532 
L 434.75052 122.236791 
L 435.141916 123.11459 
L 435.918943 123.450187 
L 436.304611 124.492863 
L 436.688407 124.923774 
L 437.070349 124.276936 
L 437.450455 124.609557 
L 438.579929 126.484311 
L 438.952863 126.722069 
L 439.324046 127.640825 
L 439.693494 126.638027 
L 440.427252 127.435325 
L 440.791593 129.288905 
L 441.154262 128.878589 
L 441.515276 129.278664 
L 441.874649 128.322814 
L 442.232395 128.8073 
L 442.58853 130.159754 
L 442.943068 129.447695 
L 443.296023 129.781707 
L 443.997241 131.920874 
L 444.345532 130.303194 
L 444.692295 131.540749 
L 445.037544 131.062506 
L 445.723551 132.519208 
L 446.064335 132.020575 
L 446.741528 133.907872 
L 447.077962 133.108961 
L 447.41297 133.639281 
L 447.746565 133.894384 
L 448.078758 134.699865 
L 448.409561 133.795665 
L 448.738986 135.088465 
L 449.067044 134.680604 
L 449.393746 134.963554 
L 449.719104 133.781175 
L 450.043128 136.589644 
L 450.36583 135.745321 
L 450.68722 136.772963 
L 451.007309 136.300127 
L 451.326107 137.728557 
L 451.643625 136.768231 
L 451.959873 138.147534 
L 452.274861 137.680069 
L 452.588598 137.963788 
L 452.901096 137.199205 
L 453.212364 138.668191 
L 453.522411 137.963788 
L 453.831246 139.862557 
L 454.13888 139.432394 
L 454.445322 137.854798 
L 454.75058 139.567619 
L 455.357584 141.019851 
L 455.659347 141.036227 
L 455.959963 139.150796 
L 456.25944 142.006852 
L 456.557787 141.618625 
L 456.855012 141.680974 
L 457.151124 142.426349 
L 457.446131 141.054023 
L 457.740042 141.747515 
L 458.032863 142.749271 
L 458.324605 140.990733 
L 458.615274 141.596892 
L 458.904878 144.101724 
L 459.480923 142.233515 
L 459.767379 145.324371 
L 460.052801 144.569903 
L 460.337197 143.379967 
L 460.620573 143.929015 
L 460.902937 145.05745 
L 461.184296 145.257243 
L 461.464657 145.613781 
L 461.744028 145.413653 
L 462.299825 146.295712 
L 462.851742 146.030746 
L 463.399834 147.551218 
L 463.944151 146.59315 
L 464.753665 148.816381 
L 465.021672 147.895324 
L 465.288773 148.741071 
L 465.554974 148.816381 
L 465.820283 148.665109 
L 466.084704 149.929385 
L 466.348244 149.270423 
L 466.610908 150.159647 
L 466.872702 150.481364 
L 467.133633 149.54111 
L 467.652924 150.966983 
L 467.911296 150.891672 
L 468.168827 150.417309 
L 468.425521 150.762143 
L 468.681385 152.013585 
L 468.936423 151.81086 
L 469.190642 151.246642 
L 469.444045 152.2953 
L 469.696639 150.622877 
L 469.948429 152.510173 
L 470.199419 152.754384 
L 470.449615 153.466848 
L 470.699021 152.715304 
L 470.947644 152.460086 
L 471.195487 153.040959 
L 471.442555 154.927396 
L 471.688854 152.685301 
L 472.179161 153.286144 
L 472.42318 154.891512 
L 472.666447 155.110044 
L 472.908968 152.580644 
L 473.150748 155.937957 
L 473.39179 154.813722 
L 473.6321 154.880441 
L 473.871681 156.041787 
L 474.348677 154.427417 
L 474.822812 156.669094 
L 475.294121 155.381002 
L 475.528726 155.972704 
L 475.762637 156.130223 
L 475.995858 155.876817 
L 476.228393 158.23864 
L 476.460246 155.312725 
L 476.691421 157.508508 
L 476.921922 156.510716 
L 477.151753 157.149019 
L 477.380918 156.830955 
L 477.837265 156.608021 
L 478.064454 158.17292 
L 478.290993 156.986796 
L 478.516884 157.215486 
L 478.742131 158.654224 
L 478.966739 158.528436 
L 479.19071 157.729836 
L 479.414049 157.379483 
L 479.636759 158.496705 
L 479.858842 157.349892 
L 480.080304 159.369685 
L 480.301148 157.729836 
L 480.521376 157.729836 
L 480.740992 160.084389 
L 480.96 159.272019 
L 480.96 159.272019 
" clip-path="url(#p182c9f8de7)" style="fill: none; stroke: #ff0000; stroke-width: 2.5; stroke-linecap: square"/>
   </g>
   <g id="line2d_58">
    <path d="M 174.567012 32.042045 
L 178.411774 32.949479 
L 182.078205 33.814823 
L 185.582118 34.64181 
L 188.937309 35.433696 
L 192.155892 36.193341 
L 195.248556 36.923266 
L 198.224786 37.62571 
L 201.093029 38.302668 
L 203.86085 38.955924 
L 206.535043 39.587082 
L 209.121735 40.197588 
L 211.626472 40.788752 
L 214.054287 41.36176 
L 216.409766 41.917696 
L 218.697093 42.457547 
L 220.920103 42.982217 
L 223.082313 43.492538 
L 225.18696 43.989274 
L 227.237032 44.473128 
L 229.235286 44.944752 
L 231.184277 45.404749 
L 233.086376 45.853679 
L 234.943787 46.292062 
L 236.758562 46.720382 
L 238.532613 47.13909 
L 240.267729 47.548609 
L 241.965582 47.949333 
L 243.627738 48.341632 
L 245.255669 48.725854 
L 246.850754 49.102323 
L 248.414294 49.471347 
L 249.947512 49.833214 
L 251.451561 50.188197 
L 252.927531 50.536553 
L 254.376452 50.878524 
L 255.799295 51.214341 
L 257.196985 51.544221 
L 258.570394 51.868371 
L 259.920352 52.186986 
L 261.247646 52.500251 
L 262.553025 52.808344 
L 263.837201 53.111433 
L 265.100851 53.409678 
L 266.344621 53.70323 
L 267.569128 53.992236 
L 268.774958 54.276834 
L 269.962674 54.557156 
L 271.13281 54.83333 
L 272.285881 55.105475 
L 273.422376 55.373709 
L 274.542765 55.638141 
L 275.647499 55.898878 
L 276.737009 56.156023 
L 277.811709 56.409671 
L 278.871996 56.659918 
L 279.918251 56.906854 
L 280.950842 57.150564 
L 281.97012 57.391132 
L 282.976425 57.628638 
L 283.970082 57.863159 
L 284.951405 58.094769 
L 285.920697 58.32354 
L 286.87825 58.54954 
L 287.824344 58.772835 
L 288.759251 58.99349 
L 289.683231 59.211566 
L 290.596537 59.427123 
L 291.499414 59.640219 
L 292.392096 59.850908 
L 293.274811 60.059245 
L 294.147779 60.265281 
L 295.011214 60.469067 
L 295.865321 60.670652 
L 296.710299 60.870082 
L 297.546343 61.067404 
L 298.373637 61.26266 
L 299.192365 61.455895 
L 300.002701 61.647149 
L 300.804816 61.836463 
L 301.598875 62.023875 
L 302.385038 62.209424 
L 303.16346 62.393146 
L 303.934293 62.575076 
L 304.697683 62.75525 
L 305.453773 62.933701 
L 306.2027 63.110462 
L 306.944599 63.285563 
L 307.679601 63.459037 
L 308.407834 63.630913 
L 309.129419 63.801221 
L 309.844479 63.969988 
L 310.553129 64.137242 
L 311.255483 64.30301 
L 311.951653 64.467319 
L 312.641747 64.630194 
L 313.325869 64.791659 
L 314.004122 64.951739 
L 314.676606 65.110458 
L 315.343418 65.267837 
" clip-path="url(#p182c9f8de7)" style="fill: none; stroke-dasharray: 2,3.3; stroke-dashoffset: 0; stroke: #ff0000; stroke-opacity: 0.7; stroke-width: 2"/>
   </g>
   <g id="line2d_59">
    <path d="M 47.3219 56.422353 
L 87.70871 52.99915 
L 114.310822 46.233733 
L 134.180202 55.434938 
L 150.045595 65.638893 
L 163.253197 66.58827 
L 174.567012 71.990392 
L 184.462639 73.023824 
L 193.256342 73.066902 
L 201.169124 74.701104 
L 208.361519 73.86983 
L 214.953822 80.570963 
L 221.038503 80.371518 
L 226.68818 80.476689 
L 231.960922 84.617188 
L 236.903896 88.130251 
L 241.555934 86.018302 
L 245.949388 86.763397 
L 250.111498 87.021863 
L 254.065414 88.986598 
L 257.830975 91.02868 
L 261.425313 89.572285 
L 264.863326 90.137912 
L 268.158046 93.600997 
L 271.320941 96.720457 
L 274.362155 94.987795 
L 277.290706 94.115485 
L 280.114643 95.801991 
L 282.841184 95.118257 
L 285.476822 97.757504 
L 288.027425 98.338493 
L 290.498308 101.709254 
L 292.894305 98.420618 
L 295.219821 98.436848 
L 297.478884 103.065076 
L 301.812123 102.760766 
L 303.892818 103.653551 
L 307.896804 105.646359 
L 309.825237 105.074722 
L 311.707751 105.229709 
L 313.546481 105.635506 
L 315.343418 107.67472 
L 317.10042 107.355761 
L 318.819223 107.564685 
L 320.501454 108.321969 
L 323.762197 110.867685 
L 325.343487 110.068169 
L 326.893769 110.888339 
L 328.414235 113.397929 
L 329.906012 110.859539 
L 331.370162 112.64899 
L 332.80769 113.573341 
L 334.219546 115.654189 
L 335.606631 113.981651 
L 336.9698 115.990944 
L 339.62759 115.090243 
L 340.923715 116.040277 
L 342.198934 117.342123 
L 343.45391 116.664164 
L 344.689276 118.937878 
L 345.905636 118.767696 
L 347.103565 119.198825 
L 348.283615 117.560731 
L 349.44631 119.29099 
L 350.592153 121.332414 
L 351.721627 121.510706 
L 352.835193 121.56369 
L 353.933291 122.725653 
L 355.016347 122.875872 
L 356.084766 122.737944 
L 357.13894 124.441974 
L 358.179242 124.779791 
L 359.206034 124.088145 
L 360.219661 124.175222 
L 361.220457 125.069731 
L 362.208743 126.622323 
L 363.184827 124.781042 
L 364.149008 125.714048 
L 365.101571 127.813981 
L 366.042795 129.050342 
L 367.892279 128.254357 
L 368.801045 128.464146 
L 369.699485 129.495391 
L 370.58783 129.544302 
L 371.466303 131.929822 
L 372.335124 131.487808 
L 373.1945 131.624615 
L 374.044635 132.978558 
L 374.885726 131.866805 
L 375.717964 133.070854 
L 376.541532 133.42782 
L 377.35661 134.303251 
L 378.16337 133.877727 
L 379.752606 135.821199 
L 380.535403 134.551349 
L 381.310525 136.030868 
L 382.078122 135.566401 
L 382.838338 135.690052 
L 383.591313 138.528703 
L 384.337185 138.979712 
L 385.076086 138.573984 
L 385.808145 139.886284 
L 386.533488 139.089404 
L 387.252237 140.620249 
L 387.964511 139.354919 
L 388.670425 140.156465 
L 389.370092 141.299768 
L 390.063621 140.916822 
L 390.751119 140.771783 
L 391.432691 142.431834 
L 392.108438 142.830886 
L 392.778457 142.06977 
L 393.442846 141.950218 
L 394.101699 143.504497 
L 394.755106 143.878372 
L 395.403157 142.780492 
L 396.04594 143.441745 
L 396.683539 145.453358 
L 397.316037 145.149451 
L 397.943515 144.413228 
L 398.566052 146.40683 
L 399.796612 145.678988 
L 400.404783 147.944789 
L 401.008311 147.229952 
L 401.607267 148.852964 
L 402.20172 148.699448 
L 402.791736 149.721314 
L 403.377382 150.114006 
L 403.958722 149.551429 
L 404.535818 149.833885 
L 405.108732 150.704259 
L 405.677525 150.531727 
L 406.242255 152.328304 
L 406.802979 151.883428 
L 407.359755 152.142884 
L 408.46168 153.11304 
L 409.006936 152.031911 
L 409.548458 153.627899 
L 410.620499 154.533357 
L 411.151117 154.75587 
L 411.678198 155.968999 
L 412.201788 155.381538 
L 412.721934 156.897093 
L 413.23868 157.092623 
L 413.75207 156.688795 
L 414.262148 157.812982 
L 414.768956 157.936427 
L 415.272537 158.445357 
L 415.77293 158.213981 
L 416.270176 159.752212 
L 416.764314 160.111011 
L 417.74342 160.251391 
L 418.228464 160.782296 
L 418.710549 160.335768 
L 419.665991 162.009219 
L 420.139417 162.232604 
L 420.610024 162.040992 
L 421.077847 163.351875 
L 421.542918 163.007333 
L 422.005269 164.514279 
L 422.464932 165.079571 
L 422.921938 165.280125 
L 423.376318 165.280125 
L 423.828101 165.658899 
L 424.277317 167.189966 
L 424.723995 165.422214 
L 425.168164 167.168958 
L 425.609852 166.971701 
L 426.049085 167.71708 
L 426.920299 168.238891 
L 427.352332 168.463291 
L 427.782017 169.381188 
L 428.209379 169.277624 
L 428.634444 169.393286 
L 429.057235 170.053817 
L 429.477778 171.276596 
L 429.896095 170.596826 
L 430.312211 172.204418 
L 430.726148 172.284106 
L 431.13793 171.944441 
L 431.547577 172.05913 
L 431.955114 172.917828 
L 432.36056 172.876694 
L 432.763937 174.643263 
L 433.165267 174.047382 
L 433.56457 175.101477 
L 433.961867 175.037409 
L 434.75052 175.711807 
L 435.141916 176.569134 
L 435.531384 176.368173 
L 435.918943 177.398212 
L 436.304611 176.701302 
L 436.688407 177.277234 
L 437.070349 178.769926 
L 437.450455 178.810103 
L 437.828742 180.076586 
L 438.205227 179.638254 
L 438.579929 180.724646 
L 438.952863 180.304922 
L 439.324046 179.355479 
L 439.693494 181.969422 
L 440.061224 180.826921 
L 440.427252 182.666656 
L 440.791593 183.571319 
L 441.154262 182.654794 
L 441.515276 182.449555 
L 441.874649 183.101799 
L 442.232395 182.756864 
L 442.58853 183.691449 
L 442.943068 184.180135 
L 443.296023 185.001694 
L 443.64741 182.765236 
L 443.997241 184.665856 
L 444.345532 184.919426 
L 444.692295 185.633536 
L 445.037544 185.3813 
L 445.381291 186.268164 
L 445.723551 186.235388 
L 446.064335 187.210871 
L 447.077962 187.677404 
L 447.41297 187.243287 
L 447.746565 188.379665 
L 448.078758 187.227378 
L 448.409561 188.062142 
L 448.738986 187.822425 
L 449.067044 188.060591 
L 449.393746 189.695994 
L 449.719104 189.418911 
L 450.043128 189.722472 
L 450.36583 189.075316 
L 450.68722 190.602181 
L 451.007309 190.922207 
L 451.326107 191.929102 
L 451.643625 191.278543 
L 451.959873 190.922207 
L 452.274861 192.791284 
L 452.588598 192.696228 
L 452.901096 191.815437 
L 453.212364 193.004763 
L 453.522411 192.696228 
L 453.831246 191.62097 
L 454.13888 193.148574 
L 454.445322 192.587238 
L 454.75058 194.141973 
L 455.054665 193.578738 
L 455.357584 193.409195 
L 456.25944 195.975891 
L 456.557787 195.648804 
L 456.855012 193.889413 
L 457.151124 195.890294 
L 457.446131 195.442357 
L 457.740042 195.716554 
L 458.032863 194.352395 
L 458.324605 196.592555 
L 458.615274 195.442357 
L 458.904878 197.073564 
L 459.193425 196.391778 
L 459.480923 196.592555 
L 459.767379 197.532809 
L 460.052801 196.316468 
L 460.337197 199.036796 
L 460.620573 197.489907 
L 460.902937 198.618342 
L 461.184296 198.031915 
L 461.464657 198.388453 
L 461.744028 199.867543 
L 462.022415 200.500147 
L 462.299825 197.667939 
L 462.576265 199.66012 
L 462.851742 199.729808 
L 463.126263 200.346221 
L 463.399834 200.461918 
L 463.672461 199.351577 
L 463.944151 199.428539 
L 464.214911 200.65142 
L 464.484747 200.346221 
L 464.753665 200.65142 
L 465.021672 202.98592 
L 465.288773 200.576109 
L 465.554974 200.65142 
L 465.820283 200.873547 
L 466.084704 203.062212 
L 466.348244 202.831315 
L 466.610908 202.368086 
L 466.872702 203.614192 
L 467.133633 201.321484 
L 467.393705 203.578454 
L 467.652924 203.649784 
L 467.911296 203.100111 
L 468.168827 203.100111 
L 468.425521 205.494583 
L 468.681385 205.320152 
L 468.936423 202.98592 
L 469.190642 207.486825 
L 469.444045 205.069972 
L 469.696639 205.355317 
L 469.948429 203.685233 
L 470.199419 207.486825 
L 470.449615 207.02774 
L 470.699021 204.923742 
L 470.947644 204.167041 
L 471.195487 205.249397 
L 471.442555 207.135835 
L 471.688854 207.417741 
L 471.934388 205.833373 
L 472.179161 205.494583 
L 472.42318 209.623952 
L 472.666447 206.062975 
L 472.908968 209.837086 
L 473.150748 205.425226 
L 473.39179 207.724422 
L 473.6321 207.791141 
L 473.871681 203.929444 
L 474.110539 209.837086 
L 474.348677 206.030541 
L 474.5861 207.890279 
L 474.822812 207.27792 
L 475.058818 208.212873 
L 475.294121 210.113442 
L 475.528726 209.941743 
L 475.762637 208.338661 
L 476.228393 207.923077 
L 476.460246 210.045165 
L 476.691421 208.117334 
L 476.921922 210.479755 
L 477.151753 207.757845 
L 477.380918 208.275993 
L 477.609421 208.181142 
L 477.837265 214.134441 
L 478.064454 207.857357 
L 478.290993 210.955835 
L 478.516884 207.824312 
L 478.742131 210.862663 
L 478.966739 208.212873 
L 479.19071 208.338661 
L 479.414049 207.988309 
L 479.636759 214.262524 
L 479.858842 208.794929 
L 480.080304 210.544745 
L 480.301148 208.338661 
L 480.521376 210.862663 
L 480.740992 208.735447 
L 480.96 207.923077 
L 480.96 207.923077 
" clip-path="url(#p182c9f8de7)" style="fill: none; stroke: #008000; stroke-width: 2.5; stroke-linecap: square"/>
   </g>
   <g id="line2d_60">
    <path d="M 174.567012 68.431595 
L 178.411774 69.459354 
L 182.078205 70.439442 
L 185.582118 71.376086 
L 188.937309 72.272975 
L 192.155892 73.133347 
L 195.248556 73.960059 
L 198.224786 74.755647 
L 201.093029 75.522368 
L 203.86085 76.262245 
L 206.535043 76.977094 
L 209.121735 77.668553 
L 211.626472 78.338104 
L 214.054287 78.987092 
L 216.409766 79.616744 
L 218.697093 80.228179 
L 220.920103 80.82242 
L 223.082313 81.400409 
L 225.18696 81.963011 
L 227.237032 82.511023 
L 229.235286 83.045184 
L 231.184277 83.566177 
L 233.086376 84.074634 
L 234.943787 84.571146 
L 236.758562 85.05626 
L 238.532613 85.530489 
L 240.267729 85.994309 
L 241.965582 86.448169 
L 243.627738 86.892486 
L 245.255669 87.327655 
L 246.850754 87.754043 
L 248.414294 88.171999 
L 249.947512 88.58185 
L 251.451561 88.983903 
L 252.927531 89.37845 
L 254.376452 89.765767 
L 255.799295 90.146113 
L 257.196985 90.519735 
L 258.570394 90.886866 
L 259.920352 91.247728 
L 261.247646 91.602533 
L 262.553025 91.951478 
L 263.837201 92.294756 
L 265.100851 92.632548 
L 266.344621 92.965025 
L 267.569128 93.292352 
L 268.774958 93.614688 
L 269.962674 93.93218 
L 271.13281 94.244974 
L 272.285881 94.553206 
L 273.422376 94.857007 
L 274.542765 95.156502 
L 275.647499 95.451813 
L 276.737009 95.743054 
L 277.811709 96.030336 
L 278.871996 96.313766 
L 279.918251 96.593445 
L 280.950842 96.86947 
L 281.97012 97.141938 
L 282.976425 97.410937 
L 283.970082 97.676555 
L 284.951405 97.938876 
L 285.920697 98.197982 
L 286.87825 98.453949 
L 287.824344 98.706853 
L 288.759251 98.956766 
L 289.683231 99.203759 
L 290.596537 99.447899 
L 291.499414 99.68925 
L 292.392096 99.927876 
L 293.274811 100.163838 
L 294.147779 100.397195 
L 295.011214 100.628003 
L 295.865321 100.856318 
L 296.710299 101.082192 
L 297.546343 101.305678 
L 298.373637 101.526826 
L 299.192365 101.745683 
L 300.002701 101.962297 
L 300.804816 102.176713 
L 301.598875 102.388976 
L 302.385038 102.599129 
L 303.16346 102.807212 
L 303.934293 103.013266 
L 304.697683 103.217331 
L 305.453773 103.419444 
L 306.2027 103.619643 
L 306.944599 103.817963 
L 307.679601 104.014439 
L 308.407834 104.209106 
L 309.129419 104.401995 
L 309.844479 104.593141 
L 310.553129 104.782573 
L 311.255483 104.970322 
L 311.951653 105.156418 
L 312.641747 105.340889 
L 313.325869 105.523765 
L 314.004122 105.705071 
L 314.676606 105.884835 
L 315.343418 106.063084 
" clip-path="url(#p182c9f8de7)" style="fill: none; stroke-dasharray: 2,3.3; stroke-dashoffset: 0; stroke: #008000; stroke-opacity: 0.7; stroke-width: 2"/>
   </g>
   <g id="line2d_61">
    <path d="M 47.3219 18.130871 
L 480.96 194.575655 
L 480.96 194.575655 
" clip-path="url(#p182c9f8de7)" style="fill: none; stroke-dasharray: 12.95,5.6; stroke-dashoffset: 0; stroke: #000000; stroke-width: 3.5"/>
   </g>
   <g id="patch_3">
    <path d="M 47.3219 232.66419 
L 47.3219 7.2 
" style="fill: none; stroke: #000000; stroke-linejoin: miter; stroke-linecap: square"/>
   </g>
   <g id="patch_4">
    <path d="M 480.96 232.66419 
L 480.96 7.2 
" style="fill: none; stroke: #000000; stroke-linejoin: miter; stroke-linecap: square"/>
   </g>
   <g id="patch_5">
    <path d="M 47.3219 232.66419 
L 480.96 232.66419 
" style="fill: none; stroke: #000000; stroke-linejoin: miter; stroke-linecap: square"/>
   </g>
   <g id="patch_6">
    <path d="M 47.3219 7.2 
L 480.96 7.2 
" style="fill: none; stroke: #000000; stroke-linejoin: miter; stroke-linecap: square"/>
   </g>
   <g id="legend_1">
    <g id="line2d_62">
     <path d="M 59.9219 95.379992 
L 73.9219 95.379992 
L 87.9219 95.379992 
" style="fill: none; stroke: #0000ff; stroke-width: 2.5; stroke-linecap: square"/>
    </g>
    <g id="text_11">
     <!-- $M_s=1,\ M_A=0.8$ -->
     <g transform="translate(99.1219 100.279992) scale(0.14 -0.14)">
      <defs>
       <path id="CMMI12-4d" d="M 5811 3886 
C 5869 4103 5882 4167 6336 4167 
C 6458 4167 6515 4167 6515 4288 
C 6515 4352 6470 4352 6349 4352 
L 5581 4352 
C 5421 4352 5414 4346 5344 4243 
L 3008 562 
L 2528 4211 
C 2509 4352 2502 4352 2336 4352 
L 1542 4352 
C 1421 4352 1363 4352 1363 4231 
C 1363 4167 1421 4167 1517 4167 
C 1907 4167 1907 4116 1907 4046 
C 1907 4034 1907 3995 1882 3899 
L 1062 634 
C 986 327 838 186 410 186 
C 390 186 314 186 314 73 
C 314 0 371 0 397 0 
C 525 0 851 0 979 0 
L 1286 0 
C 1376 0 1485 0 1574 0 
C 1619 0 1690 0 1690 122 
C 1690 180 1626 186 1600 186 
C 1389 186 1184 224 1184 454 
C 1184 518 1184 524 1210 613 
L 2093 4129 
L 2099 4129 
L 2630 172 
C 2650 19 2656 0 2714 0 
C 2784 0 2816 51 2848 109 
L 5421 4161 
L 5427 4161 
L 4499 473 
C 4442 250 4429 186 3981 186 
C 3859 186 3795 186 3795 70 
C 3795 0 3853 0 3891 0 
C 4000 0 4128 0 4237 0 
L 4992 0 
C 5101 0 5235 0 5344 0 
C 5395 0 5466 0 5466 122 
C 5466 186 5408 186 5312 186 
C 4922 186 4922 234 4922 294 
C 4922 301 4922 345 4934 396 
L 5811 3886 
z
" transform="scale(0.015625)"/>
       <path id="CMMI12-73" d="M 1459 1280 
C 1568 1261 1741 1223 1779 1216 
C 1862 1192 2150 1090 2150 783 
C 2150 586 1971 70 1229 70 
C 1094 70 614 70 486 436 
C 742 404 870 603 870 745 
C 870 880 781 950 653 950 
C 512 950 326 841 326 552 
C 326 173 710 -64 1222 -64 
C 2195 -64 2483 651 2483 984 
C 2483 1079 2483 1258 2278 1462 
C 2118 1616 1965 1648 1619 1718 
C 1446 1756 1171 1814 1171 2101 
C 1171 2229 1286 2689 1894 2689 
C 2163 2689 2426 2589 2490 2368 
C 2208 2368 2195 2125 2195 2119 
C 2195 1984 2317 1946 2374 1946 
C 2464 1946 2643 2015 2643 2281 
C 2643 2545 2400 2816 1901 2816 
C 1062 2816 838 2160 838 1899 
C 838 1414 1312 1312 1459 1280 
z
" transform="scale(0.015625)"/>
       <path id="CMR17-3d" d="M 4115 2017 
C 4211 2017 4307 2017 4307 2125 
C 4307 2240 4198 2240 4090 2240 
L 512 2240 
C 403 2240 294 2240 294 2125 
C 294 2017 390 2017 486 2017 
L 4115 2017 
z
M 4090 896 
C 4198 896 4307 896 4307 1011 
C 4307 1119 4211 1119 4115 1119 
L 486 1119 
C 390 1119 294 1119 294 1011 
C 294 896 403 896 512 896 
L 4090 896 
z
" transform="scale(0.015625)"/>
       <path id="CMMI12-3b" d="M 1248 -31 
C 1248 343 1126 619 864 619 
C 659 619 557 453 557 313 
C 557 172 653 0 870 0 
C 954 0 1024 26 1082 83 
C 1094 96 1101 96 1107 96 
C 1120 96 1120 5 1120 -27 
C 1120 -240 1082 -659 710 -1080 
C 640 -1157 640 -1170 640 -1183 
C 640 -1216 672 -1248 704 -1248 
C 755 -1248 1248 -771 1248 -31 
z
" transform="scale(0.015625)"/>
       <path id="CMMI12-41" d="M 1088 691 
C 864 314 646 186 339 186 
C 269 180 218 180 218 58 
C 218 24 250 0 294 0 
C 410 0 698 0 813 0 
C 998 0 1203 0 1382 0 
C 1421 0 1498 0 1498 122 
C 1498 180 1446 186 1408 186 
C 1261 186 1139 236 1139 388 
C 1139 476 1178 546 1261 685 
L 1747 1479 
L 3379 1479 
C 3386 1423 3386 1373 3392 1316 
C 3411 1152 3488 495 3488 376 
C 3488 186 3162 186 3059 186 
C 2989 186 2918 186 2918 70 
C 2918 0 2976 0 3014 0 
C 3123 0 3251 0 3360 0 
L 3725 0 
C 4115 0 4397 0 4403 0 
C 4448 0 4518 0 4518 122 
C 4518 186 4461 186 4365 186 
C 4013 186 4006 244 3987 434 
L 3597 4404 
C 3584 4531 3558 4544 3488 4544 
C 3424 4544 3386 4531 3328 4435 
L 1088 691 
z
M 1856 1664 
L 3142 3819 
L 3360 1664 
L 1856 1664 
z
" transform="scale(0.015625)"/>
       <path id="CMMI12-3a" d="M 1178 307 
C 1178 492 1024 619 870 619 
C 685 619 557 466 557 313 
C 557 128 710 0 864 0 
C 1050 0 1178 153 1178 307 
z
" transform="scale(0.015625)"/>
      </defs>
      <use xlink:href="#CMMI12-4d" transform="scale(0.996264)"/>
      <use xlink:href="#CMMI12-73" transform="translate(94.373425 -14.943915) scale(0.697382)"/>
      <use xlink:href="#CMR17-3d" transform="translate(154.710455 0) scale(0.996264)"/>
      <use xlink:href="#CMR17-31" transform="translate(254.099252 0) scale(0.996264)"/>
      <use xlink:href="#CMMI12-3b" transform="translate(299.789729 0) scale(0.996264)"/>
      <use xlink:href="#CMMI12-4d" transform="translate(373.567278 0) scale(0.996264)"/>
      <use xlink:href="#CMMI12-41" transform="translate(467.940703 -14.943915) scale(0.697382)"/>
      <use xlink:href="#CMR17-3d" transform="translate(547.30214 0) scale(0.996264)"/>
      <use xlink:href="#CMR17-30" transform="translate(646.690937 0) scale(0.996264)"/>
      <use xlink:href="#CMMI12-3a" transform="translate(692.381414 0) scale(0.996264)"/>
      <use xlink:href="#CMR17-38" transform="translate(719.478591 0) scale(0.996264)"/>
     </g>
    </g>
    <g id="line2d_63">
     <path d="M 59.9219 114.89202 
L 73.9219 114.89202 
L 87.9219 114.89202 
" style="fill: none; stroke-dasharray: 2,3.3; stroke-dashoffset: 0; stroke: #0000ff; stroke-opacity: 0.7; stroke-width: 2"/>
    </g>
    <g id="text_12">
     <!-- $\propto k^{-3.22}$ -->
     <g transform="translate(99.1219 119.79202) scale(0.14 -0.14)">
      <defs>
       <path id="CMSY10-2f" d="M 4621 205 
C 4595 205 4493 192 4474 192 
C 3968 192 3629 691 3411 1024 
C 3347 1133 3174 1395 3104 1504 
C 3258 1850 3686 2643 4448 2643 
C 4493 2643 4550 2643 4621 2624 
C 4621 2790 4614 2797 4602 2810 
C 4557 2822 4461 2829 4403 2829 
C 3590 2829 3117 2048 2963 1728 
C 2707 2118 2618 2259 2381 2458 
C 1990 2797 1638 2829 1478 2829 
C 768 2829 358 2112 358 1376 
C 358 659 755 -70 1459 -70 
C 2272 -70 2746 710 2899 1030 
C 3155 640 3245 499 3482 301 
C 3872 -38 4224 -70 4384 -70 
C 4461 -70 4563 -58 4621 -44 
L 4621 205 
z
M 2758 1254 
C 2605 909 2176 115 1414 115 
C 794 115 499 794 499 1376 
C 499 2010 858 2566 1389 2566 
C 1894 2566 2234 2067 2451 1734 
C 2515 1626 2688 1363 2758 1254 
z
" transform="scale(0.015625)"/>
       <path id="CMSY10-0" d="M 4218 1472 
C 4326 1472 4442 1472 4442 1600 
C 4442 1728 4326 1728 4218 1728 
L 755 1728 
C 646 1728 531 1728 531 1600 
C 531 1472 646 1472 755 1472 
L 4218 1472 
z
" transform="scale(0.015625)"/>
      </defs>
      <use xlink:href="#CMSY10-2f" transform="scale(0.996264)"/>
      <use xlink:href="#CMMI12-6b" transform="translate(105.161476 0) scale(0.996264)"/>
      <use xlink:href="#CMSY10-0" transform="translate(159.240677 36.153639) scale(0.697382)"/>
      <use xlink:href="#CMR17-33" transform="translate(213.48167 36.153639) scale(0.697382)"/>
      <use xlink:href="#CMMI12-3a" transform="translate(245.464852 36.153639) scale(0.697382)"/>
      <use xlink:href="#CMR17-32" transform="translate(264.432785 36.153639) scale(0.697382)"/>
      <use xlink:href="#CMR17-32" transform="translate(296.415967 36.153639) scale(0.697382)"/>
     </g>
    </g>
    <g id="line2d_64">
     <path d="M 59.9219 134.404048 
L 73.9219 134.404048 
L 87.9219 134.404048 
" style="fill: none; stroke: #ff0000; stroke-width: 2.5; stroke-linecap: square"/>
    </g>
    <g id="text_13">
     <!-- $M_s=10,\ M_A=0.8,\ t=0.25$ -->
     <g transform="translate(99.1219 139.304048) scale(0.14 -0.14)">
      <defs>
       <path id="CMMI12-74" d="M 1286 2566 
L 1875 2566 
C 1997 2566 2061 2566 2061 2681 
C 2061 2752 2022 2752 1894 2752 
L 1331 2752 
L 1568 3692 
C 1594 3781 1594 3794 1594 3840 
C 1594 3943 1510 4000 1427 4000 
C 1376 4000 1229 3981 1178 3775 
L 928 2752 
L 326 2752 
C 198 2752 141 2752 141 2630 
C 141 2566 186 2566 307 2566 
L 877 2566 
L 454 881 
C 403 658 384 594 384 511 
C 384 211 595 -64 954 -64 
C 1600 -64 1946 868 1946 912 
C 1946 951 1920 970 1882 970 
C 1869 970 1843 970 1830 944 
C 1824 938 1818 931 1773 829 
C 1638 511 1344 64 973 64 
C 781 64 768 224 768 364 
C 768 370 768 492 787 568 
L 1286 2566 
z
" transform="scale(0.015625)"/>
       <path id="CMR17-35" d="M 730 3692 
C 794 3666 1056 3584 1325 3584 
C 1920 3584 2246 3911 2432 4100 
C 2432 4157 2432 4192 2394 4192 
C 2387 4192 2374 4192 2323 4163 
C 2099 4058 1837 3973 1517 3973 
C 1325 3973 1037 3999 723 4139 
C 653 4171 640 4171 634 4171 
C 602 4171 595 4164 595 4037 
L 595 2203 
C 595 2089 595 2057 659 2057 
C 691 2057 704 2070 736 2114 
C 941 2401 1222 2522 1542 2522 
C 1766 2522 2246 2382 2246 1289 
C 2246 1085 2246 715 2054 421 
C 1894 159 1645 25 1370 25 
C 947 25 518 320 403 814 
C 429 807 480 795 506 795 
C 589 795 749 840 749 1038 
C 749 1210 627 1280 506 1280 
C 358 1280 262 1190 262 1011 
C 262 454 704 -128 1382 -128 
C 2042 -128 2669 440 2669 1264 
C 2669 2030 2170 2624 1549 2624 
C 1222 2624 947 2503 730 2274 
L 730 3692 
z
" transform="scale(0.015625)"/>
      </defs>
      <use xlink:href="#CMMI12-4d" transform="scale(0.996264)"/>
      <use xlink:href="#CMMI12-73" transform="translate(94.373425 -14.943915) scale(0.697382)"/>
      <use xlink:href="#CMR17-3d" transform="translate(154.710455 0) scale(0.996264)"/>
      <use xlink:href="#CMR17-31" transform="translate(254.099252 0) scale(0.996264)"/>
      <use xlink:href="#CMR17-30" transform="translate(299.789729 0) scale(0.996264)"/>
      <use xlink:href="#CMMI12-3b" transform="translate(345.480206 0) scale(0.996264)"/>
      <use xlink:href="#CMMI12-4d" transform="translate(419.257755 0) scale(0.996264)"/>
      <use xlink:href="#CMMI12-41" transform="translate(513.63118 -14.943915) scale(0.697382)"/>
      <use xlink:href="#CMR17-3d" transform="translate(592.992617 0) scale(0.996264)"/>
      <use xlink:href="#CMR17-30" transform="translate(692.381414 0) scale(0.996264)"/>
      <use xlink:href="#CMMI12-3a" transform="translate(738.071891 0) scale(0.996264)"/>
      <use xlink:href="#CMR17-38" transform="translate(765.169068 0) scale(0.996264)"/>
      <use xlink:href="#CMMI12-3b" transform="translate(810.859545 0) scale(0.996264)"/>
      <use xlink:href="#CMMI12-74" transform="translate(884.637094 0) scale(0.996264)"/>
      <use xlink:href="#CMR17-3d" transform="translate(947.537433 0) scale(0.996264)"/>
      <use xlink:href="#CMR17-30" transform="translate(1046.92623 0) scale(0.996264)"/>
      <use xlink:href="#CMMI12-3a" transform="translate(1092.616707 0) scale(0.996264)"/>
      <use xlink:href="#CMR17-32" transform="translate(1119.713884 0) scale(0.996264)"/>
      <use xlink:href="#CMR17-35" transform="translate(1165.404361 0) scale(0.996264)"/>
     </g>
    </g>
    <g id="line2d_65">
     <path d="M 59.9219 153.916077 
L 73.9219 153.916077 
L 87.9219 153.916077 
" style="fill: none; stroke-dasharray: 2,3.3; stroke-dashoffset: 0; stroke: #ff0000; stroke-opacity: 0.7; stroke-width: 2"/>
    </g>
    <g id="text_14">
     <!-- $\propto k^{-2.13}$ -->
     <g transform="translate(99.1219 158.816077) scale(0.14 -0.14)">
      <use xlink:href="#CMSY10-2f" transform="scale(0.996264)"/>
      <use xlink:href="#CMMI12-6b" transform="translate(105.161476 0) scale(0.996264)"/>
      <use xlink:href="#CMSY10-0" transform="translate(159.240677 36.153639) scale(0.697382)"/>
      <use xlink:href="#CMR17-32" transform="translate(213.48167 36.153639) scale(0.697382)"/>
      <use xlink:href="#CMMI12-3a" transform="translate(245.464852 36.153639) scale(0.697382)"/>
      <use xlink:href="#CMR17-31" transform="translate(264.432785 36.153639) scale(0.697382)"/>
      <use xlink:href="#CMR17-33" transform="translate(296.415967 36.153639) scale(0.697382)"/>
     </g>
    </g>
    <g id="line2d_66">
     <path d="M 59.9219 173.428105 
L 73.9219 173.428105 
L 87.9219 173.428105 
" style="fill: none; stroke: #008000; stroke-width: 2.5; stroke-linecap: square"/>
    </g>
    <g id="text_15">
     <!-- $M_s=10,\ M_A=0.8,\ t=0.25$ \&amp; $M_s=1,\ M_A=0.8$ -->
     <g transform="translate(99.1219 178.328105) scale(0.14 -0.14)">
      <defs>
       <path id="CMR17-26" d="M 429 1327 
C 288 1169 211 992 211 782 
C 211 264 704 -128 1306 -128 
C 1907 -128 2291 240 2419 361 
C 2592 202 2944 -128 3456 -128 
C 3910 -128 4294 214 4307 740 
L 4192 740 
C 4179 247 3763 38 3482 38 
C 3104 38 2790 411 2637 588 
C 2758 733 2963 980 3386 1732 
C 3507 1941 3686 2257 3782 2339 
C 3872 2415 4019 2522 4339 2522 
L 4339 2694 
C 4218 2688 3949 2688 3821 2688 
C 3629 2688 3328 2688 3142 2688 
L 3142 2522 
C 3354 2522 3526 2434 3526 2264 
C 3526 2163 3379 1917 3104 1463 
C 3008 1300 2784 928 2560 683 
C 2464 803 1830 1606 1517 2421 
C 2176 3211 2246 3499 2246 3703 
C 2246 3958 2163 4480 1747 4480 
C 1370 4480 979 4136 979 3518 
C 979 3193 1030 2792 1222 2238 
L 429 1327 
z
M 1478 2543 
C 1357 2875 1286 3295 1286 3639 
C 1286 4200 1549 4378 1754 4378 
C 2112 4378 2131 3805 2131 3709 
C 2131 3486 2016 3168 1478 2543 
z
M 1267 2143 
C 1581 1436 2035 793 2336 449 
C 2022 158 1677 38 1363 38 
C 845 38 621 563 621 978 
C 621 1239 704 1500 870 1691 
L 1267 2143 
z
" transform="scale(0.015625)"/>
      </defs>
      <use xlink:href="#CMMI12-4d" transform="scale(0.996264)"/>
      <use xlink:href="#CMMI12-73" transform="translate(94.373425 -14.943915) scale(0.697382)"/>
      <use xlink:href="#CMR17-3d" transform="translate(154.710455 0) scale(0.996264)"/>
      <use xlink:href="#CMR17-31" transform="translate(254.099252 0) scale(0.996264)"/>
      <use xlink:href="#CMR17-30" transform="translate(299.789729 0) scale(0.996264)"/>
      <use xlink:href="#CMMI12-3b" transform="translate(345.480206 0) scale(0.996264)"/>
      <use xlink:href="#CMMI12-4d" transform="translate(419.257755 0) scale(0.996264)"/>
      <use xlink:href="#CMMI12-41" transform="translate(513.63118 -14.943915) scale(0.697382)"/>
      <use xlink:href="#CMR17-3d" transform="translate(592.992617 0) scale(0.996264)"/>
      <use xlink:href="#CMR17-30" transform="translate(692.381414 0) scale(0.996264)"/>
      <use xlink:href="#CMMI12-3a" transform="translate(738.071891 0) scale(0.996264)"/>
      <use xlink:href="#CMR17-38" transform="translate(765.169068 0) scale(0.996264)"/>
      <use xlink:href="#CMMI12-3b" transform="translate(810.859545 0) scale(0.996264)"/>
      <use xlink:href="#CMMI12-74" transform="translate(884.637094 0) scale(0.996264)"/>
      <use xlink:href="#CMR17-3d" transform="translate(947.537433 0) scale(0.996264)"/>
      <use xlink:href="#CMR17-30" transform="translate(1046.92623 0) scale(0.996264)"/>
      <use xlink:href="#CMMI12-3a" transform="translate(1092.616707 0) scale(0.996264)"/>
      <use xlink:href="#CMR17-32" transform="translate(1119.713884 0) scale(0.996264)"/>
      <use xlink:href="#CMR17-35" transform="translate(1165.404361 0) scale(0.996264)"/>
      <use xlink:href="#CMR17-26" transform="translate(1241.170805 0) scale(0.996264)"/>
      <use xlink:href="#CMMI12-4d" transform="translate(1342.96156 0) scale(0.996264)"/>
      <use xlink:href="#CMMI12-73" transform="translate(1437.334985 -14.943915) scale(0.697382)"/>
      <use xlink:href="#CMR17-3d" transform="translate(1497.672014 0) scale(0.996264)"/>
      <use xlink:href="#CMR17-31" transform="translate(1597.060811 0) scale(0.996264)"/>
      <use xlink:href="#CMMI12-3b" transform="translate(1642.751289 0) scale(0.996264)"/>
      <use xlink:href="#CMMI12-4d" transform="translate(1716.528837 0) scale(0.996264)"/>
      <use xlink:href="#CMMI12-41" transform="translate(1810.902262 -14.943915) scale(0.697382)"/>
      <use xlink:href="#CMR17-3d" transform="translate(1890.263699 0) scale(0.996264)"/>
      <use xlink:href="#CMR17-30" transform="translate(1989.652496 0) scale(0.996264)"/>
      <use xlink:href="#CMMI12-3a" transform="translate(2035.342973 0) scale(0.996264)"/>
      <use xlink:href="#CMR17-38" transform="translate(2062.440151 0) scale(0.996264)"/>
     </g>
    </g>
    <g id="line2d_67">
     <path d="M 59.9219 192.940134 
L 73.9219 192.940134 
L 87.9219 192.940134 
" style="fill: none; stroke-dasharray: 2,3.3; stroke-dashoffset: 0; stroke: #008000; stroke-opacity: 0.7; stroke-width: 2"/>
    </g>
    <g id="text_16">
     <!-- $\propto k^{-2.41}$ -->
     <g transform="translate(99.1219 197.840134) scale(0.14 -0.14)">
      <use xlink:href="#CMSY10-2f" transform="scale(0.996264)"/>
      <use xlink:href="#CMMI12-6b" transform="translate(105.161476 0) scale(0.996264)"/>
      <use xlink:href="#CMSY10-0" transform="translate(159.240677 36.153639) scale(0.697382)"/>
      <use xlink:href="#CMR17-32" transform="translate(213.48167 36.153639) scale(0.697382)"/>
      <use xlink:href="#CMMI12-3a" transform="translate(245.464852 36.153639) scale(0.697382)"/>
      <use xlink:href="#CMR17-34" transform="translate(264.432785 36.153639) scale(0.697382)"/>
      <use xlink:href="#CMR17-31" transform="translate(296.415967 36.153639) scale(0.697382)"/>
     </g>
    </g>
    <g id="line2d_68">
     <path d="M 59.9219 212.452162 
L 73.9219 212.452162 
L 87.9219 212.452162 
" style="fill: none; stroke-dasharray: 12.95,5.6; stroke-dashoffset: 0; stroke: #000000; stroke-width: 3.5"/>
    </g>
    <g id="text_17">
     <!-- $k^{-3.67}$ -->
     <g transform="translate(99.1219 217.352162) scale(0.14 -0.14)">
      <defs>
       <path id="CMR17-37" d="M 2886 3941 
L 2886 4081 
L 1382 4081 
C 634 4081 621 4165 595 4288 
L 480 4288 
L 294 3094 
L 410 3094 
C 429 3215 474 3540 550 3661 
C 589 3712 1062 3712 1171 3712 
L 2579 3712 
L 1869 2661 
C 1395 1954 1069 999 1069 165 
C 1069 89 1069 -128 1299 -128 
C 1530 -128 1530 89 1530 171 
L 1530 465 
C 1530 1508 1709 2196 2003 2636 
L 2886 3941 
z
" transform="scale(0.015625)"/>
      </defs>
      <use xlink:href="#CMMI12-6b" transform="scale(0.996264)"/>
      <use xlink:href="#CMSY10-0" transform="translate(54.079201 36.153639) scale(0.697382)"/>
      <use xlink:href="#CMR17-33" transform="translate(108.320194 36.153639) scale(0.697382)"/>
      <use xlink:href="#CMMI12-3a" transform="translate(140.303376 36.153639) scale(0.697382)"/>
      <use xlink:href="#CMR17-36" transform="translate(159.271309 36.153639) scale(0.697382)"/>
      <use xlink:href="#CMR17-37" transform="translate(191.254491 36.153639) scale(0.697382)"/>
     </g>
    </g>
   </g>
  </g>
 </g>
 <defs>
  <clipPath id="p182c9f8de7">
   <rect x="47.3219" y="7.2" width="433.6381" height="225.46419"/>
  </clipPath>
 </defs>
</svg>
