<?xml version="1.0" encoding="utf-8" standalone="no"?>
<!DOCTYPE svg PUBLIC "-//W3C//DTD SVG 1.1//EN"
  "http://www.w3.org/Graphics/SVG/1.1/DTD/svg11.dtd">
<svg xmlns:xlink="http://www.w3.org/1999/xlink" width="486pt" height="270pt" viewBox="0 0 486 270" xmlns="http://www.w3.org/2000/svg" version="1.1">
 <metadata>
  <rdf:RDF xmlns:dc="http://purl.org/dc/elements/1.1/" xmlns:cc="http://creativecommons.org/ns#" xmlns:rdf="http://www.w3.org/1999/02/22-rdf-syntax-ns#">
   <cc:Work>
    <dc:type rdf:resource="http://purl.org/dc/dcmitype/StillImage"/>
    <dc:date>2026-02-14T22:28:52.421447</dc:date>
    <dc:format>image/svg+xml</dc:format>
    <dc:creator>
     <cc:Agent>
      <dc:title>Matplotlib v3.8.4, https://matplotlib.org/</dc:title>
     </cc:Agent>
    </dc:creator>
   </cc:Work>
  </rdf:RDF>
 </metadata>
 <defs>
  <style type="text/css">*{stroke-linejoin: round; stroke-linecap: butt}</style>
 </defs>
 <g id="figure_1">
  <g id="patch_1">
   <path d="M 0 270 
L 486 270 
L 486 0 
L 0 0 
z
" style="fill: #ffffff"/>
  </g>
  <g id="axes_1">
   <g id="patch_2">
    <path d="M 49.506807 228.733061 
L 478.8 228.733061 
L 478.8 7.2 
L 49.506807 7.2 
z
" style="fill: #ffffff"/>
   </g>
   <g id="matplotlib.axis_1">
    <g id="xtick_1">
     <g id="line2d_1">
      <defs>
       <path id="m6ff575722a" d="M 0 0 
L 0 -6 
" style="stroke: #000000; stroke-width: 0.8"/>
      </defs>
      <g>
       <use xlink:href="#m6ff575722a" x="81.269927" y="228.733061" style="stroke: #000000; stroke-width: 0.8"/>
      </g>
     </g>
     <g id="line2d_2">
      <defs>
       <path id="m92e42e6894" d="M 0 0 
L 0 6 
" style="stroke: #000000; stroke-width: 0.8"/>
      </defs>
      <g>
       <use xlink:href="#m92e42e6894" x="81.269927" y="7.2" style="stroke: #000000; stroke-width: 0.8"/>
      </g>
     </g>
     <g id="text_1">
      <!-- $\mathdefault{10^{1}}$ -->
      <g transform="translate(71.338504 242.610786) scale(0.15 -0.15)">
       <defs>
        <path id="CMR17-31" d="M 1702 4058 
C 1702 4192 1696 4192 1606 4192 
C 1357 3916 979 3827 621 3827 
C 602 3827 570 3827 563 3808 
C 557 3795 557 3782 557 3648 
C 755 3648 1088 3686 1344 3839 
L 1344 461 
C 1344 236 1331 160 781 160 
L 589 160 
L 589 0 
C 896 0 1216 0 1523 0 
C 1830 0 2150 0 2458 0 
L 2458 160 
L 2266 160 
C 1715 160 1702 230 1702 458 
L 1702 4058 
z
" transform="scale(0.015625)"/>
        <path id="CMR17-30" d="M 2688 2025 
C 2688 2416 2682 3080 2413 3591 
C 2176 4039 1798 4198 1466 4198 
C 1158 4198 768 4058 525 3597 
C 269 3118 243 2524 243 2025 
C 243 1661 250 1106 448 619 
C 723 -39 1216 -128 1466 -128 
C 1760 -128 2208 -7 2470 600 
C 2662 1042 2688 1559 2688 2025 
z
M 1466 -26 
C 1056 -26 813 325 723 812 
C 653 1188 653 1738 653 2096 
C 653 2588 653 2997 736 3387 
C 858 3929 1216 4096 1466 4096 
C 1728 4096 2067 3923 2189 3400 
C 2272 3036 2278 2607 2278 2096 
C 2278 1680 2278 1169 2202 792 
C 2067 95 1690 -26 1466 -26 
z
" transform="scale(0.015625)"/>
       </defs>
       <use xlink:href="#CMR17-31" transform="scale(0.996264)"/>
       <use xlink:href="#CMR17-30" transform="translate(45.690477 0) scale(0.996264)"/>
       <use xlink:href="#CMR17-31" transform="translate(91.380954 36.153639) scale(0.697382)"/>
      </g>
     </g>
    </g>
    <g id="xtick_2">
     <g id="line2d_3">
      <g>
       <use xlink:href="#m6ff575722a" x="261.49248" y="228.733061" style="stroke: #000000; stroke-width: 0.8"/>
      </g>
     </g>
     <g id="line2d_4">
      <g>
       <use xlink:href="#m92e42e6894" x="261.49248" y="7.2" style="stroke: #000000; stroke-width: 0.8"/>
      </g>
     </g>
     <g id="text_2">
      <!-- $\mathdefault{10^{2}}$ -->
      <g transform="translate(251.561057 242.610786) scale(0.15 -0.15)">
       <defs>
        <path id="CMR17-32" d="M 2669 989 
L 2554 989 
C 2490 536 2438 459 2413 420 
C 2381 369 1920 369 1830 369 
L 602 369 
C 832 619 1280 1072 1824 1597 
C 2214 1967 2669 2402 2669 3035 
C 2669 3790 2067 4224 1395 4224 
C 691 4224 262 3604 262 3030 
C 262 2780 448 2748 525 2748 
C 589 2748 781 2787 781 3010 
C 781 3207 614 3264 525 3264 
C 486 3264 448 3258 422 3245 
C 544 3790 915 4058 1306 4058 
C 1862 4058 2227 3617 2227 3035 
C 2227 2479 1901 2000 1536 1584 
L 262 146 
L 262 0 
L 2515 0 
L 2669 989 
z
" transform="scale(0.015625)"/>
       </defs>
       <use xlink:href="#CMR17-31" transform="scale(0.996264)"/>
       <use xlink:href="#CMR17-30" transform="translate(45.690477 0) scale(0.996264)"/>
       <use xlink:href="#CMR17-32" transform="translate(91.380954 36.153639) scale(0.697382)"/>
      </g>
     </g>
    </g>
    <g id="xtick_3">
     <g id="line2d_5">
      <g>
       <use xlink:href="#m6ff575722a" x="441.715034" y="228.733061" style="stroke: #000000; stroke-width: 0.8"/>
      </g>
     </g>
     <g id="line2d_6">
      <g>
       <use xlink:href="#m92e42e6894" x="441.715034" y="7.2" style="stroke: #000000; stroke-width: 0.8"/>
      </g>
     </g>
     <g id="text_3">
      <!-- $\mathdefault{10^{3}}$ -->
      <g transform="translate(431.78361 242.610786) scale(0.15 -0.15)">
       <defs>
        <path id="CMR17-33" d="M 1414 2157 
C 1984 2157 2234 1662 2234 1090 
C 2234 320 1824 25 1453 25 
C 1114 25 563 194 390 693 
C 422 680 454 680 486 680 
C 640 680 755 782 755 948 
C 755 1133 614 1216 486 1216 
C 378 1216 211 1165 211 926 
C 211 335 787 -128 1466 -128 
C 2176 -128 2720 430 2720 1085 
C 2720 1707 2208 2157 1600 2227 
C 2086 2328 2554 2756 2554 3329 
C 2554 3820 2048 4179 1472 4179 
C 890 4179 378 3829 378 3329 
C 378 3110 544 3072 627 3072 
C 762 3072 877 3155 877 3321 
C 877 3486 762 3569 627 3569 
C 602 3569 570 3569 544 3557 
C 730 3959 1235 4032 1459 4032 
C 1683 4032 2106 3925 2106 3320 
C 2106 3143 2080 2828 1862 2550 
C 1670 2304 1453 2304 1242 2284 
C 1210 2284 1062 2269 1037 2269 
C 992 2263 966 2257 966 2208 
C 966 2163 973 2157 1101 2157 
L 1414 2157 
z
" transform="scale(0.015625)"/>
       </defs>
       <use xlink:href="#CMR17-31" transform="scale(0.996264)"/>
       <use xlink:href="#CMR17-30" transform="translate(45.690477 0) scale(0.996264)"/>
       <use xlink:href="#CMR17-33" transform="translate(91.380954 36.153639) scale(0.697382)"/>
      </g>
     </g>
    </g>
    <g id="xtick_4">
     <g id="line2d_7">
      <defs>
       <path id="med9e57bb69" d="M 0 0 
L 0 -3 
" style="stroke: #000000; stroke-width: 0.6"/>
      </defs>
      <g>
       <use xlink:href="#med9e57bb69" x="53.3531" y="228.733061" style="stroke: #000000; stroke-width: 0.6"/>
      </g>
     </g>
     <g id="line2d_8">
      <defs>
       <path id="m1de416c0e7" d="M 0 0 
L 0 3 
" style="stroke: #000000; stroke-width: 0.6"/>
      </defs>
      <g>
       <use xlink:href="#m1de416c0e7" x="53.3531" y="7.2" style="stroke: #000000; stroke-width: 0.6"/>
      </g>
     </g>
    </g>
    <g id="xtick_5">
     <g id="line2d_9">
      <g>
       <use xlink:href="#med9e57bb69" x="63.804557" y="228.733061" style="stroke: #000000; stroke-width: 0.6"/>
      </g>
     </g>
     <g id="line2d_10">
      <g>
       <use xlink:href="#m1de416c0e7" x="63.804557" y="7.2" style="stroke: #000000; stroke-width: 0.6"/>
      </g>
     </g>
    </g>
    <g id="xtick_6">
     <g id="line2d_11">
      <g>
       <use xlink:href="#med9e57bb69" x="73.023395" y="228.733061" style="stroke: #000000; stroke-width: 0.6"/>
      </g>
     </g>
     <g id="line2d_12">
      <g>
       <use xlink:href="#m1de416c0e7" x="73.023395" y="7.2" style="stroke: #000000; stroke-width: 0.6"/>
      </g>
     </g>
    </g>
    <g id="xtick_7">
     <g id="line2d_13">
      <g>
       <use xlink:href="#med9e57bb69" x="135.522321" y="228.733061" style="stroke: #000000; stroke-width: 0.6"/>
      </g>
     </g>
     <g id="line2d_14">
      <g>
       <use xlink:href="#m1de416c0e7" x="135.522321" y="7.2" style="stroke: #000000; stroke-width: 0.6"/>
      </g>
     </g>
    </g>
    <g id="xtick_8">
     <g id="line2d_15">
      <g>
       <use xlink:href="#med9e57bb69" x="167.257938" y="228.733061" style="stroke: #000000; stroke-width: 0.6"/>
      </g>
     </g>
     <g id="line2d_16">
      <g>
       <use xlink:href="#m1de416c0e7" x="167.257938" y="7.2" style="stroke: #000000; stroke-width: 0.6"/>
      </g>
     </g>
    </g>
    <g id="xtick_9">
     <g id="line2d_17">
      <g>
       <use xlink:href="#med9e57bb69" x="189.774716" y="228.733061" style="stroke: #000000; stroke-width: 0.6"/>
      </g>
     </g>
     <g id="line2d_18">
      <g>
       <use xlink:href="#m1de416c0e7" x="189.774716" y="7.2" style="stroke: #000000; stroke-width: 0.6"/>
      </g>
     </g>
    </g>
    <g id="xtick_10">
     <g id="line2d_19">
      <g>
       <use xlink:href="#med9e57bb69" x="207.240086" y="228.733061" style="stroke: #000000; stroke-width: 0.6"/>
      </g>
     </g>
     <g id="line2d_20">
      <g>
       <use xlink:href="#m1de416c0e7" x="207.240086" y="7.2" style="stroke: #000000; stroke-width: 0.6"/>
      </g>
     </g>
    </g>
    <g id="xtick_11">
     <g id="line2d_21">
      <g>
       <use xlink:href="#med9e57bb69" x="221.510332" y="228.733061" style="stroke: #000000; stroke-width: 0.6"/>
      </g>
     </g>
     <g id="line2d_22">
      <g>
       <use xlink:href="#m1de416c0e7" x="221.510332" y="7.2" style="stroke: #000000; stroke-width: 0.6"/>
      </g>
     </g>
    </g>
    <g id="xtick_12">
     <g id="line2d_23">
      <g>
       <use xlink:href="#med9e57bb69" x="233.575653" y="228.733061" style="stroke: #000000; stroke-width: 0.6"/>
      </g>
     </g>
     <g id="line2d_24">
      <g>
       <use xlink:href="#m1de416c0e7" x="233.575653" y="7.2" style="stroke: #000000; stroke-width: 0.6"/>
      </g>
     </g>
    </g>
    <g id="xtick_13">
     <g id="line2d_25">
      <g>
       <use xlink:href="#med9e57bb69" x="244.02711" y="228.733061" style="stroke: #000000; stroke-width: 0.6"/>
      </g>
     </g>
     <g id="line2d_26">
      <g>
       <use xlink:href="#m1de416c0e7" x="244.02711" y="7.2" style="stroke: #000000; stroke-width: 0.6"/>
      </g>
     </g>
    </g>
    <g id="xtick_14">
     <g id="line2d_27">
      <g>
       <use xlink:href="#med9e57bb69" x="253.245948" y="228.733061" style="stroke: #000000; stroke-width: 0.6"/>
      </g>
     </g>
     <g id="line2d_28">
      <g>
       <use xlink:href="#m1de416c0e7" x="253.245948" y="7.2" style="stroke: #000000; stroke-width: 0.6"/>
      </g>
     </g>
    </g>
    <g id="xtick_15">
     <g id="line2d_29">
      <g>
       <use xlink:href="#med9e57bb69" x="315.744875" y="228.733061" style="stroke: #000000; stroke-width: 0.6"/>
      </g>
     </g>
     <g id="line2d_30">
      <g>
       <use xlink:href="#m1de416c0e7" x="315.744875" y="7.2" style="stroke: #000000; stroke-width: 0.6"/>
      </g>
     </g>
    </g>
    <g id="xtick_16">
     <g id="line2d_31">
      <g>
       <use xlink:href="#med9e57bb69" x="347.480491" y="228.733061" style="stroke: #000000; stroke-width: 0.6"/>
      </g>
     </g>
     <g id="line2d_32">
      <g>
       <use xlink:href="#m1de416c0e7" x="347.480491" y="7.2" style="stroke: #000000; stroke-width: 0.6"/>
      </g>
     </g>
    </g>
    <g id="xtick_17">
     <g id="line2d_33">
      <g>
       <use xlink:href="#med9e57bb69" x="369.997269" y="228.733061" style="stroke: #000000; stroke-width: 0.6"/>
      </g>
     </g>
     <g id="line2d_34">
      <g>
       <use xlink:href="#m1de416c0e7" x="369.997269" y="7.2" style="stroke: #000000; stroke-width: 0.6"/>
      </g>
     </g>
    </g>
    <g id="xtick_18">
     <g id="line2d_35">
      <g>
       <use xlink:href="#med9e57bb69" x="387.462639" y="228.733061" style="stroke: #000000; stroke-width: 0.6"/>
      </g>
     </g>
     <g id="line2d_36">
      <g>
       <use xlink:href="#m1de416c0e7" x="387.462639" y="7.2" style="stroke: #000000; stroke-width: 0.6"/>
      </g>
     </g>
    </g>
    <g id="xtick_19">
     <g id="line2d_37">
      <g>
       <use xlink:href="#med9e57bb69" x="401.732885" y="228.733061" style="stroke: #000000; stroke-width: 0.6"/>
      </g>
     </g>
     <g id="line2d_38">
      <g>
       <use xlink:href="#m1de416c0e7" x="401.732885" y="7.2" style="stroke: #000000; stroke-width: 0.6"/>
      </g>
     </g>
    </g>
    <g id="xtick_20">
     <g id="line2d_39">
      <g>
       <use xlink:href="#med9e57bb69" x="413.798207" y="228.733061" style="stroke: #000000; stroke-width: 0.6"/>
      </g>
     </g>
     <g id="line2d_40">
      <g>
       <use xlink:href="#m1de416c0e7" x="413.798207" y="7.2" style="stroke: #000000; stroke-width: 0.6"/>
      </g>
     </g>
    </g>
    <g id="xtick_21">
     <g id="line2d_41">
      <g>
       <use xlink:href="#med9e57bb69" x="424.249664" y="228.733061" style="stroke: #000000; stroke-width: 0.6"/>
      </g>
     </g>
     <g id="line2d_42">
      <g>
       <use xlink:href="#m1de416c0e7" x="424.249664" y="7.2" style="stroke: #000000; stroke-width: 0.6"/>
      </g>
     </g>
    </g>
    <g id="xtick_22">
     <g id="line2d_43">
      <g>
       <use xlink:href="#med9e57bb69" x="433.468502" y="228.733061" style="stroke: #000000; stroke-width: 0.6"/>
      </g>
     </g>
     <g id="line2d_44">
      <g>
       <use xlink:href="#m1de416c0e7" x="433.468502" y="7.2" style="stroke: #000000; stroke-width: 0.6"/>
      </g>
     </g>
    </g>
    <g id="text_4">
     <!-- $k$ -->
     <g transform="translate(260.348268 259.894255) scale(0.15 -0.15)">
      <defs>
       <path id="CMMI12-6b" d="M 1798 4257 
C 1805 4283 1818 4321 1818 4352 
C 1818 4416 1754 4416 1741 4416 
C 1734 4416 1504 4393 1389 4377 
C 1280 4377 1184 4358 1069 4358 
C 915 4345 870 4339 870 4224 
C 870 4160 934 4160 998 4160 
C 1325 4160 1325 4103 1325 4040 
C 1325 4015 1325 4002 1293 3888 
L 378 248 
C 352 152 352 140 352 101 
C 352 -38 461 -64 525 -64 
C 704 -64 742 77 794 275 
L 1094 1469 
C 1555 1418 1830 1226 1830 920 
C 1830 881 1830 856 1811 760 
C 1786 664 1786 588 1786 556 
C 1786 185 2029 -64 2355 -64 
C 2650 -64 2803 204 2854 294 
C 2989 530 3072 888 3072 913 
C 3072 945 3046 971 3008 971 
C 2950 971 2944 945 2918 843 
C 2829 511 2694 64 2368 64 
C 2240 64 2157 128 2157 370 
C 2157 492 2182 632 2208 728 
C 2234 843 2234 849 2234 926 
C 2234 1303 1894 1514 1306 1590 
C 1536 1731 1766 1980 1856 2076 
C 2221 2484 2470 2689 2765 2689 
C 2912 2689 2950 2650 2995 2612 
C 2758 2586 2669 2420 2669 2293 
C 2669 2139 2790 2088 2880 2088 
C 3053 2088 3206 2235 3206 2440 
C 3206 2625 3059 2816 2771 2816 
C 2419 2816 2131 2567 1677 2056 
C 1613 1980 1376 1737 1139 1648 
L 1798 4257 
z
" transform="scale(0.015625)"/>
      </defs>
      <use xlink:href="#CMMI12-6b" transform="scale(0.996264)"/>
     </g>
    </g>
   </g>
   <g id="matplotlib.axis_2">
    <g id="ytick_1">
     <g id="line2d_45">
      <defs>
       <path id="m5916cd7ebc" d="M 0 0 
L 6 0 
" style="stroke: #000000; stroke-width: 0.8"/>
      </defs>
      <g>
       <use xlink:href="#m5916cd7ebc" x="49.506807" y="196.141239" style="stroke: #000000; stroke-width: 0.8"/>
      </g>
     </g>
     <g id="line2d_46">
      <defs>
       <path id="m73b8b8e2d0" d="M 0 0 
L -6 0 
" style="stroke: #000000; stroke-width: 0.8"/>
      </defs>
      <g>
       <use xlink:href="#m73b8b8e2d0" x="478.8" y="196.141239" style="stroke: #000000; stroke-width: 0.8"/>
      </g>
     </g>
     <g id="text_5">
      <!-- $\mathdefault{10^{2}}$ -->
      <g transform="translate(26.14396 201.330101) scale(0.15 -0.15)">
       <use xlink:href="#CMR17-31" transform="scale(0.996264)"/>
       <use xlink:href="#CMR17-30" transform="translate(45.690477 0) scale(0.996264)"/>
       <use xlink:href="#CMR17-32" transform="translate(91.380954 36.153639) scale(0.697382)"/>
      </g>
     </g>
    </g>
    <g id="ytick_2">
     <g id="line2d_47">
      <g>
       <use xlink:href="#m5916cd7ebc" x="49.506807" y="145.307383" style="stroke: #000000; stroke-width: 0.8"/>
      </g>
     </g>
     <g id="line2d_48">
      <g>
       <use xlink:href="#m73b8b8e2d0" x="478.8" y="145.307383" style="stroke: #000000; stroke-width: 0.8"/>
      </g>
     </g>
     <g id="text_6">
      <!-- $\mathdefault{10^{4}}$ -->
      <g transform="translate(26.14396 150.496245) scale(0.15 -0.15)">
       <defs>
        <path id="CMR17-34" d="M 2150 4122 
C 2150 4256 2144 4256 2029 4256 
L 128 1254 
L 128 1088 
L 1779 1088 
L 1779 457 
C 1779 224 1766 160 1318 160 
L 1197 160 
L 1197 0 
C 1402 0 1747 0 1965 0 
C 2182 0 2528 0 2733 0 
L 2733 160 
L 2611 160 
C 2163 160 2150 224 2150 457 
L 2150 1088 
L 2803 1088 
L 2803 1254 
L 2150 1254 
L 2150 4122 
z
M 1798 3703 
L 1798 1254 
L 256 1254 
L 1798 3703 
z
" transform="scale(0.015625)"/>
       </defs>
       <use xlink:href="#CMR17-31" transform="scale(0.996264)"/>
       <use xlink:href="#CMR17-30" transform="translate(45.690477 0) scale(0.996264)"/>
       <use xlink:href="#CMR17-34" transform="translate(91.380954 36.153639) scale(0.697382)"/>
      </g>
     </g>
    </g>
    <g id="ytick_3">
     <g id="line2d_49">
      <g>
       <use xlink:href="#m5916cd7ebc" x="49.506807" y="94.473528" style="stroke: #000000; stroke-width: 0.8"/>
      </g>
     </g>
     <g id="line2d_50">
      <g>
       <use xlink:href="#m73b8b8e2d0" x="478.8" y="94.473528" style="stroke: #000000; stroke-width: 0.8"/>
      </g>
     </g>
     <g id="text_7">
      <!-- $\mathdefault{10^{6}}$ -->
      <g transform="translate(26.14396 99.66239) scale(0.15 -0.15)">
       <defs>
        <path id="CMR17-36" d="M 678 2176 
C 678 3690 1395 4032 1811 4032 
C 1946 4032 2272 4009 2400 3776 
C 2298 3776 2106 3776 2106 3553 
C 2106 3381 2246 3323 2336 3323 
C 2394 3323 2566 3348 2566 3560 
C 2566 3954 2246 4179 1805 4179 
C 1043 4179 243 3390 243 1984 
C 243 253 966 -128 1478 -128 
C 2099 -128 2688 427 2688 1283 
C 2688 2081 2170 2662 1517 2662 
C 1126 2662 838 2407 678 1960 
L 678 2176 
z
M 1478 25 
C 691 25 691 1200 691 1436 
C 691 1896 909 2560 1504 2560 
C 1613 2560 1926 2560 2138 2120 
C 2253 1870 2253 1609 2253 1289 
C 2253 944 2253 690 2118 434 
C 1978 171 1773 25 1478 25 
z
" transform="scale(0.015625)"/>
       </defs>
       <use xlink:href="#CMR17-31" transform="scale(0.996264)"/>
       <use xlink:href="#CMR17-30" transform="translate(45.690477 0) scale(0.996264)"/>
       <use xlink:href="#CMR17-36" transform="translate(91.380954 36.153639) scale(0.697382)"/>
      </g>
     </g>
    </g>
    <g id="ytick_4">
     <g id="line2d_51">
      <g>
       <use xlink:href="#m5916cd7ebc" x="49.506807" y="43.639672" style="stroke: #000000; stroke-width: 0.8"/>
      </g>
     </g>
     <g id="line2d_52">
      <g>
       <use xlink:href="#m73b8b8e2d0" x="478.8" y="43.639672" style="stroke: #000000; stroke-width: 0.8"/>
      </g>
     </g>
     <g id="text_8">
      <!-- $\mathdefault{10^{8}}$ -->
      <g transform="translate(26.14396 48.828534) scale(0.15 -0.15)">
       <defs>
        <path id="CMR17-38" d="M 1741 2264 
C 2144 2467 2554 2773 2554 3263 
C 2554 3841 1990 4179 1472 4179 
C 890 4179 378 3759 378 3180 
C 378 3021 416 2747 666 2505 
C 730 2442 998 2251 1171 2130 
C 883 1983 211 1634 211 934 
C 211 279 838 -128 1459 -128 
C 2144 -128 2720 362 2720 1010 
C 2720 1590 2330 1857 2074 2029 
L 1741 2264 
z
M 902 2822 
C 851 2854 595 3051 595 3351 
C 595 3739 998 4032 1459 4032 
C 1965 4032 2336 3676 2336 3262 
C 2336 2669 1670 2331 1638 2331 
C 1632 2331 1626 2331 1574 2370 
L 902 2822 
z
M 2080 1519 
C 2176 1449 2483 1240 2483 851 
C 2483 381 2010 25 1472 25 
C 890 25 448 438 448 940 
C 448 1443 838 1862 1280 2060 
L 2080 1519 
z
" transform="scale(0.015625)"/>
       </defs>
       <use xlink:href="#CMR17-31" transform="scale(0.996264)"/>
       <use xlink:href="#CMR17-30" transform="translate(45.690477 0) scale(0.996264)"/>
       <use xlink:href="#CMR17-38" transform="translate(91.380954 36.153639) scale(0.697382)"/>
      </g>
     </g>
    </g>
    <g id="text_9">
     <!-- $P(k)$ -->
     <g transform="translate(18.40797 133.444803) rotate(-90) scale(0.15 -0.15)">
      <defs>
       <path id="CMMI12-50" d="M 1894 2023 
L 2970 2023 
C 3853 2023 4736 2673 4736 3401 
C 4736 3898 4314 4352 3507 4352 
L 1530 4352 
C 1408 4352 1350 4352 1350 4231 
C 1350 4167 1408 4167 1504 4167 
C 1894 4167 1894 4116 1894 4046 
C 1894 4034 1894 3995 1869 3899 
L 1005 472 
C 947 249 934 185 486 185 
C 365 185 301 185 301 70 
C 301 0 358 0 397 0 
C 518 0 646 0 768 0 
L 1517 0 
C 1638 0 1773 0 1894 0 
C 1946 0 2016 0 2016 121 
C 2016 185 1958 185 1862 185 
C 1478 185 1472 230 1472 293 
C 1472 325 1478 369 1485 401 
L 1894 2023 
z
M 2355 3930 
C 2413 4167 2438 4167 2688 4167 
L 3322 4167 
C 3802 4167 4198 4013 4198 3535 
C 4198 3369 4115 2827 3821 2534 
C 3712 2419 3405 2176 2822 2176 
L 1920 2176 
L 2355 3930 
z
" transform="scale(0.015625)"/>
       <path id="CMR17-28" d="M 1958 -1561 
C 1958 -1555 1958 -1542 1939 -1523 
C 1645 -1224 858 -407 858 1581 
C 858 3569 1632 4379 1946 4697 
C 1946 4704 1958 4717 1958 4736 
C 1958 4755 1939 4768 1914 4768 
C 1843 4768 1299 4296 986 3594 
C 666 2887 576 2199 576 1588 
C 576 1128 621 351 1005 -471 
C 1312 -1135 1837 -1600 1914 -1600 
C 1946 -1600 1958 -1587 1958 -1561 
z
" transform="scale(0.015625)"/>
       <path id="CMR17-29" d="M 1683 1581 
C 1683 2040 1638 2817 1254 3639 
C 947 4303 422 4768 346 4768 
C 326 4768 301 4761 301 4729 
C 301 4717 307 4710 314 4697 
C 621 4378 1402 3568 1402 1584 
C 1402 -407 627 -1217 314 -1537 
C 307 -1549 301 -1556 301 -1568 
C 301 -1600 326 -1600 346 -1600 
C 416 -1600 960 -1128 1274 -426 
C 1594 281 1683 969 1683 1581 
z
" transform="scale(0.015625)"/>
      </defs>
      <use xlink:href="#CMMI12-50" transform="scale(0.996264)"/>
      <use xlink:href="#CMR17-28" transform="translate(76.425821 0) scale(0.996264)"/>
      <use xlink:href="#CMMI12-6b" transform="translate(111.706589 0) scale(0.996264)"/>
      <use xlink:href="#CMR17-29" transform="translate(165.785789 0) scale(0.996264)"/>
     </g>
    </g>
   </g>
   <g id="line2d_53">
    <path d="M 49.506807 7.2 
L 89.488955 14.41364 
L 115.824522 27.924366 
L 135.494817 34.881591 
L 151.201245 45.558089 
L 164.276511 46.499866 
L 175.476965 48.827413 
L 185.273442 53.319371 
L 193.979035 56.13168 
L 201.812533 56.133268 
L 208.932863 61.367922 
L 215.459114 62.251509 
L 221.482828 64.037063 
L 227.075897 67.509794 
L 232.295808 69.827344 
L 237.189255 72.556726 
L 241.794681 73.042425 
L 246.144115 76.561033 
L 250.264522 76.670501 
L 254.17882 82.117778 
L 257.906652 80.767329 
L 261.464976 82.67325 
L 264.868541 83.987529 
L 271.261453 84.897521 
L 274.272196 88.159331 
L 277.171403 86.410406 
L 279.967046 85.765638 
L 282.666267 92.2779 
L 285.275497 94.55005 
L 287.800544 94.324932 
L 290.24667 95.368351 
L 292.618659 95.824583 
L 294.920874 96.131013 
L 297.157302 96.915623 
L 299.331599 99.565469 
L 301.447124 98.135477 
L 303.506971 99.106286 
L 305.513995 99.700102 
L 307.470839 102.053044 
L 309.37995 102.517174 
L 311.243601 102.712364 
L 313.063908 103.705718 
L 314.84284 105.577721 
L 316.582238 103.57633 
L 318.283819 105.39621 
L 319.949194 106.260647 
L 321.579871 106.07781 
L 323.177266 110.710767 
L 324.742711 108.807403 
L 326.27746 111.234095 
L 327.782692 109.381031 
L 329.259522 110.985715 
L 330.709001 113.072394 
L 332.132125 113.004573 
L 333.529835 113.14012 
L 334.903022 115.443098 
L 336.252533 115.157236 
L 337.579169 117.490507 
L 338.883693 118.749623 
L 341.429272 119.75183 
L 342.671674 120.832801 
L 343.894662 118.167992 
L 345.098835 122.9869 
L 346.284761 122.588042 
L 347.452987 122.791539 
L 348.604032 124.529538 
L 349.738395 123.895456 
L 350.856552 126.031486 
L 351.95896 125.453342 
L 353.046056 125.943095 
L 354.11826 128.239616 
L 355.175974 127.958543 
L 357.249464 128.53197 
L 358.265967 129.109116 
L 359.269438 128.281966 
L 360.260206 130.726894 
L 361.23859 131.317327 
L 362.204894 132.679765 
L 363.159414 131.739582 
L 364.102434 132.955643 
L 365.034226 132.300911 
L 365.955056 134.158298 
L 366.865179 133.489093 
L 367.76484 133.132161 
L 368.654278 135.194161 
L 369.533721 133.232038 
L 370.403393 134.063438 
L 371.263508 136.848311 
L 372.114273 136.287736 
L 372.955891 137.93135 
L 373.788555 137.159979 
L 374.612453 140.325896 
L 375.42777 137.754023 
L 376.234681 140.081394 
L 377.033358 141.458781 
L 377.823967 140.837411 
L 378.60667 142.13172 
L 379.381624 141.790946 
L 380.908885 144.058104 
L 381.661484 143.27562 
L 382.406915 145.286331 
L 383.145313 144.402653 
L 383.87681 145.802992 
L 384.601535 146.72377 
L 385.31961 146.374766 
L 386.031157 146.964692 
L 386.736294 148.068858 
L 387.435135 149.887626 
L 388.127791 147.122066 
L 388.814372 150.524399 
L 389.494982 150.91478 
L 390.169724 149.838849 
L 391.502006 152.043902 
L 392.159738 151.207993 
L 392.811989 152.698172 
L 393.45885 152.973488 
L 394.100408 153.829729 
L 394.73675 154.183634 
L 395.36796 154.777213 
L 395.994121 154.709733 
L 396.615312 153.909515 
L 397.231612 154.92993 
L 397.843097 155.219808 
L 398.449841 156.910468 
L 399.051918 157.069835 
L 399.6494 157.448392 
L 400.242355 158.116524 
L 400.830851 158.45584 
L 401.414956 159.61322 
L 401.994734 159.081332 
L 402.570248 160.434832 
L 403.141562 159.967533 
L 403.708736 160.720672 
L 404.27183 162.511572 
L 404.830901 162.168089 
L 405.937204 162.42046 
L 406.484547 163.114439 
L 407.028088 162.802802 
L 407.567881 163.575275 
L 408.103977 163.051244 
L 408.636426 163.397242 
L 409.165277 165.8081 
L 409.690579 165.860116 
L 410.212378 165.404448 
L 410.730722 167.930534 
L 411.245656 167.850356 
L 411.757224 167.585331 
L 412.265471 168.67258 
L 413.272168 168.792545 
L 413.770703 169.819287 
L 414.266082 169.888603 
L 414.758346 170.130494 
L 415.247533 169.796382 
L 415.733681 171.14798 
L 416.216829 170.901701 
L 416.697012 171.842275 
L 417.174268 171.915397 
L 417.648631 172.830733 
L 418.120136 173.393331 
L 418.588818 173.735175 
L 419.05471 173.261337 
L 419.517846 174.438097 
L 419.978257 174.363369 
L 420.891033 175.626753 
L 421.34346 175.096677 
L 422.240543 176.730501 
L 422.685258 177.433172 
L 423.567179 178.056392 
L 424.004441 177.308292 
L 424.439274 179.400944 
L 424.871704 178.369086 
L 425.301758 180.350141 
L 425.729462 180.803312 
L 426.154842 181.531567 
L 426.577922 180.707284 
L 426.998728 181.318744 
L 427.417283 181.338684 
L 427.833612 181.841759 
L 428.247738 183.210937 
L 428.659685 182.962323 
L 429.069475 183.478131 
L 429.47713 183.027447 
L 429.882673 183.537639 
L 430.286126 185.76701 
L 430.68751 184.763969 
L 431.086846 184.563784 
L 431.484154 185.681553 
L 431.879456 186.382301 
L 432.272772 186.172696 
L 432.664121 186.534334 
L 433.053523 188.212926 
L 433.440998 187.354484 
L 433.826563 187.752849 
L 434.971993 189.476744 
L 435.350108 189.404417 
L 435.726406 189.724266 
L 436.100902 189.712721 
L 436.473616 190.75833 
L 437.21376 191.042698 
L 437.581224 190.998183 
L 437.94697 192.474145 
L 438.311016 193.051766 
L 438.673376 192.43655 
L 439.034067 192.8023 
L 439.393102 192.407707 
L 439.750499 192.849209 
L 440.10627 193.999338 
L 440.460432 193.547897 
L 440.812999 194.524223 
L 441.163985 194.776496 
L 441.513403 193.981356 
L 441.861269 194.894442 
L 442.207596 195.177962 
L 442.552396 196.571736 
L 442.895685 197.441341 
L 443.237474 197.744757 
L 443.577778 196.639547 
L 444.253978 196.877834 
L 444.5899 196.146711 
L 444.924386 198.822725 
L 445.257449 198.205635 
L 445.5891 197.862455 
L 445.919353 199.122364 
L 446.248217 199.14521 
L 446.575706 200.26507 
L 446.90183 200.357415 
L 447.226601 200.03403 
L 447.550029 201.378827 
L 448.192905 201.323373 
L 448.512373 201.168128 
L 448.830543 202.346193 
L 449.147425 202.148032 
L 449.463029 202.391368 
L 449.777365 202.242552 
L 450.090444 203.36342 
L 450.402276 203.161757 
L 450.71287 203.972788 
L 451.330386 204.398678 
L 451.637326 205.519904 
L 451.943067 204.347545 
L 452.247619 205.914342 
L 452.85319 206.889562 
L 453.154227 207.089748 
L 453.454111 207.012149 
L 453.752851 208.754945 
L 454.050454 208.542158 
L 454.346931 207.729473 
L 454.936536 209.249423 
L 455.229681 209.252505 
L 455.521732 209.932364 
L 455.812698 209.780909 
L 456.102586 210.205153 
L 456.391404 210.975193 
L 456.67916 210.234578 
L 456.965863 211.636231 
L 457.251519 210.447183 
L 457.819722 211.142779 
L 458.102284 212.100383 
L 458.38383 212.486906 
L 458.664367 212.412062 
L 459.222442 212.62832 
L 459.499994 213.191726 
L 459.776565 213.495495 
L 460.052163 213.61525 
L 460.326794 213.210903 
L 460.600464 213.354392 
L 460.873181 214.549211 
L 461.144951 214.311574 
L 461.415781 214.564117 
L 461.685676 214.52716 
L 461.954644 214.843767 
L 462.222691 215.49851 
L 462.489824 215.347959 
L 462.756047 215.370047 
L 463.021368 216.008648 
L 463.549328 215.908037 
L 464.073749 217.283003 
L 464.594681 217.758292 
L 464.853852 217.649797 
L 465.112168 218.509661 
L 465.369634 218.749134 
L 465.626256 219.643222 
L 465.88204 219.58094 
L 466.13699 218.466227 
L 466.391113 219.184792 
L 466.644413 219.31524 
L 466.896896 220.530717 
L 467.148567 219.483169 
L 467.399431 219.969228 
L 467.649494 219.814562 
L 467.898761 220.132353 
L 468.394925 221.116127 
L 468.641833 222.125202 
L 469.133324 221.709518 
L 469.377917 222.537128 
L 469.621748 221.560433 
L 469.864821 222.340888 
L 470.107142 222.018277 
L 470.348716 222.80872 
L 470.589546 223.063053 
L 470.829637 222.453323 
L 471.068994 222.523212 
L 471.545523 223.427564 
L 471.782704 224.362745 
L 472.019168 223.489669 
L 472.489964 223.575864 
L 472.724305 224.004941 
L 472.957946 223.569565 
L 473.190891 224.209359 
L 473.423146 225.439265 
L 473.654713 223.750307 
L 474.345332 225.388781 
L 474.574191 224.275655 
L 474.802383 224.277056 
L 475.029911 226.199094 
L 475.482993 223.708063 
L 475.708554 225.167715 
L 475.933467 225.549216 
L 476.157735 226.845939 
L 476.381363 224.8642 
L 476.604354 226.101906 
L 476.826711 225.81597 
L 477.269539 227.355462 
L 477.490017 226.356623 
L 477.709876 227.206877 
L 477.929119 226.505038 
L 478.147749 227.344044 
L 478.365771 226.163066 
L 478.583186 227.910408 
L 478.8 228.733061 
L 478.8 228.733061 
" clip-path="url(#pfa845f6d4d)" style="fill: none; stroke: #0000ff; stroke-width: 2.5; stroke-linecap: square"/>
   </g>
   <g id="line2d_54">
    <path d="M 89.488955 17.136504 
L 95.571211 19.411744 
L 101.214711 21.522855 
L 106.47852 23.491932 
L 111.410523 25.336888 
L 116.050084 27.072447 
L 120.429948 28.710859 
L 124.577656 30.262427 
L 128.516583 31.735894 
L 132.266745 33.138749 
L 135.84541 34.47745 
L 139.26758 35.757609 
L 142.546369 36.984133 
L 145.693312 38.161337 
L 148.718603 39.293032 
L 151.631299 40.382609 
L 154.43948 41.433089 
L 157.150389 42.447181 
L 159.770538 43.427322 
L 162.30581 44.375712 
L 164.76153 45.294344 
L 167.14254 46.185028 
L 169.453251 47.049415 
L 171.697696 47.889013 
L 173.87957 48.705205 
L 176.002267 49.49926 
L 178.068913 50.272348 
L 180.082391 51.025546 
L 182.04537 51.759854 
L 183.960319 52.476195 
L 185.829534 53.175428 
L 187.655149 53.858351 
L 189.43915 54.525707 
L 191.183393 55.178191 
L 192.889611 55.81645 
L 194.559427 56.441092 
L 196.194362 57.052686 
L 197.795843 57.651765 
L 199.365212 58.238832 
L 200.903732 58.814359 
L 202.412591 59.378791 
L 203.892912 59.932547 
L 205.345755 60.476024 
L 206.772121 61.009596 
L 208.172958 61.533619 
L 209.549163 62.048428 
L 210.901588 62.554341 
L 212.231041 63.05166 
L 213.538289 63.540673 
L 214.824062 64.021653 
L 216.089054 64.494859 
L 217.333926 64.960539 
L 218.559307 65.418927 
L 219.7658 65.87025 
L 220.953977 66.314721 
L 222.124386 66.752546 
L 223.277551 67.18392 
L 224.413973 67.609031 
L 225.53413 68.028058 
L 226.638482 68.441172 
L 227.727469 68.848538 
L 228.801512 69.250314 
L 229.861016 69.646652 
L 230.906369 70.037696 
L 231.937945 70.423586 
L 232.956101 70.804456 
L 233.961183 71.180436 
L 234.953522 71.551648 
L 235.933436 71.918213 
L 236.901234 72.280245 
L 237.857211 72.637855 
L 238.801653 72.991151 
L 239.734834 73.340234 
L 240.657021 73.685203 
L 241.568468 74.026156 
L 242.469424 74.363184 
L 243.360127 74.696377 
L 244.240807 75.02582 
L 245.111689 75.351598 
L 245.972987 75.673791 
L 246.82491 75.992477 
L 247.66766 76.307732 
L 248.501432 76.619628 
L 249.326417 76.928237 
L 250.142796 77.233627 
L 250.950748 77.535864 
L 251.750445 77.835013 
L 252.542054 78.131137 
L 253.325737 78.424296 
L 254.10165 78.714548 
L 254.869948 79.001952 
L 255.630777 79.286561 
L 256.384281 79.568431 
L 257.1306 79.847613 
L 257.869871 80.124158 
L 258.602224 80.398115 
L 259.327788 80.669533 
L 260.046688 80.938458 
L 260.759044 81.204935 
L 261.464976 81.469009 
" clip-path="url(#pfa845f6d4d)" style="fill: none; stroke-dasharray: 2,3.3; stroke-dashoffset: 0; stroke: #0000ff; stroke-opacity: 0.7; stroke-width: 2"/>
   </g>
   <g id="line2d_55">
    <path d="M 49.506807 14.282868 
L 89.488955 18.789301 
L 115.824522 39.420498 
L 135.494817 44.463573 
L 151.201245 46.421177 
L 175.476965 49.690227 
L 185.273442 51.192018 
L 193.979035 53.735288 
L 201.812533 54.695423 
L 208.932863 57.312166 
L 215.459114 61.870706 
L 221.482828 62.040351 
L 227.075897 62.734542 
L 232.295808 63.519261 
L 237.189255 66.575425 
L 250.264522 69.401765 
L 254.17882 70.745086 
L 257.906652 70.574094 
L 261.464976 72.083205 
L 264.868541 72.159905 
L 268.130249 73.359638 
L 271.261453 75.161905 
L 274.272196 74.914597 
L 277.171403 75.600875 
L 279.967046 74.387318 
L 282.666267 78.875782 
L 285.275497 78.815478 
L 287.800544 78.387427 
L 290.24667 80.359004 
L 292.618659 80.061811 
L 294.920874 83.432566 
L 299.331599 82.160934 
L 301.447124 84.269473 
L 303.506971 83.469743 
L 305.513995 86.443992 
L 307.470839 87.128672 
L 309.37995 84.343727 
L 311.243601 85.059457 
L 313.063908 87.737537 
L 314.84284 87.232051 
L 316.582238 88.389768 
L 318.283819 90.426399 
L 319.949194 89.649422 
L 321.579871 89.439148 
L 323.177266 89.366121 
L 324.742711 90.47713 
L 326.27746 91.428146 
L 327.782692 92.539905 
L 330.709001 95.05757 
L 332.132125 92.845734 
L 333.529835 96.187191 
L 334.903022 93.401349 
L 336.252533 95.882154 
L 337.579169 96.115127 
L 338.883693 96.729052 
L 340.166831 96.396896 
L 341.429272 98.236265 
L 342.671674 96.820529 
L 343.894662 99.482047 
L 345.098835 98.430723 
L 347.452987 101.34092 
L 348.604032 100.563979 
L 349.738395 101.365216 
L 350.856552 100.626594 
L 351.95896 102.936887 
L 353.046056 101.789421 
L 354.11826 103.4185 
L 355.175974 103.01602 
L 356.219585 102.241249 
L 357.249464 104.043729 
L 358.265967 104.099156 
L 359.269438 104.339004 
L 360.260206 104.944776 
L 361.23859 104.942838 
L 362.204894 104.480259 
L 363.159414 105.303058 
L 364.102434 107.567938 
L 365.034226 105.819895 
L 365.955056 106.669611 
L 366.865179 106.790721 
L 367.76484 108.499027 
L 368.654278 108.751788 
L 369.533721 109.210783 
L 370.403393 108.812411 
L 371.263508 109.298866 
L 372.114273 110.567712 
L 372.955891 110.622805 
L 374.612453 111.877674 
L 375.42777 111.99426 
L 376.234681 111.124039 
L 377.033358 112.941447 
L 377.823967 112.327396 
L 378.60667 114.123099 
L 379.381624 112.081862 
L 380.148979 112.993308 
L 381.661484 113.574366 
L 382.406915 115.400233 
L 383.145313 114.799089 
L 384.601535 114.845332 
L 385.31961 115.449533 
L 386.031157 115.538522 
L 386.736294 117.626462 
L 387.435135 117.150495 
L 388.127791 117.234403 
L 388.814372 117.969926 
L 389.494982 117.500625 
L 390.169724 117.936098 
L 390.8387 118.925657 
L 391.502006 118.259881 
L 392.159738 120.19873 
L 392.811989 119.546577 
L 393.45885 120.227378 
L 394.100408 120.199709 
L 394.73675 119.884141 
L 395.36796 120.571447 
L 395.994121 119.639284 
L 396.615312 120.11046 
L 397.843097 121.318975 
L 398.449841 120.634217 
L 399.051918 122.007959 
L 399.6494 121.736063 
L 400.242355 122.730348 
L 400.830851 122.155346 
L 401.414956 123.085248 
L 401.994734 123.194919 
L 402.570248 122.697943 
L 403.141562 123.455187 
L 403.708736 124.444029 
L 404.27183 124.015808 
L 404.830901 125.296502 
L 405.386007 125.275843 
L 405.937204 125.713045 
L 406.484547 126.582923 
L 407.028088 126.401676 
L 407.567881 126.393166 
L 408.103977 126.97219 
L 408.636426 126.629849 
L 409.690579 126.908134 
L 410.212378 127.714389 
L 410.730722 126.241337 
L 411.245656 128.015174 
L 411.757224 127.617229 
L 412.265471 128.421078 
L 412.770438 127.965412 
L 413.272168 129.959668 
L 413.770703 129.009437 
L 414.266082 129.532088 
L 414.758346 129.343709 
L 415.247533 129.000207 
L 416.216829 130.87068 
L 416.697012 130.964667 
L 417.174268 130.670279 
L 417.648631 130.901682 
L 418.120136 130.617724 
L 418.588818 131.715429 
L 419.05471 131.791499 
L 419.517846 132.120389 
L 420.435976 132.072936 
L 420.891033 132.9473 
L 421.34346 132.750656 
L 421.793287 132.71546 
L 422.240543 133.601369 
L 422.685258 133.560447 
L 423.127461 133.788708 
L 423.567179 133.633387 
L 424.004441 134.510141 
L 424.871704 134.683569 
L 425.301758 135.414028 
L 426.154842 135.102067 
L 426.577922 135.209123 
L 426.998728 136.408978 
L 427.417283 135.588127 
L 427.833612 135.889484 
L 428.659685 136.162701 
L 429.069475 136.050841 
L 429.47713 136.769276 
L 429.882673 136.970008 
L 430.286126 137.033682 
L 430.68751 136.447013 
L 431.086846 137.665171 
L 431.484154 137.793272 
L 431.879456 137.511779 
L 432.664121 138.702437 
L 433.053523 139.660275 
L 433.826563 139.592712 
L 434.210239 139.274089 
L 434.592043 139.662313 
L 434.971993 139.12891 
L 435.350108 139.592787 
L 435.726406 139.748503 
L 436.100902 140.585088 
L 436.473616 140.147822 
L 436.844563 140.457764 
L 437.21376 141.17438 
L 437.94697 140.911736 
L 438.311016 141.207139 
L 438.673376 140.241891 
L 439.034067 141.217779 
L 439.393102 141.013442 
L 439.750499 142.140469 
L 440.10627 141.823417 
L 440.460432 142.632109 
L 440.812999 142.80483 
L 441.513403 142.648935 
L 441.861269 142.449997 
L 442.207596 142.998449 
L 442.552396 142.871516 
L 442.895685 143.887634 
L 443.237474 143.781843 
L 443.577778 144.014444 
L 443.916608 143.385446 
L 444.253978 144.072733 
L 444.5899 144.423289 
L 444.924386 145.003608 
L 445.5891 144.649359 
L 446.248217 145.343463 
L 446.575706 144.757789 
L 446.90183 144.927311 
L 447.226601 144.817046 
L 447.872127 145.622424 
L 448.192905 144.979278 
L 448.512373 145.164266 
L 449.463029 146.698425 
L 449.777365 146.373043 
L 450.090444 146.832778 
L 450.71287 147.926342 
L 451.022237 147.975802 
L 451.330386 147.4414 
L 451.637326 147.310678 
L 451.943067 146.47003 
L 452.247619 146.882454 
L 452.55099 148.237479 
L 452.85319 148.098022 
L 453.454111 148.889243 
L 453.752851 148.615816 
L 454.050454 148.894979 
L 454.346931 148.943957 
L 454.642288 149.147211 
L 454.936536 149.092966 
L 455.229681 148.676164 
L 455.521732 148.83296 
L 455.812698 148.747158 
L 456.102586 149.280638 
L 456.391404 148.966488 
L 456.965863 150.127965 
L 457.251519 149.588529 
L 457.536136 150.054096 
L 457.819722 149.924662 
L 458.102284 150.069296 
L 458.38383 149.786619 
L 458.664367 150.764897 
L 459.222442 150.232698 
L 459.499994 150.584163 
L 459.776565 150.355611 
L 460.600464 151.299214 
L 460.873181 151.287024 
L 461.144951 150.28048 
L 462.222691 152.230954 
L 462.489824 152.323728 
L 462.756047 152.204795 
L 463.021368 152.601264 
L 463.285793 152.11548 
L 463.549328 152.527063 
L 464.073749 152.923057 
L 464.334648 152.534077 
L 464.594681 153.339224 
L 464.853852 152.780636 
L 465.112168 153.318533 
L 465.369634 152.508584 
L 465.626256 153.23132 
L 465.88204 152.589116 
L 466.13699 153.671494 
L 466.391113 153.431115 
L 466.644413 153.643463 
L 466.896896 152.732076 
L 467.399431 153.356797 
L 467.649494 154.859038 
L 467.898761 154.028271 
L 468.394925 154.2296 
L 468.641833 153.876577 
L 468.887964 154.220108 
L 469.133324 155.081514 
L 469.377917 154.59158 
L 469.621748 155.166695 
L 469.864821 155.422974 
L 470.107142 155.00562 
L 470.348716 154.950663 
L 470.829637 155.211364 
L 471.068994 154.927284 
L 471.307621 155.168991 
L 471.545523 155.040104 
L 472.019168 154.542607 
L 472.25492 154.857507 
L 472.489964 154.572451 
L 472.957946 156.226254 
L 473.654713 155.0829 
L 473.885597 155.891618 
L 474.115802 156.210208 
L 474.345332 155.975635 
L 474.574191 156.699672 
L 474.802383 156.566253 
L 475.482993 155.373746 
L 475.708554 156.213276 
L 475.933467 156.051825 
L 476.157735 156.326424 
L 476.381363 156.316705 
L 476.604354 156.516587 
L 476.826711 156.364574 
L 477.048438 155.863128 
L 477.269539 156.443735 
L 477.709876 156.754188 
L 477.929119 156.516377 
L 478.147749 156.791507 
L 478.365771 156.586495 
L 478.583186 156.207389 
L 478.8 156.419698 
L 478.8 156.419698 
" clip-path="url(#pfa845f6d4d)" style="fill: none; stroke: #ff0000; stroke-width: 2.5; stroke-linecap: square"/>
   </g>
   <g id="line2d_56">
    <path d="M 89.488955 27.433279 
L 95.571211 29.021473 
L 101.214711 30.4951 
L 106.47852 31.869581 
L 111.410523 33.157422 
L 116.050084 34.368901 
L 120.429948 35.512568 
L 124.577656 36.595614 
L 128.516583 37.624143 
L 132.266745 38.603383 
L 135.84541 39.537841 
L 139.26758 40.431435 
L 142.546369 41.28759 
L 145.693312 42.109317 
L 148.718603 42.899279 
L 151.631299 43.65984 
L 154.43948 44.39311 
L 157.150389 45.10098 
L 159.770538 45.785152 
L 162.30581 46.44716 
L 164.76153 47.088396 
L 167.14254 47.710123 
L 169.453251 48.313494 
L 171.697696 48.899562 
L 173.87957 49.469291 
L 176.002267 50.023568 
L 178.068913 50.563209 
L 180.082391 51.088967 
L 182.04537 51.601538 
L 183.960319 52.101569 
L 185.829534 52.589657 
L 187.655149 53.066359 
L 189.43915 53.532196 
L 191.183393 53.987652 
L 192.889611 54.433178 
L 194.559427 54.869199 
L 196.194362 55.296112 
L 197.795843 55.71429 
L 199.365212 56.124082 
L 200.903732 56.525819 
L 202.412591 56.919811 
L 203.892912 57.306352 
L 205.345755 57.685717 
L 206.772121 58.058168 
L 208.172958 58.423954 
L 209.549163 58.783307 
L 210.901588 59.136452 
L 212.231041 59.483597 
L 213.538289 59.824945 
L 214.824062 60.160685 
L 216.089054 60.490999 
L 217.333926 60.816059 
L 218.559307 61.136029 
L 219.7658 61.451068 
L 220.953977 61.761324 
L 222.124386 62.06694 
L 223.277551 62.368054 
L 224.413973 62.664795 
L 225.53413 62.95729 
L 226.638482 63.245657 
L 227.727469 63.530013 
L 228.801512 63.810466 
L 229.861016 64.087123 
L 230.906369 64.360085 
L 231.937945 64.629449 
L 232.956101 64.895309 
L 233.961183 65.157755 
L 234.953522 65.416874 
L 235.933436 65.672748 
L 236.901234 65.925459 
L 237.857211 66.175083 
L 238.801653 66.421695 
L 239.734834 66.665366 
L 240.657021 66.906167 
L 241.568468 67.144163 
L 242.469424 67.37942 
L 243.360127 67.612 
L 244.240807 67.841963 
L 245.111689 68.069366 
L 245.972987 68.294268 
L 246.82491 68.516721 
L 247.66766 68.73678 
L 248.501432 68.954494 
L 249.326417 69.169913 
L 250.142796 69.383085 
L 250.950748 69.594057 
L 251.750445 69.802873 
L 252.542054 70.009578 
L 253.325737 70.214212 
L 254.10165 70.416818 
L 254.869948 70.617435 
L 255.630777 70.816103 
L 256.384281 71.012857 
L 257.1306 71.207735 
L 257.869871 71.400773 
L 258.602224 71.592005 
L 259.327788 71.781463 
L 260.046688 71.969182 
L 260.759044 72.155192 
L 261.464976 72.339524 
" clip-path="url(#pfa845f6d4d)" style="fill: none; stroke-dasharray: 2,3.3; stroke-dashoffset: 0; stroke: #ff0000; stroke-opacity: 0.7; stroke-width: 2"/>
   </g>
   <g id="line2d_57">
    <path d="M 49.506807 22.554132 
L 89.488955 19.035412 
L 115.824522 37.06268 
L 135.494817 41.021163 
L 151.201245 46.822375 
L 164.276511 49.009032 
L 175.476965 50.588296 
L 185.273442 53.500476 
L 193.979035 58.170665 
L 201.812533 58.480287 
L 208.932863 59.873629 
L 215.459114 61.89185 
L 221.482828 63.516207 
L 227.075897 65.141338 
L 232.295808 66.282798 
L 237.189255 70.049957 
L 241.794681 71.811976 
L 246.144115 72.846935 
L 250.264522 72.781355 
L 254.17882 76.954998 
L 264.868541 76.285887 
L 268.130249 80.009183 
L 271.261453 80.100215 
L 274.272196 79.568552 
L 277.171403 80.004323 
L 279.967046 81.289141 
L 282.666267 82.968691 
L 285.275497 82.683618 
L 290.24667 87.479759 
L 292.618659 87.522873 
L 294.920874 87.698413 
L 297.157302 87.664743 
L 299.331599 88.018291 
L 301.447124 89.412777 
L 303.506971 90.132917 
L 305.513995 90.664421 
L 307.470839 92.455384 
L 309.37995 92.311552 
L 311.243601 93.129685 
L 313.063908 93.121617 
L 314.84284 95.469972 
L 316.582238 95.690124 
L 318.283819 94.556872 
L 319.949194 95.999586 
L 321.579871 96.166381 
L 323.177266 97.103537 
L 324.742711 99.185274 
L 326.27746 99.076119 
L 327.782692 97.057996 
L 329.259522 99.35723 
L 330.709001 100.175269 
L 332.132125 101.550505 
L 333.529835 101.256047 
L 334.903022 102.627203 
L 336.252533 102.762512 
L 337.579169 104.764186 
L 338.883693 103.631565 
L 340.166831 104.090865 
L 341.429272 106.340874 
L 342.671674 106.331066 
L 343.894662 105.997891 
L 345.098835 106.553314 
L 346.284761 106.085425 
L 347.452987 108.100003 
L 348.604032 109.712319 
L 349.738395 109.724886 
L 350.856552 111.37726 
L 351.95896 110.110034 
L 353.046056 110.249138 
L 354.11826 111.286809 
L 355.175974 112.529372 
L 356.219585 113.303225 
L 357.249464 112.550197 
L 359.269438 116.278698 
L 360.260206 113.788551 
L 361.23859 114.934538 
L 362.204894 113.871125 
L 364.102434 115.690299 
L 365.034226 116.287924 
L 365.955056 117.316081 
L 366.865179 116.958004 
L 367.76484 117.863998 
L 368.654278 119.125323 
L 369.533721 117.787591 
L 370.403393 118.639964 
L 371.263508 119.111295 
L 372.114273 121.145618 
L 372.955891 119.859008 
L 373.788555 120.103225 
L 374.612453 121.578327 
L 375.42777 120.772696 
L 376.234681 123.016397 
L 377.033358 122.182626 
L 377.823967 123.878674 
L 378.60667 124.635368 
L 379.381624 123.608353 
L 380.148979 124.362655 
L 381.661484 123.393695 
L 383.145313 125.936174 
L 383.87681 126.763778 
L 384.601535 125.750357 
L 385.31961 126.174835 
L 386.031157 126.390175 
L 386.736294 127.413083 
L 387.435135 127.265317 
L 388.814372 129.731225 
L 389.494982 129.445383 
L 390.169724 129.963783 
L 391.502006 131.352386 
L 392.159738 129.454913 
L 392.811989 131.419534 
L 393.45885 132.818661 
L 394.100408 131.197259 
L 394.73675 132.523412 
L 395.36796 132.664165 
L 395.994121 133.483423 
L 396.615312 135.097498 
L 397.231612 134.253172 
L 397.843097 134.358774 
L 398.449841 134.24581 
L 399.051918 135.799283 
L 399.6494 135.493527 
L 400.830851 136.416324 
L 401.414956 137.696398 
L 401.994734 135.854024 
L 402.570248 136.909752 
L 403.141562 138.971916 
L 403.708736 138.3255 
L 404.27183 138.136918 
L 404.830901 138.445495 
L 405.386007 138.955538 
L 405.937204 138.995683 
L 407.028088 139.978804 
L 407.567881 141.202966 
L 408.103977 140.868602 
L 408.636426 140.715872 
L 409.165277 140.782415 
L 409.690579 141.368608 
L 410.212378 141.605819 
L 410.730722 142.045268 
L 411.245656 142.77132 
L 411.757224 142.876685 
L 412.265471 144.245146 
L 412.770438 142.375817 
L 413.272168 144.198594 
L 413.770703 144.260408 
L 414.266082 145.061911 
L 414.758346 145.320423 
L 415.247533 146.29164 
L 415.733681 145.145715 
L 416.697012 147.001521 
L 417.174268 146.268906 
L 418.588818 148.633135 
L 419.05471 147.818103 
L 419.517846 148.237901 
L 419.978257 149.79243 
L 420.435976 148.753003 
L 420.891033 148.468762 
L 421.34346 149.651937 
L 421.793287 149.572179 
L 422.240543 149.949733 
L 422.685258 149.747974 
L 423.127461 151.118436 
L 423.567179 150.884496 
L 424.004441 150.906326 
L 424.439274 151.1123 
L 425.301758 151.879346 
L 426.154842 151.546673 
L 426.577922 153.01803 
L 426.998728 153.153975 
L 427.417283 153.029935 
L 427.833612 153.467671 
L 428.247738 154.126985 
L 428.659685 155.055313 
L 429.069475 154.716911 
L 429.47713 155.481346 
L 429.882673 154.85157 
L 430.286126 154.907966 
L 430.68751 154.810358 
L 431.086846 155.167716 
L 431.484154 155.972298 
L 432.664121 156.699824 
L 433.053523 157.800526 
L 433.826563 158.12631 
L 434.210239 157.335694 
L 434.592043 158.255899 
L 434.971993 158.695807 
L 435.350108 158.86722 
L 436.100902 159.762049 
L 436.473616 160.366663 
L 436.844563 160.068401 
L 437.21376 160.414842 
L 437.581224 160.59303 
L 437.94697 161.37895 
L 438.311016 160.854243 
L 438.673376 161.233658 
L 439.034067 161.005921 
L 439.393102 161.629369 
L 439.750499 161.154988 
L 440.10627 161.827147 
L 441.163985 163.043697 
L 441.513403 162.678263 
L 441.861269 163.215647 
L 442.207596 163.460885 
L 442.552396 164.046806 
L 442.895685 163.80622 
L 443.237474 164.247605 
L 443.577778 163.991296 
L 443.916608 165.069758 
L 444.253978 164.772154 
L 444.5899 165.865004 
L 444.924386 165.433802 
L 445.257449 165.644353 
L 445.5891 164.97922 
L 446.248217 166.969913 
L 447.226601 167.439474 
L 447.550029 167.915169 
L 447.872127 167.41282 
L 448.512373 168.415223 
L 448.830543 168.383434 
L 449.147425 168.972095 
L 449.463029 168.894661 
L 449.777365 169.39404 
L 450.71287 169.681825 
L 451.022237 170.729226 
L 451.330386 170.448795 
L 451.637326 170.83802 
L 451.943067 170.869203 
L 452.55099 171.351077 
L 452.85319 171.131426 
L 453.154227 171.582013 
L 453.454111 171.788603 
L 453.752851 172.600049 
L 454.346931 172.411299 
L 454.936536 173.656441 
L 455.521732 173.377879 
L 455.812698 173.497531 
L 456.965863 175.326378 
L 457.251519 175.252203 
L 457.536136 174.950057 
L 457.819722 175.259777 
L 458.102284 175.950297 
L 458.38383 176.256684 
L 458.664367 176.812578 
L 458.943902 176.410507 
L 459.222442 177.041455 
L 459.499994 177.024724 
L 459.776565 177.134451 
L 460.052163 177.582944 
L 460.326794 177.688525 
L 460.600464 177.549118 
L 460.873181 178.385302 
L 461.144951 177.772084 
L 461.415781 178.155557 
L 461.685676 179.026693 
L 462.222691 179.126759 
L 462.489824 179.777247 
L 462.756047 179.726053 
L 463.021368 179.879114 
L 463.285793 179.691234 
L 463.549328 179.761289 
L 463.811978 180.476013 
L 464.073749 180.698852 
L 464.334648 180.449125 
L 464.853852 181.629379 
L 465.112168 181.508112 
L 465.369634 181.851976 
L 465.626256 181.625368 
L 466.13699 182.846568 
L 466.391113 182.906324 
L 466.644413 182.563481 
L 466.896896 182.487931 
L 467.148567 183.531415 
L 467.399431 183.439562 
L 467.649494 183.956611 
L 467.898761 183.927716 
L 468.641833 184.282525 
L 469.133324 185.150271 
L 469.377917 185.02283 
L 469.621748 185.065691 
L 470.107142 185.757263 
L 470.348716 185.759425 
L 470.589546 186.12658 
L 470.829637 185.99847 
L 471.068994 186.053407 
L 471.307621 186.60244 
L 471.545523 186.086704 
L 471.782704 186.95632 
L 472.019168 187.037955 
L 472.25492 186.709489 
L 472.724305 187.346459 
L 472.957946 187.399358 
L 473.190891 187.989135 
L 473.423146 187.473628 
L 473.885597 188.438227 
L 474.115802 188.728501 
L 474.345332 188.754846 
L 474.574191 189.50801 
L 474.802383 188.671101 
L 475.029911 189.282753 
L 475.25678 189.123853 
L 475.482993 189.300151 
L 475.708554 189.725704 
L 475.933467 189.726892 
L 476.157735 190.073253 
L 476.381363 189.511609 
L 476.604354 190.274286 
L 476.826711 189.893801 
L 477.048438 190.46535 
L 477.490017 190.617415 
L 477.709876 189.928204 
L 478.365771 190.850077 
L 478.583186 190.514103 
L 478.8 190.416314 
L 478.8 190.416314 
" clip-path="url(#pfa845f6d4d)" style="fill: none; stroke: #008000; stroke-width: 2.5; stroke-linecap: square"/>
   </g>
   <g id="line2d_58">
    <path d="M 89.488955 25.123205 
L 95.571211 26.958072 
L 101.214711 28.660577 
L 106.47852 30.248539 
L 111.410523 31.736403 
L 116.050084 33.136044 
L 120.429948 34.457342 
L 124.577656 35.708603 
L 128.516583 36.896881 
L 132.266745 38.028213 
L 135.84541 39.107808 
L 139.26758 40.140192 
L 142.546369 41.129322 
L 145.693312 42.078678 
L 148.718603 42.991334 
L 151.631299 43.870022 
L 154.43948 44.717182 
L 157.150389 45.534996 
L 159.770538 46.325431 
L 162.30581 47.09026 
L 164.76153 47.83109 
L 167.14254 48.549382 
L 169.453251 49.246467 
L 171.697696 49.923561 
L 173.87957 50.581779 
L 176.002267 51.222144 
L 178.068913 51.845601 
L 180.082391 52.453018 
L 182.04537 53.0452 
L 183.960319 53.622893 
L 185.829534 54.186789 
L 187.655149 54.737532 
L 189.43915 55.275722 
L 191.183393 55.801917 
L 192.889611 56.316641 
L 194.559427 56.820383 
L 196.194362 57.313603 
L 197.795843 57.79673 
L 199.365212 58.27017 
L 200.903732 58.734304 
L 202.412591 59.18949 
L 203.892912 59.636066 
L 205.345755 60.074353 
L 206.772121 60.504653 
L 208.172958 60.927251 
L 209.549163 61.342418 
L 210.901588 61.750412 
L 212.231041 62.151475 
L 213.538289 62.545839 
L 214.824062 62.933725 
L 216.089054 63.315342 
L 217.333926 63.69089 
L 218.559307 64.060557 
L 219.7658 64.424526 
L 220.953977 64.78297 
L 222.124386 65.136054 
L 223.277551 65.483935 
L 224.413973 65.826766 
L 225.53413 66.16469 
L 226.638482 66.497846 
L 227.727469 66.826366 
L 228.801512 67.150379 
L 229.861016 67.470005 
L 230.906369 67.785362 
L 231.937945 68.096563 
L 232.956101 68.403716 
L 233.961183 68.706924 
L 234.953522 69.006289 
L 235.933436 69.301905 
L 236.901234 69.593866 
L 237.857211 69.88226 
L 238.801653 70.167175 
L 239.734834 70.448693 
L 240.657021 70.726894 
L 241.568468 71.001855 
L 242.469424 71.273652 
L 243.360127 71.542355 
L 244.240807 71.808034 
L 245.111689 72.070758 
L 245.972987 72.33059 
L 246.82491 72.587594 
L 247.66766 72.841831 
L 248.501432 73.09336 
L 249.326417 73.342238 
L 250.142796 73.588519 
L 250.950748 73.832259 
L 251.750445 74.073507 
L 252.542054 74.312316 
L 253.325737 74.548734 
L 254.10165 74.782808 
L 254.869948 75.014585 
L 255.630777 75.244108 
L 256.384281 75.471422 
L 257.1306 75.696568 
L 257.869871 75.919588 
L 258.602224 76.140521 
L 259.327788 76.359405 
L 260.046688 76.57628 
L 260.759044 76.79118 
L 261.464976 77.004143 
" clip-path="url(#pfa845f6d4d)" style="fill: none; stroke-dasharray: 2,3.3; stroke-dashoffset: 0; stroke: #008000; stroke-opacity: 0.7; stroke-width: 2"/>
   </g>
   <g id="line2d_59">
    <path d="M 110.650639 -1 
L 478.8 189.374773 
L 478.8 189.374773 
" clip-path="url(#pfa845f6d4d)" style="fill: none; stroke-dasharray: 14.8,6.4; stroke-dashoffset: 0; stroke: #000000; stroke-width: 4"/>
   </g>
   <g id="patch_3">
    <path d="M 49.506807 228.733061 
L 49.506807 7.2 
" style="fill: none; stroke: #000000; stroke-linejoin: miter; stroke-linecap: square"/>
   </g>
   <g id="patch_4">
    <path d="M 478.8 228.733061 
L 478.8 7.2 
" style="fill: none; stroke: #000000; stroke-linejoin: miter; stroke-linecap: square"/>
   </g>
   <g id="patch_5">
    <path d="M 49.506807 228.733061 
L 478.8 228.733061 
" style="fill: none; stroke: #000000; stroke-linejoin: miter; stroke-linecap: square"/>
   </g>
   <g id="patch_6">
    <path d="M 49.506807 7.2 
L 478.8 7.2 
" style="fill: none; stroke: #000000; stroke-linejoin: miter; stroke-linecap: square"/>
   </g>
   <g id="legend_1">
    <g id="line2d_60">
     <path d="M 63.006807 76.883405 
L 78.006807 76.883405 
L 93.006807 76.883405 
" style="fill: none; stroke: #0000ff; stroke-width: 2.5; stroke-linecap: square"/>
    </g>
    <g id="text_10">
     <!-- $M_A=0.8:M_s=1$ -->
     <g transform="translate(105.006807 82.133405) scale(0.15 -0.15)">
      <defs>
       <path id="CMMI12-4d" d="M 5811 3886 
C 5869 4103 5882 4167 6336 4167 
C 6458 4167 6515 4167 6515 4288 
C 6515 4352 6470 4352 6349 4352 
L 5581 4352 
C 5421 4352 5414 4346 5344 4243 
L 3008 562 
L 2528 4211 
C 2509 4352 2502 4352 2336 4352 
L 1542 4352 
C 1421 4352 1363 4352 1363 4231 
C 1363 4167 1421 4167 1517 4167 
C 1907 4167 1907 4116 1907 4046 
C 1907 4034 1907 3995 1882 3899 
L 1062 634 
C 986 327 838 186 410 186 
C 390 186 314 186 314 73 
C 314 0 371 0 397 0 
C 525 0 851 0 979 0 
L 1286 0 
C 1376 0 1485 0 1574 0 
C 1619 0 1690 0 1690 122 
C 1690 180 1626 186 1600 186 
C 1389 186 1184 224 1184 454 
C 1184 518 1184 524 1210 613 
L 2093 4129 
L 2099 4129 
L 2630 172 
C 2650 19 2656 0 2714 0 
C 2784 0 2816 51 2848 109 
L 5421 4161 
L 5427 4161 
L 4499 473 
C 4442 250 4429 186 3981 186 
C 3859 186 3795 186 3795 70 
C 3795 0 3853 0 3891 0 
C 4000 0 4128 0 4237 0 
L 4992 0 
C 5101 0 5235 0 5344 0 
C 5395 0 5466 0 5466 122 
C 5466 186 5408 186 5312 186 
C 4922 186 4922 234 4922 294 
C 4922 301 4922 345 4934 396 
L 5811 3886 
z
" transform="scale(0.015625)"/>
       <path id="CMMI12-41" d="M 1088 691 
C 864 314 646 186 339 186 
C 269 180 218 180 218 58 
C 218 24 250 0 294 0 
C 410 0 698 0 813 0 
C 998 0 1203 0 1382 0 
C 1421 0 1498 0 1498 122 
C 1498 180 1446 186 1408 186 
C 1261 186 1139 236 1139 388 
C 1139 476 1178 546 1261 685 
L 1747 1479 
L 3379 1479 
C 3386 1423 3386 1373 3392 1316 
C 3411 1152 3488 495 3488 376 
C 3488 186 3162 186 3059 186 
C 2989 186 2918 186 2918 70 
C 2918 0 2976 0 3014 0 
C 3123 0 3251 0 3360 0 
L 3725 0 
C 4115 0 4397 0 4403 0 
C 4448 0 4518 0 4518 122 
C 4518 186 4461 186 4365 186 
C 4013 186 4006 244 3987 434 
L 3597 4404 
C 3584 4531 3558 4544 3488 4544 
C 3424 4544 3386 4531 3328 4435 
L 1088 691 
z
M 1856 1664 
L 3142 3819 
L 3360 1664 
L 1856 1664 
z
" transform="scale(0.015625)"/>
       <path id="CMR17-3d" d="M 4115 2017 
C 4211 2017 4307 2017 4307 2125 
C 4307 2240 4198 2240 4090 2240 
L 512 2240 
C 403 2240 294 2240 294 2125 
C 294 2017 390 2017 486 2017 
L 4115 2017 
z
M 4090 896 
C 4198 896 4307 896 4307 1011 
C 4307 1119 4211 1119 4115 1119 
L 486 1119 
C 390 1119 294 1119 294 1011 
C 294 896 403 896 512 896 
L 4090 896 
z
" transform="scale(0.015625)"/>
       <path id="CMMI12-3a" d="M 1178 307 
C 1178 492 1024 619 870 619 
C 685 619 557 466 557 313 
C 557 128 710 0 864 0 
C 1050 0 1178 153 1178 307 
z
" transform="scale(0.015625)"/>
       <path id="CMR17-3a" d="M 1062 2491 
C 1062 2650 934 2752 800 2752 
C 672 2752 538 2650 538 2491 
C 538 2332 666 2230 800 2230 
C 928 2230 1062 2332 1062 2491 
z
M 1062 261 
C 1062 420 934 522 800 522 
C 672 522 538 420 538 261 
C 538 102 666 0 800 0 
C 928 0 1062 102 1062 261 
z
" transform="scale(0.015625)"/>
       <path id="CMMI12-73" d="M 1459 1280 
C 1568 1261 1741 1223 1779 1216 
C 1862 1192 2150 1090 2150 783 
C 2150 586 1971 70 1229 70 
C 1094 70 614 70 486 436 
C 742 404 870 603 870 745 
C 870 880 781 950 653 950 
C 512 950 326 841 326 552 
C 326 173 710 -64 1222 -64 
C 2195 -64 2483 651 2483 984 
C 2483 1079 2483 1258 2278 1462 
C 2118 1616 1965 1648 1619 1718 
C 1446 1756 1171 1814 1171 2101 
C 1171 2229 1286 2689 1894 2689 
C 2163 2689 2426 2589 2490 2368 
C 2208 2368 2195 2125 2195 2119 
C 2195 1984 2317 1946 2374 1946 
C 2464 1946 2643 2015 2643 2281 
C 2643 2545 2400 2816 1901 2816 
C 1062 2816 838 2160 838 1899 
C 838 1414 1312 1312 1459 1280 
z
" transform="scale(0.015625)"/>
      </defs>
      <use xlink:href="#CMMI12-4d" transform="scale(0.996264)"/>
      <use xlink:href="#CMMI12-41" transform="translate(94.373425 -14.943915) scale(0.697382)"/>
      <use xlink:href="#CMR17-3d" transform="translate(173.734862 0) scale(0.996264)"/>
      <use xlink:href="#CMR17-30" transform="translate(273.123659 0) scale(0.996264)"/>
      <use xlink:href="#CMMI12-3a" transform="translate(318.814136 0) scale(0.996264)"/>
      <use xlink:href="#CMR17-38" transform="translate(345.911313 0) scale(0.996264)"/>
      <use xlink:href="#CMR17-3a" transform="translate(419.275799 0) scale(0.996264)"/>
      <use xlink:href="#CMMI12-4d" transform="translate(471.820866 0) scale(0.996264)"/>
      <use xlink:href="#CMMI12-73" transform="translate(566.194292 -14.943915) scale(0.697382)"/>
      <use xlink:href="#CMR17-3d" transform="translate(626.531321 0) scale(0.996264)"/>
      <use xlink:href="#CMR17-31" transform="translate(725.920118 0) scale(0.996264)"/>
     </g>
    </g>
    <g id="line2d_61">
     <path d="M 63.006807 97.78915 
L 78.006807 97.78915 
L 93.006807 97.78915 
" style="fill: none; stroke-dasharray: 2,3.3; stroke-dashoffset: 0; stroke: #0000ff; stroke-opacity: 0.7; stroke-width: 2"/>
    </g>
    <g id="text_11">
     <!-- $\propto k^{-2.65}$ -->
     <g transform="translate(105.006807 103.03915) scale(0.15 -0.15)">
      <defs>
       <path id="CMSY10-2f" d="M 4621 205 
C 4595 205 4493 192 4474 192 
C 3968 192 3629 691 3411 1024 
C 3347 1133 3174 1395 3104 1504 
C 3258 1850 3686 2643 4448 2643 
C 4493 2643 4550 2643 4621 2624 
C 4621 2790 4614 2797 4602 2810 
C 4557 2822 4461 2829 4403 2829 
C 3590 2829 3117 2048 2963 1728 
C 2707 2118 2618 2259 2381 2458 
C 1990 2797 1638 2829 1478 2829 
C 768 2829 358 2112 358 1376 
C 358 659 755 -70 1459 -70 
C 2272 -70 2746 710 2899 1030 
C 3155 640 3245 499 3482 301 
C 3872 -38 4224 -70 4384 -70 
C 4461 -70 4563 -58 4621 -44 
L 4621 205 
z
M 2758 1254 
C 2605 909 2176 115 1414 115 
C 794 115 499 794 499 1376 
C 499 2010 858 2566 1389 2566 
C 1894 2566 2234 2067 2451 1734 
C 2515 1626 2688 1363 2758 1254 
z
" transform="scale(0.015625)"/>
       <path id="CMSY10-0" d="M 4218 1472 
C 4326 1472 4442 1472 4442 1600 
C 4442 1728 4326 1728 4218 1728 
L 755 1728 
C 646 1728 531 1728 531 1600 
C 531 1472 646 1472 755 1472 
L 4218 1472 
z
" transform="scale(0.015625)"/>
       <path id="CMR17-35" d="M 730 3692 
C 794 3666 1056 3584 1325 3584 
C 1920 3584 2246 3911 2432 4100 
C 2432 4157 2432 4192 2394 4192 
C 2387 4192 2374 4192 2323 4163 
C 2099 4058 1837 3973 1517 3973 
C 1325 3973 1037 3999 723 4139 
C 653 4171 640 4171 634 4171 
C 602 4171 595 4164 595 4037 
L 595 2203 
C 595 2089 595 2057 659 2057 
C 691 2057 704 2070 736 2114 
C 941 2401 1222 2522 1542 2522 
C 1766 2522 2246 2382 2246 1289 
C 2246 1085 2246 715 2054 421 
C 1894 159 1645 25 1370 25 
C 947 25 518 320 403 814 
C 429 807 480 795 506 795 
C 589 795 749 840 749 1038 
C 749 1210 627 1280 506 1280 
C 358 1280 262 1190 262 1011 
C 262 454 704 -128 1382 -128 
C 2042 -128 2669 440 2669 1264 
C 2669 2030 2170 2624 1549 2624 
C 1222 2624 947 2503 730 2274 
L 730 3692 
z
" transform="scale(0.015625)"/>
      </defs>
      <use xlink:href="#CMSY10-2f" transform="scale(0.996264)"/>
      <use xlink:href="#CMMI12-6b" transform="translate(105.161476 0) scale(0.996264)"/>
      <use xlink:href="#CMSY10-0" transform="translate(159.240677 36.153639) scale(0.697382)"/>
      <use xlink:href="#CMR17-32" transform="translate(213.48167 36.153639) scale(0.697382)"/>
      <use xlink:href="#CMMI12-3a" transform="translate(245.464852 36.153639) scale(0.697382)"/>
      <use xlink:href="#CMR17-36" transform="translate(264.432785 36.153639) scale(0.697382)"/>
      <use xlink:href="#CMR17-35" transform="translate(296.415967 36.153639) scale(0.697382)"/>
     </g>
    </g>
    <g id="line2d_62">
     <path d="M 63.006807 118.694895 
L 78.006807 118.694895 
L 93.006807 118.694895 
" style="fill: none; stroke: #ff0000; stroke-width: 2.5; stroke-linecap: square"/>
    </g>
    <g id="text_12">
     <!-- $M_A=0.8, t=1: M_s=10$ -->
     <g transform="translate(105.006807 123.944895) scale(0.15 -0.15)">
      <defs>
       <path id="CMMI12-3b" d="M 1248 -31 
C 1248 343 1126 619 864 619 
C 659 619 557 453 557 313 
C 557 172 653 0 870 0 
C 954 0 1024 26 1082 83 
C 1094 96 1101 96 1107 96 
C 1120 96 1120 5 1120 -27 
C 1120 -240 1082 -659 710 -1080 
C 640 -1157 640 -1170 640 -1183 
C 640 -1216 672 -1248 704 -1248 
C 755 -1248 1248 -771 1248 -31 
z
" transform="scale(0.015625)"/>
       <path id="CMMI12-74" d="M 1286 2566 
L 1875 2566 
C 1997 2566 2061 2566 2061 2681 
C 2061 2752 2022 2752 1894 2752 
L 1331 2752 
L 1568 3692 
C 1594 3781 1594 3794 1594 3840 
C 1594 3943 1510 4000 1427 4000 
C 1376 4000 1229 3981 1178 3775 
L 928 2752 
L 326 2752 
C 198 2752 141 2752 141 2630 
C 141 2566 186 2566 307 2566 
L 877 2566 
L 454 881 
C 403 658 384 594 384 511 
C 384 211 595 -64 954 -64 
C 1600 -64 1946 868 1946 912 
C 1946 951 1920 970 1882 970 
C 1869 970 1843 970 1830 944 
C 1824 938 1818 931 1773 829 
C 1638 511 1344 64 973 64 
C 781 64 768 224 768 364 
C 768 370 768 492 787 568 
L 1286 2566 
z
" transform="scale(0.015625)"/>
      </defs>
      <use xlink:href="#CMMI12-4d" transform="scale(0.996264)"/>
      <use xlink:href="#CMMI12-41" transform="translate(94.373425 -14.943915) scale(0.697382)"/>
      <use xlink:href="#CMR17-3d" transform="translate(173.734862 0) scale(0.996264)"/>
      <use xlink:href="#CMR17-30" transform="translate(273.123659 0) scale(0.996264)"/>
      <use xlink:href="#CMMI12-3a" transform="translate(318.814136 0) scale(0.996264)"/>
      <use xlink:href="#CMR17-38" transform="translate(345.911313 0) scale(0.996264)"/>
      <use xlink:href="#CMMI12-3b" transform="translate(391.601791 0) scale(0.996264)"/>
      <use xlink:href="#CMMI12-74" transform="translate(435.303373 0) scale(0.996264)"/>
      <use xlink:href="#CMR17-3d" transform="translate(498.203712 0) scale(0.996264)"/>
      <use xlink:href="#CMR17-31" transform="translate(597.592509 0) scale(0.996264)"/>
      <use xlink:href="#CMR17-3a" transform="translate(670.956995 0) scale(0.996264)"/>
      <use xlink:href="#CMMI12-4d" transform="translate(723.502062 0) scale(0.996264)"/>
      <use xlink:href="#CMMI12-73" transform="translate(817.875487 -14.943915) scale(0.697382)"/>
      <use xlink:href="#CMR17-3d" transform="translate(878.212517 0) scale(0.996264)"/>
      <use xlink:href="#CMR17-31" transform="translate(977.601314 0) scale(0.996264)"/>
      <use xlink:href="#CMR17-30" transform="translate(1023.291791 0) scale(0.996264)"/>
     </g>
    </g>
    <g id="line2d_63">
     <path d="M 63.006807 139.60064 
L 78.006807 139.60064 
L 93.006807 139.60064 
" style="fill: none; stroke-dasharray: 2,3.3; stroke-dashoffset: 0; stroke: #ff0000; stroke-opacity: 0.7; stroke-width: 2"/>
    </g>
    <g id="text_13">
     <!-- $\propto k^{-1.85}$ -->
     <g transform="translate(105.006807 144.85064) scale(0.15 -0.15)">
      <use xlink:href="#CMSY10-2f" transform="scale(0.996264)"/>
      <use xlink:href="#CMMI12-6b" transform="translate(105.161476 0) scale(0.996264)"/>
      <use xlink:href="#CMSY10-0" transform="translate(159.240677 36.153639) scale(0.697382)"/>
      <use xlink:href="#CMR17-31" transform="translate(213.48167 36.153639) scale(0.697382)"/>
      <use xlink:href="#CMMI12-3a" transform="translate(245.464852 36.153639) scale(0.697382)"/>
      <use xlink:href="#CMR17-38" transform="translate(264.432785 36.153639) scale(0.697382)"/>
      <use xlink:href="#CMR17-35" transform="translate(296.415967 36.153639) scale(0.697382)"/>
     </g>
    </g>
    <g id="line2d_64">
     <path d="M 63.006807 164.435582 
L 78.006807 164.435582 
L 93.006807 164.435582 
" style="fill: none; stroke: #008000; stroke-width: 2.5; stroke-linecap: square"/>
    </g>
    <g id="text_14">
     <!-- $M_A=0.8, t=1; (n_e) M_s=10\,\&amp;\, (\vec{B})M_s=1$ -->
     <g transform="translate(105.006807 169.685582) scale(0.15 -0.15)">
      <defs>
       <path id="CMR17-3b" d="M 1062 2491 
C 1062 2650 934 2752 800 2752 
C 672 2752 538 2650 538 2491 
C 538 2332 666 2230 800 2230 
C 928 2230 1062 2332 1062 2491 
z
M 979 -71 
C 979 -483 851 -817 634 -1126 
C 595 -1170 595 -1183 595 -1190 
C 595 -1222 621 -1248 646 -1248 
C 678 -1248 1082 -805 1082 -61 
C 1082 189 1062 522 800 522 
C 659 522 538 427 538 261 
C 538 96 659 0 800 0 
C 864 0 934 19 979 64 
L 979 -71 
z
" transform="scale(0.015625)"/>
       <path id="CMMI12-6e" d="M 1318 1871 
C 1331 1910 1491 2229 1728 2433 
C 1894 2586 2112 2689 2362 2689 
C 2618 2689 2707 2497 2707 2242 
C 2707 1878 2445 1150 2317 805 
C 2259 651 2227 568 2227 453 
C 2227 166 2426 -64 2733 -64 
C 3328 -64 3552 875 3552 913 
C 3552 945 3526 971 3488 971 
C 3430 971 3424 952 3392 843 
C 3245 319 3002 64 2752 64 
C 2688 64 2586 64 2586 269 
C 2586 429 2656 621 2694 710 
C 2822 1063 3091 1780 3091 2145 
C 3091 2528 2867 2816 2381 2816 
C 1811 2816 1510 2415 1395 2255 
C 1376 2618 1114 2816 832 2816 
C 627 2816 486 2695 378 2478 
C 262 2248 173 1865 173 1839 
C 173 1814 198 1782 243 1782 
C 294 1782 301 1788 339 1935 
C 442 2325 557 2689 813 2689 
C 960 2689 1011 2586 1011 2395 
C 1011 2254 947 2005 902 1807 
L 723 1118 
C 698 996 627 709 595 594 
C 550 428 480 128 480 96 
C 480 6 550 -64 646 -64 
C 723 -64 813 -26 864 70 
C 877 102 934 326 966 453 
L 1107 1028 
L 1318 1871 
z
" transform="scale(0.015625)"/>
       <path id="CMMI12-65" d="M 1146 1479 
C 1318 1479 1754 1479 2061 1595 
C 2547 1783 2592 2158 2592 2274 
C 2592 2558 2349 2816 1926 2816 
C 1254 2816 288 2210 288 1073 
C 288 402 672 -64 1254 -64 
C 2125 -64 2675 609 2675 692 
C 2675 730 2637 762 2611 762 
C 2592 762 2586 756 2528 699 
C 2118 159 1510 64 1267 64 
C 902 64 710 350 710 822 
C 710 911 710 1071 806 1479 
L 1146 1479 
z
M 838 1600 
C 1114 2592 1722 2689 1926 2689 
C 2208 2689 2400 2522 2400 2277 
C 2400 1600 1376 1600 1107 1600 
L 838 1600 
z
" transform="scale(0.015625)"/>
       <path id="CMR17-26" d="M 429 1327 
C 288 1169 211 992 211 782 
C 211 264 704 -128 1306 -128 
C 1907 -128 2291 240 2419 361 
C 2592 202 2944 -128 3456 -128 
C 3910 -128 4294 214 4307 740 
L 4192 740 
C 4179 247 3763 38 3482 38 
C 3104 38 2790 411 2637 588 
C 2758 733 2963 980 3386 1732 
C 3507 1941 3686 2257 3782 2339 
C 3872 2415 4019 2522 4339 2522 
L 4339 2694 
C 4218 2688 3949 2688 3821 2688 
C 3629 2688 3328 2688 3142 2688 
L 3142 2522 
C 3354 2522 3526 2434 3526 2264 
C 3526 2163 3379 1917 3104 1463 
C 3008 1300 2784 928 2560 683 
C 2464 803 1830 1606 1517 2421 
C 2176 3211 2246 3499 2246 3703 
C 2246 3958 2163 4480 1747 4480 
C 1370 4480 979 4136 979 3518 
C 979 3193 1030 2792 1222 2238 
L 429 1327 
z
M 1478 2543 
C 1357 2875 1286 3295 1286 3639 
C 1286 4200 1549 4378 1754 4378 
C 2112 4378 2131 3805 2131 3709 
C 2131 3486 2016 3168 1478 2543 
z
M 1267 2143 
C 1581 1436 2035 793 2336 449 
C 2022 158 1677 38 1363 38 
C 845 38 621 563 621 978 
C 621 1239 704 1500 870 1691 
L 1267 2143 
z
" transform="scale(0.015625)"/>
       <path id="CMMI12-7e" d="M 3424 3835 
C 3347 3764 3110 3540 3110 3451 
C 3110 3387 3168 3329 3232 3329 
C 3290 3329 3315 3368 3360 3432 
C 3514 3624 3686 3745 3834 3828 
C 3898 3867 3942 3886 3942 3956 
C 3942 4014 3891 4046 3853 4078 
C 3674 4200 3629 4372 3610 4449 
C 3590 4500 3571 4577 3482 4577 
C 3443 4577 3366 4552 3366 4456 
C 3366 4398 3405 4244 3526 4072 
L 1376 4072 
C 1267 4072 1158 4072 1158 3950 
C 1158 3835 1274 3835 1376 3835 
L 3424 3835 
z
" transform="scale(0.015625)"/>
       <path id="CMMI12-42" d="M 2342 3921 
C 2400 4160 2426 4160 2675 4160 
L 3507 4160 
C 4230 4160 4230 3544 4230 3485 
C 4230 2966 3712 2304 2867 2304 
L 1946 2304 
L 2342 3921 
z
M 3424 2275 
C 4122 2402 4755 2886 4755 3473 
C 4755 3970 4314 4352 3590 4352 
L 1536 4352 
C 1414 4352 1357 4352 1357 4226 
C 1357 4160 1414 4160 1510 4160 
C 1901 4160 1901 4112 1901 4044 
C 1901 4032 1901 3993 1875 3897 
L 1011 472 
C 954 249 941 185 493 185 
C 371 185 307 185 307 70 
C 307 0 346 0 474 0 
L 2669 0 
C 3648 0 4403 739 4403 1383 
C 4403 1906 3942 2224 3424 2275 
z
M 2515 185 
L 1651 185 
C 1562 185 1549 185 1510 192 
C 1440 198 1434 211 1434 261 
C 1434 305 1446 343 1459 399 
L 1907 2176 
L 3110 2176 
C 3866 2176 3866 1483 3866 1433 
C 3866 828 3309 185 2515 185 
z
" transform="scale(0.015625)"/>
      </defs>
      <use xlink:href="#CMMI12-4d" transform="scale(0.996264)"/>
      <use xlink:href="#CMMI12-41" transform="translate(94.373425 -14.943915) scale(0.697382)"/>
      <use xlink:href="#CMR17-3d" transform="translate(173.734862 0) scale(0.996264)"/>
      <use xlink:href="#CMR17-30" transform="translate(273.123659 0) scale(0.996264)"/>
      <use xlink:href="#CMMI12-3a" transform="translate(318.814136 0) scale(0.996264)"/>
      <use xlink:href="#CMR17-38" transform="translate(345.911313 0) scale(0.996264)"/>
      <use xlink:href="#CMMI12-3b" transform="translate(391.601791 0) scale(0.996264)"/>
      <use xlink:href="#CMMI12-74" transform="translate(435.303373 0) scale(0.996264)"/>
      <use xlink:href="#CMR17-3d" transform="translate(498.203712 0) scale(0.996264)"/>
      <use xlink:href="#CMR17-31" transform="translate(597.592509 0) scale(0.996264)"/>
      <use xlink:href="#CMR17-3b" transform="translate(643.282986 0) scale(0.996264)"/>
      <use xlink:href="#CMR17-28" transform="translate(684.75845 0) scale(0.996264)"/>
      <use xlink:href="#CMMI12-6e" transform="translate(720.039218 0) scale(0.996264)"/>
      <use xlink:href="#CMMI12-65" transform="translate(778.269265 -14.943915) scale(0.697382)"/>
      <use xlink:href="#CMR17-29" transform="translate(810.415653 0) scale(0.996264)"/>
      <use xlink:href="#CMMI12-4d" transform="translate(845.696421 0) scale(0.996264)"/>
      <use xlink:href="#CMMI12-73" transform="translate(940.069846 -14.943915) scale(0.697382)"/>
      <use xlink:href="#CMR17-3d" transform="translate(1000.406876 0) scale(0.996264)"/>
      <use xlink:href="#CMR17-31" transform="translate(1099.795673 0) scale(0.996264)"/>
      <use xlink:href="#CMR17-30" transform="translate(1145.48615 0) scale(0.996264)"/>
      <use xlink:href="#CMR17-26" transform="translate(1207.781032 0) scale(0.996264)"/>
      <use xlink:href="#CMR17-28" transform="translate(1296.100226 0) scale(0.996264)"/>
      <use xlink:href="#CMMI12-7e" transform="translate(1347.028234 25.183273) scale(0.996264)"/>
      <use xlink:href="#CMMI12-42" transform="translate(1331.380994 0) scale(0.996264)"/>
      <use xlink:href="#CMR17-29" transform="translate(1410.516517 0) scale(0.996264)"/>
      <use xlink:href="#CMMI12-4d" transform="translate(1445.797285 0) scale(0.996264)"/>
      <use xlink:href="#CMMI12-73" transform="translate(1540.17071 -14.943915) scale(0.697382)"/>
      <use xlink:href="#CMR17-3d" transform="translate(1600.50774 0) scale(0.996264)"/>
      <use xlink:href="#CMR17-31" transform="translate(1699.896537 0) scale(0.996264)"/>
     </g>
    </g>
    <g id="line2d_65">
     <path d="M 63.006807 186.171572 
L 78.006807 186.171572 
L 93.006807 186.171572 
" style="fill: none; stroke-dasharray: 2,3.3; stroke-dashoffset: 0; stroke: #008000; stroke-opacity: 0.7; stroke-width: 2"/>
    </g>
    <g id="text_15">
     <!-- $\propto k^{-2.14}$ -->
     <g transform="translate(105.006807 191.421572) scale(0.15 -0.15)">
      <use xlink:href="#CMSY10-2f" transform="scale(0.996264)"/>
      <use xlink:href="#CMMI12-6b" transform="translate(105.161476 0) scale(0.996264)"/>
      <use xlink:href="#CMSY10-0" transform="translate(159.240677 36.153639) scale(0.697382)"/>
      <use xlink:href="#CMR17-32" transform="translate(213.48167 36.153639) scale(0.697382)"/>
      <use xlink:href="#CMMI12-3a" transform="translate(245.464852 36.153639) scale(0.697382)"/>
      <use xlink:href="#CMR17-31" transform="translate(264.432785 36.153639) scale(0.697382)"/>
      <use xlink:href="#CMR17-34" transform="translate(296.415967 36.153639) scale(0.697382)"/>
     </g>
    </g>
    <g id="line2d_66">
     <path d="M 63.006807 207.077316 
L 78.006807 207.077316 
L 93.006807 207.077316 
" style="fill: none; stroke-dasharray: 14.8,6.4; stroke-dashoffset: 0; stroke: #000000; stroke-width: 4"/>
    </g>
    <g id="text_16">
     <!-- $k^{-11/3}$ -->
     <g transform="translate(105.006807 212.327316) scale(0.15 -0.15)">
      <defs>
       <path id="CMMI12-3d" d="M 2746 4562 
C 2746 4569 2784 4666 2784 4678 
C 2784 4755 2720 4800 2669 4800 
C 2637 4800 2579 4800 2528 4659 
L 384 -1363 
C 384 -1370 346 -1465 346 -1478 
C 346 -1555 410 -1600 461 -1600 
C 499 -1600 557 -1593 602 -1459 
L 2746 4562 
z
" transform="scale(0.015625)"/>
      </defs>
      <use xlink:href="#CMMI12-6b" transform="scale(0.996264)"/>
      <use xlink:href="#CMSY10-0" transform="translate(54.079201 36.153639) scale(0.697382)"/>
      <use xlink:href="#CMR17-31" transform="translate(108.320194 36.153639) scale(0.697382)"/>
      <use xlink:href="#CMR17-31" transform="translate(140.303376 36.153639) scale(0.697382)"/>
      <use xlink:href="#CMMI12-3d" transform="translate(172.286558 36.153639) scale(0.697382)"/>
      <use xlink:href="#CMR17-33" transform="translate(206.428849 36.153639) scale(0.697382)"/>
     </g>
    </g>
   </g>
  </g>
 </g>
 <defs>
  <clipPath id="pfa845f6d4d">
   <rect x="49.506807" y="7.2" width="429.293193" height="221.533061"/>
  </clipPath>
 </defs>
</svg>
