<?xml version="1.0" encoding="UTF-8" standalone="no"?>
<svg
   width="770pt"
   height="360pt"
   viewBox="0 0 770 360"
   version="1.1"
   id="svg168"
   sodipodi:docname="das.svg"
   xmlns:inkscape="http://www.inkscape.org/namespaces/inkscape"
   xmlns:sodipodi="http://sodipodi.sourceforge.net/DTD/sodipodi-0.dtd"
   xmlns:xlink="http://www.w3.org/1999/xlink"
   xmlns="http://www.w3.org/2000/svg"
   xmlns:svg="http://www.w3.org/2000/svg"
   xmlns:rdf="http://www.w3.org/1999/02/22-rdf-syntax-ns#"
   xmlns:cc="http://creativecommons.org/ns#"
   xmlns:dc="http://purl.org/dc/elements/1.1/">
  <sodipodi:namedview
     id="namedview168"
     pagecolor="#ffffff"
     bordercolor="#000000"
     borderopacity="0.25"
     inkscape:showpageshadow="2"
     inkscape:pageopacity="0.0"
     inkscape:pagecheckerboard="0"
     inkscape:deskcolor="#d1d1d1"
     inkscape:document-units="pt">
    <inkscape:page
       x="0"
       y="0"
       width="770.00006"
       height="360"
       id="page2"
       margin="0"
       bleed="0" />
  </sodipodi:namedview>
  <metadata
     id="metadata1">
    <rdf:RDF>
      <cc:Work>
        <dc:type
           rdf:resource="http://purl.org/dc/dcmitype/StillImage" />
        <dc:date>2026-01-06T05:39:45.090104</dc:date>
        <dc:format>image/svg+xml</dc:format>
        <dc:creator>
          <cc:Agent>
            <dc:title>Matplotlib v3.8.4, https://matplotlib.org/</dc:title>
          </cc:Agent>
        </dc:creator>
      </cc:Work>
    </rdf:RDF>
  </metadata>
  <defs
     id="defs1">
    <style
       type="text/css"
       id="style1">*{stroke-linejoin: round; stroke-linecap: butt}</style>
  </defs>
  <g
     id="figure_1">
    <g
       id="patch_1">
      <path
         d="M 0,360 H 720 V 0 H 0 Z"
         style="fill:#ffffff"
         id="path1" />
    </g>
    <g
       id="axes_1"
       transform="translate(60)">
      <g
         id="patch_2">
        <path
           d="m 57.6,288 h 648 V 7.2 h -648 z"
           style="fill:#ffffff"
           id="path2" />
      </g>
      <g
         id="matplotlib.axis_1">
        <g
           id="xtick_1">
          <g
             id="line2d_1">
            <defs
               id="defs2">
              <path
                 id="mad1c5aa596"
                 d="M 0,0 V 3.5"
                 style="stroke:#000000;stroke-width:0.8" />
            </defs>
            <g
               id="g2">
              <use
                 xlink:href="#mad1c5aa596"
                 x="152.50909"
                 y="288"
                 style="stroke:#000000;stroke-width:0.8"
                 id="use2" />
            </g>
          </g>
          <g
             id="text_1">
            <!-- $\mathdefault{10^{-5}}$ -->
            <g
               transform="matrix(0.24,0,0,-0.24,130.93739,311.6044)"
               id="g6">
              <defs
                 id="defs3">
                <path
                   id="CMR17-31"
                   d="m 1702,4058 c 0,134 -6,134 -96,134 -249,-276 -627,-365 -985,-365 -19,0 -51,0 -58,-19 -6,-13 -6,-26 -6,-160 198,0 531,38 787,191 V 461 C 1344,236 1331,160 781,160 H 589 V 0 c 307,0 627,0 934,0 307,0 627,0 935,0 v 160 h -192 c -551,0 -564,70 -564,298 z"
                   transform="scale(0.015625)" />
                <path
                   id="CMR17-30"
                   d="m 2688,2025 c 0,391 -6,1055 -275,1566 -237,448 -615,607 -947,607 -308,0 -698,-140 -941,-601 C 269,3118 243,2524 243,2025 c 0,-364 7,-919 205,-1406 275,-658 768,-747 1018,-747 294,0 742,121 1004,728 192,442 218,959 218,1425 z M 1466,-26 c -410,0 -653,351 -743,838 -70,376 -70,926 -70,1284 0,492 0,901 83,1291 122,542 480,709 730,709 262,0 601,-173 723,-696 83,-364 89,-793 89,-1304 0,-416 0,-927 -76,-1304 C 2067,95 1690,-26 1466,-26 Z"
                   transform="scale(0.015625)" />
                <path
                   id="CMSY10-0"
                   d="m 4218,1472 c 108,0 224,0 224,128 0,128 -116,128 -224,128 H 755 c -109,0 -224,0 -224,-128 0,-128 115,-128 224,-128 z"
                   transform="scale(0.015625)" />
                <path
                   id="CMR17-35"
                   d="m 730,3692 c 64,-26 326,-108 595,-108 595,0 921,327 1107,516 0,57 0,92 -38,92 -7,0 -20,0 -71,-29 -224,-105 -486,-190 -806,-190 -192,0 -480,26 -794,166 -70,32 -83,32 -89,32 -32,0 -39,-7 -39,-134 V 2203 c 0,-114 0,-146 64,-146 32,0 45,13 77,57 205,287 486,408 806,408 224,0 704,-140 704,-1233 0,-204 0,-574 -192,-868 C 1894,159 1645,25 1370,25 947,25 518,320 403,814 c 26,-7 77,-19 103,-19 83,0 243,45 243,243 0,172 -122,242 -243,242 -148,0 -244,-90 -244,-269 0,-557 442,-1139 1120,-1139 660,0 1287,568 1287,1392 0,766 -499,1360 -1120,1360 -327,0 -602,-121 -819,-350 z"
                   transform="scale(0.015625)" />
              </defs>
              <use
                 xlink:href="#CMR17-31"
                 transform="scale(0.996264)"
                 id="use3" />
              <use
                 xlink:href="#CMR17-30"
                 transform="matrix(0.996264,0,0,0.996264,45.690477,0)"
                 id="use4" />
              <use
                 xlink:href="#CMSY10-0"
                 transform="matrix(0.697382,0,0,0.697382,91.380954,36.153639)"
                 id="use5" />
              <use
                 xlink:href="#CMR17-35"
                 transform="matrix(0.697382,0,0,0.697382,145.62195,36.153639)"
                 id="use6" />
            </g>
          </g>
        </g>
        <g
           id="xtick_2">
          <g
             id="line2d_2">
            <g
               id="g7">
              <use
                 xlink:href="#mad1c5aa596"
                 x="283.41818"
                 y="288"
                 style="stroke:#000000;stroke-width:0.8"
                 id="use7" />
            </g>
          </g>
          <g
             id="text_2">
            <!-- $\mathdefault{10^{-3}}$ -->
            <g
               transform="matrix(0.24,0,0,-0.24,261.84648,311.6044)"
               id="g11">
              <defs
                 id="defs7">
                <path
                   id="CMR17-33"
                   d="m 1414,2157 c 570,0 820,-495 820,-1067 C 2234,320 1824,25 1453,25 1114,25 563,194 390,693 c 32,-13 64,-13 96,-13 154,0 269,102 269,268 0,185 -141,268 -269,268 -108,0 -275,-51 -275,-290 0,-591 576,-1054 1255,-1054 710,0 1254,558 1254,1213 0,622 -512,1072 -1120,1142 486,101 954,529 954,1102 0,491 -506,850 -1082,850 -582,0 -1094,-350 -1094,-850 0,-219 166,-257 249,-257 135,0 250,83 250,249 0,165 -115,248 -250,248 -25,0 -57,0 -83,-12 186,402 691,475 915,475 224,0 647,-107 647,-712 0,-177 -26,-492 -244,-770 -192,-246 -409,-246 -620,-266 -32,0 -180,-15 -205,-15 -45,-6 -71,-12 -71,-61 0,-45 7,-51 135,-51 z"
                   transform="scale(0.015625)" />
              </defs>
              <use
                 xlink:href="#CMR17-31"
                 transform="scale(0.996264)"
                 id="use8" />
              <use
                 xlink:href="#CMR17-30"
                 transform="matrix(0.996264,0,0,0.996264,45.690477,0)"
                 id="use9" />
              <use
                 xlink:href="#CMSY10-0"
                 transform="matrix(0.697382,0,0,0.697382,91.380954,36.153639)"
                 id="use10" />
              <use
                 xlink:href="#CMR17-33"
                 transform="matrix(0.697382,0,0,0.697382,145.62195,36.153639)"
                 id="use11" />
            </g>
          </g>
        </g>
        <g
           id="xtick_3">
          <g
             id="line2d_3">
            <g
               id="g12">
              <use
                 xlink:href="#mad1c5aa596"
                 x="414.32727"
                 y="288"
                 style="stroke:#000000;stroke-width:0.8"
                 id="use12" />
            </g>
          </g>
          <g
             id="text_3">
            <!-- $\mathdefault{10^{-1}}$ -->
            <g
               transform="matrix(0.24,0,0,-0.24,392.75557,311.6044)"
               id="g16">
              <use
                 xlink:href="#CMR17-31"
                 transform="scale(0.996264)"
                 id="use13" />
              <use
                 xlink:href="#CMR17-30"
                 transform="matrix(0.996264,0,0,0.996264,45.690477,0)"
                 id="use14" />
              <use
                 xlink:href="#CMSY10-0"
                 transform="matrix(0.697382,0,0,0.697382,91.380954,36.153639)"
                 id="use15" />
              <use
                 xlink:href="#CMR17-31"
                 transform="matrix(0.697382,0,0,0.697382,145.62195,36.153639)"
                 id="use16" />
            </g>
          </g>
        </g>
        <g
           id="xtick_4">
          <g
             id="line2d_4">
            <g
               id="g17">
              <use
                 xlink:href="#mad1c5aa596"
                 x="545.23639"
                 y="288"
                 style="stroke:#000000;stroke-width:0.8"
                 id="use17" />
            </g>
          </g>
          <g
             id="text_4">
            <!-- $\mathdefault{10^{1}}$ -->
            <g
               transform="matrix(0.24,0,0,-0.24,530.17358,311.6044)"
               id="g20">
              <use
                 xlink:href="#CMR17-31"
                 transform="scale(0.996264)"
                 id="use18" />
              <use
                 xlink:href="#CMR17-30"
                 transform="matrix(0.996264,0,0,0.996264,45.690477,0)"
                 id="use19" />
              <use
                 xlink:href="#CMR17-31"
                 transform="matrix(0.697382,0,0,0.697382,91.380954,36.153639)"
                 id="use20" />
            </g>
          </g>
        </g>
        <g
           id="xtick_5">
          <g
             id="line2d_5">
            <g
               id="g21">
              <use
                 xlink:href="#mad1c5aa596"
                 x="676.14545"
                 y="288"
                 style="stroke:#000000;stroke-width:0.8"
                 id="use21" />
            </g>
          </g>
          <g
             id="text_5">
            <!-- $\mathdefault{10^{3}}$ -->
            <g
               transform="matrix(0.24,0,0,-0.24,661.08267,311.6044)"
               id="g24">
              <use
                 xlink:href="#CMR17-31"
                 transform="scale(0.996264)"
                 id="use22" />
              <use
                 xlink:href="#CMR17-30"
                 transform="matrix(0.996264,0,0,0.996264,45.690477,0)"
                 id="use23" />
              <use
                 xlink:href="#CMR17-33"
                 transform="matrix(0.697382,0,0,0.697382,91.380954,36.153639)"
                 id="use24" />
            </g>
          </g>
        </g>
      </g>
      <g
         id="matplotlib.axis_2">
        <g
           id="ytick_1">
          <g
             id="line2d_6">
            <defs
               id="defs25">
              <path
                 id="maeba0a12b7"
                 d="M 0,0 H -3.5"
                 style="stroke:#000000;stroke-width:0.8" />
            </defs>
            <g
               id="g26">
              <use
                 xlink:href="#maeba0a12b7"
                 x="57.599998"
                 y="275.26199"
                 style="stroke:#000000;stroke-width:0.8"
                 id="use26" />
            </g>
          </g>
          <g
             id="text_7">
            <!-- $\mathdefault{0.0}$ -->
            <g
               transform="matrix(0.24,0,0,-0.24,22.165248,283.56421)"
               id="g29">
              <defs
                 id="defs26">
                <path
                   id="CMMI12-3a"
                   d="M 1178,307 C 1178,492 1024,619 870,619 685,619 557,466 557,313 557,128 710,0 864,0 c 186,0 314,153 314,307 z"
                   transform="scale(0.015625)" />
              </defs>
              <use
                 xlink:href="#CMR17-30"
                 transform="scale(0.996264)"
                 id="use27" />
              <use
                 xlink:href="#CMMI12-3a"
                 transform="matrix(0.996264,0,0,0.996264,45.690477,0)"
                 id="use28" />
              <use
                 xlink:href="#CMR17-30"
                 transform="matrix(0.996264,0,0,0.996264,72.787654,0)"
                 id="use29" />
            </g>
          </g>
        </g>
        <g
           id="ytick_2">
          <g
             id="line2d_7">
            <g
               id="g30">
              <use
                 xlink:href="#maeba0a12b7"
                 x="57.599998"
                 y="179.52393"
                 style="stroke:#000000;stroke-width:0.8"
                 id="use30" />
            </g>
          </g>
          <g
             id="text_8">
            <!-- $\mathdefault{0.5}$ -->
            <g
               transform="matrix(0.24,0,0,-0.24,22.165248,187.82612)"
               id="g33">
              <use
                 xlink:href="#CMR17-30"
                 transform="scale(0.996264)"
                 id="use31" />
              <use
                 xlink:href="#CMMI12-3a"
                 transform="matrix(0.996264,0,0,0.996264,45.690477,0)"
                 id="use32" />
              <use
                 xlink:href="#CMR17-35"
                 transform="matrix(0.996264,0,0,0.996264,72.787654,0)"
                 id="use33" />
            </g>
          </g>
        </g>
        <g
           id="ytick_3">
          <g
             id="line2d_8">
            <g
               id="g34">
              <use
                 xlink:href="#maeba0a12b7"
                 x="57.599998"
                 y="83.785835"
                 style="stroke:#000000;stroke-width:0.8"
                 id="use34" />
            </g>
          </g>
          <g
             id="text_9">
            <!-- $\mathdefault{1.0}$ -->
            <g
               transform="matrix(0.24,0,0,-0.24,22.165248,92.088038)"
               id="g37">
              <use
                 xlink:href="#CMR17-31"
                 transform="scale(0.996264)"
                 id="use35" />
              <use
                 xlink:href="#CMMI12-3a"
                 transform="matrix(0.996264,0,0,0.996264,45.690477,0)"
                 id="use36" />
              <use
                 xlink:href="#CMR17-30"
                 transform="matrix(0.996264,0,0,0.996264,72.787654,0)"
                 id="use37" />
            </g>
          </g>
        </g>
        <g
           id="text_10"
           transform="matrix(2.0126391,0,0,2.0126391,-27.153046,-152.19372)">
          <!-- log-log slope -->
          <g
             transform="matrix(0,-0.24,-0.24,0,13.514491,206.76027)"
             id="g49">
            <defs
               id="defs37">
              <path
                 id="CMR17-6c"
                 d="m 979,4396 -761,-70 v -166 c 377,0 435,-38 435,-343 V 426 C 653,184 627,153 218,153 V -13 C 371,0 653,0 813,0 c 166,0 448,0 601,-13 v 166 c -409,0 -435,25 -435,273 z"
                 transform="scale(0.015625)" />
              <path
                 id="CMR17-6f"
                 d="m 2758,1356 c 0,820 -595,1460 -1292,1460 C 768,2816 173,2176 173,1356 173,551 768,-64 1466,-64 c 697,0 1292,615 1292,1420 z M 1466,51 c -301,0 -557,179 -704,429 -160,287 -180,646 -180,928 0,269 13,602 180,890 128,211 377,416 704,416 288,0 531,-160 684,-384 199,-301 199,-723 199,-922 0,-250 -13,-633 -186,-941 C 1984,173 1709,51 1466,51 Z"
                 transform="scale(0.015625)" />
              <path
                 id="CMR17-67"
                 d="m 710,1164 c 122,-96 333,-204 589,-204 506,0 941,397 941,928 0,166 -51,422 -243,621 179,183 441,243 589,243 25,0 64,0 96,-18 -26,-6 -84,-31 -84,-129 0,-78 58,-134 141,-134 96,0 147,62 147,143 0,117 -96,240 -300,240 -256,0 -480,-116 -660,-274 -192,173 -422,236 -627,236 -505,0 -941,-397 -941,-928 0,-366 212,-596 276,-660 C 442,1004 442,743 442,711 442,545 506,302 723,168 390,85 128,-169 128,-486 c 0,-457 608,-794 1338,-794 704,0 1337,324 1337,801 0,863 -947,863 -1440,863 -147,0 -409,0 -441,7 -199,32 -333,211 -333,435 0,57 0,198 121,338 z m 589,-96 c -563,0 -563,692 -563,821 0,127 0,819 563,819 563,0 563,-692 563,-819 0,-129 0,-821 -563,-821 z m 167,-2239 c -640,0 -1082,336 -1082,685 0,197 109,381 250,482 160,108 224,108 659,108 525,0 1254,0 1254,-590 0,-349 -441,-685 -1081,-685 z"
                 transform="scale(0.015625)" />
              <path
                 id="CMR17-2d"
                 d="m 1632,1216 v 280 H 26 v -280 z"
                 transform="scale(0.015625)" />
              <path
                 id="CMR17-73"
                 d="m 1978,2697 c 0,116 -7,122 -45,122 -26,0 -32,-6 -109,-102 -19,-26 -77,-91 -96,-116 -205,218 -493,218 -602,218 -710,0 -966,-372 -966,-743 0,-578 653,-711 838,-751 404,-82 544,-108 679,-224 83,-76 224,-217 224,-447 0,-270 -154,-616 -743,-616 -556,0 -755,422 -870,983 -19,89 -19,96 -70,96 -52,0 -58,-7 -58,-134 V 63 c 0,-114 6,-121 45,-121 32,0 38,7 70,58 39,57 135,211 173,276 128,-173 352,-340 710,-340 634,0 973,347 973,848 0,328 -173,501 -256,578 -192,199 -416,244 -685,295 -352,78 -800,168 -800,560 0,166 90,520 736,520 685,0 724,-643 736,-849 7,-32 39,-39 58,-39 58,0 58,20 58,129 z"
                 transform="scale(0.015625)" />
              <path
                 id="CMR17-70"
                 d="m 1408,-1063 c -410,0 -435,26 -435,274 V 402 c 185,-268 454,-440 793,-440 640,0 1287,561 1287,1426 0,803 -557,1414 -1216,1414 -384,0 -698,-210 -877,-464 v 464 l -762,-70 v -165 c 378,0 436,-39 436,-344 V -789 c 0,-242 -26,-274 -436,-274 v -165 c 154,12 436,12 602,12 166,0 454,0 608,-12 z M 973,2012 c 0,90 0,223 249,459 32,26 250,217 570,217 467,0 851,-580 851,-1306 C 2643,656 2234,64 1728,64 1498,64 1248,172 1056,472 973,612 973,650 973,752 Z"
                 transform="scale(0.015625)" />
              <path
                 id="CMR17-65"
                 d="m 2438,1472 c 26,26 26,39 26,104 0,662 -346,1240 -1075,1240 C 710,2816 173,2169 173,1383 173,551 781,-64 1459,-64 c 717,0 999,671 999,804 0,44 -39,44 -52,44 -44,0 -51,-13 -76,-88 C 2189,265 1837,51 1504,51 1229,51 954,203 781,480 582,803 582,1176 582,1472 Z m -1849,96 c 45,937 537,1146 793,1146 436,0 730,-417 736,-1146 z"
                 transform="scale(0.015625)" />
            </defs>
            <use
               xlink:href="#CMR17-6c"
               transform="scale(0.996264)"
               id="use38" />
            <use
               xlink:href="#CMR17-6f"
               transform="matrix(0.996264,0,0,0.996264,24.871058,0)"
               id="use39" />
            <use
               xlink:href="#CMR17-67"
               transform="matrix(0.996264,0,0,0.996264,70.561536,0)"
               id="use40" />
            <use
               xlink:href="#CMR17-2d"
               transform="matrix(0.996264,0,0,0.996264,116.25201,0)"
               id="use41" />
            <use
               xlink:href="#CMR17-6c"
               transform="matrix(0.996264,0,0,0.996264,146.32798,0)"
               id="use42" />
            <use
               xlink:href="#CMR17-6f"
               transform="matrix(0.996264,0,0,0.996264,171.19904,0)"
               id="use43" />
            <use
               xlink:href="#CMR17-67"
               transform="matrix(0.996264,0,0,0.996264,216.88951,0)"
               id="use44" />
            <use
               xlink:href="#CMR17-73"
               transform="matrix(0.996264,0,0,0.996264,292.65596,0)"
               id="use45" />
            <use
               xlink:href="#CMR17-6c"
               transform="matrix(0.996264,0,0,0.996264,328.4573,0)"
               id="use46" />
            <use
               xlink:href="#CMR17-6f"
               transform="matrix(0.996264,0,0,0.996264,353.32835,0)"
               id="use47" />
            <use
               xlink:href="#CMR17-70"
               transform="matrix(0.996264,0,0,0.996264,399.01883,0)"
               id="use48" />
            <use
               xlink:href="#CMR17-65"
               transform="matrix(0.996264,0,0,0.996264,452.51664,0)"
               id="use49" />
          </g>
        </g>
      </g>
      <g
         id="line2d_9">
        <path
           d="m 87.054545,142.69709 2.06285,-0.21674 9.135477,-1.16545 8.546088,-1.31399 7.95671,-1.45043 7.36732,-1.56662 7.07263,-1.73173 6.77793,-1.89162 6.48324,-2.04149 6.18855,-2.17658 6.18855,-2.41285 6.18855,-2.6601 5.89385,-2.77033 6.18855,-3.16091 6.18855,-3.41739 6.18855,-3.66608 6.48324,-4.09147 7.07263,-4.72673 7.9567,-5.591809 10.01956,-7.334088 27.40643,-20.226571 7.95671,-5.503013 7.07262,-4.628353 6.48325,-3.988846 6.18854,-3.560038 6.18855,-3.306066 6.18855,-3.046534 5.89386,-2.660163 6.18855,-2.544227 6.18855,-2.297284 6.18855,-2.061126 6.48324,-1.919503 6.48324,-1.688967 6.77793,-1.535255 7.07263,-1.367116 7.07263,-1.141193 7.36732,-0.958549 7.36732,-0.726548 7.07262,-0.472602 6.77794,-0.229475 6.18855,0.0058 5.89385,0.227915 5.30447,0.424617 5.00978,0.62871 4.42039,0.772829 4.1257,0.938762 3.83101,1.090893 3.53631,1.223212 3.53632,1.460952 3.24162,1.576252 3.24162,1.832021 2.94693,1.913281 2.94692,2.174885 2.94693,2.462664 2.94693,2.777619 2.65224,2.792015 2.65223,3.089631 2.65223,3.406726 2.65224,3.742094 2.94693,4.571041 2.94693,5.023712 2.94692,5.489311 2.94693,5.960751 3.24162,7.097775 3.24162,7.647069 3.53632,8.928499 3.831,10.2859 4.4204,12.50957 6.18854,18.24132 10.01956,29.5768 4.71509,13.17885 3.831,10.09114 3.53632,8.72359 3.24162,7.4465 3.24162,6.8924 2.94692,5.7754 2.94693,5.30971 2.94693,4.85351 2.94693,4.41317 2.94693,3.99357 2.94693,3.59823 2.94692,3.22936 2.94693,2.88816 2.94693,2.57489 2.94693,2.28919 3.24162,2.21989 3.24162,1.94002 3.24162,1.69151 3.53631,1.59569 3.83101,1.47291 4.1257,1.33145 4.42039,1.17957 4.71509,1.02479 5.30447,0.91901 5.89385,0.79108 6.77794,0.68047 7.9567,0.5691 9.72486,0.46262 12.3771,0.35363 17.09218,0.24835 27.11174,0.1456 17.09218,0.0311 v 0"
           clip-path="url(#pcc5f430a20)"
           style="fill:none;stroke:#000000;stroke-width:3.5;stroke-linecap:square"
           id="path49" />
      </g>
      <g
         id="line2d_10">
        <path
           d="m 87.054545,142.70158 9.43017,-1.15748 8.546095,-1.26905 7.9567,-1.40199 7.36732,-1.51567 7.07263,-1.67707 6.77793,-1.83391 6.48324,-1.98155 6.18855,-2.11537 6.18855,-2.34823 6.18855,-2.59282 5.89386,-2.7047 6.18855,-3.09155 6.18854,-3.34905 6.18855,-3.60049 6.48325,-4.02773 7.07262,-4.66558 7.66202,-5.327104 9.43017,-6.846874 33.30028,-24.464913 7.66201,-5.186496 6.77794,-4.32777 6.48324,-3.881055 6.18855,-3.451845 6.18855,-3.196042 6.18855,-2.93777 6.18855,-2.682388 6.18854,-2.434305 6.18855,-2.196962 6.48324,-2.061476 6.48325,-1.832724 6.77793,-1.691285 7.36732,-1.602256 7.66201,-1.433569 8.2514,-1.311026 8.84079,-1.173672 9.72486,-1.057999 10.60894,-0.924454 11.78771,-0.801463 13.55587,-0.693675 15.91341,-0.583201 19.15503,-0.470436 24.16481,-0.361236 33.0056,-0.256539 51.57124,-0.154534 111.68857,-0.06103 17.38687,-0.0016 v 0"
           clip-path="url(#pcc5f430a20)"
           style="fill:none;stroke:#ff0000;stroke-width:2;stroke-dasharray:7.4, 3.2;stroke-dashoffset:0"
           id="path50" />
      </g>
      <g
         id="line2d_11">
        <path
           d="m 57.6,19.960445 h 648"
           clip-path="url(#pcc5f430a20)"
           style="fill:none;stroke:#ffa500;stroke-width:2;stroke-dasharray:7.4, 3.2;stroke-dashoffset:0"
           id="path51" />
      </g>
      <g
         id="line2d_12"
         transform="matrix(0.65114089,0,0,1,20.094285,0)">
        <path
           d="m 57.6,147.61122 h 648"
           clip-path="url(#pcc5f430a20)"
           style="fill:none;stroke:#0000ff;stroke-width:2;stroke-dasharray:7.4, 3.2;stroke-dashoffset:0"
           id="path52" />
      </g>
      <g
         id="line2d_13">
        <path
           d="M 224.30684,288 V 7.2"
           clip-path="url(#pcc5f430a20)"
           style="fill:none;stroke:#808080;stroke-width:2;stroke-dasharray:12.8, 3.2, 2, 3.2;stroke-dashoffset:0"
           id="path53" />
      </g>
      <g
         id="line2d_14"
         transform="matrix(0.63730512,0,0,1,20.891225,0)">
        <path
           d="m 57.6,83.785835 h 648"
           clip-path="url(#pcc5f430a20)"
           style="fill:none;stroke:#1f77b4;stroke-dasharray:1, 1.65;stroke-dashoffset:0"
           id="path54" />
      </g>
      <g
         id="line2d_15">
        <path
           d="M 126.12502,288 V 7.2"
           clip-path="url(#pcc5f430a20)"
           style="fill:none;stroke:#808080;stroke-dasharray:3.7, 1.6;stroke-dashoffset:0"
           id="path55" />
      </g>
      <g
         id="line2d_16">
        <path
           d="M 322.48865,288 V 7.2"
           clip-path="url(#pcc5f430a20)"
           style="fill:none;stroke:#808080;stroke-dasharray:3.7, 1.6;stroke-dashoffset:0"
           id="path56" />
      </g>
      <g
         id="patch_3">
        <path
           d="M 57.6,288 V 7.2"
           style="fill:none;stroke:#000000;stroke-width:0.8;stroke-linecap:square;stroke-linejoin:miter"
           id="path57" />
      </g>
      <g
         id="patch_4">
        <path
           d="M 705.6,288 V 7.2"
           style="fill:none;stroke:#000000;stroke-width:0.8;stroke-linecap:square;stroke-linejoin:miter"
           id="path58" />
      </g>
      <g
         id="patch_5">
        <path
           d="m 57.6,288 h 648"
           style="fill:none;stroke:#000000;stroke-width:0.8;stroke-linecap:square;stroke-linejoin:miter"
           id="path59" />
      </g>
      <g
         id="patch_6">
        <path
           d="m 57.6,7.2 h 648"
           style="fill:none;stroke:#000000;stroke-width:0.8;stroke-linecap:square;stroke-linejoin:miter"
           id="path60" />
      </g>
      <g
         id="text_11"
         transform="matrix(1.6354394,0,0,1.6354394,-84.915743,159.76346)"
         style="fill:#808080;fill-opacity:1">
        <!-- $R_\times k^{-\frac{1}{\Delta \rm{m}}}$ -->
        <g
           style="fill:#808080;fill-opacity:1"
           transform="matrix(0,-0.24,-0.24,0,121.14371,74.215501)"
           id="g66">
          <defs
             id="defs60">
            <path
               id="CMMI12-52"
               d="m 2355,3924 c 58,236 83,236 333,236 h 461 c 550,0 960,-165 960,-661 0,-324 -167,-1259 -1453,-1259 h -723 z m 890,-1755 c 793,172 1414,682 1414,1229 0,496 -505,954 -1395,954 H 1530 c -128,0 -186,0 -186,-126 0,-66 45,-66 166,-66 384,0 384,-48 384,-115 0,-12 0,-51 -25,-146 L 1005,479 C 947,256 934,192 493,192 346,192 301,192 301,71 301,7 371,7 390,7 506,7 640,7 762,7 h 755 c 115,0 249,0 365,0 51,0 121,0 121,121 0,64 -57,64 -153,64 -391,0 -391,51 -391,114 0,7 0,51 13,101 l 429,1705 h 768 c 608,0 723,-381 723,-590 0,-95 -64,-343 -109,-508 -70,-291 -89,-362 -89,-482 0,-450 371,-660 800,-660 518,0 742,629 742,719 0,44 -32,63 -70,63 -52,0 -64,-38 -77,-89 C 4435,114 4173,0 4013,0 c -160,0 -263,70 -263,356 0,153 77,732 84,764 32,235 32,260 32,312 0,464 -378,661 -621,737 z"
               transform="scale(0.015625)" />
            <path
               id="CMSY10-2"
               d="M 2490,1785 1210,3059 c -77,77 -90,89 -141,89 -64,0 -128,-57 -128,-128 0,-44 13,-57 83,-128 L 2304,1606 1024,320 c -70,-71 -83,-84 -83,-128 0,-71 64,-128 128,-128 51,0 64,12 141,89 L 2483,1427 3808,102 c 13,-6 58,-38 96,-38 77,0 128,57 128,128 0,12 0,38 -19,70 -7,13 -1024,1018 -1344,1344 l 1171,1171 c 32,39 128,122 160,160 6,13 32,39 32,83 0,71 -51,128 -128,128 -51,0 -77,-25 -147,-96 z"
               transform="scale(0.015625)" />
            <path
               id="CMMI12-6b"
               d="m 1798,4257 c 7,26 20,64 20,95 0,64 -64,64 -77,64 -7,0 -237,-23 -352,-39 -109,0 -205,-19 -320,-19 -154,-13 -199,-19 -199,-134 0,-64 64,-64 128,-64 327,0 327,-57 327,-120 0,-25 0,-38 -32,-152 L 378,248 C 352,152 352,140 352,101 352,-38 461,-64 525,-64 704,-64 742,77 794,275 l 300,1194 c 461,-51 736,-243 736,-549 0,-39 0,-64 -19,-160 -25,-96 -25,-172 -25,-204 0,-371 243,-620 569,-620 295,0 448,268 499,358 135,236 218,594 218,619 0,32 -26,58 -64,58 -58,0 -64,-26 -90,-128 -89,-332 -224,-779 -550,-779 -128,0 -211,64 -211,306 0,122 25,262 51,358 26,115 26,121 26,198 0,377 -340,588 -928,664 230,141 460,390 550,486 365,408 614,613 909,613 147,0 185,-39 230,-77 -237,-26 -326,-192 -326,-319 0,-154 121,-205 211,-205 173,0 326,147 326,352 0,185 -147,376 -435,376 -352,0 -640,-249 -1094,-760 -64,-76 -301,-319 -538,-408 z"
               transform="scale(0.015625)" />
            <path
               id="CMR17-1"
               d="m 2598,4403 c -51,109 -76,109 -128,109 -76,0 -83,-13 -128,-103 L 269,109 C 262,96 237,38 237,32 237,6 243,0 358,0 h 4218 c 115,0 122,6 122,32 0,6 -26,64 -32,77 z M 2310,4038 4083,358 H 531 Z"
               transform="scale(0.015625)" />
            <path
               id="CMR17-6d"
               d="m 4326,1933 c 0,319 -57,857 -819,857 -435,0 -736,-294 -851,-639 h -6 c -77,525 -455,639 -813,639 -506,0 -768,-390 -864,-646 h -7 v 646 l -755,-70 v -166 c 378,0 435,-39 435,-346 V 428 C 646,184 621,153 211,153 V -13 C 365,0 646,0 813,0 c 166,0 454,0 608,-13 v 166 c -410,0 -435,25 -435,275 v 1230 c 0,589 358,1030 806,1030 474,0 525,-422 525,-730 V 428 c 0,-244 -26,-275 -435,-275 V -13 c 153,13 435,13 601,13 167,0 455,0 608,-13 v 166 c -409,0 -435,25 -435,275 v 1230 c 0,589 358,1030 806,1030 474,0 525,-422 525,-730 V 428 c 0,-244 -25,-275 -435,-275 V -13 c 154,13 435,13 602,13 166,0 454,0 608,-13 v 166 c -410,0 -436,25 -436,275 z"
               transform="scale(0.015625)" />
          </defs>
          <use
             xlink:href="#CMMI12-52"
             transform="scale(0.996264)"
             id="use60"
             style="fill:#808080;fill-opacity:1" />
          <use
             xlink:href="#CMSY10-2"
             transform="matrix(0.697382,0,0,0.697382,74.250826,-14.943915)"
             id="use61"
             style="fill:#808080;fill-opacity:1" />
          <use
             xlink:href="#CMMI12-6b"
             transform="matrix(0.996264,0,0,0.996264,128.98995,0)"
             id="use62"
             style="fill:#808080;fill-opacity:1" />
          <use
             xlink:href="#CMSY10-0"
             transform="matrix(0.697382,0,0,0.697382,183.06915,36.153639)"
             id="use63"
             style="fill:#808080;fill-opacity:1" />
          <use
             xlink:href="#CMR17-31"
             transform="matrix(0.498132,0,0,0.498132,265.54283,63.611782)"
             id="use64"
             style="fill:#808080;fill-opacity:1" />
          <use
             xlink:href="#CMR17-1"
             transform="matrix(0.498132,0,0,0.498132,238.50566,12.105073)"
             id="use65"
             style="fill:#808080;fill-opacity:1" />
          <use
             xlink:href="#CMR17-6d"
             transform="matrix(0.498132,0,0,0.498132,276.96545,12.105073)"
             id="use66"
             style="fill:#808080;fill-opacity:1" />
          <path
             d="m 238.50566,52.193465 h 76.91959 v 2.789451 h -76.91959 z"
             id="path66"
             style="fill:#808080;fill-opacity:1" />
        </g>
      </g>
      <g
         id="text_12"
         transform="translate(-8.7807972,175.91672)"
         style="fill:#808080;fill-opacity:1">
        <!-- $R_\times k^{\frac{1}{\Delta \rm{m}}}$ -->
        <g
           style="fill:#808080;fill-opacity:1"
           transform="matrix(0,-0.47245726,-0.47245726,0,320.64321,106.66701)"
           id="g72">
          <use
             xlink:href="#CMMI12-52"
             transform="scale(0.996264)"
             id="use67"
             style="fill:#808080;fill-opacity:1" />
          <use
             xlink:href="#CMMI12-52"
             transform="matrix(0,-1.2479929,1.2479929,0,-157.17189,-109.72241)"
             id="use67-4"
             style="fill:#000000;fill-opacity:1;stroke-linecap:butt;stroke-linejoin:round" />
          <use
             xlink:href="#CMSY10-2"
             transform="matrix(0.697382,0,0,0.697382,74.250826,-14.943915)"
             id="use68"
             style="fill:#808080;fill-opacity:1" />
          <use
             xlink:href="#CMMI12-6b"
             transform="matrix(0.996264,0,0,0.996264,128.98995,0)"
             id="use69"
             style="fill:#808080;fill-opacity:1" />
          <use
             xlink:href="#CMR17-31"
             transform="matrix(0.498132,0,0,0.498132,211.30184,63.611782)"
             id="use70"
             style="fill:#808080;fill-opacity:1" />
          <use
             xlink:href="#CMR17-1"
             transform="matrix(0.498132,0,0,0.498132,184.26466,12.105073)"
             id="use71"
             style="fill:#808080;fill-opacity:1" />
          <use
             xlink:href="#CMR17-6d"
             transform="matrix(0.498132,0,0,0.498132,222.72446,12.105073)"
             id="use72"
             style="fill:#808080;fill-opacity:1" />
          <path
             d="m 184.26466,52.193465 h 76.91959 v 2.789451 h -76.91959 z"
             id="path72"
             style="fill:#808080;fill-opacity:1" />
        </g>
      </g>
      <g
         id="legend_1"
         transform="matrix(1.0952595,0,0,1.0952595,206.02315,-117.40277)">
        <g
           id="line2d_17"
           transform="translate(6.8476925,5.478154)">
          <path
             d="m 254.73432,137.87748 h 20 20"
             style="fill:none;stroke:#000000;stroke-width:3.5;stroke-linecap:square"
             id="path73" />
        </g>
        <g
           id="text_13"
           transform="translate(-4.8153652e-8,6.8476925)">
          <!-- $d\ln(D_u/2)/d\ln R$ -->
          <g
             transform="matrix(0.2,0,0,-0.2,310.73432,144.87748)"
             id="g86">
            <defs
               id="defs73">
              <path
                 id="CMMI12-64"
                 d="m 3219,4257 c 7,25 19,63 19,95 0,64 -64,64 -76,64 -7,0 -320,-28 -352,-36 -109,-7 -205,-22 -320,-22 -160,-13 -205,-19 -205,-134 0,-64 51,-64 141,-64 313,0 320,-57 320,-120 0,-38 -13,-88 -20,-107 L 2336,2395 c -70,166 -243,421 -576,421 C 1037,2816 256,1884 256,939 256,307 627,-64 1062,-64 c 352,0 653,275 832,486 64,-377 365,-486 557,-486 192,0 346,115 461,345 102,217 192,607 192,632 0,32 -26,58 -64,58 -58,0 -64,-32 -90,-128 -96,-377 -217,-779 -480,-779 -185,0 -198,165 -198,293 0,25 0,158 45,337 z M 1926,760 C 1894,651 1894,639 1805,517 1664,338 1382,64 1082,64 819,64 672,300 672,677 c 0,351 198,1066 320,1335 218,447 518,677 768,677 422,0 506,-524 506,-575 0,-6 -20,-90 -26,-102 z"
                 transform="scale(0.015625)" />
              <path
                 id="CMR17-6e"
                 d="m 2656,1933 c 0,326 -64,857 -819,857 -506,0 -768,-390 -864,-646 h -7 v 646 l -755,-70 v -166 c 378,0 435,-39 435,-346 V 428 C 646,184 621,153 211,153 V -13 C 365,0 646,0 813,0 c 166,0 454,0 608,-13 v 166 c -410,0 -435,25 -435,275 v 1230 c 0,589 358,1030 806,1030 474,0 525,-422 525,-730 V 428 c 0,-244 -26,-275 -435,-275 V -13 c 153,13 435,13 601,13 167,0 455,0 608,-13 v 166 c -409,0 -435,25 -435,275 z"
                 transform="scale(0.015625)" />
              <path
                 id="CMR17-28"
                 d="m 1958,-1561 c 0,6 0,19 -19,38 -294,299 -1081,1116 -1081,3104 0,1988 774,2798 1088,3116 0,7 12,20 12,39 0,19 -19,32 -44,32 -71,0 -615,-472 -928,-1174 C 666,2887 576,2199 576,1588 c 0,-460 45,-1237 429,-2059 307,-664 832,-1129 909,-1129 32,0 44,13 44,39 z"
                 transform="scale(0.015625)" />
              <path
                 id="CMMI12-44"
                 d="M 1005,472 C 947,249 934,185 486,185 365,185 301,185 301,70 301,0 339,0 467,0 h 2029 c 1293,0 2554,1332 2554,2753 0,918 -551,1599 -1466,1599 H 1530 c -122,0 -180,0 -180,-121 0,-64 58,-64 154,-64 390,0 390,-51 390,-121 0,-12 0,-51 -25,-147 z m 1350,3459 c 58,236 83,236 333,236 h 704 c 602,0 1152,-325 1152,-1204 C 4544,2644 4416,1536 3795,835 3616,625 3130,185 2394,185 h -730 c -90,0 -102,0 -141,7 -70,6 -77,19 -77,70 0,45 13,83 26,140 z"
                 transform="scale(0.015625)" />
              <path
                 id="CMMI12-75"
                 d="m 2182,370 c 84,-357 391,-434 544,-434 205,0 359,134 461,351 109,230 192,607 192,626 0,32 -25,58 -64,58 -57,0 -64,-32 -89,-128 C 3110,402 2995,64 2739,64 c -192,0 -192,211 -192,294 0,147 19,210 83,479 45,172 90,344 128,523 l 263,1041 c 45,160 45,173 45,192 0,96 -77,160 -173,160 -186,0 -231,-160 -269,-320 -64,-249 -410,-1622 -454,-1845 -7,0 -256,-524 -724,-524 -332,0 -396,287 -396,524 0,364 179,874 345,1302 77,205 109,288 109,415 0,275 -198,511 -506,511 -588,0 -825,-926 -825,-977 0,-25 25,-57 70,-57 58,0 64,25 90,114 153,545 403,786 646,786 64,0 167,0 167,-204 0,-166 -71,-351 -167,-594 C 698,1124 666,881 666,690 c 0,-652 492,-754 755,-754 409,0 633,281 761,434 z"
                 transform="scale(0.015625)" />
              <path
                 id="CMMI12-3d"
                 d="m 2746,4562 c 0,7 38,104 38,116 0,77 -64,122 -115,122 -32,0 -90,0 -141,-141 L 384,-1363 c 0,-7 -38,-102 -38,-115 0,-77 64,-122 115,-122 38,0 96,7 141,141 z"
                 transform="scale(0.015625)" />
              <path
                 id="CMR17-32"
                 d="M 2669,989 H 2554 C 2490,536 2438,459 2413,420 2381,369 1920,369 1830,369 H 602 c 230,250 678,703 1222,1228 390,370 845,805 845,1438 0,755 -602,1189 -1274,1189 -704,0 -1133,-620 -1133,-1194 0,-250 186,-282 263,-282 64,0 256,39 256,262 0,197 -167,254 -256,254 -39,0 -77,-6 -103,-19 122,545 493,813 884,813 556,0 921,-441 921,-1023 0,-556 -326,-1035 -691,-1451 L 262,146 V 0 h 2253 z"
                 transform="scale(0.015625)" />
              <path
                 id="CMR17-29"
                 d="m 1683,1581 c 0,459 -45,1236 -429,2058 -307,664 -832,1129 -908,1129 -20,0 -45,-7 -45,-39 0,-12 6,-19 13,-32 307,-319 1088,-1129 1088,-3113 0,-1991 -775,-2801 -1088,-3121 -7,-12 -13,-19 -13,-31 0,-32 25,-32 45,-32 70,0 614,472 928,1174 320,707 409,1395 409,2007 z"
                 transform="scale(0.015625)" />
            </defs>
            <use
               xlink:href="#CMMI12-64"
               transform="scale(0.996264)"
               id="use73" />
            <use
               xlink:href="#CMR17-6c"
               transform="matrix(0.996264,0,0,0.996264,67.293502,0)"
               id="use74" />
            <use
               xlink:href="#CMR17-6e"
               transform="matrix(0.996264,0,0,0.996264,92.164561,0)"
               id="use75" />
            <use
               xlink:href="#CMR17-28"
               transform="matrix(0.996264,0,0,0.996264,143.05993,0)"
               id="use76" />
            <use
               xlink:href="#CMMI12-44"
               transform="matrix(0.996264,0,0,0.996264,178.3407,0)"
               id="use77" />
            <use
               xlink:href="#CMMI12-75"
               transform="matrix(0.697382,0,0,0.697382,259.33493,-14.943915)"
               id="use78" />
            <use
               xlink:href="#CMMI12-3d"
               transform="matrix(0.996264,0,0,0.996264,298.69712,0)"
               id="use79" />
            <use
               xlink:href="#CMR17-32"
               transform="matrix(0.996264,0,0,0.996264,347.47203,0)"
               id="use80" />
            <use
               xlink:href="#CMR17-29"
               transform="matrix(0.996264,0,0,0.996264,393.16251,0)"
               id="use81" />
            <use
               xlink:href="#CMMI12-3d"
               transform="matrix(0.996264,0,0,0.996264,428.44328,0)"
               id="use82" />
            <use
               xlink:href="#CMMI12-64"
               transform="matrix(0.996264,0,0,0.996264,477.2182,0)"
               id="use83" />
            <use
               xlink:href="#CMR17-6c"
               transform="matrix(0.996264,0,0,0.996264,544.5117,0)"
               id="use84" />
            <use
               xlink:href="#CMR17-6e"
               transform="matrix(0.996264,0,0,0.996264,569.38276,0)"
               id="use85" />
            <use
               xlink:href="#CMMI12-52"
               transform="matrix(0.996264,0,0,0.996264,636.88253,0)"
               id="use86" />
          </g>
        </g>
        <g
           id="line2d_18"
           transform="translate(6.8476925,5.478154)">
          <path
             d="m 254.73432,169.07799 h 20 20"
             style="fill:none;stroke:#ff0000;stroke-width:2;stroke-dasharray:7.4, 3.2;stroke-dashoffset:0"
             id="path86" />
        </g>
        <g
           id="text_14"
           transform="matrix(0.73679316,0,0,0.73679316,80.889862,50.236046)">
          <!-- $(R / R_0)^{m_\psi} + \chi^2 (R / r_\phi)^{m_\phi}$ -->
          <g
             transform="matrix(0.2,0,0,-0.2,310.73432,176.07799)"
             id="g105">
            <defs
               id="defs86">
              <path
                 id="CMMI12-6d"
                 d="m 1318,1871 c 13,39 173,358 410,562 166,153 384,256 634,256 256,0 345,-192 345,-447 0,-39 0,-166 -77,-467 l -160,-657 c -51,-192 -172,-665 -185,-735 -26,-96 -64,-262 -64,-287 0,-90 70,-160 166,-160 192,0 224,147 282,377 l 384,1526 c 13,51 345,850 1049,850 256,0 346,-192 346,-447 0,-358 -250,-1054 -390,-1437 -58,-154 -90,-237 -90,-352 0,-287 198,-517 506,-517 595,0 819,939 819,977 0,32 -26,58 -64,58 -58,0 -64,-19 -96,-128 C 4986,332 4749,64 4493,64 c -64,0 -167,0 -167,205 0,167 77,371 103,441 115,308 403,1063 403,1435 0,383 -224,671 -710,671 -429,0 -775,-242 -1031,-619 -19,345 -230,619 -710,619 -570,0 -871,-401 -986,-561 -19,363 -281,561 -563,561 -186,0 -333,-89 -454,-332 -116,-230 -205,-619 -205,-645 0,-25 25,-57 70,-57 51,0 58,6 96,153 96,377 218,754 474,754 147,0 198,-103 198,-294 0,-141 -64,-390 -109,-588 L 723,1118 C 698,996 627,709 595,594 550,428 480,128 480,96 480,6 550,-64 646,-64 c 77,0 167,38 218,134 13,32 70,256 102,383 l 141,575 z"
                 transform="scale(0.015625)" />
              <path
                 id="CMMI12-20"
                 d="m 3008,4294 c 0,7 26,90 26,97 0,57 -52,57 -71,57 -57,0 -64,-32 -89,-128 L 1818,77 c -532,64 -730,333 -730,717 0,140 0,288 301,1081 83,230 115,313 115,428 0,288 -205,518 -506,518 -588,0 -825,-927 -825,-978 0,-26 25,-58 70,-58 58,0 64,26 90,115 153,553 409,788 646,788 58,0 167,0 167,-205 0,-26 0,-167 -109,-448 C 691,1126 691,985 691,838 c 0,-615 512,-852 1088,-896 -51,-195 -96,-395 -147,-589 -102,-375 -147,-551 -147,-576 0,-57 51,-57 70,-57 13,0 39,0 51,26 26,24 288,1078 314,1190 237,0 742,0 1318,595 212,230 404,525 512,800 64,167 218,736 218,1062 0,384 -192,428 -256,428 -154,0 -294,-153 -294,-281 0,-77 44,-122 70,-147 58,-58 230,-231 230,-563 0,-230 -128,-704 -537,-1164 C 2643,64 2150,64 1958,64 Z"
                 transform="scale(0.015625)" />
              <path
                 id="CMR17-2b"
                 d="m 2413,1472 h 1696 c 89,0 198,0 198,108 0,115 -102,115 -198,115 H 2413 v 1691 c 0,89 0,198 -109,198 -115,0 -115,-102 -115,-198 V 1695 H 493 c -90,0 -199,0 -199,-108 0,-115 103,-115 199,-115 H 2189 V -218 c 0,-89 0,-198 109,-198 115,0 115,102 115,198 z"
                 transform="scale(0.015625)" />
              <path
                 id="CMMI12-1f"
                 d="m 2112,1039 c -173,527 -134,476 -294,920 -199,546 -250,591 -340,680 -115,101 -332,177 -556,177 -359,0 -532,-330 -532,-413 0,-38 32,-57 71,-57 51,0 64,32 70,57 96,248 295,286 352,286 186,0 365,-457 480,-761 154,-388 231,-655 403,-1271 L 256,-1049 c -58,-70 -58,-95 -58,-102 0,-51 32,-64 58,-64 26,0 45,13 64,32 179,179 576,650 742,841 l 743,841 c 313,-978 313,-991 409,-1226 103,-241 237,-553 781,-553 365,0 531,325 531,414 0,44 -38,57 -70,57 -51,0 -58,-26 -77,-77 -70,-177 -237,-266 -339,-266 -83,0 -186,0 -467,705 -167,426 -314,933 -423,1327 l 1517,1714 c 51,58 58,64 58,89 0,44 -32,63 -64,63 -19,0 -39,0 -103,-69 z"
                 transform="scale(0.015625)" />
              <path
                 id="CMMI12-72"
                 d="m 2490,2612 c -199,-38 -301,-179 -301,-319 0,-154 121,-205 211,-205 179,0 326,154 326,345 0,205 -198,383 -518,383 -256,0 -550,-115 -819,-504 -45,338 -301,504 -557,504 -250,0 -378,-191 -454,-332 -109,-230 -205,-613 -205,-645 0,-25 25,-57 70,-57 51,0 58,6 96,153 96,383 218,754 474,754 153,0 198,-109 198,-294 0,-141 -64,-390 -109,-588 L 723,1118 C 698,996 627,709 595,594 550,428 480,128 480,96 480,6 550,-64 646,-64 c 71,0 192,45 231,173 19,51 256,1015 294,1162 32,140 71,275 103,415 25,89 51,192 70,275 19,57 192,370 352,511 77,70 243,217 506,217 102,0 204,-19 288,-77 z"
                 transform="scale(0.015625)" />
              <path
                 id="CMMI12-1e"
                 d="m 2752,4390 c 0,58 -45,58 -64,58 -58,0 -64,-13 -90,-122 L 2253,2939 c -19,-83 -26,-90 -32,-96 -7,-13 -51,-19 -64,-19 C 1107,2734 301,1864 301,1057 301,361 832,-64 1498,-64 c -52,-197 -96,-399 -148,-595 -89,-336 -140,-545 -140,-570 0,-12 0,-51 64,-51 19,0 44,0 57,26 13,13 51,165 77,246 l 237,944 c 1094,0 1926,918 1926,1744 0,663 -486,1136 -1197,1136 z M 2336,2701 c 422,0 845,-238 845,-873 C 3181,1097 2675,128 1677,50 Z M 1530,50 c -314,0 -839,170 -839,888 0,823 583,1738 1504,1738 z"
                 transform="scale(0.015625)" />
            </defs>
            <use
               xlink:href="#CMR17-28"
               transform="scale(0.996264)"
               id="use87" />
            <use
               xlink:href="#CMMI12-52"
               transform="matrix(0.996264,0,0,0.996264,35.280768,0)"
               id="use88" />
            <use
               xlink:href="#CMMI12-3d"
               transform="matrix(0.996264,0,0,0.996264,110.35173,0)"
               id="use89" />
            <use
               xlink:href="#CMMI12-52"
               transform="matrix(0.996264,0,0,0.996264,159.12665,0)"
               id="use90" />
            <use
               xlink:href="#CMR17-30"
               transform="matrix(0.697382,0,0,0.697382,233.37747,-14.943915)"
               id="use91" />
            <use
               xlink:href="#CMR17-29"
               transform="matrix(0.996264,0,0,0.996264,265.85879,0)"
               id="use92" />
            <use
               xlink:href="#CMMI12-6d"
               transform="matrix(0.697382,0,0,0.697382,301.13956,36.153639)"
               id="use93" />
            <use
               xlink:href="#CMMI12-20"
               transform="matrix(0.498132,0,0,0.498132,360.86835,25.582076)"
               id="use94" />
            <use
               xlink:href="#CMR17-2b"
               transform="matrix(0.996264,0,0,0.996264,417.50055,0)"
               id="use95" />
            <use
               xlink:href="#CMMI12-1f"
               transform="matrix(0.996264,0,0,0.996264,511.35455,0)"
               id="use96" />
            <use
               xlink:href="#CMR17-32"
               transform="matrix(0.697382,0,0,0.697382,572.4675,36.153639)"
               id="use97" />
            <use
               xlink:href="#CMR17-28"
               transform="matrix(0.996264,0,0,0.996264,604.94882,0)"
               id="use98" />
            <use
               xlink:href="#CMMI12-52"
               transform="matrix(0.996264,0,0,0.996264,640.22959,0)"
               id="use99" />
            <use
               xlink:href="#CMMI12-3d"
               transform="matrix(0.996264,0,0,0.996264,715.30055,0)"
               id="use100" />
            <use
               xlink:href="#CMMI12-72"
               transform="matrix(0.996264,0,0,0.996264,764.07547,0)"
               id="use101" />
            <use
               xlink:href="#CMMI12-1e"
               transform="matrix(0.697382,0,0,0.697382,808.03636,-14.943915)"
               id="use102" />
            <use
               xlink:href="#CMR17-29"
               transform="matrix(0.996264,0,0,0.996264,848.94823,0)"
               id="use103" />
            <use
               xlink:href="#CMMI12-6d"
               transform="matrix(0.697382,0,0,0.697382,884.229,36.153639)"
               id="use104" />
            <use
               xlink:href="#CMMI12-1e"
               transform="matrix(0.498132,0,0,0.498132,943.95779,25.582076)"
               id="use105" />
          </g>
        </g>
        <g
           id="line2d_19"
           transform="translate(6.8476925,5.478154)">
          <path
             d="m 254.73432,198.7788 h 20 20"
             style="fill:none;stroke:#ffa500;stroke-width:2;stroke-dasharray:7.4, 3.2;stroke-dashoffset:0"
             id="path105" />
        </g>
        <g
           id="text_15"
           transform="translate(4.1086155,5.478154)">
          <!-- $m_\psi$ -->
          <g
             transform="matrix(0.2,0,0,-0.2,310.73432,205.7788)"
             id="g107">
            <use
               xlink:href="#CMMI12-6d"
               transform="scale(0.996264)"
               id="use106" />
            <use
               xlink:href="#CMMI12-20"
               transform="matrix(0.697382,0,0,0.697382,85.327224,-14.943915)"
               id="use107" />
          </g>
        </g>
        <g
           id="line2d_20"
           transform="translate(6.8476925,5.478154)">
          <path
             d="m 254.73432,228.4796 h 20 20"
             style="fill:none;stroke:#0000ff;stroke-width:2;stroke-dasharray:7.4, 3.2;stroke-dashoffset:0"
             id="path107" />
        </g>
        <g
           id="text_16"
           transform="translate(4.1086155,5.478154)">
          <!-- $m_\Phi$ -->
          <g
             transform="matrix(0.2,0,0,-0.2,310.73432,235.4796)"
             id="g109">
            <defs
               id="defs107">
              <path
                 id="CMR17-8"
                 d="m 2330,818 c 1036,89 1644,735 1644,1354 0,646 -633,1272 -1644,1362 v 363 c 0,231 12,295 499,295 h 141 v 160 c -263,0 -570,0 -839,0 -269,0 -582,0 -845,0 v -160 h 141 c 487,0 499,-64 499,-295 V 3534 C 922,3444 294,2811 294,2179 294,1521 947,907 1926,818 V 454 c 0,-230 -12,-294 -499,-294 H 1286 V 0 c 263,0 576,0 845,0 269,0 576,0 839,0 v 160 h -141 c -487,0 -499,64 -499,294 z m -404,109 c -576,64 -1158,396 -1158,1246 0,875 602,1194 1158,1252 z m 404,2498 C 2835,3380 3501,3093 3501,2179 3501,1240 2810,972 2330,927 Z"
                 transform="scale(0.015625)" />
            </defs>
            <use
               xlink:href="#CMMI12-6d"
               transform="scale(0.996264)"
               id="use108" />
            <use
               xlink:href="#CMR17-8"
               transform="matrix(0.697382,0,0,0.697382,85.327224,-14.943915)"
               id="use109" />
          </g>
        </g>
        <g
           id="line2d_21"
           transform="translate(6.8476925,5.478154)">
          <path
             d="m 254.73432,257.29919 h 20 20"
             style="fill:none;stroke:#1f77b4;stroke-dasharray:1, 1.65;stroke-dashoffset:0"
             id="path109" />
        </g>
        <g
           id="text_17"
           transform="translate(2.739077,5.478154)">
          <!-- $(m_\psi+m_\Phi)/2$ -->
          <g
             transform="matrix(0.2,0,0,-0.2,310.73432,264.29919)"
             id="g118">
            <use
               xlink:href="#CMR17-28"
               transform="scale(0.996264)"
               id="use110" />
            <use
               xlink:href="#CMMI12-6d"
               transform="matrix(0.996264,0,0,0.996264,35.280768,0)"
               id="use111" />
            <use
               xlink:href="#CMMI12-20"
               transform="matrix(0.697382,0,0,0.697382,120.60799,-14.943915)"
               id="use112" />
            <use
               xlink:href="#CMR17-2b"
               transform="matrix(0.996264,0,0,0.996264,190.14055,0)"
               id="use113" />
            <use
               xlink:href="#CMMI12-6d"
               transform="matrix(0.996264,0,0,0.996264,283.99455,0)"
               id="use114" />
            <use
               xlink:href="#CMR17-8"
               transform="matrix(0.697382,0,0,0.697382,369.32177,-14.943915)"
               id="use115" />
            <use
               xlink:href="#CMR17-29"
               transform="matrix(0.996264,0,0,0.996264,416.37661,0)"
               id="use116" />
            <use
               xlink:href="#CMMI12-3d"
               transform="matrix(0.996264,0,0,0.996264,451.65737,0)"
               id="use117" />
            <use
               xlink:href="#CMR17-32"
               transform="matrix(0.996264,0,0,0.996264,500.43229,0)"
               id="use118" />
          </g>
        </g>
      </g>
    </g>
  </g>
  <defs
     id="defs168">
    <clipPath
       id="pcc5f430a20">
      <rect
         x="57.599998"
         y="7.1999998"
         width="648"
         height="280.79999"
         id="rect164" />
    </clipPath>
  </defs>
</svg>
