<?xml version="1.0" encoding="utf-8" standalone="no"?>
<!DOCTYPE svg PUBLIC "-//W3C//DTD SVG 1.1//EN"
  "http://www.w3.org/Graphics/SVG/1.1/DTD/svg11.dtd">
<svg xmlns:xlink="http://www.w3.org/1999/xlink" width="488.16pt" height="272.528122pt" viewBox="0 0 488.16 272.528122" xmlns="http://www.w3.org/2000/svg" version="1.1">
 <metadata>
  <rdf:RDF xmlns:dc="http://purl.org/dc/elements/1.1/" xmlns:cc="http://creativecommons.org/ns#" xmlns:rdf="http://www.w3.org/1999/02/22-rdf-syntax-ns#">
   <cc:Work>
    <dc:type rdf:resource="http://purl.org/dc/dcmitype/StillImage"/>
    <dc:date>2026-02-16T21:41:29.506939</dc:date>
    <dc:format>image/svg+xml</dc:format>
    <dc:creator>
     <cc:Agent>
      <dc:title>Matplotlib v3.8.4, https://matplotlib.org/</dc:title>
     </cc:Agent>
    </dc:creator>
   </cc:Work>
  </rdf:RDF>
 </metadata>
 <defs>
  <style type="text/css">*{stroke-linejoin: round; stroke-linecap: butt}</style>
 </defs>
 <g id="figure_1">
  <g id="patch_1">
   <path d="M 0 272.528122 
L 488.16 272.528122 
L 488.16 0 
L 0 0 
z
" style="fill: #ffffff"/>
  </g>
  <g id="axes_1">
   <g id="patch_2">
    <path d="M 47.3219 233.032312 
L 480.96 233.032312 
L 480.96 11.640434 
L 47.3219 11.640434 
z
" style="fill: #ffffff"/>
   </g>
   <g id="matplotlib.axis_1">
    <g id="xtick_1">
     <g id="line2d_1">
      <defs>
       <path id="m619df50a74" d="M 0 0 
L 0 -6 
" style="stroke: #000000; stroke-width: 0.8"/>
      </defs>
      <g>
       <use xlink:href="#m619df50a74" x="84.05838" y="233.032312" style="stroke: #000000; stroke-width: 0.8"/>
      </g>
     </g>
     <g id="line2d_2">
      <defs>
       <path id="m2faa9712d9" d="M 0 0 
L 0 6 
" style="stroke: #000000; stroke-width: 0.8"/>
      </defs>
      <g>
       <use xlink:href="#m2faa9712d9" x="84.05838" y="11.640434" style="stroke: #000000; stroke-width: 0.8"/>
      </g>
     </g>
     <g id="text_1">
      <!-- $\mathdefault{10^{1}}$ -->
      <g transform="translate(74.721278 246.218189) scale(0.14 -0.14)">
       <defs>
        <path id="CMR17-31" d="M 1702 4058 
C 1702 4192 1696 4192 1606 4192 
C 1357 3916 979 3827 621 3827 
C 602 3827 570 3827 563 3808 
C 557 3795 557 3782 557 3648 
C 755 3648 1088 3686 1344 3839 
L 1344 461 
C 1344 236 1331 160 781 160 
L 589 160 
L 589 0 
C 896 0 1216 0 1523 0 
C 1830 0 2150 0 2458 0 
L 2458 160 
L 2266 160 
C 1715 160 1702 230 1702 458 
L 1702 4058 
z
" transform="scale(0.015625)"/>
        <path id="CMR17-30" d="M 2688 2025 
C 2688 2416 2682 3080 2413 3591 
C 2176 4039 1798 4198 1466 4198 
C 1158 4198 768 4058 525 3597 
C 269 3118 243 2524 243 2025 
C 243 1661 250 1106 448 619 
C 723 -39 1216 -128 1466 -128 
C 1760 -128 2208 -7 2470 600 
C 2662 1042 2688 1559 2688 2025 
z
M 1466 -26 
C 1056 -26 813 325 723 812 
C 653 1188 653 1738 653 2096 
C 653 2588 653 2997 736 3387 
C 858 3929 1216 4096 1466 4096 
C 1728 4096 2067 3923 2189 3400 
C 2272 3036 2278 2607 2278 2096 
C 2278 1680 2278 1169 2202 792 
C 2067 95 1690 -26 1466 -26 
z
" transform="scale(0.015625)"/>
       </defs>
       <use xlink:href="#CMR17-31" transform="scale(0.996264)"/>
       <use xlink:href="#CMR17-30" transform="translate(45.690477 0) scale(0.996264)"/>
       <use xlink:href="#CMR17-31" transform="translate(91.380954 36.153639) scale(0.697382)"/>
      </g>
     </g>
    </g>
    <g id="xtick_2">
     <g id="line2d_3">
      <g>
       <use xlink:href="#m619df50a74" x="292.499559" y="233.032312" style="stroke: #000000; stroke-width: 0.8"/>
      </g>
     </g>
     <g id="line2d_4">
      <g>
       <use xlink:href="#m2faa9712d9" x="292.499559" y="11.640434" style="stroke: #000000; stroke-width: 0.8"/>
      </g>
     </g>
     <g id="text_2">
      <!-- $\mathdefault{10^{2}}$ -->
      <g transform="translate(283.162457 246.218189) scale(0.14 -0.14)">
       <defs>
        <path id="CMR17-32" d="M 2669 989 
L 2554 989 
C 2490 536 2438 459 2413 420 
C 2381 369 1920 369 1830 369 
L 602 369 
C 832 619 1280 1072 1824 1597 
C 2214 1967 2669 2402 2669 3035 
C 2669 3790 2067 4224 1395 4224 
C 691 4224 262 3604 262 3030 
C 262 2780 448 2748 525 2748 
C 589 2748 781 2787 781 3010 
C 781 3207 614 3264 525 3264 
C 486 3264 448 3258 422 3245 
C 544 3790 915 4058 1306 4058 
C 1862 4058 2227 3617 2227 3035 
C 2227 2479 1901 2000 1536 1584 
L 262 146 
L 262 0 
L 2515 0 
L 2669 989 
z
" transform="scale(0.015625)"/>
       </defs>
       <use xlink:href="#CMR17-31" transform="scale(0.996264)"/>
       <use xlink:href="#CMR17-30" transform="translate(45.690477 0) scale(0.996264)"/>
       <use xlink:href="#CMR17-32" transform="translate(91.380954 36.153639) scale(0.697382)"/>
      </g>
     </g>
    </g>
    <g id="xtick_3">
     <g id="line2d_5">
      <defs>
       <path id="m16c555334b" d="M 0 0 
L 0 -3 
" style="stroke: #000000; stroke-width: 0.6"/>
      </defs>
      <g>
       <use xlink:href="#m16c555334b" x="51.770433" y="233.032312" style="stroke: #000000; stroke-width: 0.6"/>
      </g>
     </g>
     <g id="line2d_6">
      <defs>
       <path id="ma73b710060" d="M 0 0 
L 0 3 
" style="stroke: #000000; stroke-width: 0.6"/>
      </defs>
      <g>
       <use xlink:href="#ma73b710060" x="51.770433" y="11.640434" style="stroke: #000000; stroke-width: 0.6"/>
      </g>
     </g>
    </g>
    <g id="xtick_4">
     <g id="line2d_7">
      <g>
       <use xlink:href="#m16c555334b" x="63.858343" y="233.032312" style="stroke: #000000; stroke-width: 0.6"/>
      </g>
     </g>
     <g id="line2d_8">
      <g>
       <use xlink:href="#ma73b710060" x="63.858343" y="11.640434" style="stroke: #000000; stroke-width: 0.6"/>
      </g>
     </g>
    </g>
    <g id="xtick_5">
     <g id="line2d_9">
      <g>
       <use xlink:href="#m16c555334b" x="74.520635" y="233.032312" style="stroke: #000000; stroke-width: 0.6"/>
      </g>
     </g>
     <g id="line2d_10">
      <g>
       <use xlink:href="#ma73b710060" x="74.520635" y="11.640434" style="stroke: #000000; stroke-width: 0.6"/>
      </g>
     </g>
    </g>
    <g id="xtick_6">
     <g id="line2d_11">
      <g>
       <use xlink:href="#m16c555334b" x="146.805427" y="233.032312" style="stroke: #000000; stroke-width: 0.6"/>
      </g>
     </g>
     <g id="line2d_12">
      <g>
       <use xlink:href="#ma73b710060" x="146.805427" y="11.640434" style="stroke: #000000; stroke-width: 0.6"/>
      </g>
     </g>
    </g>
    <g id="xtick_7">
     <g id="line2d_13">
      <g>
       <use xlink:href="#m16c555334b" x="183.510097" y="233.032312" style="stroke: #000000; stroke-width: 0.6"/>
      </g>
     </g>
     <g id="line2d_14">
      <g>
       <use xlink:href="#ma73b710060" x="183.510097" y="11.640434" style="stroke: #000000; stroke-width: 0.6"/>
      </g>
     </g>
    </g>
    <g id="xtick_8">
     <g id="line2d_15">
      <g>
       <use xlink:href="#m16c555334b" x="209.552475" y="233.032312" style="stroke: #000000; stroke-width: 0.6"/>
      </g>
     </g>
     <g id="line2d_16">
      <g>
       <use xlink:href="#ma73b710060" x="209.552475" y="11.640434" style="stroke: #000000; stroke-width: 0.6"/>
      </g>
     </g>
    </g>
    <g id="xtick_9">
     <g id="line2d_17">
      <g>
       <use xlink:href="#m16c555334b" x="229.752512" y="233.032312" style="stroke: #000000; stroke-width: 0.6"/>
      </g>
     </g>
     <g id="line2d_18">
      <g>
       <use xlink:href="#ma73b710060" x="229.752512" y="11.640434" style="stroke: #000000; stroke-width: 0.6"/>
      </g>
     </g>
    </g>
    <g id="xtick_10">
     <g id="line2d_19">
      <g>
       <use xlink:href="#m16c555334b" x="246.257144" y="233.032312" style="stroke: #000000; stroke-width: 0.6"/>
      </g>
     </g>
     <g id="line2d_20">
      <g>
       <use xlink:href="#ma73b710060" x="246.257144" y="11.640434" style="stroke: #000000; stroke-width: 0.6"/>
      </g>
     </g>
    </g>
    <g id="xtick_11">
     <g id="line2d_21">
      <g>
       <use xlink:href="#m16c555334b" x="260.211612" y="233.032312" style="stroke: #000000; stroke-width: 0.6"/>
      </g>
     </g>
     <g id="line2d_22">
      <g>
       <use xlink:href="#ma73b710060" x="260.211612" y="11.640434" style="stroke: #000000; stroke-width: 0.6"/>
      </g>
     </g>
    </g>
    <g id="xtick_12">
     <g id="line2d_23">
      <g>
       <use xlink:href="#m16c555334b" x="272.299522" y="233.032312" style="stroke: #000000; stroke-width: 0.6"/>
      </g>
     </g>
     <g id="line2d_24">
      <g>
       <use xlink:href="#ma73b710060" x="272.299522" y="11.640434" style="stroke: #000000; stroke-width: 0.6"/>
      </g>
     </g>
    </g>
    <g id="xtick_13">
     <g id="line2d_25">
      <g>
       <use xlink:href="#m16c555334b" x="282.961814" y="233.032312" style="stroke: #000000; stroke-width: 0.6"/>
      </g>
     </g>
     <g id="line2d_26">
      <g>
       <use xlink:href="#ma73b710060" x="282.961814" y="11.640434" style="stroke: #000000; stroke-width: 0.6"/>
      </g>
     </g>
    </g>
    <g id="xtick_14">
     <g id="line2d_27">
      <g>
       <use xlink:href="#m16c555334b" x="355.246607" y="233.032312" style="stroke: #000000; stroke-width: 0.6"/>
      </g>
     </g>
     <g id="line2d_28">
      <g>
       <use xlink:href="#ma73b710060" x="355.246607" y="11.640434" style="stroke: #000000; stroke-width: 0.6"/>
      </g>
     </g>
    </g>
    <g id="xtick_15">
     <g id="line2d_29">
      <g>
       <use xlink:href="#m16c555334b" x="391.951276" y="233.032312" style="stroke: #000000; stroke-width: 0.6"/>
      </g>
     </g>
     <g id="line2d_30">
      <g>
       <use xlink:href="#ma73b710060" x="391.951276" y="11.640434" style="stroke: #000000; stroke-width: 0.6"/>
      </g>
     </g>
    </g>
    <g id="xtick_16">
     <g id="line2d_31">
      <g>
       <use xlink:href="#m16c555334b" x="417.993654" y="233.032312" style="stroke: #000000; stroke-width: 0.6"/>
      </g>
     </g>
     <g id="line2d_32">
      <g>
       <use xlink:href="#ma73b710060" x="417.993654" y="11.640434" style="stroke: #000000; stroke-width: 0.6"/>
      </g>
     </g>
    </g>
    <g id="xtick_17">
     <g id="line2d_33">
      <g>
       <use xlink:href="#m16c555334b" x="438.193691" y="233.032312" style="stroke: #000000; stroke-width: 0.6"/>
      </g>
     </g>
     <g id="line2d_34">
      <g>
       <use xlink:href="#ma73b710060" x="438.193691" y="11.640434" style="stroke: #000000; stroke-width: 0.6"/>
      </g>
     </g>
    </g>
    <g id="xtick_18">
     <g id="line2d_35">
      <g>
       <use xlink:href="#m16c555334b" x="454.698324" y="233.032312" style="stroke: #000000; stroke-width: 0.6"/>
      </g>
     </g>
     <g id="line2d_36">
      <g>
       <use xlink:href="#ma73b710060" x="454.698324" y="11.640434" style="stroke: #000000; stroke-width: 0.6"/>
      </g>
     </g>
    </g>
    <g id="xtick_19">
     <g id="line2d_37">
      <g>
       <use xlink:href="#m16c555334b" x="468.652791" y="233.032312" style="stroke: #000000; stroke-width: 0.6"/>
      </g>
     </g>
     <g id="line2d_38">
      <g>
       <use xlink:href="#ma73b710060" x="468.652791" y="11.640434" style="stroke: #000000; stroke-width: 0.6"/>
      </g>
     </g>
    </g>
    <g id="xtick_20">
     <g id="line2d_39">
      <g>
       <use xlink:href="#m16c555334b" x="480.740701" y="233.032312" style="stroke: #000000; stroke-width: 0.6"/>
      </g>
     </g>
     <g id="line2d_40">
      <g>
       <use xlink:href="#ma73b710060" x="480.740701" y="11.640434" style="stroke: #000000; stroke-width: 0.6"/>
      </g>
     </g>
    </g>
    <g id="text_3">
     <!-- $k$ -->
     <g transform="translate(260.589487 262.616093) scale(0.14 -0.14)">
      <defs>
       <path id="CMMI12-6b" d="M 1798 4257 
C 1805 4283 1818 4321 1818 4352 
C 1818 4416 1754 4416 1741 4416 
C 1734 4416 1504 4393 1389 4377 
C 1280 4377 1184 4358 1069 4358 
C 915 4345 870 4339 870 4224 
C 870 4160 934 4160 998 4160 
C 1325 4160 1325 4103 1325 4040 
C 1325 4015 1325 4002 1293 3888 
L 378 248 
C 352 152 352 140 352 101 
C 352 -38 461 -64 525 -64 
C 704 -64 742 77 794 275 
L 1094 1469 
C 1555 1418 1830 1226 1830 920 
C 1830 881 1830 856 1811 760 
C 1786 664 1786 588 1786 556 
C 1786 185 2029 -64 2355 -64 
C 2650 -64 2803 204 2854 294 
C 2989 530 3072 888 3072 913 
C 3072 945 3046 971 3008 971 
C 2950 971 2944 945 2918 843 
C 2829 511 2694 64 2368 64 
C 2240 64 2157 128 2157 370 
C 2157 492 2182 632 2208 728 
C 2234 843 2234 849 2234 926 
C 2234 1303 1894 1514 1306 1590 
C 1536 1731 1766 1980 1856 2076 
C 2221 2484 2470 2689 2765 2689 
C 2912 2689 2950 2650 2995 2612 
C 2758 2586 2669 2420 2669 2293 
C 2669 2139 2790 2088 2880 2088 
C 3053 2088 3206 2235 3206 2440 
C 3206 2625 3059 2816 2771 2816 
C 2419 2816 2131 2567 1677 2056 
C 1613 1980 1376 1737 1139 1648 
L 1798 4257 
z
" transform="scale(0.015625)"/>
      </defs>
      <use xlink:href="#CMMI12-6b" transform="scale(0.996264)"/>
     </g>
    </g>
   </g>
   <g id="matplotlib.axis_2">
    <g id="ytick_1">
     <g id="line2d_41">
      <defs>
       <path id="ma420062ea0" d="M 0 0 
L 6 0 
" style="stroke: #000000; stroke-width: 0.8"/>
      </defs>
      <g>
       <use xlink:href="#ma420062ea0" x="47.3219" y="187.15893" style="stroke: #000000; stroke-width: 0.8"/>
      </g>
     </g>
     <g id="line2d_42">
      <defs>
       <path id="m0fa4ed5a2f" d="M 0 0 
L -6 0 
" style="stroke: #000000; stroke-width: 0.8"/>
      </defs>
      <g>
       <use xlink:href="#m0fa4ed5a2f" x="480.96" y="187.15893" style="stroke: #000000; stroke-width: 0.8"/>
      </g>
     </g>
     <g id="text_4">
      <!-- $\mathdefault{10^{2}}$ -->
      <g transform="translate(25.147696 192.001869) scale(0.14 -0.14)">
       <use xlink:href="#CMR17-31" transform="scale(0.996264)"/>
       <use xlink:href="#CMR17-30" transform="translate(45.690477 0) scale(0.996264)"/>
       <use xlink:href="#CMR17-32" transform="translate(91.380954 36.153639) scale(0.697382)"/>
      </g>
     </g>
    </g>
    <g id="ytick_2">
     <g id="line2d_43">
      <g>
       <use xlink:href="#ma420062ea0" x="47.3219" y="131.08308" style="stroke: #000000; stroke-width: 0.8"/>
      </g>
     </g>
     <g id="line2d_44">
      <g>
       <use xlink:href="#m0fa4ed5a2f" x="480.96" y="131.08308" style="stroke: #000000; stroke-width: 0.8"/>
      </g>
     </g>
     <g id="text_5">
      <!-- $\mathdefault{10^{4}}$ -->
      <g transform="translate(25.147696 135.926019) scale(0.14 -0.14)">
       <defs>
        <path id="CMR17-34" d="M 2150 4122 
C 2150 4256 2144 4256 2029 4256 
L 128 1254 
L 128 1088 
L 1779 1088 
L 1779 457 
C 1779 224 1766 160 1318 160 
L 1197 160 
L 1197 0 
C 1402 0 1747 0 1965 0 
C 2182 0 2528 0 2733 0 
L 2733 160 
L 2611 160 
C 2163 160 2150 224 2150 457 
L 2150 1088 
L 2803 1088 
L 2803 1254 
L 2150 1254 
L 2150 4122 
z
M 1798 3703 
L 1798 1254 
L 256 1254 
L 1798 3703 
z
" transform="scale(0.015625)"/>
       </defs>
       <use xlink:href="#CMR17-31" transform="scale(0.996264)"/>
       <use xlink:href="#CMR17-30" transform="translate(45.690477 0) scale(0.996264)"/>
       <use xlink:href="#CMR17-34" transform="translate(91.380954 36.153639) scale(0.697382)"/>
      </g>
     </g>
    </g>
    <g id="ytick_3">
     <g id="line2d_45">
      <g>
       <use xlink:href="#ma420062ea0" x="47.3219" y="75.00723" style="stroke: #000000; stroke-width: 0.8"/>
      </g>
     </g>
     <g id="line2d_46">
      <g>
       <use xlink:href="#m0fa4ed5a2f" x="480.96" y="75.00723" style="stroke: #000000; stroke-width: 0.8"/>
      </g>
     </g>
     <g id="text_6">
      <!-- $\mathdefault{10^{6}}$ -->
      <g transform="translate(25.147696 79.850169) scale(0.14 -0.14)">
       <defs>
        <path id="CMR17-36" d="M 678 2176 
C 678 3690 1395 4032 1811 4032 
C 1946 4032 2272 4009 2400 3776 
C 2298 3776 2106 3776 2106 3553 
C 2106 3381 2246 3323 2336 3323 
C 2394 3323 2566 3348 2566 3560 
C 2566 3954 2246 4179 1805 4179 
C 1043 4179 243 3390 243 1984 
C 243 253 966 -128 1478 -128 
C 2099 -128 2688 427 2688 1283 
C 2688 2081 2170 2662 1517 2662 
C 1126 2662 838 2407 678 1960 
L 678 2176 
z
M 1478 25 
C 691 25 691 1200 691 1436 
C 691 1896 909 2560 1504 2560 
C 1613 2560 1926 2560 2138 2120 
C 2253 1870 2253 1609 2253 1289 
C 2253 944 2253 690 2118 434 
C 1978 171 1773 25 1478 25 
z
" transform="scale(0.015625)"/>
       </defs>
       <use xlink:href="#CMR17-31" transform="scale(0.996264)"/>
       <use xlink:href="#CMR17-30" transform="translate(45.690477 0) scale(0.996264)"/>
       <use xlink:href="#CMR17-36" transform="translate(91.380954 36.153639) scale(0.697382)"/>
      </g>
     </g>
    </g>
    <g id="ytick_4">
     <g id="line2d_47">
      <g>
       <use xlink:href="#ma420062ea0" x="47.3219" y="18.93138" style="stroke: #000000; stroke-width: 0.8"/>
      </g>
     </g>
     <g id="line2d_48">
      <g>
       <use xlink:href="#m0fa4ed5a2f" x="480.96" y="18.93138" style="stroke: #000000; stroke-width: 0.8"/>
      </g>
     </g>
     <g id="text_7">
      <!-- $\mathdefault{10^{8}}$ -->
      <g transform="translate(25.147696 23.774319) scale(0.14 -0.14)">
       <defs>
        <path id="CMR17-38" d="M 1741 2264 
C 2144 2467 2554 2773 2554 3263 
C 2554 3841 1990 4179 1472 4179 
C 890 4179 378 3759 378 3180 
C 378 3021 416 2747 666 2505 
C 730 2442 998 2251 1171 2130 
C 883 1983 211 1634 211 934 
C 211 279 838 -128 1459 -128 
C 2144 -128 2720 362 2720 1010 
C 2720 1590 2330 1857 2074 2029 
L 1741 2264 
z
M 902 2822 
C 851 2854 595 3051 595 3351 
C 595 3739 998 4032 1459 4032 
C 1965 4032 2336 3676 2336 3262 
C 2336 2669 1670 2331 1638 2331 
C 1632 2331 1626 2331 1574 2370 
L 902 2822 
z
M 2080 1519 
C 2176 1449 2483 1240 2483 851 
C 2483 381 2010 25 1472 25 
C 890 25 448 438 448 940 
C 448 1443 838 1862 1280 2060 
L 2080 1519 
z
" transform="scale(0.015625)"/>
       </defs>
       <use xlink:href="#CMR17-31" transform="scale(0.996264)"/>
       <use xlink:href="#CMR17-30" transform="translate(45.690477 0) scale(0.996264)"/>
       <use xlink:href="#CMR17-38" transform="translate(91.380954 36.153639) scale(0.697382)"/>
      </g>
     </g>
    </g>
    <g id="text_8">
     <!-- $P(k)$ -->
     <g transform="translate(17.660772 136.782764) rotate(-90) scale(0.14 -0.14)">
      <defs>
       <path id="CMMI12-50" d="M 1894 2023 
L 2970 2023 
C 3853 2023 4736 2673 4736 3401 
C 4736 3898 4314 4352 3507 4352 
L 1530 4352 
C 1408 4352 1350 4352 1350 4231 
C 1350 4167 1408 4167 1504 4167 
C 1894 4167 1894 4116 1894 4046 
C 1894 4034 1894 3995 1869 3899 
L 1005 472 
C 947 249 934 185 486 185 
C 365 185 301 185 301 70 
C 301 0 358 0 397 0 
C 518 0 646 0 768 0 
L 1517 0 
C 1638 0 1773 0 1894 0 
C 1946 0 2016 0 2016 121 
C 2016 185 1958 185 1862 185 
C 1478 185 1472 230 1472 293 
C 1472 325 1478 369 1485 401 
L 1894 2023 
z
M 2355 3930 
C 2413 4167 2438 4167 2688 4167 
L 3322 4167 
C 3802 4167 4198 4013 4198 3535 
C 4198 3369 4115 2827 3821 2534 
C 3712 2419 3405 2176 2822 2176 
L 1920 2176 
L 2355 3930 
z
" transform="scale(0.015625)"/>
       <path id="CMR17-28" d="M 1958 -1561 
C 1958 -1555 1958 -1542 1939 -1523 
C 1645 -1224 858 -407 858 1581 
C 858 3569 1632 4379 1946 4697 
C 1946 4704 1958 4717 1958 4736 
C 1958 4755 1939 4768 1914 4768 
C 1843 4768 1299 4296 986 3594 
C 666 2887 576 2199 576 1588 
C 576 1128 621 351 1005 -471 
C 1312 -1135 1837 -1600 1914 -1600 
C 1946 -1600 1958 -1587 1958 -1561 
z
" transform="scale(0.015625)"/>
       <path id="CMR17-29" d="M 1683 1581 
C 1683 2040 1638 2817 1254 3639 
C 947 4303 422 4768 346 4768 
C 326 4768 301 4761 301 4729 
C 301 4717 307 4710 314 4697 
C 621 4378 1402 3568 1402 1584 
C 1402 -407 627 -1217 314 -1537 
C 307 -1549 301 -1556 301 -1568 
C 301 -1600 326 -1600 346 -1600 
C 416 -1600 960 -1128 1274 -426 
C 1594 281 1683 969 1683 1581 
z
" transform="scale(0.015625)"/>
      </defs>
      <use xlink:href="#CMMI12-50" transform="scale(0.996264)"/>
      <use xlink:href="#CMR17-28" transform="translate(76.425821 0) scale(0.996264)"/>
      <use xlink:href="#CMMI12-6b" transform="translate(111.706589 0) scale(0.996264)"/>
      <use xlink:href="#CMR17-29" transform="translate(165.785789 0) scale(0.996264)"/>
     </g>
    </g>
   </g>
   <g id="line2d_49">
    <path d="M 47.3219 26.504438 
L 93.564315 42.529478 
L 124.023415 55.523888 
L 146.773617 62.809957 
L 164.939302 76.979383 
L 180.061849 91.91215 
L 193.016032 86.851051 
L 204.346407 97.805375 
L 214.415092 102.691729 
L 231.710339 114.049281 
L 239.258447 116.24411 
L 246.225334 119.901507 
L 252.694146 115.773531 
L 258.731373 124.807594 
L 264.391019 124.451363 
L 269.717547 128.389673 
L 274.748 132.945703 
L 284.040752 134.595646 
L 288.352274 137.196508 
L 292.467749 139.368578 
L 296.404232 140.147455 
L 300.176647 145.138659 
L 303.798124 146.979164 
L 307.280279 145.744894 
L 310.633434 147.537085 
L 313.866808 149.862086 
L 316.988665 154.356282 
L 320.006439 152.754613 
L 322.926849 154.571418 
L 325.755981 154.482561 
L 328.499368 158.218208 
L 331.162056 160.678483 
L 333.748656 158.072361 
L 336.263397 160.964443 
L 338.710164 160.583349 
L 341.092534 161.908226 
L 343.413812 164.651537 
L 345.677051 169.03316 
L 347.885084 167.318628 
L 352.145863 169.203587 
L 354.203335 169.780218 
L 356.215081 172.411415 
L 358.18309 171.975483 
L 360.109223 172.910967 
L 361.995226 175.722568 
L 363.842736 173.774641 
L 365.653294 175.968225 
L 367.428348 175.820977 
L 369.169264 176.196964 
L 370.877331 176.892254 
L 372.553765 179.640672 
L 374.199717 179.098361 
L 375.816275 180.085419 
L 377.404471 182.736487 
L 378.965283 181.697039 
L 380.499639 184.208049 
L 382.008422 182.65902 
L 383.492469 185.147283 
L 384.952579 185.485573 
L 386.389511 185.031259 
L 387.803991 186.74202 
L 389.196709 187.85044 
L 390.568324 187.057447 
L 393.250738 192.160442 
L 394.562715 191.739346 
L 395.855949 191.731409 
L 397.130968 190.938139 
L 398.388278 191.565167 
L 399.628364 194.463632 
L 400.851691 192.772123 
L 402.058707 192.480695 
L 403.249841 194.653596 
L 404.425505 195.184919 
L 405.586096 193.879614 
L 406.731996 194.943 
L 407.863571 195.478964 
L 408.981176 197.205613 
L 410.085151 195.858418 
L 411.175825 197.429511 
L 412.253515 198.453645 
L 413.318525 198.838209 
L 414.371152 201.076773 
L 415.411679 199.496948 
L 416.440381 199.992534 
L 417.457525 201.123632 
L 418.463367 201.008014 
L 419.458156 202.083551 
L 420.442132 203.894314 
L 421.415526 203.226726 
L 422.378566 203.7305 
L 423.331468 204.752363 
L 424.274444 204.392797 
L 425.207698 204.969598 
L 426.131429 205.112429 
L 427.045829 204.515801 
L 427.951085 205.695287 
L 428.847378 206.098825 
L 429.734884 208.575979 
L 430.613773 208.358583 
L 431.484211 207.288116 
L 432.346359 208.14666 
L 433.200373 209.787219 
L 434.046406 209.21983 
L 434.884605 209.691844 
L 435.715114 210.452754 
L 436.538073 210.598753 
L 437.353618 211.062156 
L 438.161881 210.195043 
L 438.962991 210.949961 
L 439.757074 212.616415 
L 440.544251 212.523397 
L 441.324643 212.733932 
L 442.098364 213.538507 
L 442.865529 213.724353 
L 443.626246 214.769977 
L 444.380624 215.582903 
L 445.128768 215.274975 
L 445.870779 214.524733 
L 446.606757 215.873928 
L 447.336801 216.680347 
L 448.061003 216.267581 
L 448.779458 214.552362 
L 449.492256 218.382654 
L 450.199485 217.048089 
L 450.901232 218.382634 
L 451.59758 217.063967 
L 452.288613 218.355758 
L 452.97441 219.062909 
L 453.655052 219.03369 
L 454.330613 220.289054 
L 455.001171 219.3316 
L 455.666798 219.318635 
L 456.327566 221.28533 
L 456.983546 220.428655 
L 457.634807 221.639998 
L 458.281416 221.635879 
L 458.923439 220.517838 
L 459.56094 221.212971 
L 460.193984 223.296738 
L 460.822631 222.707676 
L 461.446943 221.049132 
L 462.066979 224.573596 
L 462.682796 223.00172 
L 463.294453 223.871614 
L 463.902005 223.878932 
L 464.505506 224.054788 
L 465.105011 225.671281 
L 465.700571 225.629662 
L 466.292239 224.339998 
L 466.880065 224.453635 
L 467.464098 226.859177 
L 468.044387 225.828953 
L 468.620981 226.130633 
L 469.763265 227.768305 
L 470.329048 227.822224 
L 470.891316 228.149397 
L 471.450113 228.302958 
L 472.005482 229.133327 
L 472.557464 229.104955 
L 473.106101 228.483321 
L 473.651434 229.214607 
L 474.1935 230.512531 
L 474.73234 229.583764 
L 475.267992 229.929715 
L 475.800492 229.91391 
L 476.329879 229.430108 
L 476.856188 230.797757 
L 477.379454 230.084497 
L 477.899714 231.293105 
L 478.417 230.707201 
L 478.931347 231.494848 
L 479.442788 231.664485 
L 479.951356 231.408502 
L 480.457083 233.032312 
L 480.96 232.648458 
L 480.96 232.648458 
" clip-path="url(#p5a9087029f)" style="fill: none; stroke: #0000ff; stroke-width: 1.5; stroke-linecap: square"/>
   </g>
   <g id="line2d_50">
    <path d="M 438.962991 211.829369 
L 439.501162 212.095944 
L 440.036152 212.360944 
L 440.567999 212.624386 
L 441.096739 212.88629 
L 441.622409 213.146673 
L 442.145045 213.405553 
L 442.66468 213.662946 
L 443.181349 213.918871 
L 443.695086 214.173343 
L 444.205924 214.426379 
L 444.713896 214.677995 
L 445.219033 214.928208 
L 445.721367 215.177031 
L 446.220929 215.424482 
L 446.717749 215.670574 
L 447.211858 215.915324 
L 447.703284 216.158744 
L 448.192056 216.400851 
L 448.678204 216.641657 
L 449.161755 216.881177 
L 449.642737 217.119424 
L 450.121176 217.356412 
L 450.597101 217.592154 
L 451.070536 217.826663 
L 451.541508 218.059952 
L 452.010042 218.292034 
L 452.476164 218.52292 
L 452.939899 218.752624 
L 453.401269 218.981157 
L 453.8603 219.208532 
L 454.317015 219.434759 
L 454.771438 219.65985 
L 455.223591 219.883818 
L 455.673496 220.106672 
L 456.121177 220.328424 
L 456.566655 220.549084 
L 457.009951 220.768665 
L 457.451087 220.987175 
L 457.890083 221.204625 
L 458.326961 221.421026 
L 458.761741 221.636388 
L 459.194443 221.85072 
L 459.625086 222.064033 
L 460.05369 222.276336 
L 460.480274 222.487638 
L 460.904858 222.697949 
L 461.327459 222.907279 
L 461.748097 223.115635 
L 462.166789 223.323028 
L 462.583554 223.529466 
L 462.998408 223.734959 
L 463.411371 223.939513 
L 463.822458 224.143139 
L 464.231686 224.345844 
L 464.639073 224.547638 
L 465.044635 224.748527 
L 465.448387 224.94852 
L 465.850347 225.147625 
L 466.250531 225.345849 
L 466.648952 225.543202 
L 467.045628 225.739689 
L 467.440574 225.93532 
L 467.833803 226.1301 
L 468.225332 226.324038 
L 468.615175 226.517141 
L 469.003346 226.709416 
L 469.38986 226.90087 
L 469.77473 227.09151 
L 470.157972 227.281343 
L 470.539597 227.470375 
L 470.919621 227.658614 
L 471.298055 227.846066 
L 471.674915 228.032738 
L 472.050212 228.218636 
L 472.423959 228.403766 
L 472.79617 228.588135 
L 473.166856 228.771749 
L 473.536031 228.954614 
L 473.903707 229.136737 
L 474.269895 229.318123 
L 474.634607 229.498778 
L 474.997857 229.678708 
L 475.359654 229.857919 
L 475.720012 230.036417 
L 476.07894 230.214207 
L 476.436451 230.391295 
L 476.792556 230.567686 
L 477.147265 230.743386 
L 477.50059 230.9184 
L 477.852541 231.092734 
L 478.203129 231.266392 
L 478.552364 231.439381 
L 478.900257 231.611705 
L 479.246819 231.783369 
L 479.592059 231.954378 
L 479.935987 232.124738 
L 480.278613 232.294453 
L 480.619948 232.463528 
L 480.96 232.631968 
" clip-path="url(#p5a9087029f)" style="fill: none; stroke-dasharray: 9.25,4; stroke-dashoffset: 0; stroke: #0000ff; stroke-width: 2.5"/>
   </g>
   <g id="line2d_51">
    <path d="M 47.3219 22.322947 
L 93.564315 37.326866 
L 124.023415 56.975889 
L 146.773617 61.947926 
L 164.939302 76.679446 
L 180.061849 92.993557 
L 193.016032 86.79291 
L 204.346407 95.849571 
L 214.415092 97.773812 
L 223.475132 107.281434 
L 231.710339 110.000287 
L 246.225334 117.247019 
L 252.694146 115.26752 
L 258.731373 123.580157 
L 264.391019 122.35191 
L 269.717547 126.046932 
L 274.748 131.064795 
L 279.513566 129.187602 
L 284.040752 131.853668 
L 288.352274 135.194131 
L 292.467749 135.058347 
L 296.404232 136.550061 
L 300.176647 140.316844 
L 303.798124 141.467948 
L 307.280279 141.173786 
L 310.633434 144.209518 
L 313.866808 145.447112 
L 316.988665 147.426673 
L 320.006439 147.047601 
L 322.926849 148.60982 
L 325.755981 149.175368 
L 328.499368 150.928444 
L 331.162056 152.935213 
L 333.748656 152.298034 
L 336.263397 154.55054 
L 338.710164 153.90695 
L 341.092534 154.208052 
L 343.413812 158.072577 
L 345.677051 160.435619 
L 347.885084 158.287149 
L 350.040539 159.740785 
L 352.145863 160.384388 
L 354.203335 159.378401 
L 356.215081 160.485037 
L 358.18309 161.965834 
L 360.109223 163.736651 
L 361.995226 164.517016 
L 363.842736 162.878286 
L 365.653294 166.024906 
L 367.428348 165.846923 
L 369.169264 166.173334 
L 370.877331 165.826942 
L 372.553765 169.739371 
L 374.199717 168.520473 
L 375.816275 168.759781 
L 377.404471 170.286674 
L 378.965283 170.812882 
L 380.499639 172.13938 
L 382.008422 169.993232 
L 383.492469 171.633375 
L 384.952579 172.046456 
L 386.389511 171.10266 
L 387.803991 171.990173 
L 389.196709 173.791771 
L 390.568324 173.841127 
L 391.919466 177.430817 
L 393.250738 176.810657 
L 394.562715 175.836305 
L 395.855949 177.809251 
L 397.130968 175.466715 
L 398.388278 177.751838 
L 399.628364 178.705292 
L 400.851691 178.581217 
L 403.249841 177.875878 
L 404.425505 180.165912 
L 405.586096 179.156749 
L 406.731996 180.235263 
L 408.981176 180.312842 
L 410.085151 179.53448 
L 411.175825 179.815843 
L 412.253515 180.328811 
L 413.318525 180.400689 
L 414.371152 181.440721 
L 415.411679 183.426611 
L 416.440381 182.469073 
L 417.457525 183.425824 
L 418.463367 183.489393 
L 419.458156 183.41523 
L 420.442132 184.053352 
L 421.415526 183.963868 
L 422.378566 183.53437 
L 423.331468 185.200028 
L 424.274444 186.001083 
L 426.131429 184.613685 
L 427.045829 184.418508 
L 427.951085 185.595419 
L 428.847378 185.964444 
L 430.613773 184.846581 
L 431.484211 186.873748 
L 432.346359 186.592816 
L 433.200373 187.070575 
L 434.046406 187.36017 
L 434.884605 187.817084 
L 435.715114 188.665477 
L 436.538073 187.753529 
L 437.353618 187.887399 
L 438.161881 188.588053 
L 438.962991 189.816915 
L 439.757074 189.565209 
L 440.544251 189.612432 
L 441.324643 187.447225 
L 442.098364 188.720922 
L 442.865529 190.362557 
L 443.626246 188.732744 
L 444.380624 188.443255 
L 445.128768 187.903918 
L 445.870779 188.907181 
L 446.606757 189.692406 
L 447.336801 189.431105 
L 448.061003 189.555359 
L 448.779458 190.842725 
L 449.492256 190.012076 
L 450.199485 191.716637 
L 450.901232 191.141556 
L 451.59758 190.953369 
L 452.288613 191.669457 
L 452.97441 191.679973 
L 453.655052 191.502374 
L 454.330613 191.171825 
L 455.001171 192.2646 
L 455.666798 192.376601 
L 456.327566 193.087244 
L 456.983546 192.017855 
L 458.923439 193.794712 
L 460.193984 193.195693 
L 460.822631 194.234282 
L 462.066979 193.588312 
L 462.682796 194.212039 
L 463.294453 192.768354 
L 463.902005 194.296813 
L 464.505506 193.652224 
L 465.105011 194.390587 
L 465.700571 194.128881 
L 466.292239 194.235761 
L 466.880065 194.148132 
L 468.044387 195.83496 
L 468.620981 194.67131 
L 469.193925 196.430696 
L 469.763265 196.367019 
L 470.329048 195.715664 
L 470.891316 194.768749 
L 471.450113 195.955869 
L 472.005482 197.844727 
L 472.557464 196.244529 
L 473.106101 196.144177 
L 473.651434 196.331034 
L 474.1935 196.239308 
L 474.73234 196.79984 
L 475.267992 196.986601 
L 475.800492 196.144805 
L 476.329879 196.015053 
L 476.856188 196.878158 
L 477.379454 197.31297 
L 477.899714 197.269608 
L 478.417 198.150091 
L 478.931347 197.634814 
L 479.442788 196.42897 
L 479.951356 197.718064 
L 480.457083 197.961487 
L 480.96 197.205611 
L 480.96 197.205611 
" clip-path="url(#p5a9087029f)" style="fill: none; stroke: #ff0000; stroke-width: 1.5; stroke-linecap: square"/>
   </g>
   <g id="line2d_52">
    <path d="M 229.370452 233.032312 
L 229.370452 11.640434 
" clip-path="url(#p5a9087029f)" style="fill: none; stroke-dasharray: 1,1.65; stroke-dashoffset: 0; stroke: #ff0000; stroke-opacity: 0.7"/>
   </g>
   <g id="line2d_53">
    <path d="M 438.962991 188.255946 
L 439.501162 188.380999 
L 440.036152 188.505312 
L 440.567999 188.628895 
L 441.096739 188.751757 
L 441.622409 188.873904 
L 442.145045 188.995347 
L 442.66468 189.116093 
L 443.181349 189.236149 
L 443.695086 189.355524 
L 444.205924 189.474225 
L 444.713896 189.592261 
L 445.219033 189.709637 
L 445.721367 189.826363 
L 446.220929 189.942444 
L 446.717749 190.057888 
L 447.211858 190.172702 
L 447.703284 190.286893 
L 448.192056 190.400467 
L 448.678204 190.513431 
L 449.161755 190.625792 
L 449.642737 190.737556 
L 450.121176 190.848729 
L 450.597101 190.959317 
L 451.070536 191.069328 
L 451.541508 191.178766 
L 452.010042 191.287637 
L 452.476164 191.395948 
L 452.939899 191.503704 
L 453.401269 191.610911 
L 453.8603 191.717574 
L 454.317015 191.823699 
L 454.771438 191.929291 
L 455.223591 192.034356 
L 455.673496 192.138899 
L 456.121177 192.242925 
L 456.566655 192.346439 
L 457.009951 192.449446 
L 457.451087 192.551951 
L 457.890083 192.653959 
L 458.326961 192.755474 
L 458.761741 192.856502 
L 459.194443 192.957047 
L 459.625086 193.057114 
L 460.05369 193.156707 
L 460.480274 193.255831 
L 460.904858 193.35449 
L 461.327459 193.452688 
L 461.748097 193.55043 
L 462.166789 193.647719 
L 462.583554 193.744561 
L 462.998408 193.84096 
L 463.411371 193.936918 
L 463.822458 194.03244 
L 464.231686 194.127531 
L 464.639073 194.222194 
L 465.044635 194.316433 
L 465.448387 194.410251 
L 465.850347 194.503653 
L 466.250531 194.596642 
L 466.648952 194.689222 
L 467.045628 194.781396 
L 467.440574 194.873168 
L 467.833803 194.964541 
L 468.225332 195.055519 
L 468.615175 195.146105 
L 469.003346 195.236303 
L 469.38986 195.326115 
L 469.77473 195.415546 
L 470.157972 195.504598 
L 470.539597 195.593275 
L 470.919621 195.68158 
L 471.298055 195.769515 
L 471.674915 195.857084 
L 472.050212 195.944291 
L 472.423959 196.031137 
L 472.79617 196.117626 
L 473.166856 196.203761 
L 473.536031 196.289545 
L 473.903707 196.37498 
L 474.269895 196.46007 
L 474.634607 196.544816 
L 474.997857 196.629223 
L 475.359654 196.713293 
L 475.720012 196.797027 
L 476.07894 196.88043 
L 476.436451 196.963503 
L 476.792556 197.04625 
L 477.147265 197.128672 
L 477.50059 197.210773 
L 477.852541 197.292555 
L 478.203129 197.374019 
L 478.552364 197.45517 
L 478.900257 197.536008 
L 479.246819 197.616537 
L 479.592059 197.696759 
L 479.935987 197.776677 
L 480.278613 197.856291 
L 480.619948 197.935606 
L 480.96 198.014622 
" clip-path="url(#p5a9087029f)" style="fill: none; stroke-dasharray: 9.25,4; stroke-dashoffset: 0; stroke: #ff0000; stroke-width: 2.5"/>
   </g>
   <g id="line2d_54">
    <path d="M 47.3219 19.045875 
L 93.564315 32.988036 
L 124.023415 55.542315 
L 146.773617 59.983659 
L 164.939302 74.896008 
L 180.061849 90.007496 
L 193.016032 84.59502 
L 204.346407 91.536462 
L 214.415092 91.469027 
L 223.475132 101.272637 
L 231.710339 103.133438 
L 239.258447 108.442342 
L 246.225334 111.84085 
L 252.694146 110.950301 
L 258.731373 117.993697 
L 264.391019 117.017345 
L 269.717547 119.577253 
L 274.748 123.560308 
L 279.513566 122.52643 
L 284.040752 125.059839 
L 288.352274 128.30769 
L 292.467749 127.958728 
L 296.404232 128.586913 
L 300.176647 131.766382 
L 303.798124 132.376773 
L 307.280279 134.039389 
L 310.633434 136.32029 
L 313.866808 137.755079 
L 320.006439 137.795345 
L 322.926849 138.384643 
L 325.755981 139.737269 
L 328.499368 140.240681 
L 331.162056 142.915872 
L 333.748656 143.500615 
L 336.263397 144.246455 
L 338.710164 143.994486 
L 341.092534 143.863903 
L 343.413812 147.015469 
L 345.677051 147.580954 
L 347.885084 147.195688 
L 350.040539 148.319334 
L 352.145863 148.728182 
L 354.203335 147.82922 
L 358.18309 150.088154 
L 360.109223 151.534077 
L 361.995226 152.299126 
L 363.842736 151.444732 
L 365.653294 154.049897 
L 367.428348 154.463662 
L 369.169264 154.581438 
L 370.877331 153.28679 
L 372.553765 156.404726 
L 374.199717 155.275557 
L 375.816275 156.323347 
L 377.404471 157.105097 
L 378.965283 158.109406 
L 380.499639 158.240803 
L 382.008422 157.388998 
L 383.492469 159.075786 
L 384.952579 158.23182 
L 386.389511 158.421147 
L 387.803991 158.452493 
L 389.196709 160.299382 
L 390.568324 160.60148 
L 391.919466 163.915649 
L 393.250738 162.956896 
L 394.562715 161.788642 
L 395.855949 163.639069 
L 397.130968 161.649155 
L 398.388278 163.884781 
L 399.628364 164.774208 
L 400.851691 164.451799 
L 402.058707 164.52083 
L 403.249841 163.878586 
L 404.425505 165.79426 
L 405.586096 165.488984 
L 406.731996 166.316905 
L 407.863571 166.169546 
L 408.981176 165.791207 
L 410.085151 165.701849 
L 412.253515 165.694527 
L 413.318525 165.444238 
L 414.371152 167.107387 
L 415.411679 168.140386 
L 416.440381 168.124412 
L 417.457525 168.656141 
L 418.463367 168.743175 
L 419.458156 168.356518 
L 420.442132 168.796138 
L 421.415526 169.060895 
L 422.378566 168.759257 
L 423.331468 169.567073 
L 424.274444 171.332916 
L 426.131429 169.451301 
L 427.951085 170.66322 
L 428.847378 170.890493 
L 429.734884 169.80105 
L 430.613773 169.555354 
L 431.484211 171.564352 
L 432.346359 171.391287 
L 433.200373 171.969292 
L 434.046406 171.976384 
L 435.715114 173.135899 
L 436.538073 172.125592 
L 438.161881 173.391576 
L 438.962991 174.347108 
L 440.544251 173.583769 
L 441.324643 171.949484 
L 442.098364 172.874619 
L 442.865529 174.488894 
L 443.626246 173.032023 
L 444.380624 173.062634 
L 445.128768 171.923127 
L 445.870779 173.385009 
L 446.606757 174.209628 
L 447.336801 173.921742 
L 448.061003 174.267659 
L 448.779458 175.20577 
L 449.492256 174.396291 
L 450.199485 176.305523 
L 450.901232 175.201025 
L 451.59758 175.237926 
L 452.288613 175.563829 
L 452.97441 176.185322 
L 453.655052 175.647708 
L 454.330613 175.284584 
L 455.001171 176.528009 
L 455.666798 176.136308 
L 456.327566 176.943132 
L 456.983546 175.982875 
L 458.281416 177.243155 
L 458.923439 177.76164 
L 459.56094 177.163283 
L 460.193984 177.509257 
L 460.822631 178.169798 
L 461.446943 178.036113 
L 462.066979 177.510281 
L 462.682796 178.544059 
L 463.294453 177.027517 
L 463.902005 178.321582 
L 464.505506 177.592976 
L 465.105011 178.120452 
L 466.292239 178.150042 
L 466.880065 178.462064 
L 467.464098 179.268569 
L 468.044387 179.861695 
L 468.620981 178.796147 
L 469.193925 179.973366 
L 469.763265 180.237416 
L 470.329048 179.678149 
L 470.891316 178.74269 
L 472.005482 181.168007 
L 472.557464 180.262965 
L 473.106101 179.932099 
L 473.651434 179.848816 
L 474.1935 180.033655 
L 474.73234 180.630555 
L 475.267992 180.94359 
L 475.800492 179.811985 
L 476.329879 179.775776 
L 476.856188 180.769024 
L 477.379454 180.994078 
L 477.899714 180.772951 
L 478.417 182.043677 
L 478.931347 181.47032 
L 479.442788 180.044713 
L 479.951356 181.499826 
L 480.457083 181.805497 
L 480.96 181.200903 
L 480.96 181.200903 
" clip-path="url(#p5a9087029f)" style="fill: none; stroke: #008000; stroke-width: 1.5; stroke-linecap: square"/>
   </g>
   <g id="line2d_55">
    <path d="M 154.073995 233.032312 
L 154.073995 11.640434 
" clip-path="url(#p5a9087029f)" style="fill: none; stroke-dasharray: 1,1.65; stroke-dashoffset: 0; stroke: #008000; stroke-opacity: 0.7"/>
   </g>
   <g id="line2d_56">
    <path d="M 438.962991 172.68396 
L 439.501162 172.799923 
L 440.036152 172.915202 
L 440.567999 173.029803 
L 441.096739 173.143734 
L 441.622409 173.257004 
L 442.145045 173.36962 
L 442.66468 173.48159 
L 443.181349 173.59292 
L 443.695086 173.703619 
L 444.205924 173.813693 
L 444.713896 173.923149 
L 445.219033 174.031995 
L 445.721367 174.140237 
L 446.220929 174.247881 
L 446.717749 174.354934 
L 447.211858 174.461403 
L 447.703284 174.567294 
L 448.192056 174.672614 
L 448.678204 174.777368 
L 449.161755 174.881562 
L 449.642737 174.985203 
L 450.121176 175.088295 
L 450.597101 175.190846 
L 451.070536 175.292861 
L 451.541508 175.394345 
L 452.010042 175.495303 
L 452.476164 175.595742 
L 452.939899 175.695666 
L 453.401269 175.795081 
L 453.8603 175.893992 
L 454.317015 175.992404 
L 454.771438 176.090321 
L 455.223591 176.18775 
L 455.673496 176.284694 
L 456.121177 176.381159 
L 456.566655 176.47715 
L 457.009951 176.57267 
L 457.451087 176.667725 
L 457.890083 176.762319 
L 458.326961 176.856456 
L 458.761741 176.950141 
L 459.194443 177.043378 
L 459.625086 177.136172 
L 460.05369 177.228527 
L 460.480274 177.320446 
L 460.904858 177.411934 
L 461.327459 177.502995 
L 461.748097 177.593633 
L 462.166789 177.683851 
L 462.583554 177.773655 
L 462.998408 177.863047 
L 463.411371 177.952031 
L 463.822458 178.04061 
L 464.231686 178.12879 
L 464.639073 178.216572 
L 465.044635 178.303962 
L 465.448387 178.390961 
L 465.850347 178.477575 
L 466.250531 178.563805 
L 466.648952 178.649656 
L 467.045628 178.735131 
L 467.440574 178.820232 
L 467.833803 178.904964 
L 468.225332 178.98933 
L 468.615175 179.073332 
L 469.003346 179.156974 
L 469.38986 179.240259 
L 469.77473 179.32319 
L 470.157972 179.40577 
L 470.539597 179.488001 
L 470.919621 179.569888 
L 471.298055 179.651432 
L 471.674915 179.732637 
L 472.050212 179.813505 
L 472.423959 179.894039 
L 472.79617 179.974242 
L 473.166856 180.054116 
L 473.536031 180.133665 
L 473.903707 180.212891 
L 474.269895 180.291796 
L 474.634607 180.370383 
L 474.997857 180.448655 
L 475.359654 180.526614 
L 475.720012 180.604263 
L 476.07894 180.681604 
L 476.436451 180.75864 
L 476.792556 180.835372 
L 477.147265 180.911804 
L 477.50059 180.987937 
L 477.852541 181.063775 
L 478.203129 181.139318 
L 478.552364 181.214571 
L 478.900257 181.289534 
L 479.246819 181.36421 
L 479.592059 181.438601 
L 479.935987 181.51271 
L 480.278613 181.586538 
L 480.619948 181.660088 
L 480.96 181.733362 
" clip-path="url(#p5a9087029f)" style="fill: none; stroke-dasharray: 9.25,4; stroke-dashoffset: 0; stroke: #008000; stroke-width: 2.5"/>
   </g>
   <g id="line2d_57">
    <path d="M 47.3219 14.59492 
L 93.564315 26.821177 
L 124.023415 47.257915 
L 146.773617 54.606575 
L 164.939302 69.837102 
L 180.061849 77.735931 
L 193.016032 78.013602 
L 204.346407 82.501803 
L 214.415092 80.469198 
L 223.475132 89.950846 
L 231.710339 91.847798 
L 239.258447 97.553034 
L 246.225334 100.660132 
L 252.694146 100.814775 
L 258.731373 106.231233 
L 264.391019 105.802291 
L 269.717547 107.856736 
L 274.748 110.557408 
L 279.513566 112.026064 
L 284.040752 113.179053 
L 288.352274 115.549174 
L 292.467749 115.983291 
L 296.404232 115.074318 
L 300.176647 118.491231 
L 303.798124 119.056985 
L 307.280279 121.908489 
L 310.633434 123.226786 
L 313.866808 125.792062 
L 316.988665 124.313725 
L 320.006439 125.077971 
L 322.926849 123.725417 
L 325.755981 126.567192 
L 328.499368 125.552863 
L 331.162056 128.857539 
L 333.748656 130.128647 
L 336.263397 130.018086 
L 338.710164 129.609506 
L 343.413812 131.912017 
L 345.677051 131.936144 
L 347.885084 132.620507 
L 350.040539 133.745368 
L 354.203335 133.922468 
L 356.215081 134.915682 
L 358.18309 135.672773 
L 360.109223 136.174358 
L 361.995226 137.250493 
L 363.842736 137.507586 
L 365.653294 139.417005 
L 367.428348 140.393428 
L 369.169264 139.261863 
L 370.877331 138.468732 
L 372.553765 140.765112 
L 374.199717 139.367626 
L 375.816275 141.061375 
L 377.404471 141.687898 
L 378.965283 142.849938 
L 380.499639 141.824176 
L 382.008422 142.779899 
L 383.492469 143.921649 
L 384.952579 142.682057 
L 386.389511 143.827426 
L 387.803991 142.741781 
L 389.196709 145.09233 
L 390.568324 145.090213 
L 391.919466 148.478845 
L 393.250738 147.897363 
L 394.562715 146.052232 
L 395.855949 147.674944 
L 397.130968 146.316051 
L 398.388278 147.537332 
L 399.628364 149.074199 
L 400.851691 148.371769 
L 402.058707 148.64257 
L 403.249841 148.561801 
L 404.425505 149.926835 
L 405.586096 149.645908 
L 407.863571 150.390307 
L 408.981176 149.620417 
L 411.175825 150.221428 
L 412.253515 149.899107 
L 413.318525 149.248025 
L 414.371152 151.772723 
L 415.411679 151.308721 
L 416.440381 153.119989 
L 417.457525 152.190757 
L 418.463367 152.80673 
L 419.458156 152.361112 
L 420.442132 152.762264 
L 421.415526 153.031172 
L 422.378566 152.533538 
L 423.331468 152.951118 
L 424.274444 155.355781 
L 425.207698 154.192218 
L 426.131429 153.704756 
L 427.045829 154.451271 
L 427.951085 154.79436 
L 428.847378 154.406145 
L 430.613773 153.294733 
L 431.484211 154.918618 
L 432.346359 155.274758 
L 433.200373 155.99386 
L 434.046406 155.614201 
L 434.884605 155.946987 
L 435.715114 156.563018 
L 436.538073 155.668288 
L 437.353618 156.932361 
L 438.161881 157.432656 
L 438.962991 157.763176 
L 439.757074 157.392846 
L 440.544251 156.605549 
L 441.324643 156.251776 
L 442.098364 156.26388 
L 442.865529 158.110826 
L 443.626246 157.188985 
L 444.380624 157.539616 
L 445.128768 155.457968 
L 445.870779 156.852278 
L 446.606757 157.985049 
L 447.336801 158.07473 
L 448.061003 158.684569 
L 448.779458 158.823287 
L 449.492256 158.156884 
L 450.199485 160.014263 
L 450.901232 158.808154 
L 451.59758 159.327476 
L 452.288613 158.460799 
L 452.97441 159.929402 
L 453.655052 159.474481 
L 454.330613 159.274094 
L 455.001171 160.405197 
L 455.666798 159.238889 
L 456.327566 159.866906 
L 456.983546 159.916928 
L 458.281416 160.742471 
L 458.923439 160.957425 
L 459.56094 160.265039 
L 460.193984 161.656963 
L 460.822631 161.684716 
L 461.446943 161.391071 
L 462.066979 160.641578 
L 462.682796 162.0847 
L 463.294453 161.407645 
L 463.902005 161.841866 
L 464.505506 161.198144 
L 465.700571 161.774029 
L 466.292239 161.771661 
L 466.880065 162.167445 
L 467.464098 163.444528 
L 468.044387 163.337671 
L 468.620981 162.628515 
L 469.763265 163.642002 
L 470.329048 163.455427 
L 470.891316 162.676186 
L 471.450113 163.716424 
L 472.005482 164.099641 
L 472.557464 164.245018 
L 473.106101 163.712942 
L 473.651434 162.965685 
L 474.73234 164.162006 
L 475.267992 164.421205 
L 475.800492 163.243302 
L 476.329879 163.29563 
L 476.856188 164.53477 
L 477.379454 164.169046 
L 477.899714 164.145966 
L 478.417 165.40467 
L 479.442788 163.932778 
L 479.951356 164.982044 
L 480.457083 165.757026 
L 480.96 164.576544 
L 480.96 164.576544 
" clip-path="url(#p5a9087029f)" style="fill: none; stroke: #ffa500; stroke-width: 1.5; stroke-linecap: square"/>
   </g>
   <g id="line2d_58">
    <path d="M 78.777538 233.032312 
L 78.777538 11.640434 
" clip-path="url(#p5a9087029f)" style="fill: none; stroke-dasharray: 1,1.65; stroke-dashoffset: 0; stroke: #ffa500; stroke-opacity: 0.7"/>
   </g>
   <g id="line2d_59">
    <path d="M 438.962991 156.424505 
L 439.501162 156.537383 
L 440.036152 156.649594 
L 440.567999 156.761145 
L 441.096739 156.872045 
L 441.622409 156.982301 
L 442.145045 157.091921 
L 442.66468 157.200911 
L 443.181349 157.309279 
L 443.695086 157.417032 
L 444.205924 157.524177 
L 444.713896 157.630721 
L 445.219033 157.736671 
L 445.721367 157.842032 
L 446.220929 157.946812 
L 446.717749 158.051017 
L 447.211858 158.154653 
L 447.703284 158.257726 
L 448.192056 158.360243 
L 448.678204 158.46221 
L 449.161755 158.563632 
L 449.642737 158.664515 
L 450.121176 158.764864 
L 450.597101 158.864686 
L 451.070536 158.963986 
L 451.541508 159.06277 
L 452.010042 159.161042 
L 452.476164 159.258808 
L 452.939899 159.356073 
L 453.401269 159.452843 
L 453.8603 159.549122 
L 454.317015 159.644915 
L 454.771438 159.740227 
L 455.223591 159.835063 
L 455.673496 159.929428 
L 456.121177 160.023327 
L 456.566655 160.116763 
L 457.009951 160.209741 
L 457.451087 160.302267 
L 457.890083 160.394343 
L 458.326961 160.485976 
L 458.761741 160.577168 
L 459.194443 160.667925 
L 459.625086 160.758249 
L 460.05369 160.848146 
L 460.480274 160.93762 
L 460.904858 161.026673 
L 461.327459 161.115311 
L 461.748097 161.203537 
L 462.166789 161.291356 
L 462.583554 161.378769 
L 462.998408 161.465782 
L 463.411371 161.552399 
L 463.822458 161.638622 
L 464.231686 161.724455 
L 464.639073 161.809901 
L 465.044635 161.894965 
L 465.448387 161.97965 
L 465.850347 162.063959 
L 466.250531 162.147895 
L 466.648952 162.231461 
L 467.045628 162.314661 
L 467.440574 162.397499 
L 467.833803 162.479976 
L 468.225332 162.562097 
L 468.615175 162.643864 
L 469.003346 162.72528 
L 469.38986 162.806349 
L 469.77473 162.887073 
L 470.157972 162.967456 
L 470.539597 163.047499 
L 470.919621 163.127207 
L 471.298055 163.206581 
L 471.674915 163.285625 
L 472.050212 163.364341 
L 472.423959 163.442732 
L 472.79617 163.520801 
L 473.166856 163.59855 
L 473.536031 163.675982 
L 473.903707 163.7531 
L 474.269895 163.829906 
L 474.634607 163.906402 
L 474.997857 163.982591 
L 475.359654 164.058476 
L 475.720012 164.134059 
L 476.07894 164.209342 
L 476.436451 164.284327 
L 476.792556 164.359018 
L 477.147265 164.433416 
L 477.50059 164.507524 
L 477.852541 164.581343 
L 478.203129 164.654877 
L 478.552364 164.728127 
L 478.900257 164.801095 
L 479.246819 164.873784 
L 479.592059 164.946196 
L 479.935987 165.018333 
L 480.278613 165.090197 
L 480.619948 165.161789 
L 480.96 165.233113 
" clip-path="url(#p5a9087029f)" style="fill: none; stroke-dasharray: 9.25,4; stroke-dashoffset: 0; stroke: #ffa500; stroke-width: 2.5"/>
   </g>
   <g id="line2d_60">
    <path d="M 47.3219 11.640434 
L 93.564315 20.870304 
L 124.023415 30.746668 
L 146.773617 40.85438 
L 164.939302 60.055882 
L 180.061849 56.119189 
L 193.016032 63.341214 
L 204.346407 65.989577 
L 214.415092 64.480017 
L 223.475132 72.765884 
L 231.710339 74.983432 
L 239.258447 79.470471 
L 246.225334 81.203513 
L 252.694146 83.731611 
L 258.731373 85.458045 
L 269.717547 90.587183 
L 274.748 92.202721 
L 279.513566 97.778369 
L 284.040752 93.574097 
L 288.352274 97.069675 
L 292.467749 98.741782 
L 296.404232 95.172633 
L 300.176647 99.779114 
L 303.798124 99.666805 
L 310.633434 105.803554 
L 313.866808 106.813973 
L 320.006439 107.786975 
L 322.926849 105.368299 
L 328.499368 108.755499 
L 331.162056 109.857266 
L 333.748656 110.583729 
L 336.263397 110.763703 
L 338.710164 109.952674 
L 341.092534 112.493918 
L 343.413812 113.710625 
L 345.677051 113.870188 
L 347.885084 112.778305 
L 350.040539 116.215056 
L 352.145863 114.790044 
L 354.203335 115.999328 
L 356.215081 117.455115 
L 358.18309 117.471375 
L 360.109223 116.983285 
L 361.995226 117.46926 
L 363.842736 118.979526 
L 365.653294 120.753976 
L 367.428348 119.730564 
L 369.169264 119.832392 
L 370.877331 120.859138 
L 372.553765 121.250876 
L 374.199717 119.902444 
L 375.816275 121.198494 
L 377.404471 121.698138 
L 378.965283 122.646544 
L 380.499639 121.999678 
L 382.008422 124.256651 
L 383.492469 123.563743 
L 384.952579 122.737988 
L 386.389511 125.884275 
L 387.803991 123.504404 
L 389.196709 125.040307 
L 391.919466 126.806535 
L 393.250738 129.218198 
L 394.562715 127.618434 
L 395.855949 127.425879 
L 397.130968 126.938031 
L 398.388278 125.789342 
L 399.628364 128.189355 
L 400.851691 128.923911 
L 402.058707 127.275322 
L 404.425505 129.781786 
L 405.586096 129.061702 
L 407.863571 129.294282 
L 408.981176 129.761357 
L 410.085151 130.399205 
L 411.175825 129.750152 
L 412.253515 130.460555 
L 413.318525 131.381834 
L 414.371152 130.212838 
L 415.411679 131.907681 
L 416.440381 131.249741 
L 417.457525 131.517581 
L 418.463367 132.292654 
L 419.458156 132.133669 
L 420.442132 133.311917 
L 421.415526 131.976492 
L 422.378566 133.161107 
L 423.331468 132.111113 
L 424.274444 134.016092 
L 425.207698 134.08484 
L 426.131429 134.994138 
L 427.045829 133.902014 
L 427.951085 134.882985 
L 428.847378 132.96523 
L 429.734884 133.919108 
L 430.613773 133.627112 
L 431.484211 133.806008 
L 432.346359 135.236571 
L 433.200373 135.328748 
L 434.046406 134.882905 
L 434.884605 134.579539 
L 435.715114 134.830503 
L 436.538073 135.99816 
L 437.353618 136.366663 
L 438.161881 137.541379 
L 438.962991 136.367442 
L 439.757074 135.527724 
L 440.544251 136.1784 
L 441.324643 138.248507 
L 442.098364 135.976247 
L 442.865529 136.503071 
L 443.626246 136.884166 
L 444.380624 137.61318 
L 445.128768 137.464776 
L 445.870779 135.839993 
L 446.606757 138.764252 
L 448.061003 138.165569 
L 448.779458 137.95478 
L 449.492256 137.914415 
L 450.199485 138.545242 
L 450.901232 137.713884 
L 451.59758 138.943664 
L 452.97441 138.774329 
L 453.655052 139.035633 
L 454.330613 138.932388 
L 455.001171 139.128325 
L 455.666798 138.291751 
L 456.327566 139.565196 
L 457.634807 139.265791 
L 458.281416 139.356608 
L 458.923439 139.12661 
L 459.56094 139.814076 
L 460.193984 140.08917 
L 460.822631 141.092507 
L 461.446943 139.897578 
L 462.066979 139.750697 
L 462.682796 141.646594 
L 463.294453 140.407713 
L 463.902005 141.754682 
L 464.505506 141.099915 
L 465.105011 141.158995 
L 465.700571 140.406018 
L 466.292239 141.179545 
L 466.880065 141.044694 
L 467.464098 141.073892 
L 468.044387 142.57645 
L 468.620981 142.863442 
L 469.193925 142.143885 
L 469.763265 142.456984 
L 470.329048 142.332476 
L 470.891316 144.099247 
L 471.450113 142.771491 
L 472.005482 143.310436 
L 472.557464 143.063461 
L 473.106101 143.251726 
L 473.651434 143.214357 
L 474.1935 141.700747 
L 474.73234 143.176102 
L 475.267992 142.527858 
L 475.800492 143.229538 
L 476.329879 142.689824 
L 476.856188 143.206034 
L 477.379454 143.144277 
L 477.899714 142.818545 
L 478.417 144.475398 
L 478.931347 142.793781 
L 479.442788 143.66686 
L 480.457083 144.321256 
L 480.96 142.958202 
L 480.96 142.958202 
" clip-path="url(#p5a9087029f)" style="fill: none; stroke: #800080; stroke-width: 1.5; stroke-linecap: square"/>
   </g>
   <g id="line2d_61">
    <path clip-path="url(#p5a9087029f)" style="fill: none; stroke-dasharray: 1,1.65; stroke-dashoffset: 0; stroke: #800080; stroke-opacity: 0.7"/>
   </g>
   <g id="line2d_62">
    <path d="M 438.962991 136.133088 
L 439.501162 136.235732 
L 440.036152 136.337769 
L 440.567999 136.439207 
L 441.096739 136.540052 
L 441.622409 136.640312 
L 442.145045 136.739993 
L 442.66468 136.839102 
L 443.181349 136.937645 
L 443.695086 137.035629 
L 444.205924 137.13306 
L 444.713896 137.229944 
L 445.219033 137.326288 
L 445.721367 137.422097 
L 446.220929 137.517377 
L 446.717749 137.612134 
L 447.211858 137.706374 
L 447.703284 137.800103 
L 448.192056 137.893325 
L 448.678204 137.986047 
L 449.161755 138.078273 
L 449.642737 138.17001 
L 450.121176 138.261262 
L 450.597101 138.352033 
L 451.070536 138.442331 
L 451.541508 138.532158 
L 452.010042 138.62152 
L 452.476164 138.710423 
L 452.939899 138.79887 
L 453.401269 138.886866 
L 453.8603 138.974416 
L 454.317015 139.061524 
L 454.771438 139.148195 
L 455.223591 139.234433 
L 455.673496 139.320242 
L 456.121177 139.405627 
L 456.566655 139.490592 
L 457.009951 139.575141 
L 457.451087 139.659278 
L 457.890083 139.743006 
L 458.326961 139.826331 
L 458.761741 139.909255 
L 459.194443 139.991784 
L 459.625086 140.073919 
L 460.05369 140.155666 
L 460.480274 140.237027 
L 460.904858 140.318007 
L 461.327459 140.398609 
L 461.748097 140.478836 
L 462.166789 140.558692 
L 462.583554 140.638181 
L 462.998408 140.717305 
L 463.411371 140.796068 
L 463.822458 140.874474 
L 464.231686 140.952525 
L 464.639073 141.030225 
L 465.044635 141.107577 
L 465.448387 141.184583 
L 465.850347 141.261248 
L 466.250531 141.337574 
L 466.648952 141.413564 
L 467.045628 141.489221 
L 467.440574 141.564548 
L 467.833803 141.639548 
L 468.225332 141.714223 
L 468.615175 141.788577 
L 469.003346 141.862612 
L 469.38986 141.936331 
L 469.77473 142.009736 
L 470.157972 142.082831 
L 470.539597 142.155617 
L 470.919621 142.228098 
L 471.298055 142.300276 
L 471.674915 142.372154 
L 472.050212 142.443733 
L 472.423959 142.515017 
L 472.79617 142.586008 
L 473.166856 142.656708 
L 473.536031 142.72712 
L 473.903707 142.797246 
L 474.269895 142.867088 
L 474.634607 142.936649 
L 474.997857 143.00593 
L 475.359654 143.074935 
L 475.720012 143.143665 
L 476.07894 143.212123 
L 476.436451 143.28031 
L 476.792556 143.348229 
L 477.147265 143.415882 
L 477.50059 143.483271 
L 477.852541 143.550397 
L 478.203129 143.617264 
L 478.552364 143.683873 
L 478.900257 143.750226 
L 479.246819 143.816325 
L 479.592059 143.882171 
L 479.935987 143.947768 
L 480.278613 144.013116 
L 480.619948 144.078218 
L 480.96 144.143076 
" clip-path="url(#p5a9087029f)" style="fill: none; stroke-dasharray: 9.25,4; stroke-dashoffset: 0; stroke: #800080; stroke-width: 2.5"/>
   </g>
   <g id="line2d_63">
    <path d="M 47.3219 14.700091 
L 480.96 228.575676 
L 480.96 228.575676 
" clip-path="url(#p5a9087029f)" style="fill: none; stroke-dasharray: 11.1,4.8; stroke-dashoffset: 0; stroke: #000000; stroke-width: 3"/>
   </g>
   <g id="patch_3">
    <path d="M 47.3219 233.032312 
L 47.3219 11.640434 
" style="fill: none; stroke: #000000; stroke-linejoin: miter; stroke-linecap: square"/>
   </g>
   <g id="patch_4">
    <path d="M 480.96 233.032312 
L 480.96 11.640434 
" style="fill: none; stroke: #000000; stroke-linejoin: miter; stroke-linecap: square"/>
   </g>
   <g id="patch_5">
    <path d="M 47.3219 233.032312 
L 480.96 233.032312 
" style="fill: none; stroke: #000000; stroke-linejoin: miter; stroke-linecap: square"/>
   </g>
   <g id="patch_6">
    <path d="M 47.3219 11.640434 
L 480.96 11.640434 
" style="fill: none; stroke: #000000; stroke-linejoin: miter; stroke-linecap: square"/>
   </g>
   <g id="legend_1">
    <g id="line2d_64">
     <path d="M 59.9219 17.7 
L 73.9219 17.7 
L 87.9219 17.7 
" style="fill: none; stroke: #0000ff; stroke-width: 1.5; stroke-linecap: square"/>
    </g>
    <g id="text_9">
     <!-- $\eta=0.0$ -->
     <g transform="translate(99.1219 22.6) scale(0.14 -0.14)">
      <defs>
       <path id="CMMI12-11" d="M 3040 1768 
C 3072 1895 3091 1973 3091 2145 
C 3091 2528 2867 2815 2381 2815 
C 1811 2815 1510 2413 1395 2254 
C 1376 2618 1114 2815 832 2815 
C 646 2815 499 2726 378 2483 
C 262 2254 173 1864 173 1839 
C 173 1813 198 1781 243 1781 
C 294 1781 301 1788 339 1934 
C 435 2311 557 2688 813 2688 
C 960 2688 1011 2586 1011 2394 
C 1011 2254 947 2005 902 1807 
L 723 1118 
C 698 996 627 709 595 593 
C 550 428 480 127 480 96 
C 480 6 550 -64 646 -64 
C 723 -64 813 -25 864 70 
C 877 102 934 326 966 453 
L 1107 1028 
L 1318 1871 
C 1331 1909 1491 2228 1728 2432 
C 1894 2586 2112 2688 2362 2688 
C 2618 2688 2707 2496 2707 2241 
C 2707 2055 2682 1953 2650 1831 
L 1907 -1107 
C 1901 -1139 1888 -1177 1888 -1216 
C 1888 -1312 1965 -1376 2061 -1376 
C 2118 -1376 2253 -1350 2304 -1158 
L 3040 1768 
z
" transform="scale(0.015625)"/>
       <path id="CMR17-3d" d="M 4115 2017 
C 4211 2017 4307 2017 4307 2125 
C 4307 2240 4198 2240 4090 2240 
L 512 2240 
C 403 2240 294 2240 294 2125 
C 294 2017 390 2017 486 2017 
L 4115 2017 
z
M 4090 896 
C 4198 896 4307 896 4307 1011 
C 4307 1119 4211 1119 4115 1119 
L 486 1119 
C 390 1119 294 1119 294 1011 
C 294 896 403 896 512 896 
L 4090 896 
z
" transform="scale(0.015625)"/>
       <path id="CMMI12-3a" d="M 1178 307 
C 1178 492 1024 619 870 619 
C 685 619 557 466 557 313 
C 557 128 710 0 864 0 
C 1050 0 1178 153 1178 307 
z
" transform="scale(0.015625)"/>
      </defs>
      <use xlink:href="#CMMI12-11" transform="scale(0.996264)"/>
      <use xlink:href="#CMR17-3d" transform="translate(79.377824 0) scale(0.996264)"/>
      <use xlink:href="#CMR17-30" transform="translate(178.766622 0) scale(0.996264)"/>
      <use xlink:href="#CMMI12-3a" transform="translate(224.457099 0) scale(0.996264)"/>
      <use xlink:href="#CMR17-30" transform="translate(251.554276 0) scale(0.996264)"/>
     </g>
    </g>
    <g id="line2d_65">
     <path d="M 59.9219 37.212028 
L 73.9219 37.212028 
L 87.9219 37.212028 
" style="fill: none; stroke-dasharray: 9.25,4; stroke-dashoffset: 0; stroke: #0000ff; stroke-width: 2.5"/>
    </g>
    <g id="text_10">
     <!-- $\propto k^{-3.68}$ -->
     <g transform="translate(99.1219 42.112028) scale(0.14 -0.14)">
      <defs>
       <path id="CMSY10-2f" d="M 4621 205 
C 4595 205 4493 192 4474 192 
C 3968 192 3629 691 3411 1024 
C 3347 1133 3174 1395 3104 1504 
C 3258 1850 3686 2643 4448 2643 
C 4493 2643 4550 2643 4621 2624 
C 4621 2790 4614 2797 4602 2810 
C 4557 2822 4461 2829 4403 2829 
C 3590 2829 3117 2048 2963 1728 
C 2707 2118 2618 2259 2381 2458 
C 1990 2797 1638 2829 1478 2829 
C 768 2829 358 2112 358 1376 
C 358 659 755 -70 1459 -70 
C 2272 -70 2746 710 2899 1030 
C 3155 640 3245 499 3482 301 
C 3872 -38 4224 -70 4384 -70 
C 4461 -70 4563 -58 4621 -44 
L 4621 205 
z
M 2758 1254 
C 2605 909 2176 115 1414 115 
C 794 115 499 794 499 1376 
C 499 2010 858 2566 1389 2566 
C 1894 2566 2234 2067 2451 1734 
C 2515 1626 2688 1363 2758 1254 
z
" transform="scale(0.015625)"/>
       <path id="CMSY10-0" d="M 4218 1472 
C 4326 1472 4442 1472 4442 1600 
C 4442 1728 4326 1728 4218 1728 
L 755 1728 
C 646 1728 531 1728 531 1600 
C 531 1472 646 1472 755 1472 
L 4218 1472 
z
" transform="scale(0.015625)"/>
       <path id="CMR17-33" d="M 1414 2157 
C 1984 2157 2234 1662 2234 1090 
C 2234 320 1824 25 1453 25 
C 1114 25 563 194 390 693 
C 422 680 454 680 486 680 
C 640 680 755 782 755 948 
C 755 1133 614 1216 486 1216 
C 378 1216 211 1165 211 926 
C 211 335 787 -128 1466 -128 
C 2176 -128 2720 430 2720 1085 
C 2720 1707 2208 2157 1600 2227 
C 2086 2328 2554 2756 2554 3329 
C 2554 3820 2048 4179 1472 4179 
C 890 4179 378 3829 378 3329 
C 378 3110 544 3072 627 3072 
C 762 3072 877 3155 877 3321 
C 877 3486 762 3569 627 3569 
C 602 3569 570 3569 544 3557 
C 730 3959 1235 4032 1459 4032 
C 1683 4032 2106 3925 2106 3320 
C 2106 3143 2080 2828 1862 2550 
C 1670 2304 1453 2304 1242 2284 
C 1210 2284 1062 2269 1037 2269 
C 992 2263 966 2257 966 2208 
C 966 2163 973 2157 1101 2157 
L 1414 2157 
z
" transform="scale(0.015625)"/>
      </defs>
      <use xlink:href="#CMSY10-2f" transform="scale(0.996264)"/>
      <use xlink:href="#CMMI12-6b" transform="translate(105.161476 0) scale(0.996264)"/>
      <use xlink:href="#CMSY10-0" transform="translate(159.240677 36.153639) scale(0.697382)"/>
      <use xlink:href="#CMR17-33" transform="translate(213.48167 36.153639) scale(0.697382)"/>
      <use xlink:href="#CMMI12-3a" transform="translate(245.464852 36.153639) scale(0.697382)"/>
      <use xlink:href="#CMR17-36" transform="translate(264.432785 36.153639) scale(0.697382)"/>
      <use xlink:href="#CMR17-38" transform="translate(296.415967 36.153639) scale(0.697382)"/>
     </g>
    </g>
    <g id="line2d_66">
     <path d="M 59.9219 56.724057 
L 73.9219 56.724057 
L 87.9219 56.724057 
" style="fill: none; stroke: #ff0000; stroke-width: 1.5; stroke-linecap: square"/>
    </g>
    <g id="text_11">
     <!-- $\eta=0.1$ -->
     <g transform="translate(99.1219 61.624057) scale(0.14 -0.14)">
      <use xlink:href="#CMMI12-11" transform="scale(0.996264)"/>
      <use xlink:href="#CMR17-3d" transform="translate(79.377824 0) scale(0.996264)"/>
      <use xlink:href="#CMR17-30" transform="translate(178.766622 0) scale(0.996264)"/>
      <use xlink:href="#CMMI12-3a" transform="translate(224.457099 0) scale(0.996264)"/>
      <use xlink:href="#CMR17-31" transform="translate(251.554276 0) scale(0.996264)"/>
     </g>
    </g>
    <g id="line2d_67">
     <path d="M 59.9219 76.236085 
L 73.9219 76.236085 
L 87.9219 76.236085 
" style="fill: none; stroke-dasharray: 9.25,4; stroke-dashoffset: 0; stroke: #ff0000; stroke-width: 2.5"/>
    </g>
    <g id="text_12">
     <!-- $\propto k^{-1.73}$ -->
     <g transform="translate(99.1219 81.136085) scale(0.14 -0.14)">
      <defs>
       <path id="CMR17-37" d="M 2886 3941 
L 2886 4081 
L 1382 4081 
C 634 4081 621 4165 595 4288 
L 480 4288 
L 294 3094 
L 410 3094 
C 429 3215 474 3540 550 3661 
C 589 3712 1062 3712 1171 3712 
L 2579 3712 
L 1869 2661 
C 1395 1954 1069 999 1069 165 
C 1069 89 1069 -128 1299 -128 
C 1530 -128 1530 89 1530 171 
L 1530 465 
C 1530 1508 1709 2196 2003 2636 
L 2886 3941 
z
" transform="scale(0.015625)"/>
      </defs>
      <use xlink:href="#CMSY10-2f" transform="scale(0.996264)"/>
      <use xlink:href="#CMMI12-6b" transform="translate(105.161476 0) scale(0.996264)"/>
      <use xlink:href="#CMSY10-0" transform="translate(159.240677 36.153639) scale(0.697382)"/>
      <use xlink:href="#CMR17-31" transform="translate(213.48167 36.153639) scale(0.697382)"/>
      <use xlink:href="#CMMI12-3a" transform="translate(245.464852 36.153639) scale(0.697382)"/>
      <use xlink:href="#CMR17-37" transform="translate(264.432785 36.153639) scale(0.697382)"/>
      <use xlink:href="#CMR17-33" transform="translate(296.415967 36.153639) scale(0.697382)"/>
     </g>
    </g>
    <g id="line2d_68">
     <path d="M 59.9219 95.748114 
L 73.9219 95.748114 
L 87.9219 95.748114 
" style="fill: none; stroke: #008000; stroke-width: 1.5; stroke-linecap: square"/>
    </g>
    <g id="text_13">
     <!-- $\eta=0.2$ -->
     <g transform="translate(99.1219 100.648114) scale(0.14 -0.14)">
      <use xlink:href="#CMMI12-11" transform="scale(0.996264)"/>
      <use xlink:href="#CMR17-3d" transform="translate(79.377824 0) scale(0.996264)"/>
      <use xlink:href="#CMR17-30" transform="translate(178.766622 0) scale(0.996264)"/>
      <use xlink:href="#CMMI12-3a" transform="translate(224.457099 0) scale(0.996264)"/>
      <use xlink:href="#CMR17-32" transform="translate(251.554276 0) scale(0.996264)"/>
     </g>
    </g>
    <g id="line2d_69">
     <path d="M 59.9219 115.260142 
L 73.9219 115.260142 
L 87.9219 115.260142 
" style="fill: none; stroke-dasharray: 9.25,4; stroke-dashoffset: 0; stroke: #008000; stroke-width: 2.5"/>
    </g>
    <g id="text_14">
     <!-- $\propto k^{-1.60}$ -->
     <g transform="translate(99.1219 120.160142) scale(0.14 -0.14)">
      <use xlink:href="#CMSY10-2f" transform="scale(0.996264)"/>
      <use xlink:href="#CMMI12-6b" transform="translate(105.161476 0) scale(0.996264)"/>
      <use xlink:href="#CMSY10-0" transform="translate(159.240677 36.153639) scale(0.697382)"/>
      <use xlink:href="#CMR17-31" transform="translate(213.48167 36.153639) scale(0.697382)"/>
      <use xlink:href="#CMMI12-3a" transform="translate(245.464852 36.153639) scale(0.697382)"/>
      <use xlink:href="#CMR17-36" transform="translate(264.432785 36.153639) scale(0.697382)"/>
      <use xlink:href="#CMR17-30" transform="translate(296.415967 36.153639) scale(0.697382)"/>
     </g>
    </g>
    <g id="line2d_70">
     <path d="M 59.9219 134.77217 
L 73.9219 134.77217 
L 87.9219 134.77217 
" style="fill: none; stroke: #ffa500; stroke-width: 1.5; stroke-linecap: square"/>
    </g>
    <g id="text_15">
     <!-- $\eta=0.4$ -->
     <g transform="translate(99.1219 139.67217) scale(0.14 -0.14)">
      <use xlink:href="#CMMI12-11" transform="scale(0.996264)"/>
      <use xlink:href="#CMR17-3d" transform="translate(79.377824 0) scale(0.996264)"/>
      <use xlink:href="#CMR17-30" transform="translate(178.766622 0) scale(0.996264)"/>
      <use xlink:href="#CMMI12-3a" transform="translate(224.457099 0) scale(0.996264)"/>
      <use xlink:href="#CMR17-34" transform="translate(251.554276 0) scale(0.996264)"/>
     </g>
    </g>
    <g id="line2d_71">
     <path d="M 59.9219 154.284199 
L 73.9219 154.284199 
L 87.9219 154.284199 
" style="fill: none; stroke-dasharray: 9.25,4; stroke-dashoffset: 0; stroke: #ffa500; stroke-width: 2.5"/>
    </g>
    <g id="text_16">
     <!-- $\propto k^{-1.56}$ -->
     <g transform="translate(99.1219 159.184199) scale(0.14 -0.14)">
      <defs>
       <path id="CMR17-35" d="M 730 3692 
C 794 3666 1056 3584 1325 3584 
C 1920 3584 2246 3911 2432 4100 
C 2432 4157 2432 4192 2394 4192 
C 2387 4192 2374 4192 2323 4163 
C 2099 4058 1837 3973 1517 3973 
C 1325 3973 1037 3999 723 4139 
C 653 4171 640 4171 634 4171 
C 602 4171 595 4164 595 4037 
L 595 2203 
C 595 2089 595 2057 659 2057 
C 691 2057 704 2070 736 2114 
C 941 2401 1222 2522 1542 2522 
C 1766 2522 2246 2382 2246 1289 
C 2246 1085 2246 715 2054 421 
C 1894 159 1645 25 1370 25 
C 947 25 518 320 403 814 
C 429 807 480 795 506 795 
C 589 795 749 840 749 1038 
C 749 1210 627 1280 506 1280 
C 358 1280 262 1190 262 1011 
C 262 454 704 -128 1382 -128 
C 2042 -128 2669 440 2669 1264 
C 2669 2030 2170 2624 1549 2624 
C 1222 2624 947 2503 730 2274 
L 730 3692 
z
" transform="scale(0.015625)"/>
      </defs>
      <use xlink:href="#CMSY10-2f" transform="scale(0.996264)"/>
      <use xlink:href="#CMMI12-6b" transform="translate(105.161476 0) scale(0.996264)"/>
      <use xlink:href="#CMSY10-0" transform="translate(159.240677 36.153639) scale(0.697382)"/>
      <use xlink:href="#CMR17-31" transform="translate(213.48167 36.153639) scale(0.697382)"/>
      <use xlink:href="#CMMI12-3a" transform="translate(245.464852 36.153639) scale(0.697382)"/>
      <use xlink:href="#CMR17-35" transform="translate(264.432785 36.153639) scale(0.697382)"/>
      <use xlink:href="#CMR17-36" transform="translate(296.415967 36.153639) scale(0.697382)"/>
     </g>
    </g>
    <g id="line2d_72">
     <path d="M 59.9219 173.796227 
L 73.9219 173.796227 
L 87.9219 173.796227 
" style="fill: none; stroke: #800080; stroke-width: 1.5; stroke-linecap: square"/>
    </g>
    <g id="text_17">
     <!-- $\eta=1.0$ -->
     <g transform="translate(99.1219 178.696227) scale(0.14 -0.14)">
      <use xlink:href="#CMMI12-11" transform="scale(0.996264)"/>
      <use xlink:href="#CMR17-3d" transform="translate(79.377824 0) scale(0.996264)"/>
      <use xlink:href="#CMR17-31" transform="translate(178.766622 0) scale(0.996264)"/>
      <use xlink:href="#CMMI12-3a" transform="translate(224.457099 0) scale(0.996264)"/>
      <use xlink:href="#CMR17-30" transform="translate(251.554276 0) scale(0.996264)"/>
     </g>
    </g>
    <g id="line2d_73">
     <path d="M 59.9219 193.308255 
L 73.9219 193.308255 
L 87.9219 193.308255 
" style="fill: none; stroke-dasharray: 9.25,4; stroke-dashoffset: 0; stroke: #800080; stroke-width: 2.5"/>
    </g>
    <g id="text_18">
     <!-- $\propto k^{-1.42}$ -->
     <g transform="translate(99.1219 198.208255) scale(0.14 -0.14)">
      <use xlink:href="#CMSY10-2f" transform="scale(0.996264)"/>
      <use xlink:href="#CMMI12-6b" transform="translate(105.161476 0) scale(0.996264)"/>
      <use xlink:href="#CMSY10-0" transform="translate(159.240677 36.153639) scale(0.697382)"/>
      <use xlink:href="#CMR17-31" transform="translate(213.48167 36.153639) scale(0.697382)"/>
      <use xlink:href="#CMMI12-3a" transform="translate(245.464852 36.153639) scale(0.697382)"/>
      <use xlink:href="#CMR17-34" transform="translate(264.432785 36.153639) scale(0.697382)"/>
      <use xlink:href="#CMR17-32" transform="translate(296.415967 36.153639) scale(0.697382)"/>
     </g>
    </g>
    <g id="line2d_74">
     <path d="M 59.9219 212.820284 
L 73.9219 212.820284 
L 87.9219 212.820284 
" style="fill: none; stroke-dasharray: 11.1,4.8; stroke-dashoffset: 0; stroke: #000000; stroke-width: 3"/>
    </g>
    <g id="text_19">
     <!-- $k^{-11/3}$ -->
     <g transform="translate(99.1219 217.720284) scale(0.14 -0.14)">
      <defs>
       <path id="CMMI12-3d" d="M 2746 4562 
C 2746 4569 2784 4666 2784 4678 
C 2784 4755 2720 4800 2669 4800 
C 2637 4800 2579 4800 2528 4659 
L 384 -1363 
C 384 -1370 346 -1465 346 -1478 
C 346 -1555 410 -1600 461 -1600 
C 499 -1600 557 -1593 602 -1459 
L 2746 4562 
z
" transform="scale(0.015625)"/>
      </defs>
      <use xlink:href="#CMMI12-6b" transform="scale(0.996264)"/>
      <use xlink:href="#CMSY10-0" transform="translate(54.079201 36.153639) scale(0.697382)"/>
      <use xlink:href="#CMR17-31" transform="translate(108.320194 36.153639) scale(0.697382)"/>
      <use xlink:href="#CMR17-31" transform="translate(140.303376 36.153639) scale(0.697382)"/>
      <use xlink:href="#CMMI12-3d" transform="translate(172.286558 36.153639) scale(0.697382)"/>
      <use xlink:href="#CMR17-33" transform="translate(206.428849 36.153639) scale(0.697382)"/>
     </g>
    </g>
   </g>
  </g>
 </g>
 <defs>
  <clipPath id="p5a9087029f">
   <rect x="47.3219" y="11.640434" width="433.6381" height="221.391878"/>
  </clipPath>
 </defs>
</svg>
