<?xml version="1.0" encoding="utf-8" standalone="no"?>
<!DOCTYPE svg PUBLIC "-//W3C//DTD SVG 1.1//EN"
  "http://www.w3.org/Graphics/SVG/1.1/DTD/svg11.dtd">
<svg xmlns:xlink="http://www.w3.org/1999/xlink" width="483.84pt" height="375.84pt" viewBox="0 0 483.84 375.84" xmlns="http://www.w3.org/2000/svg" version="1.1">
 <metadata>
  <rdf:RDF xmlns:dc="http://purl.org/dc/elements/1.1/" xmlns:cc="http://creativecommons.org/ns#" xmlns:rdf="http://www.w3.org/1999/02/22-rdf-syntax-ns#">
   <cc:Work>
    <dc:type rdf:resource="http://purl.org/dc/dcmitype/StillImage"/>
    <dc:date>2026-02-17T17:45:34.599829</dc:date>
    <dc:format>image/svg+xml</dc:format>
    <dc:creator>
     <cc:Agent>
      <dc:title>Matplotlib v3.8.4, https://matplotlib.org/</dc:title>
     </cc:Agent>
    </dc:creator>
   </cc:Work>
  </rdf:RDF>
 </metadata>
 <defs>
  <style type="text/css">*{stroke-linejoin: round; stroke-linecap: butt}</style>
 </defs>
 <g id="figure_1">
  <g id="patch_1">
   <path d="M 0 375.84 
L 483.84 375.84 
L 483.84 0 
L 0 0 
z
" style="fill: #ffffff"/>
  </g>
  <g id="axes_1">
   <g id="patch_2">
    <path d="M 70.498341 323.029571 
L 476.64 323.029571 
L 476.64 7.2 
L 70.498341 7.2 
z
" style="fill: #ffffff"/>
   </g>
   <g id="matplotlib.axis_1">
    <g id="xtick_1">
     <g id="line2d_1">
      <path d="M 222.413601 323.029571 
L 222.413601 7.2 
" clip-path="url(#p287485ca35)" style="fill: none; stroke-dasharray: 2.96,1.28; stroke-dashoffset: 0; stroke: #b0b0b0; stroke-opacity: 0.25; stroke-width: 0.8"/>
     </g>
     <g id="line2d_2">
      <defs>
       <path id="md278de9be5" d="M 0 0 
L 0 8 
" style="stroke: #000000; stroke-width: 1.5"/>
      </defs>
      <g>
       <use xlink:href="#md278de9be5" x="222.413601" y="323.029571" style="stroke: #000000; stroke-width: 1.5"/>
      </g>
     </g>
     <g id="text_1">
      <!-- $\mathdefault{10^{2}}$ -->
      <g transform="translate(211.820079 345.599159) scale(0.16 -0.16)">
       <defs>
        <path id="CMR17-31" d="M 1702 4058 
C 1702 4192 1696 4192 1606 4192 
C 1357 3916 979 3827 621 3827 
C 602 3827 570 3827 563 3808 
C 557 3795 557 3782 557 3648 
C 755 3648 1088 3686 1344 3839 
L 1344 461 
C 1344 236 1331 160 781 160 
L 589 160 
L 589 0 
C 896 0 1216 0 1523 0 
C 1830 0 2150 0 2458 0 
L 2458 160 
L 2266 160 
C 1715 160 1702 230 1702 458 
L 1702 4058 
z
" transform="scale(0.015625)"/>
        <path id="CMR17-30" d="M 2688 2025 
C 2688 2416 2682 3080 2413 3591 
C 2176 4039 1798 4198 1466 4198 
C 1158 4198 768 4058 525 3597 
C 269 3118 243 2524 243 2025 
C 243 1661 250 1106 448 619 
C 723 -39 1216 -128 1466 -128 
C 1760 -128 2208 -7 2470 600 
C 2662 1042 2688 1559 2688 2025 
z
M 1466 -26 
C 1056 -26 813 325 723 812 
C 653 1188 653 1738 653 2096 
C 653 2588 653 2997 736 3387 
C 858 3929 1216 4096 1466 4096 
C 1728 4096 2067 3923 2189 3400 
C 2272 3036 2278 2607 2278 2096 
C 2278 1680 2278 1169 2202 792 
C 2067 95 1690 -26 1466 -26 
z
" transform="scale(0.015625)"/>
        <path id="CMR17-32" d="M 2669 989 
L 2554 989 
C 2490 536 2438 459 2413 420 
C 2381 369 1920 369 1830 369 
L 602 369 
C 832 619 1280 1072 1824 1597 
C 2214 1967 2669 2402 2669 3035 
C 2669 3790 2067 4224 1395 4224 
C 691 4224 262 3604 262 3030 
C 262 2780 448 2748 525 2748 
C 589 2748 781 2787 781 3010 
C 781 3207 614 3264 525 3264 
C 486 3264 448 3258 422 3245 
C 544 3790 915 4058 1306 4058 
C 1862 4058 2227 3617 2227 3035 
C 2227 2479 1901 2000 1536 1584 
L 262 146 
L 262 0 
L 2515 0 
L 2669 989 
z
" transform="scale(0.015625)"/>
       </defs>
       <use xlink:href="#CMR17-31" transform="scale(0.996264)"/>
       <use xlink:href="#CMR17-30" transform="translate(45.690477 0) scale(0.996264)"/>
       <use xlink:href="#CMR17-32" transform="translate(91.380954 36.153639) scale(0.697382)"/>
      </g>
     </g>
    </g>
    <g id="xtick_2">
     <g id="line2d_3">
      <path d="M 391.060274 323.029571 
L 391.060274 7.2 
" clip-path="url(#p287485ca35)" style="fill: none; stroke-dasharray: 2.96,1.28; stroke-dashoffset: 0; stroke: #b0b0b0; stroke-opacity: 0.25; stroke-width: 0.8"/>
     </g>
     <g id="line2d_4">
      <g>
       <use xlink:href="#md278de9be5" x="391.060274" y="323.029571" style="stroke: #000000; stroke-width: 1.5"/>
      </g>
     </g>
     <g id="text_2">
      <!-- $\mathdefault{10^{3}}$ -->
      <g transform="translate(380.466753 345.599159) scale(0.16 -0.16)">
       <defs>
        <path id="CMR17-33" d="M 1414 2157 
C 1984 2157 2234 1662 2234 1090 
C 2234 320 1824 25 1453 25 
C 1114 25 563 194 390 693 
C 422 680 454 680 486 680 
C 640 680 755 782 755 948 
C 755 1133 614 1216 486 1216 
C 378 1216 211 1165 211 926 
C 211 335 787 -128 1466 -128 
C 2176 -128 2720 430 2720 1085 
C 2720 1707 2208 2157 1600 2227 
C 2086 2328 2554 2756 2554 3329 
C 2554 3820 2048 4179 1472 4179 
C 890 4179 378 3829 378 3329 
C 378 3110 544 3072 627 3072 
C 762 3072 877 3155 877 3321 
C 877 3486 762 3569 627 3569 
C 602 3569 570 3569 544 3557 
C 730 3959 1235 4032 1459 4032 
C 1683 4032 2106 3925 2106 3320 
C 2106 3143 2080 2828 1862 2550 
C 1670 2304 1453 2304 1242 2284 
C 1210 2284 1062 2269 1037 2269 
C 992 2263 966 2257 966 2208 
C 966 2163 973 2157 1101 2157 
L 1414 2157 
z
" transform="scale(0.015625)"/>
       </defs>
       <use xlink:href="#CMR17-31" transform="scale(0.996264)"/>
       <use xlink:href="#CMR17-30" transform="translate(45.690477 0) scale(0.996264)"/>
       <use xlink:href="#CMR17-33" transform="translate(91.380954 36.153639) scale(0.697382)"/>
      </g>
     </g>
    </g>
    <g id="xtick_3">
     <g id="line2d_5">
      <path d="M 104.534635 323.029571 
L 104.534635 7.2 
" clip-path="url(#p287485ca35)" style="fill: none; stroke-dasharray: 2.96,1.28; stroke-dashoffset: 0; stroke: #b0b0b0; stroke-opacity: 0.25; stroke-width: 0.8"/>
     </g>
     <g id="line2d_6">
      <defs>
       <path id="m093b027874" d="M 0 0 
L 0 4 
" style="stroke: #000000"/>
      </defs>
      <g>
       <use xlink:href="#m093b027874" x="104.534635" y="323.029571" style="stroke: #000000"/>
      </g>
     </g>
    </g>
    <g id="xtick_4">
     <g id="line2d_7">
      <path d="M 134.23184 323.029571 
L 134.23184 7.2 
" clip-path="url(#p287485ca35)" style="fill: none; stroke-dasharray: 2.96,1.28; stroke-dashoffset: 0; stroke: #b0b0b0; stroke-opacity: 0.25; stroke-width: 0.8"/>
     </g>
     <g id="line2d_8">
      <g>
       <use xlink:href="#m093b027874" x="134.23184" y="323.029571" style="stroke: #000000"/>
      </g>
     </g>
    </g>
    <g id="xtick_5">
     <g id="line2d_9">
      <path d="M 155.302342 323.029571 
L 155.302342 7.2 
" clip-path="url(#p287485ca35)" style="fill: none; stroke-dasharray: 2.96,1.28; stroke-dashoffset: 0; stroke: #b0b0b0; stroke-opacity: 0.25; stroke-width: 0.8"/>
     </g>
     <g id="line2d_10">
      <g>
       <use xlink:href="#m093b027874" x="155.302342" y="323.029571" style="stroke: #000000"/>
      </g>
     </g>
    </g>
    <g id="xtick_6">
     <g id="line2d_11">
      <path d="M 171.645894 323.029571 
L 171.645894 7.2 
" clip-path="url(#p287485ca35)" style="fill: none; stroke-dasharray: 2.96,1.28; stroke-dashoffset: 0; stroke: #b0b0b0; stroke-opacity: 0.25; stroke-width: 0.8"/>
     </g>
     <g id="line2d_12">
      <g>
       <use xlink:href="#m093b027874" x="171.645894" y="323.029571" style="stroke: #000000"/>
      </g>
     </g>
    </g>
    <g id="xtick_7">
     <g id="line2d_13">
      <path d="M 184.999547 323.029571 
L 184.999547 7.2 
" clip-path="url(#p287485ca35)" style="fill: none; stroke-dasharray: 2.96,1.28; stroke-dashoffset: 0; stroke: #b0b0b0; stroke-opacity: 0.25; stroke-width: 0.8"/>
     </g>
     <g id="line2d_14">
      <g>
       <use xlink:href="#m093b027874" x="184.999547" y="323.029571" style="stroke: #000000"/>
      </g>
     </g>
    </g>
    <g id="xtick_8">
     <g id="line2d_15">
      <path d="M 196.289901 323.029571 
L 196.289901 7.2 
" clip-path="url(#p287485ca35)" style="fill: none; stroke-dasharray: 2.96,1.28; stroke-dashoffset: 0; stroke: #b0b0b0; stroke-opacity: 0.25; stroke-width: 0.8"/>
     </g>
     <g id="line2d_16">
      <g>
       <use xlink:href="#m093b027874" x="196.289901" y="323.029571" style="stroke: #000000"/>
      </g>
     </g>
    </g>
    <g id="xtick_9">
     <g id="line2d_17">
      <path d="M 206.07005 323.029571 
L 206.07005 7.2 
" clip-path="url(#p287485ca35)" style="fill: none; stroke-dasharray: 2.96,1.28; stroke-dashoffset: 0; stroke: #b0b0b0; stroke-opacity: 0.25; stroke-width: 0.8"/>
     </g>
     <g id="line2d_18">
      <g>
       <use xlink:href="#m093b027874" x="206.07005" y="323.029571" style="stroke: #000000"/>
      </g>
     </g>
    </g>
    <g id="xtick_10">
     <g id="line2d_19">
      <path d="M 214.696752 323.029571 
L 214.696752 7.2 
" clip-path="url(#p287485ca35)" style="fill: none; stroke-dasharray: 2.96,1.28; stroke-dashoffset: 0; stroke: #b0b0b0; stroke-opacity: 0.25; stroke-width: 0.8"/>
     </g>
     <g id="line2d_20">
      <g>
       <use xlink:href="#m093b027874" x="214.696752" y="323.029571" style="stroke: #000000"/>
      </g>
     </g>
    </g>
    <g id="xtick_11">
     <g id="line2d_21">
      <path d="M 273.181308 323.029571 
L 273.181308 7.2 
" clip-path="url(#p287485ca35)" style="fill: none; stroke-dasharray: 2.96,1.28; stroke-dashoffset: 0; stroke: #b0b0b0; stroke-opacity: 0.25; stroke-width: 0.8"/>
     </g>
     <g id="line2d_22">
      <g>
       <use xlink:href="#m093b027874" x="273.181308" y="323.029571" style="stroke: #000000"/>
      </g>
     </g>
    </g>
    <g id="xtick_12">
     <g id="line2d_23">
      <path d="M 302.878513 323.029571 
L 302.878513 7.2 
" clip-path="url(#p287485ca35)" style="fill: none; stroke-dasharray: 2.96,1.28; stroke-dashoffset: 0; stroke: #b0b0b0; stroke-opacity: 0.25; stroke-width: 0.8"/>
     </g>
     <g id="line2d_24">
      <g>
       <use xlink:href="#m093b027874" x="302.878513" y="323.029571" style="stroke: #000000"/>
      </g>
     </g>
    </g>
    <g id="xtick_13">
     <g id="line2d_25">
      <path d="M 323.949016 323.029571 
L 323.949016 7.2 
" clip-path="url(#p287485ca35)" style="fill: none; stroke-dasharray: 2.96,1.28; stroke-dashoffset: 0; stroke: #b0b0b0; stroke-opacity: 0.25; stroke-width: 0.8"/>
     </g>
     <g id="line2d_26">
      <g>
       <use xlink:href="#m093b027874" x="323.949016" y="323.029571" style="stroke: #000000"/>
      </g>
     </g>
    </g>
    <g id="xtick_14">
     <g id="line2d_27">
      <path d="M 340.292567 323.029571 
L 340.292567 7.2 
" clip-path="url(#p287485ca35)" style="fill: none; stroke-dasharray: 2.96,1.28; stroke-dashoffset: 0; stroke: #b0b0b0; stroke-opacity: 0.25; stroke-width: 0.8"/>
     </g>
     <g id="line2d_28">
      <g>
       <use xlink:href="#m093b027874" x="340.292567" y="323.029571" style="stroke: #000000"/>
      </g>
     </g>
    </g>
    <g id="xtick_15">
     <g id="line2d_29">
      <path d="M 353.646221 323.029571 
L 353.646221 7.2 
" clip-path="url(#p287485ca35)" style="fill: none; stroke-dasharray: 2.96,1.28; stroke-dashoffset: 0; stroke: #b0b0b0; stroke-opacity: 0.25; stroke-width: 0.8"/>
     </g>
     <g id="line2d_30">
      <g>
       <use xlink:href="#m093b027874" x="353.646221" y="323.029571" style="stroke: #000000"/>
      </g>
     </g>
    </g>
    <g id="xtick_16">
     <g id="line2d_31">
      <path d="M 364.936574 323.029571 
L 364.936574 7.2 
" clip-path="url(#p287485ca35)" style="fill: none; stroke-dasharray: 2.96,1.28; stroke-dashoffset: 0; stroke: #b0b0b0; stroke-opacity: 0.25; stroke-width: 0.8"/>
     </g>
     <g id="line2d_32">
      <g>
       <use xlink:href="#m093b027874" x="364.936574" y="323.029571" style="stroke: #000000"/>
      </g>
     </g>
    </g>
    <g id="xtick_17">
     <g id="line2d_33">
      <path d="M 374.716723 323.029571 
L 374.716723 7.2 
" clip-path="url(#p287485ca35)" style="fill: none; stroke-dasharray: 2.96,1.28; stroke-dashoffset: 0; stroke: #b0b0b0; stroke-opacity: 0.25; stroke-width: 0.8"/>
     </g>
     <g id="line2d_34">
      <g>
       <use xlink:href="#m093b027874" x="374.716723" y="323.029571" style="stroke: #000000"/>
      </g>
     </g>
    </g>
    <g id="xtick_18">
     <g id="line2d_35">
      <path d="M 383.343426 323.029571 
L 383.343426 7.2 
" clip-path="url(#p287485ca35)" style="fill: none; stroke-dasharray: 2.96,1.28; stroke-dashoffset: 0; stroke: #b0b0b0; stroke-opacity: 0.25; stroke-width: 0.8"/>
     </g>
     <g id="line2d_36">
      <g>
       <use xlink:href="#m093b027874" x="383.343426" y="323.029571" style="stroke: #000000"/>
      </g>
     </g>
    </g>
    <g id="xtick_19">
     <g id="line2d_37">
      <path d="M 441.827982 323.029571 
L 441.827982 7.2 
" clip-path="url(#p287485ca35)" style="fill: none; stroke-dasharray: 2.96,1.28; stroke-dashoffset: 0; stroke: #b0b0b0; stroke-opacity: 0.25; stroke-width: 0.8"/>
     </g>
     <g id="line2d_38">
      <g>
       <use xlink:href="#m093b027874" x="441.827982" y="323.029571" style="stroke: #000000"/>
      </g>
     </g>
    </g>
    <g id="xtick_20">
     <g id="line2d_39">
      <path d="M 471.525187 323.029571 
L 471.525187 7.2 
" clip-path="url(#p287485ca35)" style="fill: none; stroke-dasharray: 2.96,1.28; stroke-dashoffset: 0; stroke: #b0b0b0; stroke-opacity: 0.25; stroke-width: 0.8"/>
     </g>
     <g id="line2d_40">
      <g>
       <use xlink:href="#m093b027874" x="471.525187" y="323.029571" style="stroke: #000000"/>
      </g>
     </g>
    </g>
    <g id="text_3">
     <!-- $k$ -->
     <g transform="translate(269.003004 365.151936) scale(0.18 -0.18)">
      <defs>
       <path id="CMMI12-6b" d="M 1798 4257 
C 1805 4283 1818 4321 1818 4352 
C 1818 4416 1754 4416 1741 4416 
C 1734 4416 1504 4393 1389 4377 
C 1280 4377 1184 4358 1069 4358 
C 915 4345 870 4339 870 4224 
C 870 4160 934 4160 998 4160 
C 1325 4160 1325 4103 1325 4040 
C 1325 4015 1325 4002 1293 3888 
L 378 248 
C 352 152 352 140 352 101 
C 352 -38 461 -64 525 -64 
C 704 -64 742 77 794 275 
L 1094 1469 
C 1555 1418 1830 1226 1830 920 
C 1830 881 1830 856 1811 760 
C 1786 664 1786 588 1786 556 
C 1786 185 2029 -64 2355 -64 
C 2650 -64 2803 204 2854 294 
C 2989 530 3072 888 3072 913 
C 3072 945 3046 971 3008 971 
C 2950 971 2944 945 2918 843 
C 2829 511 2694 64 2368 64 
C 2240 64 2157 128 2157 370 
C 2157 492 2182 632 2208 728 
C 2234 843 2234 849 2234 926 
C 2234 1303 1894 1514 1306 1590 
C 1536 1731 1766 1980 1856 2076 
C 2221 2484 2470 2689 2765 2689 
C 2912 2689 2950 2650 2995 2612 
C 2758 2586 2669 2420 2669 2293 
C 2669 2139 2790 2088 2880 2088 
C 3053 2088 3206 2235 3206 2440 
C 3206 2625 3059 2816 2771 2816 
C 2419 2816 2131 2567 1677 2056 
C 1613 1980 1376 1737 1139 1648 
L 1798 4257 
z
" transform="scale(0.015625)"/>
      </defs>
      <use xlink:href="#CMMI12-6b" transform="scale(0.996264)"/>
     </g>
    </g>
   </g>
   <g id="matplotlib.axis_2">
    <g id="ytick_1">
     <g id="line2d_41">
      <path d="M 70.498341 302.908698 
L 476.64 302.908698 
" clip-path="url(#p287485ca35)" style="fill: none; stroke-dasharray: 2.96,1.28; stroke-dashoffset: 0; stroke: #b0b0b0; stroke-opacity: 0.25; stroke-width: 0.8"/>
     </g>
     <g id="line2d_42">
      <defs>
       <path id="m8c9d5b64d2" d="M 0 0 
L -8 0 
" style="stroke: #000000; stroke-width: 1.5"/>
      </defs>
      <g>
       <use xlink:href="#m8c9d5b64d2" x="70.498341" y="302.908698" style="stroke: #000000; stroke-width: 1.5"/>
      </g>
     </g>
     <g id="text_4">
      <!-- $\mathdefault{10^{-4}}$ -->
      <g transform="translate(29.132752 308.443492) scale(0.16 -0.16)">
       <defs>
        <path id="CMSY10-0" d="M 4218 1472 
C 4326 1472 4442 1472 4442 1600 
C 4442 1728 4326 1728 4218 1728 
L 755 1728 
C 646 1728 531 1728 531 1600 
C 531 1472 646 1472 755 1472 
L 4218 1472 
z
" transform="scale(0.015625)"/>
        <path id="CMR17-34" d="M 2150 4122 
C 2150 4256 2144 4256 2029 4256 
L 128 1254 
L 128 1088 
L 1779 1088 
L 1779 457 
C 1779 224 1766 160 1318 160 
L 1197 160 
L 1197 0 
C 1402 0 1747 0 1965 0 
C 2182 0 2528 0 2733 0 
L 2733 160 
L 2611 160 
C 2163 160 2150 224 2150 457 
L 2150 1088 
L 2803 1088 
L 2803 1254 
L 2150 1254 
L 2150 4122 
z
M 1798 3703 
L 1798 1254 
L 256 1254 
L 1798 3703 
z
" transform="scale(0.015625)"/>
       </defs>
       <use xlink:href="#CMR17-31" transform="scale(0.996264)"/>
       <use xlink:href="#CMR17-30" transform="translate(45.690477 0) scale(0.996264)"/>
       <use xlink:href="#CMSY10-0" transform="translate(91.380954 36.153639) scale(0.697382)"/>
       <use xlink:href="#CMR17-34" transform="translate(145.621947 36.153639) scale(0.697382)"/>
      </g>
     </g>
    </g>
    <g id="ytick_2">
     <g id="line2d_43">
      <path d="M 70.498341 218.34887 
L 476.64 218.34887 
" clip-path="url(#p287485ca35)" style="fill: none; stroke-dasharray: 2.96,1.28; stroke-dashoffset: 0; stroke: #b0b0b0; stroke-opacity: 0.25; stroke-width: 0.8"/>
     </g>
     <g id="line2d_44">
      <g>
       <use xlink:href="#m8c9d5b64d2" x="70.498341" y="218.34887" style="stroke: #000000; stroke-width: 1.5"/>
      </g>
     </g>
     <g id="text_5">
      <!-- $\mathdefault{10^{-3}}$ -->
      <g transform="translate(29.132752 223.883665) scale(0.16 -0.16)">
       <use xlink:href="#CMR17-31" transform="scale(0.996264)"/>
       <use xlink:href="#CMR17-30" transform="translate(45.690477 0) scale(0.996264)"/>
       <use xlink:href="#CMSY10-0" transform="translate(91.380954 36.153639) scale(0.697382)"/>
       <use xlink:href="#CMR17-33" transform="translate(145.621947 36.153639) scale(0.697382)"/>
      </g>
     </g>
    </g>
    <g id="ytick_3">
     <g id="line2d_45">
      <path d="M 70.498341 133.789043 
L 476.64 133.789043 
" clip-path="url(#p287485ca35)" style="fill: none; stroke-dasharray: 2.96,1.28; stroke-dashoffset: 0; stroke: #b0b0b0; stroke-opacity: 0.25; stroke-width: 0.8"/>
     </g>
     <g id="line2d_46">
      <g>
       <use xlink:href="#m8c9d5b64d2" x="70.498341" y="133.789043" style="stroke: #000000; stroke-width: 1.5"/>
      </g>
     </g>
     <g id="text_6">
      <!-- $\mathdefault{10^{-2}}$ -->
      <g transform="translate(29.132752 139.323837) scale(0.16 -0.16)">
       <use xlink:href="#CMR17-31" transform="scale(0.996264)"/>
       <use xlink:href="#CMR17-30" transform="translate(45.690477 0) scale(0.996264)"/>
       <use xlink:href="#CMSY10-0" transform="translate(91.380954 36.153639) scale(0.697382)"/>
       <use xlink:href="#CMR17-32" transform="translate(145.621947 36.153639) scale(0.697382)"/>
      </g>
     </g>
    </g>
    <g id="ytick_4">
     <g id="line2d_47">
      <path d="M 70.498341 49.229215 
L 476.64 49.229215 
" clip-path="url(#p287485ca35)" style="fill: none; stroke-dasharray: 2.96,1.28; stroke-dashoffset: 0; stroke: #b0b0b0; stroke-opacity: 0.25; stroke-width: 0.8"/>
     </g>
     <g id="line2d_48">
      <g>
       <use xlink:href="#m8c9d5b64d2" x="70.498341" y="49.229215" style="stroke: #000000; stroke-width: 1.5"/>
      </g>
     </g>
     <g id="text_7">
      <!-- $\mathdefault{10^{-1}}$ -->
      <g transform="translate(29.132752 54.764009) scale(0.16 -0.16)">
       <use xlink:href="#CMR17-31" transform="scale(0.996264)"/>
       <use xlink:href="#CMR17-30" transform="translate(45.690477 0) scale(0.996264)"/>
       <use xlink:href="#CMSY10-0" transform="translate(91.380954 36.153639) scale(0.697382)"/>
       <use xlink:href="#CMR17-31" transform="translate(145.621947 36.153639) scale(0.697382)"/>
      </g>
     </g>
    </g>
    <g id="ytick_5">
     <g id="line2d_49">
      <path d="M 70.498341 321.66819 
L 476.64 321.66819 
" clip-path="url(#p287485ca35)" style="fill: none; stroke-dasharray: 2.96,1.28; stroke-dashoffset: 0; stroke: #b0b0b0; stroke-opacity: 0.25; stroke-width: 0.8"/>
     </g>
     <g id="line2d_50">
      <defs>
       <path id="m690b9f4ab9" d="M 0 0 
L -4 0 
" style="stroke: #000000"/>
      </defs>
      <g>
       <use xlink:href="#m690b9f4ab9" x="70.498341" y="321.66819" style="stroke: #000000"/>
      </g>
     </g>
    </g>
    <g id="ytick_6">
     <g id="line2d_51">
      <path d="M 70.498341 316.007181 
L 476.64 316.007181 
" clip-path="url(#p287485ca35)" style="fill: none; stroke-dasharray: 2.96,1.28; stroke-dashoffset: 0; stroke: #b0b0b0; stroke-opacity: 0.25; stroke-width: 0.8"/>
     </g>
     <g id="line2d_52">
      <g>
       <use xlink:href="#m690b9f4ab9" x="70.498341" y="316.007181" style="stroke: #000000"/>
      </g>
     </g>
    </g>
    <g id="ytick_7">
     <g id="line2d_53">
      <path d="M 70.498341 311.103392 
L 476.64 311.103392 
" clip-path="url(#p287485ca35)" style="fill: none; stroke-dasharray: 2.96,1.28; stroke-dashoffset: 0; stroke: #b0b0b0; stroke-opacity: 0.25; stroke-width: 0.8"/>
     </g>
     <g id="line2d_54">
      <g>
       <use xlink:href="#m690b9f4ab9" x="70.498341" y="311.103392" style="stroke: #000000"/>
      </g>
     </g>
    </g>
    <g id="ytick_8">
     <g id="line2d_55">
      <path d="M 70.498341 306.777944 
L 476.64 306.777944 
" clip-path="url(#p287485ca35)" style="fill: none; stroke-dasharray: 2.96,1.28; stroke-dashoffset: 0; stroke: #b0b0b0; stroke-opacity: 0.25; stroke-width: 0.8"/>
     </g>
     <g id="line2d_56">
      <g>
       <use xlink:href="#m690b9f4ab9" x="70.498341" y="306.777944" style="stroke: #000000"/>
      </g>
     </g>
    </g>
    <g id="ytick_9">
     <g id="line2d_57">
      <path d="M 70.498341 277.453653 
L 476.64 277.453653 
" clip-path="url(#p287485ca35)" style="fill: none; stroke-dasharray: 2.96,1.28; stroke-dashoffset: 0; stroke: #b0b0b0; stroke-opacity: 0.25; stroke-width: 0.8"/>
     </g>
     <g id="line2d_58">
      <g>
       <use xlink:href="#m690b9f4ab9" x="70.498341" y="277.453653" style="stroke: #000000"/>
      </g>
     </g>
    </g>
    <g id="ytick_10">
     <g id="line2d_59">
      <path d="M 70.498341 262.563407 
L 476.64 262.563407 
" clip-path="url(#p287485ca35)" style="fill: none; stroke-dasharray: 2.96,1.28; stroke-dashoffset: 0; stroke: #b0b0b0; stroke-opacity: 0.25; stroke-width: 0.8"/>
     </g>
     <g id="line2d_60">
      <g>
       <use xlink:href="#m690b9f4ab9" x="70.498341" y="262.563407" style="stroke: #000000"/>
      </g>
     </g>
    </g>
    <g id="ytick_11">
     <g id="line2d_61">
      <path d="M 70.498341 251.998609 
L 476.64 251.998609 
" clip-path="url(#p287485ca35)" style="fill: none; stroke-dasharray: 2.96,1.28; stroke-dashoffset: 0; stroke: #b0b0b0; stroke-opacity: 0.25; stroke-width: 0.8"/>
     </g>
     <g id="line2d_62">
      <g>
       <use xlink:href="#m690b9f4ab9" x="70.498341" y="251.998609" style="stroke: #000000"/>
      </g>
     </g>
    </g>
    <g id="ytick_12">
     <g id="line2d_63">
      <path d="M 70.498341 243.803915 
L 476.64 243.803915 
" clip-path="url(#p287485ca35)" style="fill: none; stroke-dasharray: 2.96,1.28; stroke-dashoffset: 0; stroke: #b0b0b0; stroke-opacity: 0.25; stroke-width: 0.8"/>
     </g>
     <g id="line2d_64">
      <g>
       <use xlink:href="#m690b9f4ab9" x="70.498341" y="243.803915" style="stroke: #000000"/>
      </g>
     </g>
    </g>
    <g id="ytick_13">
     <g id="line2d_65">
      <path d="M 70.498341 237.108362 
L 476.64 237.108362 
" clip-path="url(#p287485ca35)" style="fill: none; stroke-dasharray: 2.96,1.28; stroke-dashoffset: 0; stroke: #b0b0b0; stroke-opacity: 0.25; stroke-width: 0.8"/>
     </g>
     <g id="line2d_66">
      <g>
       <use xlink:href="#m690b9f4ab9" x="70.498341" y="237.108362" style="stroke: #000000"/>
      </g>
     </g>
    </g>
    <g id="ytick_14">
     <g id="line2d_67">
      <path d="M 70.498341 231.447353 
L 476.64 231.447353 
" clip-path="url(#p287485ca35)" style="fill: none; stroke-dasharray: 2.96,1.28; stroke-dashoffset: 0; stroke: #b0b0b0; stroke-opacity: 0.25; stroke-width: 0.8"/>
     </g>
     <g id="line2d_68">
      <g>
       <use xlink:href="#m690b9f4ab9" x="70.498341" y="231.447353" style="stroke: #000000"/>
      </g>
     </g>
    </g>
    <g id="ytick_15">
     <g id="line2d_69">
      <path d="M 70.498341 226.543564 
L 476.64 226.543564 
" clip-path="url(#p287485ca35)" style="fill: none; stroke-dasharray: 2.96,1.28; stroke-dashoffset: 0; stroke: #b0b0b0; stroke-opacity: 0.25; stroke-width: 0.8"/>
     </g>
     <g id="line2d_70">
      <g>
       <use xlink:href="#m690b9f4ab9" x="70.498341" y="226.543564" style="stroke: #000000"/>
      </g>
     </g>
    </g>
    <g id="ytick_16">
     <g id="line2d_71">
      <path d="M 70.498341 222.218116 
L 476.64 222.218116 
" clip-path="url(#p287485ca35)" style="fill: none; stroke-dasharray: 2.96,1.28; stroke-dashoffset: 0; stroke: #b0b0b0; stroke-opacity: 0.25; stroke-width: 0.8"/>
     </g>
     <g id="line2d_72">
      <g>
       <use xlink:href="#m690b9f4ab9" x="70.498341" y="222.218116" style="stroke: #000000"/>
      </g>
     </g>
    </g>
    <g id="ytick_17">
     <g id="line2d_73">
      <path d="M 70.498341 192.893826 
L 476.64 192.893826 
" clip-path="url(#p287485ca35)" style="fill: none; stroke-dasharray: 2.96,1.28; stroke-dashoffset: 0; stroke: #b0b0b0; stroke-opacity: 0.25; stroke-width: 0.8"/>
     </g>
     <g id="line2d_74">
      <g>
       <use xlink:href="#m690b9f4ab9" x="70.498341" y="192.893826" style="stroke: #000000"/>
      </g>
     </g>
    </g>
    <g id="ytick_18">
     <g id="line2d_75">
      <path d="M 70.498341 178.003579 
L 476.64 178.003579 
" clip-path="url(#p287485ca35)" style="fill: none; stroke-dasharray: 2.96,1.28; stroke-dashoffset: 0; stroke: #b0b0b0; stroke-opacity: 0.25; stroke-width: 0.8"/>
     </g>
     <g id="line2d_76">
      <g>
       <use xlink:href="#m690b9f4ab9" x="70.498341" y="178.003579" style="stroke: #000000"/>
      </g>
     </g>
    </g>
    <g id="ytick_19">
     <g id="line2d_77">
      <path d="M 70.498341 167.438781 
L 476.64 167.438781 
" clip-path="url(#p287485ca35)" style="fill: none; stroke-dasharray: 2.96,1.28; stroke-dashoffset: 0; stroke: #b0b0b0; stroke-opacity: 0.25; stroke-width: 0.8"/>
     </g>
     <g id="line2d_78">
      <g>
       <use xlink:href="#m690b9f4ab9" x="70.498341" y="167.438781" style="stroke: #000000"/>
      </g>
     </g>
    </g>
    <g id="ytick_20">
     <g id="line2d_79">
      <path d="M 70.498341 159.244087 
L 476.64 159.244087 
" clip-path="url(#p287485ca35)" style="fill: none; stroke-dasharray: 2.96,1.28; stroke-dashoffset: 0; stroke: #b0b0b0; stroke-opacity: 0.25; stroke-width: 0.8"/>
     </g>
     <g id="line2d_80">
      <g>
       <use xlink:href="#m690b9f4ab9" x="70.498341" y="159.244087" style="stroke: #000000"/>
      </g>
     </g>
    </g>
    <g id="ytick_21">
     <g id="line2d_81">
      <path d="M 70.498341 152.548535 
L 476.64 152.548535 
" clip-path="url(#p287485ca35)" style="fill: none; stroke-dasharray: 2.96,1.28; stroke-dashoffset: 0; stroke: #b0b0b0; stroke-opacity: 0.25; stroke-width: 0.8"/>
     </g>
     <g id="line2d_82">
      <g>
       <use xlink:href="#m690b9f4ab9" x="70.498341" y="152.548535" style="stroke: #000000"/>
      </g>
     </g>
    </g>
    <g id="ytick_22">
     <g id="line2d_83">
      <path d="M 70.498341 146.887526 
L 476.64 146.887526 
" clip-path="url(#p287485ca35)" style="fill: none; stroke-dasharray: 2.96,1.28; stroke-dashoffset: 0; stroke: #b0b0b0; stroke-opacity: 0.25; stroke-width: 0.8"/>
     </g>
     <g id="line2d_84">
      <g>
       <use xlink:href="#m690b9f4ab9" x="70.498341" y="146.887526" style="stroke: #000000"/>
      </g>
     </g>
    </g>
    <g id="ytick_23">
     <g id="line2d_85">
      <path d="M 70.498341 141.983737 
L 476.64 141.983737 
" clip-path="url(#p287485ca35)" style="fill: none; stroke-dasharray: 2.96,1.28; stroke-dashoffset: 0; stroke: #b0b0b0; stroke-opacity: 0.25; stroke-width: 0.8"/>
     </g>
     <g id="line2d_86">
      <g>
       <use xlink:href="#m690b9f4ab9" x="70.498341" y="141.983737" style="stroke: #000000"/>
      </g>
     </g>
    </g>
    <g id="ytick_24">
     <g id="line2d_87">
      <path d="M 70.498341 137.658288 
L 476.64 137.658288 
" clip-path="url(#p287485ca35)" style="fill: none; stroke-dasharray: 2.96,1.28; stroke-dashoffset: 0; stroke: #b0b0b0; stroke-opacity: 0.25; stroke-width: 0.8"/>
     </g>
     <g id="line2d_88">
      <g>
       <use xlink:href="#m690b9f4ab9" x="70.498341" y="137.658288" style="stroke: #000000"/>
      </g>
     </g>
    </g>
    <g id="ytick_25">
     <g id="line2d_89">
      <path d="M 70.498341 108.333998 
L 476.64 108.333998 
" clip-path="url(#p287485ca35)" style="fill: none; stroke-dasharray: 2.96,1.28; stroke-dashoffset: 0; stroke: #b0b0b0; stroke-opacity: 0.25; stroke-width: 0.8"/>
     </g>
     <g id="line2d_90">
      <g>
       <use xlink:href="#m690b9f4ab9" x="70.498341" y="108.333998" style="stroke: #000000"/>
      </g>
     </g>
    </g>
    <g id="ytick_26">
     <g id="line2d_91">
      <path d="M 70.498341 93.443752 
L 476.64 93.443752 
" clip-path="url(#p287485ca35)" style="fill: none; stroke-dasharray: 2.96,1.28; stroke-dashoffset: 0; stroke: #b0b0b0; stroke-opacity: 0.25; stroke-width: 0.8"/>
     </g>
     <g id="line2d_92">
      <g>
       <use xlink:href="#m690b9f4ab9" x="70.498341" y="93.443752" style="stroke: #000000"/>
      </g>
     </g>
    </g>
    <g id="ytick_27">
     <g id="line2d_93">
      <path d="M 70.498341 82.878954 
L 476.64 82.878954 
" clip-path="url(#p287485ca35)" style="fill: none; stroke-dasharray: 2.96,1.28; stroke-dashoffset: 0; stroke: #b0b0b0; stroke-opacity: 0.25; stroke-width: 0.8"/>
     </g>
     <g id="line2d_94">
      <g>
       <use xlink:href="#m690b9f4ab9" x="70.498341" y="82.878954" style="stroke: #000000"/>
      </g>
     </g>
    </g>
    <g id="ytick_28">
     <g id="line2d_95">
      <path d="M 70.498341 74.68426 
L 476.64 74.68426 
" clip-path="url(#p287485ca35)" style="fill: none; stroke-dasharray: 2.96,1.28; stroke-dashoffset: 0; stroke: #b0b0b0; stroke-opacity: 0.25; stroke-width: 0.8"/>
     </g>
     <g id="line2d_96">
      <g>
       <use xlink:href="#m690b9f4ab9" x="70.498341" y="74.68426" style="stroke: #000000"/>
      </g>
     </g>
    </g>
    <g id="ytick_29">
     <g id="line2d_97">
      <path d="M 70.498341 67.988707 
L 476.64 67.988707 
" clip-path="url(#p287485ca35)" style="fill: none; stroke-dasharray: 2.96,1.28; stroke-dashoffset: 0; stroke: #b0b0b0; stroke-opacity: 0.25; stroke-width: 0.8"/>
     </g>
     <g id="line2d_98">
      <g>
       <use xlink:href="#m690b9f4ab9" x="70.498341" y="67.988707" style="stroke: #000000"/>
      </g>
     </g>
    </g>
    <g id="ytick_30">
     <g id="line2d_99">
      <path d="M 70.498341 62.327698 
L 476.64 62.327698 
" clip-path="url(#p287485ca35)" style="fill: none; stroke-dasharray: 2.96,1.28; stroke-dashoffset: 0; stroke: #b0b0b0; stroke-opacity: 0.25; stroke-width: 0.8"/>
     </g>
     <g id="line2d_100">
      <g>
       <use xlink:href="#m690b9f4ab9" x="70.498341" y="62.327698" style="stroke: #000000"/>
      </g>
     </g>
    </g>
    <g id="ytick_31">
     <g id="line2d_101">
      <path d="M 70.498341 57.423909 
L 476.64 57.423909 
" clip-path="url(#p287485ca35)" style="fill: none; stroke-dasharray: 2.96,1.28; stroke-dashoffset: 0; stroke: #b0b0b0; stroke-opacity: 0.25; stroke-width: 0.8"/>
     </g>
     <g id="line2d_102">
      <g>
       <use xlink:href="#m690b9f4ab9" x="70.498341" y="57.423909" style="stroke: #000000"/>
      </g>
     </g>
    </g>
    <g id="ytick_32">
     <g id="line2d_103">
      <path d="M 70.498341 53.098461 
L 476.64 53.098461 
" clip-path="url(#p287485ca35)" style="fill: none; stroke-dasharray: 2.96,1.28; stroke-dashoffset: 0; stroke: #b0b0b0; stroke-opacity: 0.25; stroke-width: 0.8"/>
     </g>
     <g id="line2d_104">
      <g>
       <use xlink:href="#m690b9f4ab9" x="70.498341" y="53.098461" style="stroke: #000000"/>
      </g>
     </g>
    </g>
    <g id="ytick_33">
     <g id="line2d_105">
      <path d="M 70.498341 23.77417 
L 476.64 23.77417 
" clip-path="url(#p287485ca35)" style="fill: none; stroke-dasharray: 2.96,1.28; stroke-dashoffset: 0; stroke: #b0b0b0; stroke-opacity: 0.25; stroke-width: 0.8"/>
     </g>
     <g id="line2d_106">
      <g>
       <use xlink:href="#m690b9f4ab9" x="70.498341" y="23.77417" style="stroke: #000000"/>
      </g>
     </g>
    </g>
    <g id="ytick_34">
     <g id="line2d_107">
      <path d="M 70.498341 8.883924 
L 476.64 8.883924 
" clip-path="url(#p287485ca35)" style="fill: none; stroke-dasharray: 2.96,1.28; stroke-dashoffset: 0; stroke: #b0b0b0; stroke-opacity: 0.25; stroke-width: 0.8"/>
     </g>
     <g id="line2d_108">
      <g>
       <use xlink:href="#m690b9f4ab9" x="70.498341" y="8.883924" style="stroke: #000000"/>
      </g>
     </g>
    </g>
    <g id="text_8">
     <!-- $|\mathrm{d}\log P_u / \mathrm{d}\log k|$ -->
     <g transform="translate(20.649564 225.057063) rotate(-90) scale(0.18 -0.18)">
      <defs>
       <path id="CMSY10-6a" d="M 1018 4570 
C 1018 4685 1018 4800 890 4800 
C 762 4800 762 4685 762 4570 
L 762 -1370 
C 762 -1485 762 -1600 890 -1600 
C 1018 -1600 1018 -1485 1018 -1370 
L 1018 4570 
z
" transform="scale(0.015625)"/>
       <path id="CMR17-64" d="M 1869 4326 
L 1869 4160 
C 2246 4160 2304 4122 2304 3820 
L 2304 2345 
C 2278 2377 2016 2790 1498 2790 
C 845 2790 211 2208 211 1364 
C 211 525 806 -64 1434 -64 
C 1978 -64 2259 337 2291 380 
L 2291 -63 
L 3066 -63 
L 3066 128 
C 2688 128 2630 166 2630 473 
L 2630 4396 
L 1869 4326 
z
M 2291 755 
C 2291 563 2176 390 2029 262 
C 1811 70 1594 38 1472 38 
C 1286 38 621 134 621 1356 
C 621 2612 1363 2688 1530 2688 
C 1824 2688 2061 2522 2208 2291 
C 2291 2157 2291 2138 2291 2023 
L 2291 755 
z
" transform="scale(0.015625)"/>
       <path id="CMR17-6c" d="M 979 4396 
L 218 4326 
L 218 4160 
C 595 4160 653 4122 653 3817 
L 653 426 
C 653 184 627 153 218 153 
L 218 -13 
C 371 0 653 0 813 0 
C 979 0 1261 0 1414 -13 
L 1414 153 
C 1005 153 979 178 979 426 
L 979 4396 
z
" transform="scale(0.015625)"/>
       <path id="CMR17-6f" d="M 2758 1356 
C 2758 2176 2163 2816 1466 2816 
C 768 2816 173 2176 173 1356 
C 173 551 768 -64 1466 -64 
C 2163 -64 2758 551 2758 1356 
z
M 1466 51 
C 1165 51 909 230 762 480 
C 602 767 582 1126 582 1408 
C 582 1677 595 2010 762 2298 
C 890 2509 1139 2714 1466 2714 
C 1754 2714 1997 2554 2150 2330 
C 2349 2029 2349 1607 2349 1408 
C 2349 1158 2336 775 2163 467 
C 1984 173 1709 51 1466 51 
z
" transform="scale(0.015625)"/>
       <path id="CMR17-67" d="M 710 1164 
C 832 1068 1043 960 1299 960 
C 1805 960 2240 1357 2240 1888 
C 2240 2054 2189 2310 1997 2509 
C 2176 2692 2438 2752 2586 2752 
C 2611 2752 2650 2752 2682 2734 
C 2656 2728 2598 2703 2598 2605 
C 2598 2527 2656 2471 2739 2471 
C 2835 2471 2886 2533 2886 2614 
C 2886 2731 2790 2854 2586 2854 
C 2330 2854 2106 2738 1926 2580 
C 1734 2753 1504 2816 1299 2816 
C 794 2816 358 2419 358 1888 
C 358 1522 570 1292 634 1228 
C 442 1004 442 743 442 711 
C 442 545 506 302 723 168 
C 390 85 128 -169 128 -486 
C 128 -943 736 -1280 1466 -1280 
C 2170 -1280 2803 -956 2803 -479 
C 2803 384 1856 384 1363 384 
C 1216 384 954 384 922 391 
C 723 423 589 602 589 826 
C 589 883 589 1024 710 1164 
z
M 1299 1068 
C 736 1068 736 1760 736 1889 
C 736 2016 736 2708 1299 2708 
C 1862 2708 1862 2016 1862 1889 
C 1862 1760 1862 1068 1299 1068 
z
M 1466 -1171 
C 826 -1171 384 -835 384 -486 
C 384 -289 493 -105 634 -4 
C 794 104 858 104 1293 104 
C 1818 104 2547 104 2547 -486 
C 2547 -835 2106 -1171 1466 -1171 
z
" transform="scale(0.015625)"/>
       <path id="CMMI12-50" d="M 1894 2023 
L 2970 2023 
C 3853 2023 4736 2673 4736 3401 
C 4736 3898 4314 4352 3507 4352 
L 1530 4352 
C 1408 4352 1350 4352 1350 4231 
C 1350 4167 1408 4167 1504 4167 
C 1894 4167 1894 4116 1894 4046 
C 1894 4034 1894 3995 1869 3899 
L 1005 472 
C 947 249 934 185 486 185 
C 365 185 301 185 301 70 
C 301 0 358 0 397 0 
C 518 0 646 0 768 0 
L 1517 0 
C 1638 0 1773 0 1894 0 
C 1946 0 2016 0 2016 121 
C 2016 185 1958 185 1862 185 
C 1478 185 1472 230 1472 293 
C 1472 325 1478 369 1485 401 
L 1894 2023 
z
M 2355 3930 
C 2413 4167 2438 4167 2688 4167 
L 3322 4167 
C 3802 4167 4198 4013 4198 3535 
C 4198 3369 4115 2827 3821 2534 
C 3712 2419 3405 2176 2822 2176 
L 1920 2176 
L 2355 3930 
z
" transform="scale(0.015625)"/>
       <path id="CMMI12-75" d="M 2182 370 
C 2266 13 2573 -64 2726 -64 
C 2931 -64 3085 70 3187 287 
C 3296 517 3379 894 3379 913 
C 3379 945 3354 971 3315 971 
C 3258 971 3251 939 3226 843 
C 3110 402 2995 64 2739 64 
C 2547 64 2547 275 2547 358 
C 2547 505 2566 568 2630 837 
C 2675 1009 2720 1181 2758 1360 
L 3021 2401 
C 3066 2561 3066 2574 3066 2593 
C 3066 2689 2989 2753 2893 2753 
C 2707 2753 2662 2593 2624 2433 
C 2560 2184 2214 811 2170 588 
C 2163 588 1914 64 1446 64 
C 1114 64 1050 351 1050 588 
C 1050 952 1229 1462 1395 1890 
C 1472 2095 1504 2178 1504 2305 
C 1504 2580 1306 2816 998 2816 
C 410 2816 173 1890 173 1839 
C 173 1814 198 1782 243 1782 
C 301 1782 307 1807 333 1896 
C 486 2441 736 2682 979 2682 
C 1043 2682 1146 2682 1146 2478 
C 1146 2312 1075 2127 979 1884 
C 698 1124 666 881 666 690 
C 666 38 1158 -64 1421 -64 
C 1830 -64 2054 217 2182 370 
z
" transform="scale(0.015625)"/>
       <path id="CMMI12-3d" d="M 2746 4562 
C 2746 4569 2784 4666 2784 4678 
C 2784 4755 2720 4800 2669 4800 
C 2637 4800 2579 4800 2528 4659 
L 384 -1363 
C 384 -1370 346 -1465 346 -1478 
C 346 -1555 410 -1600 461 -1600 
C 499 -1600 557 -1593 602 -1459 
L 2746 4562 
z
" transform="scale(0.015625)"/>
      </defs>
      <use xlink:href="#CMSY10-6a" transform="scale(0.996264)"/>
      <use xlink:href="#CMR17-64" transform="translate(27.674085 0) scale(0.996264)"/>
      <use xlink:href="#CMR17-6c" transform="translate(95.17386 0) scale(0.996264)"/>
      <use xlink:href="#CMR17-6f" transform="translate(120.044918 0) scale(0.996264)"/>
      <use xlink:href="#CMR17-67" transform="translate(165.735395 0) scale(0.996264)"/>
      <use xlink:href="#CMMI12-50" transform="translate(229.331444 0) scale(0.996264)"/>
      <use xlink:href="#CMMI12-75" transform="translate(292.208676 -14.943915) scale(0.697382)"/>
      <use xlink:href="#CMMI12-3d" transform="translate(331.570864 0) scale(0.996264)"/>
      <use xlink:href="#CMR17-64" transform="translate(380.345783 0) scale(0.996264)"/>
      <use xlink:href="#CMR17-6c" transform="translate(447.845558 0) scale(0.996264)"/>
      <use xlink:href="#CMR17-6f" transform="translate(472.716616 0) scale(0.996264)"/>
      <use xlink:href="#CMR17-67" transform="translate(518.407093 0) scale(0.996264)"/>
      <use xlink:href="#CMMI12-6b" transform="translate(582.003142 0) scale(0.996264)"/>
      <use xlink:href="#CMSY10-6a" transform="translate(636.082343 0) scale(0.996264)"/>
     </g>
    </g>
   </g>
   <g id="line2d_109">
    <path d="M 463.777787 -1 
L 463.903101 5.628276 
L 463.979567 -1 
M 468.372435 -1 
L 468.453051 3.897679 
L 468.479628 -1 
M 471.172034 -1 
L 471.227716 10.085745 
L 471.336545 3.270852 
L 471.445213 13.436627 
L 471.563907 -1 
M 479.600115 -1 
L 479.751488 31.417386 
L 479.848369 29.114653 
L 479.999263 -1 
M 482.265095 -1 
L 482.323326 9.814581 
L 482.416866 7.004888 
L 482.510287 6.155126 
L 482.603589 1.354006 
L 482.696773 16.765274 
L 482.892118 -1 
M 483.003278 -1 
L 483.160924 18.377826 
L 483.218176 -1 
M 484.528839 -1 
L 484.535978 0.24169 
L 484.576442 -1 
" clip-path="url(#p287485ca35)" style="fill: none; stroke: #30123b; stroke-opacity: 0.9; stroke-width: 2; stroke-linecap: square"/>
   </g>
   <g id="line2d_110">
    <path d="M 449.630579 -1 
L 449.738528 4.90084 
L 449.812666 -1 
M 458.18414 -1 
L 458.275929 11.162143 
L 458.405791 12.474189 
L 458.535423 7.937312 
L 458.647268 -1 
M 461.132127 -1 
L 461.20601 8.848716 
L 461.274206 -1 
M 463.67621 -1 
L 463.782637 11.934241 
L 463.903101 8.517842 
L 463.974389 -1 
M 468.184328 -1 
L 468.339848 17.433666 
L 468.453051 35.786973 
L 468.566085 2.227735 
L 468.678939 2.092355 
L 468.791546 -1 
M 468.791727 -1 
L 469.01646 1.746888 
L 469.128623 3.14659 
L 469.164892 -1 
M 471.13305 -1 
L 471.445213 35.120383 
L 471.55372 34.691917 
L 471.662066 10.183316 
L 471.770253 10.53563 
L 471.915578 -1 
M 473.598035 -1 
L 473.796006 25.177474 
L 473.901088 60.463386 
L 474.1108 7.392694 
L 474.215438 10.616038 
L 474.31992 9.722747 
L 474.424253 18.267967 
L 474.52388 -1 
M 477.517253 -1 
L 477.587013 8.575205 
L 477.672862 -1 
M 477.843212 -1 
L 478.084589 29.870117 
L 478.286536 -1 
M 479.812769 -1 
L 479.945122 18.387679 
L 480.018609 -1 
M 480.616607 -1 
L 480.618838 -0.86232 
L 480.6204 -1 
M 482.013302 -1 
L 482.041986 1.813657 
L 482.416866 97.181916 
L 482.603589 5.921513 
L 482.696773 22.222983 
L 482.789843 12.322827 
L 482.882789 22.86674 
L 482.97437 -1 
M 484.3408 -1 
L 484.445106 27.723278 
L 484.535978 101.980925 
L 484.717382 3.612338 
L 484.807916 7.052586 
L 484.84 1.179977 
L 484.84 1.179977 
" clip-path="url(#p287485ca35)" style="fill: none; stroke: #4559cb; stroke-opacity: 0.9; stroke-width: 2; stroke-linecap: square"/>
   </g>
   <g id="line2d_111">
    <path d="M 449.342475 -1 
L 449.738528 47.781384 
L 450.03004 7.457601 
L 450.228837 -1 
M 455.617766 -1 
L 455.629119 -0.291108 
L 455.636454 -1 
M 458.070453 -1 
L 458.275929 26.631354 
L 458.664826 9.698106 
L 458.779728 -1 
M 458.820944 -1 
L 459.051669 6.624659 
L 459.099053 -1 
M 460.820687 -1 
L 460.830409 0.352189 
L 460.955823 0.486936 
L 461.081024 0.971559 
L 461.20601 21.096881 
L 461.330784 1.320337 
L 461.579695 13.808608 
L 461.748433 -1 
M 463.602939 -1 
L 463.661975 2.203588 
L 463.782637 21.548487 
L 463.982828 -1 
M 466.105584 -1 
L 466.271692 11.307177 
L 466.388134 4.517079 
L 466.504392 4.471762 
L 466.537602 -1 
M 467.871458 -1 
L 467.88528 0.379749 
L 467.999186 -0.141411 
L 468.22647 20.723442 
L 468.339848 41.397906 
L 468.453051 112.802789 
L 468.678939 29.097934 
L 468.791619 26.151113 
L 468.904126 28.624388 
L 469.01646 25.189881 
L 469.128623 32.96461 
L 469.396208 -1 
M 471.066351 -1 
L 471.227716 19.36856 
L 471.445213 102.991352 
L 471.55372 75.560597 
L 471.770253 153.025623 
L 471.986147 28.764135 
L 472.093856 27.235545 
L 472.181494 -1 
M 473.521605 -1 
L 473.690773 32.180839 
L 473.901088 93.066817 
L 474.006019 185.74675 
L 474.1108 44.525169 
L 474.215438 48.332161 
L 474.424253 88.214691 
L 474.632475 17.304115 
L 474.736365 17.682067 
L 474.838517 -1 
M 477.560028 -1 
L 477.587013 2.202356 
L 477.619458 -1 
M 477.861717 -1 
L 478.084589 47.938855 
L 478.183699 21.492944 
L 478.282675 23.213363 
L 478.381517 5.435219 
L 478.480226 10.760477 
L 478.578802 3.689297 
L 478.677246 7.301938 
L 478.775557 4.497223 
L 478.873737 27.487769 
L 479.081431 -1 
M 480.226639 -1 
L 480.234617 0.36142 
L 480.245644 -1 
M 480.478074 -1 
L 480.618838 30.294315 
L 480.71458 20.667898 
L 480.804729 -1 
M 482.002179 -1 
L 482.041986 3.060501 
L 482.416866 139.956966 
L 482.603589 5.978244 
L 482.882789 39.084861 
L 483.06833 3.701332 
L 483.253402 12.285922 
L 483.285324 -1 
M 484.304798 -1 
L 484.445106 35.818885 
L 484.535978 99.514401 
L 484.717382 3.534014 
L 484.807916 6.976707 
L 484.84 0.358169 
L 484.84 0.358169 
" clip-path="url(#p287485ca35)" style="fill: none; stroke: #3e9bfe; stroke-opacity: 0.9; stroke-width: 2; stroke-linecap: square"/>
   </g>
   <g id="line2d_112">
    <path d="M 426.487708 -1 
L 426.569247 2.394985 
L 426.607278 -1 
M 442.031064 -1 
L 442.046016 -0.608612 
L 442.208056 13.679556 
L 442.369738 -0.82049 
L 442.692041 15.180455 
L 442.910815 -1 
M 449.299281 -1 
L 449.592337 88.05877 
L 449.738528 93.58837 
L 450.175361 27.824856 
L 450.320395 27.951959 
L 450.541364 -1 
M 452.726202 -1 
L 452.743028 0.802625 
L 452.88307 1.895788 
L 452.910661 -1 
M 455.561266 -1 
L 455.629119 6.432005 
L 455.701573 -1 
M 456.202045 -1 
L 456.299846 6.347653 
L 456.433256 3.331096 
L 456.504121 -1 
M 456.673901 -1 
L 456.69935 -0.098358 
L 456.734272 -1 
M 458.053983 -1 
L 458.275929 25.648224 
L 458.535423 16.634306 
L 458.664826 16.147915 
L 458.794001 10.853425 
L 458.922948 14.222581 
L 459.051669 24.947453 
L 459.176069 -1 
M 460.807499 -1 
L 460.830409 1.679607 
L 460.955823 2.331259 
L 461.081024 5.534552 
L 461.20601 23.056818 
L 461.330784 10.646227 
L 461.455345 17.589779 
L 461.579695 52.342274 
L 461.951483 -0.330991 
L 462.074994 5.668718 
L 462.242123 -1 
M 463.29667 -1 
L 463.420052 4.567212 
L 463.541113 4.722604 
L 463.661975 5.989964 
L 463.782637 29.702935 
L 464.02366 -1 
M 465.776184 -1 
L 465.804064 1.969691 
L 465.876679 -1 
M 466.047093 -1 
L 466.504392 46.289232 
L 466.654833 -1 
M 467.769453 -1 
L 468.22647 45.408918 
L 468.339848 78.248467 
L 468.453051 63.845155 
L 468.566085 64.363738 
L 468.791619 189.331761 
L 469.01646 54.698353 
L 469.128623 94.465577 
L 469.352434 27.559782 
L 469.504962 -1 
M 471.004019 -1 
L 471.336545 46.654655 
L 471.55372 23.109692 
L 471.662066 23.556655 
L 471.770253 27.946163 
L 471.986147 64.741445 
L 472.093856 68.821178 
L 472.357492 -1 
M 473.527052 -1 
L 473.585388 6.150548 
L 473.796006 69.369511 
L 473.901088 196.471774 
L 474.1108 75.555771 
L 474.215438 77.4789 
L 474.31992 82.459918 
L 474.424253 38.47443 
L 474.528438 154.230543 
L 474.632475 58.287764 
L 474.736365 83.074456 
L 474.943703 8.367855 
L 475.092303 -1 
M 475.280942 -1 
L 475.356626 8.506637 
L 475.424794 -1 
M 476.980603 -1 
L 476.985432 -0.610716 
L 476.992283 -1 
M 477.123992 -1 
L 477.186509 7.775958 
L 477.234787 -1 
M 477.999996 -1 
L 478.084589 32.954051 
L 478.183699 18.016145 
L 478.282675 36.089592 
L 478.381517 21.844611 
L 478.677246 123.719255 
L 478.775557 69.417475 
L 478.873737 85.896341 
L 479.203893 -1 
M 480.231835 -1 
L 480.234617 -0.40591 
L 480.240963 -1 
M 480.461394 -1 
L 480.71458 78.084492 
L 480.985624 -1 
M 481.05993 -1 
L 481.096303 1.916663 
L 481.110986 -1 
M 482.037644 -1 
L 482.041986 -0.597062 
L 482.416866 102.200966 
L 482.603589 4.551678 
L 482.789843 19.386629 
L 482.975618 59.292413 
L 483.06833 22.903922 
L 483.253402 104.192455 
L 483.337475 -1 
M 484.130829 -1 
L 484.17181 9.911575 
L 484.221821 -1 
M 484.307961 -1 
L 484.445106 24.653994 
L 484.535978 67.978174 
L 484.717382 -0.08638 
L 484.807916 -0.091624 
L 484.813149 -1 
L 484.813149 -1 
" clip-path="url(#p287485ca35)" style="fill: none; stroke: #19d5cd; stroke-opacity: 0.9; stroke-width: 2; stroke-linecap: square"/>
   </g>
   <g id="line2d_113">
    <path d="M 426.356438 -1 
L 426.569247 5.894628 
L 426.646007 -1 
M 430.991486 -1 
L 431.039 2.806798 
L 431.227283 5.702435 
L 431.415084 12.287629 
L 431.602404 12.403031 
L 431.789246 11.445337 
L 431.91364 -1 
M 436.940834 -1 
L 437.010199 4.442779 
L 437.077653 -1 
M 440.865022 -1 
L 440.90158 4.060884 
L 440.955115 -1 
M 441.77668 -1 
L 442.208056 61.926897 
L 442.369738 25.629396 
L 442.531069 27.988218 
L 442.692041 62.608662 
L 443.012927 6.238096 
L 443.172844 8.897499 
L 443.284785 -1 
M 446.359442 -1 
L 446.452901 8.914967 
L 446.540262 -1 
M 449.302582 -1 
L 449.592337 92.645262 
L 449.738528 96.976149 
L 449.884429 121.568685 
L 450.03004 184.872622 
L 450.175361 46.245241 
L 450.320395 74.329205 
L 450.607662 -1 
M 452.67176 -1 
L 452.743028 7.08407 
L 452.88307 5.67603 
L 452.941386 -1 
M 453.15163 -1 
L 453.162354 -0.223472 
L 453.17274 -1 
M 455.582241 -1 
L 455.629119 5.060899 
L 455.705218 -1 
M 456.113327 -1 
L 456.166193 3.795685 
L 456.433256 33.331548 
L 456.566424 27.077844 
L 456.69935 55.787027 
L 457.216701 -1 
M 458.097202 -1 
L 458.275929 14.080615 
L 458.405791 11.186843 
L 458.535423 13.461944 
L 458.664826 13.687256 
L 458.922948 19.570275 
L 459.051669 38.781188 
L 459.308434 2.194232 
L 459.436479 10.303998 
L 459.561133 -1 
M 460.949946 -1 
L 460.955823 -0.881465 
L 461.081024 4.205536 
L 461.20601 16.442611 
L 461.330784 13.606876 
L 461.455345 19.04641 
L 461.579695 78.932276 
L 461.827763 8.68545 
L 461.951483 3.469109 
L 462.074994 14.190493 
L 462.469938 -1 
M 463.127134 -1 
L 463.29879 7.407782 
L 463.420052 10.523173 
L 463.541113 10.290991 
L 463.661975 7.606395 
L 463.782637 32.857257 
L 463.903101 3.468668 
L 464.023368 2.680577 
L 464.049706 -1 
M 465.477487 -1 
L 465.569125 4.389989 
L 465.651503 -1 
M 465.702332 -1 
L 465.804064 13.971575 
L 466.038251 0.651881 
L 466.155065 13.528012 
L 466.504392 94.740475 
L 466.715293 -1 
M 467.696014 -1 
L 468.112916 45.711574 
L 468.22647 64.672146 
L 468.339848 115.99372 
L 468.566085 31.941659 
L 468.678939 53.953899 
L 468.791619 50.348661 
L 468.904126 110.507908 
L 469.01646 70.473531 
L 469.128623 137.9174 
L 469.352434 37.261991 
L 469.5488 -1 
M 470.979882 -1 
L 471.227716 56.088068 
L 471.445213 14.231147 
L 471.662066 9.874176 
L 471.770253 16.597662 
L 471.878279 31.523403 
L 471.986147 31.25622 
L 472.093856 30.374613 
L 472.201407 58.198059 
L 472.396173 -1 
M 473.566014 -1 
L 473.585388 0.851589 
L 473.901088 58.495913 
L 474.1108 61.832619 
L 474.215438 61.140287 
L 474.31992 85.810846 
L 474.424253 43.631206 
L 474.528438 94.977286 
L 474.632475 94.187091 
L 474.736365 80.95299 
L 474.943703 20.510776 
L 475.150456 0.164751 
L 475.253614 2.78032 
L 475.356626 21.689395 
L 475.459494 3.903207 
L 475.562218 6.811307 
L 475.610936 -1 
M 476.242704 -1 
L 476.277285 2.309198 
L 476.311797 -1 
M 476.474767 -1 
L 476.682778 17.955639 
L 476.783802 12.673619 
L 476.884686 2.948747 
L 476.985432 13.987722 
L 477.086039 3.516164 
L 477.186509 19.857037 
L 477.256002 -1 
M 478.028907 -1 
L 478.084589 16.851883 
L 478.183699 8.303316 
L 478.282675 32.132193 
L 478.381517 29.009307 
L 478.480226 148.309366 
L 478.677246 38.5566 
L 478.775557 57.935473 
L 478.873737 43.061674 
L 478.971785 174.602959 
L 479.167489 16.684922 
L 479.368023 -1 
M 480.463608 -1 
L 480.71458 111.009269 
L 480.810196 101.041038 
L 480.905688 105.041571 
L 481.001055 9.732896 
L 481.096303 18.448023 
L 481.156896 -1 
M 481.268893 -1 
L 481.286419 1.507101 
L 481.298301 -1 
M 482.056898 -1 
L 482.416866 61.831313 
L 482.603589 2.830707 
L 482.696773 5.72343 
L 482.882789 48.065762 
L 482.975618 124.79447 
L 483.06833 47.959907 
L 483.160924 70.956086 
L 483.420787 -1 
M 483.6182 -1 
L 483.622148 -0.769577 
L 483.627849 -1 
M 483.750443 -1 
L 483.805827 4.301543 
L 483.873889 -1 
M 484.115962 -1 
L 484.17181 16.93604 
L 484.228754 -1 
M 484.323577 -1 
L 484.535978 34.811651 
L 484.69555 -1 
L 484.69555 -1 
" clip-path="url(#p287485ca35)" style="fill: none; stroke: #46f884; stroke-opacity: 0.9; stroke-width: 2; stroke-linecap: square"/>
   </g>
   <g id="line2d_114">
    <path d="M 417.730415 -1 
L 417.854826 9.005538 
L 418.080186 13.821493 
L 418.304856 10.690546 
L 418.528838 -0.65153 
L 418.752137 1.370949 
L 418.974757 1.541627 
L 419.005635 -1 
M 430.88206 -1 
L 431.039 18.406112 
L 431.227283 27.124413 
L 431.415084 28.864412 
L 431.602404 40.618257 
L 431.789246 39.212528 
L 432.149055 -1 
M 436.908063 -1 
L 437.010199 7.499367 
L 437.105133 -1 
M 439.446964 -1 
L 439.571377 8.979205 
L 439.738983 -0.065968 
L 439.906203 -0.195565 
L 440.073041 3.501799 
L 440.116528 -1 
M 440.872438 -1 
L 440.90158 2.85818 
L 440.947159 -1 
M 441.52235 -1 
L 441.557734 2.605728 
L 441.63517 -1 
M 441.746412 -1 
L 442.046016 29.60177 
L 442.208056 143.574226 
L 442.369738 42.912039 
L 442.531069 35.966331 
L 442.692041 191.310845 
L 442.852659 46.128136 
L 443.012927 17.785486 
L 443.172844 12.668683 
L 443.298638 -1 
M 446.132646 -1 
L 446.146769 -0.225239 
L 446.179052 -1 
M 446.323469 -1 
L 446.452901 15.003972 
L 446.586075 -1 
M 446.647658 -1 
L 446.757759 5.09144 
L 446.808686 -1 
M 449.31834 -1 
L 449.738528 93.628203 
L 449.884429 91.214553 
L 450.03004 138.958659 
L 450.175361 45.014825 
L 450.320395 94.18019 
L 450.651405 -1 
M 452.665917 -1 
L 452.743028 6.74124 
L 452.924514 -1 
M 453.109095 -1 
L 453.162354 4.820422 
L 453.239676 -1 
M 453.361471 -1 
L 453.440584 5.158978 
L 453.520867 -1 
M 455.615668 -1 
L 455.629119 0.707664 
L 455.658869 -1 
M 456.094324 -1 
L 456.166193 6.538505 
L 456.433256 60.736113 
L 456.566424 59.721716 
L 456.69935 83.320213 
L 456.96448 162.043002 
L 457.228653 8.541844 
L 457.318754 -1 
M 458.174594 -1 
L 458.275929 5.359174 
L 458.405791 5.05334 
L 458.535423 10.386597 
L 458.664826 9.447036 
L 458.794001 20.231988 
L 458.922948 20.872423 
L 459.051669 43.23718 
L 459.308434 12.959336 
L 459.436479 30.474092 
L 459.691901 6.112888 
L 459.854806 -1 
M 461.02532 -1 
L 461.455345 16.001271 
L 461.579695 68.835417 
L 461.951483 2.413678 
L 462.074994 14.578868 
L 462.321393 4.038348 
L 462.444283 2.912642 
L 462.571641 -1 
M 463.009764 -1 
L 463.055663 0.579383 
L 463.29879 10.326712 
L 463.541113 13.423437 
L 463.661975 8.840326 
L 463.782637 33.908211 
L 463.903101 2.565081 
L 464.023368 3.972174 
L 464.064455 -1 
M 465.453011 -1 
L 465.569125 9.521771 
L 465.686688 0.922847 
L 465.804064 21.008673 
L 466.038251 1.404481 
L 466.155065 12.874826 
L 466.504392 113.392869 
L 466.733547 -1 
M 466.781092 -1 
L 466.852067 -0.023892 
L 466.861917 -1 
M 467.668363 -1 
L 467.88528 31.740021 
L 467.999186 21.956066 
L 468.339848 131.782312 
L 468.566085 26.147446 
L 468.678939 41.961219 
L 468.791619 38.657291 
L 468.904126 97.209761 
L 469.01646 69.477413 
L 469.128623 171.752266 
L 469.352434 37.331338 
L 469.558506 -1 
M 470.973012 -1 
L 471.118725 14.264223 
L 471.227716 70.636579 
L 471.445213 10.988828 
L 471.55372 10.202741 
L 471.662066 7.2 
L 471.878279 28.052562 
L 471.986147 25.184979 
L 472.093856 22.862719 
L 472.201407 107.476938 
L 472.409314 -1 
M 473.594739 -1 
L 473.796006 28.921929 
L 474.1108 46.253882 
L 474.215438 44.486374 
L 474.31992 146.947848 
L 474.424253 60.688503 
L 474.528438 110.301871 
L 474.632475 105.406377 
L 474.943703 26.519941 
L 475.150456 3.994991 
L 475.253614 8.050051 
L 475.356626 31.325591 
L 475.459494 10.892282 
L 475.562218 11.781959 
L 475.633042 -1 
M 476.160893 -1 
L 476.277285 13.67921 
L 476.378869 0.18404 
L 476.682778 34.719575 
L 476.884686 11.19486 
L 476.985432 22.919555 
L 477.086039 9.381454 
L 477.186509 27.94641 
L 477.262871 -1 
M 478.053789 -1 
L 478.084589 7.366019 
L 478.183699 1.70969 
L 478.381517 29.502744 
L 478.480226 124.198575 
L 478.677246 25.635112 
L 478.775557 37.976497 
L 478.873737 37.199494 
L 479.069703 94.200583 
L 479.265145 12.96912 
L 479.392509 -1 
M 480.469174 -1 
L 480.810196 97.936108 
L 481.169238 -1 
M 481.252383 -1 
L 481.286419 4.006309 
L 481.308593 -1 
M 482.070439 -1 
L 482.416866 47.989033 
L 482.603589 1.499086 
L 482.696773 3.746058 
L 482.882789 44.592667 
L 483.06833 78.363059 
L 483.253402 22.590313 
L 483.345762 19.410745 
L 483.530135 3.319889 
L 483.622148 5.580533 
L 483.712918 -1 
M 483.714907 -1 
L 483.805827 7.61769 
L 483.892786 -1 
M 484.112077 -1 
L 484.17181 19.302442 
L 484.229393 -1 
M 484.336871 -1 
L 484.535978 22.141097 
L 484.6535 -1 
L 484.6535 -1 
" clip-path="url(#p287485ca35)" style="fill: none; stroke: #a4fc3c; stroke-opacity: 0.9; stroke-width: 2; stroke-linecap: square"/>
   </g>
   <g id="line2d_115">
    <path d="M 417.684187 -1 
L 418.080186 28.717558 
L 418.304856 29.239322 
L 418.528838 8.247167 
L 418.752137 7.084386 
L 418.974757 9.622626 
L 419.094648 -1 
M 430.461589 -1 
L 430.471229 -0.23875 
L 430.493828 -1 
M 430.841121 -1 
L 430.850232 -0.715257 
L 431.227283 41.929828 
L 431.415084 32.588502 
L 431.602404 55.26753 
L 431.789246 47.116912 
L 432.161511 5.041959 
L 432.263761 -1 
M 436.936155 -1 
L 437.010199 4.491486 
L 437.076778 -1 
M 439.324143 -1 
L 439.571377 15.941706 
L 439.738983 4.88713 
L 439.906203 1.26274 
L 440.073041 3.109652 
L 440.107147 -1 
M 441.537247 -1 
L 441.557734 1.025916 
L 441.616813 -1 
M 441.742295 -1 
L 441.883617 22.518755 
L 442.046016 29.960613 
L 442.208056 236.431433 
L 442.369738 46.317748 
L 442.531069 38.836888 
L 442.692041 134.019363 
L 443.012927 26.130417 
L 443.300213 -1 
M 446.080325 -1 
L 446.146769 2.688629 
L 446.241393 -1 
M 446.319916 -1 
L 446.452901 14.250202 
L 446.599106 -1 
M 446.615109 -1 
L 446.757759 8.871391 
L 446.836906 -1 
M 449.335861 -1 
L 449.738528 49.91971 
L 449.884429 60.52097 
L 450.03004 110.842324 
L 450.175361 34.849489 
L 450.320395 65.075327 
L 450.465142 43.604569 
L 450.666002 -1 
M 452.683004 -1 
L 452.743028 3.881511 
L 452.878792 -1 
M 453.111483 -1 
L 453.162354 4.807483 
L 453.257948 -1 
M 453.330834 -1 
L 453.440584 8.954093 
L 453.57887 -1 
M 456.08503 -1 
L 456.166193 7.695738 
L 456.566424 96.260903 
L 456.69935 60.74417 
L 456.832035 84.315277 
L 456.96448 57.387419 
L 457.096686 53.729589 
L 457.349855 -1 
M 458.261845 -1 
L 458.535423 9.23338 
L 458.664826 6.651164 
L 458.794001 20.279034 
L 458.922948 21.068775 
L 459.051669 40.80975 
L 459.180164 19.091473 
L 459.308434 20.928484 
L 459.436479 45.805976 
L 459.691901 15.130921 
L 459.819279 3.855542 
L 459.946435 2.923799 
L 459.982713 -1 
M 461.05999 -1 
L 461.455345 12.534737 
L 461.579695 49.419617 
L 461.951483 1.139421 
L 462.074994 12.433619 
L 462.321393 3.779891 
L 462.444283 3.623377 
L 462.602026 -1 
M 462.861557 -1 
L 463.055663 4.576569 
L 463.177327 12.047105 
L 463.29879 10.457986 
L 463.541113 17.496887 
L 463.661975 12.217759 
L 463.782637 36.197903 
L 463.903101 3.091899 
L 464.023368 2.281031 
L 464.056476 -1 
M 465.454576 -1 
L 465.569125 10.952038 
L 465.686688 4.316812 
L 465.804064 26.140556 
L 466.038251 2.542508 
L 466.155065 14.304186 
L 466.271692 47.876341 
L 466.388134 48.171383 
L 466.504392 125.715787 
L 466.736361 0.152706 
L 466.852067 0.879779 
L 466.869739 -1 
M 467.651159 -1 
L 467.771195 12.482537 
L 467.88528 31.204742 
L 467.999186 23.22958 
L 468.339848 125.700581 
L 468.566085 27.899626 
L 468.678939 40.644242 
L 468.791619 39.023354 
L 468.904126 117.995493 
L 469.01646 63.739613 
L 469.128623 103.572226 
L 469.352434 35.902656 
L 469.557599 -1 
M 470.977321 -1 
L 471.118725 13.853444 
L 471.227716 76.231733 
L 471.445213 14.046165 
L 471.662066 8.854853 
L 471.878279 25.717609 
L 471.986147 22.670006 
L 472.093856 20.165615 
L 472.201407 230.65617 
L 472.41518 -1 
M 473.606566 -1 
L 473.796006 20.202308 
L 474.1108 37.096384 
L 474.215438 34.129828 
L 474.31992 106.485732 
L 474.424253 85.215109 
L 474.632475 125.899954 
L 474.840107 50.829711 
L 475.150456 5.644593 
L 475.253614 12.746602 
L 475.356626 38.660333 
L 475.562218 14.443202 
L 475.64858 -1 
M 476.130245 -1 
L 476.277285 19.086532 
L 476.378869 3.209372 
L 476.682778 47.552252 
L 476.884686 18.287494 
L 476.985432 26.873788 
L 477.086039 11.946411 
L 477.186509 31.654029 
L 477.266113 -1 
M 478.075727 -1 
L 478.084589 1.120445 
L 478.154299 -1 
M 478.188252 -1 
L 478.381517 26.890875 
L 478.480226 153.870569 
L 478.677246 23.532092 
L 478.873737 37.102682 
L 479.069703 98.323342 
L 479.265145 18.381985 
L 479.403282 -1 
M 480.473555 -1 
L 480.71458 97.093545 
L 480.810196 77.039554 
L 481.171509 -1 
M 481.250774 -1 
L 481.286419 3.934977 
L 481.309139 -1 
M 482.074306 -1 
L 482.416866 43.307102 
L 482.603589 0.670072 
L 482.696773 2.784921 
L 482.882789 41.693187 
L 482.975618 60.042222 
L 483.06833 124.980279 
L 483.253402 19.176969 
L 483.345762 31.956402 
L 483.530135 10.736678 
L 483.622148 9.802246 
L 483.714045 2.346677 
L 483.805827 11.744513 
L 483.918067 -1 
M 484.110512 -1 
L 484.17181 19.003269 
L 484.229842 -1 
M 484.338611 -1 
L 484.535978 15.828017 
L 484.618586 -1 
L 484.618586 -1 
" clip-path="url(#p287485ca35)" style="fill: none; stroke: #e1dd37; stroke-opacity: 0.9; stroke-width: 2; stroke-linecap: square"/>
   </g>
   <g id="line2d_116">
    <path d="M 417.72529 -1 
L 418.080186 22.320848 
L 418.304856 29.061624 
L 418.528838 5.830488 
L 418.752137 4.064181 
L 418.974757 5.309219 
L 419.08099 -1 
M 430.388547 -1 
L 430.471229 6.559977 
L 430.644047 -1 
M 430.701821 -1 
L 430.850232 1.690636 
L 431.227283 46.44289 
L 431.415084 22.531128 
L 431.602404 40.03463 
L 432.259882 -1 
M 436.996021 -1 
L 437.010199 -0.181619 
L 437.021837 -1 
M 439.202499 -1 
L 439.571377 11.447699 
L 439.819092 -1 
M 441.739052 -1 
L 441.883617 24.807725 
L 442.046016 28.818778 
L 442.208056 112.248166 
L 442.369738 40.232214 
L 442.531069 47.91248 
L 442.692041 140.928122 
L 442.852659 53.316157 
L 443.31211 -1 
M 446.054855 -1 
L 446.146769 4.099905 
L 446.246409 -1 
M 446.33595 -1 
L 446.452901 7.921235 
L 446.583063 -1 
M 446.62264 -1 
L 446.757759 11.109279 
L 446.859442 -1 
M 449.341725 -1 
L 449.592337 18.55754 
L 449.884429 36.719438 
L 450.03004 62.658744 
L 450.175361 20.941667 
L 450.320395 31.39019 
L 450.465142 27.267563 
L 450.671861 -1 
M 453.154752 -1 
L 453.162354 -0.378359 
L 453.181311 -1 
M 453.356806 -1 
L 453.440584 4.985367 
L 453.584482 -1 
M 456.063941 -1 
L 456.166193 9.478085 
L 456.299846 46.952676 
L 456.433256 160.023448 
L 456.566424 134.34415 
L 456.69935 73.483278 
L 456.832035 77.257226 
L 456.96448 50.133003 
L 457.096686 54.902908 
L 457.347593 -1 
M 458.353704 -1 
L 458.535423 11.327207 
L 458.664826 6.514366 
L 458.794001 21.774463 
L 458.922948 23.006901 
L 459.051669 34.137445 
L 459.180164 16.001705 
L 459.436479 49.032932 
L 459.819279 4.025746 
L 459.946435 1.689779 
L 459.975153 -1 
M 461.022206 -1 
L 461.330784 13.616824 
L 461.455345 10.480101 
L 461.579695 27.383366 
L 461.703834 24.174685 
L 461.951483 1.534927 
L 462.074994 8.810459 
L 462.198297 -0.152312 
L 462.444283 3.883325 
L 462.566973 2.819914 
L 462.628118 -1 
M 462.745991 -1 
L 462.811726 3.454943 
L 462.933796 3.721409 
L 463.177327 12.366878 
L 463.29879 9.302476 
L 463.541113 26.561852 
L 463.661975 22.188844 
L 463.782637 41.062633 
L 464.000625 -1 
M 465.471524 -1 
L 465.569125 9.701617 
L 465.686688 9.88962 
L 465.804064 32.76024 
L 466.038251 6.630229 
L 466.155065 23.575579 
L 466.271692 68.76314 
L 466.388134 57.428587 
L 466.504392 111.831818 
L 466.736361 3.320761 
L 466.863428 -1 
M 467.598704 -1 
L 467.771195 11.883885 
L 467.88528 23.132881 
L 467.999186 21.214892 
L 468.22647 91.129261 
L 468.339848 105.549579 
L 468.566085 37.433189 
L 468.678939 45.932731 
L 468.791619 54.003247 
L 468.904126 109.750554 
L 469.01646 53.309041 
L 469.128623 60.271565 
L 469.240614 53.625125 
L 469.548971 -1 
M 470.992254 -1 
L 471.118725 14.070334 
L 471.227716 69.661122 
L 471.445213 29.235238 
L 471.662066 16.006098 
L 471.770253 17.69776 
L 471.878279 23.620644 
L 472.093856 18.360679 
L 472.201407 162.145176 
L 472.416042 1.426164 
L 472.49481 -1 
M 473.611467 -1 
L 473.901088 28.695621 
L 474.006019 31.240772 
L 474.215438 26.706476 
L 474.424253 116.559495 
L 474.528438 72.161802 
L 474.632475 108.222151 
L 475.150456 4.560812 
L 475.356626 48.187611 
L 475.562218 15.395273 
L 475.708774 -1 
M 476.119565 -1 
L 476.277285 17.156868 
L 476.378869 1.599678 
L 476.682778 52.6201 
L 476.884686 28.738905 
L 476.985432 28.027516 
L 477.086039 11.913442 
L 477.186509 28.622418 
L 477.266439 -1 
M 478.203558 -1 
L 478.381517 21.440307 
L 478.480226 94.380649 
L 478.775557 25.911986 
L 478.971785 63.957922 
L 479.069703 93.700751 
L 479.265145 21.544972 
L 479.405488 -1 
M 480.470163 -1 
L 480.618838 63.921319 
L 480.71458 129.168352 
L 481.001055 18.680637 
L 481.096303 21.879034 
L 481.167647 -1 
M 481.268219 -1 
L 481.286419 0.80699 
L 481.296829 -1 
M 482.064101 -1 
L 482.323326 43.570136 
L 482.416866 45.116466 
L 482.510287 42.722957 
L 482.603589 2.259436 
L 482.696773 4.006588 
L 482.789843 12.909786 
L 483.06833 119.007177 
L 483.253402 27.592598 
L 483.345762 43.961128 
L 483.622148 14.05546 
L 483.714045 8.62143 
L 483.805827 20.520869 
L 483.962389 -1 
M 484.102949 -1 
L 484.17181 16.453276 
L 484.23356 -1 
M 484.31577 -1 
L 484.354122 5.054074 
L 484.445106 1.848643 
L 484.535978 11.821701 
L 484.603912 -1 
L 484.603912 -1 
" clip-path="url(#p287485ca35)" style="fill: none; stroke: #fea431; stroke-opacity: 0.9; stroke-width: 2; stroke-linecap: square"/>
   </g>
   <g id="line2d_117">
    <path d="M 417.880443 -1 
L 418.304856 14.437003 
L 418.504221 -1 
M 425.518051 -1 
L 425.560387 0.982189 
L 425.719931 -1 
M 430.313212 -1 
L 430.471229 14.999256 
L 430.660976 5.039751 
L 430.850232 4.767559 
L 431.227283 33.933963 
L 431.415084 4.873389 
L 431.602404 12.760612 
L 431.789246 8.789804 
L 431.975618 9.998243 
L 432.104862 -1 
M 439.004333 -1 
L 439.066257 3.571055 
L 439.40339 8.132772 
L 439.551308 -1 
M 441.73099 -1 
L 441.883617 31.754424 
L 442.046016 31.877463 
L 442.208056 88.108142 
L 442.369738 31.476318 
L 442.531069 68.364531 
L 442.692041 65.192956 
L 442.852659 39.429133 
L 443.012927 39.039555 
L 443.334952 -1 
M 445.969068 -1 
L 446.146769 6.318401 
L 446.289324 -1 
M 446.337645 -1 
L 446.452901 0.677088 
L 446.491789 -1 
M 446.667367 -1 
L 446.757759 6.163089 
L 446.89397 -1 
M 446.956462 -1 
L 447.061354 0.85769 
L 447.086702 -1 
M 449.258344 -1 
L 449.445852 6.824928 
L 449.592337 6.78358 
L 449.738528 6.05103 
L 449.884429 14.467629 
L 450.03004 30.441004 
L 450.175361 3.470105 
L 450.320395 1.793418 
L 450.465142 3.527484 
L 450.609604 1.821122 
L 450.662049 -1 
M 453.83377 -1 
L 453.855947 -0.24732 
L 453.880261 -1 
M 455.98432 -1 
L 456.032295 1.21961 
L 456.166193 13.446171 
L 456.299846 48.538843 
L 456.433256 162.658196 
L 456.566424 79.103585 
L 456.69935 124.410531 
L 456.832035 110.61093 
L 457.312304 -1 
M 458.372252 -1 
L 458.535423 17.735074 
L 458.664826 14.153078 
L 458.794001 32.623219 
L 458.922948 31.385587 
L 459.051669 27.082934 
L 459.180164 10.659925 
L 459.308434 33.34133 
L 459.436479 27.182131 
L 459.564302 39.328656 
L 459.903962 -1 
M 460.904027 -1 
L 461.20601 22.478522 
L 461.330784 28.379144 
L 461.579695 4.752373 
L 461.703834 8.172201 
L 461.827763 2.539147 
L 461.951483 3.158877 
L 462.074994 3.142816 
L 462.138404 -1 
M 462.319463 -1 
L 462.566973 4.132319 
L 462.647444 -1 
M 462.707859 -1 
L 462.811726 14.118205 
L 462.933796 7.048037 
L 463.177327 13.231298 
L 463.29879 8.447709 
L 463.541113 34.248639 
L 463.661975 42.246573 
L 463.782637 39.853546 
L 463.992817 -1 
M 465.494205 -1 
L 465.804064 35.419629 
L 465.921251 13.680284 
L 466.038251 20.989731 
L 466.388134 125.138274 
L 466.620471 34.07316 
L 466.899951 -1 
M 467.4248 -1 
L 467.542492 5.67396 
L 467.656933 4.768899 
L 467.999186 9.139051 
L 468.22647 108.079953 
L 468.339848 78.774367 
L 468.453051 86.921305 
L 468.678939 75.293528 
L 468.791619 85.463797 
L 469.01646 35.114372 
L 469.128623 36.10455 
L 469.240614 53.904373 
L 469.528737 -1 
M 470.988145 -1 
L 471.118725 16.199286 
L 471.227716 49.814312 
L 471.336545 122.593251 
L 471.445213 112.809232 
L 471.55372 32.705047 
L 471.662066 36.311569 
L 471.770253 22.200938 
L 471.878279 30.653857 
L 471.986147 17.828946 
L 472.093856 22.192337 
L 472.201407 80.802808 
L 472.484748 -1 
M 473.592094 -1 
L 473.901088 29.629126 
L 474.006019 28.258406 
L 474.1108 20.854337 
L 474.215438 24.649402 
L 474.424253 85.300482 
L 474.528438 36.515941 
L 474.632475 59.547622 
L 474.736365 145.347499 
L 474.943703 24.121747 
L 475.047152 22.95499 
L 475.150456 2.032014 
L 475.356626 54.084225 
L 475.562218 18.687405 
L 475.664798 15.455196 
L 475.741726 -1 
M 476.131403 -1 
L 476.277285 10.364028 
L 476.378869 0.672321 
L 476.480312 18.179476 
L 476.581615 11.689723 
L 476.682778 43.375034 
L 476.783802 41.813561 
L 476.884686 48.197445 
L 477.086039 9.328142 
L 477.186509 17.092836 
L 477.257403 -1 
M 478.183334 -1 
L 478.381517 15.382235 
L 478.480226 41.882832 
L 478.578802 109.520945 
L 478.775557 17.759416 
L 479.069703 152.350197 
L 479.265145 17.567052 
L 479.387 -1 
M 479.991764 -1 
L 480.041747 6.36193 
L 480.087393 -1 
M 480.230253 -1 
L 480.330861 2.202795 
L 480.426979 3.282102 
L 480.522972 30.206747 
L 480.71458 196.762732 
L 480.810196 80.127469 
L 480.905688 125.4447 
L 481.096303 6.186259 
L 481.143372 -1 
M 482.055683 -1 
L 482.510287 107.801036 
L 482.696773 26.036597 
L 482.789843 28.857734 
L 482.882789 109.62244 
L 482.975618 23.133045 
L 483.160924 122.004874 
L 483.253402 94.718549 
L 483.438007 30.973775 
L 483.530135 17.825113 
L 483.622148 19.129733 
L 483.714045 16.485443 
L 483.805827 31.679988 
L 483.989047 1.134013 
L 484.17181 13.211305 
L 484.259288 -1 
M 484.266469 -1 
L 484.354122 14.40922 
L 484.44166 -1 
M 484.451899 -1 
L 484.535978 6.508783 
L 484.582819 -1 
L 484.582819 -1 
" clip-path="url(#p287485ca35)" style="fill: none; stroke: #f05b12; stroke-opacity: 0.9; stroke-width: 2; stroke-linecap: square"/>
   </g>
   <g id="line2d_118">
    <path d="M 407.3734 -1 
L 407.443204 4.222355 
L 407.702928 1.278478 
L 407.961734 18.174757 
L 408.219629 69.78916 
L 408.98791 9.928858 
L 409.179739 -1 
M 418.066067 -1 
L 418.080186 -0.277416 
L 418.304856 3.747021 
L 418.37144 -1 
M 430.137521 -1 
L 430.471229 12.213808 
L 430.660976 5.030977 
L 430.850232 11.036375 
L 431.039 6.258909 
L 431.227283 5.968934 
L 431.374034 -1 
M 431.488174 -1 
L 431.602404 2.046551 
L 431.789246 14.131684 
L 431.975618 10.254977 
L 432.076536 -1 
M 432.3297 -1 
L 432.346934 -0.028914 
L 432.379957 -1 
M 437.980681 -1 
L 438.216571 11.631416 
L 438.356181 -1 
M 438.567807 -1 
L 438.727564 8.895637 
L 438.883413 -1 
M 438.931595 -1 
L 439.066257 2.394821 
L 439.172596 -1 
M 441.742358 -1 
L 442.046016 40.642411 
L 442.208056 216.816407 
L 442.369738 51.940293 
L 442.852659 13.656033 
L 443.301195 -1 
M 445.619866 -1 
L 445.839343 12.428692 
L 445.993221 22.68584 
L 446.146769 16.583484 
L 446.299995 19.353285 
L 446.452901 12.764222 
L 446.575305 -1 
M 449.069818 -1 
L 449.299075 9.59401 
L 449.445852 12.803325 
L 449.705045 -1 
M 450.021401 -1 
L 450.03004 -0.877557 
L 450.031723 -1 
M 450.8415 -1 
L 451.041296 5.209051 
L 451.117138 -1 
M 454.173946 -1 
L 454.268967 6.332415 
L 454.342638 -1 
M 455.470378 -1 
L 455.629119 0.863173 
L 455.763756 0.949827 
L 455.898152 14.168929 
L 456.032295 15.800225 
L 456.166193 27.39454 
L 456.433256 91.043817 
L 456.69935 42.506755 
L 456.832035 47.146235 
L 456.96448 46.516285 
L 457.179342 -1 
M 458.359292 -1 
L 458.405791 8.013106 
L 458.535423 8.64734 
L 458.664826 34.848797 
L 459.180164 15.166653 
L 459.308434 21.322312 
L 459.819279 3.305259 
L 459.878508 -1 
M 460.838143 -1 
L 460.955823 29.826586 
L 461.081024 234.420885 
L 461.20601 57.463451 
L 461.330784 49.728107 
L 461.577746 -1 
M 462.018604 -1 
L 462.198297 3.146095 
L 462.321393 4.200537 
L 462.444283 1.980706 
L 462.566973 9.248931 
L 462.689452 1.245241 
L 462.811726 16.032231 
L 462.933796 10.467246 
L 463.055663 10.397493 
L 463.177327 5.420982 
L 463.29879 9.732509 
L 463.420052 18.616052 
L 463.541113 3.658856 
L 463.782637 26.033512 
L 463.903101 37.20161 
L 464.023368 3.860925 
L 464.232204 -1 
M 465.417997 -1 
L 465.451372 3.766795 
L 465.682726 -1 
M 465.687221 -1 
L 466.038251 36.789064 
L 466.155065 80.350549 
L 466.504392 13.138804 
L 466.736361 84.544576 
L 466.967591 29.779824 
L 467.204818 -1 
M 467.748754 -1 
L 467.771195 0.532961 
L 467.882831 -1 
M 468.02163 -1 
L 468.112916 13.196761 
L 468.22647 59.804809 
L 468.453051 44.710264 
L 468.566085 28.93161 
L 468.678939 47.463522 
L 468.791619 25.134952 
L 468.904126 33.712637 
L 469.01646 32.351226 
L 469.352434 21.387893 
L 469.491517 -1 
M 470.935953 -1 
L 471.445213 66.863129 
L 471.55372 49.741171 
L 471.662066 53.787511 
L 471.770253 24.787398 
L 471.986147 54.376161 
L 472.093856 87.911383 
L 472.416042 7.140997 
L 472.533131 -1 
M 472.790332 -1 
L 472.843422 4.47899 
L 472.949878 2.5634 
L 472.979091 -1 
M 473.536094 -1 
L 473.585388 1.119003 
L 473.901088 23.996059 
L 474.006019 27.396699 
L 474.215438 55.745788 
L 474.31992 85.3234 
L 474.528438 26.862501 
L 474.736365 100.043465 
L 474.840107 186.530052 
L 474.943703 27.314357 
L 475.047152 27.941612 
L 475.150456 15.811168 
L 475.562218 55.414988 
L 475.777327 -1 
M 476.14433 -1 
L 476.378869 17.271951 
L 476.480312 25.657687 
L 476.581615 10.784385 
L 476.682778 27.200066 
L 476.783802 25.250801 
L 476.985432 31.242428 
L 477.186509 7.596644 
L 477.286456 -1 
M 478.127998 -1 
L 478.282675 11.880905 
L 478.381517 3.719297 
L 478.480226 4.113404 
L 478.578802 9.82338 
L 478.677246 177.325824 
L 478.775557 30.937289 
L 478.873737 72.807048 
L 478.971785 64.296741 
L 479.069703 84.28999 
L 479.326424 -1 
M 479.982136 -1 
L 480.234617 20.744657 
L 480.330861 63.855472 
L 480.426979 48.797172 
L 480.522972 96.686234 
L 480.618838 33.423694 
L 480.71458 52.163048 
L 480.810196 169.394151 
L 481.062172 -1 
M 482.103466 -1 
L 482.229666 39.70892 
L 482.323326 156.506332 
L 482.510287 31.078445 
L 482.603589 16.587025 
L 482.696773 30.769858 
L 482.882789 3.806393 
L 482.963511 -1 
M 482.980283 -1 
L 483.06833 12.608649 
L 483.253402 119.71984 
L 483.438007 20.387815 
L 483.530135 15.306928 
L 483.622148 21.519791 
L 483.714045 1.475851 
L 483.897494 16.638548 
L 483.959539 -1 
M 484.049667 -1 
L 484.17181 3.268245 
L 484.26302 3.011161 
L 484.336285 -1 
L 484.336285 -1 
" clip-path="url(#p287485ca35)" style="fill: none; stroke: #c32503; stroke-opacity: 0.9; stroke-width: 2; stroke-linecap: square"/>
   </g>
   <g id="line2d_119">
    <path d="M 407.190455 -1 
L 407.443204 26.072006 
L 407.702928 75.62214 
L 407.961734 23.792249 
L 408.219629 10.587821 
L 408.476619 33.786018 
L 408.732711 125.156485 
L 408.98791 136.303422 
L 409.294729 -1 
M 421.242684 -1 
L 421.379944 5.486436 
L 421.492135 -1 
M 427.347078 -1 
L 427.366453 0.588591 
L 427.393139 -1 
M 427.70399 -1 
L 427.761823 3.224175 
L 427.958711 2.033396 
L 428.15507 15.182796 
L 428.304344 -1 
M 429.274989 -1 
L 429.322305 0.190663 
L 429.515047 21.828881 
L 429.665898 -1 
M 431.624322 -1 
L 431.789246 13.788563 
L 431.975618 10.603893 
L 432.161511 9.691299 
L 432.328517 -1 
M 432.363181 -1 
L 432.531889 11.24273 
L 432.643407 -1 
M 437.250794 -1 
L 437.356908 12.781813 
L 437.529648 4.382028 
L 437.701983 5.652774 
L 437.814671 -1 
M 437.999839 -1 
L 438.04544 0.266488 
L 438.216571 0.498853 
L 438.387299 2.118821 
L 438.672722 -1 
M 441.815136 -1 
L 441.883617 2.575407 
L 442.046016 2.278377 
L 442.208056 0.087416 
L 442.369738 17.328188 
L 442.531069 10.486264 
L 442.852659 72.568107 
L 443.012927 32.372833 
L 443.172844 25.587947 
L 443.371959 -1 
M 445.379666 -1 
L 445.53063 19.29075 
L 445.685149 19.780917 
L 445.993221 36.467197 
L 446.146769 24.235165 
L 446.452901 46.282426 
L 446.605489 42.321834 
L 446.909714 9.757364 
L 447.082776 -1 
M 448.447977 -1 
L 448.856968 22.319811 
L 449.004634 20.458359 
L 449.152002 29.827676 
L 449.299075 13.895023 
L 449.445852 24.862403 
L 449.738528 9.94035 
L 449.852158 -1 
M 451.425061 -1 
L 451.47045 2.190787 
L 451.612944 23.209776 
L 451.997863 -1 
M 454.33776 -1 
L 454.543026 9.319214 
L 454.816063 5.915354 
L 454.952201 21.876762 
L 455.088086 16.469572 
L 455.359102 50.689787 
L 455.629119 4.477193 
L 455.898152 45.318531 
L 456.032295 26.365063 
L 456.166193 40.97148 
L 456.433256 33.820866 
L 456.690296 -1 
M 458.553135 -1 
L 458.664826 9.502451 
L 458.794001 8.059573 
L 458.922948 9.575115 
L 459.051669 21.04092 
L 459.180164 10.57815 
L 459.308434 12.561015 
L 459.564302 25.275437 
L 459.914233 -1 
M 460.315759 -1 
L 460.326592 -0.724278 
L 460.452872 -0.57161 
L 460.47678 -1 
M 460.688523 -1 
L 460.704779 -0.728481 
L 460.830409 7.032916 
L 460.955823 5.643559 
L 461.081024 31.495126 
L 461.330784 0.658747 
L 461.370717 -1 
M 462.102886 -1 
L 462.321393 13.454148 
L 462.444283 12.316615 
L 462.566973 19.846175 
L 462.689452 37.403644 
L 462.811726 73.668182 
L 462.933796 146.649645 
L 463.177327 1.013385 
L 463.29879 -0.491849 
L 463.420052 0.910435 
L 463.541113 6.287632 
L 463.658166 -1 
M 463.704482 -1 
L 463.782637 -0.564015 
L 464.023368 18.759899 
L 464.286623 -1 
M 465.196577 -1 
L 465.33343 14.533223 
L 465.451372 34.081419 
L 465.569125 32.028259 
L 465.686688 16.149787 
L 465.804064 24.090179 
L 466.038251 16.434197 
L 466.155065 18.645959 
L 466.271692 16.699259 
L 466.388134 28.793535 
L 466.504392 150.416001 
L 466.620471 37.053129 
L 466.736361 107.036965 
L 467.343258 -1 
M 467.610517 -1 
L 467.771195 14.278169 
L 467.88528 15.372258 
L 467.999186 21.506675 
L 468.112916 16.10012 
L 468.22647 25.038915 
L 468.339848 52.561007 
L 468.566085 4.263502 
L 468.791619 13.129447 
L 468.904126 19.006029 
L 469.01646 32.777383 
L 469.240614 13.54159 
L 469.619878 -1 
M 469.87226 -1 
L 469.908987 1.35995 
L 469.945222 -1 
M 470.644243 -1 
L 470.790775 5.409775 
L 470.881331 -1 
M 470.911828 -1 
L 471.009571 10.311834 
L 471.118725 8.418197 
L 471.445213 93.148333 
L 471.55372 74.331653 
L 471.662066 87.541586 
L 471.770253 73.713699 
L 471.878279 120.68126 
L 472.093856 27.456035 
L 472.3088 14.307802 
L 472.416042 28.097142 
L 472.73681 5.604844 
L 472.843422 7.034438 
L 472.943679 -1 
M 473.093064 -1 
L 473.268323 11.237743 
L 473.479852 33.509493 
L 473.585388 28.399327 
L 473.690773 65.477875 
L 473.796006 62.70404 
L 473.901088 48.083395 
L 474.006019 277.125737 
L 474.215438 64.113316 
L 474.31992 69.399157 
L 474.424253 98.403913 
L 474.632475 35.672007 
L 474.840107 5.031249 
L 475.150456 22.812978 
L 475.253614 15.055346 
L 475.459494 33.039963 
L 475.562218 27.163515 
L 475.664798 27.963402 
L 475.869528 4.184634 
L 476.17556 18.871444 
L 476.277285 35.593291 
L 476.378869 33.433961 
L 476.480312 13.594887 
L 476.581615 41.171105 
L 476.884686 24.974953 
L 476.985432 20.990369 
L 477.186509 1.500679 
L 477.28684 -0.130672 
L 477.487092 21.810578 
L 477.587013 19.404596 
L 477.686798 7.059126 
L 477.786453 10.520504 
L 477.885966 18.633419 
L 477.985345 14.786697 
L 478.094559 -1 
M 478.780155 -1 
L 478.873737 7.960113 
L 479.0192 -1 
M 479.259274 -1 
L 479.265145 -0.651277 
L 479.460073 42.857198 
L 479.55734 18.553878 
L 479.945122 149.134648 
L 480.138245 51.456411 
L 480.330861 21.582331 
L 480.522972 55.657507 
L 480.71458 12.277021 
L 480.810196 2.629755 
L 480.905688 10.098501 
L 481.001055 6.55476 
L 481.049276 -1 
M 482.186226 -1 
L 482.229666 0.213153 
L 482.323326 24.83267 
L 482.416866 149.648598 
L 482.603589 22.561052 
L 482.695935 -1 
M 482.929323 -1 
L 483.345762 66.332799 
L 483.438007 63.810632 
L 483.663942 -1 
L 483.663942 -1 
" clip-path="url(#p287485ca35)" style="fill: none; stroke: #7a0403; stroke-opacity: 0.9; stroke-width: 2; stroke-linecap: square"/>
   </g>
   <g id="patch_3">
    <path d="M 70.498341 323.029571 
L 70.498341 7.2 
" style="fill: none; stroke: #000000; stroke-width: 1.5; stroke-linejoin: miter; stroke-linecap: square"/>
   </g>
   <g id="patch_4">
    <path d="M 476.64 323.029571 
L 476.64 7.2 
" style="fill: none; stroke: #000000; stroke-width: 1.5; stroke-linejoin: miter; stroke-linecap: square"/>
   </g>
   <g id="patch_5">
    <path d="M 70.498341 323.029571 
L 476.64 323.029571 
" style="fill: none; stroke: #000000; stroke-width: 1.5; stroke-linejoin: miter; stroke-linecap: square"/>
   </g>
   <g id="patch_6">
    <path d="M 70.498341 7.2 
L 476.64 7.2 
" style="fill: none; stroke: #000000; stroke-width: 1.5; stroke-linejoin: miter; stroke-linecap: square"/>
   </g>
   <g id="legend_1">
    <g id="patch_7">
     <path d="M 80.298341 135.47217 
L 312.560493 135.47217 
Q 315.360493 135.47217 315.360493 132.67217 
L 315.360493 17 
Q 315.360493 14.2 312.560493 14.2 
L 80.298341 14.2 
Q 77.498341 14.2 77.498341 17 
L 77.498341 132.67217 
Q 77.498341 135.47217 80.298341 135.47217 
z
" style="fill: #ffffff; opacity: 0.9; stroke: #000000; stroke-linejoin: miter"/>
    </g>
    <g id="line2d_120">
     <path d="M 83.098341 24.7 
L 97.098341 24.7 
L 111.098341 24.7 
" style="fill: none; stroke: #30123b; stroke-opacity: 0.9; stroke-width: 2; stroke-linecap: square"/>
    </g>
    <g id="text_9">
     <!-- $\eta=0$ -->
     <g transform="translate(122.298341 29.6) scale(0.14 -0.14)">
      <defs>
       <path id="CMMI12-11" d="M 3040 1768 
C 3072 1895 3091 1973 3091 2145 
C 3091 2528 2867 2815 2381 2815 
C 1811 2815 1510 2413 1395 2254 
C 1376 2618 1114 2815 832 2815 
C 646 2815 499 2726 378 2483 
C 262 2254 173 1864 173 1839 
C 173 1813 198 1781 243 1781 
C 294 1781 301 1788 339 1934 
C 435 2311 557 2688 813 2688 
C 960 2688 1011 2586 1011 2394 
C 1011 2254 947 2005 902 1807 
L 723 1118 
C 698 996 627 709 595 593 
C 550 428 480 127 480 96 
C 480 6 550 -64 646 -64 
C 723 -64 813 -25 864 70 
C 877 102 934 326 966 453 
L 1107 1028 
L 1318 1871 
C 1331 1909 1491 2228 1728 2432 
C 1894 2586 2112 2688 2362 2688 
C 2618 2688 2707 2496 2707 2241 
C 2707 2055 2682 1953 2650 1831 
L 1907 -1107 
C 1901 -1139 1888 -1177 1888 -1216 
C 1888 -1312 1965 -1376 2061 -1376 
C 2118 -1376 2253 -1350 2304 -1158 
L 3040 1768 
z
" transform="scale(0.015625)"/>
       <path id="CMR17-3d" d="M 4115 2017 
C 4211 2017 4307 2017 4307 2125 
C 4307 2240 4198 2240 4090 2240 
L 512 2240 
C 403 2240 294 2240 294 2125 
C 294 2017 390 2017 486 2017 
L 4115 2017 
z
M 4090 896 
C 4198 896 4307 896 4307 1011 
C 4307 1119 4211 1119 4115 1119 
L 486 1119 
C 390 1119 294 1119 294 1011 
C 294 896 403 896 512 896 
L 4090 896 
z
" transform="scale(0.015625)"/>
      </defs>
      <use xlink:href="#CMMI12-11" transform="scale(0.996264)"/>
      <use xlink:href="#CMR17-3d" transform="translate(79.377824 0) scale(0.996264)"/>
      <use xlink:href="#CMR17-30" transform="translate(178.766622 0) scale(0.996264)"/>
     </g>
    </g>
    <g id="line2d_121">
     <path d="M 83.098341 44.212028 
L 97.098341 44.212028 
L 111.098341 44.212028 
" style="fill: none; stroke: #4559cb; stroke-opacity: 0.9; stroke-width: 2; stroke-linecap: square"/>
    </g>
    <g id="text_10">
     <!-- $\eta=0.01$ -->
     <g transform="translate(122.298341 49.112028) scale(0.14 -0.14)">
      <defs>
       <path id="CMMI12-3a" d="M 1178 307 
C 1178 492 1024 619 870 619 
C 685 619 557 466 557 313 
C 557 128 710 0 864 0 
C 1050 0 1178 153 1178 307 
z
" transform="scale(0.015625)"/>
      </defs>
      <use xlink:href="#CMMI12-11" transform="scale(0.996264)"/>
      <use xlink:href="#CMR17-3d" transform="translate(79.377824 0) scale(0.996264)"/>
      <use xlink:href="#CMR17-30" transform="translate(178.766622 0) scale(0.996264)"/>
      <use xlink:href="#CMMI12-3a" transform="translate(224.457099 0) scale(0.996264)"/>
      <use xlink:href="#CMR17-30" transform="translate(251.554276 0) scale(0.996264)"/>
      <use xlink:href="#CMR17-31" transform="translate(297.244753 0) scale(0.996264)"/>
     </g>
    </g>
    <g id="line2d_122">
     <path d="M 83.098341 63.724057 
L 97.098341 63.724057 
L 111.098341 63.724057 
" style="fill: none; stroke: #3e9bfe; stroke-opacity: 0.9; stroke-width: 2; stroke-linecap: square"/>
    </g>
    <g id="text_11">
     <!-- $\eta=0.018$ -->
     <g transform="translate(122.298341 68.624057) scale(0.14 -0.14)">
      <defs>
       <path id="CMR17-38" d="M 1741 2264 
C 2144 2467 2554 2773 2554 3263 
C 2554 3841 1990 4179 1472 4179 
C 890 4179 378 3759 378 3180 
C 378 3021 416 2747 666 2505 
C 730 2442 998 2251 1171 2130 
C 883 1983 211 1634 211 934 
C 211 279 838 -128 1459 -128 
C 2144 -128 2720 362 2720 1010 
C 2720 1590 2330 1857 2074 2029 
L 1741 2264 
z
M 902 2822 
C 851 2854 595 3051 595 3351 
C 595 3739 998 4032 1459 4032 
C 1965 4032 2336 3676 2336 3262 
C 2336 2669 1670 2331 1638 2331 
C 1632 2331 1626 2331 1574 2370 
L 902 2822 
z
M 2080 1519 
C 2176 1449 2483 1240 2483 851 
C 2483 381 2010 25 1472 25 
C 890 25 448 438 448 940 
C 448 1443 838 1862 1280 2060 
L 2080 1519 
z
" transform="scale(0.015625)"/>
      </defs>
      <use xlink:href="#CMMI12-11" transform="scale(0.996264)"/>
      <use xlink:href="#CMR17-3d" transform="translate(79.377824 0) scale(0.996264)"/>
      <use xlink:href="#CMR17-30" transform="translate(178.766622 0) scale(0.996264)"/>
      <use xlink:href="#CMMI12-3a" transform="translate(224.457099 0) scale(0.996264)"/>
      <use xlink:href="#CMR17-30" transform="translate(251.554276 0) scale(0.996264)"/>
      <use xlink:href="#CMR17-31" transform="translate(297.244753 0) scale(0.996264)"/>
      <use xlink:href="#CMR17-38" transform="translate(342.93523 0) scale(0.996264)"/>
     </g>
    </g>
    <g id="line2d_123">
     <path d="M 83.098341 83.236085 
L 97.098341 83.236085 
L 111.098341 83.236085 
" style="fill: none; stroke: #19d5cd; stroke-opacity: 0.9; stroke-width: 2; stroke-linecap: square"/>
    </g>
    <g id="text_12">
     <!-- $\eta=0.0325$ -->
     <g transform="translate(122.298341 88.136085) scale(0.14 -0.14)">
      <defs>
       <path id="CMR17-35" d="M 730 3692 
C 794 3666 1056 3584 1325 3584 
C 1920 3584 2246 3911 2432 4100 
C 2432 4157 2432 4192 2394 4192 
C 2387 4192 2374 4192 2323 4163 
C 2099 4058 1837 3973 1517 3973 
C 1325 3973 1037 3999 723 4139 
C 653 4171 640 4171 634 4171 
C 602 4171 595 4164 595 4037 
L 595 2203 
C 595 2089 595 2057 659 2057 
C 691 2057 704 2070 736 2114 
C 941 2401 1222 2522 1542 2522 
C 1766 2522 2246 2382 2246 1289 
C 2246 1085 2246 715 2054 421 
C 1894 159 1645 25 1370 25 
C 947 25 518 320 403 814 
C 429 807 480 795 506 795 
C 589 795 749 840 749 1038 
C 749 1210 627 1280 506 1280 
C 358 1280 262 1190 262 1011 
C 262 454 704 -128 1382 -128 
C 2042 -128 2669 440 2669 1264 
C 2669 2030 2170 2624 1549 2624 
C 1222 2624 947 2503 730 2274 
L 730 3692 
z
" transform="scale(0.015625)"/>
      </defs>
      <use xlink:href="#CMMI12-11" transform="scale(0.996264)"/>
      <use xlink:href="#CMR17-3d" transform="translate(79.377824 0) scale(0.996264)"/>
      <use xlink:href="#CMR17-30" transform="translate(178.766622 0) scale(0.996264)"/>
      <use xlink:href="#CMMI12-3a" transform="translate(224.457099 0) scale(0.996264)"/>
      <use xlink:href="#CMR17-30" transform="translate(251.554276 0) scale(0.996264)"/>
      <use xlink:href="#CMR17-33" transform="translate(297.244753 0) scale(0.996264)"/>
      <use xlink:href="#CMR17-32" transform="translate(342.93523 0) scale(0.996264)"/>
      <use xlink:href="#CMR17-35" transform="translate(388.625707 0) scale(0.996264)"/>
     </g>
    </g>
    <g id="line2d_124">
     <path d="M 83.098341 102.748114 
L 97.098341 102.748114 
L 111.098341 102.748114 
" style="fill: none; stroke: #46f884; stroke-opacity: 0.9; stroke-width: 2; stroke-linecap: square"/>
    </g>
    <g id="text_13">
     <!-- $\eta=0.0585$ -->
     <g transform="translate(122.298341 107.648114) scale(0.14 -0.14)">
      <use xlink:href="#CMMI12-11" transform="scale(0.996264)"/>
      <use xlink:href="#CMR17-3d" transform="translate(79.377824 0) scale(0.996264)"/>
      <use xlink:href="#CMR17-30" transform="translate(178.766622 0) scale(0.996264)"/>
      <use xlink:href="#CMMI12-3a" transform="translate(224.457099 0) scale(0.996264)"/>
      <use xlink:href="#CMR17-30" transform="translate(251.554276 0) scale(0.996264)"/>
      <use xlink:href="#CMR17-35" transform="translate(297.244753 0) scale(0.996264)"/>
      <use xlink:href="#CMR17-38" transform="translate(342.93523 0) scale(0.996264)"/>
      <use xlink:href="#CMR17-35" transform="translate(388.625707 0) scale(0.996264)"/>
     </g>
    </g>
    <g id="line2d_125">
     <path d="M 83.098341 122.260142 
L 97.098341 122.260142 
L 111.098341 122.260142 
" style="fill: none; stroke: #a4fc3c; stroke-opacity: 0.9; stroke-width: 2; stroke-linecap: square"/>
    </g>
    <g id="text_14">
     <!-- $\eta=0.105$ -->
     <g transform="translate(122.298341 127.160142) scale(0.14 -0.14)">
      <use xlink:href="#CMMI12-11" transform="scale(0.996264)"/>
      <use xlink:href="#CMR17-3d" transform="translate(79.377824 0) scale(0.996264)"/>
      <use xlink:href="#CMR17-30" transform="translate(178.766622 0) scale(0.996264)"/>
      <use xlink:href="#CMMI12-3a" transform="translate(224.457099 0) scale(0.996264)"/>
      <use xlink:href="#CMR17-31" transform="translate(251.554276 0) scale(0.996264)"/>
      <use xlink:href="#CMR17-30" transform="translate(297.244753 0) scale(0.996264)"/>
      <use xlink:href="#CMR17-35" transform="translate(342.93523 0) scale(0.996264)"/>
     </g>
    </g>
    <g id="line2d_126">
     <path d="M 213.843661 24.7 
L 227.843661 24.7 
L 241.843661 24.7 
" style="fill: none; stroke: #e1dd37; stroke-opacity: 0.9; stroke-width: 2; stroke-linecap: square"/>
    </g>
    <g id="text_15">
     <!-- $\eta=0.19$ -->
     <g transform="translate(253.043661 29.6) scale(0.14 -0.14)">
      <defs>
       <path id="CMR17-39" d="M 2253 1864 
C 2253 464 1670 31 1190 31 
C 1043 31 685 31 538 294 
C 704 268 826 357 826 518 
C 826 692 685 749 595 749 
C 538 749 365 723 365 506 
C 365 71 742 -128 1203 -128 
C 1939 -128 2688 674 2688 2073 
C 2688 3817 1971 4179 1485 4179 
C 851 4179 243 3628 243 2778 
C 243 1991 762 1408 1414 1408 
C 1952 1408 2189 1903 2253 2112 
L 2253 1864 
z
M 1427 1510 
C 1254 1510 1011 1542 813 1922 
C 678 2169 678 2461 678 2771 
C 678 3146 678 3405 858 3684 
C 947 3817 1114 4032 1485 4032 
C 2240 4032 2240 2885 2240 2632 
C 2240 2182 2035 1510 1427 1510 
z
" transform="scale(0.015625)"/>
      </defs>
      <use xlink:href="#CMMI12-11" transform="scale(0.996264)"/>
      <use xlink:href="#CMR17-3d" transform="translate(79.377824 0) scale(0.996264)"/>
      <use xlink:href="#CMR17-30" transform="translate(178.766622 0) scale(0.996264)"/>
      <use xlink:href="#CMMI12-3a" transform="translate(224.457099 0) scale(0.996264)"/>
      <use xlink:href="#CMR17-31" transform="translate(251.554276 0) scale(0.996264)"/>
      <use xlink:href="#CMR17-39" transform="translate(297.244753 0) scale(0.996264)"/>
     </g>
    </g>
    <g id="line2d_127">
     <path d="M 213.843661 44.212028 
L 227.843661 44.212028 
L 241.843661 44.212028 
" style="fill: none; stroke: #fea431; stroke-opacity: 0.9; stroke-width: 2; stroke-linecap: square"/>
    </g>
    <g id="text_16">
     <!-- $\eta=0.342$ -->
     <g transform="translate(253.043661 49.112028) scale(0.14 -0.14)">
      <use xlink:href="#CMMI12-11" transform="scale(0.996264)"/>
      <use xlink:href="#CMR17-3d" transform="translate(79.377824 0) scale(0.996264)"/>
      <use xlink:href="#CMR17-30" transform="translate(178.766622 0) scale(0.996264)"/>
      <use xlink:href="#CMMI12-3a" transform="translate(224.457099 0) scale(0.996264)"/>
      <use xlink:href="#CMR17-33" transform="translate(251.554276 0) scale(0.996264)"/>
      <use xlink:href="#CMR17-34" transform="translate(297.244753 0) scale(0.996264)"/>
      <use xlink:href="#CMR17-32" transform="translate(342.93523 0) scale(0.996264)"/>
     </g>
    </g>
    <g id="line2d_128">
     <path d="M 213.843661 63.724057 
L 227.843661 63.724057 
L 241.843661 63.724057 
" style="fill: none; stroke: #f05b12; stroke-opacity: 0.9; stroke-width: 2; stroke-linecap: square"/>
    </g>
    <g id="text_17">
     <!-- $\eta=0.616$ -->
     <g transform="translate(253.043661 68.624057) scale(0.14 -0.14)">
      <defs>
       <path id="CMR17-36" d="M 678 2176 
C 678 3690 1395 4032 1811 4032 
C 1946 4032 2272 4009 2400 3776 
C 2298 3776 2106 3776 2106 3553 
C 2106 3381 2246 3323 2336 3323 
C 2394 3323 2566 3348 2566 3560 
C 2566 3954 2246 4179 1805 4179 
C 1043 4179 243 3390 243 1984 
C 243 253 966 -128 1478 -128 
C 2099 -128 2688 427 2688 1283 
C 2688 2081 2170 2662 1517 2662 
C 1126 2662 838 2407 678 1960 
L 678 2176 
z
M 1478 25 
C 691 25 691 1200 691 1436 
C 691 1896 909 2560 1504 2560 
C 1613 2560 1926 2560 2138 2120 
C 2253 1870 2253 1609 2253 1289 
C 2253 944 2253 690 2118 434 
C 1978 171 1773 25 1478 25 
z
" transform="scale(0.015625)"/>
      </defs>
      <use xlink:href="#CMMI12-11" transform="scale(0.996264)"/>
      <use xlink:href="#CMR17-3d" transform="translate(79.377824 0) scale(0.996264)"/>
      <use xlink:href="#CMR17-30" transform="translate(178.766622 0) scale(0.996264)"/>
      <use xlink:href="#CMMI12-3a" transform="translate(224.457099 0) scale(0.996264)"/>
      <use xlink:href="#CMR17-36" transform="translate(251.554276 0) scale(0.996264)"/>
      <use xlink:href="#CMR17-31" transform="translate(297.244753 0) scale(0.996264)"/>
      <use xlink:href="#CMR17-36" transform="translate(342.93523 0) scale(0.996264)"/>
     </g>
    </g>
    <g id="line2d_129">
     <path d="M 213.843661 83.236085 
L 227.843661 83.236085 
L 241.843661 83.236085 
" style="fill: none; stroke: #c32503; stroke-opacity: 0.9; stroke-width: 2; stroke-linecap: square"/>
    </g>
    <g id="text_18">
     <!-- $\eta=1.11$ -->
     <g transform="translate(253.043661 88.136085) scale(0.14 -0.14)">
      <use xlink:href="#CMMI12-11" transform="scale(0.996264)"/>
      <use xlink:href="#CMR17-3d" transform="translate(79.377824 0) scale(0.996264)"/>
      <use xlink:href="#CMR17-31" transform="translate(178.766622 0) scale(0.996264)"/>
      <use xlink:href="#CMMI12-3a" transform="translate(224.457099 0) scale(0.996264)"/>
      <use xlink:href="#CMR17-31" transform="translate(251.554276 0) scale(0.996264)"/>
      <use xlink:href="#CMR17-31" transform="translate(297.244753 0) scale(0.996264)"/>
     </g>
    </g>
    <g id="line2d_130">
     <path d="M 213.843661 102.748114 
L 227.843661 102.748114 
L 241.843661 102.748114 
" style="fill: none; stroke: #7a0403; stroke-opacity: 0.9; stroke-width: 2; stroke-linecap: square"/>
    </g>
    <g id="text_19">
     <!-- $\eta=2$ -->
     <g transform="translate(253.043661 107.648114) scale(0.14 -0.14)">
      <use xlink:href="#CMMI12-11" transform="scale(0.996264)"/>
      <use xlink:href="#CMR17-3d" transform="translate(79.377824 0) scale(0.996264)"/>
      <use xlink:href="#CMR17-32" transform="translate(178.766622 0) scale(0.996264)"/>
     </g>
    </g>
   </g>
  </g>
 </g>
 <defs>
  <clipPath id="p287485ca35">
   <rect x="70.498341" y="7.2" width="406.141659" height="315.829571"/>
  </clipPath>
 </defs>
</svg>
