<?xml version="1.0" encoding="utf-8" standalone="no"?>
<!DOCTYPE svg PUBLIC "-//W3C//DTD SVG 1.1//EN"
  "http://www.w3.org/Graphics/SVG/1.1/DTD/svg11.dtd">
<svg xmlns:xlink="http://www.w3.org/1999/xlink" width="488.16pt" height="272.16pt" viewBox="0 0 488.16 272.16" xmlns="http://www.w3.org/2000/svg" version="1.1">
 <metadata>
  <rdf:RDF xmlns:dc="http://purl.org/dc/elements/1.1/" xmlns:cc="http://creativecommons.org/ns#" xmlns:rdf="http://www.w3.org/1999/02/22-rdf-syntax-ns#">
   <cc:Work>
    <dc:type rdf:resource="http://purl.org/dc/dcmitype/StillImage"/>
    <dc:date>2026-02-14T21:48:48.668578</dc:date>
    <dc:format>image/svg+xml</dc:format>
    <dc:creator>
     <cc:Agent>
      <dc:title>Matplotlib v3.8.4, https://matplotlib.org/</dc:title>
     </cc:Agent>
    </dc:creator>
   </cc:Work>
  </rdf:RDF>
 </metadata>
 <defs>
  <style type="text/css">*{stroke-linejoin: round; stroke-linecap: butt}</style>
 </defs>
 <g id="figure_1">
  <g id="patch_1">
   <path d="M 0 272.16 
L 488.16 272.16 
L 488.16 0 
L 0 0 
z
" style="fill: #ffffff"/>
  </g>
  <g id="axes_1">
   <g id="patch_2">
    <path d="M 55.126495 232.66419 
L 480.96 232.66419 
L 480.96 7.2 
L 55.126495 7.2 
z
" style="fill: #ffffff"/>
   </g>
   <g id="matplotlib.axis_1">
    <g id="xtick_1">
     <g id="line2d_1">
      <defs>
       <path id="m35d78e4b46" d="M 0 0 
L 0 -6 
" style="stroke: #000000; stroke-width: 0.8"/>
      </defs>
      <g>
       <use xlink:href="#m35d78e4b46" x="147.908437" y="232.66419" style="stroke: #000000; stroke-width: 0.8"/>
      </g>
     </g>
     <g id="line2d_2">
      <defs>
       <path id="m4d7ef9a7b5" d="M 0 0 
L 0 6 
" style="stroke: #000000; stroke-width: 0.8"/>
      </defs>
      <g>
       <use xlink:href="#m4d7ef9a7b5" x="147.908437" y="7.2" style="stroke: #000000; stroke-width: 0.8"/>
      </g>
     </g>
     <g id="text_1">
      <!-- $\mathdefault{10^{1}}$ -->
      <g transform="translate(138.571335 245.850067) scale(0.14 -0.14)">
       <defs>
        <path id="CMR17-31" d="M 1702 4058 
C 1702 4192 1696 4192 1606 4192 
C 1357 3916 979 3827 621 3827 
C 602 3827 570 3827 563 3808 
C 557 3795 557 3782 557 3648 
C 755 3648 1088 3686 1344 3839 
L 1344 461 
C 1344 236 1331 160 781 160 
L 589 160 
L 589 0 
C 896 0 1216 0 1523 0 
C 1830 0 2150 0 2458 0 
L 2458 160 
L 2266 160 
C 1715 160 1702 230 1702 458 
L 1702 4058 
z
" transform="scale(0.015625)"/>
        <path id="CMR17-30" d="M 2688 2025 
C 2688 2416 2682 3080 2413 3591 
C 2176 4039 1798 4198 1466 4198 
C 1158 4198 768 4058 525 3597 
C 269 3118 243 2524 243 2025 
C 243 1661 250 1106 448 619 
C 723 -39 1216 -128 1466 -128 
C 1760 -128 2208 -7 2470 600 
C 2662 1042 2688 1559 2688 2025 
z
M 1466 -26 
C 1056 -26 813 325 723 812 
C 653 1188 653 1738 653 2096 
C 653 2588 653 2997 736 3387 
C 858 3929 1216 4096 1466 4096 
C 1728 4096 2067 3923 2189 3400 
C 2272 3036 2278 2607 2278 2096 
C 2278 1680 2278 1169 2202 792 
C 2067 95 1690 -26 1466 -26 
z
" transform="scale(0.015625)"/>
       </defs>
       <use xlink:href="#CMR17-31" transform="scale(0.996264)"/>
       <use xlink:href="#CMR17-30" transform="translate(45.690477 0) scale(0.996264)"/>
       <use xlink:href="#CMR17-31" transform="translate(91.380954 36.153639) scale(0.697382)"/>
      </g>
     </g>
    </g>
    <g id="xtick_2">
     <g id="line2d_3">
      <g>
       <use xlink:href="#m35d78e4b46" x="289.914704" y="232.66419" style="stroke: #000000; stroke-width: 0.8"/>
      </g>
     </g>
     <g id="line2d_4">
      <g>
       <use xlink:href="#m4d7ef9a7b5" x="289.914704" y="7.2" style="stroke: #000000; stroke-width: 0.8"/>
      </g>
     </g>
     <g id="text_2">
      <!-- $\mathdefault{10^{2}}$ -->
      <g transform="translate(280.577602 245.850067) scale(0.14 -0.14)">
       <defs>
        <path id="CMR17-32" d="M 2669 989 
L 2554 989 
C 2490 536 2438 459 2413 420 
C 2381 369 1920 369 1830 369 
L 602 369 
C 832 619 1280 1072 1824 1597 
C 2214 1967 2669 2402 2669 3035 
C 2669 3790 2067 4224 1395 4224 
C 691 4224 262 3604 262 3030 
C 262 2780 448 2748 525 2748 
C 589 2748 781 2787 781 3010 
C 781 3207 614 3264 525 3264 
C 486 3264 448 3258 422 3245 
C 544 3790 915 4058 1306 4058 
C 1862 4058 2227 3617 2227 3035 
C 2227 2479 1901 2000 1536 1584 
L 262 146 
L 262 0 
L 2515 0 
L 2669 989 
z
" transform="scale(0.015625)"/>
       </defs>
       <use xlink:href="#CMR17-31" transform="scale(0.996264)"/>
       <use xlink:href="#CMR17-30" transform="translate(45.690477 0) scale(0.996264)"/>
       <use xlink:href="#CMR17-32" transform="translate(91.380954 36.153639) scale(0.697382)"/>
      </g>
     </g>
    </g>
    <g id="xtick_3">
     <g id="line2d_5">
      <g>
       <use xlink:href="#m35d78e4b46" x="431.920971" y="232.66419" style="stroke: #000000; stroke-width: 0.8"/>
      </g>
     </g>
     <g id="line2d_6">
      <g>
       <use xlink:href="#m4d7ef9a7b5" x="431.920971" y="7.2" style="stroke: #000000; stroke-width: 0.8"/>
      </g>
     </g>
     <g id="text_3">
      <!-- $\mathdefault{10^{3}}$ -->
      <g transform="translate(422.583869 245.850067) scale(0.14 -0.14)">
       <defs>
        <path id="CMR17-33" d="M 1414 2157 
C 1984 2157 2234 1662 2234 1090 
C 2234 320 1824 25 1453 25 
C 1114 25 563 194 390 693 
C 422 680 454 680 486 680 
C 640 680 755 782 755 948 
C 755 1133 614 1216 486 1216 
C 378 1216 211 1165 211 926 
C 211 335 787 -128 1466 -128 
C 2176 -128 2720 430 2720 1085 
C 2720 1707 2208 2157 1600 2227 
C 2086 2328 2554 2756 2554 3329 
C 2554 3820 2048 4179 1472 4179 
C 890 4179 378 3829 378 3329 
C 378 3110 544 3072 627 3072 
C 762 3072 877 3155 877 3321 
C 877 3486 762 3569 627 3569 
C 602 3569 570 3569 544 3557 
C 730 3959 1235 4032 1459 4032 
C 1683 4032 2106 3925 2106 3320 
C 2106 3143 2080 2828 1862 2550 
C 1670 2304 1453 2304 1242 2284 
C 1210 2284 1062 2269 1037 2269 
C 992 2263 966 2257 966 2208 
C 966 2163 973 2157 1101 2157 
L 1414 2157 
z
" transform="scale(0.015625)"/>
       </defs>
       <use xlink:href="#CMR17-31" transform="scale(0.996264)"/>
       <use xlink:href="#CMR17-30" transform="translate(45.690477 0) scale(0.996264)"/>
       <use xlink:href="#CMR17-33" transform="translate(91.380954 36.153639) scale(0.697382)"/>
      </g>
     </g>
    </g>
    <g id="xtick_4">
     <g id="line2d_7">
      <defs>
       <path id="m065ccfb649" d="M 0 0 
L 0 -3 
" style="stroke: #000000; stroke-width: 0.6"/>
      </defs>
      <g>
       <use xlink:href="#m065ccfb649" x="73.656379" y="232.66419" style="stroke: #000000; stroke-width: 0.6"/>
      </g>
     </g>
     <g id="line2d_8">
      <defs>
       <path id="m7d1bc106b9" d="M 0 0 
L 0 3 
" style="stroke: #000000; stroke-width: 0.6"/>
      </defs>
      <g>
       <use xlink:href="#m7d1bc106b9" x="73.656379" y="7.2" style="stroke: #000000; stroke-width: 0.6"/>
      </g>
     </g>
    </g>
    <g id="xtick_5">
     <g id="line2d_9">
      <g>
       <use xlink:href="#m065ccfb649" x="91.398462" y="232.66419" style="stroke: #000000; stroke-width: 0.6"/>
      </g>
     </g>
     <g id="line2d_10">
      <g>
       <use xlink:href="#m7d1bc106b9" x="91.398462" y="7.2" style="stroke: #000000; stroke-width: 0.6"/>
      </g>
     </g>
    </g>
    <g id="xtick_6">
     <g id="line2d_11">
      <g>
       <use xlink:href="#m065ccfb649" x="105.160292" y="232.66419" style="stroke: #000000; stroke-width: 0.6"/>
      </g>
     </g>
     <g id="line2d_12">
      <g>
       <use xlink:href="#m7d1bc106b9" x="105.160292" y="7.2" style="stroke: #000000; stroke-width: 0.6"/>
      </g>
     </g>
    </g>
    <g id="xtick_7">
     <g id="line2d_13">
      <g>
       <use xlink:href="#m065ccfb649" x="116.404525" y="232.66419" style="stroke: #000000; stroke-width: 0.6"/>
      </g>
     </g>
     <g id="line2d_14">
      <g>
       <use xlink:href="#m7d1bc106b9" x="116.404525" y="7.2" style="stroke: #000000; stroke-width: 0.6"/>
      </g>
     </g>
    </g>
    <g id="xtick_8">
     <g id="line2d_15">
      <g>
       <use xlink:href="#m065ccfb649" x="125.911388" y="232.66419" style="stroke: #000000; stroke-width: 0.6"/>
      </g>
     </g>
     <g id="line2d_16">
      <g>
       <use xlink:href="#m7d1bc106b9" x="125.911388" y="7.2" style="stroke: #000000; stroke-width: 0.6"/>
      </g>
     </g>
    </g>
    <g id="xtick_9">
     <g id="line2d_17">
      <g>
       <use xlink:href="#m065ccfb649" x="134.146608" y="232.66419" style="stroke: #000000; stroke-width: 0.6"/>
      </g>
     </g>
     <g id="line2d_18">
      <g>
       <use xlink:href="#m7d1bc106b9" x="134.146608" y="7.2" style="stroke: #000000; stroke-width: 0.6"/>
      </g>
     </g>
    </g>
    <g id="xtick_10">
     <g id="line2d_19">
      <g>
       <use xlink:href="#m065ccfb649" x="141.410587" y="232.66419" style="stroke: #000000; stroke-width: 0.6"/>
      </g>
     </g>
     <g id="line2d_20">
      <g>
       <use xlink:href="#m7d1bc106b9" x="141.410587" y="7.2" style="stroke: #000000; stroke-width: 0.6"/>
      </g>
     </g>
    </g>
    <g id="xtick_11">
     <g id="line2d_21">
      <g>
       <use xlink:href="#m065ccfb649" x="190.656583" y="232.66419" style="stroke: #000000; stroke-width: 0.6"/>
      </g>
     </g>
     <g id="line2d_22">
      <g>
       <use xlink:href="#m7d1bc106b9" x="190.656583" y="7.2" style="stroke: #000000; stroke-width: 0.6"/>
      </g>
     </g>
    </g>
    <g id="xtick_12">
     <g id="line2d_23">
      <g>
       <use xlink:href="#m065ccfb649" x="215.662646" y="232.66419" style="stroke: #000000; stroke-width: 0.6"/>
      </g>
     </g>
     <g id="line2d_24">
      <g>
       <use xlink:href="#m7d1bc106b9" x="215.662646" y="7.2" style="stroke: #000000; stroke-width: 0.6"/>
      </g>
     </g>
    </g>
    <g id="xtick_13">
     <g id="line2d_25">
      <g>
       <use xlink:href="#m065ccfb649" x="233.404729" y="232.66419" style="stroke: #000000; stroke-width: 0.6"/>
      </g>
     </g>
     <g id="line2d_26">
      <g>
       <use xlink:href="#m7d1bc106b9" x="233.404729" y="7.2" style="stroke: #000000; stroke-width: 0.6"/>
      </g>
     </g>
    </g>
    <g id="xtick_14">
     <g id="line2d_27">
      <g>
       <use xlink:href="#m065ccfb649" x="247.166558" y="232.66419" style="stroke: #000000; stroke-width: 0.6"/>
      </g>
     </g>
     <g id="line2d_28">
      <g>
       <use xlink:href="#m7d1bc106b9" x="247.166558" y="7.2" style="stroke: #000000; stroke-width: 0.6"/>
      </g>
     </g>
    </g>
    <g id="xtick_15">
     <g id="line2d_29">
      <g>
       <use xlink:href="#m065ccfb649" x="258.410792" y="232.66419" style="stroke: #000000; stroke-width: 0.6"/>
      </g>
     </g>
     <g id="line2d_30">
      <g>
       <use xlink:href="#m7d1bc106b9" x="258.410792" y="7.2" style="stroke: #000000; stroke-width: 0.6"/>
      </g>
     </g>
    </g>
    <g id="xtick_16">
     <g id="line2d_31">
      <g>
       <use xlink:href="#m065ccfb649" x="267.917655" y="232.66419" style="stroke: #000000; stroke-width: 0.6"/>
      </g>
     </g>
     <g id="line2d_32">
      <g>
       <use xlink:href="#m7d1bc106b9" x="267.917655" y="7.2" style="stroke: #000000; stroke-width: 0.6"/>
      </g>
     </g>
    </g>
    <g id="xtick_17">
     <g id="line2d_33">
      <g>
       <use xlink:href="#m065ccfb649" x="276.152875" y="232.66419" style="stroke: #000000; stroke-width: 0.6"/>
      </g>
     </g>
     <g id="line2d_34">
      <g>
       <use xlink:href="#m7d1bc106b9" x="276.152875" y="7.2" style="stroke: #000000; stroke-width: 0.6"/>
      </g>
     </g>
    </g>
    <g id="xtick_18">
     <g id="line2d_35">
      <g>
       <use xlink:href="#m065ccfb649" x="283.416854" y="232.66419" style="stroke: #000000; stroke-width: 0.6"/>
      </g>
     </g>
     <g id="line2d_36">
      <g>
       <use xlink:href="#m7d1bc106b9" x="283.416854" y="7.2" style="stroke: #000000; stroke-width: 0.6"/>
      </g>
     </g>
    </g>
    <g id="xtick_19">
     <g id="line2d_37">
      <g>
       <use xlink:href="#m065ccfb649" x="332.66285" y="232.66419" style="stroke: #000000; stroke-width: 0.6"/>
      </g>
     </g>
     <g id="line2d_38">
      <g>
       <use xlink:href="#m7d1bc106b9" x="332.66285" y="7.2" style="stroke: #000000; stroke-width: 0.6"/>
      </g>
     </g>
    </g>
    <g id="xtick_20">
     <g id="line2d_39">
      <g>
       <use xlink:href="#m065ccfb649" x="357.668913" y="232.66419" style="stroke: #000000; stroke-width: 0.6"/>
      </g>
     </g>
     <g id="line2d_40">
      <g>
       <use xlink:href="#m7d1bc106b9" x="357.668913" y="7.2" style="stroke: #000000; stroke-width: 0.6"/>
      </g>
     </g>
    </g>
    <g id="xtick_21">
     <g id="line2d_41">
      <g>
       <use xlink:href="#m065ccfb649" x="375.410996" y="232.66419" style="stroke: #000000; stroke-width: 0.6"/>
      </g>
     </g>
     <g id="line2d_42">
      <g>
       <use xlink:href="#m7d1bc106b9" x="375.410996" y="7.2" style="stroke: #000000; stroke-width: 0.6"/>
      </g>
     </g>
    </g>
    <g id="xtick_22">
     <g id="line2d_43">
      <g>
       <use xlink:href="#m065ccfb649" x="389.172825" y="232.66419" style="stroke: #000000; stroke-width: 0.6"/>
      </g>
     </g>
     <g id="line2d_44">
      <g>
       <use xlink:href="#m7d1bc106b9" x="389.172825" y="7.2" style="stroke: #000000; stroke-width: 0.6"/>
      </g>
     </g>
    </g>
    <g id="xtick_23">
     <g id="line2d_45">
      <g>
       <use xlink:href="#m065ccfb649" x="400.417058" y="232.66419" style="stroke: #000000; stroke-width: 0.6"/>
      </g>
     </g>
     <g id="line2d_46">
      <g>
       <use xlink:href="#m7d1bc106b9" x="400.417058" y="7.2" style="stroke: #000000; stroke-width: 0.6"/>
      </g>
     </g>
    </g>
    <g id="xtick_24">
     <g id="line2d_47">
      <g>
       <use xlink:href="#m065ccfb649" x="409.923922" y="232.66419" style="stroke: #000000; stroke-width: 0.6"/>
      </g>
     </g>
     <g id="line2d_48">
      <g>
       <use xlink:href="#m7d1bc106b9" x="409.923922" y="7.2" style="stroke: #000000; stroke-width: 0.6"/>
      </g>
     </g>
    </g>
    <g id="xtick_25">
     <g id="line2d_49">
      <g>
       <use xlink:href="#m065ccfb649" x="418.159142" y="232.66419" style="stroke: #000000; stroke-width: 0.6"/>
      </g>
     </g>
     <g id="line2d_50">
      <g>
       <use xlink:href="#m7d1bc106b9" x="418.159142" y="7.2" style="stroke: #000000; stroke-width: 0.6"/>
      </g>
     </g>
    </g>
    <g id="xtick_26">
     <g id="line2d_51">
      <g>
       <use xlink:href="#m065ccfb649" x="425.423121" y="232.66419" style="stroke: #000000; stroke-width: 0.6"/>
      </g>
     </g>
     <g id="line2d_52">
      <g>
       <use xlink:href="#m7d1bc106b9" x="425.423121" y="7.2" style="stroke: #000000; stroke-width: 0.6"/>
      </g>
     </g>
    </g>
    <g id="xtick_27">
     <g id="line2d_53">
      <g>
       <use xlink:href="#m065ccfb649" x="474.669117" y="232.66419" style="stroke: #000000; stroke-width: 0.6"/>
      </g>
     </g>
     <g id="line2d_54">
      <g>
       <use xlink:href="#m7d1bc106b9" x="474.669117" y="7.2" style="stroke: #000000; stroke-width: 0.6"/>
      </g>
     </g>
    </g>
    <g id="text_4">
     <!-- $k$ -->
     <g transform="translate(264.491784 262.247972) scale(0.14 -0.14)">
      <defs>
       <path id="CMMI12-6b" d="M 1798 4257 
C 1805 4283 1818 4321 1818 4352 
C 1818 4416 1754 4416 1741 4416 
C 1734 4416 1504 4393 1389 4377 
C 1280 4377 1184 4358 1069 4358 
C 915 4345 870 4339 870 4224 
C 870 4160 934 4160 998 4160 
C 1325 4160 1325 4103 1325 4040 
C 1325 4015 1325 4002 1293 3888 
L 378 248 
C 352 152 352 140 352 101 
C 352 -38 461 -64 525 -64 
C 704 -64 742 77 794 275 
L 1094 1469 
C 1555 1418 1830 1226 1830 920 
C 1830 881 1830 856 1811 760 
C 1786 664 1786 588 1786 556 
C 1786 185 2029 -64 2355 -64 
C 2650 -64 2803 204 2854 294 
C 2989 530 3072 888 3072 913 
C 3072 945 3046 971 3008 971 
C 2950 971 2944 945 2918 843 
C 2829 511 2694 64 2368 64 
C 2240 64 2157 128 2157 370 
C 2157 492 2182 632 2208 728 
C 2234 843 2234 849 2234 926 
C 2234 1303 1894 1514 1306 1590 
C 1536 1731 1766 1980 1856 2076 
C 2221 2484 2470 2689 2765 2689 
C 2912 2689 2950 2650 2995 2612 
C 2758 2586 2669 2420 2669 2293 
C 2669 2139 2790 2088 2880 2088 
C 3053 2088 3206 2235 3206 2440 
C 3206 2625 3059 2816 2771 2816 
C 2419 2816 2131 2567 1677 2056 
C 1613 1980 1376 1737 1139 1648 
L 1798 4257 
z
" transform="scale(0.015625)"/>
      </defs>
      <use xlink:href="#CMMI12-6b" transform="scale(0.996264)"/>
     </g>
    </g>
   </g>
   <g id="matplotlib.axis_2">
    <g id="ytick_1">
     <g id="line2d_55">
      <defs>
       <path id="m2a1154c07e" d="M 0 0 
L 6 0 
" style="stroke: #000000; stroke-width: 0.8"/>
      </defs>
      <g>
       <use xlink:href="#m2a1154c07e" x="55.126495" y="216.241914" style="stroke: #000000; stroke-width: 0.8"/>
      </g>
     </g>
     <g id="line2d_56">
      <defs>
       <path id="mc34edda439" d="M 0 0 
L -6 0 
" style="stroke: #000000; stroke-width: 0.8"/>
      </defs>
      <g>
       <use xlink:href="#mc34edda439" x="480.96" y="216.241914" style="stroke: #000000; stroke-width: 0.8"/>
      </g>
     </g>
     <g id="text_5">
      <!-- $\mathdefault{10^{-6}}$ -->
      <g transform="translate(25.147696 221.084853) scale(0.14 -0.14)">
       <defs>
        <path id="CMSY10-0" d="M 4218 1472 
C 4326 1472 4442 1472 4442 1600 
C 4442 1728 4326 1728 4218 1728 
L 755 1728 
C 646 1728 531 1728 531 1600 
C 531 1472 646 1472 755 1472 
L 4218 1472 
z
" transform="scale(0.015625)"/>
        <path id="CMR17-36" d="M 678 2176 
C 678 3690 1395 4032 1811 4032 
C 1946 4032 2272 4009 2400 3776 
C 2298 3776 2106 3776 2106 3553 
C 2106 3381 2246 3323 2336 3323 
C 2394 3323 2566 3348 2566 3560 
C 2566 3954 2246 4179 1805 4179 
C 1043 4179 243 3390 243 1984 
C 243 253 966 -128 1478 -128 
C 2099 -128 2688 427 2688 1283 
C 2688 2081 2170 2662 1517 2662 
C 1126 2662 838 2407 678 1960 
L 678 2176 
z
M 1478 25 
C 691 25 691 1200 691 1436 
C 691 1896 909 2560 1504 2560 
C 1613 2560 1926 2560 2138 2120 
C 2253 1870 2253 1609 2253 1289 
C 2253 944 2253 690 2118 434 
C 1978 171 1773 25 1478 25 
z
" transform="scale(0.015625)"/>
       </defs>
       <use xlink:href="#CMR17-31" transform="scale(0.996264)"/>
       <use xlink:href="#CMR17-30" transform="translate(45.690477 0) scale(0.996264)"/>
       <use xlink:href="#CMSY10-0" transform="translate(91.380954 36.153639) scale(0.697382)"/>
       <use xlink:href="#CMR17-36" transform="translate(145.621947 36.153639) scale(0.697382)"/>
      </g>
     </g>
    </g>
    <g id="ytick_2">
     <g id="line2d_57">
      <g>
       <use xlink:href="#m2a1154c07e" x="55.126495" y="186.145501" style="stroke: #000000; stroke-width: 0.8"/>
      </g>
     </g>
     <g id="line2d_58">
      <g>
       <use xlink:href="#mc34edda439" x="480.96" y="186.145501" style="stroke: #000000; stroke-width: 0.8"/>
      </g>
     </g>
     <g id="text_6">
      <!-- $\mathdefault{10^{-4}}$ -->
      <g transform="translate(25.147696 190.988439) scale(0.14 -0.14)">
       <defs>
        <path id="CMR17-34" d="M 2150 4122 
C 2150 4256 2144 4256 2029 4256 
L 128 1254 
L 128 1088 
L 1779 1088 
L 1779 457 
C 1779 224 1766 160 1318 160 
L 1197 160 
L 1197 0 
C 1402 0 1747 0 1965 0 
C 2182 0 2528 0 2733 0 
L 2733 160 
L 2611 160 
C 2163 160 2150 224 2150 457 
L 2150 1088 
L 2803 1088 
L 2803 1254 
L 2150 1254 
L 2150 4122 
z
M 1798 3703 
L 1798 1254 
L 256 1254 
L 1798 3703 
z
" transform="scale(0.015625)"/>
       </defs>
       <use xlink:href="#CMR17-31" transform="scale(0.996264)"/>
       <use xlink:href="#CMR17-30" transform="translate(45.690477 0) scale(0.996264)"/>
       <use xlink:href="#CMSY10-0" transform="translate(91.380954 36.153639) scale(0.697382)"/>
       <use xlink:href="#CMR17-34" transform="translate(145.621947 36.153639) scale(0.697382)"/>
      </g>
     </g>
    </g>
    <g id="ytick_3">
     <g id="line2d_59">
      <g>
       <use xlink:href="#m2a1154c07e" x="55.126495" y="156.049087" style="stroke: #000000; stroke-width: 0.8"/>
      </g>
     </g>
     <g id="line2d_60">
      <g>
       <use xlink:href="#mc34edda439" x="480.96" y="156.049087" style="stroke: #000000; stroke-width: 0.8"/>
      </g>
     </g>
     <g id="text_7">
      <!-- $\mathdefault{10^{-2}}$ -->
      <g transform="translate(25.147696 160.892025) scale(0.14 -0.14)">
       <use xlink:href="#CMR17-31" transform="scale(0.996264)"/>
       <use xlink:href="#CMR17-30" transform="translate(45.690477 0) scale(0.996264)"/>
       <use xlink:href="#CMSY10-0" transform="translate(91.380954 36.153639) scale(0.697382)"/>
       <use xlink:href="#CMR17-32" transform="translate(145.621947 36.153639) scale(0.697382)"/>
      </g>
     </g>
    </g>
    <g id="ytick_4">
     <g id="line2d_61">
      <g>
       <use xlink:href="#m2a1154c07e" x="55.126495" y="125.952673" style="stroke: #000000; stroke-width: 0.8"/>
      </g>
     </g>
     <g id="line2d_62">
      <g>
       <use xlink:href="#mc34edda439" x="480.96" y="125.952673" style="stroke: #000000; stroke-width: 0.8"/>
      </g>
     </g>
     <g id="text_8">
      <!-- $\mathdefault{10^{0}}$ -->
      <g transform="translate(32.952291 130.795611) scale(0.14 -0.14)">
       <use xlink:href="#CMR17-31" transform="scale(0.996264)"/>
       <use xlink:href="#CMR17-30" transform="translate(45.690477 0) scale(0.996264)"/>
       <use xlink:href="#CMR17-30" transform="translate(91.380954 36.153639) scale(0.697382)"/>
      </g>
     </g>
    </g>
    <g id="ytick_5">
     <g id="line2d_63">
      <g>
       <use xlink:href="#m2a1154c07e" x="55.126495" y="95.85626" style="stroke: #000000; stroke-width: 0.8"/>
      </g>
     </g>
     <g id="line2d_64">
      <g>
       <use xlink:href="#mc34edda439" x="480.96" y="95.85626" style="stroke: #000000; stroke-width: 0.8"/>
      </g>
     </g>
     <g id="text_9">
      <!-- $\mathdefault{10^{2}}$ -->
      <g transform="translate(32.952291 100.699198) scale(0.14 -0.14)">
       <use xlink:href="#CMR17-31" transform="scale(0.996264)"/>
       <use xlink:href="#CMR17-30" transform="translate(45.690477 0) scale(0.996264)"/>
       <use xlink:href="#CMR17-32" transform="translate(91.380954 36.153639) scale(0.697382)"/>
      </g>
     </g>
    </g>
    <g id="ytick_6">
     <g id="line2d_65">
      <g>
       <use xlink:href="#m2a1154c07e" x="55.126495" y="65.759846" style="stroke: #000000; stroke-width: 0.8"/>
      </g>
     </g>
     <g id="line2d_66">
      <g>
       <use xlink:href="#mc34edda439" x="480.96" y="65.759846" style="stroke: #000000; stroke-width: 0.8"/>
      </g>
     </g>
     <g id="text_10">
      <!-- $\mathdefault{10^{4}}$ -->
      <g transform="translate(32.952291 70.602784) scale(0.14 -0.14)">
       <use xlink:href="#CMR17-31" transform="scale(0.996264)"/>
       <use xlink:href="#CMR17-30" transform="translate(45.690477 0) scale(0.996264)"/>
       <use xlink:href="#CMR17-34" transform="translate(91.380954 36.153639) scale(0.697382)"/>
      </g>
     </g>
    </g>
    <g id="ytick_7">
     <g id="line2d_67">
      <g>
       <use xlink:href="#m2a1154c07e" x="55.126495" y="35.663432" style="stroke: #000000; stroke-width: 0.8"/>
      </g>
     </g>
     <g id="line2d_68">
      <g>
       <use xlink:href="#mc34edda439" x="480.96" y="35.663432" style="stroke: #000000; stroke-width: 0.8"/>
      </g>
     </g>
     <g id="text_11">
      <!-- $\mathdefault{10^{6}}$ -->
      <g transform="translate(32.952291 40.50637) scale(0.14 -0.14)">
       <use xlink:href="#CMR17-31" transform="scale(0.996264)"/>
       <use xlink:href="#CMR17-30" transform="translate(45.690477 0) scale(0.996264)"/>
       <use xlink:href="#CMR17-36" transform="translate(91.380954 36.153639) scale(0.697382)"/>
      </g>
     </g>
    </g>
    <g id="text_12">
     <!-- $E_{\Sigma n}(k)$ -->
     <g transform="translate(17.660772 140.982634) rotate(-90) scale(0.14 -0.14)">
      <defs>
       <path id="CMMI12-45" d="M 4448 1489 
C 4454 1508 4474 1554 4474 1579 
C 4474 1611 4448 1643 4410 1643 
C 4384 1643 4371 1637 4352 1617 
C 4339 1611 4339 1598 4282 1469 
C 3904 570 3629 185 2605 185 
L 1670 185 
C 1581 185 1568 185 1530 192 
C 1459 198 1453 211 1453 262 
C 1453 307 1466 345 1478 403 
L 1920 2176 
L 2554 2176 
C 3053 2176 3091 2066 3091 1874 
C 3091 1810 3091 1752 3046 1560 
C 3034 1534 3027 1508 3027 1489 
C 3027 1444 3059 1425 3098 1425 
C 3155 1425 3162 1469 3187 1559 
L 3552 3042 
C 3552 3073 3526 3105 3488 3105 
C 3430 3105 3424 3080 3398 2990 
C 3270 2501 3142 2361 2573 2361 
L 1965 2361 
L 2362 3930 
C 2419 4154 2432 4154 2694 4154 
L 3610 4154 
C 4397 4154 4557 3943 4557 3458 
C 4557 3451 4557 3273 4531 3062 
C 4525 3036 4518 2998 4518 2985 
C 4518 2934 4550 2915 4589 2915 
C 4634 2915 4659 2941 4672 3055 
L 4806 4174 
C 4806 4195 4819 4263 4819 4277 
C 4819 4352 4762 4352 4646 4352 
L 1523 4352 
C 1402 4352 1338 4352 1338 4229 
C 1338 4154 1382 4154 1491 4154 
C 1888 4154 1888 4114 1888 4052 
C 1888 4020 1882 3994 1862 3924 
L 998 473 
C 941 249 928 185 480 185 
C 358 185 294 185 294 70 
C 294 0 333 0 461 0 
L 3674 0 
C 3814 0 3821 6 3866 110 
L 4448 1489 
z
" transform="scale(0.015625)"/>
       <path id="CMR17-6" d="M 2067 2097 
C 2112 2148 2112 2161 2112 2180 
C 2112 2204 2086 2243 2080 2256 
L 819 4186 
L 2368 4186 
C 3430 4186 3750 3956 3859 2944 
L 3974 2944 
L 3821 4352 
L 435 4352 
C 301 4352 294 4346 294 4212 
L 1773 1944 
L 346 121 
C 301 64 301 58 301 45 
C 301 0 339 0 435 0 
L 3821 0 
L 3974 1460 
L 3859 1460 
C 3757 428 3392 218 2355 218 
L 589 218 
L 2067 2097 
z
" transform="scale(0.015625)"/>
       <path id="CMMI12-6e" d="M 1318 1871 
C 1331 1910 1491 2229 1728 2433 
C 1894 2586 2112 2689 2362 2689 
C 2618 2689 2707 2497 2707 2242 
C 2707 1878 2445 1150 2317 805 
C 2259 651 2227 568 2227 453 
C 2227 166 2426 -64 2733 -64 
C 3328 -64 3552 875 3552 913 
C 3552 945 3526 971 3488 971 
C 3430 971 3424 952 3392 843 
C 3245 319 3002 64 2752 64 
C 2688 64 2586 64 2586 269 
C 2586 429 2656 621 2694 710 
C 2822 1063 3091 1780 3091 2145 
C 3091 2528 2867 2816 2381 2816 
C 1811 2816 1510 2415 1395 2255 
C 1376 2618 1114 2816 832 2816 
C 627 2816 486 2695 378 2478 
C 262 2248 173 1865 173 1839 
C 173 1814 198 1782 243 1782 
C 294 1782 301 1788 339 1935 
C 442 2325 557 2689 813 2689 
C 960 2689 1011 2586 1011 2395 
C 1011 2254 947 2005 902 1807 
L 723 1118 
C 698 996 627 709 595 594 
C 550 428 480 128 480 96 
C 480 6 550 -64 646 -64 
C 723 -64 813 -26 864 70 
C 877 102 934 326 966 453 
L 1107 1028 
L 1318 1871 
z
" transform="scale(0.015625)"/>
       <path id="CMR17-28" d="M 1958 -1561 
C 1958 -1555 1958 -1542 1939 -1523 
C 1645 -1224 858 -407 858 1581 
C 858 3569 1632 4379 1946 4697 
C 1946 4704 1958 4717 1958 4736 
C 1958 4755 1939 4768 1914 4768 
C 1843 4768 1299 4296 986 3594 
C 666 2887 576 2199 576 1588 
C 576 1128 621 351 1005 -471 
C 1312 -1135 1837 -1600 1914 -1600 
C 1946 -1600 1958 -1587 1958 -1561 
z
" transform="scale(0.015625)"/>
       <path id="CMR17-29" d="M 1683 1581 
C 1683 2040 1638 2817 1254 3639 
C 947 4303 422 4768 346 4768 
C 326 4768 301 4761 301 4729 
C 301 4717 307 4710 314 4697 
C 621 4378 1402 3568 1402 1584 
C 1402 -407 627 -1217 314 -1537 
C 307 -1549 301 -1556 301 -1568 
C 301 -1600 326 -1600 346 -1600 
C 416 -1600 960 -1128 1274 -426 
C 1594 281 1683 969 1683 1581 
z
" transform="scale(0.015625)"/>
      </defs>
      <use xlink:href="#CMMI12-45" transform="scale(0.996264)"/>
      <use xlink:href="#CMR17-6" transform="translate(72.211218 -14.943915) scale(0.697382)"/>
      <use xlink:href="#CMMI12-6e" transform="translate(118.767923 -14.943915) scale(0.697382)"/>
      <use xlink:href="#CMR17-28" transform="translate(160.026898 0) scale(0.996264)"/>
      <use xlink:href="#CMMI12-6b" transform="translate(195.307666 0) scale(0.996264)"/>
      <use xlink:href="#CMR17-29" transform="translate(249.386867 0) scale(0.996264)"/>
     </g>
    </g>
   </g>
   <g id="line2d_69">
    <path d="M 55.126495 232.66419 
L 122.880703 13.875991 
L 154.384616 7.2 
L 175.135713 9.027763 
L 190.634912 10.739617 
L 203.010783 13.487036 
L 213.313432 16.608119 
L 229.857953 20.978805 
L 236.71752 21.256368 
L 242.889921 21.281735 
L 248.500382 24.394179 
L 253.642737 23.677907 
L 258.38912 27.032651 
L 262.796175 27.540131 
L 266.909202 27.456995 
L 270.764991 28.891833 
L 274.393834 30.801651 
L 277.820968 32.441234 
L 281.06764 31.180128 
L 284.15191 30.762363 
L 287.089253 32.769249 
L 289.893033 35.041967 
L 292.57487 34.135915 
L 295.144931 33.943629 
L 297.612161 35.451963 
L 299.984474 37.267992 
L 302.268904 35.903103 
L 304.471728 37.264222 
L 306.598578 37.017739 
L 308.65452 38.285812 
L 310.644129 38.968363 
L 312.571553 38.268736 
L 314.440561 39.828277 
L 316.25459 40.683891 
L 318.016782 38.843922 
L 319.730018 42.015358 
L 321.396945 41.729086 
L 323.02 42.548435 
L 326.143328 42.923632 
L 327.647611 42.540163 
L 329.116074 43.501045 
L 331.952093 44.84707 
L 333.32265 45.449754 
L 334.66341 43.795785 
L 335.975641 46.915302 
L 337.260532 46.72758 
L 338.519199 47.528613 
L 339.752691 47.184925 
L 340.961995 48.727905 
L 342.148042 47.833801 
L 343.311709 47.999781 
L 344.453826 49.166204 
L 346.6765 50.576353 
L 347.758503 49.671062 
L 348.821849 49.976242 
L 349.867171 51.211752 
L 350.89507 51.99697 
L 351.906118 51.377748 
L 352.900858 53.057411 
L 353.879808 52.393323 
L 354.843461 52.526925 
L 355.792288 53.930517 
L 356.726738 54.98662 
L 357.647241 54.982867 
L 358.554206 54.352571 
L 359.448027 55.642135 
L 360.329078 55.331994 
L 361.19772 56.241645 
L 362.054296 56.173573 
L 362.899139 57.167741 
L 363.732564 56.404173 
L 364.554877 58.129067 
L 365.366369 58.674371 
L 366.167323 57.830614 
L 367.738683 59.913796 
L 368.509599 58.951877 
L 369.270998 58.619482 
L 370.766163 60.643295 
L 371.500369 60.550345 
L 372.225937 60.302793 
L 373.651955 62.251464 
L 374.352787 62.299749 
L 375.045744 62.46923 
L 375.731001 62.340849 
L 376.408728 64.242612 
L 377.079089 63.305866 
L 377.742241 64.760084 
L 378.398338 64.960502 
L 379.047528 65.385134 
L 379.689956 65.457437 
L 380.325761 66.947862 
L 380.955078 65.783912 
L 381.578039 66.01101 
L 382.194769 66.39579 
L 382.805393 66.579751 
L 383.410031 67.771436 
L 384.008798 67.393731 
L 384.601808 68.136169 
L 385.77099 68.647676 
L 386.91842 69.574571 
L 387.484227 69.103502 
L 388.600502 69.558185 
L 389.151153 69.382579 
L 389.696932 71.013513 
L 390.237922 71.169825 
L 390.774209 71.856461 
L 391.305872 71.888011 
L 391.832991 72.256993 
L 392.355642 73.145738 
L 392.873902 72.788342 
L 393.387843 73.047918 
L 393.897536 74.200488 
L 394.403052 73.059146 
L 394.904457 74.008657 
L 395.401819 74.157395 
L 395.895202 74.642165 
L 396.384669 74.363822 
L 396.870282 75.57889 
L 397.352101 76.068016 
L 397.830185 75.605173 
L 398.304592 76.372884 
L 399.242595 76.884508 
L 399.706301 77.104028 
L 400.166546 78.022679 
L 400.623382 77.636242 
L 401.076858 78.445372 
L 401.973929 79.555018 
L 402.417618 80.48843 
L 402.858138 79.990598 
L 403.295534 80.505557 
L 403.729849 80.371764 
L 405.437157 81.880015 
L 405.856699 81.360271 
L 406.273407 82.462124 
L 406.687319 82.135862 
L 407.09847 83.642784 
L 407.506899 83.643511 
L 407.912641 83.816262 
L 408.315731 84.207314 
L 408.716203 84.424987 
L 409.114092 85.012578 
L 409.50943 85.005453 
L 409.90225 85.131355 
L 410.292584 85.833192 
L 410.680463 85.593444 
L 411.065918 86.048346 
L 411.448978 86.194453 
L 411.829674 86.680049 
L 412.208034 88.103918 
L 412.584088 87.130498 
L 412.957862 87.462352 
L 413.329384 88.073389 
L 413.698682 88.295632 
L 414.065781 87.64927 
L 414.430709 88.664188 
L 414.793489 89.039628 
L 415.154148 89.83334 
L 415.512711 89.689344 
L 415.8692 90.007858 
L 416.223641 90.952747 
L 416.576057 91.234893 
L 416.92647 90.766301 
L 417.274903 91.032568 
L 417.621379 91.799636 
L 417.965919 93.020579 
L 418.308545 92.435859 
L 418.649278 93.468112 
L 419.325149 93.196727 
L 419.993692 94.155802 
L 420.325266 94.901736 
L 420.655066 93.392999 
L 420.983112 95.051981 
L 421.309423 95.476237 
L 421.634016 96.187434 
L 421.95691 95.670315 
L 422.278121 96.476394 
L 422.597669 96.208476 
L 422.915569 96.763382 
L 423.231839 96.892799 
L 423.546496 96.756438 
L 423.859555 98.02895 
L 425.401449 99.574153 
L 425.705255 101.232212 
L 426.007572 99.711321 
L 426.607796 102.510875 
L 426.905732 100.639147 
L 427.202235 101.542679 
L 427.497319 102.967645 
L 427.790999 102.533111 
L 428.083286 106.112129 
L 428.374195 103.79946 
L 428.663738 104.322898 
L 428.951928 105.182969 
L 429.238777 104.072619 
L 429.524299 106.53145 
L 429.808505 104.839927 
L 430.091407 106.885032 
L 430.653347 105.54413 
L 431.210214 108.355934 
L 431.762097 110.185572 
L 432.036197 109.62829 
L 432.309085 110.74947 
L 432.580771 110.239964 
L 432.851265 109.252592 
L 433.120578 111.456684 
L 433.38872 111.794138 
L 433.655701 111.454106 
L 433.921531 111.308058 
L 434.18622 110.73202 
L 434.712215 112.509656 
L 434.97354 112.653296 
L 435.233762 113.655649 
L 435.492891 112.174437 
L 435.750935 112.694603 
L 436.007905 112.049031 
L 436.263808 113.655649 
L 436.518653 112.396738 
L 436.77245 114.840199 
L 437.025207 112.694603 
L 437.276932 114.293751 
L 437.527633 114.263283 
L 437.77732 113.588274 
L 438.026 114.734504 
L 438.273681 114.542274 
L 438.520372 115.046596 
L 438.766079 113.295527 
L 439.010812 114.139971 
L 439.254577 116.249409 
L 439.497383 115.535753 
L 439.739236 115.7824 
L 439.980145 115.567098 
L 440.220116 117.126777 
L 440.459157 115.598293 
L 440.697276 115.113971 
L 440.934478 116.439773 
L 441.170771 118.512447 
L 441.406163 115.180659 
L 441.64066 117.571099 
L 441.874268 115.472609 
L 442.106995 117.632177 
L 442.338847 115.376734 
L 442.56983 117.812061 
L 442.799952 117.478397 
L 443.029218 118.351072 
L 443.257635 116.59428 
L 443.48521 119.003596 
L 443.711947 116.470968 
L 443.937854 120.251567 
L 444.162937 118.854039 
L 444.387201 119.003596 
L 444.610652 117.320911 
L 445.055141 120.402506 
L 445.496449 119.321049 
L 445.715924 117.69269 
L 445.934621 120.608129 
L 446.152546 120.251567 
L 446.369703 120.722787 
L 446.586098 119.235989 
L 447.016624 120.918723 
L 447.230764 120.608129 
L 447.444164 120.694311 
L 447.868762 120.694311 
L 448.079969 120.835469 
L 448.290456 122.488233 
L 448.500227 120.835469 
L 448.709287 122.574415 
L 448.91764 120.779371 
L 449.125292 125.36543 
L 449.332247 121.00093 
L 449.53851 122.631244 
L 449.744085 122.459251 
L 449.948977 125.771484 
L 450.153191 121.162304 
L 450.559601 123.015788 
L 450.761807 125.718779 
L 450.963351 122.659475 
L 451.164239 129.839294 
L 451.364475 121.371454 
L 451.564062 125.771484 
L 451.763006 125.224273 
L 451.96131 121.397133 
L 452.158979 125.585127 
L 452.356016 125.797677 
L 452.552426 123.095327 
L 452.748212 130.457056 
L 452.943378 121.055165 
L 453.137929 125.476202 
L 453.331868 126.104078 
L 453.525199 125.718779 
L 453.717925 125.665646 
L 454.101582 126.153777 
L 454.482866 125.638916 
L 454.672628 126.324805 
L 454.861808 125.797677 
L 455.050409 125.849752 
L 455.238435 126.104078 
L 455.42589 130.683739 
L 455.612776 123.277237 
L 455.984859 126.300645 
L 456.170062 126.227623 
L 456.35471 125.771484 
L 456.538808 126.467921 
L 456.722357 130.533494 
L 456.905362 125.875635 
L 457.087825 131.091581 
L 457.26975 126.37286 
L 457.45114 126.252055 
L 457.631998 130.482635 
L 457.812327 130.926716 
L 457.992131 126.276395 
L 458.171411 130.658936 
L 458.350172 126.514938 
L 458.528417 130.974246 
L 458.706148 126.348877 
L 458.883368 126.203101 
L 459.236287 126.178485 
L 459.411993 126.561619 
L 459.761909 126.561619 
L 459.936125 126.300645 
L 460.283088 126.901489 
L 460.455841 126.324805 
L 460.7999 131.091581 
L 460.971213 131.387143 
L 461.142051 126.252055 
L 461.482314 125.692266 
L 461.651744 130.457056 
L 461.82071 129.923261 
L 462.15726 124.872509 
L 462.324848 129.60996 
L 462.491983 129.432519 
L 462.824899 129.341958 
L 462.990685 128.737285 
L 463.156027 129.156983 
L 463.320927 128.464939 
L 463.64941 128.252963 
L 463.812998 128.737285 
L 464.138877 128.033881 
L 464.62449 128.288774 
L 464.785515 127.729856 
L 465.10631 127.807198 
L 465.90107 127.370021 
L 466.216128 127.370021 
L 466.373056 126.722427 
L 467.614306 126.348877 
L 468.37759 125.745184 
L 468.529119 125.952673 
L 468.831066 125.638916 
L 469.131542 125.692266 
L 470.171826 120.491423 
L 470.75849 124.842323 
L 471.194854 124.140294 
L 472.485722 123.277237 
L 472.627498 123.577766 
L 474.165895 122.008359 
L 476.470412 119.938811 
L 478.176357 118.015852 
L 480.96 111.490113 
L 480.96 111.490113 
" clip-path="url(#p719889b39b)" style="fill: none; stroke: #0000ff; stroke-width: 2.5; stroke-linecap: square"/>
   </g>
   <g id="line2d_70">
    <path d="M 222.138824 17.681302 
L 331.952093 43.92585 
L 331.952093 43.92585 
" clip-path="url(#p719889b39b)" style="fill: none; stroke-dasharray: 3,4.95; stroke-dashoffset: 0; stroke: #ff0000; stroke-width: 3"/>
   </g>
   <g id="line2d_71">
    <path d="M 216.195825 -1 
L 480.96 101.874537 
L 480.96 101.874537 
" clip-path="url(#p719889b39b)" style="fill: none; stroke-dasharray: 6.4,1.6,1,1.6; stroke-dashoffset: 0; stroke: #000000"/>
   </g>
   <g id="patch_3">
    <path d="M 55.126495 232.66419 
L 55.126495 7.2 
" style="fill: none; stroke: #000000; stroke-linejoin: miter; stroke-linecap: square"/>
   </g>
   <g id="patch_4">
    <path d="M 480.96 232.66419 
L 480.96 7.2 
" style="fill: none; stroke: #000000; stroke-linejoin: miter; stroke-linecap: square"/>
   </g>
   <g id="patch_5">
    <path d="M 55.126495 232.66419 
L 480.96 232.66419 
" style="fill: none; stroke: #000000; stroke-linejoin: miter; stroke-linecap: square"/>
   </g>
   <g id="patch_6">
    <path d="M 55.126495 7.2 
L 480.96 7.2 
" style="fill: none; stroke: #000000; stroke-linejoin: miter; stroke-linecap: square"/>
   </g>
   <g id="legend_1">
    <g id="line2d_72">
     <path d="M 67.726495 173.428105 
L 81.726495 173.428105 
L 95.726495 173.428105 
" style="fill: none; stroke: #0000ff; stroke-width: 2.5; stroke-linecap: square"/>
    </g>
    <g id="text_13">
     <!-- $\Sigma n$ -->
     <g transform="translate(106.926495 178.328105) scale(0.14 -0.14)">
      <use xlink:href="#CMR17-6" transform="scale(0.996264)"/>
      <use xlink:href="#CMMI12-6e" transform="translate(66.509881 0) scale(0.996264)"/>
     </g>
    </g>
    <g id="line2d_73">
     <path d="M 67.726495 192.940134 
L 81.726495 192.940134 
L 95.726495 192.940134 
" style="fill: none; stroke-dasharray: 3,4.95; stroke-dashoffset: 0; stroke: #ff0000; stroke-width: 3"/>
    </g>
    <g id="text_14">
     <!-- $\propto k^{-2.26}$ -->
     <g transform="translate(106.926495 197.840134) scale(0.14 -0.14)">
      <defs>
       <path id="CMSY10-2f" d="M 4621 205 
C 4595 205 4493 192 4474 192 
C 3968 192 3629 691 3411 1024 
C 3347 1133 3174 1395 3104 1504 
C 3258 1850 3686 2643 4448 2643 
C 4493 2643 4550 2643 4621 2624 
C 4621 2790 4614 2797 4602 2810 
C 4557 2822 4461 2829 4403 2829 
C 3590 2829 3117 2048 2963 1728 
C 2707 2118 2618 2259 2381 2458 
C 1990 2797 1638 2829 1478 2829 
C 768 2829 358 2112 358 1376 
C 358 659 755 -70 1459 -70 
C 2272 -70 2746 710 2899 1030 
C 3155 640 3245 499 3482 301 
C 3872 -38 4224 -70 4384 -70 
C 4461 -70 4563 -58 4621 -44 
L 4621 205 
z
M 2758 1254 
C 2605 909 2176 115 1414 115 
C 794 115 499 794 499 1376 
C 499 2010 858 2566 1389 2566 
C 1894 2566 2234 2067 2451 1734 
C 2515 1626 2688 1363 2758 1254 
z
" transform="scale(0.015625)"/>
       <path id="CMMI12-3a" d="M 1178 307 
C 1178 492 1024 619 870 619 
C 685 619 557 466 557 313 
C 557 128 710 0 864 0 
C 1050 0 1178 153 1178 307 
z
" transform="scale(0.015625)"/>
      </defs>
      <use xlink:href="#CMSY10-2f" transform="scale(0.996264)"/>
      <use xlink:href="#CMMI12-6b" transform="translate(105.161476 0) scale(0.996264)"/>
      <use xlink:href="#CMSY10-0" transform="translate(159.240677 36.153639) scale(0.697382)"/>
      <use xlink:href="#CMR17-32" transform="translate(213.48167 36.153639) scale(0.697382)"/>
      <use xlink:href="#CMMI12-3a" transform="translate(245.464852 36.153639) scale(0.697382)"/>
      <use xlink:href="#CMR17-32" transform="translate(264.432785 36.153639) scale(0.697382)"/>
      <use xlink:href="#CMR17-36" transform="translate(296.415967 36.153639) scale(0.697382)"/>
     </g>
    </g>
    <g id="line2d_74">
     <path d="M 67.726495 212.452162 
L 81.726495 212.452162 
L 95.726495 212.452162 
" style="fill: none; stroke-dasharray: 6.4,1.6,1,1.6; stroke-dashoffset: 0; stroke: #000000"/>
    </g>
    <g id="text_15">
     <!-- $k^{-11/3}$ -->
     <g transform="translate(106.926495 217.352162) scale(0.14 -0.14)">
      <defs>
       <path id="CMMI12-3d" d="M 2746 4562 
C 2746 4569 2784 4666 2784 4678 
C 2784 4755 2720 4800 2669 4800 
C 2637 4800 2579 4800 2528 4659 
L 384 -1363 
C 384 -1370 346 -1465 346 -1478 
C 346 -1555 410 -1600 461 -1600 
C 499 -1600 557 -1593 602 -1459 
L 2746 4562 
z
" transform="scale(0.015625)"/>
      </defs>
      <use xlink:href="#CMMI12-6b" transform="scale(0.996264)"/>
      <use xlink:href="#CMSY10-0" transform="translate(54.079201 36.153639) scale(0.697382)"/>
      <use xlink:href="#CMR17-31" transform="translate(108.320194 36.153639) scale(0.697382)"/>
      <use xlink:href="#CMR17-31" transform="translate(140.303376 36.153639) scale(0.697382)"/>
      <use xlink:href="#CMMI12-3d" transform="translate(172.286558 36.153639) scale(0.697382)"/>
      <use xlink:href="#CMR17-33" transform="translate(206.428849 36.153639) scale(0.697382)"/>
     </g>
    </g>
   </g>
  </g>
 </g>
 <defs>
  <clipPath id="p719889b39b">
   <rect x="55.126495" y="7.2" width="425.833505" height="225.46419"/>
  </clipPath>
 </defs>
</svg>
