<?xml version="1.0" encoding="utf-8" standalone="no"?>
<!DOCTYPE svg PUBLIC "-//W3C//DTD SVG 1.1//EN"
  "http://www.w3.org/Graphics/SVG/1.1/DTD/svg11.dtd">
<svg xmlns:xlink="http://www.w3.org/1999/xlink" width="488.16pt" height="272.16pt" viewBox="0 0 488.16 272.16" xmlns="http://www.w3.org/2000/svg" version="1.1">
 <metadata>
  <rdf:RDF xmlns:dc="http://purl.org/dc/elements/1.1/" xmlns:cc="http://creativecommons.org/ns#" xmlns:rdf="http://www.w3.org/1999/02/22-rdf-syntax-ns#">
   <cc:Work>
    <dc:type rdf:resource="http://purl.org/dc/dcmitype/StillImage"/>
    <dc:date>2026-02-16T21:24:38.261381</dc:date>
    <dc:format>image/svg+xml</dc:format>
    <dc:creator>
     <cc:Agent>
      <dc:title>Matplotlib v3.8.4, https://matplotlib.org/</dc:title>
     </cc:Agent>
    </dc:creator>
   </cc:Work>
  </rdf:RDF>
 </metadata>
 <defs>
  <style type="text/css">*{stroke-linejoin: round; stroke-linecap: butt}</style>
 </defs>
 <g id="figure_1">
  <g id="patch_1">
   <path d="M 0 272.16 
L 488.16 272.16 
L 488.16 0 
L 0 0 
z
" style="fill: #ffffff"/>
  </g>
  <g id="axes_1">
   <g id="patch_2">
    <path d="M 46.32442 232.66419 
L 480.96 232.66419 
L 480.96 12.042938 
L 46.32442 12.042938 
z
" style="fill: #ffffff"/>
   </g>
   <g id="matplotlib.axis_1">
    <g id="xtick_1">
     <g id="line2d_1">
      <defs>
       <path id="m78cc4e4380" d="M 0 0 
L 0 -6 
" style="stroke: #000000; stroke-width: 0.8"/>
      </defs>
      <g>
       <use xlink:href="#m78cc4e4380" x="83.145404" y="232.66419" style="stroke: #000000; stroke-width: 0.8"/>
      </g>
     </g>
     <g id="line2d_2">
      <defs>
       <path id="mccf23d3d01" d="M 0 0 
L 0 6 
" style="stroke: #000000; stroke-width: 0.8"/>
      </defs>
      <g>
       <use xlink:href="#mccf23d3d01" x="83.145404" y="12.042938" style="stroke: #000000; stroke-width: 0.8"/>
      </g>
     </g>
     <g id="text_1">
      <!-- $\mathdefault{10^{1}}$ -->
      <g transform="translate(73.808302 245.850067) scale(0.14 -0.14)">
       <defs>
        <path id="CMR17-31" d="M 1702 4058 
C 1702 4192 1696 4192 1606 4192 
C 1357 3916 979 3827 621 3827 
C 602 3827 570 3827 563 3808 
C 557 3795 557 3782 557 3648 
C 755 3648 1088 3686 1344 3839 
L 1344 461 
C 1344 236 1331 160 781 160 
L 589 160 
L 589 0 
C 896 0 1216 0 1523 0 
C 1830 0 2150 0 2458 0 
L 2458 160 
L 2266 160 
C 1715 160 1702 230 1702 458 
L 1702 4058 
z
" transform="scale(0.015625)"/>
        <path id="CMR17-30" d="M 2688 2025 
C 2688 2416 2682 3080 2413 3591 
C 2176 4039 1798 4198 1466 4198 
C 1158 4198 768 4058 525 3597 
C 269 3118 243 2524 243 2025 
C 243 1661 250 1106 448 619 
C 723 -39 1216 -128 1466 -128 
C 1760 -128 2208 -7 2470 600 
C 2662 1042 2688 1559 2688 2025 
z
M 1466 -26 
C 1056 -26 813 325 723 812 
C 653 1188 653 1738 653 2096 
C 653 2588 653 2997 736 3387 
C 858 3929 1216 4096 1466 4096 
C 1728 4096 2067 3923 2189 3400 
C 2272 3036 2278 2607 2278 2096 
C 2278 1680 2278 1169 2202 792 
C 2067 95 1690 -26 1466 -26 
z
" transform="scale(0.015625)"/>
       </defs>
       <use xlink:href="#CMR17-31" transform="scale(0.996264)"/>
       <use xlink:href="#CMR17-30" transform="translate(45.690477 0) scale(0.996264)"/>
       <use xlink:href="#CMR17-31" transform="translate(91.380954 36.153639) scale(0.697382)"/>
      </g>
     </g>
    </g>
    <g id="xtick_2">
     <g id="line2d_3">
      <g>
       <use xlink:href="#m78cc4e4380" x="292.066051" y="232.66419" style="stroke: #000000; stroke-width: 0.8"/>
      </g>
     </g>
     <g id="line2d_4">
      <g>
       <use xlink:href="#mccf23d3d01" x="292.066051" y="12.042938" style="stroke: #000000; stroke-width: 0.8"/>
      </g>
     </g>
     <g id="text_2">
      <!-- $\mathdefault{10^{2}}$ -->
      <g transform="translate(282.72895 245.850067) scale(0.14 -0.14)">
       <defs>
        <path id="CMR17-32" d="M 2669 989 
L 2554 989 
C 2490 536 2438 459 2413 420 
C 2381 369 1920 369 1830 369 
L 602 369 
C 832 619 1280 1072 1824 1597 
C 2214 1967 2669 2402 2669 3035 
C 2669 3790 2067 4224 1395 4224 
C 691 4224 262 3604 262 3030 
C 262 2780 448 2748 525 2748 
C 589 2748 781 2787 781 3010 
C 781 3207 614 3264 525 3264 
C 486 3264 448 3258 422 3245 
C 544 3790 915 4058 1306 4058 
C 1862 4058 2227 3617 2227 3035 
C 2227 2479 1901 2000 1536 1584 
L 262 146 
L 262 0 
L 2515 0 
L 2669 989 
z
" transform="scale(0.015625)"/>
       </defs>
       <use xlink:href="#CMR17-31" transform="scale(0.996264)"/>
       <use xlink:href="#CMR17-30" transform="translate(45.690477 0) scale(0.996264)"/>
       <use xlink:href="#CMR17-32" transform="translate(91.380954 36.153639) scale(0.697382)"/>
      </g>
     </g>
    </g>
    <g id="xtick_3">
     <g id="line2d_5">
      <defs>
       <path id="mbf2be04a6d" d="M 0 0 
L 0 -3 
" style="stroke: #000000; stroke-width: 0.6"/>
      </defs>
      <g>
       <use xlink:href="#mbf2be04a6d" x="50.783186" y="232.66419" style="stroke: #000000; stroke-width: 0.6"/>
      </g>
     </g>
     <g id="line2d_6">
      <defs>
       <path id="md83021b0c7" d="M 0 0 
L 0 3 
" style="stroke: #000000; stroke-width: 0.6"/>
      </defs>
      <g>
       <use xlink:href="#md83021b0c7" x="50.783186" y="12.042938" style="stroke: #000000; stroke-width: 0.6"/>
      </g>
     </g>
    </g>
    <g id="xtick_4">
     <g id="line2d_7">
      <g>
       <use xlink:href="#mbf2be04a6d" x="62.898901" y="232.66419" style="stroke: #000000; stroke-width: 0.6"/>
      </g>
     </g>
     <g id="line2d_8">
      <g>
       <use xlink:href="#md83021b0c7" x="62.898901" y="12.042938" style="stroke: #000000; stroke-width: 0.6"/>
      </g>
     </g>
    </g>
    <g id="xtick_5">
     <g id="line2d_9">
      <g>
       <use xlink:href="#mbf2be04a6d" x="73.585719" y="232.66419" style="stroke: #000000; stroke-width: 0.6"/>
      </g>
     </g>
     <g id="line2d_10">
      <g>
       <use xlink:href="#md83021b0c7" x="73.585719" y="12.042938" style="stroke: #000000; stroke-width: 0.6"/>
      </g>
     </g>
    </g>
    <g id="xtick_6">
     <g id="line2d_11">
      <g>
       <use xlink:href="#mbf2be04a6d" x="146.036785" y="232.66419" style="stroke: #000000; stroke-width: 0.6"/>
      </g>
     </g>
     <g id="line2d_12">
      <g>
       <use xlink:href="#md83021b0c7" x="146.036785" y="12.042938" style="stroke: #000000; stroke-width: 0.6"/>
      </g>
     </g>
    </g>
    <g id="xtick_7">
     <g id="line2d_13">
      <g>
       <use xlink:href="#mbf2be04a6d" x="182.825885" y="232.66419" style="stroke: #000000; stroke-width: 0.6"/>
      </g>
     </g>
     <g id="line2d_14">
      <g>
       <use xlink:href="#md83021b0c7" x="182.825885" y="12.042938" style="stroke: #000000; stroke-width: 0.6"/>
      </g>
     </g>
    </g>
    <g id="xtick_8">
     <g id="line2d_15">
      <g>
       <use xlink:href="#mbf2be04a6d" x="208.928167" y="232.66419" style="stroke: #000000; stroke-width: 0.6"/>
      </g>
     </g>
     <g id="line2d_16">
      <g>
       <use xlink:href="#md83021b0c7" x="208.928167" y="12.042938" style="stroke: #000000; stroke-width: 0.6"/>
      </g>
     </g>
    </g>
    <g id="xtick_9">
     <g id="line2d_17">
      <g>
       <use xlink:href="#mbf2be04a6d" x="229.17467" y="232.66419" style="stroke: #000000; stroke-width: 0.6"/>
      </g>
     </g>
     <g id="line2d_18">
      <g>
       <use xlink:href="#md83021b0c7" x="229.17467" y="12.042938" style="stroke: #000000; stroke-width: 0.6"/>
      </g>
     </g>
    </g>
    <g id="xtick_10">
     <g id="line2d_19">
      <g>
       <use xlink:href="#mbf2be04a6d" x="245.717267" y="232.66419" style="stroke: #000000; stroke-width: 0.6"/>
      </g>
     </g>
     <g id="line2d_20">
      <g>
       <use xlink:href="#md83021b0c7" x="245.717267" y="12.042938" style="stroke: #000000; stroke-width: 0.6"/>
      </g>
     </g>
    </g>
    <g id="xtick_11">
     <g id="line2d_21">
      <g>
       <use xlink:href="#mbf2be04a6d" x="259.703834" y="232.66419" style="stroke: #000000; stroke-width: 0.6"/>
      </g>
     </g>
     <g id="line2d_22">
      <g>
       <use xlink:href="#md83021b0c7" x="259.703834" y="12.042938" style="stroke: #000000; stroke-width: 0.6"/>
      </g>
     </g>
    </g>
    <g id="xtick_12">
     <g id="line2d_23">
      <g>
       <use xlink:href="#mbf2be04a6d" x="271.819549" y="232.66419" style="stroke: #000000; stroke-width: 0.6"/>
      </g>
     </g>
     <g id="line2d_24">
      <g>
       <use xlink:href="#md83021b0c7" x="271.819549" y="12.042938" style="stroke: #000000; stroke-width: 0.6"/>
      </g>
     </g>
    </g>
    <g id="xtick_13">
     <g id="line2d_25">
      <g>
       <use xlink:href="#mbf2be04a6d" x="282.506367" y="232.66419" style="stroke: #000000; stroke-width: 0.6"/>
      </g>
     </g>
     <g id="line2d_26">
      <g>
       <use xlink:href="#md83021b0c7" x="282.506367" y="12.042938" style="stroke: #000000; stroke-width: 0.6"/>
      </g>
     </g>
    </g>
    <g id="xtick_14">
     <g id="line2d_27">
      <g>
       <use xlink:href="#mbf2be04a6d" x="354.957433" y="232.66419" style="stroke: #000000; stroke-width: 0.6"/>
      </g>
     </g>
     <g id="line2d_28">
      <g>
       <use xlink:href="#md83021b0c7" x="354.957433" y="12.042938" style="stroke: #000000; stroke-width: 0.6"/>
      </g>
     </g>
    </g>
    <g id="xtick_15">
     <g id="line2d_29">
      <g>
       <use xlink:href="#mbf2be04a6d" x="391.746533" y="232.66419" style="stroke: #000000; stroke-width: 0.6"/>
      </g>
     </g>
     <g id="line2d_30">
      <g>
       <use xlink:href="#md83021b0c7" x="391.746533" y="12.042938" style="stroke: #000000; stroke-width: 0.6"/>
      </g>
     </g>
    </g>
    <g id="xtick_16">
     <g id="line2d_31">
      <g>
       <use xlink:href="#mbf2be04a6d" x="417.848815" y="232.66419" style="stroke: #000000; stroke-width: 0.6"/>
      </g>
     </g>
     <g id="line2d_32">
      <g>
       <use xlink:href="#md83021b0c7" x="417.848815" y="12.042938" style="stroke: #000000; stroke-width: 0.6"/>
      </g>
     </g>
    </g>
    <g id="xtick_17">
     <g id="line2d_33">
      <g>
       <use xlink:href="#mbf2be04a6d" x="438.095318" y="232.66419" style="stroke: #000000; stroke-width: 0.6"/>
      </g>
     </g>
     <g id="line2d_34">
      <g>
       <use xlink:href="#md83021b0c7" x="438.095318" y="12.042938" style="stroke: #000000; stroke-width: 0.6"/>
      </g>
     </g>
    </g>
    <g id="xtick_18">
     <g id="line2d_35">
      <g>
       <use xlink:href="#mbf2be04a6d" x="454.637915" y="232.66419" style="stroke: #000000; stroke-width: 0.6"/>
      </g>
     </g>
     <g id="line2d_36">
      <g>
       <use xlink:href="#md83021b0c7" x="454.637915" y="12.042938" style="stroke: #000000; stroke-width: 0.6"/>
      </g>
     </g>
    </g>
    <g id="xtick_19">
     <g id="line2d_37">
      <g>
       <use xlink:href="#mbf2be04a6d" x="468.624482" y="232.66419" style="stroke: #000000; stroke-width: 0.6"/>
      </g>
     </g>
     <g id="line2d_38">
      <g>
       <use xlink:href="#md83021b0c7" x="468.624482" y="12.042938" style="stroke: #000000; stroke-width: 0.6"/>
      </g>
     </g>
    </g>
    <g id="xtick_20">
     <g id="line2d_39">
      <g>
       <use xlink:href="#mbf2be04a6d" x="480.740197" y="232.66419" style="stroke: #000000; stroke-width: 0.6"/>
      </g>
     </g>
     <g id="line2d_40">
      <g>
       <use xlink:href="#md83021b0c7" x="480.740197" y="12.042938" style="stroke: #000000; stroke-width: 0.6"/>
      </g>
     </g>
    </g>
    <g id="text_3">
     <!-- $k$ -->
     <g transform="translate(260.090747 262.247972) scale(0.14 -0.14)">
      <defs>
       <path id="CMMI12-6b" d="M 1798 4257 
C 1805 4283 1818 4321 1818 4352 
C 1818 4416 1754 4416 1741 4416 
C 1734 4416 1504 4393 1389 4377 
C 1280 4377 1184 4358 1069 4358 
C 915 4345 870 4339 870 4224 
C 870 4160 934 4160 998 4160 
C 1325 4160 1325 4103 1325 4040 
C 1325 4015 1325 4002 1293 3888 
L 378 248 
C 352 152 352 140 352 101 
C 352 -38 461 -64 525 -64 
C 704 -64 742 77 794 275 
L 1094 1469 
C 1555 1418 1830 1226 1830 920 
C 1830 881 1830 856 1811 760 
C 1786 664 1786 588 1786 556 
C 1786 185 2029 -64 2355 -64 
C 2650 -64 2803 204 2854 294 
C 2989 530 3072 888 3072 913 
C 3072 945 3046 971 3008 971 
C 2950 971 2944 945 2918 843 
C 2829 511 2694 64 2368 64 
C 2240 64 2157 128 2157 370 
C 2157 492 2182 632 2208 728 
C 2234 843 2234 849 2234 926 
C 2234 1303 1894 1514 1306 1590 
C 1536 1731 1766 1980 1856 2076 
C 2221 2484 2470 2689 2765 2689 
C 2912 2689 2950 2650 2995 2612 
C 2758 2586 2669 2420 2669 2293 
C 2669 2139 2790 2088 2880 2088 
C 3053 2088 3206 2235 3206 2440 
C 3206 2625 3059 2816 2771 2816 
C 2419 2816 2131 2567 1677 2056 
C 1613 1980 1376 1737 1139 1648 
L 1798 4257 
z
" transform="scale(0.015625)"/>
      </defs>
      <use xlink:href="#CMMI12-6b" transform="scale(0.996264)"/>
     </g>
    </g>
   </g>
   <g id="matplotlib.axis_2">
    <g id="ytick_1">
     <g id="line2d_41">
      <defs>
       <path id="mf74bdabf83" d="M 0 0 
L 6 0 
" style="stroke: #000000; stroke-width: 0.8"/>
      </defs>
      <g>
       <use xlink:href="#mf74bdabf83" x="46.32442" y="232.66419" style="stroke: #000000; stroke-width: 0.8"/>
      </g>
     </g>
     <g id="line2d_42">
      <defs>
       <path id="m83b3738fb9" d="M 0 0 
L -6 0 
" style="stroke: #000000; stroke-width: 0.8"/>
      </defs>
      <g>
       <use xlink:href="#m83b3738fb9" x="480.96" y="232.66419" style="stroke: #000000; stroke-width: 0.8"/>
      </g>
     </g>
     <g id="text_4">
      <!-- $\mathdefault{−6}$ -->
      <g transform="translate(25.147696 237.507129) scale(0.14 -0.14)">
       <defs>
        <path id="CMSY10-0" d="M 4218 1472 
C 4326 1472 4442 1472 4442 1600 
C 4442 1728 4326 1728 4218 1728 
L 755 1728 
C 646 1728 531 1728 531 1600 
C 531 1472 646 1472 755 1472 
L 4218 1472 
z
" transform="scale(0.015625)"/>
        <path id="CMR17-36" d="M 678 2176 
C 678 3690 1395 4032 1811 4032 
C 1946 4032 2272 4009 2400 3776 
C 2298 3776 2106 3776 2106 3553 
C 2106 3381 2246 3323 2336 3323 
C 2394 3323 2566 3348 2566 3560 
C 2566 3954 2246 4179 1805 4179 
C 1043 4179 243 3390 243 1984 
C 243 253 966 -128 1478 -128 
C 2099 -128 2688 427 2688 1283 
C 2688 2081 2170 2662 1517 2662 
C 1126 2662 838 2407 678 1960 
L 678 2176 
z
M 1478 25 
C 691 25 691 1200 691 1436 
C 691 1896 909 2560 1504 2560 
C 1613 2560 1926 2560 2138 2120 
C 2253 1870 2253 1609 2253 1289 
C 2253 944 2253 690 2118 434 
C 1978 171 1773 25 1478 25 
z
" transform="scale(0.015625)"/>
       </defs>
       <use xlink:href="#CMSY10-0" transform="scale(0.996264)"/>
       <use xlink:href="#CMR17-36" transform="translate(77.487468 0) scale(0.996264)"/>
      </g>
     </g>
    </g>
    <g id="ytick_2">
     <g id="line2d_43">
      <g>
       <use xlink:href="#mf74bdabf83" x="46.32442" y="195.893982" style="stroke: #000000; stroke-width: 0.8"/>
      </g>
     </g>
     <g id="line2d_44">
      <g>
       <use xlink:href="#m83b3738fb9" x="480.96" y="195.893982" style="stroke: #000000; stroke-width: 0.8"/>
      </g>
     </g>
     <g id="text_5">
      <!-- $\mathdefault{−5}$ -->
      <g transform="translate(25.147696 200.73692) scale(0.14 -0.14)">
       <defs>
        <path id="CMR17-35" d="M 730 3692 
C 794 3666 1056 3584 1325 3584 
C 1920 3584 2246 3911 2432 4100 
C 2432 4157 2432 4192 2394 4192 
C 2387 4192 2374 4192 2323 4163 
C 2099 4058 1837 3973 1517 3973 
C 1325 3973 1037 3999 723 4139 
C 653 4171 640 4171 634 4171 
C 602 4171 595 4164 595 4037 
L 595 2203 
C 595 2089 595 2057 659 2057 
C 691 2057 704 2070 736 2114 
C 941 2401 1222 2522 1542 2522 
C 1766 2522 2246 2382 2246 1289 
C 2246 1085 2246 715 2054 421 
C 1894 159 1645 25 1370 25 
C 947 25 518 320 403 814 
C 429 807 480 795 506 795 
C 589 795 749 840 749 1038 
C 749 1210 627 1280 506 1280 
C 358 1280 262 1190 262 1011 
C 262 454 704 -128 1382 -128 
C 2042 -128 2669 440 2669 1264 
C 2669 2030 2170 2624 1549 2624 
C 1222 2624 947 2503 730 2274 
L 730 3692 
z
" transform="scale(0.015625)"/>
       </defs>
       <use xlink:href="#CMSY10-0" transform="scale(0.996264)"/>
       <use xlink:href="#CMR17-35" transform="translate(77.487468 0) scale(0.996264)"/>
      </g>
     </g>
    </g>
    <g id="ytick_3">
     <g id="line2d_45">
      <g>
       <use xlink:href="#mf74bdabf83" x="46.32442" y="159.123773" style="stroke: #000000; stroke-width: 0.8"/>
      </g>
     </g>
     <g id="line2d_46">
      <g>
       <use xlink:href="#m83b3738fb9" x="480.96" y="159.123773" style="stroke: #000000; stroke-width: 0.8"/>
      </g>
     </g>
     <g id="text_6">
      <!-- $\mathdefault{−4}$ -->
      <g transform="translate(25.147696 163.966711) scale(0.14 -0.14)">
       <defs>
        <path id="CMR17-34" d="M 2150 4122 
C 2150 4256 2144 4256 2029 4256 
L 128 1254 
L 128 1088 
L 1779 1088 
L 1779 457 
C 1779 224 1766 160 1318 160 
L 1197 160 
L 1197 0 
C 1402 0 1747 0 1965 0 
C 2182 0 2528 0 2733 0 
L 2733 160 
L 2611 160 
C 2163 160 2150 224 2150 457 
L 2150 1088 
L 2803 1088 
L 2803 1254 
L 2150 1254 
L 2150 4122 
z
M 1798 3703 
L 1798 1254 
L 256 1254 
L 1798 3703 
z
" transform="scale(0.015625)"/>
       </defs>
       <use xlink:href="#CMSY10-0" transform="scale(0.996264)"/>
       <use xlink:href="#CMR17-34" transform="translate(77.487468 0) scale(0.996264)"/>
      </g>
     </g>
    </g>
    <g id="ytick_4">
     <g id="line2d_47">
      <g>
       <use xlink:href="#mf74bdabf83" x="46.32442" y="122.353564" style="stroke: #000000; stroke-width: 0.8"/>
      </g>
     </g>
     <g id="line2d_48">
      <g>
       <use xlink:href="#m83b3738fb9" x="480.96" y="122.353564" style="stroke: #000000; stroke-width: 0.8"/>
      </g>
     </g>
     <g id="text_7">
      <!-- $\mathdefault{−3}$ -->
      <g transform="translate(25.147696 127.196503) scale(0.14 -0.14)">
       <defs>
        <path id="CMR17-33" d="M 1414 2157 
C 1984 2157 2234 1662 2234 1090 
C 2234 320 1824 25 1453 25 
C 1114 25 563 194 390 693 
C 422 680 454 680 486 680 
C 640 680 755 782 755 948 
C 755 1133 614 1216 486 1216 
C 378 1216 211 1165 211 926 
C 211 335 787 -128 1466 -128 
C 2176 -128 2720 430 2720 1085 
C 2720 1707 2208 2157 1600 2227 
C 2086 2328 2554 2756 2554 3329 
C 2554 3820 2048 4179 1472 4179 
C 890 4179 378 3829 378 3329 
C 378 3110 544 3072 627 3072 
C 762 3072 877 3155 877 3321 
C 877 3486 762 3569 627 3569 
C 602 3569 570 3569 544 3557 
C 730 3959 1235 4032 1459 4032 
C 1683 4032 2106 3925 2106 3320 
C 2106 3143 2080 2828 1862 2550 
C 1670 2304 1453 2304 1242 2284 
C 1210 2284 1062 2269 1037 2269 
C 992 2263 966 2257 966 2208 
C 966 2163 973 2157 1101 2157 
L 1414 2157 
z
" transform="scale(0.015625)"/>
       </defs>
       <use xlink:href="#CMSY10-0" transform="scale(0.996264)"/>
       <use xlink:href="#CMR17-33" transform="translate(77.487468 0) scale(0.996264)"/>
      </g>
     </g>
    </g>
    <g id="ytick_5">
     <g id="line2d_49">
      <g>
       <use xlink:href="#mf74bdabf83" x="46.32442" y="85.583356" style="stroke: #000000; stroke-width: 0.8"/>
      </g>
     </g>
     <g id="line2d_50">
      <g>
       <use xlink:href="#m83b3738fb9" x="480.96" y="85.583356" style="stroke: #000000; stroke-width: 0.8"/>
      </g>
     </g>
     <g id="text_8">
      <!-- $\mathdefault{−2}$ -->
      <g transform="translate(25.147696 90.426294) scale(0.14 -0.14)">
       <use xlink:href="#CMSY10-0" transform="scale(0.996264)"/>
       <use xlink:href="#CMR17-32" transform="translate(77.487468 0) scale(0.996264)"/>
      </g>
     </g>
    </g>
    <g id="ytick_6">
     <g id="line2d_51">
      <g>
       <use xlink:href="#mf74bdabf83" x="46.32442" y="48.813147" style="stroke: #000000; stroke-width: 0.8"/>
      </g>
     </g>
     <g id="line2d_52">
      <g>
       <use xlink:href="#m83b3738fb9" x="480.96" y="48.813147" style="stroke: #000000; stroke-width: 0.8"/>
      </g>
     </g>
     <g id="text_9">
      <!-- $\mathdefault{−1}$ -->
      <g transform="translate(25.147696 53.656085) scale(0.14 -0.14)">
       <use xlink:href="#CMSY10-0" transform="scale(0.996264)"/>
       <use xlink:href="#CMR17-31" transform="translate(77.487468 0) scale(0.996264)"/>
      </g>
     </g>
    </g>
    <g id="ytick_7">
     <g id="line2d_53">
      <g>
       <use xlink:href="#mf74bdabf83" x="46.32442" y="12.042938" style="stroke: #000000; stroke-width: 0.8"/>
      </g>
     </g>
     <g id="line2d_54">
      <g>
       <use xlink:href="#m83b3738fb9" x="480.96" y="12.042938" style="stroke: #000000; stroke-width: 0.8"/>
      </g>
     </g>
     <g id="text_10">
      <!-- $\mathdefault{0}$ -->
      <g transform="translate(35.995931 16.885876) scale(0.14 -0.14)">
       <use xlink:href="#CMR17-30" transform="scale(0.996264)"/>
      </g>
     </g>
    </g>
    <g id="text_11">
     <!-- $\mathrm{d}(\log P)/\mathrm{d}(\log k)$ -->
     <g transform="translate(17.660772 173.077306) rotate(-90) scale(0.14 -0.14)">
      <defs>
       <path id="CMR17-64" d="M 1869 4326 
L 1869 4160 
C 2246 4160 2304 4122 2304 3820 
L 2304 2345 
C 2278 2377 2016 2790 1498 2790 
C 845 2790 211 2208 211 1364 
C 211 525 806 -64 1434 -64 
C 1978 -64 2259 337 2291 380 
L 2291 -63 
L 3066 -63 
L 3066 128 
C 2688 128 2630 166 2630 473 
L 2630 4396 
L 1869 4326 
z
M 2291 755 
C 2291 563 2176 390 2029 262 
C 1811 70 1594 38 1472 38 
C 1286 38 621 134 621 1356 
C 621 2612 1363 2688 1530 2688 
C 1824 2688 2061 2522 2208 2291 
C 2291 2157 2291 2138 2291 2023 
L 2291 755 
z
" transform="scale(0.015625)"/>
       <path id="CMR17-28" d="M 1958 -1561 
C 1958 -1555 1958 -1542 1939 -1523 
C 1645 -1224 858 -407 858 1581 
C 858 3569 1632 4379 1946 4697 
C 1946 4704 1958 4717 1958 4736 
C 1958 4755 1939 4768 1914 4768 
C 1843 4768 1299 4296 986 3594 
C 666 2887 576 2199 576 1588 
C 576 1128 621 351 1005 -471 
C 1312 -1135 1837 -1600 1914 -1600 
C 1946 -1600 1958 -1587 1958 -1561 
z
" transform="scale(0.015625)"/>
       <path id="CMR17-6c" d="M 979 4396 
L 218 4326 
L 218 4160 
C 595 4160 653 4122 653 3817 
L 653 426 
C 653 184 627 153 218 153 
L 218 -13 
C 371 0 653 0 813 0 
C 979 0 1261 0 1414 -13 
L 1414 153 
C 1005 153 979 178 979 426 
L 979 4396 
z
" transform="scale(0.015625)"/>
       <path id="CMR17-6f" d="M 2758 1356 
C 2758 2176 2163 2816 1466 2816 
C 768 2816 173 2176 173 1356 
C 173 551 768 -64 1466 -64 
C 2163 -64 2758 551 2758 1356 
z
M 1466 51 
C 1165 51 909 230 762 480 
C 602 767 582 1126 582 1408 
C 582 1677 595 2010 762 2298 
C 890 2509 1139 2714 1466 2714 
C 1754 2714 1997 2554 2150 2330 
C 2349 2029 2349 1607 2349 1408 
C 2349 1158 2336 775 2163 467 
C 1984 173 1709 51 1466 51 
z
" transform="scale(0.015625)"/>
       <path id="CMR17-67" d="M 710 1164 
C 832 1068 1043 960 1299 960 
C 1805 960 2240 1357 2240 1888 
C 2240 2054 2189 2310 1997 2509 
C 2176 2692 2438 2752 2586 2752 
C 2611 2752 2650 2752 2682 2734 
C 2656 2728 2598 2703 2598 2605 
C 2598 2527 2656 2471 2739 2471 
C 2835 2471 2886 2533 2886 2614 
C 2886 2731 2790 2854 2586 2854 
C 2330 2854 2106 2738 1926 2580 
C 1734 2753 1504 2816 1299 2816 
C 794 2816 358 2419 358 1888 
C 358 1522 570 1292 634 1228 
C 442 1004 442 743 442 711 
C 442 545 506 302 723 168 
C 390 85 128 -169 128 -486 
C 128 -943 736 -1280 1466 -1280 
C 2170 -1280 2803 -956 2803 -479 
C 2803 384 1856 384 1363 384 
C 1216 384 954 384 922 391 
C 723 423 589 602 589 826 
C 589 883 589 1024 710 1164 
z
M 1299 1068 
C 736 1068 736 1760 736 1889 
C 736 2016 736 2708 1299 2708 
C 1862 2708 1862 2016 1862 1889 
C 1862 1760 1862 1068 1299 1068 
z
M 1466 -1171 
C 826 -1171 384 -835 384 -486 
C 384 -289 493 -105 634 -4 
C 794 104 858 104 1293 104 
C 1818 104 2547 104 2547 -486 
C 2547 -835 2106 -1171 1466 -1171 
z
" transform="scale(0.015625)"/>
       <path id="CMMI12-50" d="M 1894 2023 
L 2970 2023 
C 3853 2023 4736 2673 4736 3401 
C 4736 3898 4314 4352 3507 4352 
L 1530 4352 
C 1408 4352 1350 4352 1350 4231 
C 1350 4167 1408 4167 1504 4167 
C 1894 4167 1894 4116 1894 4046 
C 1894 4034 1894 3995 1869 3899 
L 1005 472 
C 947 249 934 185 486 185 
C 365 185 301 185 301 70 
C 301 0 358 0 397 0 
C 518 0 646 0 768 0 
L 1517 0 
C 1638 0 1773 0 1894 0 
C 1946 0 2016 0 2016 121 
C 2016 185 1958 185 1862 185 
C 1478 185 1472 230 1472 293 
C 1472 325 1478 369 1485 401 
L 1894 2023 
z
M 2355 3930 
C 2413 4167 2438 4167 2688 4167 
L 3322 4167 
C 3802 4167 4198 4013 4198 3535 
C 4198 3369 4115 2827 3821 2534 
C 3712 2419 3405 2176 2822 2176 
L 1920 2176 
L 2355 3930 
z
" transform="scale(0.015625)"/>
       <path id="CMR17-29" d="M 1683 1581 
C 1683 2040 1638 2817 1254 3639 
C 947 4303 422 4768 346 4768 
C 326 4768 301 4761 301 4729 
C 301 4717 307 4710 314 4697 
C 621 4378 1402 3568 1402 1584 
C 1402 -407 627 -1217 314 -1537 
C 307 -1549 301 -1556 301 -1568 
C 301 -1600 326 -1600 346 -1600 
C 416 -1600 960 -1128 1274 -426 
C 1594 281 1683 969 1683 1581 
z
" transform="scale(0.015625)"/>
       <path id="CMMI12-3d" d="M 2746 4562 
C 2746 4569 2784 4666 2784 4678 
C 2784 4755 2720 4800 2669 4800 
C 2637 4800 2579 4800 2528 4659 
L 384 -1363 
C 384 -1370 346 -1465 346 -1478 
C 346 -1555 410 -1600 461 -1600 
C 499 -1600 557 -1593 602 -1459 
L 2746 4562 
z
" transform="scale(0.015625)"/>
      </defs>
      <use xlink:href="#CMR17-64" transform="scale(0.996264)"/>
      <use xlink:href="#CMR17-28" transform="translate(50.89537 0) scale(0.996264)"/>
      <use xlink:href="#CMR17-6c" transform="translate(86.176138 0) scale(0.996264)"/>
      <use xlink:href="#CMR17-6f" transform="translate(111.047196 0) scale(0.996264)"/>
      <use xlink:href="#CMR17-67" transform="translate(156.737673 0) scale(0.996264)"/>
      <use xlink:href="#CMMI12-50" transform="translate(220.333722 0) scale(0.996264)"/>
      <use xlink:href="#CMR17-29" transform="translate(296.759542 0) scale(0.996264)"/>
      <use xlink:href="#CMMI12-3d" transform="translate(332.04031 0) scale(0.996264)"/>
      <use xlink:href="#CMR17-64" transform="translate(380.815229 0) scale(0.996264)"/>
      <use xlink:href="#CMR17-28" transform="translate(431.710599 0) scale(0.996264)"/>
      <use xlink:href="#CMR17-6c" transform="translate(466.991367 0) scale(0.996264)"/>
      <use xlink:href="#CMR17-6f" transform="translate(491.862425 0) scale(0.996264)"/>
      <use xlink:href="#CMR17-67" transform="translate(537.552902 0) scale(0.996264)"/>
      <use xlink:href="#CMMI12-6b" transform="translate(601.148951 0) scale(0.996264)"/>
      <use xlink:href="#CMR17-29" transform="translate(655.228151 0) scale(0.996264)"/>
     </g>
    </g>
   </g>
   <g id="line2d_55">
    <path d="M 46.32442 42.068042 
L 92.673204 53.590447 
L 123.202368 73.195728 
L 146.004902 93.235268 
L 164.212373 114.361916 
L 179.369705 131.613767 
L 192.353686 154.978506 
L 203.710124 180.304331 
L 213.801969 186.914834 
L 222.88285 184.027087 
L 231.137 183.457562 
L 238.702471 172.729523 
L 245.685383 150.757833 
L 252.169076 155.629234 
L 258.22019 159.119737 
L 263.892854 152.961013 
L 269.231635 154.028109 
L 274.273659 141.869023 
L 279.050187 135.691538 
L 283.587787 138.353925 
L 287.909226 161.301085 
L 292.034168 161.697518 
L 295.979706 149.657537 
L 299.760798 150.302782 
L 303.390606 143.836661 
L 306.88077 151.235288 
L 310.241639 151.011385 
L 313.482451 147.632167 
L 316.611488 145.38253 
L 322.563332 142.705015 
L 325.398971 148.30031 
L 328.148669 159.129796 
L 330.817482 158.890151 
L 333.410032 155.115217 
L 335.930558 139.392302 
L 338.382952 144.902005 
L 340.770803 155.454321 
L 343.09742 154.629662 
L 345.365865 158.448859 
L 347.578977 139.438262 
L 349.73939 145.119999 
L 351.849557 155.158833 
L 353.911762 148.613856 
L 355.928135 152.125016 
L 357.900671 152.345394 
L 359.831235 131.346307 
L 361.721576 123.785642 
L 363.573336 147.92217 
L 365.388058 148.903823 
L 367.167195 151.802141 
L 368.912116 142.027401 
L 370.624112 138.461825 
L 372.304402 153.230773 
L 373.95414 133.971236 
L 375.574417 139.104722 
L 377.166266 155.7651 
L 378.730669 148.117643 
L 380.268554 160.568276 
L 381.780807 187.559169 
L 383.268268 181.143591 
L 384.731737 167.692417 
L 386.171975 161.984615 
L 387.589708 139.623579 
L 388.985629 154.823442 
L 390.360399 154.406408 
L 391.714649 137.093459 
L 393.048984 145.282703 
L 394.363979 146.423506 
L 395.660188 143.58229 
L 396.93814 134.685613 
L 398.198342 127.507061 
L 399.44128 143.817925 
L 400.667422 133.774139 
L 401.877214 98.649235 
L 403.071088 104.466244 
L 404.249456 119.902855 
L 405.412716 148.618094 
L 406.561252 156.428481 
L 407.69543 120.874451 
L 408.815606 126.198671 
L 409.922121 152.229494 
L 411.015304 146.054539 
L 412.095472 149.448646 
L 413.162932 167.508348 
L 414.21798 169.885363 
L 415.260901 171.166698 
L 416.29197 158.469535 
L 417.311453 159.068606 
L 418.319609 164.887661 
L 419.316686 138.476239 
L 420.302925 132.413542 
L 421.278559 123.660123 
L 422.243813 146.58473 
L 423.198907 179.669573 
L 424.144052 152.964967 
L 425.079453 142.701171 
L 426.005309 159.259877 
L 426.921813 142.298075 
L 427.829151 131.434187 
L 428.727506 146.802452 
L 429.617053 141.632047 
L 430.497963 142.517083 
L 431.370404 137.017068 
L 432.234535 129.587714 
L 433.090514 161.689675 
L 433.938493 173.45559 
L 434.77862 159.061451 
L 435.611039 139.705014 
L 436.435891 126.962793 
L 437.253312 156.450347 
L 438.063434 180.972138 
L 439.662296 136.414158 
L 440.451285 145.679486 
L 441.233471 157.572102 
L 442.008972 152.68992 
L 442.777901 121.07273 
L 444.296482 185.10901 
L 445.046347 157.110287 
L 445.790065 139.00886 
L 446.527736 138.483516 
L 447.259458 151.717122 
L 447.985327 148.879665 
L 448.705435 149.945093 
L 450.128728 112.863448 
L 450.832089 153.152408 
L 451.530039 160.457736 
L 452.222661 138.021192 
L 452.910036 149.829999 
L 453.592243 164.404671 
L 454.269359 130.809304 
L 454.941459 136.216559 
L 455.608617 157.129965 
L 456.270905 127.025976 
L 456.928394 154.509131 
L 457.581153 154.431102 
L 458.229249 136.257977 
L 458.872749 131.955403 
L 459.511717 131.397672 
L 460.146217 172.190943 
L 460.77631 167.429124 
L 461.402058 132.909733 
L 462.02352 111.101596 
L 462.640754 131.610221 
L 463.253818 169.51704 
L 463.862767 165.929627 
L 464.467656 141.51743 
L 465.06854 144.830869 
L 465.66547 193.866803 
L 466.847677 150.269135 
L 467.433054 177.373386 
L 468.014678 177.252143 
L 468.592598 165.022222 
L 469.16686 139.138995 
L 469.73751 147.459685 
L 470.304594 175.680915 
L 470.868155 186.330662 
L 471.984884 121.637542 
L 472.538136 149.058098 
L 473.088035 142.117757 
L 473.634622 123.950207 
L 474.177935 120.048488 
L 474.718015 117.762512 
L 475.254899 126.475552 
L 475.788624 108.671472 
L 476.319229 119.282314 
L 476.846748 152.580528 
L 477.371218 144.678897 
L 477.892674 109.744145 
L 478.41115 104.007608 
L 478.926681 114.757129 
L 479.439298 109.477037 
L 479.949036 119.04969 
L 480.455926 103.493135 
L 480.96 79.105814 
L 480.96 79.105814 
" clip-path="url(#p311c08f0b8)" style="fill: none; stroke: #0000ff; stroke-linecap: square"/>
   </g>
   <g id="line2d_56">
    <path d="M 46.32442 41.777819 
L 92.673204 54.496663 
L 123.202368 73.980896 
L 146.004902 94.222524 
L 164.212373 116.134236 
L 179.369705 135.24779 
L 192.353686 159.925493 
L 203.710124 184.535233 
L 213.801969 191.727616 
L 222.88285 182.902555 
L 231.137 175.15552 
L 238.702471 165.015271 
L 245.685383 143.177446 
L 252.169076 144.796174 
L 258.22019 150.180971 
L 263.892854 150.567591 
L 269.231635 146.434288 
L 274.273659 133.509523 
L 279.050187 133.002359 
L 283.587787 132.909808 
L 287.909226 143.113824 
L 292.034168 137.191745 
L 295.979706 129.981871 
L 299.760798 133.553405 
L 303.390606 122.092821 
L 306.88077 128.790864 
L 310.241639 134.06394 
L 313.482451 126.134489 
L 316.611488 125.458984 
L 319.636204 124.019991 
L 322.563332 124.357953 
L 325.398971 132.319283 
L 328.148669 133.540124 
L 330.817482 125.263644 
L 333.410032 120.871677 
L 335.930558 110.544592 
L 338.382952 108.038891 
L 343.09742 123.174113 
L 345.365865 126.7128 
L 347.578977 109.983571 
L 349.73939 113.691515 
L 351.849557 121.374416 
L 353.911762 117.692838 
L 355.928135 121.378756 
L 357.900671 121.046155 
L 359.831235 106.126229 
L 361.721576 102.88499 
L 363.573336 116.782836 
L 365.388058 118.654791 
L 367.167195 132.495886 
L 368.912116 129.404095 
L 370.624112 115.329354 
L 372.304402 110.532193 
L 373.95414 95.086898 
L 375.574417 101.575782 
L 377.166266 109.603085 
L 378.730669 104.878507 
L 380.268554 127.677142 
L 381.780807 147.465061 
L 383.268268 117.292006 
L 384.731737 109.160983 
L 386.171975 114.027535 
L 387.589708 104.133682 
L 388.985629 113.343036 
L 390.360399 107.849705 
L 391.714649 112.183482 
L 393.048984 111.901778 
L 394.363979 112.706897 
L 395.660188 126.813016 
L 396.93814 129.370963 
L 398.198342 119.094827 
L 399.44128 107.636596 
L 400.667422 75.911579 
L 401.877214 50.960098 
L 403.071088 69.928563 
L 404.249456 67.11446 
L 405.412716 80.065852 
L 406.561252 105.231649 
L 407.69543 88.332217 
L 408.815606 82.772914 
L 409.922121 95.718858 
L 411.015304 102.564967 
L 412.095472 92.058396 
L 413.162932 86.964214 
L 414.21798 82.472356 
L 415.260901 84.950735 
L 416.29197 106.971447 
L 417.311453 114.657857 
L 418.319609 107.600735 
L 419.316686 93.828679 
L 421.278559 103.441822 
L 422.243813 73.030545 
L 423.198907 53.356324 
L 424.144052 68.736541 
L 425.079453 76.304789 
L 427.829151 84.530356 
L 428.727506 103.963204 
L 429.617053 91.069602 
L 430.497963 58.230594 
L 431.370404 67.288301 
L 432.234535 103.07833 
L 433.090514 122.990007 
L 433.938493 111.08795 
L 434.77862 71.853609 
L 435.611039 65.820572 
L 436.435891 111.194461 
L 437.253312 94.447261 
L 438.063434 54.048004 
L 438.866387 42.602049 
L 439.662296 39.549286 
L 440.451285 51.864193 
L 441.233471 42.900867 
L 442.008972 42.513477 
L 442.777901 68.902467 
L 443.540369 64.566539 
L 444.296482 52.405599 
L 445.046347 54.522639 
L 445.790065 47.99121 
L 446.527736 81.49035 
L 447.259458 101.911281 
L 447.985327 63.639219 
L 448.705435 57.744777 
L 449.419872 92.527882 
L 450.128728 119.388237 
L 450.832089 124.804025 
L 451.530039 97.311925 
L 452.222661 84.626231 
L 452.910036 102.033893 
L 453.592243 99.918617 
L 454.269359 98.71452 
L 454.941459 79.021241 
L 455.608617 75.020857 
L 456.270905 95.553708 
L 456.928394 79.708217 
L 457.581153 74.603582 
L 458.229249 65.629174 
L 458.872749 74.771089 
L 459.511717 76.5959 
L 460.146217 61.240269 
L 460.77631 56.389334 
L 461.402058 59.89973 
L 462.02352 67.764494 
L 462.640754 62.35299 
L 463.253818 69.790861 
L 463.862767 60.916327 
L 464.467656 79.629927 
L 465.06854 93.788238 
L 465.66547 72.689128 
L 466.258499 58.340121 
L 466.847677 57.576784 
L 467.433054 119.130205 
L 468.014678 122.378143 
L 468.592598 82.482479 
L 469.16686 82.703103 
L 469.73751 77.096518 
L 470.868155 99.895654 
L 471.428238 77.533484 
L 471.984884 34.254339 
L 472.538136 51.770397 
L 473.088035 63.370873 
L 473.634622 41.958446 
L 474.177935 68.459809 
L 474.718015 101.987121 
L 475.254899 68.773196 
L 475.788624 17.928184 
L 476.846748 60.219447 
L 477.371218 45.83485 
L 477.892674 44.386803 
L 478.41115 36.224797 
L 478.926681 23.124055 
L 479.439298 34.993811 
L 479.949036 52.507161 
L 480.96 23.908694 
L 480.96 23.908694 
" clip-path="url(#p311c08f0b8)" style="fill: none; stroke: #ff0000; stroke-linecap: square"/>
   </g>
   <g id="line2d_57">
    <path d="M 228.791731 232.66419 
L 228.791731 12.042938 
" clip-path="url(#p311c08f0b8)" style="fill: none; stroke-dasharray: 1,1.65; stroke-dashoffset: 0; stroke: #ff0000; stroke-opacity: 0.7"/>
   </g>
   <g id="line2d_58">
    <path d="M 46.32442 40.58461 
L 92.673204 53.037457 
L 123.202368 71.635993 
L 146.004902 91.81426 
L 164.212373 113.809549 
L 179.369705 133.275852 
L 192.353686 157.261363 
L 203.710124 180.815731 
L 213.801969 187.707738 
L 222.88285 173.824083 
L 238.702471 152.756793 
L 245.685383 131.169547 
L 252.169076 131.838215 
L 258.22019 136.955396 
L 263.892854 140.911137 
L 269.231635 136.959563 
L 274.273659 127.551793 
L 279.050187 127.170575 
L 283.587787 122.887916 
L 287.909226 126.37169 
L 292.034168 117.028702 
L 295.979706 109.612758 
L 299.760798 114.360368 
L 303.390606 106.277233 
L 306.88077 111.320371 
L 310.241639 119.355298 
L 313.482451 110.436897 
L 316.611488 107.015597 
L 319.636204 108.115274 
L 322.563332 108.845432 
L 325.398971 111.677667 
L 328.148669 107.48295 
L 330.817482 99.29493 
L 335.930558 89.110755 
L 338.382952 92.128224 
L 340.770803 100.699932 
L 343.09742 105.498588 
L 345.365865 109.327835 
L 347.578977 97.694737 
L 349.73939 93.868788 
L 351.849557 102.945385 
L 353.911762 105.274895 
L 355.928135 103.576218 
L 357.900671 100.097672 
L 359.831235 93.559999 
L 361.721576 94.317144 
L 363.573336 101.268745 
L 365.388058 104.455096 
L 367.167195 114.755914 
L 368.912116 111.45273 
L 370.624112 105.935457 
L 372.304402 97.864331 
L 373.95414 83.60612 
L 375.574417 86.806766 
L 377.166266 88.700585 
L 378.730669 84.977182 
L 380.268554 105.032588 
L 381.780807 127.813706 
L 383.268268 104.80624 
L 384.731737 98.832613 
L 386.171975 99.239211 
L 387.589708 90.785965 
L 388.985629 100.674904 
L 390.360399 98.187255 
L 391.714649 102.794899 
L 393.048984 94.100896 
L 394.363979 98.826879 
L 395.660188 115.8179 
L 396.93814 119.593823 
L 398.198342 112.075431 
L 399.44128 93.801382 
L 400.667422 64.014101 
L 401.877214 46.852767 
L 403.071088 63.648189 
L 404.249456 56.38425 
L 405.412716 69.8046 
L 406.561252 89.656429 
L 407.69543 73.582504 
L 408.815606 74.104625 
L 409.922121 82.023489 
L 411.015304 85.195133 
L 412.095472 75.515594 
L 413.162932 68.676868 
L 414.21798 64.295652 
L 415.260901 63.574935 
L 416.29197 91.892586 
L 417.311453 103.682998 
L 418.319609 88.050408 
L 419.316686 86.632381 
L 420.302925 101.48264 
L 421.278559 96.622669 
L 422.243813 63.611957 
L 423.198907 41.73922 
L 425.079453 66.547865 
L 426.005309 74.216099 
L 426.921813 80.035264 
L 427.829151 79.404149 
L 428.727506 92.35849 
L 429.617053 83.413612 
L 430.497963 52.976326 
L 431.370404 58.821796 
L 432.234535 96.601912 
L 433.090514 106.30709 
L 433.938493 85.819544 
L 434.77862 55.317928 
L 435.611039 57.795264 
L 436.435891 101.291372 
L 437.253312 83.537573 
L 438.063434 47.609928 
L 438.866387 30.437325 
L 439.662296 27.892261 
L 440.451285 47.89875 
L 441.233471 40.789828 
L 442.008972 46.808896 
L 442.777901 67.340987 
L 443.540369 53.941773 
L 444.296482 48.079716 
L 445.046347 50.866123 
L 445.790065 47.552164 
L 446.527736 77.734553 
L 447.259458 98.796731 
L 447.985327 68.287984 
L 448.705435 55.590969 
L 450.128728 111.437075 
L 450.832089 113.277743 
L 451.530039 81.895549 
L 452.222661 71.509556 
L 452.910036 87.927667 
L 453.592243 86.330405 
L 454.269359 84.127835 
L 454.941459 66.042982 
L 455.608617 69.550104 
L 456.270905 91.843264 
L 456.928394 78.102863 
L 457.581153 72.537012 
L 458.229249 64.816611 
L 458.872749 75.118795 
L 459.511717 70.682033 
L 460.146217 56.178087 
L 460.77631 58.313217 
L 461.402058 61.490271 
L 462.02352 70.924578 
L 462.640754 69.276098 
L 463.253818 73.716719 
L 463.862767 68.170199 
L 465.06854 81.11037 
L 466.258499 56.414715 
L 466.847677 52.921066 
L 467.433054 98.963639 
L 468.014678 107.629041 
L 468.592598 79.944451 
L 469.16686 76.875237 
L 469.73751 70.120949 
L 470.868155 92.707093 
L 471.428238 61.326493 
L 471.984884 19.508875 
L 472.538136 43.494806 
L 473.088035 61.816881 
L 473.634622 38.076062 
L 474.177935 61.139568 
L 474.718015 98.463559 
L 475.788624 19.572334 
L 476.319229 44.521342 
L 476.846748 60.829887 
L 477.371218 57.822842 
L 477.892674 56.275858 
L 478.926681 26.715716 
L 479.439298 41.569608 
L 479.949036 62.607629 
L 480.96 27.692698 
L 480.96 27.692698 
" clip-path="url(#p311c08f0b8)" style="fill: none; stroke: #008000; stroke-linecap: square"/>
   </g>
   <g id="line2d_59">
    <path d="M 153.322073 232.66419 
L 153.322073 12.042938 
" clip-path="url(#p311c08f0b8)" style="fill: none; stroke-dasharray: 1,1.65; stroke-dashoffset: 0; stroke: #008000; stroke-opacity: 0.7"/>
   </g>
   <g id="line2d_60">
    <path d="M 46.32442 38.003725 
L 92.673204 49.534155 
L 123.202368 66.744296 
L 146.004902 85.792178 
L 164.212373 106.449618 
L 179.369705 125.226714 
L 192.353686 147.257058 
L 203.710124 168.80014 
L 213.801969 176.029117 
L 231.137 151.366234 
L 238.702471 137.540097 
L 245.685383 121.86664 
L 252.169076 122.753832 
L 258.22019 121.634859 
L 263.892854 129.909939 
L 269.231635 129.455933 
L 274.273659 122.370684 
L 279.050187 121.045617 
L 283.587787 116.866075 
L 287.909226 117.159996 
L 292.034168 107.510094 
L 295.979706 98.95324 
L 299.760798 102.489385 
L 303.390606 98.206031 
L 306.88077 97.14354 
L 310.241639 105.583867 
L 313.482451 101.942893 
L 316.611488 95.399369 
L 319.636204 102.278545 
L 322.563332 104.140966 
L 325.398971 98.03852 
L 328.148669 91.386397 
L 330.817482 85.760701 
L 333.410032 78.294121 
L 335.930558 77.221374 
L 338.382952 85.478116 
L 340.770803 96.688475 
L 343.09742 97.516389 
L 345.365865 99.113643 
L 347.578977 96.742169 
L 349.73939 88.853494 
L 351.849557 98.259144 
L 353.911762 101.686651 
L 355.928135 91.331258 
L 357.900671 89.648943 
L 359.831235 89.765651 
L 361.721576 89.636814 
L 363.573336 93.629091 
L 365.388058 98.121422 
L 367.167195 99.401091 
L 368.912116 95.359246 
L 370.624112 98.85826 
L 372.304402 92.824052 
L 373.95414 85.150793 
L 375.574417 79.082702 
L 377.166266 75.232502 
L 378.730669 73.022998 
L 380.268554 95.832816 
L 381.780807 125.616685 
L 383.268268 102.726675 
L 384.731737 97.874191 
L 386.171975 98.423845 
L 387.589708 84.197866 
L 388.985629 91.686155 
L 390.360399 97.569678 
L 391.714649 96.296855 
L 393.048984 84.339577 
L 394.363979 95.451067 
L 395.660188 104.603676 
L 396.93814 106.453847 
L 398.198342 103.627184 
L 399.44128 84.679744 
L 400.667422 56.638419 
L 401.877214 40.871302 
L 403.071088 59.715494 
L 404.249456 54.095931 
L 405.412716 67.981565 
L 406.561252 85.720451 
L 407.69543 75.414023 
L 408.815606 76.540892 
L 409.922121 78.373086 
L 411.015304 78.939773 
L 412.095472 68.379205 
L 413.162932 65.635948 
L 414.21798 63.31131 
L 415.260901 56.736082 
L 416.29197 86.267689 
L 417.311453 101.902833 
L 418.319609 82.464413 
L 419.316686 86.159926 
L 420.302925 106.169815 
L 421.278559 88.734514 
L 422.243813 61.429562 
L 423.198907 38.084573 
L 424.144052 40.494642 
L 425.079453 63.010511 
L 426.005309 72.648769 
L 426.921813 76.912081 
L 427.829151 70.397174 
L 428.727506 83.114196 
L 429.617053 81.519565 
L 430.497963 56.661189 
L 431.370404 62.87983 
L 432.234535 89.635418 
L 433.090514 86.971473 
L 433.938493 63.357862 
L 434.77862 51.984214 
L 435.611039 58.849113 
L 436.435891 92.50403 
L 437.253312 91.321046 
L 438.063434 63.399644 
L 438.866387 31.514001 
L 439.662296 20.314453 
L 440.451285 50.212006 
L 441.233471 53.617097 
L 442.008972 65.748576 
L 442.777901 70.462898 
L 443.540369 43.382337 
L 444.296482 48.285207 
L 445.046347 56.798768 
L 445.790065 63.189206 
L 446.527736 73.289391 
L 447.259458 85.809057 
L 447.985327 75.342857 
L 448.705435 56.029568 
L 450.128728 98.104755 
L 450.832089 100.547366 
L 451.530039 76.91072 
L 452.222661 67.462436 
L 452.910036 69.512548 
L 453.592243 68.382635 
L 454.269359 69.474651 
L 454.941459 63.154623 
L 455.608617 74.260997 
L 456.270905 80.335271 
L 456.928394 71.226151 
L 457.581153 72.926675 
L 458.229249 69.841441 
L 458.872749 76.214115 
L 459.511717 60.069638 
L 460.146217 56.034398 
L 460.77631 72.366041 
L 461.402058 67.132792 
L 462.02352 66.528042 
L 462.640754 79.568438 
L 463.253818 87.979292 
L 463.862767 83.426473 
L 464.467656 69.185822 
L 465.06854 63.521961 
L 465.66547 73.787229 
L 466.258499 75.372959 
L 466.847677 69.019844 
L 468.014678 92.277491 
L 468.592598 90.021424 
L 469.16686 75.741489 
L 469.73751 64.818519 
L 470.304594 79.814721 
L 470.868155 87.524863 
L 471.984884 8.055387 
L 472.538136 43.107088 
L 473.088035 61.995696 
L 473.634622 38.817995 
L 474.177935 53.549896 
L 474.718015 78.27268 
L 475.254899 48.924366 
L 475.788624 30.967008 
L 476.319229 53.44055 
L 476.846748 53.226476 
L 477.892674 57.868592 
L 478.41115 37.000266 
L 478.926681 22.141315 
L 479.439298 38.757568 
L 479.949036 59.007233 
L 480.96 13.556659 
L 480.96 13.556659 
" clip-path="url(#p311c08f0b8)" style="fill: none; stroke: #ffa500; stroke-linecap: square"/>
   </g>
   <g id="line2d_61">
    <path d="M 77.852414 232.66419 
L 77.852414 12.042938 
" clip-path="url(#p311c08f0b8)" style="fill: none; stroke-dasharray: 1,1.65; stroke-dashoffset: 0; stroke: #ffa500; stroke-opacity: 0.7"/>
   </g>
   <g id="line2d_62">
    <path d="M 46.32442 146.867037 
L 480.96 146.867037 
" clip-path="url(#p311c08f0b8)" style="fill: none; stroke-dasharray: 3.7,1.6; stroke-dashoffset: 0; stroke: #000000"/>
   </g>
   <g id="patch_3">
    <path d="M 46.32442 232.66419 
L 46.32442 12.042938 
" style="fill: none; stroke: #000000; stroke-linejoin: miter; stroke-linecap: square"/>
   </g>
   <g id="patch_4">
    <path d="M 480.96 232.66419 
L 480.96 12.042938 
" style="fill: none; stroke: #000000; stroke-linejoin: miter; stroke-linecap: square"/>
   </g>
   <g id="patch_5">
    <path d="M 46.32442 232.66419 
L 480.96 232.66419 
" style="fill: none; stroke: #000000; stroke-linejoin: miter; stroke-linecap: square"/>
   </g>
   <g id="patch_6">
    <path d="M 46.32442 12.042938 
L 480.96 12.042938 
" style="fill: none; stroke: #000000; stroke-linejoin: miter; stroke-linecap: square"/>
   </g>
   <g id="legend_1">
    <g id="line2d_63">
     <path d="M 58.92442 134.404048 
L 72.92442 134.404048 
L 86.92442 134.404048 
" style="fill: none; stroke: #0000ff; stroke-linecap: square"/>
    </g>
    <g id="text_12">
     <!-- $\eta=0.0$ -->
     <g transform="translate(98.12442 139.304048) scale(0.14 -0.14)">
      <defs>
       <path id="CMMI12-11" d="M 3040 1768 
C 3072 1895 3091 1973 3091 2145 
C 3091 2528 2867 2815 2381 2815 
C 1811 2815 1510 2413 1395 2254 
C 1376 2618 1114 2815 832 2815 
C 646 2815 499 2726 378 2483 
C 262 2254 173 1864 173 1839 
C 173 1813 198 1781 243 1781 
C 294 1781 301 1788 339 1934 
C 435 2311 557 2688 813 2688 
C 960 2688 1011 2586 1011 2394 
C 1011 2254 947 2005 902 1807 
L 723 1118 
C 698 996 627 709 595 593 
C 550 428 480 127 480 96 
C 480 6 550 -64 646 -64 
C 723 -64 813 -25 864 70 
C 877 102 934 326 966 453 
L 1107 1028 
L 1318 1871 
C 1331 1909 1491 2228 1728 2432 
C 1894 2586 2112 2688 2362 2688 
C 2618 2688 2707 2496 2707 2241 
C 2707 2055 2682 1953 2650 1831 
L 1907 -1107 
C 1901 -1139 1888 -1177 1888 -1216 
C 1888 -1312 1965 -1376 2061 -1376 
C 2118 -1376 2253 -1350 2304 -1158 
L 3040 1768 
z
" transform="scale(0.015625)"/>
       <path id="CMR17-3d" d="M 4115 2017 
C 4211 2017 4307 2017 4307 2125 
C 4307 2240 4198 2240 4090 2240 
L 512 2240 
C 403 2240 294 2240 294 2125 
C 294 2017 390 2017 486 2017 
L 4115 2017 
z
M 4090 896 
C 4198 896 4307 896 4307 1011 
C 4307 1119 4211 1119 4115 1119 
L 486 1119 
C 390 1119 294 1119 294 1011 
C 294 896 403 896 512 896 
L 4090 896 
z
" transform="scale(0.015625)"/>
       <path id="CMMI12-3a" d="M 1178 307 
C 1178 492 1024 619 870 619 
C 685 619 557 466 557 313 
C 557 128 710 0 864 0 
C 1050 0 1178 153 1178 307 
z
" transform="scale(0.015625)"/>
      </defs>
      <use xlink:href="#CMMI12-11" transform="scale(0.996264)"/>
      <use xlink:href="#CMR17-3d" transform="translate(79.377824 0) scale(0.996264)"/>
      <use xlink:href="#CMR17-30" transform="translate(178.766622 0) scale(0.996264)"/>
      <use xlink:href="#CMMI12-3a" transform="translate(224.457099 0) scale(0.996264)"/>
      <use xlink:href="#CMR17-30" transform="translate(251.554276 0) scale(0.996264)"/>
     </g>
    </g>
    <g id="line2d_64">
     <path d="M 58.92442 153.916077 
L 72.92442 153.916077 
L 86.92442 153.916077 
" style="fill: none; stroke: #ff0000; stroke-linecap: square"/>
    </g>
    <g id="text_13">
     <!-- $\eta=0.1$ -->
     <g transform="translate(98.12442 158.816077) scale(0.14 -0.14)">
      <use xlink:href="#CMMI12-11" transform="scale(0.996264)"/>
      <use xlink:href="#CMR17-3d" transform="translate(79.377824 0) scale(0.996264)"/>
      <use xlink:href="#CMR17-30" transform="translate(178.766622 0) scale(0.996264)"/>
      <use xlink:href="#CMMI12-3a" transform="translate(224.457099 0) scale(0.996264)"/>
      <use xlink:href="#CMR17-31" transform="translate(251.554276 0) scale(0.996264)"/>
     </g>
    </g>
    <g id="line2d_65">
     <path d="M 58.92442 173.428105 
L 72.92442 173.428105 
L 86.92442 173.428105 
" style="fill: none; stroke: #008000; stroke-linecap: square"/>
    </g>
    <g id="text_14">
     <!-- $\eta=0.2$ -->
     <g transform="translate(98.12442 178.328105) scale(0.14 -0.14)">
      <use xlink:href="#CMMI12-11" transform="scale(0.996264)"/>
      <use xlink:href="#CMR17-3d" transform="translate(79.377824 0) scale(0.996264)"/>
      <use xlink:href="#CMR17-30" transform="translate(178.766622 0) scale(0.996264)"/>
      <use xlink:href="#CMMI12-3a" transform="translate(224.457099 0) scale(0.996264)"/>
      <use xlink:href="#CMR17-32" transform="translate(251.554276 0) scale(0.996264)"/>
     </g>
    </g>
    <g id="line2d_66">
     <path d="M 58.92442 192.940134 
L 72.92442 192.940134 
L 86.92442 192.940134 
" style="fill: none; stroke: #ffa500; stroke-linecap: square"/>
    </g>
    <g id="text_15">
     <!-- $\eta=0.4$ -->
     <g transform="translate(98.12442 197.840134) scale(0.14 -0.14)">
      <use xlink:href="#CMMI12-11" transform="scale(0.996264)"/>
      <use xlink:href="#CMR17-3d" transform="translate(79.377824 0) scale(0.996264)"/>
      <use xlink:href="#CMR17-30" transform="translate(178.766622 0) scale(0.996264)"/>
      <use xlink:href="#CMMI12-3a" transform="translate(224.457099 0) scale(0.996264)"/>
      <use xlink:href="#CMR17-34" transform="translate(251.554276 0) scale(0.996264)"/>
     </g>
    </g>
    <g id="line2d_67">
     <path d="M 58.92442 212.452162 
L 72.92442 212.452162 
L 86.92442 212.452162 
" style="fill: none; stroke-dasharray: 3.7,1.6; stroke-dashoffset: 0; stroke: #000000"/>
    </g>
    <g id="text_16">
     <!-- $k^{-11/3}$ -->
     <g transform="translate(98.12442 217.352162) scale(0.14 -0.14)">
      <use xlink:href="#CMMI12-6b" transform="scale(0.996264)"/>
      <use xlink:href="#CMSY10-0" transform="translate(54.079201 36.153639) scale(0.697382)"/>
      <use xlink:href="#CMR17-31" transform="translate(108.320194 36.153639) scale(0.697382)"/>
      <use xlink:href="#CMR17-31" transform="translate(140.303376 36.153639) scale(0.697382)"/>
      <use xlink:href="#CMMI12-3d" transform="translate(172.286558 36.153639) scale(0.697382)"/>
      <use xlink:href="#CMR17-33" transform="translate(206.428849 36.153639) scale(0.697382)"/>
     </g>
    </g>
   </g>
  </g>
 </g>
 <defs>
  <clipPath id="p311c08f0b8">
   <rect x="46.32442" y="12.042938" width="434.63558" height="220.621252"/>
  </clipPath>
 </defs>
</svg>
