<?xml version="1.0" encoding="utf-8" standalone="no"?>
<!DOCTYPE svg PUBLIC "-//W3C//DTD SVG 1.1//EN"
  "http://www.w3.org/Graphics/SVG/1.1/DTD/svg11.dtd">
<svg xmlns:xlink="http://www.w3.org/1999/xlink" width="488.16pt" height="272.095209pt" viewBox="0 0 488.16 272.095209" xmlns="http://www.w3.org/2000/svg" version="1.1">
 <metadata>
  <rdf:RDF xmlns:dc="http://purl.org/dc/elements/1.1/" xmlns:cc="http://creativecommons.org/ns#" xmlns:rdf="http://www.w3.org/1999/02/22-rdf-syntax-ns#">
   <cc:Work>
    <dc:type rdf:resource="http://purl.org/dc/dcmitype/StillImage"/>
    <dc:date>2026-02-16T21:24:36.798427</dc:date>
    <dc:format>image/svg+xml</dc:format>
    <dc:creator>
     <cc:Agent>
      <dc:title>Matplotlib v3.8.4, https://matplotlib.org/</dc:title>
     </cc:Agent>
    </dc:creator>
   </cc:Work>
  </rdf:RDF>
 </metadata>
 <defs>
  <style type="text/css">*{stroke-linejoin: round; stroke-linecap: butt}</style>
 </defs>
 <g id="figure_1">
  <g id="patch_1">
   <path d="M 0 272.095209 
L 488.16 272.095209 
L 488.16 0 
L 0 0 
z
" style="fill: #ffffff"/>
  </g>
  <g id="axes_1">
   <g id="patch_2">
    <path d="M 47.3219 232.599399 
L 480.96 232.599399 
L 480.96 7.575726 
L 47.3219 7.575726 
z
" style="fill: #ffffff"/>
   </g>
   <g id="matplotlib.axis_1">
    <g id="xtick_1">
     <g id="line2d_1">
      <defs>
       <path id="m561e6d7750" d="M 0 0 
L 0 -6 
" style="stroke: #000000; stroke-width: 0.8"/>
      </defs>
      <g>
       <use xlink:href="#m561e6d7750" x="84.05838" y="232.599399" style="stroke: #000000; stroke-width: 0.8"/>
      </g>
     </g>
     <g id="line2d_2">
      <defs>
       <path id="m506ba01313" d="M 0 0 
L 0 6 
" style="stroke: #000000; stroke-width: 0.8"/>
      </defs>
      <g>
       <use xlink:href="#m506ba01313" x="84.05838" y="7.575726" style="stroke: #000000; stroke-width: 0.8"/>
      </g>
     </g>
     <g id="text_1">
      <!-- $\mathdefault{10^{1}}$ -->
      <g transform="translate(74.721278 245.785276) scale(0.14 -0.14)">
       <defs>
        <path id="CMR17-31" d="M 1702 4058 
C 1702 4192 1696 4192 1606 4192 
C 1357 3916 979 3827 621 3827 
C 602 3827 570 3827 563 3808 
C 557 3795 557 3782 557 3648 
C 755 3648 1088 3686 1344 3839 
L 1344 461 
C 1344 236 1331 160 781 160 
L 589 160 
L 589 0 
C 896 0 1216 0 1523 0 
C 1830 0 2150 0 2458 0 
L 2458 160 
L 2266 160 
C 1715 160 1702 230 1702 458 
L 1702 4058 
z
" transform="scale(0.015625)"/>
        <path id="CMR17-30" d="M 2688 2025 
C 2688 2416 2682 3080 2413 3591 
C 2176 4039 1798 4198 1466 4198 
C 1158 4198 768 4058 525 3597 
C 269 3118 243 2524 243 2025 
C 243 1661 250 1106 448 619 
C 723 -39 1216 -128 1466 -128 
C 1760 -128 2208 -7 2470 600 
C 2662 1042 2688 1559 2688 2025 
z
M 1466 -26 
C 1056 -26 813 325 723 812 
C 653 1188 653 1738 653 2096 
C 653 2588 653 2997 736 3387 
C 858 3929 1216 4096 1466 4096 
C 1728 4096 2067 3923 2189 3400 
C 2272 3036 2278 2607 2278 2096 
C 2278 1680 2278 1169 2202 792 
C 2067 95 1690 -26 1466 -26 
z
" transform="scale(0.015625)"/>
       </defs>
       <use xlink:href="#CMR17-31" transform="scale(0.996264)"/>
       <use xlink:href="#CMR17-30" transform="translate(45.690477 0) scale(0.996264)"/>
       <use xlink:href="#CMR17-31" transform="translate(91.380954 36.153639) scale(0.697382)"/>
      </g>
     </g>
    </g>
    <g id="xtick_2">
     <g id="line2d_3">
      <g>
       <use xlink:href="#m561e6d7750" x="292.499559" y="232.599399" style="stroke: #000000; stroke-width: 0.8"/>
      </g>
     </g>
     <g id="line2d_4">
      <g>
       <use xlink:href="#m506ba01313" x="292.499559" y="7.575726" style="stroke: #000000; stroke-width: 0.8"/>
      </g>
     </g>
     <g id="text_2">
      <!-- $\mathdefault{10^{2}}$ -->
      <g transform="translate(283.162457 245.785276) scale(0.14 -0.14)">
       <defs>
        <path id="CMR17-32" d="M 2669 989 
L 2554 989 
C 2490 536 2438 459 2413 420 
C 2381 369 1920 369 1830 369 
L 602 369 
C 832 619 1280 1072 1824 1597 
C 2214 1967 2669 2402 2669 3035 
C 2669 3790 2067 4224 1395 4224 
C 691 4224 262 3604 262 3030 
C 262 2780 448 2748 525 2748 
C 589 2748 781 2787 781 3010 
C 781 3207 614 3264 525 3264 
C 486 3264 448 3258 422 3245 
C 544 3790 915 4058 1306 4058 
C 1862 4058 2227 3617 2227 3035 
C 2227 2479 1901 2000 1536 1584 
L 262 146 
L 262 0 
L 2515 0 
L 2669 989 
z
" transform="scale(0.015625)"/>
       </defs>
       <use xlink:href="#CMR17-31" transform="scale(0.996264)"/>
       <use xlink:href="#CMR17-30" transform="translate(45.690477 0) scale(0.996264)"/>
       <use xlink:href="#CMR17-32" transform="translate(91.380954 36.153639) scale(0.697382)"/>
      </g>
     </g>
    </g>
    <g id="xtick_3">
     <g id="line2d_5">
      <defs>
       <path id="mc574d7182a" d="M 0 0 
L 0 -3 
" style="stroke: #000000; stroke-width: 0.6"/>
      </defs>
      <g>
       <use xlink:href="#mc574d7182a" x="51.770433" y="232.599399" style="stroke: #000000; stroke-width: 0.6"/>
      </g>
     </g>
     <g id="line2d_6">
      <defs>
       <path id="mbbf1539fb6" d="M 0 0 
L 0 3 
" style="stroke: #000000; stroke-width: 0.6"/>
      </defs>
      <g>
       <use xlink:href="#mbbf1539fb6" x="51.770433" y="7.575726" style="stroke: #000000; stroke-width: 0.6"/>
      </g>
     </g>
    </g>
    <g id="xtick_4">
     <g id="line2d_7">
      <g>
       <use xlink:href="#mc574d7182a" x="63.858343" y="232.599399" style="stroke: #000000; stroke-width: 0.6"/>
      </g>
     </g>
     <g id="line2d_8">
      <g>
       <use xlink:href="#mbbf1539fb6" x="63.858343" y="7.575726" style="stroke: #000000; stroke-width: 0.6"/>
      </g>
     </g>
    </g>
    <g id="xtick_5">
     <g id="line2d_9">
      <g>
       <use xlink:href="#mc574d7182a" x="74.520635" y="232.599399" style="stroke: #000000; stroke-width: 0.6"/>
      </g>
     </g>
     <g id="line2d_10">
      <g>
       <use xlink:href="#mbbf1539fb6" x="74.520635" y="7.575726" style="stroke: #000000; stroke-width: 0.6"/>
      </g>
     </g>
    </g>
    <g id="xtick_6">
     <g id="line2d_11">
      <g>
       <use xlink:href="#mc574d7182a" x="146.805427" y="232.599399" style="stroke: #000000; stroke-width: 0.6"/>
      </g>
     </g>
     <g id="line2d_12">
      <g>
       <use xlink:href="#mbbf1539fb6" x="146.805427" y="7.575726" style="stroke: #000000; stroke-width: 0.6"/>
      </g>
     </g>
    </g>
    <g id="xtick_7">
     <g id="line2d_13">
      <g>
       <use xlink:href="#mc574d7182a" x="183.510097" y="232.599399" style="stroke: #000000; stroke-width: 0.6"/>
      </g>
     </g>
     <g id="line2d_14">
      <g>
       <use xlink:href="#mbbf1539fb6" x="183.510097" y="7.575726" style="stroke: #000000; stroke-width: 0.6"/>
      </g>
     </g>
    </g>
    <g id="xtick_8">
     <g id="line2d_15">
      <g>
       <use xlink:href="#mc574d7182a" x="209.552475" y="232.599399" style="stroke: #000000; stroke-width: 0.6"/>
      </g>
     </g>
     <g id="line2d_16">
      <g>
       <use xlink:href="#mbbf1539fb6" x="209.552475" y="7.575726" style="stroke: #000000; stroke-width: 0.6"/>
      </g>
     </g>
    </g>
    <g id="xtick_9">
     <g id="line2d_17">
      <g>
       <use xlink:href="#mc574d7182a" x="229.752512" y="232.599399" style="stroke: #000000; stroke-width: 0.6"/>
      </g>
     </g>
     <g id="line2d_18">
      <g>
       <use xlink:href="#mbbf1539fb6" x="229.752512" y="7.575726" style="stroke: #000000; stroke-width: 0.6"/>
      </g>
     </g>
    </g>
    <g id="xtick_10">
     <g id="line2d_19">
      <g>
       <use xlink:href="#mc574d7182a" x="246.257144" y="232.599399" style="stroke: #000000; stroke-width: 0.6"/>
      </g>
     </g>
     <g id="line2d_20">
      <g>
       <use xlink:href="#mbbf1539fb6" x="246.257144" y="7.575726" style="stroke: #000000; stroke-width: 0.6"/>
      </g>
     </g>
    </g>
    <g id="xtick_11">
     <g id="line2d_21">
      <g>
       <use xlink:href="#mc574d7182a" x="260.211612" y="232.599399" style="stroke: #000000; stroke-width: 0.6"/>
      </g>
     </g>
     <g id="line2d_22">
      <g>
       <use xlink:href="#mbbf1539fb6" x="260.211612" y="7.575726" style="stroke: #000000; stroke-width: 0.6"/>
      </g>
     </g>
    </g>
    <g id="xtick_12">
     <g id="line2d_23">
      <g>
       <use xlink:href="#mc574d7182a" x="272.299522" y="232.599399" style="stroke: #000000; stroke-width: 0.6"/>
      </g>
     </g>
     <g id="line2d_24">
      <g>
       <use xlink:href="#mbbf1539fb6" x="272.299522" y="7.575726" style="stroke: #000000; stroke-width: 0.6"/>
      </g>
     </g>
    </g>
    <g id="xtick_13">
     <g id="line2d_25">
      <g>
       <use xlink:href="#mc574d7182a" x="282.961814" y="232.599399" style="stroke: #000000; stroke-width: 0.6"/>
      </g>
     </g>
     <g id="line2d_26">
      <g>
       <use xlink:href="#mbbf1539fb6" x="282.961814" y="7.575726" style="stroke: #000000; stroke-width: 0.6"/>
      </g>
     </g>
    </g>
    <g id="xtick_14">
     <g id="line2d_27">
      <g>
       <use xlink:href="#mc574d7182a" x="355.246607" y="232.599399" style="stroke: #000000; stroke-width: 0.6"/>
      </g>
     </g>
     <g id="line2d_28">
      <g>
       <use xlink:href="#mbbf1539fb6" x="355.246607" y="7.575726" style="stroke: #000000; stroke-width: 0.6"/>
      </g>
     </g>
    </g>
    <g id="xtick_15">
     <g id="line2d_29">
      <g>
       <use xlink:href="#mc574d7182a" x="391.951276" y="232.599399" style="stroke: #000000; stroke-width: 0.6"/>
      </g>
     </g>
     <g id="line2d_30">
      <g>
       <use xlink:href="#mbbf1539fb6" x="391.951276" y="7.575726" style="stroke: #000000; stroke-width: 0.6"/>
      </g>
     </g>
    </g>
    <g id="xtick_16">
     <g id="line2d_31">
      <g>
       <use xlink:href="#mc574d7182a" x="417.993654" y="232.599399" style="stroke: #000000; stroke-width: 0.6"/>
      </g>
     </g>
     <g id="line2d_32">
      <g>
       <use xlink:href="#mbbf1539fb6" x="417.993654" y="7.575726" style="stroke: #000000; stroke-width: 0.6"/>
      </g>
     </g>
    </g>
    <g id="xtick_17">
     <g id="line2d_33">
      <g>
       <use xlink:href="#mc574d7182a" x="438.193691" y="232.599399" style="stroke: #000000; stroke-width: 0.6"/>
      </g>
     </g>
     <g id="line2d_34">
      <g>
       <use xlink:href="#mbbf1539fb6" x="438.193691" y="7.575726" style="stroke: #000000; stroke-width: 0.6"/>
      </g>
     </g>
    </g>
    <g id="xtick_18">
     <g id="line2d_35">
      <g>
       <use xlink:href="#mc574d7182a" x="454.698324" y="232.599399" style="stroke: #000000; stroke-width: 0.6"/>
      </g>
     </g>
     <g id="line2d_36">
      <g>
       <use xlink:href="#mbbf1539fb6" x="454.698324" y="7.575726" style="stroke: #000000; stroke-width: 0.6"/>
      </g>
     </g>
    </g>
    <g id="xtick_19">
     <g id="line2d_37">
      <g>
       <use xlink:href="#mc574d7182a" x="468.652791" y="232.599399" style="stroke: #000000; stroke-width: 0.6"/>
      </g>
     </g>
     <g id="line2d_38">
      <g>
       <use xlink:href="#mbbf1539fb6" x="468.652791" y="7.575726" style="stroke: #000000; stroke-width: 0.6"/>
      </g>
     </g>
    </g>
    <g id="xtick_20">
     <g id="line2d_39">
      <g>
       <use xlink:href="#mc574d7182a" x="480.740701" y="232.599399" style="stroke: #000000; stroke-width: 0.6"/>
      </g>
     </g>
     <g id="line2d_40">
      <g>
       <use xlink:href="#mbbf1539fb6" x="480.740701" y="7.575726" style="stroke: #000000; stroke-width: 0.6"/>
      </g>
     </g>
    </g>
    <g id="text_3">
     <!-- $k$ -->
     <g transform="translate(260.589487 262.183181) scale(0.14 -0.14)">
      <defs>
       <path id="CMMI12-6b" d="M 1798 4257 
C 1805 4283 1818 4321 1818 4352 
C 1818 4416 1754 4416 1741 4416 
C 1734 4416 1504 4393 1389 4377 
C 1280 4377 1184 4358 1069 4358 
C 915 4345 870 4339 870 4224 
C 870 4160 934 4160 998 4160 
C 1325 4160 1325 4103 1325 4040 
C 1325 4015 1325 4002 1293 3888 
L 378 248 
C 352 152 352 140 352 101 
C 352 -38 461 -64 525 -64 
C 704 -64 742 77 794 275 
L 1094 1469 
C 1555 1418 1830 1226 1830 920 
C 1830 881 1830 856 1811 760 
C 1786 664 1786 588 1786 556 
C 1786 185 2029 -64 2355 -64 
C 2650 -64 2803 204 2854 294 
C 2989 530 3072 888 3072 913 
C 3072 945 3046 971 3008 971 
C 2950 971 2944 945 2918 843 
C 2829 511 2694 64 2368 64 
C 2240 64 2157 128 2157 370 
C 2157 492 2182 632 2208 728 
C 2234 843 2234 849 2234 926 
C 2234 1303 1894 1514 1306 1590 
C 1536 1731 1766 1980 1856 2076 
C 2221 2484 2470 2689 2765 2689 
C 2912 2689 2950 2650 2995 2612 
C 2758 2586 2669 2420 2669 2293 
C 2669 2139 2790 2088 2880 2088 
C 3053 2088 3206 2235 3206 2440 
C 3206 2625 3059 2816 2771 2816 
C 2419 2816 2131 2567 1677 2056 
C 1613 1980 1376 1737 1139 1648 
L 1798 4257 
z
" transform="scale(0.015625)"/>
      </defs>
      <use xlink:href="#CMMI12-6b" transform="scale(0.996264)"/>
     </g>
    </g>
   </g>
   <g id="matplotlib.axis_2">
    <g id="ytick_1">
     <g id="line2d_41">
      <defs>
       <path id="mb31c01c736" d="M 0 0 
L 6 0 
" style="stroke: #000000; stroke-width: 0.8"/>
      </defs>
      <g>
       <use xlink:href="#mb31c01c736" x="47.3219" y="214.226171" style="stroke: #000000; stroke-width: 0.8"/>
      </g>
     </g>
     <g id="line2d_42">
      <defs>
       <path id="m4d72de6805" d="M 0 0 
L -6 0 
" style="stroke: #000000; stroke-width: 0.8"/>
      </defs>
      <g>
       <use xlink:href="#m4d72de6805" x="480.96" y="214.226171" style="stroke: #000000; stroke-width: 0.8"/>
      </g>
     </g>
     <g id="text_4">
      <!-- $\mathdefault{10^{1}}$ -->
      <g transform="translate(25.147696 219.06911) scale(0.14 -0.14)">
       <use xlink:href="#CMR17-31" transform="scale(0.996264)"/>
       <use xlink:href="#CMR17-30" transform="translate(45.690477 0) scale(0.996264)"/>
       <use xlink:href="#CMR17-31" transform="translate(91.380954 36.153639) scale(0.697382)"/>
      </g>
     </g>
    </g>
    <g id="ytick_2">
     <g id="line2d_43">
      <g>
       <use xlink:href="#mb31c01c736" x="47.3219" y="185.342852" style="stroke: #000000; stroke-width: 0.8"/>
      </g>
     </g>
     <g id="line2d_44">
      <g>
       <use xlink:href="#m4d72de6805" x="480.96" y="185.342852" style="stroke: #000000; stroke-width: 0.8"/>
      </g>
     </g>
     <g id="text_5">
      <!-- $\mathdefault{10^{2}}$ -->
      <g transform="translate(25.147696 190.185791) scale(0.14 -0.14)">
       <use xlink:href="#CMR17-31" transform="scale(0.996264)"/>
       <use xlink:href="#CMR17-30" transform="translate(45.690477 0) scale(0.996264)"/>
       <use xlink:href="#CMR17-32" transform="translate(91.380954 36.153639) scale(0.697382)"/>
      </g>
     </g>
    </g>
    <g id="ytick_3">
     <g id="line2d_45">
      <g>
       <use xlink:href="#mb31c01c736" x="47.3219" y="156.459533" style="stroke: #000000; stroke-width: 0.8"/>
      </g>
     </g>
     <g id="line2d_46">
      <g>
       <use xlink:href="#m4d72de6805" x="480.96" y="156.459533" style="stroke: #000000; stroke-width: 0.8"/>
      </g>
     </g>
     <g id="text_6">
      <!-- $\mathdefault{10^{3}}$ -->
      <g transform="translate(25.147696 161.302472) scale(0.14 -0.14)">
       <defs>
        <path id="CMR17-33" d="M 1414 2157 
C 1984 2157 2234 1662 2234 1090 
C 2234 320 1824 25 1453 25 
C 1114 25 563 194 390 693 
C 422 680 454 680 486 680 
C 640 680 755 782 755 948 
C 755 1133 614 1216 486 1216 
C 378 1216 211 1165 211 926 
C 211 335 787 -128 1466 -128 
C 2176 -128 2720 430 2720 1085 
C 2720 1707 2208 2157 1600 2227 
C 2086 2328 2554 2756 2554 3329 
C 2554 3820 2048 4179 1472 4179 
C 890 4179 378 3829 378 3329 
C 378 3110 544 3072 627 3072 
C 762 3072 877 3155 877 3321 
C 877 3486 762 3569 627 3569 
C 602 3569 570 3569 544 3557 
C 730 3959 1235 4032 1459 4032 
C 1683 4032 2106 3925 2106 3320 
C 2106 3143 2080 2828 1862 2550 
C 1670 2304 1453 2304 1242 2284 
C 1210 2284 1062 2269 1037 2269 
C 992 2263 966 2257 966 2208 
C 966 2163 973 2157 1101 2157 
L 1414 2157 
z
" transform="scale(0.015625)"/>
       </defs>
       <use xlink:href="#CMR17-31" transform="scale(0.996264)"/>
       <use xlink:href="#CMR17-30" transform="translate(45.690477 0) scale(0.996264)"/>
       <use xlink:href="#CMR17-33" transform="translate(91.380954 36.153639) scale(0.697382)"/>
      </g>
     </g>
    </g>
    <g id="ytick_4">
     <g id="line2d_47">
      <g>
       <use xlink:href="#mb31c01c736" x="47.3219" y="127.576214" style="stroke: #000000; stroke-width: 0.8"/>
      </g>
     </g>
     <g id="line2d_48">
      <g>
       <use xlink:href="#m4d72de6805" x="480.96" y="127.576214" style="stroke: #000000; stroke-width: 0.8"/>
      </g>
     </g>
     <g id="text_7">
      <!-- $\mathdefault{10^{4}}$ -->
      <g transform="translate(25.147696 132.419153) scale(0.14 -0.14)">
       <defs>
        <path id="CMR17-34" d="M 2150 4122 
C 2150 4256 2144 4256 2029 4256 
L 128 1254 
L 128 1088 
L 1779 1088 
L 1779 457 
C 1779 224 1766 160 1318 160 
L 1197 160 
L 1197 0 
C 1402 0 1747 0 1965 0 
C 2182 0 2528 0 2733 0 
L 2733 160 
L 2611 160 
C 2163 160 2150 224 2150 457 
L 2150 1088 
L 2803 1088 
L 2803 1254 
L 2150 1254 
L 2150 4122 
z
M 1798 3703 
L 1798 1254 
L 256 1254 
L 1798 3703 
z
" transform="scale(0.015625)"/>
       </defs>
       <use xlink:href="#CMR17-31" transform="scale(0.996264)"/>
       <use xlink:href="#CMR17-30" transform="translate(45.690477 0) scale(0.996264)"/>
       <use xlink:href="#CMR17-34" transform="translate(91.380954 36.153639) scale(0.697382)"/>
      </g>
     </g>
    </g>
    <g id="ytick_5">
     <g id="line2d_49">
      <g>
       <use xlink:href="#mb31c01c736" x="47.3219" y="98.692895" style="stroke: #000000; stroke-width: 0.8"/>
      </g>
     </g>
     <g id="line2d_50">
      <g>
       <use xlink:href="#m4d72de6805" x="480.96" y="98.692895" style="stroke: #000000; stroke-width: 0.8"/>
      </g>
     </g>
     <g id="text_8">
      <!-- $\mathdefault{10^{5}}$ -->
      <g transform="translate(25.147696 103.535833) scale(0.14 -0.14)">
       <defs>
        <path id="CMR17-35" d="M 730 3692 
C 794 3666 1056 3584 1325 3584 
C 1920 3584 2246 3911 2432 4100 
C 2432 4157 2432 4192 2394 4192 
C 2387 4192 2374 4192 2323 4163 
C 2099 4058 1837 3973 1517 3973 
C 1325 3973 1037 3999 723 4139 
C 653 4171 640 4171 634 4171 
C 602 4171 595 4164 595 4037 
L 595 2203 
C 595 2089 595 2057 659 2057 
C 691 2057 704 2070 736 2114 
C 941 2401 1222 2522 1542 2522 
C 1766 2522 2246 2382 2246 1289 
C 2246 1085 2246 715 2054 421 
C 1894 159 1645 25 1370 25 
C 947 25 518 320 403 814 
C 429 807 480 795 506 795 
C 589 795 749 840 749 1038 
C 749 1210 627 1280 506 1280 
C 358 1280 262 1190 262 1011 
C 262 454 704 -128 1382 -128 
C 2042 -128 2669 440 2669 1264 
C 2669 2030 2170 2624 1549 2624 
C 1222 2624 947 2503 730 2274 
L 730 3692 
z
" transform="scale(0.015625)"/>
       </defs>
       <use xlink:href="#CMR17-31" transform="scale(0.996264)"/>
       <use xlink:href="#CMR17-30" transform="translate(45.690477 0) scale(0.996264)"/>
       <use xlink:href="#CMR17-35" transform="translate(91.380954 36.153639) scale(0.697382)"/>
      </g>
     </g>
    </g>
    <g id="ytick_6">
     <g id="line2d_51">
      <g>
       <use xlink:href="#mb31c01c736" x="47.3219" y="69.809576" style="stroke: #000000; stroke-width: 0.8"/>
      </g>
     </g>
     <g id="line2d_52">
      <g>
       <use xlink:href="#m4d72de6805" x="480.96" y="69.809576" style="stroke: #000000; stroke-width: 0.8"/>
      </g>
     </g>
     <g id="text_9">
      <!-- $\mathdefault{10^{6}}$ -->
      <g transform="translate(25.147696 74.652514) scale(0.14 -0.14)">
       <defs>
        <path id="CMR17-36" d="M 678 2176 
C 678 3690 1395 4032 1811 4032 
C 1946 4032 2272 4009 2400 3776 
C 2298 3776 2106 3776 2106 3553 
C 2106 3381 2246 3323 2336 3323 
C 2394 3323 2566 3348 2566 3560 
C 2566 3954 2246 4179 1805 4179 
C 1043 4179 243 3390 243 1984 
C 243 253 966 -128 1478 -128 
C 2099 -128 2688 427 2688 1283 
C 2688 2081 2170 2662 1517 2662 
C 1126 2662 838 2407 678 1960 
L 678 2176 
z
M 1478 25 
C 691 25 691 1200 691 1436 
C 691 1896 909 2560 1504 2560 
C 1613 2560 1926 2560 2138 2120 
C 2253 1870 2253 1609 2253 1289 
C 2253 944 2253 690 2118 434 
C 1978 171 1773 25 1478 25 
z
" transform="scale(0.015625)"/>
       </defs>
       <use xlink:href="#CMR17-31" transform="scale(0.996264)"/>
       <use xlink:href="#CMR17-30" transform="translate(45.690477 0) scale(0.996264)"/>
       <use xlink:href="#CMR17-36" transform="translate(91.380954 36.153639) scale(0.697382)"/>
      </g>
     </g>
    </g>
    <g id="ytick_7">
     <g id="line2d_53">
      <g>
       <use xlink:href="#mb31c01c736" x="47.3219" y="40.926257" style="stroke: #000000; stroke-width: 0.8"/>
      </g>
     </g>
     <g id="line2d_54">
      <g>
       <use xlink:href="#m4d72de6805" x="480.96" y="40.926257" style="stroke: #000000; stroke-width: 0.8"/>
      </g>
     </g>
     <g id="text_10">
      <!-- $\mathdefault{10^{7}}$ -->
      <g transform="translate(25.147696 45.769195) scale(0.14 -0.14)">
       <defs>
        <path id="CMR17-37" d="M 2886 3941 
L 2886 4081 
L 1382 4081 
C 634 4081 621 4165 595 4288 
L 480 4288 
L 294 3094 
L 410 3094 
C 429 3215 474 3540 550 3661 
C 589 3712 1062 3712 1171 3712 
L 2579 3712 
L 1869 2661 
C 1395 1954 1069 999 1069 165 
C 1069 89 1069 -128 1299 -128 
C 1530 -128 1530 89 1530 171 
L 1530 465 
C 1530 1508 1709 2196 2003 2636 
L 2886 3941 
z
" transform="scale(0.015625)"/>
       </defs>
       <use xlink:href="#CMR17-31" transform="scale(0.996264)"/>
       <use xlink:href="#CMR17-30" transform="translate(45.690477 0) scale(0.996264)"/>
       <use xlink:href="#CMR17-37" transform="translate(91.380954 36.153639) scale(0.697382)"/>
      </g>
     </g>
    </g>
    <g id="ytick_8">
     <g id="line2d_55">
      <g>
       <use xlink:href="#mb31c01c736" x="47.3219" y="12.042938" style="stroke: #000000; stroke-width: 0.8"/>
      </g>
     </g>
     <g id="line2d_56">
      <g>
       <use xlink:href="#m4d72de6805" x="480.96" y="12.042938" style="stroke: #000000; stroke-width: 0.8"/>
      </g>
     </g>
     <g id="text_11">
      <!-- $\mathdefault{10^{8}}$ -->
      <g transform="translate(25.147696 16.885876) scale(0.14 -0.14)">
       <defs>
        <path id="CMR17-38" d="M 1741 2264 
C 2144 2467 2554 2773 2554 3263 
C 2554 3841 1990 4179 1472 4179 
C 890 4179 378 3759 378 3180 
C 378 3021 416 2747 666 2505 
C 730 2442 998 2251 1171 2130 
C 883 1983 211 1634 211 934 
C 211 279 838 -128 1459 -128 
C 2144 -128 2720 362 2720 1010 
C 2720 1590 2330 1857 2074 2029 
L 1741 2264 
z
M 902 2822 
C 851 2854 595 3051 595 3351 
C 595 3739 998 4032 1459 4032 
C 1965 4032 2336 3676 2336 3262 
C 2336 2669 1670 2331 1638 2331 
C 1632 2331 1626 2331 1574 2370 
L 902 2822 
z
M 2080 1519 
C 2176 1449 2483 1240 2483 851 
C 2483 381 2010 25 1472 25 
C 890 25 448 438 448 940 
C 448 1443 838 1862 1280 2060 
L 2080 1519 
z
" transform="scale(0.015625)"/>
       </defs>
       <use xlink:href="#CMR17-31" transform="scale(0.996264)"/>
       <use xlink:href="#CMR17-30" transform="translate(45.690477 0) scale(0.996264)"/>
       <use xlink:href="#CMR17-38" transform="translate(91.380954 36.153639) scale(0.697382)"/>
      </g>
     </g>
    </g>
    <g id="ytick_9">
     <g id="line2d_57">
      <defs>
       <path id="m84bb5660d3" d="M 0 0 
L 3 0 
" style="stroke: #000000; stroke-width: 0.6"/>
      </defs>
      <g>
       <use xlink:href="#m84bb5660d3" x="47.3219" y="229.328645" style="stroke: #000000; stroke-width: 0.6"/>
      </g>
     </g>
     <g id="line2d_58">
      <defs>
       <path id="ma3c2cc90d2" d="M 0 0 
L -3 0 
" style="stroke: #000000; stroke-width: 0.6"/>
      </defs>
      <g>
       <use xlink:href="#ma3c2cc90d2" x="480.96" y="229.328645" style="stroke: #000000; stroke-width: 0.6"/>
      </g>
     </g>
    </g>
    <g id="ytick_10">
     <g id="line2d_59">
      <g>
       <use xlink:href="#m84bb5660d3" x="47.3219" y="225.72" style="stroke: #000000; stroke-width: 0.6"/>
      </g>
     </g>
     <g id="line2d_60">
      <g>
       <use xlink:href="#ma3c2cc90d2" x="480.96" y="225.72" style="stroke: #000000; stroke-width: 0.6"/>
      </g>
     </g>
    </g>
    <g id="ytick_11">
     <g id="line2d_61">
      <g>
       <use xlink:href="#m84bb5660d3" x="47.3219" y="222.920917" style="stroke: #000000; stroke-width: 0.6"/>
      </g>
     </g>
     <g id="line2d_62">
      <g>
       <use xlink:href="#ma3c2cc90d2" x="480.96" y="222.920917" style="stroke: #000000; stroke-width: 0.6"/>
      </g>
     </g>
    </g>
    <g id="ytick_12">
     <g id="line2d_63">
      <g>
       <use xlink:href="#m84bb5660d3" x="47.3219" y="220.6339" style="stroke: #000000; stroke-width: 0.6"/>
      </g>
     </g>
     <g id="line2d_64">
      <g>
       <use xlink:href="#ma3c2cc90d2" x="480.96" y="220.6339" style="stroke: #000000; stroke-width: 0.6"/>
      </g>
     </g>
    </g>
    <g id="ytick_13">
     <g id="line2d_65">
      <g>
       <use xlink:href="#m84bb5660d3" x="47.3219" y="218.700254" style="stroke: #000000; stroke-width: 0.6"/>
      </g>
     </g>
     <g id="line2d_66">
      <g>
       <use xlink:href="#ma3c2cc90d2" x="480.96" y="218.700254" style="stroke: #000000; stroke-width: 0.6"/>
      </g>
     </g>
    </g>
    <g id="ytick_14">
     <g id="line2d_67">
      <g>
       <use xlink:href="#m84bb5660d3" x="47.3219" y="217.025254" style="stroke: #000000; stroke-width: 0.6"/>
      </g>
     </g>
     <g id="line2d_68">
      <g>
       <use xlink:href="#ma3c2cc90d2" x="480.96" y="217.025254" style="stroke: #000000; stroke-width: 0.6"/>
      </g>
     </g>
    </g>
    <g id="ytick_15">
     <g id="line2d_69">
      <g>
       <use xlink:href="#m84bb5660d3" x="47.3219" y="215.5478" style="stroke: #000000; stroke-width: 0.6"/>
      </g>
     </g>
     <g id="line2d_70">
      <g>
       <use xlink:href="#ma3c2cc90d2" x="480.96" y="215.5478" style="stroke: #000000; stroke-width: 0.6"/>
      </g>
     </g>
    </g>
    <g id="ytick_16">
     <g id="line2d_71">
      <g>
       <use xlink:href="#m84bb5660d3" x="47.3219" y="205.531426" style="stroke: #000000; stroke-width: 0.6"/>
      </g>
     </g>
     <g id="line2d_72">
      <g>
       <use xlink:href="#ma3c2cc90d2" x="480.96" y="205.531426" style="stroke: #000000; stroke-width: 0.6"/>
      </g>
     </g>
    </g>
    <g id="ytick_17">
     <g id="line2d_73">
      <g>
       <use xlink:href="#m84bb5660d3" x="47.3219" y="200.445326" style="stroke: #000000; stroke-width: 0.6"/>
      </g>
     </g>
     <g id="line2d_74">
      <g>
       <use xlink:href="#ma3c2cc90d2" x="480.96" y="200.445326" style="stroke: #000000; stroke-width: 0.6"/>
      </g>
     </g>
    </g>
    <g id="ytick_18">
     <g id="line2d_75">
      <g>
       <use xlink:href="#m84bb5660d3" x="47.3219" y="196.836681" style="stroke: #000000; stroke-width: 0.6"/>
      </g>
     </g>
     <g id="line2d_76">
      <g>
       <use xlink:href="#ma3c2cc90d2" x="480.96" y="196.836681" style="stroke: #000000; stroke-width: 0.6"/>
      </g>
     </g>
    </g>
    <g id="ytick_19">
     <g id="line2d_77">
      <g>
       <use xlink:href="#m84bb5660d3" x="47.3219" y="194.037598" style="stroke: #000000; stroke-width: 0.6"/>
      </g>
     </g>
     <g id="line2d_78">
      <g>
       <use xlink:href="#ma3c2cc90d2" x="480.96" y="194.037598" style="stroke: #000000; stroke-width: 0.6"/>
      </g>
     </g>
    </g>
    <g id="ytick_20">
     <g id="line2d_79">
      <g>
       <use xlink:href="#m84bb5660d3" x="47.3219" y="191.750581" style="stroke: #000000; stroke-width: 0.6"/>
      </g>
     </g>
     <g id="line2d_80">
      <g>
       <use xlink:href="#ma3c2cc90d2" x="480.96" y="191.750581" style="stroke: #000000; stroke-width: 0.6"/>
      </g>
     </g>
    </g>
    <g id="ytick_21">
     <g id="line2d_81">
      <g>
       <use xlink:href="#m84bb5660d3" x="47.3219" y="189.816935" style="stroke: #000000; stroke-width: 0.6"/>
      </g>
     </g>
     <g id="line2d_82">
      <g>
       <use xlink:href="#ma3c2cc90d2" x="480.96" y="189.816935" style="stroke: #000000; stroke-width: 0.6"/>
      </g>
     </g>
    </g>
    <g id="ytick_22">
     <g id="line2d_83">
      <g>
       <use xlink:href="#m84bb5660d3" x="47.3219" y="188.141935" style="stroke: #000000; stroke-width: 0.6"/>
      </g>
     </g>
     <g id="line2d_84">
      <g>
       <use xlink:href="#ma3c2cc90d2" x="480.96" y="188.141935" style="stroke: #000000; stroke-width: 0.6"/>
      </g>
     </g>
    </g>
    <g id="ytick_23">
     <g id="line2d_85">
      <g>
       <use xlink:href="#m84bb5660d3" x="47.3219" y="186.664481" style="stroke: #000000; stroke-width: 0.6"/>
      </g>
     </g>
     <g id="line2d_86">
      <g>
       <use xlink:href="#ma3c2cc90d2" x="480.96" y="186.664481" style="stroke: #000000; stroke-width: 0.6"/>
      </g>
     </g>
    </g>
    <g id="ytick_24">
     <g id="line2d_87">
      <g>
       <use xlink:href="#m84bb5660d3" x="47.3219" y="176.648107" style="stroke: #000000; stroke-width: 0.6"/>
      </g>
     </g>
     <g id="line2d_88">
      <g>
       <use xlink:href="#ma3c2cc90d2" x="480.96" y="176.648107" style="stroke: #000000; stroke-width: 0.6"/>
      </g>
     </g>
    </g>
    <g id="ytick_25">
     <g id="line2d_89">
      <g>
       <use xlink:href="#m84bb5660d3" x="47.3219" y="171.562007" style="stroke: #000000; stroke-width: 0.6"/>
      </g>
     </g>
     <g id="line2d_90">
      <g>
       <use xlink:href="#ma3c2cc90d2" x="480.96" y="171.562007" style="stroke: #000000; stroke-width: 0.6"/>
      </g>
     </g>
    </g>
    <g id="ytick_26">
     <g id="line2d_91">
      <g>
       <use xlink:href="#m84bb5660d3" x="47.3219" y="167.953362" style="stroke: #000000; stroke-width: 0.6"/>
      </g>
     </g>
     <g id="line2d_92">
      <g>
       <use xlink:href="#ma3c2cc90d2" x="480.96" y="167.953362" style="stroke: #000000; stroke-width: 0.6"/>
      </g>
     </g>
    </g>
    <g id="ytick_27">
     <g id="line2d_93">
      <g>
       <use xlink:href="#m84bb5660d3" x="47.3219" y="165.154279" style="stroke: #000000; stroke-width: 0.6"/>
      </g>
     </g>
     <g id="line2d_94">
      <g>
       <use xlink:href="#ma3c2cc90d2" x="480.96" y="165.154279" style="stroke: #000000; stroke-width: 0.6"/>
      </g>
     </g>
    </g>
    <g id="ytick_28">
     <g id="line2d_95">
      <g>
       <use xlink:href="#m84bb5660d3" x="47.3219" y="162.867262" style="stroke: #000000; stroke-width: 0.6"/>
      </g>
     </g>
     <g id="line2d_96">
      <g>
       <use xlink:href="#ma3c2cc90d2" x="480.96" y="162.867262" style="stroke: #000000; stroke-width: 0.6"/>
      </g>
     </g>
    </g>
    <g id="ytick_29">
     <g id="line2d_97">
      <g>
       <use xlink:href="#m84bb5660d3" x="47.3219" y="160.933616" style="stroke: #000000; stroke-width: 0.6"/>
      </g>
     </g>
     <g id="line2d_98">
      <g>
       <use xlink:href="#ma3c2cc90d2" x="480.96" y="160.933616" style="stroke: #000000; stroke-width: 0.6"/>
      </g>
     </g>
    </g>
    <g id="ytick_30">
     <g id="line2d_99">
      <g>
       <use xlink:href="#m84bb5660d3" x="47.3219" y="159.258616" style="stroke: #000000; stroke-width: 0.6"/>
      </g>
     </g>
     <g id="line2d_100">
      <g>
       <use xlink:href="#ma3c2cc90d2" x="480.96" y="159.258616" style="stroke: #000000; stroke-width: 0.6"/>
      </g>
     </g>
    </g>
    <g id="ytick_31">
     <g id="line2d_101">
      <g>
       <use xlink:href="#m84bb5660d3" x="47.3219" y="157.781162" style="stroke: #000000; stroke-width: 0.6"/>
      </g>
     </g>
     <g id="line2d_102">
      <g>
       <use xlink:href="#ma3c2cc90d2" x="480.96" y="157.781162" style="stroke: #000000; stroke-width: 0.6"/>
      </g>
     </g>
    </g>
    <g id="ytick_32">
     <g id="line2d_103">
      <g>
       <use xlink:href="#m84bb5660d3" x="47.3219" y="147.764788" style="stroke: #000000; stroke-width: 0.6"/>
      </g>
     </g>
     <g id="line2d_104">
      <g>
       <use xlink:href="#ma3c2cc90d2" x="480.96" y="147.764788" style="stroke: #000000; stroke-width: 0.6"/>
      </g>
     </g>
    </g>
    <g id="ytick_33">
     <g id="line2d_105">
      <g>
       <use xlink:href="#m84bb5660d3" x="47.3219" y="142.678688" style="stroke: #000000; stroke-width: 0.6"/>
      </g>
     </g>
     <g id="line2d_106">
      <g>
       <use xlink:href="#ma3c2cc90d2" x="480.96" y="142.678688" style="stroke: #000000; stroke-width: 0.6"/>
      </g>
     </g>
    </g>
    <g id="ytick_34">
     <g id="line2d_107">
      <g>
       <use xlink:href="#m84bb5660d3" x="47.3219" y="139.070043" style="stroke: #000000; stroke-width: 0.6"/>
      </g>
     </g>
     <g id="line2d_108">
      <g>
       <use xlink:href="#ma3c2cc90d2" x="480.96" y="139.070043" style="stroke: #000000; stroke-width: 0.6"/>
      </g>
     </g>
    </g>
    <g id="ytick_35">
     <g id="line2d_109">
      <g>
       <use xlink:href="#m84bb5660d3" x="47.3219" y="136.27096" style="stroke: #000000; stroke-width: 0.6"/>
      </g>
     </g>
     <g id="line2d_110">
      <g>
       <use xlink:href="#ma3c2cc90d2" x="480.96" y="136.27096" style="stroke: #000000; stroke-width: 0.6"/>
      </g>
     </g>
    </g>
    <g id="ytick_36">
     <g id="line2d_111">
      <g>
       <use xlink:href="#m84bb5660d3" x="47.3219" y="133.983942" style="stroke: #000000; stroke-width: 0.6"/>
      </g>
     </g>
     <g id="line2d_112">
      <g>
       <use xlink:href="#ma3c2cc90d2" x="480.96" y="133.983942" style="stroke: #000000; stroke-width: 0.6"/>
      </g>
     </g>
    </g>
    <g id="ytick_37">
     <g id="line2d_113">
      <g>
       <use xlink:href="#m84bb5660d3" x="47.3219" y="132.050297" style="stroke: #000000; stroke-width: 0.6"/>
      </g>
     </g>
     <g id="line2d_114">
      <g>
       <use xlink:href="#ma3c2cc90d2" x="480.96" y="132.050297" style="stroke: #000000; stroke-width: 0.6"/>
      </g>
     </g>
    </g>
    <g id="ytick_38">
     <g id="line2d_115">
      <g>
       <use xlink:href="#m84bb5660d3" x="47.3219" y="130.375297" style="stroke: #000000; stroke-width: 0.6"/>
      </g>
     </g>
     <g id="line2d_116">
      <g>
       <use xlink:href="#ma3c2cc90d2" x="480.96" y="130.375297" style="stroke: #000000; stroke-width: 0.6"/>
      </g>
     </g>
    </g>
    <g id="ytick_39">
     <g id="line2d_117">
      <g>
       <use xlink:href="#m84bb5660d3" x="47.3219" y="128.897842" style="stroke: #000000; stroke-width: 0.6"/>
      </g>
     </g>
     <g id="line2d_118">
      <g>
       <use xlink:href="#ma3c2cc90d2" x="480.96" y="128.897842" style="stroke: #000000; stroke-width: 0.6"/>
      </g>
     </g>
    </g>
    <g id="ytick_40">
     <g id="line2d_119">
      <g>
       <use xlink:href="#m84bb5660d3" x="47.3219" y="118.881469" style="stroke: #000000; stroke-width: 0.6"/>
      </g>
     </g>
     <g id="line2d_120">
      <g>
       <use xlink:href="#ma3c2cc90d2" x="480.96" y="118.881469" style="stroke: #000000; stroke-width: 0.6"/>
      </g>
     </g>
    </g>
    <g id="ytick_41">
     <g id="line2d_121">
      <g>
       <use xlink:href="#m84bb5660d3" x="47.3219" y="113.795369" style="stroke: #000000; stroke-width: 0.6"/>
      </g>
     </g>
     <g id="line2d_122">
      <g>
       <use xlink:href="#ma3c2cc90d2" x="480.96" y="113.795369" style="stroke: #000000; stroke-width: 0.6"/>
      </g>
     </g>
    </g>
    <g id="ytick_42">
     <g id="line2d_123">
      <g>
       <use xlink:href="#m84bb5660d3" x="47.3219" y="110.186723" style="stroke: #000000; stroke-width: 0.6"/>
      </g>
     </g>
     <g id="line2d_124">
      <g>
       <use xlink:href="#ma3c2cc90d2" x="480.96" y="110.186723" style="stroke: #000000; stroke-width: 0.6"/>
      </g>
     </g>
    </g>
    <g id="ytick_43">
     <g id="line2d_125">
      <g>
       <use xlink:href="#m84bb5660d3" x="47.3219" y="107.387641" style="stroke: #000000; stroke-width: 0.6"/>
      </g>
     </g>
     <g id="line2d_126">
      <g>
       <use xlink:href="#ma3c2cc90d2" x="480.96" y="107.387641" style="stroke: #000000; stroke-width: 0.6"/>
      </g>
     </g>
    </g>
    <g id="ytick_44">
     <g id="line2d_127">
      <g>
       <use xlink:href="#m84bb5660d3" x="47.3219" y="105.100623" style="stroke: #000000; stroke-width: 0.6"/>
      </g>
     </g>
     <g id="line2d_128">
      <g>
       <use xlink:href="#ma3c2cc90d2" x="480.96" y="105.100623" style="stroke: #000000; stroke-width: 0.6"/>
      </g>
     </g>
    </g>
    <g id="ytick_45">
     <g id="line2d_129">
      <g>
       <use xlink:href="#m84bb5660d3" x="47.3219" y="103.166978" style="stroke: #000000; stroke-width: 0.6"/>
      </g>
     </g>
     <g id="line2d_130">
      <g>
       <use xlink:href="#ma3c2cc90d2" x="480.96" y="103.166978" style="stroke: #000000; stroke-width: 0.6"/>
      </g>
     </g>
    </g>
    <g id="ytick_46">
     <g id="line2d_131">
      <g>
       <use xlink:href="#m84bb5660d3" x="47.3219" y="101.491978" style="stroke: #000000; stroke-width: 0.6"/>
      </g>
     </g>
     <g id="line2d_132">
      <g>
       <use xlink:href="#ma3c2cc90d2" x="480.96" y="101.491978" style="stroke: #000000; stroke-width: 0.6"/>
      </g>
     </g>
    </g>
    <g id="ytick_47">
     <g id="line2d_133">
      <g>
       <use xlink:href="#m84bb5660d3" x="47.3219" y="100.014523" style="stroke: #000000; stroke-width: 0.6"/>
      </g>
     </g>
     <g id="line2d_134">
      <g>
       <use xlink:href="#ma3c2cc90d2" x="480.96" y="100.014523" style="stroke: #000000; stroke-width: 0.6"/>
      </g>
     </g>
    </g>
    <g id="ytick_48">
     <g id="line2d_135">
      <g>
       <use xlink:href="#m84bb5660d3" x="47.3219" y="89.99815" style="stroke: #000000; stroke-width: 0.6"/>
      </g>
     </g>
     <g id="line2d_136">
      <g>
       <use xlink:href="#ma3c2cc90d2" x="480.96" y="89.99815" style="stroke: #000000; stroke-width: 0.6"/>
      </g>
     </g>
    </g>
    <g id="ytick_49">
     <g id="line2d_137">
      <g>
       <use xlink:href="#m84bb5660d3" x="47.3219" y="84.91205" style="stroke: #000000; stroke-width: 0.6"/>
      </g>
     </g>
     <g id="line2d_138">
      <g>
       <use xlink:href="#ma3c2cc90d2" x="480.96" y="84.91205" style="stroke: #000000; stroke-width: 0.6"/>
      </g>
     </g>
    </g>
    <g id="ytick_50">
     <g id="line2d_139">
      <g>
       <use xlink:href="#m84bb5660d3" x="47.3219" y="81.303404" style="stroke: #000000; stroke-width: 0.6"/>
      </g>
     </g>
     <g id="line2d_140">
      <g>
       <use xlink:href="#ma3c2cc90d2" x="480.96" y="81.303404" style="stroke: #000000; stroke-width: 0.6"/>
      </g>
     </g>
    </g>
    <g id="ytick_51">
     <g id="line2d_141">
      <g>
       <use xlink:href="#m84bb5660d3" x="47.3219" y="78.504322" style="stroke: #000000; stroke-width: 0.6"/>
      </g>
     </g>
     <g id="line2d_142">
      <g>
       <use xlink:href="#ma3c2cc90d2" x="480.96" y="78.504322" style="stroke: #000000; stroke-width: 0.6"/>
      </g>
     </g>
    </g>
    <g id="ytick_52">
     <g id="line2d_143">
      <g>
       <use xlink:href="#m84bb5660d3" x="47.3219" y="76.217304" style="stroke: #000000; stroke-width: 0.6"/>
      </g>
     </g>
     <g id="line2d_144">
      <g>
       <use xlink:href="#ma3c2cc90d2" x="480.96" y="76.217304" style="stroke: #000000; stroke-width: 0.6"/>
      </g>
     </g>
    </g>
    <g id="ytick_53">
     <g id="line2d_145">
      <g>
       <use xlink:href="#m84bb5660d3" x="47.3219" y="74.283659" style="stroke: #000000; stroke-width: 0.6"/>
      </g>
     </g>
     <g id="line2d_146">
      <g>
       <use xlink:href="#ma3c2cc90d2" x="480.96" y="74.283659" style="stroke: #000000; stroke-width: 0.6"/>
      </g>
     </g>
    </g>
    <g id="ytick_54">
     <g id="line2d_147">
      <g>
       <use xlink:href="#m84bb5660d3" x="47.3219" y="72.608659" style="stroke: #000000; stroke-width: 0.6"/>
      </g>
     </g>
     <g id="line2d_148">
      <g>
       <use xlink:href="#ma3c2cc90d2" x="480.96" y="72.608659" style="stroke: #000000; stroke-width: 0.6"/>
      </g>
     </g>
    </g>
    <g id="ytick_55">
     <g id="line2d_149">
      <g>
       <use xlink:href="#m84bb5660d3" x="47.3219" y="71.131204" style="stroke: #000000; stroke-width: 0.6"/>
      </g>
     </g>
     <g id="line2d_150">
      <g>
       <use xlink:href="#ma3c2cc90d2" x="480.96" y="71.131204" style="stroke: #000000; stroke-width: 0.6"/>
      </g>
     </g>
    </g>
    <g id="ytick_56">
     <g id="line2d_151">
      <g>
       <use xlink:href="#m84bb5660d3" x="47.3219" y="61.114831" style="stroke: #000000; stroke-width: 0.6"/>
      </g>
     </g>
     <g id="line2d_152">
      <g>
       <use xlink:href="#ma3c2cc90d2" x="480.96" y="61.114831" style="stroke: #000000; stroke-width: 0.6"/>
      </g>
     </g>
    </g>
    <g id="ytick_57">
     <g id="line2d_153">
      <g>
       <use xlink:href="#m84bb5660d3" x="47.3219" y="56.028731" style="stroke: #000000; stroke-width: 0.6"/>
      </g>
     </g>
     <g id="line2d_154">
      <g>
       <use xlink:href="#ma3c2cc90d2" x="480.96" y="56.028731" style="stroke: #000000; stroke-width: 0.6"/>
      </g>
     </g>
    </g>
    <g id="ytick_58">
     <g id="line2d_155">
      <g>
       <use xlink:href="#m84bb5660d3" x="47.3219" y="52.420085" style="stroke: #000000; stroke-width: 0.6"/>
      </g>
     </g>
     <g id="line2d_156">
      <g>
       <use xlink:href="#ma3c2cc90d2" x="480.96" y="52.420085" style="stroke: #000000; stroke-width: 0.6"/>
      </g>
     </g>
    </g>
    <g id="ytick_59">
     <g id="line2d_157">
      <g>
       <use xlink:href="#m84bb5660d3" x="47.3219" y="49.621003" style="stroke: #000000; stroke-width: 0.6"/>
      </g>
     </g>
     <g id="line2d_158">
      <g>
       <use xlink:href="#ma3c2cc90d2" x="480.96" y="49.621003" style="stroke: #000000; stroke-width: 0.6"/>
      </g>
     </g>
    </g>
    <g id="ytick_60">
     <g id="line2d_159">
      <g>
       <use xlink:href="#m84bb5660d3" x="47.3219" y="47.333985" style="stroke: #000000; stroke-width: 0.6"/>
      </g>
     </g>
     <g id="line2d_160">
      <g>
       <use xlink:href="#ma3c2cc90d2" x="480.96" y="47.333985" style="stroke: #000000; stroke-width: 0.6"/>
      </g>
     </g>
    </g>
    <g id="ytick_61">
     <g id="line2d_161">
      <g>
       <use xlink:href="#m84bb5660d3" x="47.3219" y="45.40034" style="stroke: #000000; stroke-width: 0.6"/>
      </g>
     </g>
     <g id="line2d_162">
      <g>
       <use xlink:href="#ma3c2cc90d2" x="480.96" y="45.40034" style="stroke: #000000; stroke-width: 0.6"/>
      </g>
     </g>
    </g>
    <g id="ytick_62">
     <g id="line2d_163">
      <g>
       <use xlink:href="#m84bb5660d3" x="47.3219" y="43.72534" style="stroke: #000000; stroke-width: 0.6"/>
      </g>
     </g>
     <g id="line2d_164">
      <g>
       <use xlink:href="#ma3c2cc90d2" x="480.96" y="43.72534" style="stroke: #000000; stroke-width: 0.6"/>
      </g>
     </g>
    </g>
    <g id="ytick_63">
     <g id="line2d_165">
      <g>
       <use xlink:href="#m84bb5660d3" x="47.3219" y="42.247885" style="stroke: #000000; stroke-width: 0.6"/>
      </g>
     </g>
     <g id="line2d_166">
      <g>
       <use xlink:href="#ma3c2cc90d2" x="480.96" y="42.247885" style="stroke: #000000; stroke-width: 0.6"/>
      </g>
     </g>
    </g>
    <g id="ytick_64">
     <g id="line2d_167">
      <g>
       <use xlink:href="#m84bb5660d3" x="47.3219" y="32.231512" style="stroke: #000000; stroke-width: 0.6"/>
      </g>
     </g>
     <g id="line2d_168">
      <g>
       <use xlink:href="#ma3c2cc90d2" x="480.96" y="32.231512" style="stroke: #000000; stroke-width: 0.6"/>
      </g>
     </g>
    </g>
    <g id="ytick_65">
     <g id="line2d_169">
      <g>
       <use xlink:href="#m84bb5660d3" x="47.3219" y="27.145412" style="stroke: #000000; stroke-width: 0.6"/>
      </g>
     </g>
     <g id="line2d_170">
      <g>
       <use xlink:href="#ma3c2cc90d2" x="480.96" y="27.145412" style="stroke: #000000; stroke-width: 0.6"/>
      </g>
     </g>
    </g>
    <g id="ytick_66">
     <g id="line2d_171">
      <g>
       <use xlink:href="#m84bb5660d3" x="47.3219" y="23.536766" style="stroke: #000000; stroke-width: 0.6"/>
      </g>
     </g>
     <g id="line2d_172">
      <g>
       <use xlink:href="#ma3c2cc90d2" x="480.96" y="23.536766" style="stroke: #000000; stroke-width: 0.6"/>
      </g>
     </g>
    </g>
    <g id="ytick_67">
     <g id="line2d_173">
      <g>
       <use xlink:href="#m84bb5660d3" x="47.3219" y="20.737684" style="stroke: #000000; stroke-width: 0.6"/>
      </g>
     </g>
     <g id="line2d_174">
      <g>
       <use xlink:href="#ma3c2cc90d2" x="480.96" y="20.737684" style="stroke: #000000; stroke-width: 0.6"/>
      </g>
     </g>
    </g>
    <g id="ytick_68">
     <g id="line2d_175">
      <g>
       <use xlink:href="#m84bb5660d3" x="47.3219" y="18.450666" style="stroke: #000000; stroke-width: 0.6"/>
      </g>
     </g>
     <g id="line2d_176">
      <g>
       <use xlink:href="#ma3c2cc90d2" x="480.96" y="18.450666" style="stroke: #000000; stroke-width: 0.6"/>
      </g>
     </g>
    </g>
    <g id="ytick_69">
     <g id="line2d_177">
      <g>
       <use xlink:href="#m84bb5660d3" x="47.3219" y="16.517021" style="stroke: #000000; stroke-width: 0.6"/>
      </g>
     </g>
     <g id="line2d_178">
      <g>
       <use xlink:href="#ma3c2cc90d2" x="480.96" y="16.517021" style="stroke: #000000; stroke-width: 0.6"/>
      </g>
     </g>
    </g>
    <g id="ytick_70">
     <g id="line2d_179">
      <g>
       <use xlink:href="#m84bb5660d3" x="47.3219" y="14.842021" style="stroke: #000000; stroke-width: 0.6"/>
      </g>
     </g>
     <g id="line2d_180">
      <g>
       <use xlink:href="#ma3c2cc90d2" x="480.96" y="14.842021" style="stroke: #000000; stroke-width: 0.6"/>
      </g>
     </g>
    </g>
    <g id="ytick_71">
     <g id="line2d_181">
      <g>
       <use xlink:href="#m84bb5660d3" x="47.3219" y="13.364566" style="stroke: #000000; stroke-width: 0.6"/>
      </g>
     </g>
     <g id="line2d_182">
      <g>
       <use xlink:href="#ma3c2cc90d2" x="480.96" y="13.364566" style="stroke: #000000; stroke-width: 0.6"/>
      </g>
     </g>
    </g>
    <g id="text_12">
     <!-- $P(k)$ -->
     <g transform="translate(17.660772 134.533953) rotate(-90) scale(0.14 -0.14)">
      <defs>
       <path id="CMMI12-50" d="M 1894 2023 
L 2970 2023 
C 3853 2023 4736 2673 4736 3401 
C 4736 3898 4314 4352 3507 4352 
L 1530 4352 
C 1408 4352 1350 4352 1350 4231 
C 1350 4167 1408 4167 1504 4167 
C 1894 4167 1894 4116 1894 4046 
C 1894 4034 1894 3995 1869 3899 
L 1005 472 
C 947 249 934 185 486 185 
C 365 185 301 185 301 70 
C 301 0 358 0 397 0 
C 518 0 646 0 768 0 
L 1517 0 
C 1638 0 1773 0 1894 0 
C 1946 0 2016 0 2016 121 
C 2016 185 1958 185 1862 185 
C 1478 185 1472 230 1472 293 
C 1472 325 1478 369 1485 401 
L 1894 2023 
z
M 2355 3930 
C 2413 4167 2438 4167 2688 4167 
L 3322 4167 
C 3802 4167 4198 4013 4198 3535 
C 4198 3369 4115 2827 3821 2534 
C 3712 2419 3405 2176 2822 2176 
L 1920 2176 
L 2355 3930 
z
" transform="scale(0.015625)"/>
       <path id="CMR17-28" d="M 1958 -1561 
C 1958 -1555 1958 -1542 1939 -1523 
C 1645 -1224 858 -407 858 1581 
C 858 3569 1632 4379 1946 4697 
C 1946 4704 1958 4717 1958 4736 
C 1958 4755 1939 4768 1914 4768 
C 1843 4768 1299 4296 986 3594 
C 666 2887 576 2199 576 1588 
C 576 1128 621 351 1005 -471 
C 1312 -1135 1837 -1600 1914 -1600 
C 1946 -1600 1958 -1587 1958 -1561 
z
" transform="scale(0.015625)"/>
       <path id="CMR17-29" d="M 1683 1581 
C 1683 2040 1638 2817 1254 3639 
C 947 4303 422 4768 346 4768 
C 326 4768 301 4761 301 4729 
C 301 4717 307 4710 314 4697 
C 621 4378 1402 3568 1402 1584 
C 1402 -407 627 -1217 314 -1537 
C 307 -1549 301 -1556 301 -1568 
C 301 -1600 326 -1600 346 -1600 
C 416 -1600 960 -1128 1274 -426 
C 1594 281 1683 969 1683 1581 
z
" transform="scale(0.015625)"/>
      </defs>
      <use xlink:href="#CMMI12-50" transform="scale(0.996264)"/>
      <use xlink:href="#CMR17-28" transform="translate(76.425821 0) scale(0.996264)"/>
      <use xlink:href="#CMMI12-6b" transform="translate(111.706589 0) scale(0.996264)"/>
      <use xlink:href="#CMR17-29" transform="translate(165.785789 0) scale(0.996264)"/>
     </g>
    </g>
   </g>
   <g id="line2d_183">
    <path d="M 47.3219 19.844337 
L 93.564315 36.352561 
L 124.023415 49.738776 
L 146.773617 57.244533 
L 164.939302 71.841193 
L 180.061849 87.224209 
L 193.016032 82.010509 
L 204.346407 93.295126 
L 214.415092 98.328812 
L 231.710339 110.028815 
L 239.258447 112.289822 
L 246.225334 116.057496 
L 252.694146 111.805055 
L 258.731373 121.11151 
L 264.391019 120.744538 
L 269.717547 124.801595 
L 274.748 129.494998 
L 284.040752 131.19469 
L 288.352274 133.873972 
L 292.467749 136.111534 
L 296.404232 136.913896 
L 300.176647 142.055593 
L 303.798124 143.951594 
L 307.280279 142.680108 
L 310.633434 144.526336 
L 313.866808 146.921441 
L 316.988665 151.551144 
L 320.006439 149.901182 
L 322.926849 151.772767 
L 325.755981 151.681231 
L 328.499368 155.529515 
L 331.162056 158.063971 
L 333.748656 155.37927 
L 336.263397 158.358554 
L 338.710164 157.965969 
L 341.092534 159.330793 
L 343.413812 162.15682 
L 345.677051 166.670557 
L 347.885084 164.904329 
L 352.145863 166.846123 
L 354.203335 167.44014 
L 356.215081 170.150673 
L 358.18309 169.701596 
L 360.109223 170.665287 
L 361.995226 173.561663 
L 363.842736 171.555003 
L 365.653294 173.814727 
L 367.428348 173.66304 
L 369.169264 174.050363 
L 370.877331 174.766617 
L 372.553765 177.597905 
L 374.199717 177.039242 
L 375.816275 178.056062 
L 377.404471 180.787064 
L 378.965283 179.716275 
L 380.499639 182.302996 
L 382.008422 180.707261 
L 383.492469 183.27055 
L 384.952579 183.619041 
L 386.389511 183.151027 
L 387.803991 184.913371 
L 389.196709 186.055212 
L 390.568324 185.238309 
L 393.250738 190.495168 
L 394.562715 190.061375 
L 395.855949 190.0532 
L 397.130968 189.236011 
L 398.388278 189.881945 
L 399.628364 192.867804 
L 400.851691 191.125293 
L 402.058707 190.825077 
L 403.249841 193.063496 
L 404.425505 193.610839 
L 405.586096 192.266177 
L 406.731996 193.361625 
L 407.863571 193.91375 
L 408.981176 195.692461 
L 410.085151 194.304646 
L 411.175825 195.92311 
L 412.253515 196.978123 
L 413.318525 197.374282 
L 414.371152 199.680343 
L 415.411679 198.052883 
L 416.440381 198.563412 
L 417.457525 199.728615 
L 418.463367 199.609511 
L 419.458156 200.717477 
L 420.442132 202.582838 
L 421.415526 201.895121 
L 422.378566 202.414084 
L 423.331468 203.466759 
L 424.274444 203.096351 
L 425.207698 203.690544 
L 426.131429 203.837681 
L 427.045829 203.223064 
L 427.951085 204.438113 
L 428.847378 204.853818 
L 429.734884 207.405663 
L 430.613773 207.181712 
L 431.484211 206.078969 
L 432.346359 206.9634 
L 433.200373 208.653425 
L 434.046406 208.068928 
L 434.884605 208.555174 
L 435.715114 209.339027 
L 436.538073 209.489428 
L 437.353618 209.966804 
L 438.161881 209.073546 
L 438.962991 209.851226 
L 439.757074 211.567926 
L 440.544251 211.472103 
L 441.324643 211.688986 
L 442.098364 212.51782 
L 442.865529 212.709271 
L 443.626246 213.786421 
L 444.380624 214.623859 
L 445.128768 214.306647 
L 445.870779 213.533783 
L 446.606757 214.923659 
L 447.336801 215.754393 
L 448.061003 215.329181 
L 448.779458 213.562246 
L 449.492256 217.508028 
L 450.199485 216.133223 
L 450.901232 217.508007 
L 451.59758 216.14958 
L 452.288613 217.480321 
L 452.97441 218.208794 
L 453.655052 218.178694 
L 454.330613 219.471909 
L 455.001171 218.485586 
L 455.666798 218.47223 
L 456.327566 220.498225 
L 456.983546 219.61572 
L 457.634807 220.863586 
L 458.281416 220.859343 
L 458.923439 219.707591 
L 459.56094 220.423683 
L 460.193984 222.57028 
L 460.822631 221.963456 
L 461.446943 220.254904 
L 462.066979 223.885637 
L 462.682796 222.266367 
L 463.294453 223.16249 
L 463.902005 223.170029 
L 464.505506 223.351187 
L 465.105011 225.01642 
L 465.700571 224.973546 
L 466.292239 223.644996 
L 466.880065 223.762059 
L 467.464098 226.240133 
L 468.044387 225.178846 
L 468.620981 225.489622 
L 469.763265 227.176673 
L 470.329048 227.232218 
L 470.891316 227.569256 
L 471.450113 227.727447 
L 472.005482 228.582853 
L 472.557464 228.553626 
L 473.106101 227.913248 
L 473.651434 228.666584 
L 474.1935 230.003642 
L 474.73234 229.046871 
L 475.267992 229.403254 
L 475.800492 229.386972 
L 476.329879 228.888583 
L 476.856188 230.297469 
L 477.379454 229.562702 
L 477.899714 230.807752 
L 478.417 230.204182 
L 478.931347 231.015578 
L 479.442788 231.190329 
L 479.951356 230.926629 
L 480.457083 232.599399 
L 480.96 232.203971 
L 480.96 232.203971 
" clip-path="url(#pe5da5cc72d)" style="fill: none; stroke: #0000ff; stroke-width: 1.5; stroke-linecap: square"/>
   </g>
   <g id="line2d_184">
    <path d="M 438.962991 210.75715 
L 439.501162 211.031762 
L 440.036152 211.304752 
L 440.567999 211.576138 
L 441.096739 211.845938 
L 441.622409 212.114172 
L 442.145045 212.380858 
L 442.66468 212.646012 
L 443.181349 212.909653 
L 443.695086 213.171798 
L 444.205924 213.432464 
L 444.713896 213.691667 
L 445.219033 213.949423 
L 445.721367 214.205749 
L 446.220929 214.460661 
L 446.717749 214.714174 
L 447.211858 214.966303 
L 447.703284 215.217063 
L 448.192056 215.466469 
L 448.678204 215.714536 
L 449.161755 215.961278 
L 449.642737 216.206709 
L 450.121176 216.450842 
L 450.597101 216.693692 
L 451.070536 216.935272 
L 451.541508 217.175596 
L 452.010042 217.414675 
L 452.476164 217.652523 
L 452.939899 217.889153 
L 453.401269 218.124577 
L 453.8603 218.358807 
L 454.317015 218.591855 
L 454.771438 218.823734 
L 455.223591 219.054454 
L 455.673496 219.284027 
L 456.121177 219.512466 
L 456.566655 219.73978 
L 457.009951 219.965981 
L 457.451087 220.191079 
L 457.890083 220.415086 
L 458.326961 220.638012 
L 458.761741 220.859867 
L 459.194443 221.080662 
L 459.625086 221.300407 
L 460.05369 221.519111 
L 460.480274 221.736784 
L 460.904858 221.953437 
L 461.327459 222.169078 
L 461.748097 222.383717 
L 462.166789 222.597363 
L 462.583554 222.810026 
L 462.998408 223.021714 
L 463.411371 223.232436 
L 463.822458 223.442202 
L 464.231686 223.651019 
L 464.639073 223.858896 
L 465.044635 224.065843 
L 465.448387 224.271866 
L 465.850347 224.476974 
L 466.250531 224.681176 
L 466.648952 224.884479 
L 467.045628 225.086891 
L 467.440574 225.28842 
L 467.833803 225.489073 
L 468.225332 225.688859 
L 468.615175 225.887784 
L 469.003346 226.085856 
L 469.38986 226.283083 
L 469.77473 226.479471 
L 470.157972 226.675028 
L 470.539597 226.86976 
L 470.919621 227.063675 
L 471.298055 227.256779 
L 471.674915 227.449079 
L 472.050212 227.640582 
L 472.423959 227.831294 
L 472.79617 228.021222 
L 473.166856 228.210373 
L 473.536031 228.398752 
L 473.903707 228.586366 
L 474.269895 228.773221 
L 474.634607 228.959323 
L 474.997857 229.144678 
L 475.359654 229.329293 
L 475.720012 229.513172 
L 476.07894 229.696323 
L 476.436451 229.87875 
L 476.792556 230.06046 
L 477.147265 230.241458 
L 477.50059 230.421749 
L 477.852541 230.601339 
L 478.203129 230.780234 
L 478.552364 230.958438 
L 478.900257 231.135958 
L 479.246819 231.312798 
L 479.592059 231.488964 
L 479.935987 231.66446 
L 480.278613 231.839292 
L 480.619948 232.013465 
L 480.96 232.186984 
" clip-path="url(#pe5da5cc72d)" style="fill: none; stroke-dasharray: 9.25,4; stroke-dashoffset: 0; stroke: #0000ff; stroke-width: 2.5"/>
   </g>
   <g id="line2d_185">
    <path d="M 47.3219 15.536767 
L 93.564315 30.993081 
L 124.023415 51.234558 
L 146.773617 56.35651 
L 164.939302 71.532212 
L 180.061849 88.338223 
L 193.016032 81.950616 
L 204.346407 91.280351 
L 214.415092 93.262611 
L 223.475132 103.056906 
L 231.710339 105.857736 
L 246.225334 113.322971 
L 252.694146 111.283786 
L 258.731373 119.847064 
L 264.391019 118.581784 
L 269.717547 122.388217 
L 274.748 127.557378 
L 279.513566 125.623584 
L 284.040752 128.370037 
L 288.352274 131.81122 
L 292.467749 131.671342 
L 296.404232 133.208034 
L 300.176647 137.088393 
L 303.798124 138.274205 
L 307.280279 137.971173 
L 310.633434 141.098438 
L 313.866808 142.373347 
L 316.988665 144.412596 
L 320.006439 144.022094 
L 322.926849 145.631417 
L 325.755981 146.214017 
L 328.499368 148.019951 
L 331.162056 150.087228 
L 333.748656 149.430837 
L 336.263397 151.75126 
L 338.710164 151.088264 
L 341.092534 151.398445 
L 343.413812 155.379493 
L 345.677051 157.813785 
L 347.885084 155.600534 
L 350.040539 157.098 
L 352.145863 157.761009 
L 354.203335 156.72469 
L 356.215081 157.864693 
L 358.18309 159.390139 
L 360.109223 161.214349 
L 361.995226 162.018243 
L 363.842736 160.330103 
L 365.653294 163.571599 
L 367.428348 163.38825 
L 369.169264 163.724503 
L 370.877331 163.367666 
L 372.553765 167.398062 
L 374.199717 166.142412 
L 375.816275 166.388936 
L 377.404471 167.961867 
L 378.965283 168.503941 
L 380.499639 169.870435 
L 382.008422 167.659577 
L 383.492469 169.349173 
L 384.952579 169.774709 
L 386.389511 168.802456 
L 387.803991 169.71673 
L 389.196709 171.572649 
L 390.568324 171.623494 
L 391.919466 175.321419 
L 393.250738 174.68256 
L 394.562715 173.67883 
L 395.855949 175.711263 
L 397.130968 173.298095 
L 398.388278 175.652119 
L 399.628364 176.634322 
L 400.851691 176.506506 
L 403.249841 175.779899 
L 404.425505 178.138981 
L 405.586096 177.099391 
L 406.731996 178.210424 
L 408.981176 178.290342 
L 410.085151 177.488511 
L 411.175825 177.778357 
L 412.253515 178.306793 
L 413.318525 178.380837 
L 414.371152 179.452228 
L 415.411679 181.497997 
L 416.440381 180.511587 
L 417.457525 181.497186 
L 418.463367 181.562672 
L 419.458156 181.486272 
L 420.442132 182.143635 
L 421.415526 182.051453 
L 422.378566 181.609005 
L 423.331468 183.324885 
L 424.274444 184.150093 
L 426.131429 182.720864 
L 427.045829 182.519801 
L 427.951085 183.732198 
L 428.847378 184.11235 
L 430.613773 182.960782 
L 431.484211 185.049071 
L 432.346359 184.759669 
L 433.200373 185.251833 
L 434.046406 185.55016 
L 434.884605 186.02085 
L 435.715114 186.894824 
L 436.538073 185.955379 
L 437.353618 186.093286 
L 438.161881 186.815066 
L 438.962991 188.08098 
L 439.757074 187.821685 
L 440.544251 187.870332 
L 441.324643 185.639839 
L 442.098364 186.95194 
L 442.865529 188.643074 
L 443.626246 186.964119 
L 444.380624 186.665901 
L 445.128768 186.110303 
L 445.870779 187.143816 
L 446.606757 187.952717 
L 447.336801 187.683537 
L 448.061003 187.811538 
L 448.779458 189.13772 
L 449.492256 188.282026 
L 450.199485 190.037982 
L 450.901232 189.445561 
L 451.59758 189.2517 
L 452.288613 189.989379 
L 452.97441 190.000213 
L 453.655052 189.817259 
L 454.330613 189.476743 
L 455.001171 190.602467 
L 455.666798 190.717845 
L 456.327566 191.449915 
L 456.983546 190.348282 
L 458.923439 192.178714 
L 460.193984 191.561634 
L 460.822631 192.631539 
L 462.066979 191.966091 
L 462.682796 192.608625 
L 463.294453 191.12141 
L 463.902005 192.695955 
L 464.505506 192.031931 
L 465.105011 192.792557 
L 465.700571 192.522959 
L 466.292239 192.633062 
L 466.880065 192.542791 
L 468.044387 194.28048 
L 468.620981 193.081744 
L 469.193925 194.894178 
L 469.763265 194.828581 
L 470.329048 194.157587 
L 470.891316 193.182121 
L 471.450113 194.405034 
L 472.005482 196.350845 
L 472.557464 194.702398 
L 473.106101 194.59902 
L 473.651434 194.791512 
L 474.1935 194.69702 
L 474.73234 195.274453 
L 475.267992 195.466845 
L 475.800492 194.599667 
L 476.329879 194.466003 
L 476.856188 195.355132 
L 477.379454 195.803055 
L 477.899714 195.758385 
L 478.417 196.665416 
L 478.931347 196.134602 
L 479.442788 194.8924 
L 479.951356 196.220363 
L 480.457083 196.471125 
L 480.96 195.692459 
L 480.96 195.692459 
" clip-path="url(#pe5da5cc72d)" style="fill: none; stroke: #ff0000; stroke-width: 1.5; stroke-linecap: square"/>
   </g>
   <g id="line2d_186">
    <path d="M 229.370452 232.599399 
L 229.370452 7.575726 
" clip-path="url(#pe5da5cc72d)" style="fill: none; stroke-dasharray: 1,1.65; stroke-dashoffset: 0; stroke: #ff0000; stroke-opacity: 0.7"/>
   </g>
   <g id="line2d_187">
    <path d="M 438.962991 186.472945 
L 439.501162 186.601768 
L 440.036152 186.72983 
L 440.567999 186.857139 
L 441.096739 186.983705 
L 441.622409 187.109536 
L 442.145045 187.23464 
L 442.66468 187.359026 
L 443.181349 187.482703 
L 443.695086 187.605677 
L 444.205924 187.727958 
L 444.713896 187.849552 
L 445.219033 187.970468 
L 445.721367 188.090713 
L 446.220929 188.210294 
L 446.717749 188.329219 
L 447.211858 188.447495 
L 447.703284 188.565128 
L 448.192056 188.682127 
L 448.678204 188.798497 
L 449.161755 188.914246 
L 449.642737 189.02938 
L 450.121176 189.143905 
L 450.597101 189.257828 
L 451.070536 189.371155 
L 451.541508 189.483893 
L 452.010042 189.596047 
L 452.476164 189.707623 
L 452.939899 189.818629 
L 453.401269 189.929068 
L 453.8603 190.038947 
L 454.317015 190.148272 
L 454.771438 190.257048 
L 455.223591 190.365281 
L 455.673496 190.472976 
L 456.121177 190.580138 
L 456.566655 190.686773 
L 457.009951 190.792886 
L 457.451087 190.898482 
L 457.890083 191.003565 
L 458.326961 191.108142 
L 458.761741 191.212216 
L 459.194443 191.315793 
L 459.625086 191.418877 
L 460.05369 191.521473 
L 460.480274 191.623585 
L 460.904858 191.725219 
L 461.327459 191.826378 
L 461.748097 191.927067 
L 462.166789 192.02729 
L 462.583554 192.127052 
L 462.998408 192.226357 
L 463.411371 192.325208 
L 463.822458 192.423611 
L 464.231686 192.521569 
L 464.639073 192.619086 
L 465.044635 192.716166 
L 465.448387 192.812814 
L 465.850347 192.909032 
L 466.250531 193.004824 
L 466.648952 193.100195 
L 467.045628 193.195149 
L 467.440574 193.289688 
L 467.833803 193.383816 
L 468.225332 193.477537 
L 468.615175 193.570855 
L 469.003346 193.663772 
L 469.38986 193.756293 
L 469.77473 193.84842 
L 470.157972 193.940157 
L 470.539597 194.031508 
L 470.919621 194.122475 
L 471.298055 194.213062 
L 471.674915 194.303271 
L 472.050212 194.393107 
L 472.423959 194.482572 
L 472.79617 194.571669 
L 473.166856 194.660401 
L 473.536031 194.748771 
L 473.903707 194.836782 
L 474.269895 194.924437 
L 474.634607 195.01174 
L 474.997857 195.098691 
L 475.359654 195.185296 
L 475.720012 195.271555 
L 476.07894 195.357473 
L 476.436451 195.443051 
L 476.792556 195.528292 
L 477.147265 195.6132 
L 477.50059 195.697776 
L 477.852541 195.782023 
L 478.203129 195.865944 
L 478.552364 195.949542 
L 478.900257 196.032818 
L 479.246819 196.115775 
L 479.592059 196.198416 
L 479.935987 196.280743 
L 480.278613 196.362758 
L 480.619948 196.444464 
L 480.96 196.525863 
" clip-path="url(#pe5da5cc72d)" style="fill: none; stroke-dasharray: 9.25,4; stroke-dashoffset: 0; stroke: #ff0000; stroke-width: 2.5"/>
   </g>
   <g id="line2d_188">
    <path d="M 47.3219 12.160885 
L 93.564315 26.523428 
L 124.023415 49.757759 
L 146.773617 54.333017 
L 164.939302 69.695 
L 180.061849 85.262127 
L 193.016032 79.686455 
L 204.346407 86.837194 
L 214.415092 86.767726 
L 223.475132 96.866933 
L 231.710339 98.78384 
L 239.258447 104.252817 
L 246.225334 107.753796 
L 252.694146 106.836396 
L 258.731373 114.092163 
L 264.391019 113.086372 
L 269.717547 115.723465 
L 274.748 119.826616 
L 279.513566 118.761565 
L 284.040752 121.371361 
L 288.352274 124.71714 
L 292.467749 124.357657 
L 296.404232 125.004783 
L 300.176647 128.280119 
L 303.798124 128.908914 
L 307.280279 130.62166 
L 310.633434 132.971335 
L 313.866808 134.449385 
L 320.006439 134.490866 
L 322.926849 135.097932 
L 325.755981 136.491342 
L 328.499368 137.009933 
L 331.162056 139.765786 
L 333.748656 140.36816 
L 336.263397 141.136488 
L 338.710164 140.876922 
L 341.092534 140.742401 
L 343.413812 143.988993 
L 345.677051 144.571528 
L 347.885084 144.174646 
L 350.040539 145.332172 
L 352.145863 145.753347 
L 354.203335 144.827281 
L 358.18309 147.154325 
L 360.109223 148.643845 
L 361.995226 149.431962 
L 363.842736 148.551806 
L 365.653294 151.235522 
L 367.428348 151.661762 
L 369.169264 151.78309 
L 370.877331 150.449406 
L 372.553765 153.661354 
L 374.199717 152.498138 
L 375.816275 153.57752 
L 377.404471 154.382842 
L 378.965283 155.417432 
L 380.499639 155.552791 
L 382.008422 154.675303 
L 383.492469 156.41295 
L 384.952579 155.543537 
L 386.389511 155.738573 
L 387.803991 155.770864 
L 389.196709 157.67344 
L 390.568324 157.984646 
L 391.919466 161.398744 
L 393.250738 160.411082 
L 394.562715 159.207604 
L 395.855949 161.113825 
L 397.130968 159.063911 
L 398.388278 161.366945 
L 399.628364 162.28319 
L 400.851691 161.95106 
L 402.058707 162.022172 
L 403.249841 161.360564 
L 404.425505 163.333998 
L 405.586096 163.019518 
L 406.731996 163.872403 
L 407.863571 163.720601 
L 408.981176 163.330853 
L 410.085151 163.238801 
L 412.253515 163.231258 
L 413.318525 162.973423 
L 414.371152 164.686718 
L 415.411679 165.750864 
L 416.440381 165.734409 
L 417.457525 166.282171 
L 418.463367 166.371829 
L 419.458156 165.973513 
L 420.442132 166.426389 
L 421.415526 166.699128 
L 422.378566 166.388396 
L 423.331468 167.220568 
L 424.274444 169.039655 
L 426.131429 167.101306 
L 427.951085 168.349766 
L 428.847378 168.583892 
L 429.734884 167.4616 
L 430.613773 167.208497 
L 431.484211 169.278069 
L 432.346359 169.099786 
L 433.200373 169.695219 
L 434.046406 169.702524 
L 435.715114 170.897001 
L 436.538073 169.856232 
L 438.161881 171.160388 
L 438.962991 172.14473 
L 440.544251 171.358375 
L 441.324643 169.674814 
L 442.098364 170.627843 
L 442.865529 172.290791 
L 443.626246 170.789993 
L 444.380624 170.821527 
L 445.128768 169.647662 
L 445.870779 171.153622 
L 446.606757 172.003105 
L 447.336801 171.706539 
L 448.061003 172.062886 
L 448.779458 173.029282 
L 449.492256 172.195396 
L 450.199485 174.162196 
L 450.901232 173.024395 
L 451.59758 173.062408 
L 452.288613 173.398138 
L 452.97441 174.038369 
L 453.655052 173.484546 
L 454.330613 173.110473 
L 455.001171 174.39139 
L 455.666798 173.987878 
L 456.327566 174.819029 
L 456.983546 173.829818 
L 458.281416 175.128098 
L 458.923439 175.662217 
L 459.56094 175.045818 
L 460.193984 175.402224 
L 460.822631 176.082681 
L 461.446943 175.944966 
L 462.066979 175.403278 
L 462.682796 176.468227 
L 463.294453 174.905959 
L 463.902005 176.239041 
L 464.505506 175.488467 
L 465.105011 176.031847 
L 466.292239 176.06233 
L 466.880065 176.38376 
L 467.464098 177.214582 
L 468.044387 177.825592 
L 468.620981 176.727916 
L 469.193925 177.94063 
L 469.763265 178.212642 
L 470.329048 177.636512 
L 470.891316 176.672847 
L 472.005482 179.171292 
L 472.557464 178.238961 
L 473.106101 177.898119 
L 473.651434 177.812325 
L 474.1935 178.002736 
L 474.73234 178.617634 
L 475.267992 178.940108 
L 475.800492 177.774383 
L 476.329879 177.737082 
L 476.856188 178.760279 
L 477.379454 178.992119 
L 477.899714 178.764325 
L 478.417 180.073365 
L 478.931347 179.48272 
L 479.442788 178.014129 
L 479.951356 179.513116 
L 480.457083 179.828003 
L 480.96 179.205179 
L 480.96 179.205179 
" clip-path="url(#pe5da5cc72d)" style="fill: none; stroke: #008000; stroke-width: 1.5; stroke-linecap: square"/>
   </g>
   <g id="line2d_189">
    <path d="M 154.073995 232.599399 
L 154.073995 7.575726 
" clip-path="url(#pe5da5cc72d)" style="fill: none; stroke-dasharray: 1,1.65; stroke-dashoffset: 0; stroke: #008000; stroke-opacity: 0.7"/>
   </g>
   <g id="line2d_190">
    <path d="M 438.962991 170.431435 
L 439.501162 170.550895 
L 440.036152 170.669649 
L 440.567999 170.787706 
L 441.096739 170.905073 
L 441.622409 171.021758 
L 442.145045 171.137769 
L 442.66468 171.253115 
L 443.181349 171.367802 
L 443.695086 171.481839 
L 444.205924 171.595232 
L 444.713896 171.707989 
L 445.219033 171.820116 
L 445.721367 171.931621 
L 446.220929 172.042511 
L 446.717749 172.152792 
L 447.211858 172.262472 
L 447.703284 172.371556 
L 448.192056 172.480051 
L 448.678204 172.587963 
L 449.161755 172.695299 
L 449.642737 172.802065 
L 450.121176 172.908266 
L 450.597101 173.013909 
L 451.070536 173.118999 
L 451.541508 173.223543 
L 452.010042 173.327546 
L 452.476164 173.431013 
L 452.939899 173.53395 
L 453.401269 173.636362 
L 453.8603 173.738255 
L 454.317015 173.839634 
L 454.771438 173.940505 
L 455.223591 174.040871 
L 455.673496 174.140738 
L 456.121177 174.240112 
L 456.566655 174.338997 
L 457.009951 174.437397 
L 457.451087 174.535318 
L 457.890083 174.632764 
L 458.326961 174.729739 
L 458.761741 174.826249 
L 459.194443 174.922298 
L 459.625086 175.01789 
L 460.05369 175.113029 
L 460.480274 175.20772 
L 460.904858 175.301966 
L 461.327459 175.395773 
L 461.748097 175.489144 
L 462.166789 175.582083 
L 462.583554 175.674594 
L 462.998408 175.766681 
L 463.411371 175.858348 
L 463.822458 175.949598 
L 464.231686 176.040437 
L 464.639073 176.130866 
L 465.044635 176.22089 
L 465.448387 176.310513 
L 465.850347 176.399738 
L 466.250531 176.488568 
L 466.648952 176.577008 
L 467.045628 176.66506 
L 467.440574 176.752727 
L 467.833803 176.840014 
L 468.225332 176.926924 
L 468.615175 177.013459 
L 469.003346 177.099623 
L 469.38986 177.185419 
L 469.77473 177.27085 
L 470.157972 177.35592 
L 470.539597 177.440631 
L 470.919621 177.524986 
L 471.298055 177.608989 
L 471.674915 177.692642 
L 472.050212 177.775949 
L 472.423959 177.858911 
L 472.79617 177.941532 
L 473.166856 178.023815 
L 473.536031 178.105762 
L 473.903707 178.187377 
L 474.269895 178.268661 
L 474.634607 178.349618 
L 474.997857 178.43025 
L 475.359654 178.51056 
L 475.720012 178.59055 
L 476.07894 178.670223 
L 476.436451 178.749581 
L 476.792556 178.828627 
L 477.147265 178.907364 
L 477.50059 178.985793 
L 477.852541 179.063917 
L 478.203129 179.141738 
L 478.552364 179.219259 
L 478.900257 179.296483 
L 479.246819 179.373411 
L 479.592059 179.450045 
L 479.935987 179.526388 
L 480.278613 179.602442 
L 480.619948 179.67821 
L 480.96 179.753693 
" clip-path="url(#pe5da5cc72d)" style="fill: none; stroke-dasharray: 9.25,4; stroke-dashoffset: 0; stroke: #008000; stroke-width: 2.5"/>
   </g>
   <g id="line2d_191">
    <path d="M 47.3219 7.575726 
L 93.564315 20.170626 
L 124.023415 41.223569 
L 146.773617 48.793804 
L 164.939302 64.483559 
L 180.061849 72.620552 
L 193.016032 72.906596 
L 204.346407 77.530123 
L 214.415092 75.436233 
L 223.475132 85.203769 
L 231.710339 87.157917 
L 239.258447 93.035177 
L 246.225334 96.235959 
L 252.694146 96.395264 
L 258.731373 101.975039 
L 264.391019 101.533163 
L 269.717547 103.649553 
L 274.748 106.431656 
L 279.513566 107.944595 
L 284.040752 109.132349 
L 288.352274 111.573933 
L 292.467749 112.021139 
L 296.404232 111.084759 
L 300.176647 114.604698 
L 303.798124 115.187511 
L 307.280279 118.124992 
L 310.633434 119.483038 
L 313.866808 122.125662 
L 316.988665 120.602751 
L 320.006439 121.39004 
L 322.926849 119.996704 
L 325.755981 122.924164 
L 328.499368 121.879251 
L 331.162056 125.283569 
L 333.748656 126.593003 
L 336.263397 126.479109 
L 338.710164 126.058209 
L 343.413812 128.430145 
L 345.677051 128.454999 
L 347.885084 129.159997 
L 350.040539 130.318774 
L 354.203335 130.501214 
L 356.215081 131.524376 
L 358.18309 132.304294 
L 360.109223 132.821003 
L 361.995226 133.929585 
L 363.842736 134.19443 
L 365.653294 136.161421 
L 367.428348 137.167286 
L 369.169264 136.001602 
L 370.877331 135.184557 
L 372.553765 137.550177 
L 374.199717 136.110553 
L 375.816275 137.855372 
L 377.404471 138.500787 
L 378.965283 139.697864 
L 380.499639 138.641173 
L 382.008422 139.625713 
L 383.492469 140.801888 
L 384.952579 139.524921 
L 386.389511 140.704825 
L 387.803991 139.586446 
L 389.196709 142.007868 
L 390.568324 142.005687 
L 391.919466 145.496493 
L 393.250738 144.897478 
L 394.562715 142.996713 
L 395.855949 144.668352 
L 397.130968 143.268487 
L 398.388278 144.526591 
L 399.628364 146.109797 
L 400.851691 145.386188 
L 402.058707 145.665154 
L 403.249841 145.581949 
L 404.425505 146.988142 
L 405.586096 146.698744 
L 407.863571 147.465588 
L 408.981176 146.672485 
L 411.175825 147.291617 
L 412.253515 146.959578 
L 413.318525 146.288865 
L 414.371152 148.889687 
L 415.411679 148.411695 
L 416.440381 150.277575 
L 417.457525 149.320325 
L 418.463367 149.954871 
L 419.458156 149.495817 
L 420.442132 149.909064 
L 421.415526 150.18608 
L 422.378566 149.673441 
L 423.331468 150.103612 
L 424.274444 152.58078 
L 425.207698 151.382134 
L 426.131429 150.879974 
L 427.045829 151.648998 
L 427.951085 152.002432 
L 428.847378 151.602511 
L 430.613773 150.457588 
L 431.484211 152.130436 
L 432.346359 152.497314 
L 433.200373 153.238099 
L 434.046406 152.846993 
L 434.884605 153.189813 
L 435.715114 153.824418 
L 436.538073 152.902711 
L 437.353618 154.204897 
L 438.161881 154.720277 
L 438.962991 155.060763 
L 439.757074 154.679266 
L 440.544251 153.868232 
L 441.324643 153.503792 
L 442.098364 153.51626 
L 442.865529 155.418896 
L 443.626246 154.469259 
L 444.380624 154.830462 
L 445.128768 152.686049 
L 445.870779 154.1224 
L 446.606757 155.289325 
L 447.336801 155.381711 
L 448.061003 156.009937 
L 448.779458 156.152839 
L 449.492256 155.466342 
L 450.199485 157.379725 
L 450.901232 156.137249 
L 451.59758 156.672229 
L 452.288613 155.77942 
L 452.97441 157.292305 
L 453.655052 156.823667 
L 454.330613 156.617238 
L 455.001171 157.782446 
L 455.666798 156.580971 
L 456.327566 157.227925 
L 456.983546 157.279455 
L 458.281416 158.129889 
L 458.923439 158.351324 
L 459.56094 157.638062 
L 460.193984 159.071954 
L 460.822631 159.100545 
L 461.446943 158.798046 
L 462.066979 158.025954 
L 462.682796 159.512589 
L 463.294453 158.815119 
L 463.902005 159.262432 
L 464.505506 158.599301 
L 465.700571 159.192551 
L 466.292239 159.190111 
L 466.880065 159.597828 
L 467.464098 160.913418 
L 468.044387 160.803339 
L 468.620981 160.0728 
L 469.763265 161.116846 
L 470.329048 160.924646 
L 470.891316 160.121909 
L 471.450113 161.193511 
L 472.005482 161.588284 
L 472.557464 161.738044 
L 473.106101 161.189925 
L 473.651434 160.420137 
L 474.73234 161.652529 
L 475.267992 161.919544 
L 475.800492 160.706125 
L 476.329879 160.76003 
L 476.856188 162.036533 
L 477.379454 161.659781 
L 477.899714 161.636005 
L 478.417 162.932662 
L 479.442788 161.416389 
L 479.951356 162.497293 
L 480.457083 163.295642 
L 480.96 162.079566 
L 480.96 162.079566 
" clip-path="url(#pe5da5cc72d)" style="fill: none; stroke: #ffa500; stroke-width: 1.5; stroke-linecap: square"/>
   </g>
   <g id="line2d_192">
    <path d="M 78.777538 232.599399 
L 78.777538 7.575726 
" clip-path="url(#pe5da5cc72d)" style="fill: none; stroke-dasharray: 1,1.65; stroke-dashoffset: 0; stroke: #ffa500; stroke-opacity: 0.7"/>
   </g>
   <g id="line2d_193">
    <path d="M 438.962991 153.681729 
L 439.501162 153.79801 
L 440.036152 153.913604 
L 440.567999 154.028519 
L 441.096739 154.142763 
L 441.622409 154.256343 
L 442.145045 154.369268 
L 442.66468 154.481545 
L 443.181349 154.59318 
L 443.695086 154.704182 
L 444.205924 154.814558 
L 444.713896 154.924314 
L 445.219033 155.033458 
L 445.721367 155.141996 
L 446.220929 155.249936 
L 446.717749 155.357283 
L 447.211858 155.464043 
L 447.703284 155.570225 
L 448.192056 155.675833 
L 448.678204 155.780874 
L 449.161755 155.885354 
L 449.642737 155.989278 
L 450.121176 156.092654 
L 450.597101 156.195486 
L 451.070536 156.29778 
L 451.541508 156.399542 
L 452.010042 156.500777 
L 452.476164 156.601491 
L 452.939899 156.701689 
L 453.401269 156.801376 
L 453.8603 156.900558 
L 454.317015 156.99924 
L 454.771438 157.097426 
L 455.223591 157.195121 
L 455.673496 157.292332 
L 456.121177 157.389061 
L 456.566655 157.485314 
L 457.009951 157.581096 
L 457.451087 157.676412 
L 457.890083 157.771265 
L 458.326961 157.86566 
L 458.761741 157.959602 
L 459.194443 158.053095 
L 459.625086 158.146143 
L 460.05369 158.238751 
L 460.480274 158.330922 
L 460.904858 158.422661 
L 461.327459 158.513971 
L 461.748097 158.604857 
L 462.166789 158.695323 
L 462.583554 158.785373 
L 462.998408 158.87501 
L 463.411371 158.964237 
L 463.822458 159.05306 
L 464.231686 159.141481 
L 464.639073 159.229504 
L 465.044635 159.317133 
L 465.448387 159.404371 
L 465.850347 159.491222 
L 466.250531 159.577689 
L 466.648952 159.663775 
L 467.045628 159.749484 
L 467.440574 159.834819 
L 467.833803 159.919783 
L 468.225332 160.00438 
L 468.615175 160.088612 
L 469.003346 160.172484 
L 469.38986 160.255997 
L 469.77473 160.339155 
L 470.157972 160.421961 
L 470.539597 160.504418 
L 470.919621 160.586529 
L 471.298055 160.668296 
L 471.674915 160.749724 
L 472.050212 160.830813 
L 472.423959 160.911568 
L 472.79617 160.991991 
L 473.166856 161.072084 
L 473.536031 161.151851 
L 473.903707 161.231294 
L 474.269895 161.310415 
L 474.634607 161.389218 
L 474.997857 161.467705 
L 475.359654 161.545877 
L 475.720012 161.623739 
L 476.07894 161.701292 
L 476.436451 161.778538 
L 476.792556 161.855481 
L 477.147265 161.932122 
L 477.50059 162.008465 
L 477.852541 162.08451 
L 478.203129 162.160261 
L 478.552364 162.235719 
L 478.900257 162.310888 
L 479.246819 162.385769 
L 479.592059 162.460364 
L 479.935987 162.534676 
L 480.278613 162.608706 
L 480.619948 162.682458 
L 480.96 162.755932 
" clip-path="url(#pe5da5cc72d)" style="fill: none; stroke-dasharray: 9.25,4; stroke-dashoffset: 0; stroke: #ffa500; stroke-width: 2.5"/>
   </g>
   <g id="line2d_194">
    <path d="M 47.3219 7.684068 
L 480.96 228.008388 
L 480.96 228.008388 
" clip-path="url(#pe5da5cc72d)" style="fill: none; stroke-dasharray: 11.1,4.8; stroke-dashoffset: 0; stroke: #000000; stroke-width: 3"/>
   </g>
   <g id="patch_3">
    <path d="M 47.3219 232.599399 
L 47.3219 7.575726 
" style="fill: none; stroke: #000000; stroke-linejoin: miter; stroke-linecap: square"/>
   </g>
   <g id="patch_4">
    <path d="M 480.96 232.599399 
L 480.96 7.575726 
" style="fill: none; stroke: #000000; stroke-linejoin: miter; stroke-linecap: square"/>
   </g>
   <g id="patch_5">
    <path d="M 47.3219 232.599399 
L 480.96 232.599399 
" style="fill: none; stroke: #000000; stroke-linejoin: miter; stroke-linecap: square"/>
   </g>
   <g id="patch_6">
    <path d="M 47.3219 7.575726 
L 480.96 7.575726 
" style="fill: none; stroke: #000000; stroke-linejoin: miter; stroke-linecap: square"/>
   </g>
   <g id="legend_1">
    <g id="line2d_195">
     <path d="M 59.9219 56.291144 
L 73.9219 56.291144 
L 87.9219 56.291144 
" style="fill: none; stroke: #0000ff; stroke-width: 1.5; stroke-linecap: square"/>
    </g>
    <g id="text_13">
     <!-- $\eta=0.0$ -->
     <g transform="translate(99.1219 61.191144) scale(0.14 -0.14)">
      <defs>
       <path id="CMMI12-11" d="M 3040 1768 
C 3072 1895 3091 1973 3091 2145 
C 3091 2528 2867 2815 2381 2815 
C 1811 2815 1510 2413 1395 2254 
C 1376 2618 1114 2815 832 2815 
C 646 2815 499 2726 378 2483 
C 262 2254 173 1864 173 1839 
C 173 1813 198 1781 243 1781 
C 294 1781 301 1788 339 1934 
C 435 2311 557 2688 813 2688 
C 960 2688 1011 2586 1011 2394 
C 1011 2254 947 2005 902 1807 
L 723 1118 
C 698 996 627 709 595 593 
C 550 428 480 127 480 96 
C 480 6 550 -64 646 -64 
C 723 -64 813 -25 864 70 
C 877 102 934 326 966 453 
L 1107 1028 
L 1318 1871 
C 1331 1909 1491 2228 1728 2432 
C 1894 2586 2112 2688 2362 2688 
C 2618 2688 2707 2496 2707 2241 
C 2707 2055 2682 1953 2650 1831 
L 1907 -1107 
C 1901 -1139 1888 -1177 1888 -1216 
C 1888 -1312 1965 -1376 2061 -1376 
C 2118 -1376 2253 -1350 2304 -1158 
L 3040 1768 
z
" transform="scale(0.015625)"/>
       <path id="CMR17-3d" d="M 4115 2017 
C 4211 2017 4307 2017 4307 2125 
C 4307 2240 4198 2240 4090 2240 
L 512 2240 
C 403 2240 294 2240 294 2125 
C 294 2017 390 2017 486 2017 
L 4115 2017 
z
M 4090 896 
C 4198 896 4307 896 4307 1011 
C 4307 1119 4211 1119 4115 1119 
L 486 1119 
C 390 1119 294 1119 294 1011 
C 294 896 403 896 512 896 
L 4090 896 
z
" transform="scale(0.015625)"/>
       <path id="CMMI12-3a" d="M 1178 307 
C 1178 492 1024 619 870 619 
C 685 619 557 466 557 313 
C 557 128 710 0 864 0 
C 1050 0 1178 153 1178 307 
z
" transform="scale(0.015625)"/>
      </defs>
      <use xlink:href="#CMMI12-11" transform="scale(0.996264)"/>
      <use xlink:href="#CMR17-3d" transform="translate(79.377824 0) scale(0.996264)"/>
      <use xlink:href="#CMR17-30" transform="translate(178.766622 0) scale(0.996264)"/>
      <use xlink:href="#CMMI12-3a" transform="translate(224.457099 0) scale(0.996264)"/>
      <use xlink:href="#CMR17-30" transform="translate(251.554276 0) scale(0.996264)"/>
     </g>
    </g>
    <g id="line2d_196">
     <path d="M 59.9219 75.803172 
L 73.9219 75.803172 
L 87.9219 75.803172 
" style="fill: none; stroke-dasharray: 9.25,4; stroke-dashoffset: 0; stroke: #0000ff; stroke-width: 2.5"/>
    </g>
    <g id="text_14">
     <!-- $\propto k^{-3.68}$ -->
     <g transform="translate(99.1219 80.703172) scale(0.14 -0.14)">
      <defs>
       <path id="CMSY10-2f" d="M 4621 205 
C 4595 205 4493 192 4474 192 
C 3968 192 3629 691 3411 1024 
C 3347 1133 3174 1395 3104 1504 
C 3258 1850 3686 2643 4448 2643 
C 4493 2643 4550 2643 4621 2624 
C 4621 2790 4614 2797 4602 2810 
C 4557 2822 4461 2829 4403 2829 
C 3590 2829 3117 2048 2963 1728 
C 2707 2118 2618 2259 2381 2458 
C 1990 2797 1638 2829 1478 2829 
C 768 2829 358 2112 358 1376 
C 358 659 755 -70 1459 -70 
C 2272 -70 2746 710 2899 1030 
C 3155 640 3245 499 3482 301 
C 3872 -38 4224 -70 4384 -70 
C 4461 -70 4563 -58 4621 -44 
L 4621 205 
z
M 2758 1254 
C 2605 909 2176 115 1414 115 
C 794 115 499 794 499 1376 
C 499 2010 858 2566 1389 2566 
C 1894 2566 2234 2067 2451 1734 
C 2515 1626 2688 1363 2758 1254 
z
" transform="scale(0.015625)"/>
       <path id="CMSY10-0" d="M 4218 1472 
C 4326 1472 4442 1472 4442 1600 
C 4442 1728 4326 1728 4218 1728 
L 755 1728 
C 646 1728 531 1728 531 1600 
C 531 1472 646 1472 755 1472 
L 4218 1472 
z
" transform="scale(0.015625)"/>
      </defs>
      <use xlink:href="#CMSY10-2f" transform="scale(0.996264)"/>
      <use xlink:href="#CMMI12-6b" transform="translate(105.161476 0) scale(0.996264)"/>
      <use xlink:href="#CMSY10-0" transform="translate(159.240677 36.153639) scale(0.697382)"/>
      <use xlink:href="#CMR17-33" transform="translate(213.48167 36.153639) scale(0.697382)"/>
      <use xlink:href="#CMMI12-3a" transform="translate(245.464852 36.153639) scale(0.697382)"/>
      <use xlink:href="#CMR17-36" transform="translate(264.432785 36.153639) scale(0.697382)"/>
      <use xlink:href="#CMR17-38" transform="translate(296.415967 36.153639) scale(0.697382)"/>
     </g>
    </g>
    <g id="line2d_197">
     <path d="M 59.9219 95.315201 
L 73.9219 95.315201 
L 87.9219 95.315201 
" style="fill: none; stroke: #ff0000; stroke-width: 1.5; stroke-linecap: square"/>
    </g>
    <g id="text_15">
     <!-- $\eta=0.1$ -->
     <g transform="translate(99.1219 100.215201) scale(0.14 -0.14)">
      <use xlink:href="#CMMI12-11" transform="scale(0.996264)"/>
      <use xlink:href="#CMR17-3d" transform="translate(79.377824 0) scale(0.996264)"/>
      <use xlink:href="#CMR17-30" transform="translate(178.766622 0) scale(0.996264)"/>
      <use xlink:href="#CMMI12-3a" transform="translate(224.457099 0) scale(0.996264)"/>
      <use xlink:href="#CMR17-31" transform="translate(251.554276 0) scale(0.996264)"/>
     </g>
    </g>
    <g id="line2d_198">
     <path d="M 59.9219 114.827229 
L 73.9219 114.827229 
L 87.9219 114.827229 
" style="fill: none; stroke-dasharray: 9.25,4; stroke-dashoffset: 0; stroke: #ff0000; stroke-width: 2.5"/>
    </g>
    <g id="text_16">
     <!-- $\propto k^{-1.73}$ -->
     <g transform="translate(99.1219 119.727229) scale(0.14 -0.14)">
      <use xlink:href="#CMSY10-2f" transform="scale(0.996264)"/>
      <use xlink:href="#CMMI12-6b" transform="translate(105.161476 0) scale(0.996264)"/>
      <use xlink:href="#CMSY10-0" transform="translate(159.240677 36.153639) scale(0.697382)"/>
      <use xlink:href="#CMR17-31" transform="translate(213.48167 36.153639) scale(0.697382)"/>
      <use xlink:href="#CMMI12-3a" transform="translate(245.464852 36.153639) scale(0.697382)"/>
      <use xlink:href="#CMR17-37" transform="translate(264.432785 36.153639) scale(0.697382)"/>
      <use xlink:href="#CMR17-33" transform="translate(296.415967 36.153639) scale(0.697382)"/>
     </g>
    </g>
    <g id="line2d_199">
     <path d="M 59.9219 134.339257 
L 73.9219 134.339257 
L 87.9219 134.339257 
" style="fill: none; stroke: #008000; stroke-width: 1.5; stroke-linecap: square"/>
    </g>
    <g id="text_17">
     <!-- $\eta=0.2$ -->
     <g transform="translate(99.1219 139.239257) scale(0.14 -0.14)">
      <use xlink:href="#CMMI12-11" transform="scale(0.996264)"/>
      <use xlink:href="#CMR17-3d" transform="translate(79.377824 0) scale(0.996264)"/>
      <use xlink:href="#CMR17-30" transform="translate(178.766622 0) scale(0.996264)"/>
      <use xlink:href="#CMMI12-3a" transform="translate(224.457099 0) scale(0.996264)"/>
      <use xlink:href="#CMR17-32" transform="translate(251.554276 0) scale(0.996264)"/>
     </g>
    </g>
    <g id="line2d_200">
     <path d="M 59.9219 153.851286 
L 73.9219 153.851286 
L 87.9219 153.851286 
" style="fill: none; stroke-dasharray: 9.25,4; stroke-dashoffset: 0; stroke: #008000; stroke-width: 2.5"/>
    </g>
    <g id="text_18">
     <!-- $\propto k^{-1.60}$ -->
     <g transform="translate(99.1219 158.751286) scale(0.14 -0.14)">
      <use xlink:href="#CMSY10-2f" transform="scale(0.996264)"/>
      <use xlink:href="#CMMI12-6b" transform="translate(105.161476 0) scale(0.996264)"/>
      <use xlink:href="#CMSY10-0" transform="translate(159.240677 36.153639) scale(0.697382)"/>
      <use xlink:href="#CMR17-31" transform="translate(213.48167 36.153639) scale(0.697382)"/>
      <use xlink:href="#CMMI12-3a" transform="translate(245.464852 36.153639) scale(0.697382)"/>
      <use xlink:href="#CMR17-36" transform="translate(264.432785 36.153639) scale(0.697382)"/>
      <use xlink:href="#CMR17-30" transform="translate(296.415967 36.153639) scale(0.697382)"/>
     </g>
    </g>
    <g id="line2d_201">
     <path d="M 59.9219 173.363314 
L 73.9219 173.363314 
L 87.9219 173.363314 
" style="fill: none; stroke: #ffa500; stroke-width: 1.5; stroke-linecap: square"/>
    </g>
    <g id="text_19">
     <!-- $\eta=0.4$ -->
     <g transform="translate(99.1219 178.263314) scale(0.14 -0.14)">
      <use xlink:href="#CMMI12-11" transform="scale(0.996264)"/>
      <use xlink:href="#CMR17-3d" transform="translate(79.377824 0) scale(0.996264)"/>
      <use xlink:href="#CMR17-30" transform="translate(178.766622 0) scale(0.996264)"/>
      <use xlink:href="#CMMI12-3a" transform="translate(224.457099 0) scale(0.996264)"/>
      <use xlink:href="#CMR17-34" transform="translate(251.554276 0) scale(0.996264)"/>
     </g>
    </g>
    <g id="line2d_202">
     <path d="M 59.9219 192.875343 
L 73.9219 192.875343 
L 87.9219 192.875343 
" style="fill: none; stroke-dasharray: 9.25,4; stroke-dashoffset: 0; stroke: #ffa500; stroke-width: 2.5"/>
    </g>
    <g id="text_20">
     <!-- $\propto k^{-1.56}$ -->
     <g transform="translate(99.1219 197.775343) scale(0.14 -0.14)">
      <use xlink:href="#CMSY10-2f" transform="scale(0.996264)"/>
      <use xlink:href="#CMMI12-6b" transform="translate(105.161476 0) scale(0.996264)"/>
      <use xlink:href="#CMSY10-0" transform="translate(159.240677 36.153639) scale(0.697382)"/>
      <use xlink:href="#CMR17-31" transform="translate(213.48167 36.153639) scale(0.697382)"/>
      <use xlink:href="#CMMI12-3a" transform="translate(245.464852 36.153639) scale(0.697382)"/>
      <use xlink:href="#CMR17-35" transform="translate(264.432785 36.153639) scale(0.697382)"/>
      <use xlink:href="#CMR17-36" transform="translate(296.415967 36.153639) scale(0.697382)"/>
     </g>
    </g>
    <g id="line2d_203">
     <path d="M 59.9219 212.387371 
L 73.9219 212.387371 
L 87.9219 212.387371 
" style="fill: none; stroke-dasharray: 11.1,4.8; stroke-dashoffset: 0; stroke: #000000; stroke-width: 3"/>
    </g>
    <g id="text_21">
     <!-- $k^{-11/3}$ -->
     <g transform="translate(99.1219 217.287371) scale(0.14 -0.14)">
      <defs>
       <path id="CMMI12-3d" d="M 2746 4562 
C 2746 4569 2784 4666 2784 4678 
C 2784 4755 2720 4800 2669 4800 
C 2637 4800 2579 4800 2528 4659 
L 384 -1363 
C 384 -1370 346 -1465 346 -1478 
C 346 -1555 410 -1600 461 -1600 
C 499 -1600 557 -1593 602 -1459 
L 2746 4562 
z
" transform="scale(0.015625)"/>
      </defs>
      <use xlink:href="#CMMI12-6b" transform="scale(0.996264)"/>
      <use xlink:href="#CMSY10-0" transform="translate(54.079201 36.153639) scale(0.697382)"/>
      <use xlink:href="#CMR17-31" transform="translate(108.320194 36.153639) scale(0.697382)"/>
      <use xlink:href="#CMR17-31" transform="translate(140.303376 36.153639) scale(0.697382)"/>
      <use xlink:href="#CMMI12-3d" transform="translate(172.286558 36.153639) scale(0.697382)"/>
      <use xlink:href="#CMR17-33" transform="translate(206.428849 36.153639) scale(0.697382)"/>
     </g>
    </g>
   </g>
  </g>
 </g>
 <defs>
  <clipPath id="pe5da5cc72d">
   <rect x="47.3219" y="7.575726" width="433.6381" height="225.023673"/>
  </clipPath>
 </defs>
</svg>
