<?xml version="1.0" encoding="utf-8" standalone="no"?>
<!DOCTYPE svg PUBLIC "-//W3C//DTD SVG 1.1//EN"
  "http://www.w3.org/Graphics/SVG/1.1/DTD/svg11.dtd">
<svg xmlns:xlink="http://www.w3.org/1999/xlink" width="494.64pt" height="278.635351pt" viewBox="0 0 494.64 278.635351" xmlns="http://www.w3.org/2000/svg" version="1.1">
 <metadata>
  <rdf:RDF xmlns:dc="http://purl.org/dc/elements/1.1/" xmlns:cc="http://creativecommons.org/ns#" xmlns:rdf="http://www.w3.org/1999/02/22-rdf-syntax-ns#">
   <cc:Work>
    <dc:type rdf:resource="http://purl.org/dc/dcmitype/StillImage"/>
    <dc:date>2026-02-15T20:37:03.409662</dc:date>
    <dc:format>image/svg+xml</dc:format>
    <dc:creator>
     <cc:Agent>
      <dc:title>Matplotlib v3.8.4, https://matplotlib.org/</dc:title>
     </cc:Agent>
    </dc:creator>
   </cc:Work>
  </rdf:RDF>
 </metadata>
 <defs>
  <style type="text/css">*{stroke-linejoin: round; stroke-linecap: butt}</style>
 </defs>
 <g id="figure_1">
  <g id="patch_1">
   <path d="M 0 278.635351 
L 494.64 278.635351 
L 494.64 0 
L 0 0 
z
" style="fill: #ffffff"/>
  </g>
  <g id="axes_1">
   <g id="patch_2">
    <path d="M 40.986177 244.452868 
L 487.44 244.452868 
L 487.44 10.913 
L 40.986177 10.913 
z
" style="fill: #ffffff"/>
   </g>
   <g id="matplotlib.axis_1">
    <g id="xtick_1">
     <g id="line2d_1">
      <defs>
       <path id="m3f4751172c" d="M 0 0 
L 0 -6 
" style="stroke: #000000; stroke-width: 0.8"/>
      </defs>
      <g>
       <use xlink:href="#m3f4751172c" x="76.250266" y="244.452868" style="stroke: #000000; stroke-width: 0.8"/>
      </g>
     </g>
     <g id="line2d_2">
      <defs>
       <path id="m53ca54a334" d="M 0 0 
L 0 6 
" style="stroke: #000000; stroke-width: 0.8"/>
      </defs>
      <g>
       <use xlink:href="#m53ca54a334" x="76.250266" y="10.913" style="stroke: #000000; stroke-width: 0.8"/>
      </g>
     </g>
     <g id="text_1">
      <!-- $\mathdefault{10^{1}}$ -->
      <g transform="translate(68.58663 255.563215) scale(0.11 -0.11)">
       <defs>
        <path id="CMR17-31" d="M 1702 4058 
C 1702 4192 1696 4192 1606 4192 
C 1357 3916 979 3827 621 3827 
C 602 3827 570 3827 563 3808 
C 557 3795 557 3782 557 3648 
C 755 3648 1088 3686 1344 3839 
L 1344 461 
C 1344 236 1331 160 781 160 
L 589 160 
L 589 0 
C 896 0 1216 0 1523 0 
C 1830 0 2150 0 2458 0 
L 2458 160 
L 2266 160 
C 1715 160 1702 230 1702 458 
L 1702 4058 
z
" transform="scale(0.015625)"/>
        <path id="CMR17-30" d="M 2688 2025 
C 2688 2416 2682 3080 2413 3591 
C 2176 4039 1798 4198 1466 4198 
C 1158 4198 768 4058 525 3597 
C 269 3118 243 2524 243 2025 
C 243 1661 250 1106 448 619 
C 723 -39 1216 -128 1466 -128 
C 1760 -128 2208 -7 2470 600 
C 2662 1042 2688 1559 2688 2025 
z
M 1466 -26 
C 1056 -26 813 325 723 812 
C 653 1188 653 1738 653 2096 
C 653 2588 653 2997 736 3387 
C 858 3929 1216 4096 1466 4096 
C 1728 4096 2067 3923 2189 3400 
C 2272 3036 2278 2607 2278 2096 
C 2278 1680 2278 1169 2202 792 
C 2067 95 1690 -26 1466 -26 
z
" transform="scale(0.015625)"/>
       </defs>
       <use xlink:href="#CMR17-31" transform="scale(0.996264)"/>
       <use xlink:href="#CMR17-30" transform="translate(45.690477 0) scale(0.996264)"/>
       <use xlink:href="#CMR17-31" transform="translate(91.380954 36.153639) scale(0.697382)"/>
      </g>
     </g>
    </g>
    <g id="xtick_2">
     <g id="line2d_3">
      <g>
       <use xlink:href="#m3f4751172c" x="276.337164" y="244.452868" style="stroke: #000000; stroke-width: 0.8"/>
      </g>
     </g>
     <g id="line2d_4">
      <g>
       <use xlink:href="#m53ca54a334" x="276.337164" y="10.913" style="stroke: #000000; stroke-width: 0.8"/>
      </g>
     </g>
     <g id="text_2">
      <!-- $\mathdefault{10^{2}}$ -->
      <g transform="translate(268.673527 255.563215) scale(0.11 -0.11)">
       <defs>
        <path id="CMR17-32" d="M 2669 989 
L 2554 989 
C 2490 536 2438 459 2413 420 
C 2381 369 1920 369 1830 369 
L 602 369 
C 832 619 1280 1072 1824 1597 
C 2214 1967 2669 2402 2669 3035 
C 2669 3790 2067 4224 1395 4224 
C 691 4224 262 3604 262 3030 
C 262 2780 448 2748 525 2748 
C 589 2748 781 2787 781 3010 
C 781 3207 614 3264 525 3264 
C 486 3264 448 3258 422 3245 
C 544 3790 915 4058 1306 4058 
C 1862 4058 2227 3617 2227 3035 
C 2227 2479 1901 2000 1536 1584 
L 262 146 
L 262 0 
L 2515 0 
L 2669 989 
z
" transform="scale(0.015625)"/>
       </defs>
       <use xlink:href="#CMR17-31" transform="scale(0.996264)"/>
       <use xlink:href="#CMR17-30" transform="translate(45.690477 0) scale(0.996264)"/>
       <use xlink:href="#CMR17-32" transform="translate(91.380954 36.153639) scale(0.697382)"/>
      </g>
     </g>
    </g>
    <g id="xtick_3">
     <g id="line2d_5">
      <g>
       <use xlink:href="#m3f4751172c" x="476.424061" y="244.452868" style="stroke: #000000; stroke-width: 0.8"/>
      </g>
     </g>
     <g id="line2d_6">
      <g>
       <use xlink:href="#m53ca54a334" x="476.424061" y="10.913" style="stroke: #000000; stroke-width: 0.8"/>
      </g>
     </g>
     <g id="text_3">
      <!-- $\mathdefault{10^{3}}$ -->
      <g transform="translate(468.760424 255.563215) scale(0.11 -0.11)">
       <defs>
        <path id="CMR17-33" d="M 1414 2157 
C 1984 2157 2234 1662 2234 1090 
C 2234 320 1824 25 1453 25 
C 1114 25 563 194 390 693 
C 422 680 454 680 486 680 
C 640 680 755 782 755 948 
C 755 1133 614 1216 486 1216 
C 378 1216 211 1165 211 926 
C 211 335 787 -128 1466 -128 
C 2176 -128 2720 430 2720 1085 
C 2720 1707 2208 2157 1600 2227 
C 2086 2328 2554 2756 2554 3329 
C 2554 3820 2048 4179 1472 4179 
C 890 4179 378 3829 378 3329 
C 378 3110 544 3072 627 3072 
C 762 3072 877 3155 877 3321 
C 877 3486 762 3569 627 3569 
C 602 3569 570 3569 544 3557 
C 730 3959 1235 4032 1459 4032 
C 1683 4032 2106 3925 2106 3320 
C 2106 3143 2080 2828 1862 2550 
C 1670 2304 1453 2304 1242 2284 
C 1210 2284 1062 2269 1037 2269 
C 992 2263 966 2257 966 2208 
C 966 2163 973 2157 1101 2157 
L 1414 2157 
z
" transform="scale(0.015625)"/>
       </defs>
       <use xlink:href="#CMR17-31" transform="scale(0.996264)"/>
       <use xlink:href="#CMR17-30" transform="translate(45.690477 0) scale(0.996264)"/>
       <use xlink:href="#CMR17-33" transform="translate(91.380954 36.153639) scale(0.697382)"/>
      </g>
     </g>
    </g>
    <g id="xtick_4">
     <g id="line2d_7">
      <defs>
       <path id="mcca8d1187a" d="M 0 0 
L 0 -3 
" style="stroke: #000000; stroke-width: 0.6"/>
      </defs>
      <g>
       <use xlink:href="#mcca8d1187a" x="45.256414" y="244.452868" style="stroke: #000000; stroke-width: 0.6"/>
      </g>
     </g>
     <g id="line2d_8">
      <defs>
       <path id="me83e3625d7" d="M 0 0 
L 0 3 
" style="stroke: #000000; stroke-width: 0.6"/>
      </defs>
      <g>
       <use xlink:href="#me83e3625d7" x="45.256414" y="10.913" style="stroke: #000000; stroke-width: 0.6"/>
      </g>
     </g>
    </g>
    <g id="xtick_5">
     <g id="line2d_9">
      <g>
       <use xlink:href="#mcca8d1187a" x="56.859843" y="244.452868" style="stroke: #000000; stroke-width: 0.6"/>
      </g>
     </g>
     <g id="line2d_10">
      <g>
       <use xlink:href="#me83e3625d7" x="56.859843" y="10.913" style="stroke: #000000; stroke-width: 0.6"/>
      </g>
     </g>
    </g>
    <g id="xtick_6">
     <g id="line2d_11">
      <g>
       <use xlink:href="#mcca8d1187a" x="67.094792" y="244.452868" style="stroke: #000000; stroke-width: 0.6"/>
      </g>
     </g>
     <g id="line2d_12">
      <g>
       <use xlink:href="#me83e3625d7" x="67.094792" y="10.913" style="stroke: #000000; stroke-width: 0.6"/>
      </g>
     </g>
    </g>
    <g id="xtick_7">
     <g id="line2d_13">
      <g>
       <use xlink:href="#mcca8d1187a" x="136.482424" y="244.452868" style="stroke: #000000; stroke-width: 0.6"/>
      </g>
     </g>
     <g id="line2d_14">
      <g>
       <use xlink:href="#me83e3625d7" x="136.482424" y="10.913" style="stroke: #000000; stroke-width: 0.6"/>
      </g>
     </g>
    </g>
    <g id="xtick_8">
     <g id="line2d_15">
      <g>
       <use xlink:href="#mcca8d1187a" x="171.715978" y="244.452868" style="stroke: #000000; stroke-width: 0.6"/>
      </g>
     </g>
     <g id="line2d_16">
      <g>
       <use xlink:href="#me83e3625d7" x="171.715978" y="10.913" style="stroke: #000000; stroke-width: 0.6"/>
      </g>
     </g>
    </g>
    <g id="xtick_9">
     <g id="line2d_17">
      <g>
       <use xlink:href="#mcca8d1187a" x="196.714582" y="244.452868" style="stroke: #000000; stroke-width: 0.6"/>
      </g>
     </g>
     <g id="line2d_18">
      <g>
       <use xlink:href="#me83e3625d7" x="196.714582" y="10.913" style="stroke: #000000; stroke-width: 0.6"/>
      </g>
     </g>
    </g>
    <g id="xtick_10">
     <g id="line2d_19">
      <g>
       <use xlink:href="#mcca8d1187a" x="216.105006" y="244.452868" style="stroke: #000000; stroke-width: 0.6"/>
      </g>
     </g>
     <g id="line2d_20">
      <g>
       <use xlink:href="#me83e3625d7" x="216.105006" y="10.913" style="stroke: #000000; stroke-width: 0.6"/>
      </g>
     </g>
    </g>
    <g id="xtick_11">
     <g id="line2d_21">
      <g>
       <use xlink:href="#mcca8d1187a" x="231.948136" y="244.452868" style="stroke: #000000; stroke-width: 0.6"/>
      </g>
     </g>
     <g id="line2d_22">
      <g>
       <use xlink:href="#me83e3625d7" x="231.948136" y="10.913" style="stroke: #000000; stroke-width: 0.6"/>
      </g>
     </g>
    </g>
    <g id="xtick_12">
     <g id="line2d_23">
      <g>
       <use xlink:href="#mcca8d1187a" x="245.343311" y="244.452868" style="stroke: #000000; stroke-width: 0.6"/>
      </g>
     </g>
     <g id="line2d_24">
      <g>
       <use xlink:href="#me83e3625d7" x="245.343311" y="10.913" style="stroke: #000000; stroke-width: 0.6"/>
      </g>
     </g>
    </g>
    <g id="xtick_13">
     <g id="line2d_25">
      <g>
       <use xlink:href="#mcca8d1187a" x="256.94674" y="244.452868" style="stroke: #000000; stroke-width: 0.6"/>
      </g>
     </g>
     <g id="line2d_26">
      <g>
       <use xlink:href="#me83e3625d7" x="256.94674" y="10.913" style="stroke: #000000; stroke-width: 0.6"/>
      </g>
     </g>
    </g>
    <g id="xtick_14">
     <g id="line2d_27">
      <g>
       <use xlink:href="#mcca8d1187a" x="267.181689" y="244.452868" style="stroke: #000000; stroke-width: 0.6"/>
      </g>
     </g>
     <g id="line2d_28">
      <g>
       <use xlink:href="#me83e3625d7" x="267.181689" y="10.913" style="stroke: #000000; stroke-width: 0.6"/>
      </g>
     </g>
    </g>
    <g id="xtick_15">
     <g id="line2d_29">
      <g>
       <use xlink:href="#mcca8d1187a" x="336.569321" y="244.452868" style="stroke: #000000; stroke-width: 0.6"/>
      </g>
     </g>
     <g id="line2d_30">
      <g>
       <use xlink:href="#me83e3625d7" x="336.569321" y="10.913" style="stroke: #000000; stroke-width: 0.6"/>
      </g>
     </g>
    </g>
    <g id="xtick_16">
     <g id="line2d_31">
      <g>
       <use xlink:href="#mcca8d1187a" x="371.802875" y="244.452868" style="stroke: #000000; stroke-width: 0.6"/>
      </g>
     </g>
     <g id="line2d_32">
      <g>
       <use xlink:href="#me83e3625d7" x="371.802875" y="10.913" style="stroke: #000000; stroke-width: 0.6"/>
      </g>
     </g>
    </g>
    <g id="xtick_17">
     <g id="line2d_33">
      <g>
       <use xlink:href="#mcca8d1187a" x="396.801479" y="244.452868" style="stroke: #000000; stroke-width: 0.6"/>
      </g>
     </g>
     <g id="line2d_34">
      <g>
       <use xlink:href="#me83e3625d7" x="396.801479" y="10.913" style="stroke: #000000; stroke-width: 0.6"/>
      </g>
     </g>
    </g>
    <g id="xtick_18">
     <g id="line2d_35">
      <g>
       <use xlink:href="#mcca8d1187a" x="416.191903" y="244.452868" style="stroke: #000000; stroke-width: 0.6"/>
      </g>
     </g>
     <g id="line2d_36">
      <g>
       <use xlink:href="#me83e3625d7" x="416.191903" y="10.913" style="stroke: #000000; stroke-width: 0.6"/>
      </g>
     </g>
    </g>
    <g id="xtick_19">
     <g id="line2d_37">
      <g>
       <use xlink:href="#mcca8d1187a" x="432.035033" y="244.452868" style="stroke: #000000; stroke-width: 0.6"/>
      </g>
     </g>
     <g id="line2d_38">
      <g>
       <use xlink:href="#me83e3625d7" x="432.035033" y="10.913" style="stroke: #000000; stroke-width: 0.6"/>
      </g>
     </g>
    </g>
    <g id="xtick_20">
     <g id="line2d_39">
      <g>
       <use xlink:href="#mcca8d1187a" x="445.430208" y="244.452868" style="stroke: #000000; stroke-width: 0.6"/>
      </g>
     </g>
     <g id="line2d_40">
      <g>
       <use xlink:href="#me83e3625d7" x="445.430208" y="10.913" style="stroke: #000000; stroke-width: 0.6"/>
      </g>
     </g>
    </g>
    <g id="xtick_21">
     <g id="line2d_41">
      <g>
       <use xlink:href="#mcca8d1187a" x="457.033637" y="244.452868" style="stroke: #000000; stroke-width: 0.6"/>
      </g>
     </g>
     <g id="line2d_42">
      <g>
       <use xlink:href="#me83e3625d7" x="457.033637" y="10.913" style="stroke: #000000; stroke-width: 0.6"/>
      </g>
     </g>
    </g>
    <g id="xtick_22">
     <g id="line2d_43">
      <g>
       <use xlink:href="#mcca8d1187a" x="467.268586" y="244.452868" style="stroke: #000000; stroke-width: 0.6"/>
      </g>
     </g>
     <g id="line2d_44">
      <g>
       <use xlink:href="#me83e3625d7" x="467.268586" y="10.913" style="stroke: #000000; stroke-width: 0.6"/>
      </g>
     </g>
    </g>
    <g id="text_4">
     <!-- $k$ -->
     <g transform="translate(261.360467 269.304456) scale(0.11 -0.11)">
      <defs>
       <path id="CMMI12-6b" d="M 1798 4257 
C 1805 4283 1818 4321 1818 4352 
C 1818 4416 1754 4416 1741 4416 
C 1734 4416 1504 4393 1389 4377 
C 1280 4377 1184 4358 1069 4358 
C 915 4345 870 4339 870 4224 
C 870 4160 934 4160 998 4160 
C 1325 4160 1325 4103 1325 4040 
C 1325 4015 1325 4002 1293 3888 
L 378 248 
C 352 152 352 140 352 101 
C 352 -38 461 -64 525 -64 
C 704 -64 742 77 794 275 
L 1094 1469 
C 1555 1418 1830 1226 1830 920 
C 1830 881 1830 856 1811 760 
C 1786 664 1786 588 1786 556 
C 1786 185 2029 -64 2355 -64 
C 2650 -64 2803 204 2854 294 
C 2989 530 3072 888 3072 913 
C 3072 945 3046 971 3008 971 
C 2950 971 2944 945 2918 843 
C 2829 511 2694 64 2368 64 
C 2240 64 2157 128 2157 370 
C 2157 492 2182 632 2208 728 
C 2234 843 2234 849 2234 926 
C 2234 1303 1894 1514 1306 1590 
C 1536 1731 1766 1980 1856 2076 
C 2221 2484 2470 2689 2765 2689 
C 2912 2689 2950 2650 2995 2612 
C 2758 2586 2669 2420 2669 2293 
C 2669 2139 2790 2088 2880 2088 
C 3053 2088 3206 2235 3206 2440 
C 3206 2625 3059 2816 2771 2816 
C 2419 2816 2131 2567 1677 2056 
C 1613 1980 1376 1737 1139 1648 
L 1798 4257 
z
" transform="scale(0.015625)"/>
      </defs>
      <use xlink:href="#CMMI12-6b" transform="scale(0.996264)"/>
     </g>
    </g>
   </g>
   <g id="matplotlib.axis_2">
    <g id="ytick_1">
     <g id="line2d_45">
      <defs>
       <path id="mda986b169a" d="M 0 0 
L 6 0 
" style="stroke: #000000; stroke-width: 0.8"/>
      </defs>
      <g>
       <use xlink:href="#mda986b169a" x="40.986177" y="224.12437" style="stroke: #000000; stroke-width: 0.8"/>
      </g>
     </g>
     <g id="line2d_46">
      <defs>
       <path id="m8c45ea71cc" d="M 0 0 
L -6 0 
" style="stroke: #000000; stroke-width: 0.8"/>
      </defs>
      <g>
       <use xlink:href="#m8c45ea71cc" x="487.44" y="224.12437" style="stroke: #000000; stroke-width: 0.8"/>
      </g>
     </g>
     <g id="text_5">
      <!-- $\mathdefault{10^{1}}$ -->
      <g transform="translate(22.158904 227.929543) scale(0.11 -0.11)">
       <use xlink:href="#CMR17-31" transform="scale(0.996264)"/>
       <use xlink:href="#CMR17-30" transform="translate(45.690477 0) scale(0.996264)"/>
       <use xlink:href="#CMR17-31" transform="translate(91.380954 36.153639) scale(0.697382)"/>
      </g>
     </g>
    </g>
    <g id="ytick_2">
     <g id="line2d_47">
      <g>
       <use xlink:href="#mda986b169a" x="40.986177" y="193.67877" style="stroke: #000000; stroke-width: 0.8"/>
      </g>
     </g>
     <g id="line2d_48">
      <g>
       <use xlink:href="#m8c45ea71cc" x="487.44" y="193.67877" style="stroke: #000000; stroke-width: 0.8"/>
      </g>
     </g>
     <g id="text_6">
      <!-- $\mathdefault{10^{2}}$ -->
      <g transform="translate(22.158904 197.483944) scale(0.11 -0.11)">
       <use xlink:href="#CMR17-31" transform="scale(0.996264)"/>
       <use xlink:href="#CMR17-30" transform="translate(45.690477 0) scale(0.996264)"/>
       <use xlink:href="#CMR17-32" transform="translate(91.380954 36.153639) scale(0.697382)"/>
      </g>
     </g>
    </g>
    <g id="ytick_3">
     <g id="line2d_49">
      <g>
       <use xlink:href="#mda986b169a" x="40.986177" y="163.233171" style="stroke: #000000; stroke-width: 0.8"/>
      </g>
     </g>
     <g id="line2d_50">
      <g>
       <use xlink:href="#m8c45ea71cc" x="487.44" y="163.233171" style="stroke: #000000; stroke-width: 0.8"/>
      </g>
     </g>
     <g id="text_7">
      <!-- $\mathdefault{10^{3}}$ -->
      <g transform="translate(22.158904 167.038344) scale(0.11 -0.11)">
       <use xlink:href="#CMR17-31" transform="scale(0.996264)"/>
       <use xlink:href="#CMR17-30" transform="translate(45.690477 0) scale(0.996264)"/>
       <use xlink:href="#CMR17-33" transform="translate(91.380954 36.153639) scale(0.697382)"/>
      </g>
     </g>
    </g>
    <g id="ytick_4">
     <g id="line2d_51">
      <g>
       <use xlink:href="#mda986b169a" x="40.986177" y="132.787571" style="stroke: #000000; stroke-width: 0.8"/>
      </g>
     </g>
     <g id="line2d_52">
      <g>
       <use xlink:href="#m8c45ea71cc" x="487.44" y="132.787571" style="stroke: #000000; stroke-width: 0.8"/>
      </g>
     </g>
     <g id="text_8">
      <!-- $\mathdefault{10^{4}}$ -->
      <g transform="translate(22.158904 136.592745) scale(0.11 -0.11)">
       <defs>
        <path id="CMR17-34" d="M 2150 4122 
C 2150 4256 2144 4256 2029 4256 
L 128 1254 
L 128 1088 
L 1779 1088 
L 1779 457 
C 1779 224 1766 160 1318 160 
L 1197 160 
L 1197 0 
C 1402 0 1747 0 1965 0 
C 2182 0 2528 0 2733 0 
L 2733 160 
L 2611 160 
C 2163 160 2150 224 2150 457 
L 2150 1088 
L 2803 1088 
L 2803 1254 
L 2150 1254 
L 2150 4122 
z
M 1798 3703 
L 1798 1254 
L 256 1254 
L 1798 3703 
z
" transform="scale(0.015625)"/>
       </defs>
       <use xlink:href="#CMR17-31" transform="scale(0.996264)"/>
       <use xlink:href="#CMR17-30" transform="translate(45.690477 0) scale(0.996264)"/>
       <use xlink:href="#CMR17-34" transform="translate(91.380954 36.153639) scale(0.697382)"/>
      </g>
     </g>
    </g>
    <g id="ytick_5">
     <g id="line2d_53">
      <g>
       <use xlink:href="#mda986b169a" x="40.986177" y="102.341972" style="stroke: #000000; stroke-width: 0.8"/>
      </g>
     </g>
     <g id="line2d_54">
      <g>
       <use xlink:href="#m8c45ea71cc" x="487.44" y="102.341972" style="stroke: #000000; stroke-width: 0.8"/>
      </g>
     </g>
     <g id="text_9">
      <!-- $\mathdefault{10^{5}}$ -->
      <g transform="translate(22.158904 106.147145) scale(0.11 -0.11)">
       <defs>
        <path id="CMR17-35" d="M 730 3692 
C 794 3666 1056 3584 1325 3584 
C 1920 3584 2246 3911 2432 4100 
C 2432 4157 2432 4192 2394 4192 
C 2387 4192 2374 4192 2323 4163 
C 2099 4058 1837 3973 1517 3973 
C 1325 3973 1037 3999 723 4139 
C 653 4171 640 4171 634 4171 
C 602 4171 595 4164 595 4037 
L 595 2203 
C 595 2089 595 2057 659 2057 
C 691 2057 704 2070 736 2114 
C 941 2401 1222 2522 1542 2522 
C 1766 2522 2246 2382 2246 1289 
C 2246 1085 2246 715 2054 421 
C 1894 159 1645 25 1370 25 
C 947 25 518 320 403 814 
C 429 807 480 795 506 795 
C 589 795 749 840 749 1038 
C 749 1210 627 1280 506 1280 
C 358 1280 262 1190 262 1011 
C 262 454 704 -128 1382 -128 
C 2042 -128 2669 440 2669 1264 
C 2669 2030 2170 2624 1549 2624 
C 1222 2624 947 2503 730 2274 
L 730 3692 
z
" transform="scale(0.015625)"/>
       </defs>
       <use xlink:href="#CMR17-31" transform="scale(0.996264)"/>
       <use xlink:href="#CMR17-30" transform="translate(45.690477 0) scale(0.996264)"/>
       <use xlink:href="#CMR17-35" transform="translate(91.380954 36.153639) scale(0.697382)"/>
      </g>
     </g>
    </g>
    <g id="ytick_6">
     <g id="line2d_55">
      <g>
       <use xlink:href="#mda986b169a" x="40.986177" y="71.896372" style="stroke: #000000; stroke-width: 0.8"/>
      </g>
     </g>
     <g id="line2d_56">
      <g>
       <use xlink:href="#m8c45ea71cc" x="487.44" y="71.896372" style="stroke: #000000; stroke-width: 0.8"/>
      </g>
     </g>
     <g id="text_10">
      <!-- $\mathdefault{10^{6}}$ -->
      <g transform="translate(22.158904 75.701546) scale(0.11 -0.11)">
       <defs>
        <path id="CMR17-36" d="M 678 2176 
C 678 3690 1395 4032 1811 4032 
C 1946 4032 2272 4009 2400 3776 
C 2298 3776 2106 3776 2106 3553 
C 2106 3381 2246 3323 2336 3323 
C 2394 3323 2566 3348 2566 3560 
C 2566 3954 2246 4179 1805 4179 
C 1043 4179 243 3390 243 1984 
C 243 253 966 -128 1478 -128 
C 2099 -128 2688 427 2688 1283 
C 2688 2081 2170 2662 1517 2662 
C 1126 2662 838 2407 678 1960 
L 678 2176 
z
M 1478 25 
C 691 25 691 1200 691 1436 
C 691 1896 909 2560 1504 2560 
C 1613 2560 1926 2560 2138 2120 
C 2253 1870 2253 1609 2253 1289 
C 2253 944 2253 690 2118 434 
C 1978 171 1773 25 1478 25 
z
" transform="scale(0.015625)"/>
       </defs>
       <use xlink:href="#CMR17-31" transform="scale(0.996264)"/>
       <use xlink:href="#CMR17-30" transform="translate(45.690477 0) scale(0.996264)"/>
       <use xlink:href="#CMR17-36" transform="translate(91.380954 36.153639) scale(0.697382)"/>
      </g>
     </g>
    </g>
    <g id="ytick_7">
     <g id="line2d_57">
      <g>
       <use xlink:href="#mda986b169a" x="40.986177" y="41.450773" style="stroke: #000000; stroke-width: 0.8"/>
      </g>
     </g>
     <g id="line2d_58">
      <g>
       <use xlink:href="#m8c45ea71cc" x="487.44" y="41.450773" style="stroke: #000000; stroke-width: 0.8"/>
      </g>
     </g>
     <g id="text_11">
      <!-- $\mathdefault{10^{7}}$ -->
      <g transform="translate(22.158904 45.255946) scale(0.11 -0.11)">
       <defs>
        <path id="CMR17-37" d="M 2886 3941 
L 2886 4081 
L 1382 4081 
C 634 4081 621 4165 595 4288 
L 480 4288 
L 294 3094 
L 410 3094 
C 429 3215 474 3540 550 3661 
C 589 3712 1062 3712 1171 3712 
L 2579 3712 
L 1869 2661 
C 1395 1954 1069 999 1069 165 
C 1069 89 1069 -128 1299 -128 
C 1530 -128 1530 89 1530 171 
L 1530 465 
C 1530 1508 1709 2196 2003 2636 
L 2886 3941 
z
" transform="scale(0.015625)"/>
       </defs>
       <use xlink:href="#CMR17-31" transform="scale(0.996264)"/>
       <use xlink:href="#CMR17-30" transform="translate(45.690477 0) scale(0.996264)"/>
       <use xlink:href="#CMR17-37" transform="translate(91.380954 36.153639) scale(0.697382)"/>
      </g>
     </g>
    </g>
    <g id="ytick_8">
     <g id="line2d_59">
      <g>
       <use xlink:href="#mda986b169a" x="40.986177" y="11.005173" style="stroke: #000000; stroke-width: 0.8"/>
      </g>
     </g>
     <g id="line2d_60">
      <g>
       <use xlink:href="#m8c45ea71cc" x="487.44" y="11.005173" style="stroke: #000000; stroke-width: 0.8"/>
      </g>
     </g>
     <g id="text_12">
      <!-- $\mathdefault{10^{8}}$ -->
      <g transform="translate(22.158904 14.810347) scale(0.11 -0.11)">
       <defs>
        <path id="CMR17-38" d="M 1741 2264 
C 2144 2467 2554 2773 2554 3263 
C 2554 3841 1990 4179 1472 4179 
C 890 4179 378 3759 378 3180 
C 378 3021 416 2747 666 2505 
C 730 2442 998 2251 1171 2130 
C 883 1983 211 1634 211 934 
C 211 279 838 -128 1459 -128 
C 2144 -128 2720 362 2720 1010 
C 2720 1590 2330 1857 2074 2029 
L 1741 2264 
z
M 902 2822 
C 851 2854 595 3051 595 3351 
C 595 3739 998 4032 1459 4032 
C 1965 4032 2336 3676 2336 3262 
C 2336 2669 1670 2331 1638 2331 
C 1632 2331 1626 2331 1574 2370 
L 902 2822 
z
M 2080 1519 
C 2176 1449 2483 1240 2483 851 
C 2483 381 2010 25 1472 25 
C 890 25 448 438 448 940 
C 448 1443 838 1862 1280 2060 
L 2080 1519 
z
" transform="scale(0.015625)"/>
       </defs>
       <use xlink:href="#CMR17-31" transform="scale(0.996264)"/>
       <use xlink:href="#CMR17-30" transform="translate(45.690477 0) scale(0.996264)"/>
       <use xlink:href="#CMR17-38" transform="translate(91.380954 36.153639) scale(0.697382)"/>
      </g>
     </g>
    </g>
    <g id="ytick_9">
     <g id="line2d_61">
      <defs>
       <path id="m11e6c9f106" d="M 0 0 
L 3 0 
" style="stroke: #000000; stroke-width: 0.6"/>
      </defs>
      <g>
       <use xlink:href="#m11e6c9f106" x="40.986177" y="240.043727" style="stroke: #000000; stroke-width: 0.6"/>
      </g>
     </g>
     <g id="line2d_62">
      <defs>
       <path id="m3843dd3087" d="M 0 0 
L -3 0 
" style="stroke: #000000; stroke-width: 0.6"/>
      </defs>
      <g>
       <use xlink:href="#m3843dd3087" x="487.44" y="240.043727" style="stroke: #000000; stroke-width: 0.6"/>
      </g>
     </g>
    </g>
    <g id="ytick_10">
     <g id="line2d_63">
      <g>
       <use xlink:href="#m11e6c9f106" x="40.986177" y="236.239892" style="stroke: #000000; stroke-width: 0.6"/>
      </g>
     </g>
     <g id="line2d_64">
      <g>
       <use xlink:href="#m3843dd3087" x="487.44" y="236.239892" style="stroke: #000000; stroke-width: 0.6"/>
      </g>
     </g>
    </g>
    <g id="ytick_11">
     <g id="line2d_65">
      <g>
       <use xlink:href="#m11e6c9f106" x="40.986177" y="233.289408" style="stroke: #000000; stroke-width: 0.6"/>
      </g>
     </g>
     <g id="line2d_66">
      <g>
       <use xlink:href="#m3843dd3087" x="487.44" y="233.289408" style="stroke: #000000; stroke-width: 0.6"/>
      </g>
     </g>
    </g>
    <g id="ytick_12">
     <g id="line2d_67">
      <g>
       <use xlink:href="#m11e6c9f106" x="40.986177" y="230.878688" style="stroke: #000000; stroke-width: 0.6"/>
      </g>
     </g>
     <g id="line2d_68">
      <g>
       <use xlink:href="#m3843dd3087" x="487.44" y="230.878688" style="stroke: #000000; stroke-width: 0.6"/>
      </g>
     </g>
    </g>
    <g id="ytick_13">
     <g id="line2d_69">
      <g>
       <use xlink:href="#m11e6c9f106" x="40.986177" y="228.840453" style="stroke: #000000; stroke-width: 0.6"/>
      </g>
     </g>
     <g id="line2d_70">
      <g>
       <use xlink:href="#m3843dd3087" x="487.44" y="228.840453" style="stroke: #000000; stroke-width: 0.6"/>
      </g>
     </g>
    </g>
    <g id="ytick_14">
     <g id="line2d_71">
      <g>
       <use xlink:href="#m11e6c9f106" x="40.986177" y="227.074853" style="stroke: #000000; stroke-width: 0.6"/>
      </g>
     </g>
     <g id="line2d_72">
      <g>
       <use xlink:href="#m3843dd3087" x="487.44" y="227.074853" style="stroke: #000000; stroke-width: 0.6"/>
      </g>
     </g>
    </g>
    <g id="ytick_15">
     <g id="line2d_73">
      <g>
       <use xlink:href="#m11e6c9f106" x="40.986177" y="225.517484" style="stroke: #000000; stroke-width: 0.6"/>
      </g>
     </g>
     <g id="line2d_74">
      <g>
       <use xlink:href="#m3843dd3087" x="487.44" y="225.517484" style="stroke: #000000; stroke-width: 0.6"/>
      </g>
     </g>
    </g>
    <g id="ytick_16">
     <g id="line2d_75">
      <g>
       <use xlink:href="#m11e6c9f106" x="40.986177" y="214.959331" style="stroke: #000000; stroke-width: 0.6"/>
      </g>
     </g>
     <g id="line2d_76">
      <g>
       <use xlink:href="#m3843dd3087" x="487.44" y="214.959331" style="stroke: #000000; stroke-width: 0.6"/>
      </g>
     </g>
    </g>
    <g id="ytick_17">
     <g id="line2d_77">
      <g>
       <use xlink:href="#m11e6c9f106" x="40.986177" y="209.598127" style="stroke: #000000; stroke-width: 0.6"/>
      </g>
     </g>
     <g id="line2d_78">
      <g>
       <use xlink:href="#m3843dd3087" x="487.44" y="209.598127" style="stroke: #000000; stroke-width: 0.6"/>
      </g>
     </g>
    </g>
    <g id="ytick_18">
     <g id="line2d_79">
      <g>
       <use xlink:href="#m11e6c9f106" x="40.986177" y="205.794292" style="stroke: #000000; stroke-width: 0.6"/>
      </g>
     </g>
     <g id="line2d_80">
      <g>
       <use xlink:href="#m3843dd3087" x="487.44" y="205.794292" style="stroke: #000000; stroke-width: 0.6"/>
      </g>
     </g>
    </g>
    <g id="ytick_19">
     <g id="line2d_81">
      <g>
       <use xlink:href="#m11e6c9f106" x="40.986177" y="202.843809" style="stroke: #000000; stroke-width: 0.6"/>
      </g>
     </g>
     <g id="line2d_82">
      <g>
       <use xlink:href="#m3843dd3087" x="487.44" y="202.843809" style="stroke: #000000; stroke-width: 0.6"/>
      </g>
     </g>
    </g>
    <g id="ytick_20">
     <g id="line2d_83">
      <g>
       <use xlink:href="#m11e6c9f106" x="40.986177" y="200.433088" style="stroke: #000000; stroke-width: 0.6"/>
      </g>
     </g>
     <g id="line2d_84">
      <g>
       <use xlink:href="#m3843dd3087" x="487.44" y="200.433088" style="stroke: #000000; stroke-width: 0.6"/>
      </g>
     </g>
    </g>
    <g id="ytick_21">
     <g id="line2d_85">
      <g>
       <use xlink:href="#m11e6c9f106" x="40.986177" y="198.394853" style="stroke: #000000; stroke-width: 0.6"/>
      </g>
     </g>
     <g id="line2d_86">
      <g>
       <use xlink:href="#m3843dd3087" x="487.44" y="198.394853" style="stroke: #000000; stroke-width: 0.6"/>
      </g>
     </g>
    </g>
    <g id="ytick_22">
     <g id="line2d_87">
      <g>
       <use xlink:href="#m11e6c9f106" x="40.986177" y="196.629254" style="stroke: #000000; stroke-width: 0.6"/>
      </g>
     </g>
     <g id="line2d_88">
      <g>
       <use xlink:href="#m3843dd3087" x="487.44" y="196.629254" style="stroke: #000000; stroke-width: 0.6"/>
      </g>
     </g>
    </g>
    <g id="ytick_23">
     <g id="line2d_89">
      <g>
       <use xlink:href="#m11e6c9f106" x="40.986177" y="195.071885" style="stroke: #000000; stroke-width: 0.6"/>
      </g>
     </g>
     <g id="line2d_90">
      <g>
       <use xlink:href="#m3843dd3087" x="487.44" y="195.071885" style="stroke: #000000; stroke-width: 0.6"/>
      </g>
     </g>
    </g>
    <g id="ytick_24">
     <g id="line2d_91">
      <g>
       <use xlink:href="#m11e6c9f106" x="40.986177" y="184.513732" style="stroke: #000000; stroke-width: 0.6"/>
      </g>
     </g>
     <g id="line2d_92">
      <g>
       <use xlink:href="#m3843dd3087" x="487.44" y="184.513732" style="stroke: #000000; stroke-width: 0.6"/>
      </g>
     </g>
    </g>
    <g id="ytick_25">
     <g id="line2d_93">
      <g>
       <use xlink:href="#m11e6c9f106" x="40.986177" y="179.152528" style="stroke: #000000; stroke-width: 0.6"/>
      </g>
     </g>
     <g id="line2d_94">
      <g>
       <use xlink:href="#m3843dd3087" x="487.44" y="179.152528" style="stroke: #000000; stroke-width: 0.6"/>
      </g>
     </g>
    </g>
    <g id="ytick_26">
     <g id="line2d_95">
      <g>
       <use xlink:href="#m11e6c9f106" x="40.986177" y="175.348693" style="stroke: #000000; stroke-width: 0.6"/>
      </g>
     </g>
     <g id="line2d_96">
      <g>
       <use xlink:href="#m3843dd3087" x="487.44" y="175.348693" style="stroke: #000000; stroke-width: 0.6"/>
      </g>
     </g>
    </g>
    <g id="ytick_27">
     <g id="line2d_97">
      <g>
       <use xlink:href="#m11e6c9f106" x="40.986177" y="172.398209" style="stroke: #000000; stroke-width: 0.6"/>
      </g>
     </g>
     <g id="line2d_98">
      <g>
       <use xlink:href="#m3843dd3087" x="487.44" y="172.398209" style="stroke: #000000; stroke-width: 0.6"/>
      </g>
     </g>
    </g>
    <g id="ytick_28">
     <g id="line2d_99">
      <g>
       <use xlink:href="#m11e6c9f106" x="40.986177" y="169.987489" style="stroke: #000000; stroke-width: 0.6"/>
      </g>
     </g>
     <g id="line2d_100">
      <g>
       <use xlink:href="#m3843dd3087" x="487.44" y="169.987489" style="stroke: #000000; stroke-width: 0.6"/>
      </g>
     </g>
    </g>
    <g id="ytick_29">
     <g id="line2d_101">
      <g>
       <use xlink:href="#m11e6c9f106" x="40.986177" y="167.949254" style="stroke: #000000; stroke-width: 0.6"/>
      </g>
     </g>
     <g id="line2d_102">
      <g>
       <use xlink:href="#m3843dd3087" x="487.44" y="167.949254" style="stroke: #000000; stroke-width: 0.6"/>
      </g>
     </g>
    </g>
    <g id="ytick_30">
     <g id="line2d_103">
      <g>
       <use xlink:href="#m11e6c9f106" x="40.986177" y="166.183654" style="stroke: #000000; stroke-width: 0.6"/>
      </g>
     </g>
     <g id="line2d_104">
      <g>
       <use xlink:href="#m3843dd3087" x="487.44" y="166.183654" style="stroke: #000000; stroke-width: 0.6"/>
      </g>
     </g>
    </g>
    <g id="ytick_31">
     <g id="line2d_105">
      <g>
       <use xlink:href="#m11e6c9f106" x="40.986177" y="164.626285" style="stroke: #000000; stroke-width: 0.6"/>
      </g>
     </g>
     <g id="line2d_106">
      <g>
       <use xlink:href="#m3843dd3087" x="487.44" y="164.626285" style="stroke: #000000; stroke-width: 0.6"/>
      </g>
     </g>
    </g>
    <g id="ytick_32">
     <g id="line2d_107">
      <g>
       <use xlink:href="#m11e6c9f106" x="40.986177" y="154.068132" style="stroke: #000000; stroke-width: 0.6"/>
      </g>
     </g>
     <g id="line2d_108">
      <g>
       <use xlink:href="#m3843dd3087" x="487.44" y="154.068132" style="stroke: #000000; stroke-width: 0.6"/>
      </g>
     </g>
    </g>
    <g id="ytick_33">
     <g id="line2d_109">
      <g>
       <use xlink:href="#m11e6c9f106" x="40.986177" y="148.706928" style="stroke: #000000; stroke-width: 0.6"/>
      </g>
     </g>
     <g id="line2d_110">
      <g>
       <use xlink:href="#m3843dd3087" x="487.44" y="148.706928" style="stroke: #000000; stroke-width: 0.6"/>
      </g>
     </g>
    </g>
    <g id="ytick_34">
     <g id="line2d_111">
      <g>
       <use xlink:href="#m11e6c9f106" x="40.986177" y="144.903093" style="stroke: #000000; stroke-width: 0.6"/>
      </g>
     </g>
     <g id="line2d_112">
      <g>
       <use xlink:href="#m3843dd3087" x="487.44" y="144.903093" style="stroke: #000000; stroke-width: 0.6"/>
      </g>
     </g>
    </g>
    <g id="ytick_35">
     <g id="line2d_113">
      <g>
       <use xlink:href="#m11e6c9f106" x="40.986177" y="141.95261" style="stroke: #000000; stroke-width: 0.6"/>
      </g>
     </g>
     <g id="line2d_114">
      <g>
       <use xlink:href="#m3843dd3087" x="487.44" y="141.95261" style="stroke: #000000; stroke-width: 0.6"/>
      </g>
     </g>
    </g>
    <g id="ytick_36">
     <g id="line2d_115">
      <g>
       <use xlink:href="#m11e6c9f106" x="40.986177" y="139.541889" style="stroke: #000000; stroke-width: 0.6"/>
      </g>
     </g>
     <g id="line2d_116">
      <g>
       <use xlink:href="#m3843dd3087" x="487.44" y="139.541889" style="stroke: #000000; stroke-width: 0.6"/>
      </g>
     </g>
    </g>
    <g id="ytick_37">
     <g id="line2d_117">
      <g>
       <use xlink:href="#m11e6c9f106" x="40.986177" y="137.503654" style="stroke: #000000; stroke-width: 0.6"/>
      </g>
     </g>
     <g id="line2d_118">
      <g>
       <use xlink:href="#m3843dd3087" x="487.44" y="137.503654" style="stroke: #000000; stroke-width: 0.6"/>
      </g>
     </g>
    </g>
    <g id="ytick_38">
     <g id="line2d_119">
      <g>
       <use xlink:href="#m11e6c9f106" x="40.986177" y="135.738055" style="stroke: #000000; stroke-width: 0.6"/>
      </g>
     </g>
     <g id="line2d_120">
      <g>
       <use xlink:href="#m3843dd3087" x="487.44" y="135.738055" style="stroke: #000000; stroke-width: 0.6"/>
      </g>
     </g>
    </g>
    <g id="ytick_39">
     <g id="line2d_121">
      <g>
       <use xlink:href="#m11e6c9f106" x="40.986177" y="134.180686" style="stroke: #000000; stroke-width: 0.6"/>
      </g>
     </g>
     <g id="line2d_122">
      <g>
       <use xlink:href="#m3843dd3087" x="487.44" y="134.180686" style="stroke: #000000; stroke-width: 0.6"/>
      </g>
     </g>
    </g>
    <g id="ytick_40">
     <g id="line2d_123">
      <g>
       <use xlink:href="#m11e6c9f106" x="40.986177" y="123.622533" style="stroke: #000000; stroke-width: 0.6"/>
      </g>
     </g>
     <g id="line2d_124">
      <g>
       <use xlink:href="#m3843dd3087" x="487.44" y="123.622533" style="stroke: #000000; stroke-width: 0.6"/>
      </g>
     </g>
    </g>
    <g id="ytick_41">
     <g id="line2d_125">
      <g>
       <use xlink:href="#m11e6c9f106" x="40.986177" y="118.261329" style="stroke: #000000; stroke-width: 0.6"/>
      </g>
     </g>
     <g id="line2d_126">
      <g>
       <use xlink:href="#m3843dd3087" x="487.44" y="118.261329" style="stroke: #000000; stroke-width: 0.6"/>
      </g>
     </g>
    </g>
    <g id="ytick_42">
     <g id="line2d_127">
      <g>
       <use xlink:href="#m11e6c9f106" x="40.986177" y="114.457494" style="stroke: #000000; stroke-width: 0.6"/>
      </g>
     </g>
     <g id="line2d_128">
      <g>
       <use xlink:href="#m3843dd3087" x="487.44" y="114.457494" style="stroke: #000000; stroke-width: 0.6"/>
      </g>
     </g>
    </g>
    <g id="ytick_43">
     <g id="line2d_129">
      <g>
       <use xlink:href="#m11e6c9f106" x="40.986177" y="111.507011" style="stroke: #000000; stroke-width: 0.6"/>
      </g>
     </g>
     <g id="line2d_130">
      <g>
       <use xlink:href="#m3843dd3087" x="487.44" y="111.507011" style="stroke: #000000; stroke-width: 0.6"/>
      </g>
     </g>
    </g>
    <g id="ytick_44">
     <g id="line2d_131">
      <g>
       <use xlink:href="#m11e6c9f106" x="40.986177" y="109.09629" style="stroke: #000000; stroke-width: 0.6"/>
      </g>
     </g>
     <g id="line2d_132">
      <g>
       <use xlink:href="#m3843dd3087" x="487.44" y="109.09629" style="stroke: #000000; stroke-width: 0.6"/>
      </g>
     </g>
    </g>
    <g id="ytick_45">
     <g id="line2d_133">
      <g>
       <use xlink:href="#m11e6c9f106" x="40.986177" y="107.058055" style="stroke: #000000; stroke-width: 0.6"/>
      </g>
     </g>
     <g id="line2d_134">
      <g>
       <use xlink:href="#m3843dd3087" x="487.44" y="107.058055" style="stroke: #000000; stroke-width: 0.6"/>
      </g>
     </g>
    </g>
    <g id="ytick_46">
     <g id="line2d_135">
      <g>
       <use xlink:href="#m11e6c9f106" x="40.986177" y="105.292455" style="stroke: #000000; stroke-width: 0.6"/>
      </g>
     </g>
     <g id="line2d_136">
      <g>
       <use xlink:href="#m3843dd3087" x="487.44" y="105.292455" style="stroke: #000000; stroke-width: 0.6"/>
      </g>
     </g>
    </g>
    <g id="ytick_47">
     <g id="line2d_137">
      <g>
       <use xlink:href="#m11e6c9f106" x="40.986177" y="103.735086" style="stroke: #000000; stroke-width: 0.6"/>
      </g>
     </g>
     <g id="line2d_138">
      <g>
       <use xlink:href="#m3843dd3087" x="487.44" y="103.735086" style="stroke: #000000; stroke-width: 0.6"/>
      </g>
     </g>
    </g>
    <g id="ytick_48">
     <g id="line2d_139">
      <g>
       <use xlink:href="#m11e6c9f106" x="40.986177" y="93.176933" style="stroke: #000000; stroke-width: 0.6"/>
      </g>
     </g>
     <g id="line2d_140">
      <g>
       <use xlink:href="#m3843dd3087" x="487.44" y="93.176933" style="stroke: #000000; stroke-width: 0.6"/>
      </g>
     </g>
    </g>
    <g id="ytick_49">
     <g id="line2d_141">
      <g>
       <use xlink:href="#m11e6c9f106" x="40.986177" y="87.815729" style="stroke: #000000; stroke-width: 0.6"/>
      </g>
     </g>
     <g id="line2d_142">
      <g>
       <use xlink:href="#m3843dd3087" x="487.44" y="87.815729" style="stroke: #000000; stroke-width: 0.6"/>
      </g>
     </g>
    </g>
    <g id="ytick_50">
     <g id="line2d_143">
      <g>
       <use xlink:href="#m11e6c9f106" x="40.986177" y="84.011894" style="stroke: #000000; stroke-width: 0.6"/>
      </g>
     </g>
     <g id="line2d_144">
      <g>
       <use xlink:href="#m3843dd3087" x="487.44" y="84.011894" style="stroke: #000000; stroke-width: 0.6"/>
      </g>
     </g>
    </g>
    <g id="ytick_51">
     <g id="line2d_145">
      <g>
       <use xlink:href="#m11e6c9f106" x="40.986177" y="81.061411" style="stroke: #000000; stroke-width: 0.6"/>
      </g>
     </g>
     <g id="line2d_146">
      <g>
       <use xlink:href="#m3843dd3087" x="487.44" y="81.061411" style="stroke: #000000; stroke-width: 0.6"/>
      </g>
     </g>
    </g>
    <g id="ytick_52">
     <g id="line2d_147">
      <g>
       <use xlink:href="#m11e6c9f106" x="40.986177" y="78.650691" style="stroke: #000000; stroke-width: 0.6"/>
      </g>
     </g>
     <g id="line2d_148">
      <g>
       <use xlink:href="#m3843dd3087" x="487.44" y="78.650691" style="stroke: #000000; stroke-width: 0.6"/>
      </g>
     </g>
    </g>
    <g id="ytick_53">
     <g id="line2d_149">
      <g>
       <use xlink:href="#m11e6c9f106" x="40.986177" y="76.612455" style="stroke: #000000; stroke-width: 0.6"/>
      </g>
     </g>
     <g id="line2d_150">
      <g>
       <use xlink:href="#m3843dd3087" x="487.44" y="76.612455" style="stroke: #000000; stroke-width: 0.6"/>
      </g>
     </g>
    </g>
    <g id="ytick_54">
     <g id="line2d_151">
      <g>
       <use xlink:href="#m11e6c9f106" x="40.986177" y="74.846856" style="stroke: #000000; stroke-width: 0.6"/>
      </g>
     </g>
     <g id="line2d_152">
      <g>
       <use xlink:href="#m3843dd3087" x="487.44" y="74.846856" style="stroke: #000000; stroke-width: 0.6"/>
      </g>
     </g>
    </g>
    <g id="ytick_55">
     <g id="line2d_153">
      <g>
       <use xlink:href="#m11e6c9f106" x="40.986177" y="73.289487" style="stroke: #000000; stroke-width: 0.6"/>
      </g>
     </g>
     <g id="line2d_154">
      <g>
       <use xlink:href="#m3843dd3087" x="487.44" y="73.289487" style="stroke: #000000; stroke-width: 0.6"/>
      </g>
     </g>
    </g>
    <g id="ytick_56">
     <g id="line2d_155">
      <g>
       <use xlink:href="#m11e6c9f106" x="40.986177" y="62.731334" style="stroke: #000000; stroke-width: 0.6"/>
      </g>
     </g>
     <g id="line2d_156">
      <g>
       <use xlink:href="#m3843dd3087" x="487.44" y="62.731334" style="stroke: #000000; stroke-width: 0.6"/>
      </g>
     </g>
    </g>
    <g id="ytick_57">
     <g id="line2d_157">
      <g>
       <use xlink:href="#m11e6c9f106" x="40.986177" y="57.37013" style="stroke: #000000; stroke-width: 0.6"/>
      </g>
     </g>
     <g id="line2d_158">
      <g>
       <use xlink:href="#m3843dd3087" x="487.44" y="57.37013" style="stroke: #000000; stroke-width: 0.6"/>
      </g>
     </g>
    </g>
    <g id="ytick_58">
     <g id="line2d_159">
      <g>
       <use xlink:href="#m11e6c9f106" x="40.986177" y="53.566295" style="stroke: #000000; stroke-width: 0.6"/>
      </g>
     </g>
     <g id="line2d_160">
      <g>
       <use xlink:href="#m3843dd3087" x="487.44" y="53.566295" style="stroke: #000000; stroke-width: 0.6"/>
      </g>
     </g>
    </g>
    <g id="ytick_59">
     <g id="line2d_161">
      <g>
       <use xlink:href="#m11e6c9f106" x="40.986177" y="50.615812" style="stroke: #000000; stroke-width: 0.6"/>
      </g>
     </g>
     <g id="line2d_162">
      <g>
       <use xlink:href="#m3843dd3087" x="487.44" y="50.615812" style="stroke: #000000; stroke-width: 0.6"/>
      </g>
     </g>
    </g>
    <g id="ytick_60">
     <g id="line2d_163">
      <g>
       <use xlink:href="#m11e6c9f106" x="40.986177" y="48.205091" style="stroke: #000000; stroke-width: 0.6"/>
      </g>
     </g>
     <g id="line2d_164">
      <g>
       <use xlink:href="#m3843dd3087" x="487.44" y="48.205091" style="stroke: #000000; stroke-width: 0.6"/>
      </g>
     </g>
    </g>
    <g id="ytick_61">
     <g id="line2d_165">
      <g>
       <use xlink:href="#m11e6c9f106" x="40.986177" y="46.166856" style="stroke: #000000; stroke-width: 0.6"/>
      </g>
     </g>
     <g id="line2d_166">
      <g>
       <use xlink:href="#m3843dd3087" x="487.44" y="46.166856" style="stroke: #000000; stroke-width: 0.6"/>
      </g>
     </g>
    </g>
    <g id="ytick_62">
     <g id="line2d_167">
      <g>
       <use xlink:href="#m11e6c9f106" x="40.986177" y="44.401256" style="stroke: #000000; stroke-width: 0.6"/>
      </g>
     </g>
     <g id="line2d_168">
      <g>
       <use xlink:href="#m3843dd3087" x="487.44" y="44.401256" style="stroke: #000000; stroke-width: 0.6"/>
      </g>
     </g>
    </g>
    <g id="ytick_63">
     <g id="line2d_169">
      <g>
       <use xlink:href="#m11e6c9f106" x="40.986177" y="42.843887" style="stroke: #000000; stroke-width: 0.6"/>
      </g>
     </g>
     <g id="line2d_170">
      <g>
       <use xlink:href="#m3843dd3087" x="487.44" y="42.843887" style="stroke: #000000; stroke-width: 0.6"/>
      </g>
     </g>
    </g>
    <g id="ytick_64">
     <g id="line2d_171">
      <g>
       <use xlink:href="#m11e6c9f106" x="40.986177" y="32.285734" style="stroke: #000000; stroke-width: 0.6"/>
      </g>
     </g>
     <g id="line2d_172">
      <g>
       <use xlink:href="#m3843dd3087" x="487.44" y="32.285734" style="stroke: #000000; stroke-width: 0.6"/>
      </g>
     </g>
    </g>
    <g id="ytick_65">
     <g id="line2d_173">
      <g>
       <use xlink:href="#m11e6c9f106" x="40.986177" y="26.92453" style="stroke: #000000; stroke-width: 0.6"/>
      </g>
     </g>
     <g id="line2d_174">
      <g>
       <use xlink:href="#m3843dd3087" x="487.44" y="26.92453" style="stroke: #000000; stroke-width: 0.6"/>
      </g>
     </g>
    </g>
    <g id="ytick_66">
     <g id="line2d_175">
      <g>
       <use xlink:href="#m11e6c9f106" x="40.986177" y="23.120695" style="stroke: #000000; stroke-width: 0.6"/>
      </g>
     </g>
     <g id="line2d_176">
      <g>
       <use xlink:href="#m3843dd3087" x="487.44" y="23.120695" style="stroke: #000000; stroke-width: 0.6"/>
      </g>
     </g>
    </g>
    <g id="ytick_67">
     <g id="line2d_177">
      <g>
       <use xlink:href="#m11e6c9f106" x="40.986177" y="20.170212" style="stroke: #000000; stroke-width: 0.6"/>
      </g>
     </g>
     <g id="line2d_178">
      <g>
       <use xlink:href="#m3843dd3087" x="487.44" y="20.170212" style="stroke: #000000; stroke-width: 0.6"/>
      </g>
     </g>
    </g>
    <g id="ytick_68">
     <g id="line2d_179">
      <g>
       <use xlink:href="#m11e6c9f106" x="40.986177" y="17.759492" style="stroke: #000000; stroke-width: 0.6"/>
      </g>
     </g>
     <g id="line2d_180">
      <g>
       <use xlink:href="#m3843dd3087" x="487.44" y="17.759492" style="stroke: #000000; stroke-width: 0.6"/>
      </g>
     </g>
    </g>
    <g id="ytick_69">
     <g id="line2d_181">
      <g>
       <use xlink:href="#m11e6c9f106" x="40.986177" y="15.721256" style="stroke: #000000; stroke-width: 0.6"/>
      </g>
     </g>
     <g id="line2d_182">
      <g>
       <use xlink:href="#m3843dd3087" x="487.44" y="15.721256" style="stroke: #000000; stroke-width: 0.6"/>
      </g>
     </g>
    </g>
    <g id="ytick_70">
     <g id="line2d_183">
      <g>
       <use xlink:href="#m11e6c9f106" x="40.986177" y="13.955657" style="stroke: #000000; stroke-width: 0.6"/>
      </g>
     </g>
     <g id="line2d_184">
      <g>
       <use xlink:href="#m3843dd3087" x="487.44" y="13.955657" style="stroke: #000000; stroke-width: 0.6"/>
      </g>
     </g>
    </g>
    <g id="ytick_71">
     <g id="line2d_185">
      <g>
       <use xlink:href="#m11e6c9f106" x="40.986177" y="12.398288" style="stroke: #000000; stroke-width: 0.6"/>
      </g>
     </g>
     <g id="line2d_186">
      <g>
       <use xlink:href="#m3843dd3087" x="487.44" y="12.398288" style="stroke: #000000; stroke-width: 0.6"/>
      </g>
     </g>
    </g>
    <g id="text_13">
     <!-- $P(k)$ -->
     <g transform="translate(15.419178 139.248777) rotate(-90) scale(0.11 -0.11)">
      <defs>
       <path id="CMMI12-50" d="M 1894 2023 
L 2970 2023 
C 3853 2023 4736 2673 4736 3401 
C 4736 3898 4314 4352 3507 4352 
L 1530 4352 
C 1408 4352 1350 4352 1350 4231 
C 1350 4167 1408 4167 1504 4167 
C 1894 4167 1894 4116 1894 4046 
C 1894 4034 1894 3995 1869 3899 
L 1005 472 
C 947 249 934 185 486 185 
C 365 185 301 185 301 70 
C 301 0 358 0 397 0 
C 518 0 646 0 768 0 
L 1517 0 
C 1638 0 1773 0 1894 0 
C 1946 0 2016 0 2016 121 
C 2016 185 1958 185 1862 185 
C 1478 185 1472 230 1472 293 
C 1472 325 1478 369 1485 401 
L 1894 2023 
z
M 2355 3930 
C 2413 4167 2438 4167 2688 4167 
L 3322 4167 
C 3802 4167 4198 4013 4198 3535 
C 4198 3369 4115 2827 3821 2534 
C 3712 2419 3405 2176 2822 2176 
L 1920 2176 
L 2355 3930 
z
" transform="scale(0.015625)"/>
       <path id="CMR17-28" d="M 1958 -1561 
C 1958 -1555 1958 -1542 1939 -1523 
C 1645 -1224 858 -407 858 1581 
C 858 3569 1632 4379 1946 4697 
C 1946 4704 1958 4717 1958 4736 
C 1958 4755 1939 4768 1914 4768 
C 1843 4768 1299 4296 986 3594 
C 666 2887 576 2199 576 1588 
C 576 1128 621 351 1005 -471 
C 1312 -1135 1837 -1600 1914 -1600 
C 1946 -1600 1958 -1587 1958 -1561 
z
" transform="scale(0.015625)"/>
       <path id="CMR17-29" d="M 1683 1581 
C 1683 2040 1638 2817 1254 3639 
C 947 4303 422 4768 346 4768 
C 326 4768 301 4761 301 4729 
C 301 4717 307 4710 314 4697 
C 621 4378 1402 3568 1402 1584 
C 1402 -407 627 -1217 314 -1537 
C 307 -1549 301 -1556 301 -1568 
C 301 -1600 326 -1600 346 -1600 
C 416 -1600 960 -1128 1274 -426 
C 1594 281 1683 969 1683 1581 
z
" transform="scale(0.015625)"/>
      </defs>
      <use xlink:href="#CMMI12-50" transform="scale(0.996264)"/>
      <use xlink:href="#CMR17-28" transform="translate(76.425821 0) scale(0.996264)"/>
      <use xlink:href="#CMMI12-6b" transform="translate(111.706589 0) scale(0.996264)"/>
      <use xlink:href="#CMR17-29" transform="translate(165.785789 0) scale(0.996264)"/>
     </g>
    </g>
   </g>
   <g id="line2d_187">
    <path d="M 40.986177 77.780004 
L 85.375205 84.108939 
L 114.61351 106.113927 
L 136.451889 112.452971 
L 153.889497 125.281878 
L 168.405935 142.354183 
L 180.840917 131.312807 
L 191.717173 139.138863 
L 201.382306 139.849234 
L 210.079222 140.780227 
L 217.984363 146.062935 
L 225.229945 157.58216 
L 231.9176 163.685306 
L 238.127144 153.217814 
L 243.9224 161.50933 
L 249.355208 165.797751 
L 254.46825 162.043778 
L 259.297083 164.85611 
L 263.871646 166.905931 
L 268.217384 168.196502 
L 272.356101 171.838356 
L 276.306628 172.866608 
L 280.085338 172.852123 
L 283.706555 176.724561 
L 287.182884 174.393019 
L 290.525474 180.750637 
L 293.744236 179.739986 
L 296.848018 180.910562 
L 299.84475 181.540528 
L 302.741573 179.41707 
L 305.544933 181.625294 
L 308.260674 180.050346 
L 310.894107 184.574621 
L 313.450075 186.046999 
L 315.933005 188.982474 
L 318.346955 186.603461 
L 320.695656 187.889396 
L 322.982542 185.269554 
L 325.210783 189.716915 
L 327.383312 187.493178 
L 329.502847 190.136218 
L 331.571912 190.840115 
L 333.592855 190.62901 
L 335.567864 189.786194 
L 337.498979 192.254084 
L 339.388111 191.846374 
L 341.237045 193.584222 
L 343.047458 194.746308 
L 344.82092 194.393687 
L 346.55891 197.063301 
L 348.262821 195.550137 
L 349.933961 199.41008 
L 351.573569 195.190801 
L 353.182812 197.216772 
L 354.762794 196.989377 
L 356.314561 198.670633 
L 357.839103 199.223079 
L 360.810217 200.71166 
L 362.258528 199.624287 
L 363.683095 202.164745 
L 365.084684 199.412616 
L 366.464025 200.224492 
L 367.821812 201.932176 
L 369.15871 201.784041 
L 370.475351 203.141337 
L 371.77234 206.08616 
L 373.050254 204.150518 
L 374.309648 204.312992 
L 375.551049 205.389307 
L 376.774966 203.39502 
L 377.981883 206.370723 
L 379.172267 206.65487 
L 380.346563 207.623888 
L 381.505202 206.823251 
L 382.648596 204.93908 
L 383.777139 208.189935 
L 384.891214 208.101901 
L 385.991186 209.603229 
L 387.077408 208.19498 
L 388.15022 208.305175 
L 389.209948 208.616249 
L 390.256908 207.677173 
L 391.291404 208.6251 
L 392.313729 207.782221 
L 393.324166 207.520639 
L 394.322989 211.797968 
L 395.310462 208.526857 
L 396.286839 210.844254 
L 398.207284 210.71715 
L 399.151822 210.021137 
L 400.086204 210.518405 
L 401.010645 212.28707 
L 401.925355 211.244434 
L 402.830536 213.842619 
L 403.726386 212.91363 
L 404.613094 211.769995 
L 405.490845 212.3889 
L 406.359819 212.566651 
L 407.220188 213.719368 
L 408.072123 211.016219 
L 408.915786 212.163755 
L 409.751337 213.670587 
L 410.57893 213.505637 
L 411.398716 214.617214 
L 412.21084 214.442734 
L 413.015444 214.876842 
L 413.812667 215.64825 
L 415.3855 214.35352 
L 416.161367 216.158118 
L 416.930369 216.274332 
L 417.692625 216.202013 
L 418.448253 216.870025 
L 419.197367 213.519803 
L 419.940077 215.945694 
L 420.676494 215.933415 
L 421.406722 214.239021 
L 422.130865 214.707923 
L 422.849023 215.030857 
L 423.561294 215.593901 
L 424.267775 217.467422 
L 424.968558 216.308134 
L 425.663735 216.155999 
L 426.353394 218.167214 
L 427.037623 217.193301 
L 427.716507 218.478427 
L 428.390128 217.873665 
L 429.058567 216.941149 
L 429.721903 218.770423 
L 430.380214 219.352314 
L 431.033575 217.646157 
L 431.68206 217.028705 
L 432.325742 218.799544 
L 432.964691 219.196964 
L 433.598976 220.003683 
L 434.228664 218.009484 
L 434.853823 219.054716 
L 435.474515 219.369563 
L 436.090806 220.297501 
L 436.702757 220.51345 
L 437.310428 219.306341 
L 438.513169 221.365966 
L 439.108354 220.334338 
L 439.69949 222.202557 
L 440.286631 219.041096 
L 440.869832 221.132682 
L 441.449145 220.184377 
L 442.024622 221.208877 
L 442.596312 220.316056 
L 443.728532 221.222783 
L 444.289157 221.671544 
L 444.846189 222.94686 
L 445.399673 221.617564 
L 445.949653 223.259979 
L 446.496175 222.421559 
L 447.039281 221.99678 
L 447.579013 221.371751 
L 448.115414 222.336908 
L 448.648523 224.309103 
L 449.178383 222.533979 
L 449.705031 222.569168 
L 450.228506 223.31058 
L 450.748847 222.773145 
L 451.26609 223.374865 
L 451.780273 222.826971 
L 452.291431 223.062161 
L 453.304814 222.966028 
L 453.807108 223.822082 
L 454.306516 223.959727 
L 454.803069 224.497729 
L 455.296801 224.515585 
L 455.787744 222.877135 
L 456.275929 224.44134 
L 456.761386 224.138315 
L 457.244146 223.648813 
L 457.72424 224.253282 
L 458.201695 223.75179 
L 458.676541 223.930367 
L 459.148806 225.979133 
L 459.618519 223.806652 
L 460.085706 225.181648 
L 460.550395 224.514689 
L 461.012613 227.062573 
L 461.472384 224.280207 
L 461.929736 224.518055 
L 462.384693 226.169806 
L 462.837281 225.483558 
L 463.287524 223.742029 
L 463.735445 226.23609 
L 464.18107 225.666199 
L 464.624421 226.349514 
L 465.065522 225.660761 
L 465.941062 225.06243 
L 466.375546 224.8784 
L 466.807869 226.032393 
L 467.238051 228.656411 
L 467.666114 226.326669 
L 468.092079 226.850286 
L 468.515966 226.818673 
L 468.937795 231.742755 
L 469.357586 227.422618 
L 469.775359 226.525532 
L 470.191133 226.356458 
L 470.604928 226.53739 
L 471.016761 227.913014 
L 471.426651 226.412731 
L 471.834618 228.965483 
L 472.240677 225.186177 
L 472.644849 227.81439 
L 473.047148 228.619801 
L 473.447594 226.152287 
L 473.846204 230.149313 
L 474.242993 229.406617 
L 474.637978 226.598539 
L 475.031176 229.059879 
L 475.422603 226.199407 
L 475.812275 230.234912 
L 476.200207 226.892422 
L 476.586415 230.595835 
L 476.970914 228.445791 
L 477.353719 230.087585 
L 477.734845 230.448738 
L 478.114307 226.494906 
L 478.868296 228.13032 
L 479.242851 226.854155 
L 479.615798 227.208473 
L 479.987152 225.237595 
L 480.356925 230.238699 
L 480.725132 227.065396 
L 481.091785 226.761845 
L 481.456897 224.970532 
L 481.820482 230.017145 
L 482.182552 228.636407 
L 482.543119 227.924105 
L 482.902197 229.942706 
L 483.259797 229.39181 
L 483.615931 225.224856 
L 483.970612 227.83888 
L 484.32385 224.969105 
L 484.675659 226.865696 
L 485.026049 227.162913 
L 485.375032 229.314687 
L 485.722619 230.229402 
L 486.068821 225.600705 
L 486.41365 225.488026 
L 486.757115 226.94414 
L 487.099228 244.452868 
L 487.44 220.312208 
L 487.44 220.312208 
" clip-path="url(#p34076feab0)" style="fill: none; stroke: #0000ff; stroke-width: 2.5; stroke-linecap: square"/>
   </g>
   <g id="line2d_188">
    <path d="M 397.252367 210.718626 
L 398.542386 211.010543 
L 399.813535 211.298189 
L 401.066357 211.581688 
L 402.301372 211.861158 
L 403.519081 212.136712 
L 404.719961 212.408457 
L 405.904472 212.676498 
L 407.073053 212.940934 
L 408.226127 213.201862 
L 409.3641 213.459372 
L 410.487364 213.713554 
L 411.596293 213.964492 
L 412.691248 214.212267 
L 413.772578 214.45696 
L 414.840617 214.698645 
L 415.895688 214.937395 
L 416.938102 215.173281 
L 417.96816 215.406372 
L 418.98615 215.636731 
L 419.992353 215.864423 
L 420.987037 216.089509 
L 421.970465 216.312047 
L 422.942887 216.532095 
L 423.904548 216.749708 
L 424.855683 216.964939 
L 425.796519 217.177839 
L 426.727278 217.388459 
L 427.648173 217.596847 
L 428.559411 217.80305 
L 429.461193 218.007113 
L 430.353712 218.209079 
L 431.237157 218.408993 
L 432.111711 218.606894 
L 432.977551 218.802824 
L 433.834848 218.99682 
L 434.68377 219.188922 
L 435.524479 219.379165 
L 436.357133 219.567584 
L 437.181883 219.754216 
L 437.998879 219.939093 
L 438.808265 220.122247 
L 439.610182 220.303712 
L 440.404766 220.483517 
L 441.19215 220.661693 
L 441.972463 220.838269 
L 442.745832 221.013273 
L 443.512378 221.186734 
L 444.272222 221.358678 
L 445.025479 221.529131 
L 445.772262 221.69812 
L 446.512683 221.865668 
L 447.246847 222.031801 
L 447.974861 222.196542 
L 448.696826 222.359915 
L 449.412843 222.521941 
L 450.123007 222.682643 
L 450.827415 222.842043 
L 451.526158 223.00016 
L 452.219328 223.157016 
L 452.907012 223.312631 
L 453.589297 223.467025 
L 454.266266 223.620215 
L 454.938002 223.772221 
L 455.604585 223.923061 
L 456.266094 224.072753 
L 456.922604 224.221314 
L 457.574192 224.368761 
L 458.220931 224.51511 
L 458.862891 224.660378 
L 459.500144 224.804581 
L 460.132758 224.947734 
L 460.760799 225.089853 
L 461.384334 225.230952 
L 462.003426 225.371045 
L 462.618139 225.510148 
L 463.228534 225.648273 
L 463.834671 225.785435 
L 464.436609 225.921646 
L 465.034406 226.056921 
L 465.628119 226.191271 
L 466.217803 226.32471 
L 466.803513 226.457249 
L 467.3853 226.588901 
L 467.963219 226.719678 
L 468.537319 226.84959 
L 469.107652 226.97865 
L 469.674265 227.106868 
L 470.237208 227.234255 
L 470.796527 227.360823 
L 471.35227 227.486581 
L 471.90448 227.61154 
L 472.453204 227.735709 
L 472.998484 227.8591 
L 473.540364 227.981721 
L 474.078886 228.103583 
L 474.614091 228.224693 
L 475.146019 228.345063 
L 475.674712 228.4647 
L 476.200207 228.583613 
" clip-path="url(#p34076feab0)" style="fill: none; stroke-dasharray: 2,3.3; stroke-dashoffset: 0; stroke: #0000ff; stroke-opacity: 0.7; stroke-width: 2"/>
   </g>
   <g id="line2d_189">
    <path d="M 40.986177 59.563803 
L 85.375205 65.876322 
L 114.61351 87.717933 
L 136.451889 94.187403 
L 153.889497 107.080887 
L 168.405935 123.546762 
L 180.840917 113.073158 
L 191.717173 120.845001 
L 201.382306 121.447716 
L 210.079222 122.544026 
L 217.984363 127.804725 
L 225.229945 139.243458 
L 231.9176 145.305016 
L 238.127144 134.92975 
L 243.9224 143.242769 
L 249.355208 147.359739 
L 254.46825 143.778225 
L 259.297083 146.591719 
L 263.871646 148.619798 
L 268.217384 149.963843 
L 272.356101 153.483016 
L 276.306628 154.53272 
L 280.085338 154.569338 
L 283.706555 158.402543 
L 287.182884 156.139459 
L 290.525474 162.378361 
L 293.744236 161.404582 
L 296.848018 162.651256 
L 299.84475 163.260145 
L 302.741573 161.171708 
L 305.544933 163.268281 
L 308.260674 161.88098 
L 310.894107 166.19184 
L 313.450075 167.710409 
L 315.933005 170.657495 
L 318.346955 168.251607 
L 320.695656 169.6324 
L 322.982542 167.046339 
L 325.210783 171.34663 
L 327.383312 169.217069 
L 329.502847 171.81278 
L 331.571912 172.505287 
L 333.592855 172.370425 
L 335.567864 171.542008 
L 337.498979 173.978502 
L 339.388111 173.607959 
L 341.237045 175.21901 
L 343.047458 176.450462 
L 344.82092 176.158438 
L 346.55891 178.717304 
L 348.262821 177.361222 
L 349.933961 181.011868 
L 351.573569 176.90424 
L 353.182812 178.988552 
L 354.762794 178.630786 
L 356.314561 180.364617 
L 357.839103 180.916284 
L 359.337358 181.723623 
L 360.810217 182.350252 
L 362.258528 181.367675 
L 363.683095 183.830698 
L 365.084684 181.153217 
L 366.464025 181.94886 
L 367.821812 183.558264 
L 369.15871 183.554094 
L 370.475351 184.824141 
L 371.77234 187.788965 
L 373.050254 185.94048 
L 374.309648 185.969413 
L 375.551049 187.036497 
L 376.774966 185.146673 
L 377.981883 188.032972 
L 379.172267 188.370079 
L 380.346563 189.27817 
L 381.505202 188.50091 
L 382.648596 186.67443 
L 383.777139 189.889508 
L 384.891214 189.767002 
L 385.991186 191.215932 
L 387.077408 189.922292 
L 388.15022 189.951125 
L 389.209948 190.271241 
L 390.256908 189.42634 
L 391.291404 190.288953 
L 392.313729 189.438694 
L 393.324166 189.362288 
L 394.322989 193.331243 
L 395.310462 190.309106 
L 396.286839 192.541611 
L 397.252367 192.424296 
L 398.207284 192.428652 
L 399.151822 191.767865 
L 400.086204 192.228487 
L 401.010645 193.884643 
L 401.925355 192.956982 
L 402.830536 195.568807 
L 403.726386 194.594187 
L 404.613094 193.450109 
L 405.490845 194.10673 
L 406.359819 194.30408 
L 407.220188 195.383867 
L 408.072123 192.749047 
L 408.915786 193.796163 
L 409.751337 195.337431 
L 410.57893 195.213462 
L 411.398716 196.286623 
L 412.21084 196.132444 
L 413.015444 196.560806 
L 413.812667 197.309902 
L 414.602642 196.592605 
L 415.3855 196.118213 
L 416.161367 197.85765 
L 416.930369 197.978821 
L 417.692625 197.886449 
L 418.448253 198.45971 
L 419.197367 195.254423 
L 419.940077 197.587735 
L 420.676494 197.701646 
L 421.406722 195.981098 
L 422.130865 196.456237 
L 422.849023 196.640085 
L 423.561294 197.303122 
L 424.267775 199.088077 
L 424.968558 198.060069 
L 425.663735 197.952878 
L 426.353394 199.758925 
L 427.037623 198.872217 
L 427.716507 200.210498 
L 428.390128 199.544426 
L 429.058567 198.687738 
L 429.721903 200.400187 
L 430.380214 200.962521 
L 431.033575 199.372403 
L 431.68206 198.770554 
L 432.325742 200.518574 
L 432.964691 200.824976 
L 433.598976 201.650751 
L 434.228664 199.691733 
L 434.853823 200.762243 
L 435.474515 201.088205 
L 436.090806 201.973076 
L 436.702757 202.135322 
L 437.310428 201.035952 
L 437.913879 202.167181 
L 438.513169 202.967171 
L 439.108354 202.014947 
L 439.69949 203.844983 
L 440.286631 200.776778 
L 440.869832 202.814899 
L 441.449145 201.88284 
L 442.024622 202.856318 
L 442.596312 202.037452 
L 444.289157 203.421382 
L 444.846189 204.615357 
L 445.399673 203.294029 
L 445.949653 204.877272 
L 446.496175 204.129439 
L 447.039281 203.721199 
L 447.579013 203.054853 
L 448.115414 204.070065 
L 448.648523 205.944738 
L 449.178383 204.271942 
L 449.705031 204.262769 
L 450.228506 204.957209 
L 450.748847 204.469297 
L 451.26609 205.068253 
L 451.780273 204.582816 
L 452.291431 204.684221 
L 453.304814 204.680453 
L 453.807108 205.508905 
L 454.306516 205.58951 
L 454.803069 206.186073 
L 455.296801 206.20767 
L 455.787744 204.551396 
L 456.275929 206.142152 
L 456.761386 205.855391 
L 457.244146 205.373187 
L 457.72424 205.828589 
L 458.201695 205.4984 
L 458.676541 205.648409 
L 459.148806 207.530615 
L 459.618519 205.575435 
L 460.085706 206.88681 
L 460.550395 206.152549 
L 461.012613 208.707232 
L 461.472384 205.95927 
L 461.929736 206.285624 
L 462.384693 207.820235 
L 462.837281 207.135642 
L 463.287524 205.497606 
L 463.735445 208.012538 
L 464.18107 207.265306 
L 464.624421 208.01211 
L 465.065522 207.318893 
L 465.941062 206.765721 
L 466.375546 206.615391 
L 466.807869 207.748221 
L 467.238051 210.167965 
L 467.666114 208.097668 
L 468.092079 208.45401 
L 468.515966 208.516787 
L 468.937795 213.378486 
L 469.357586 209.126397 
L 469.775359 208.239877 
L 470.191133 208.025662 
L 470.604928 208.256113 
L 471.016761 209.525665 
L 471.426651 208.129521 
L 471.834618 210.4812 
L 472.240677 206.980281 
L 472.644849 209.518005 
L 473.047148 210.118629 
L 473.447594 207.863944 
L 473.846204 211.823608 
L 474.242993 211.105021 
L 474.637978 208.271385 
L 475.031176 210.855878 
L 475.422603 207.830097 
L 475.812275 211.841091 
L 476.200207 208.601815 
L 476.586415 212.311779 
L 476.970914 210.200639 
L 477.353719 211.663481 
L 477.734845 212.033187 
L 478.114307 208.244983 
L 478.868296 209.807584 
L 479.242851 208.581203 
L 479.615798 208.885008 
L 479.987152 207.04545 
L 480.356925 211.843842 
L 480.725132 208.870024 
L 481.091785 208.453174 
L 481.456897 206.779905 
L 481.820482 211.789324 
L 482.543119 209.330294 
L 482.902197 211.763682 
L 483.259797 211.022851 
L 483.615931 207.023429 
L 483.970612 209.54362 
L 484.32385 206.780466 
L 484.675659 208.40126 
L 485.026049 208.749962 
L 485.375032 210.879311 
L 485.722619 211.941974 
L 486.068821 207.668864 
L 486.41365 207.162593 
L 486.757115 208.364744 
L 487.099228 225.48766 
L 487.44 202.134926 
L 487.44 202.134926 
" clip-path="url(#p34076feab0)" style="fill: none; stroke: #ff0000; stroke-width: 2.5; stroke-linecap: square"/>
   </g>
   <g id="line2d_190">
    <path d="M 397.252367 192.412702 
L 398.542386 192.704356 
L 399.813535 192.991743 
L 401.066357 193.274986 
L 402.301372 193.554204 
L 403.519081 193.829509 
L 404.719961 194.10101 
L 405.904472 194.368809 
L 407.073053 194.633007 
L 408.226127 194.893699 
L 409.3641 195.150977 
L 410.487364 195.40493 
L 411.596293 195.655641 
L 412.691248 195.903194 
L 413.772578 196.147666 
L 414.840617 196.389133 
L 415.895688 196.627668 
L 416.938102 196.863341 
L 417.96816 197.096221 
L 418.98615 197.326373 
L 419.992353 197.55386 
L 420.987037 197.778743 
L 421.970465 198.00108 
L 422.942887 198.22093 
L 423.904548 198.438347 
L 424.855683 198.653383 
L 425.796519 198.866092 
L 426.727278 199.076522 
L 427.648173 199.284722 
L 428.559411 199.490739 
L 429.461193 199.694618 
L 430.353712 199.896402 
L 431.237157 200.096136 
L 432.111711 200.293859 
L 432.977551 200.489611 
L 433.834848 200.683433 
L 434.68377 200.875361 
L 435.524479 201.065432 
L 436.357133 201.253682 
L 437.181883 201.440146 
L 437.998879 201.624856 
L 438.808265 201.807845 
L 439.610182 201.989146 
L 440.404766 202.168789 
L 441.19215 202.346805 
L 441.972463 202.523221 
L 442.745832 202.698068 
L 443.512378 202.871372 
L 444.272222 203.043161 
L 445.025479 203.213461 
L 445.772262 203.382297 
L 446.512683 203.549694 
L 447.246847 203.715678 
L 447.974861 203.88027 
L 448.696826 204.043495 
L 449.412843 204.205376 
L 450.123007 204.365933 
L 450.827415 204.525188 
L 451.526158 204.683163 
L 452.219328 204.839878 
L 452.907012 204.995353 
L 453.589297 205.149607 
L 454.266266 205.302659 
L 454.938002 205.454528 
L 455.604585 205.605232 
L 456.266094 205.754789 
L 456.922604 205.903216 
L 457.574192 206.05053 
L 458.220931 206.196747 
L 458.862891 206.341885 
L 459.500144 206.485958 
L 460.132758 206.628982 
L 460.760799 206.770972 
L 461.384334 206.911944 
L 462.003426 207.051911 
L 462.618139 207.190888 
L 463.228534 207.328889 
L 463.834671 207.465927 
L 464.436609 207.602016 
L 465.034406 207.737168 
L 465.628119 207.871398 
L 466.217803 208.004716 
L 466.803513 208.137136 
L 467.3853 208.268669 
L 467.963219 208.399327 
L 468.537319 208.529123 
L 469.107652 208.658066 
L 469.674265 208.786168 
L 470.237208 208.913441 
L 470.796527 209.039894 
L 471.35227 209.165539 
L 471.90448 209.290385 
L 472.453204 209.414443 
L 472.998484 209.537723 
L 473.540364 209.660233 
L 474.078886 209.781985 
L 474.614091 209.902986 
L 475.146019 210.023247 
L 475.674712 210.142776 
L 476.200207 210.261582 
" clip-path="url(#p34076feab0)" style="fill: none; stroke-dasharray: 2,3.3; stroke-dashoffset: 0; stroke: #ff0000; stroke-opacity: 0.7; stroke-width: 2"/>
   </g>
   <g id="line2d_191">
    <path d="M 40.986177 41.684769 
L 85.375205 47.93271 
L 114.61351 69.151137 
L 136.451889 76.108101 
L 153.889497 89.257857 
L 168.405935 103.579065 
L 180.840917 95.096905 
L 191.717173 102.653857 
L 201.382306 102.862125 
L 210.079222 104.581576 
L 217.984363 109.756953 
L 225.229945 120.87875 
L 231.9176 126.78323 
L 238.127144 116.772814 
L 243.9224 125.150403 
L 249.355208 128.639899 
L 254.46825 125.702882 
L 259.297083 128.520902 
L 263.871646 130.465164 
L 268.217384 132.003505 
L 272.356101 135.068819 
L 276.306628 136.193946 
L 280.085338 136.419132 
L 283.706555 140.115323 
L 287.182884 138.097058 
L 290.525474 143.897589 
L 293.744236 143.065979 
L 296.848018 144.602265 
L 299.84475 145.121374 
L 302.741573 143.178168 
L 305.544933 144.850049 
L 308.260674 144.160653 
L 310.894107 147.690592 
L 313.450075 149.365524 
L 315.933005 152.338307 
L 318.346955 149.872362 
L 320.695656 151.540712 
L 322.982542 149.139133 
L 325.210783 152.893127 
L 327.383312 151.089296 
L 329.502847 153.522478 
L 331.571912 154.173981 
L 333.592855 154.298164 
L 335.567864 153.558163 
L 337.498979 155.858623 
L 339.388111 155.622103 
L 341.237045 156.782374 
L 343.047458 158.25072 
L 344.82092 158.187755 
L 346.55891 160.357777 
L 348.262821 159.562802 
L 349.933961 162.438916 
L 351.573569 158.7518 
L 353.182812 161.039266 
L 354.762794 160.212957 
L 356.314561 162.123737 
L 357.839103 162.686119 
L 359.337358 163.496675 
L 360.810217 163.90653 
L 362.258528 163.318409 
L 363.683095 165.482876 
L 365.084684 163.098622 
L 366.464025 163.826175 
L 367.821812 165.093766 
L 369.15871 165.598786 
L 370.475351 166.547183 
L 371.77234 169.593495 
L 373.050254 168.066337 
L 374.309648 167.605348 
L 375.551049 168.644079 
L 376.774966 167.126058 
L 377.981883 169.668431 
L 379.172267 170.207176 
L 380.346563 170.90041 
L 381.505202 170.197269 
L 382.648596 168.597606 
L 383.777139 171.67538 
L 384.891214 171.423646 
L 385.991186 172.685379 
L 387.077408 171.805351 
L 388.15022 171.540065 
L 389.209948 171.901229 
L 390.256908 171.384846 
L 391.291404 171.965444 
L 392.313729 171.075965 
L 393.324166 171.6497 
L 394.322989 174.549409 
L 395.310462 172.414134 
L 396.286839 174.285711 
L 397.252367 174.016707 
L 398.207284 174.256912 
L 399.151822 173.713922 
L 400.086204 174.056054 
L 401.010645 175.322132 
L 401.925355 174.7726 
L 402.830536 177.450058 
L 404.613094 175.182916 
L 405.490845 175.959326 
L 406.359819 176.217112 
L 407.220188 177.039604 
L 408.072123 174.652897 
L 408.915786 175.352903 
L 409.751337 176.985857 
L 410.57893 177.023249 
L 411.398716 177.975376 
L 412.21084 177.875004 
L 413.015444 178.27588 
L 413.812667 178.960237 
L 414.602642 178.074344 
L 415.3855 178.135596 
L 416.161367 179.642645 
L 416.930369 179.768033 
L 417.692625 179.6059 
L 418.448253 179.867041 
L 419.197367 177.179883 
L 419.940077 179.161161 
L 420.676494 179.713081 
L 421.406722 177.93996 
L 422.130865 178.425768 
L 422.849023 178.120438 
L 423.561294 179.109309 
L 424.267775 180.607101 
L 424.968558 180.025237 
L 425.663735 180.097956 
L 426.353394 181.16607 
L 427.037623 180.580218 
L 427.716507 182.100791 
L 428.390128 181.232551 
L 429.058567 180.643827 
L 429.721903 181.918993 
L 430.380214 182.454489 
L 431.033575 181.248473 
L 431.68206 180.700422 
L 432.325742 182.383117 
L 432.964691 182.358046 
L 433.598976 183.216834 
L 434.228664 181.444698 
L 434.853823 182.578974 
L 435.474515 182.925076 
L 436.090806 183.639772 
L 436.702757 183.653238 
L 437.310428 182.933946 
L 437.913879 183.998016 
L 438.513169 184.420667 
L 439.108354 183.715673 
L 439.69949 185.402978 
L 440.286631 182.720524 
L 440.869832 184.532175 
L 441.449145 183.656182 
L 442.024622 184.470127 
L 442.596312 183.898848 
L 443.164266 184.235201 
L 444.289157 185.392633 
L 444.846189 186.273113 
L 445.399673 185.008014 
L 445.949653 186.373982 
L 447.039281 185.593348 
L 447.579013 184.786788 
L 448.115414 185.973741 
L 448.648523 187.493441 
L 449.178383 186.203544 
L 449.705031 186.039404 
L 450.228506 186.543364 
L 450.748847 186.242444 
L 451.26609 186.826761 
L 452.291431 186.210764 
L 453.304814 186.524012 
L 453.807108 187.224152 
L 454.306516 187.148388 
L 454.803069 187.917503 
L 455.296801 187.943856 
L 455.787744 186.276819 
L 456.275929 187.915052 
L 456.761386 187.706763 
L 457.244146 187.224178 
L 457.72424 187.192627 
L 458.201695 187.454496 
L 458.676541 187.477687 
L 459.148806 188.79356 
L 459.618519 187.606034 
L 460.085706 188.66485 
L 460.550395 187.750874 
L 461.012613 190.259717 
L 461.472384 187.675521 
L 461.929736 188.317555 
L 462.384693 189.421792 
L 462.837281 188.757887 
L 463.287524 187.496387 
L 463.735445 190.025246 
L 464.18107 188.728725 
L 464.624421 189.659515 
L 465.065522 188.939636 
L 465.504395 188.825236 
L 465.941062 188.57071 
L 466.375546 188.530926 
L 466.807869 189.587447 
L 467.238051 191.289396 
L 467.666114 190.113991 
L 468.092079 189.907583 
L 468.515966 190.301513 
L 468.937795 194.915991 
L 469.357586 190.919856 
L 469.775359 190.054638 
L 470.191133 189.723513 
L 470.604928 190.092011 
L 471.016761 191.002972 
L 471.426651 189.938267 
L 471.834618 191.636217 
L 472.240677 189.108352 
L 472.644849 191.324988 
L 473.047148 191.216332 
L 473.447594 189.677358 
L 473.846204 193.489517 
L 474.242993 192.876695 
L 474.637978 189.972673 
L 475.031176 192.963849 
L 475.422603 189.377831 
L 475.812275 193.277047 
L 476.200207 190.442015 
L 476.586415 194.125679 
L 476.970914 192.188844 
L 477.353719 193.005127 
L 477.734845 193.364733 
L 478.114307 190.236255 
L 478.868296 191.474498 
L 479.242851 190.469664 
L 479.615798 190.60632 
L 479.987152 189.255597 
L 480.356925 193.319649 
L 480.725132 191.043145 
L 481.091785 190.186806 
L 481.456897 188.994964 
L 481.820482 193.793193 
L 482.543119 190.200071 
L 482.902197 193.93525 
L 483.259797 192.560806 
L 483.615931 189.166761 
L 483.970612 191.326523 
L 484.32385 188.994423 
L 485.026049 190.191981 
L 485.722619 193.664312 
L 486.41365 188.940849 
L 486.757115 189.267137 
L 487.099228 204.514004 
L 487.44 184.389275 
L 487.44 184.389275 
" clip-path="url(#p34076feab0)" style="fill: none; stroke: #008000; stroke-width: 2.5; stroke-linecap: square"/>
   </g>
   <g id="line2d_192">
    <path d="M 397.252367 174.180115 
L 398.542386 174.470746 
L 399.813535 174.757124 
L 401.066357 175.039374 
L 402.301372 175.317613 
L 403.519081 175.591952 
L 404.719961 175.8625 
L 405.904472 176.12936 
L 407.073053 176.392631 
L 408.226127 176.652409 
L 409.3641 176.908785 
L 410.487364 177.161846 
L 411.596293 177.411678 
L 412.691248 177.658362 
L 413.772578 177.901977 
L 414.840617 178.142597 
L 415.895688 178.380295 
L 416.938102 178.615142 
L 417.96816 178.847205 
L 418.98615 179.07655 
L 419.992353 179.303238 
L 420.987037 179.527332 
L 421.970465 179.74889 
L 422.942887 179.967968 
L 423.904548 180.184622 
L 424.855683 180.398905 
L 425.796519 180.610867 
L 426.727278 180.820559 
L 427.648173 181.028029 
L 428.559411 181.233323 
L 429.461193 181.436486 
L 430.353712 181.637563 
L 431.237157 181.836596 
L 432.111711 182.033625 
L 432.977551 182.228692 
L 433.834848 182.421833 
L 434.68377 182.613088 
L 435.524479 182.802493 
L 436.357133 182.990082 
L 437.181883 183.175891 
L 437.998879 183.359954 
L 438.808265 183.542301 
L 439.610182 183.722966 
L 440.404766 183.901979 
L 441.19215 184.07937 
L 441.972463 184.255168 
L 442.745832 184.429401 
L 443.512378 184.602098 
L 444.272222 184.773284 
L 445.025479 184.942986 
L 445.772262 185.11123 
L 446.512683 185.27804 
L 447.246847 185.443441 
L 447.974861 185.607457 
L 448.696826 185.770109 
L 449.412843 185.931421 
L 450.123007 186.091415 
L 450.827415 186.250112 
L 451.526158 186.407533 
L 452.219328 186.563698 
L 452.907012 186.718628 
L 453.589297 186.872341 
L 454.266266 187.024856 
L 454.938002 187.176192 
L 455.604585 187.326368 
L 456.266094 187.4754 
L 456.922604 187.623306 
L 457.574192 187.770103 
L 458.220931 187.915808 
L 458.862891 188.060436 
L 459.500144 188.204004 
L 460.132758 188.346526 
L 460.760799 188.488018 
L 461.384334 188.628495 
L 462.003426 188.767971 
L 462.618139 188.906461 
L 463.228534 189.043978 
L 463.834671 189.180535 
L 464.436609 189.316147 
L 465.034406 189.450825 
L 465.628119 189.584584 
L 466.217803 189.717434 
L 466.803513 189.84939 
L 467.3853 189.980461 
L 467.963219 190.110661 
L 468.537319 190.240001 
L 469.107652 190.368492 
L 469.674265 190.496145 
L 470.237208 190.622972 
L 470.796527 190.748981 
L 471.35227 190.874185 
L 471.90448 190.998594 
L 472.453204 191.122216 
L 472.998484 191.245063 
L 473.540364 191.367144 
L 474.078886 191.488469 
L 474.614091 191.609046 
L 475.146019 191.728885 
L 475.674712 191.847994 
L 476.200207 191.966384 
" clip-path="url(#p34076feab0)" style="fill: none; stroke-dasharray: 2,3.3; stroke-dashoffset: 0; stroke: #008000; stroke-opacity: 0.7; stroke-width: 2"/>
   </g>
   <g id="line2d_193">
    <path d="M 40.986177 10.913 
L 85.375205 15.676412 
L 114.61351 27.660711 
L 136.451889 38.566641 
L 153.889497 57.452234 
L 168.405935 53.75174 
L 180.840917 59.619016 
L 191.717173 62.493315 
L 201.382306 61.802071 
L 210.079222 68.916624 
L 217.984363 72.897478 
L 225.229945 78.191154 
L 231.9176 82.485591 
L 238.127144 80.062254 
L 243.9224 84.716546 
L 249.355208 85.462462 
L 254.46825 89.214243 
L 259.297083 90.974219 
L 263.871646 94.067324 
L 268.217384 92.632655 
L 272.356101 95.021605 
L 276.306628 96.652651 
L 280.085338 96.117942 
L 283.706555 99.989974 
L 287.182884 99.262948 
L 290.525474 101.939022 
L 293.744236 103.824587 
L 296.848018 106.885953 
L 299.84475 107.124187 
L 302.741573 107.732162 
L 305.544933 104.968269 
L 308.260674 107.600387 
L 313.450075 110.073896 
L 318.346955 111.412421 
L 320.695656 109.283034 
L 322.982542 113.392486 
L 325.210783 113.660475 
L 327.383312 113.583957 
L 329.502847 113.721355 
L 331.571912 116.363444 
L 333.592855 115.191628 
L 335.567864 116.134392 
L 337.498979 118.324944 
L 339.388111 117.976804 
L 341.237045 117.409036 
L 343.047458 118.193465 
L 344.82092 120.273997 
L 346.55891 121.453273 
L 348.262821 121.239462 
L 351.573569 121.316841 
L 353.182812 122.505984 
L 354.762794 120.735985 
L 356.314561 122.058195 
L 357.839103 122.856207 
L 359.337358 123.860416 
L 360.810217 122.011886 
L 362.258528 125.531571 
L 363.683095 124.098765 
L 365.084684 124.346371 
L 366.464025 126.747886 
L 367.821812 124.915628 
L 369.15871 126.667407 
L 370.475351 127.045313 
L 371.77234 128.329147 
L 373.050254 130.736189 
L 374.309648 128.898868 
L 375.551049 128.749387 
L 376.774966 128.208297 
L 377.981883 127.119098 
L 379.172267 130.082508 
L 380.346563 130.48775 
L 381.505202 128.76994 
L 382.648596 129.645503 
L 383.777139 131.865543 
L 384.891214 130.772406 
L 385.991186 130.439611 
L 387.077408 131.124031 
L 388.15022 130.92122 
L 389.209948 131.513465 
L 390.256908 131.780989 
L 391.291404 132.188139 
L 392.313729 132.736845 
L 393.324166 132.347948 
L 394.322989 133.997762 
L 395.310462 132.596186 
L 396.286839 132.729156 
L 397.252367 134.08643 
L 398.207284 134.099811 
L 399.151822 135.030353 
L 400.086204 134.007433 
L 401.010645 135.122567 
L 401.925355 134.291447 
L 402.830536 136.030541 
L 403.726386 136.362161 
L 404.613094 136.555689 
L 405.490845 136.195141 
L 406.359819 136.43203 
L 407.220188 135.286613 
L 408.072123 135.978853 
L 408.915786 135.048482 
L 409.751337 135.494759 
L 410.57893 137.405315 
L 411.398716 137.528253 
L 412.21084 137.165637 
L 413.015444 136.315305 
L 413.812667 136.967672 
L 414.602642 138.088965 
L 415.3855 138.413282 
L 416.161367 140.1549 
L 416.930369 138.491806 
L 417.692625 137.887623 
L 418.448253 138.452026 
L 419.197367 140.563734 
L 419.940077 137.508725 
L 420.676494 139.587124 
L 421.406722 138.621091 
L 422.130865 140.36553 
L 422.849023 138.913393 
L 423.561294 138.11598 
L 424.267775 140.801314 
L 424.968558 140.647151 
L 425.663735 141.236468 
L 426.353394 140.134334 
L 427.037623 139.864827 
L 427.716507 141.224079 
L 428.390128 140.072079 
L 429.058567 141.161042 
L 429.721903 141.013505 
L 430.380214 141.419605 
L 431.033575 141.123137 
L 431.68206 141.301022 
L 432.325742 141.598287 
L 432.964691 140.893833 
L 433.598976 141.705392 
L 434.228664 142.093182 
L 434.853823 141.649438 
L 435.474515 142.079821 
L 436.090806 141.220631 
L 436.702757 142.273404 
L 437.310428 142.448384 
L 437.913879 143.912611 
L 438.513169 142.501487 
L 439.108354 142.371981 
L 439.69949 143.694938 
L 440.286631 143.369303 
L 440.869832 144.117928 
L 441.449145 143.463407 
L 442.024622 144.198154 
L 442.596312 143.244781 
L 443.728532 144.015363 
L 444.289157 144.09102 
L 444.846189 145.020209 
L 445.399673 145.295877 
L 445.949653 144.510783 
L 446.496175 145.229472 
L 447.039281 145.325445 
L 447.579013 146.171288 
L 448.115414 145.552157 
L 448.648523 145.939235 
L 449.178383 145.609233 
L 449.705031 146.426204 
L 450.228506 145.714115 
L 450.748847 144.413187 
L 451.26609 146.488347 
L 451.780273 145.166498 
L 452.291431 145.949478 
L 452.7996 145.156424 
L 453.304814 146.446079 
L 453.807108 145.53903 
L 454.306516 145.474254 
L 454.803069 147.331442 
L 455.296801 145.6693 
L 455.787744 146.587643 
L 456.761386 147.186216 
L 457.244146 145.01294 
L 457.72424 146.689179 
L 458.201695 147.255142 
L 459.148806 145.115123 
L 459.618519 147.3674 
L 460.085706 146.827997 
L 460.550395 148.560672 
L 461.012613 147.102802 
L 461.472384 147.218871 
L 462.384693 148.167681 
L 462.837281 147.498804 
L 463.287524 148.042613 
L 463.735445 148.019863 
L 464.18107 146.978917 
L 464.624421 147.009996 
L 465.065522 147.83194 
L 465.504395 148.385576 
L 466.375546 147.925398 
L 466.807869 148.35216 
L 467.666114 148.001893 
L 468.092079 148.370221 
L 468.515966 150.214437 
L 468.937795 149.453824 
L 469.357586 149.99912 
L 469.775359 147.8981 
L 470.191133 148.945203 
L 470.604928 148.576422 
L 471.426651 148.638038 
L 471.834618 149.774473 
L 472.240677 148.108393 
L 472.644849 149.37158 
L 473.047148 147.747725 
L 473.447594 148.911879 
L 473.846204 150.974217 
L 474.242993 150.858101 
L 474.637978 148.872886 
L 475.031176 149.496985 
L 475.422603 148.828753 
L 475.812275 150.598301 
L 476.200207 150.725 
L 476.586415 149.680948 
L 476.970914 149.740481 
L 477.353719 149.197741 
L 478.114307 150.882055 
L 478.492119 150.90878 
L 478.868296 148.554171 
L 479.242851 150.323409 
L 479.615798 150.606584 
L 479.987152 152.406452 
L 480.356925 151.714028 
L 480.725132 150.005549 
L 481.456897 152.086551 
L 481.820482 151.027053 
L 482.182552 148.258993 
L 482.543119 150.958568 
L 482.902197 149.520797 
L 483.259797 151.383338 
L 483.615931 149.337791 
L 483.970612 149.914946 
L 484.32385 152.538704 
L 484.675659 148.911103 
L 485.026049 150.957456 
L 485.375032 144.992383 
L 485.722619 147.113026 
L 486.068821 152.416479 
L 486.41365 148.451643 
L 486.757115 150.679345 
L 487.099228 147.915292 
L 487.44 151.499283 
L 487.44 151.499283 
" clip-path="url(#p34076feab0)" style="fill: none; stroke: #ffa500; stroke-width: 2.5; stroke-linecap: square"/>
   </g>
   <g id="line2d_194">
    <path d="M 397.252367 134.401938 
L 398.542386 134.662587 
L 399.813535 134.919424 
L 401.066357 135.172557 
L 402.301372 135.422092 
L 403.519081 135.668131 
L 404.719961 135.910769 
L 405.904472 136.1501 
L 407.073053 136.386213 
L 408.226127 136.619192 
L 409.3641 136.84912 
L 410.487364 137.076076 
L 411.596293 137.300135 
L 412.691248 137.521372 
L 413.772578 137.739855 
L 414.840617 137.955653 
L 415.895688 138.16883 
L 416.938102 138.379451 
L 417.96816 138.587574 
L 418.98615 138.79326 
L 419.992353 138.996563 
L 420.987037 139.19754 
L 421.970465 139.396242 
L 422.942887 139.59272 
L 423.904548 139.787024 
L 424.855683 139.979202 
L 425.796519 140.169298 
L 426.727278 140.357358 
L 427.648173 140.543426 
L 428.559411 140.727542 
L 429.461193 140.909747 
L 430.353712 141.090081 
L 431.237157 141.268582 
L 432.111711 141.445286 
L 432.977551 141.620229 
L 433.834848 141.793446 
L 434.68377 141.964972 
L 435.524479 142.134837 
L 436.357133 142.303075 
L 437.181883 142.469716 
L 437.998879 142.634791 
L 438.808265 142.798328 
L 439.610182 142.960355 
L 440.404766 143.120901 
L 441.19215 143.279993 
L 441.972463 143.437655 
L 442.745832 143.593915 
L 443.512378 143.748796 
L 444.272222 143.902323 
L 445.025479 144.054519 
L 445.772262 144.205407 
L 446.512683 144.355009 
L 447.246847 144.503347 
L 447.974861 144.650443 
L 448.696826 144.796316 
L 449.412843 144.940988 
L 450.123007 145.084477 
L 450.827415 145.226803 
L 451.526158 145.367984 
L 452.219328 145.508039 
L 452.907012 145.646986 
L 453.589297 145.784842 
L 454.266266 145.921624 
L 454.938002 146.057349 
L 455.604585 146.192032 
L 456.266094 146.32569 
L 456.922604 146.458339 
L 457.574192 146.589992 
L 458.220931 146.720666 
L 458.862891 146.850375 
L 459.500144 146.979132 
L 460.132758 147.106952 
L 460.760799 147.233848 
L 461.384334 147.359833 
L 462.003426 147.484921 
L 462.618139 147.609124 
L 463.228534 147.732455 
L 463.834671 147.854925 
L 464.436609 147.976547 
L 465.034406 148.097332 
L 465.628119 148.217292 
L 466.217803 148.336438 
L 466.803513 148.454781 
L 467.3853 148.572331 
L 467.963219 148.6891 
L 468.537319 148.805097 
L 469.107652 148.920333 
L 469.674265 149.034818 
L 470.237208 149.148561 
L 470.796527 149.261572 
L 471.35227 149.373859 
L 471.90448 149.485434 
L 472.453204 149.596304 
L 472.998484 149.706478 
L 473.540364 149.815965 
L 474.078886 149.924774 
L 474.614091 150.032912 
L 475.146019 150.140388 
L 475.674712 150.247211 
L 476.200207 150.353388 
" clip-path="url(#p34076feab0)" style="fill: none; stroke-dasharray: 2,3.3; stroke-dashoffset: 0; stroke: #ffa500; stroke-opacity: 0.7; stroke-width: 2"/>
   </g>
   <g id="line2d_195">
    <path d="M 40.986177 20.018237 
L 487.44 269.10684 
L 487.44 269.10684 
" clip-path="url(#p34076feab0)" style="fill: none; stroke-dasharray: 14.8,6.4; stroke-dashoffset: 0; stroke: #000000; stroke-width: 4"/>
   </g>
   <g id="patch_3">
    <path d="M 40.986177 244.452868 
L 40.986177 10.913 
" style="fill: none; stroke: #000000; stroke-linejoin: miter; stroke-linecap: square"/>
   </g>
   <g id="patch_4">
    <path d="M 487.44 244.452868 
L 487.44 10.913 
" style="fill: none; stroke: #000000; stroke-linejoin: miter; stroke-linecap: square"/>
   </g>
   <g id="patch_5">
    <path d="M 40.986177 244.452868 
L 487.44 244.452868 
" style="fill: none; stroke: #000000; stroke-linejoin: miter; stroke-linecap: square"/>
   </g>
   <g id="patch_6">
    <path d="M 40.986177 10.913 
L 487.44 10.913 
" style="fill: none; stroke: #000000; stroke-linejoin: miter; stroke-linecap: square"/>
   </g>
   <g id="legend_1">
    <g id="line2d_196">
     <path d="M 50.886177 105.924816 
L 61.886177 105.924816 
L 72.886177 105.924816 
" style="fill: none; stroke: #0000ff; stroke-width: 2.5; stroke-linecap: square"/>
    </g>
    <g id="text_14">
     <!-- $\eta=0.01$ -->
     <g transform="translate(81.686177 109.774816) scale(0.11 -0.11)">
      <defs>
       <path id="CMMI12-11" d="M 3040 1768 
C 3072 1895 3091 1973 3091 2145 
C 3091 2528 2867 2815 2381 2815 
C 1811 2815 1510 2413 1395 2254 
C 1376 2618 1114 2815 832 2815 
C 646 2815 499 2726 378 2483 
C 262 2254 173 1864 173 1839 
C 173 1813 198 1781 243 1781 
C 294 1781 301 1788 339 1934 
C 435 2311 557 2688 813 2688 
C 960 2688 1011 2586 1011 2394 
C 1011 2254 947 2005 902 1807 
L 723 1118 
C 698 996 627 709 595 593 
C 550 428 480 127 480 96 
C 480 6 550 -64 646 -64 
C 723 -64 813 -25 864 70 
C 877 102 934 326 966 453 
L 1107 1028 
L 1318 1871 
C 1331 1909 1491 2228 1728 2432 
C 1894 2586 2112 2688 2362 2688 
C 2618 2688 2707 2496 2707 2241 
C 2707 2055 2682 1953 2650 1831 
L 1907 -1107 
C 1901 -1139 1888 -1177 1888 -1216 
C 1888 -1312 1965 -1376 2061 -1376 
C 2118 -1376 2253 -1350 2304 -1158 
L 3040 1768 
z
" transform="scale(0.015625)"/>
       <path id="CMR17-3d" d="M 4115 2017 
C 4211 2017 4307 2017 4307 2125 
C 4307 2240 4198 2240 4090 2240 
L 512 2240 
C 403 2240 294 2240 294 2125 
C 294 2017 390 2017 486 2017 
L 4115 2017 
z
M 4090 896 
C 4198 896 4307 896 4307 1011 
C 4307 1119 4211 1119 4115 1119 
L 486 1119 
C 390 1119 294 1119 294 1011 
C 294 896 403 896 512 896 
L 4090 896 
z
" transform="scale(0.015625)"/>
       <path id="CMMI12-3a" d="M 1178 307 
C 1178 492 1024 619 870 619 
C 685 619 557 466 557 313 
C 557 128 710 0 864 0 
C 1050 0 1178 153 1178 307 
z
" transform="scale(0.015625)"/>
      </defs>
      <use xlink:href="#CMMI12-11" transform="scale(0.996264)"/>
      <use xlink:href="#CMR17-3d" transform="translate(79.377824 0) scale(0.996264)"/>
      <use xlink:href="#CMR17-30" transform="translate(178.766622 0) scale(0.996264)"/>
      <use xlink:href="#CMMI12-3a" transform="translate(224.457099 0) scale(0.996264)"/>
      <use xlink:href="#CMR17-30" transform="translate(251.554276 0) scale(0.996264)"/>
      <use xlink:href="#CMR17-31" transform="translate(297.244753 0) scale(0.996264)"/>
     </g>
    </g>
    <g id="line2d_197">
     <path d="M 50.886177 121.255711 
L 61.886177 121.255711 
L 72.886177 121.255711 
" style="fill: none; stroke-dasharray: 2,3.3; stroke-dashoffset: 0; stroke: #0000ff; stroke-opacity: 0.7; stroke-width: 2"/>
    </g>
    <g id="text_15">
     <!-- $\propto k^{-1.49}$ -->
     <g transform="translate(81.686177 125.105711) scale(0.11 -0.11)">
      <defs>
       <path id="CMSY10-2f" d="M 4621 205 
C 4595 205 4493 192 4474 192 
C 3968 192 3629 691 3411 1024 
C 3347 1133 3174 1395 3104 1504 
C 3258 1850 3686 2643 4448 2643 
C 4493 2643 4550 2643 4621 2624 
C 4621 2790 4614 2797 4602 2810 
C 4557 2822 4461 2829 4403 2829 
C 3590 2829 3117 2048 2963 1728 
C 2707 2118 2618 2259 2381 2458 
C 1990 2797 1638 2829 1478 2829 
C 768 2829 358 2112 358 1376 
C 358 659 755 -70 1459 -70 
C 2272 -70 2746 710 2899 1030 
C 3155 640 3245 499 3482 301 
C 3872 -38 4224 -70 4384 -70 
C 4461 -70 4563 -58 4621 -44 
L 4621 205 
z
M 2758 1254 
C 2605 909 2176 115 1414 115 
C 794 115 499 794 499 1376 
C 499 2010 858 2566 1389 2566 
C 1894 2566 2234 2067 2451 1734 
C 2515 1626 2688 1363 2758 1254 
z
" transform="scale(0.015625)"/>
       <path id="CMSY10-0" d="M 4218 1472 
C 4326 1472 4442 1472 4442 1600 
C 4442 1728 4326 1728 4218 1728 
L 755 1728 
C 646 1728 531 1728 531 1600 
C 531 1472 646 1472 755 1472 
L 4218 1472 
z
" transform="scale(0.015625)"/>
       <path id="CMR17-39" d="M 2253 1864 
C 2253 464 1670 31 1190 31 
C 1043 31 685 31 538 294 
C 704 268 826 357 826 518 
C 826 692 685 749 595 749 
C 538 749 365 723 365 506 
C 365 71 742 -128 1203 -128 
C 1939 -128 2688 674 2688 2073 
C 2688 3817 1971 4179 1485 4179 
C 851 4179 243 3628 243 2778 
C 243 1991 762 1408 1414 1408 
C 1952 1408 2189 1903 2253 2112 
L 2253 1864 
z
M 1427 1510 
C 1254 1510 1011 1542 813 1922 
C 678 2169 678 2461 678 2771 
C 678 3146 678 3405 858 3684 
C 947 3817 1114 4032 1485 4032 
C 2240 4032 2240 2885 2240 2632 
C 2240 2182 2035 1510 1427 1510 
z
" transform="scale(0.015625)"/>
      </defs>
      <use xlink:href="#CMSY10-2f" transform="scale(0.996264)"/>
      <use xlink:href="#CMMI12-6b" transform="translate(105.161476 0) scale(0.996264)"/>
      <use xlink:href="#CMSY10-0" transform="translate(159.240677 36.153639) scale(0.697382)"/>
      <use xlink:href="#CMR17-31" transform="translate(213.48167 36.153639) scale(0.697382)"/>
      <use xlink:href="#CMMI12-3a" transform="translate(245.464852 36.153639) scale(0.697382)"/>
      <use xlink:href="#CMR17-34" transform="translate(264.432785 36.153639) scale(0.697382)"/>
      <use xlink:href="#CMR17-39" transform="translate(296.415967 36.153639) scale(0.697382)"/>
     </g>
    </g>
    <g id="line2d_198">
     <path d="M 50.886177 136.586606 
L 61.886177 136.586606 
L 72.886177 136.586606 
" style="fill: none; stroke: #ff0000; stroke-width: 2.5; stroke-linecap: square"/>
    </g>
    <g id="text_16">
     <!-- $\eta=0.1$ -->
     <g transform="translate(81.686177 140.436606) scale(0.11 -0.11)">
      <use xlink:href="#CMMI12-11" transform="scale(0.996264)"/>
      <use xlink:href="#CMR17-3d" transform="translate(79.377824 0) scale(0.996264)"/>
      <use xlink:href="#CMR17-30" transform="translate(178.766622 0) scale(0.996264)"/>
      <use xlink:href="#CMMI12-3a" transform="translate(224.457099 0) scale(0.996264)"/>
      <use xlink:href="#CMR17-31" transform="translate(251.554276 0) scale(0.996264)"/>
     </g>
    </g>
    <g id="line2d_199">
     <path d="M 50.886177 151.9175 
L 61.886177 151.9175 
L 72.886177 151.9175 
" style="fill: none; stroke-dasharray: 2,3.3; stroke-dashoffset: 0; stroke: #ff0000; stroke-opacity: 0.7; stroke-width: 2"/>
    </g>
    <g id="text_17">
     <!-- $\propto k^{-1.49}$ -->
     <g transform="translate(81.686177 155.7675) scale(0.11 -0.11)">
      <use xlink:href="#CMSY10-2f" transform="scale(0.996264)"/>
      <use xlink:href="#CMMI12-6b" transform="translate(105.161476 0) scale(0.996264)"/>
      <use xlink:href="#CMSY10-0" transform="translate(159.240677 36.153639) scale(0.697382)"/>
      <use xlink:href="#CMR17-31" transform="translate(213.48167 36.153639) scale(0.697382)"/>
      <use xlink:href="#CMMI12-3a" transform="translate(245.464852 36.153639) scale(0.697382)"/>
      <use xlink:href="#CMR17-34" transform="translate(264.432785 36.153639) scale(0.697382)"/>
      <use xlink:href="#CMR17-39" transform="translate(296.415967 36.153639) scale(0.697382)"/>
     </g>
    </g>
    <g id="line2d_200">
     <path d="M 50.886177 167.248395 
L 61.886177 167.248395 
L 72.886177 167.248395 
" style="fill: none; stroke: #008000; stroke-width: 2.5; stroke-linecap: square"/>
    </g>
    <g id="text_18">
     <!-- $\eta=1$ -->
     <g transform="translate(81.686177 171.098395) scale(0.11 -0.11)">
      <use xlink:href="#CMMI12-11" transform="scale(0.996264)"/>
      <use xlink:href="#CMR17-3d" transform="translate(79.377824 0) scale(0.996264)"/>
      <use xlink:href="#CMR17-31" transform="translate(178.766622 0) scale(0.996264)"/>
     </g>
    </g>
    <g id="line2d_201">
     <path d="M 50.886177 182.579289 
L 61.886177 182.579289 
L 72.886177 182.579289 
" style="fill: none; stroke-dasharray: 2,3.3; stroke-dashoffset: 0; stroke: #008000; stroke-opacity: 0.7; stroke-width: 2"/>
    </g>
    <g id="text_19">
     <!-- $\propto k^{-1.48}$ -->
     <g transform="translate(81.686177 186.429289) scale(0.11 -0.11)">
      <use xlink:href="#CMSY10-2f" transform="scale(0.996264)"/>
      <use xlink:href="#CMMI12-6b" transform="translate(105.161476 0) scale(0.996264)"/>
      <use xlink:href="#CMSY10-0" transform="translate(159.240677 36.153639) scale(0.697382)"/>
      <use xlink:href="#CMR17-31" transform="translate(213.48167 36.153639) scale(0.697382)"/>
      <use xlink:href="#CMMI12-3a" transform="translate(245.464852 36.153639) scale(0.697382)"/>
      <use xlink:href="#CMR17-34" transform="translate(264.432785 36.153639) scale(0.697382)"/>
      <use xlink:href="#CMR17-38" transform="translate(296.415967 36.153639) scale(0.697382)"/>
     </g>
    </g>
    <g id="line2d_202">
     <path d="M 50.886177 197.910184 
L 61.886177 197.910184 
L 72.886177 197.910184 
" style="fill: none; stroke: #ffa500; stroke-width: 2.5; stroke-linecap: square"/>
    </g>
    <g id="text_20">
     <!-- $\eta=4$ -->
     <g transform="translate(81.686177 201.760184) scale(0.11 -0.11)">
      <use xlink:href="#CMMI12-11" transform="scale(0.996264)"/>
      <use xlink:href="#CMR17-3d" transform="translate(79.377824 0) scale(0.996264)"/>
      <use xlink:href="#CMR17-34" transform="translate(178.766622 0) scale(0.996264)"/>
     </g>
    </g>
    <g id="line2d_203">
     <path d="M 50.886177 213.241079 
L 61.886177 213.241079 
L 72.886177 213.241079 
" style="fill: none; stroke-dasharray: 2,3.3; stroke-dashoffset: 0; stroke: #ffa500; stroke-opacity: 0.7; stroke-width: 2"/>
    </g>
    <g id="text_21">
     <!-- $\propto k^{-1.33}$ -->
     <g transform="translate(81.686177 217.091079) scale(0.11 -0.11)">
      <use xlink:href="#CMSY10-2f" transform="scale(0.996264)"/>
      <use xlink:href="#CMMI12-6b" transform="translate(105.161476 0) scale(0.996264)"/>
      <use xlink:href="#CMSY10-0" transform="translate(159.240677 36.153639) scale(0.697382)"/>
      <use xlink:href="#CMR17-31" transform="translate(213.48167 36.153639) scale(0.697382)"/>
      <use xlink:href="#CMMI12-3a" transform="translate(245.464852 36.153639) scale(0.697382)"/>
      <use xlink:href="#CMR17-33" transform="translate(264.432785 36.153639) scale(0.697382)"/>
      <use xlink:href="#CMR17-33" transform="translate(296.415967 36.153639) scale(0.697382)"/>
     </g>
    </g>
    <g id="line2d_204">
     <path d="M 50.886177 228.571973 
L 61.886177 228.571973 
L 72.886177 228.571973 
" style="fill: none; stroke-dasharray: 14.8,6.4; stroke-dashoffset: 0; stroke: #000000; stroke-width: 4"/>
    </g>
    <g id="text_22">
     <!-- $k^{-11/3}$ -->
     <g transform="translate(81.686177 232.421973) scale(0.11 -0.11)">
      <defs>
       <path id="CMMI12-3d" d="M 2746 4562 
C 2746 4569 2784 4666 2784 4678 
C 2784 4755 2720 4800 2669 4800 
C 2637 4800 2579 4800 2528 4659 
L 384 -1363 
C 384 -1370 346 -1465 346 -1478 
C 346 -1555 410 -1600 461 -1600 
C 499 -1600 557 -1593 602 -1459 
L 2746 4562 
z
" transform="scale(0.015625)"/>
      </defs>
      <use xlink:href="#CMMI12-6b" transform="scale(0.996264)"/>
      <use xlink:href="#CMSY10-0" transform="translate(54.079201 36.153639) scale(0.697382)"/>
      <use xlink:href="#CMR17-31" transform="translate(108.320194 36.153639) scale(0.697382)"/>
      <use xlink:href="#CMR17-31" transform="translate(140.303376 36.153639) scale(0.697382)"/>
      <use xlink:href="#CMMI12-3d" transform="translate(172.286558 36.153639) scale(0.697382)"/>
      <use xlink:href="#CMR17-33" transform="translate(206.428849 36.153639) scale(0.697382)"/>
     </g>
    </g>
   </g>
  </g>
 </g>
 <defs>
  <clipPath id="p34076feab0">
   <rect x="40.986177" y="10.913" width="446.453823" height="233.539868"/>
  </clipPath>
 </defs>
</svg>
