<?xml version="1.0" encoding="utf-8" standalone="no"?>
<!DOCTYPE svg PUBLIC "-//W3C//DTD SVG 1.1//EN"
  "http://www.w3.org/Graphics/SVG/1.1/DTD/svg11.dtd">
<svg xmlns:xlink="http://www.w3.org/1999/xlink" width="971.224786pt" height="320.881562pt" viewBox="0 0 971.224786 320.881562" xmlns="http://www.w3.org/2000/svg" version="1.1">
 <metadata>
  <rdf:RDF xmlns:dc="http://purl.org/dc/elements/1.1/" xmlns:cc="http://creativecommons.org/ns#" xmlns:rdf="http://www.w3.org/1999/02/22-rdf-syntax-ns#">
   <cc:Work>
    <dc:type rdf:resource="http://purl.org/dc/dcmitype/StillImage"/>
    <dc:date>2026-02-22T03:39:30.137930</dc:date>
    <dc:format>image/svg+xml</dc:format>
    <dc:creator>
     <cc:Agent>
      <dc:title>Matplotlib v3.8.4, https://matplotlib.org/</dc:title>
     </cc:Agent>
    </dc:creator>
   </cc:Work>
  </rdf:RDF>
 </metadata>
 <defs>
  <style type="text/css">*{stroke-linejoin: round; stroke-linecap: butt}</style>
 </defs>
 <g id="figure_1">
  <g id="patch_1">
   <path d="M 0 320.881562 
L 971.224786 320.881562 
L 971.224786 0 
L 0 0 
z
" style="fill: #ffffff"/>
  </g>
  <g id="axes_1">
   <g id="patch_2">
    <path d="M 46.022143 297.6 
L 434.243571 297.6 
L 434.243571 38.4 
L 46.022143 38.4 
z
" style="fill: #ffffff"/>
   </g>
   <g id="matplotlib.axis_1">
    <g id="xtick_1">
     <g id="line2d_1">
      <defs>
       <path id="m34923d7ce9" d="M 0 0 
L 0 -3.5 
" style="stroke: #000000; stroke-width: 0.8"/>
      </defs>
      <g>
       <use xlink:href="#m34923d7ce9" x="46.022143" y="297.6" style="stroke: #000000; stroke-width: 0.8"/>
      </g>
     </g>
     <g id="text_1">
      <!-- $\mathdefault{10^{-7}}$ -->
      <g transform="translate(30.747143 310.977969) scale(0.13 -0.13)">
       <defs>
        <path id="DejaVuSans-31" d="M 794 531 
L 1825 531 
L 1825 4091 
L 703 3866 
L 703 4441 
L 1819 4666 
L 2450 4666 
L 2450 531 
L 3481 531 
L 3481 0 
L 794 0 
L 794 531 
z
" transform="scale(0.015625)"/>
        <path id="DejaVuSans-30" d="M 2034 4250 
Q 1547 4250 1301 3770 
Q 1056 3291 1056 2328 
Q 1056 1369 1301 889 
Q 1547 409 2034 409 
Q 2525 409 2770 889 
Q 3016 1369 3016 2328 
Q 3016 3291 2770 3770 
Q 2525 4250 2034 4250 
z
M 2034 4750 
Q 2819 4750 3233 4129 
Q 3647 3509 3647 2328 
Q 3647 1150 3233 529 
Q 2819 -91 2034 -91 
Q 1250 -91 836 529 
Q 422 1150 422 2328 
Q 422 3509 836 4129 
Q 1250 4750 2034 4750 
z
" transform="scale(0.015625)"/>
        <path id="DejaVuSans-2212" d="M 678 2272 
L 4684 2272 
L 4684 1741 
L 678 1741 
L 678 2272 
z
" transform="scale(0.015625)"/>
        <path id="DejaVuSans-37" d="M 525 4666 
L 3525 4666 
L 3525 4397 
L 1831 0 
L 1172 0 
L 2766 4134 
L 525 4134 
L 525 4666 
z
" transform="scale(0.015625)"/>
       </defs>
       <use xlink:href="#DejaVuSans-31" transform="translate(0 0.684375)"/>
       <use xlink:href="#DejaVuSans-30" transform="translate(63.623047 0.684375)"/>
       <use xlink:href="#DejaVuSans-2212" transform="translate(128.203125 38.965625) scale(0.7)"/>
       <use xlink:href="#DejaVuSans-37" transform="translate(186.855469 38.965625) scale(0.7)"/>
      </g>
     </g>
    </g>
    <g id="xtick_2">
     <g id="line2d_2">
      <g>
       <use xlink:href="#m34923d7ce9" x="89.157857" y="297.6" style="stroke: #000000; stroke-width: 0.8"/>
      </g>
     </g>
     <g id="text_2">
      <!-- $\mathdefault{10^{-6}}$ -->
      <g transform="translate(73.882857 310.977969) scale(0.13 -0.13)">
       <defs>
        <path id="DejaVuSans-36" d="M 2113 2584 
Q 1688 2584 1439 2293 
Q 1191 2003 1191 1497 
Q 1191 994 1439 701 
Q 1688 409 2113 409 
Q 2538 409 2786 701 
Q 3034 994 3034 1497 
Q 3034 2003 2786 2293 
Q 2538 2584 2113 2584 
z
M 3366 4563 
L 3366 3988 
Q 3128 4100 2886 4159 
Q 2644 4219 2406 4219 
Q 1781 4219 1451 3797 
Q 1122 3375 1075 2522 
Q 1259 2794 1537 2939 
Q 1816 3084 2150 3084 
Q 2853 3084 3261 2657 
Q 3669 2231 3669 1497 
Q 3669 778 3244 343 
Q 2819 -91 2113 -91 
Q 1303 -91 875 529 
Q 447 1150 447 2328 
Q 447 3434 972 4092 
Q 1497 4750 2381 4750 
Q 2619 4750 2861 4703 
Q 3103 4656 3366 4563 
z
" transform="scale(0.015625)"/>
       </defs>
       <use xlink:href="#DejaVuSans-31" transform="translate(0 0.765625)"/>
       <use xlink:href="#DejaVuSans-30" transform="translate(63.623047 0.765625)"/>
       <use xlink:href="#DejaVuSans-2212" transform="translate(128.203125 39.046875) scale(0.7)"/>
       <use xlink:href="#DejaVuSans-36" transform="translate(186.855469 39.046875) scale(0.7)"/>
      </g>
     </g>
    </g>
    <g id="xtick_3">
     <g id="line2d_3">
      <g>
       <use xlink:href="#m34923d7ce9" x="132.293571" y="297.6" style="stroke: #000000; stroke-width: 0.8"/>
      </g>
     </g>
     <g id="text_3">
      <!-- $\mathdefault{10^{-5}}$ -->
      <g transform="translate(117.018571 310.977969) scale(0.13 -0.13)">
       <defs>
        <path id="DejaVuSans-35" d="M 691 4666 
L 3169 4666 
L 3169 4134 
L 1269 4134 
L 1269 2991 
Q 1406 3038 1543 3061 
Q 1681 3084 1819 3084 
Q 2600 3084 3056 2656 
Q 3513 2228 3513 1497 
Q 3513 744 3044 326 
Q 2575 -91 1722 -91 
Q 1428 -91 1123 -41 
Q 819 9 494 109 
L 494 744 
Q 775 591 1075 516 
Q 1375 441 1709 441 
Q 2250 441 2565 725 
Q 2881 1009 2881 1497 
Q 2881 1984 2565 2268 
Q 2250 2553 1709 2553 
Q 1456 2553 1204 2497 
Q 953 2441 691 2322 
L 691 4666 
z
" transform="scale(0.015625)"/>
       </defs>
       <use xlink:href="#DejaVuSans-31" transform="translate(0 0.684375)"/>
       <use xlink:href="#DejaVuSans-30" transform="translate(63.623047 0.684375)"/>
       <use xlink:href="#DejaVuSans-2212" transform="translate(128.203125 38.965625) scale(0.7)"/>
       <use xlink:href="#DejaVuSans-35" transform="translate(186.855469 38.965625) scale(0.7)"/>
      </g>
     </g>
    </g>
    <g id="xtick_4">
     <g id="line2d_4">
      <g>
       <use xlink:href="#m34923d7ce9" x="175.429286" y="297.6" style="stroke: #000000; stroke-width: 0.8"/>
      </g>
     </g>
     <g id="text_4">
      <!-- $\mathdefault{10^{-4}}$ -->
      <g transform="translate(160.154286 310.977969) scale(0.13 -0.13)">
       <defs>
        <path id="DejaVuSans-34" d="M 2419 4116 
L 825 1625 
L 2419 1625 
L 2419 4116 
z
M 2253 4666 
L 3047 4666 
L 3047 1625 
L 3713 1625 
L 3713 1100 
L 3047 1100 
L 3047 0 
L 2419 0 
L 2419 1100 
L 313 1100 
L 313 1709 
L 2253 4666 
z
" transform="scale(0.015625)"/>
       </defs>
       <use xlink:href="#DejaVuSans-31" transform="translate(0 0.684375)"/>
       <use xlink:href="#DejaVuSans-30" transform="translate(63.623047 0.684375)"/>
       <use xlink:href="#DejaVuSans-2212" transform="translate(128.203125 38.965625) scale(0.7)"/>
       <use xlink:href="#DejaVuSans-34" transform="translate(186.855469 38.965625) scale(0.7)"/>
      </g>
     </g>
    </g>
    <g id="xtick_5">
     <g id="line2d_5">
      <g>
       <use xlink:href="#m34923d7ce9" x="218.565" y="297.6" style="stroke: #000000; stroke-width: 0.8"/>
      </g>
     </g>
     <g id="text_5">
      <!-- $\mathdefault{10^{-3}}$ -->
      <g transform="translate(203.29 310.977969) scale(0.13 -0.13)">
       <defs>
        <path id="DejaVuSans-33" d="M 2597 2516 
Q 3050 2419 3304 2112 
Q 3559 1806 3559 1356 
Q 3559 666 3084 287 
Q 2609 -91 1734 -91 
Q 1441 -91 1130 -33 
Q 819 25 488 141 
L 488 750 
Q 750 597 1062 519 
Q 1375 441 1716 441 
Q 2309 441 2620 675 
Q 2931 909 2931 1356 
Q 2931 1769 2642 2001 
Q 2353 2234 1838 2234 
L 1294 2234 
L 1294 2753 
L 1863 2753 
Q 2328 2753 2575 2939 
Q 2822 3125 2822 3475 
Q 2822 3834 2567 4026 
Q 2313 4219 1838 4219 
Q 1578 4219 1281 4162 
Q 984 4106 628 3988 
L 628 4550 
Q 988 4650 1302 4700 
Q 1616 4750 1894 4750 
Q 2613 4750 3031 4423 
Q 3450 4097 3450 3541 
Q 3450 3153 3228 2886 
Q 3006 2619 2597 2516 
z
" transform="scale(0.015625)"/>
       </defs>
       <use xlink:href="#DejaVuSans-31" transform="translate(0 0.765625)"/>
       <use xlink:href="#DejaVuSans-30" transform="translate(63.623047 0.765625)"/>
       <use xlink:href="#DejaVuSans-2212" transform="translate(128.203125 39.046875) scale(0.7)"/>
       <use xlink:href="#DejaVuSans-33" transform="translate(186.855469 39.046875) scale(0.7)"/>
      </g>
     </g>
    </g>
    <g id="xtick_6">
     <g id="line2d_6">
      <g>
       <use xlink:href="#m34923d7ce9" x="261.700714" y="297.6" style="stroke: #000000; stroke-width: 0.8"/>
      </g>
     </g>
     <g id="text_6">
      <!-- $\mathdefault{10^{-2}}$ -->
      <g transform="translate(246.425714 310.977969) scale(0.13 -0.13)">
       <defs>
        <path id="DejaVuSans-32" d="M 1228 531 
L 3431 531 
L 3431 0 
L 469 0 
L 469 531 
Q 828 903 1448 1529 
Q 2069 2156 2228 2338 
Q 2531 2678 2651 2914 
Q 2772 3150 2772 3378 
Q 2772 3750 2511 3984 
Q 2250 4219 1831 4219 
Q 1534 4219 1204 4116 
Q 875 4013 500 3803 
L 500 4441 
Q 881 4594 1212 4672 
Q 1544 4750 1819 4750 
Q 2544 4750 2975 4387 
Q 3406 4025 3406 3419 
Q 3406 3131 3298 2873 
Q 3191 2616 2906 2266 
Q 2828 2175 2409 1742 
Q 1991 1309 1228 531 
z
" transform="scale(0.015625)"/>
       </defs>
       <use xlink:href="#DejaVuSans-31" transform="translate(0 0.765625)"/>
       <use xlink:href="#DejaVuSans-30" transform="translate(63.623047 0.765625)"/>
       <use xlink:href="#DejaVuSans-2212" transform="translate(128.203125 39.046875) scale(0.7)"/>
       <use xlink:href="#DejaVuSans-32" transform="translate(186.855469 39.046875) scale(0.7)"/>
      </g>
     </g>
    </g>
    <g id="xtick_7">
     <g id="line2d_7">
      <g>
       <use xlink:href="#m34923d7ce9" x="304.836429" y="297.6" style="stroke: #000000; stroke-width: 0.8"/>
      </g>
     </g>
     <g id="text_7">
      <!-- $\mathdefault{10^{-1}}$ -->
      <g transform="translate(289.561429 310.977969) scale(0.13 -0.13)">
       <use xlink:href="#DejaVuSans-31" transform="translate(0 0.684375)"/>
       <use xlink:href="#DejaVuSans-30" transform="translate(63.623047 0.684375)"/>
       <use xlink:href="#DejaVuSans-2212" transform="translate(128.203125 38.965625) scale(0.7)"/>
       <use xlink:href="#DejaVuSans-31" transform="translate(186.855469 38.965625) scale(0.7)"/>
      </g>
     </g>
    </g>
    <g id="xtick_8">
     <g id="line2d_8">
      <g>
       <use xlink:href="#m34923d7ce9" x="347.972143" y="297.6" style="stroke: #000000; stroke-width: 0.8"/>
      </g>
     </g>
     <g id="text_8">
      <!-- $\mathdefault{10^{0}}$ -->
      <g transform="translate(336.532143 310.977969) scale(0.13 -0.13)">
       <use xlink:href="#DejaVuSans-31" transform="translate(0 0.765625)"/>
       <use xlink:href="#DejaVuSans-30" transform="translate(63.623047 0.765625)"/>
       <use xlink:href="#DejaVuSans-30" transform="translate(128.203125 39.046875) scale(0.7)"/>
      </g>
     </g>
    </g>
    <g id="xtick_9">
     <g id="line2d_9">
      <g>
       <use xlink:href="#m34923d7ce9" x="391.107857" y="297.6" style="stroke: #000000; stroke-width: 0.8"/>
      </g>
     </g>
     <g id="text_9">
      <!-- $\mathdefault{10^{1}}$ -->
      <g transform="translate(379.667857 310.977969) scale(0.13 -0.13)">
       <use xlink:href="#DejaVuSans-31" transform="translate(0 0.684375)"/>
       <use xlink:href="#DejaVuSans-30" transform="translate(63.623047 0.684375)"/>
       <use xlink:href="#DejaVuSans-31" transform="translate(128.203125 38.965625) scale(0.7)"/>
      </g>
     </g>
    </g>
    <g id="xtick_10">
     <g id="line2d_10">
      <g>
       <use xlink:href="#m34923d7ce9" x="434.243571" y="297.6" style="stroke: #000000; stroke-width: 0.8"/>
      </g>
     </g>
     <g id="text_10">
      <!-- $\mathdefault{10^{2}}$ -->
      <g transform="translate(422.803571 310.977969) scale(0.13 -0.13)">
       <use xlink:href="#DejaVuSans-31" transform="translate(0 0.765625)"/>
       <use xlink:href="#DejaVuSans-30" transform="translate(63.623047 0.765625)"/>
       <use xlink:href="#DejaVuSans-32" transform="translate(128.203125 39.046875) scale(0.7)"/>
      </g>
     </g>
    </g>
   </g>
   <g id="matplotlib.axis_2">
    <g id="ytick_1">
     <g id="line2d_11">
      <defs>
       <path id="me128bb705c" d="M 0 0 
L 3.5 0 
" style="stroke: #000000; stroke-width: 0.8"/>
      </defs>
      <g>
       <use xlink:href="#me128bb705c" x="46.022143" y="42.440765" style="stroke: #000000; stroke-width: 0.8"/>
      </g>
     </g>
     <g id="text_11">
      <!-- $\mathdefault{10^{0}}$ -->
      <g transform="translate(19.642143 47.37975) scale(0.13 -0.13)">
       <use xlink:href="#DejaVuSans-31" transform="translate(0 0.765625)"/>
       <use xlink:href="#DejaVuSans-30" transform="translate(63.623047 0.765625)"/>
       <use xlink:href="#DejaVuSans-30" transform="translate(128.203125 39.046875) scale(0.7)"/>
      </g>
     </g>
    </g>
    <g id="ytick_2">
     <g id="line2d_12">
      <g>
       <use xlink:href="#me128bb705c" x="46.022143" y="144.504459" style="stroke: #000000; stroke-width: 0.8"/>
      </g>
     </g>
     <g id="text_12">
      <!-- $\mathdefault{10^{-2}}$ -->
      <g transform="translate(11.972143 149.443444) scale(0.13 -0.13)">
       <use xlink:href="#DejaVuSans-31" transform="translate(0 0.765625)"/>
       <use xlink:href="#DejaVuSans-30" transform="translate(63.623047 0.765625)"/>
       <use xlink:href="#DejaVuSans-2212" transform="translate(128.203125 39.046875) scale(0.7)"/>
       <use xlink:href="#DejaVuSans-32" transform="translate(186.855469 39.046875) scale(0.7)"/>
      </g>
     </g>
    </g>
    <g id="ytick_3">
     <g id="line2d_13">
      <g>
       <use xlink:href="#me128bb705c" x="46.022143" y="246.568153" style="stroke: #000000; stroke-width: 0.8"/>
      </g>
     </g>
     <g id="text_13">
      <!-- $\mathdefault{10^{-4}}$ -->
      <g transform="translate(11.972143 251.507137) scale(0.13 -0.13)">
       <use xlink:href="#DejaVuSans-31" transform="translate(0 0.684375)"/>
       <use xlink:href="#DejaVuSans-30" transform="translate(63.623047 0.684375)"/>
       <use xlink:href="#DejaVuSans-2212" transform="translate(128.203125 38.965625) scale(0.7)"/>
       <use xlink:href="#DejaVuSans-34" transform="translate(186.855469 38.965625) scale(0.7)"/>
      </g>
     </g>
    </g>
    <g id="ytick_4">
     <g id="line2d_14">
      <defs>
       <path id="m5f65b1ccda" d="M 0 0 
L 2 0 
" style="stroke: #000000; stroke-width: 0.6"/>
      </defs>
      <g>
       <use xlink:href="#m5f65b1ccda" x="46.022143" y="282.237883" style="stroke: #000000; stroke-width: 0.6"/>
      </g>
     </g>
    </g>
    <g id="ytick_5">
     <g id="line2d_15">
      <g>
       <use xlink:href="#m5f65b1ccda" x="46.022143" y="273.251621" style="stroke: #000000; stroke-width: 0.6"/>
      </g>
     </g>
    </g>
    <g id="ytick_6">
     <g id="line2d_16">
      <g>
       <use xlink:href="#m5f65b1ccda" x="46.022143" y="266.875767" style="stroke: #000000; stroke-width: 0.6"/>
      </g>
     </g>
    </g>
    <g id="ytick_7">
     <g id="line2d_17">
      <g>
       <use xlink:href="#m5f65b1ccda" x="46.022143" y="261.93027" style="stroke: #000000; stroke-width: 0.6"/>
      </g>
     </g>
    </g>
    <g id="ytick_8">
     <g id="line2d_18">
      <g>
       <use xlink:href="#m5f65b1ccda" x="46.022143" y="257.889504" style="stroke: #000000; stroke-width: 0.6"/>
      </g>
     </g>
    </g>
    <g id="ytick_9">
     <g id="line2d_19">
      <g>
       <use xlink:href="#m5f65b1ccda" x="46.022143" y="254.473086" style="stroke: #000000; stroke-width: 0.6"/>
      </g>
     </g>
    </g>
    <g id="ytick_10">
     <g id="line2d_20">
      <g>
       <use xlink:href="#m5f65b1ccda" x="46.022143" y="251.51365" style="stroke: #000000; stroke-width: 0.6"/>
      </g>
     </g>
    </g>
    <g id="ytick_11">
     <g id="line2d_21">
      <g>
       <use xlink:href="#m5f65b1ccda" x="46.022143" y="248.903242" style="stroke: #000000; stroke-width: 0.6"/>
      </g>
     </g>
    </g>
    <g id="ytick_12">
     <g id="line2d_22">
      <g>
       <use xlink:href="#m5f65b1ccda" x="46.022143" y="231.206036" style="stroke: #000000; stroke-width: 0.6"/>
      </g>
     </g>
    </g>
    <g id="ytick_13">
     <g id="line2d_23">
      <g>
       <use xlink:href="#m5f65b1ccda" x="46.022143" y="222.219774" style="stroke: #000000; stroke-width: 0.6"/>
      </g>
     </g>
    </g>
    <g id="ytick_14">
     <g id="line2d_24">
      <g>
       <use xlink:href="#m5f65b1ccda" x="46.022143" y="215.84392" style="stroke: #000000; stroke-width: 0.6"/>
      </g>
     </g>
    </g>
    <g id="ytick_15">
     <g id="line2d_25">
      <g>
       <use xlink:href="#m5f65b1ccda" x="46.022143" y="210.898423" style="stroke: #000000; stroke-width: 0.6"/>
      </g>
     </g>
    </g>
    <g id="ytick_16">
     <g id="line2d_26">
      <g>
       <use xlink:href="#m5f65b1ccda" x="46.022143" y="206.857658" style="stroke: #000000; stroke-width: 0.6"/>
      </g>
     </g>
    </g>
    <g id="ytick_17">
     <g id="line2d_27">
      <g>
       <use xlink:href="#m5f65b1ccda" x="46.022143" y="203.441239" style="stroke: #000000; stroke-width: 0.6"/>
      </g>
     </g>
    </g>
    <g id="ytick_18">
     <g id="line2d_28">
      <g>
       <use xlink:href="#m5f65b1ccda" x="46.022143" y="200.481803" style="stroke: #000000; stroke-width: 0.6"/>
      </g>
     </g>
    </g>
    <g id="ytick_19">
     <g id="line2d_29">
      <g>
       <use xlink:href="#m5f65b1ccda" x="46.022143" y="197.871395" style="stroke: #000000; stroke-width: 0.6"/>
      </g>
     </g>
    </g>
    <g id="ytick_20">
     <g id="line2d_30">
      <g>
       <use xlink:href="#m5f65b1ccda" x="46.022143" y="180.174189" style="stroke: #000000; stroke-width: 0.6"/>
      </g>
     </g>
    </g>
    <g id="ytick_21">
     <g id="line2d_31">
      <g>
       <use xlink:href="#m5f65b1ccda" x="46.022143" y="171.187927" style="stroke: #000000; stroke-width: 0.6"/>
      </g>
     </g>
    </g>
    <g id="ytick_22">
     <g id="line2d_32">
      <g>
       <use xlink:href="#m5f65b1ccda" x="46.022143" y="164.812073" style="stroke: #000000; stroke-width: 0.6"/>
      </g>
     </g>
    </g>
    <g id="ytick_23">
     <g id="line2d_33">
      <g>
       <use xlink:href="#m5f65b1ccda" x="46.022143" y="159.866576" style="stroke: #000000; stroke-width: 0.6"/>
      </g>
     </g>
    </g>
    <g id="ytick_24">
     <g id="line2d_34">
      <g>
       <use xlink:href="#m5f65b1ccda" x="46.022143" y="155.825811" style="stroke: #000000; stroke-width: 0.6"/>
      </g>
     </g>
    </g>
    <g id="ytick_25">
     <g id="line2d_35">
      <g>
       <use xlink:href="#m5f65b1ccda" x="46.022143" y="152.409392" style="stroke: #000000; stroke-width: 0.6"/>
      </g>
     </g>
    </g>
    <g id="ytick_26">
     <g id="line2d_36">
      <g>
       <use xlink:href="#m5f65b1ccda" x="46.022143" y="149.449956" style="stroke: #000000; stroke-width: 0.6"/>
      </g>
     </g>
    </g>
    <g id="ytick_27">
     <g id="line2d_37">
      <g>
       <use xlink:href="#m5f65b1ccda" x="46.022143" y="146.839548" style="stroke: #000000; stroke-width: 0.6"/>
      </g>
     </g>
    </g>
    <g id="ytick_28">
     <g id="line2d_38">
      <g>
       <use xlink:href="#m5f65b1ccda" x="46.022143" y="129.142342" style="stroke: #000000; stroke-width: 0.6"/>
      </g>
     </g>
    </g>
    <g id="ytick_29">
     <g id="line2d_39">
      <g>
       <use xlink:href="#m5f65b1ccda" x="46.022143" y="120.15608" style="stroke: #000000; stroke-width: 0.6"/>
      </g>
     </g>
    </g>
    <g id="ytick_30">
     <g id="line2d_40">
      <g>
       <use xlink:href="#m5f65b1ccda" x="46.022143" y="113.780226" style="stroke: #000000; stroke-width: 0.6"/>
      </g>
     </g>
    </g>
    <g id="ytick_31">
     <g id="line2d_41">
      <g>
       <use xlink:href="#m5f65b1ccda" x="46.022143" y="108.834729" style="stroke: #000000; stroke-width: 0.6"/>
      </g>
     </g>
    </g>
    <g id="ytick_32">
     <g id="line2d_42">
      <g>
       <use xlink:href="#m5f65b1ccda" x="46.022143" y="104.793964" style="stroke: #000000; stroke-width: 0.6"/>
      </g>
     </g>
    </g>
    <g id="ytick_33">
     <g id="line2d_43">
      <g>
       <use xlink:href="#m5f65b1ccda" x="46.022143" y="101.377545" style="stroke: #000000; stroke-width: 0.6"/>
      </g>
     </g>
    </g>
    <g id="ytick_34">
     <g id="line2d_44">
      <g>
       <use xlink:href="#m5f65b1ccda" x="46.022143" y="98.418109" style="stroke: #000000; stroke-width: 0.6"/>
      </g>
     </g>
    </g>
    <g id="ytick_35">
     <g id="line2d_45">
      <g>
       <use xlink:href="#m5f65b1ccda" x="46.022143" y="95.807701" style="stroke: #000000; stroke-width: 0.6"/>
      </g>
     </g>
    </g>
    <g id="ytick_36">
     <g id="line2d_46">
      <g>
       <use xlink:href="#m5f65b1ccda" x="46.022143" y="78.110496" style="stroke: #000000; stroke-width: 0.6"/>
      </g>
     </g>
    </g>
    <g id="ytick_37">
     <g id="line2d_47">
      <g>
       <use xlink:href="#m5f65b1ccda" x="46.022143" y="69.124233" style="stroke: #000000; stroke-width: 0.6"/>
      </g>
     </g>
    </g>
    <g id="ytick_38">
     <g id="line2d_48">
      <g>
       <use xlink:href="#m5f65b1ccda" x="46.022143" y="62.748379" style="stroke: #000000; stroke-width: 0.6"/>
      </g>
     </g>
    </g>
    <g id="ytick_39">
     <g id="line2d_49">
      <g>
       <use xlink:href="#m5f65b1ccda" x="46.022143" y="57.802882" style="stroke: #000000; stroke-width: 0.6"/>
      </g>
     </g>
    </g>
    <g id="ytick_40">
     <g id="line2d_50">
      <g>
       <use xlink:href="#m5f65b1ccda" x="46.022143" y="53.762117" style="stroke: #000000; stroke-width: 0.6"/>
      </g>
     </g>
    </g>
    <g id="ytick_41">
     <g id="line2d_51">
      <g>
       <use xlink:href="#m5f65b1ccda" x="46.022143" y="50.345698" style="stroke: #000000; stroke-width: 0.6"/>
      </g>
     </g>
    </g>
    <g id="ytick_42">
     <g id="line2d_52">
      <g>
       <use xlink:href="#m5f65b1ccda" x="46.022143" y="47.386262" style="stroke: #000000; stroke-width: 0.6"/>
      </g>
     </g>
    </g>
    <g id="ytick_43">
     <g id="line2d_53">
      <g>
       <use xlink:href="#m5f65b1ccda" x="46.022143" y="44.775854" style="stroke: #000000; stroke-width: 0.6"/>
      </g>
     </g>
    </g>
   </g>
   <g id="line2d_54">
    <path d="M 46.022143 292.497094 
L 213.291897 154.11859 
L 243.633852 129.291901 
L 263.083823 113.650116 
L 277.087803 102.657676 
L 288.757786 93.77962 
L 298.093772 86.942287 
L 306.651759 80.948968 
L 314.431748 75.78416 
L 321.433737 71.410996 
L 327.657728 67.773771 
L 333.881719 64.396532 
L 340.10571 61.298625 
L 345.551702 58.827764 
L 350.997694 56.585485 
L 356.443686 54.571527 
L 361.889678 52.781001 
L 367.33567 51.20478 
L 373.559661 49.649409 
L 379.783652 48.334237 
L 386.007642 47.233535 
L 393.009632 46.218446 
L 400.789621 45.324472 
L 409.347608 44.571783 
L 419.461593 43.92295 
L 431.131576 43.410364 
L 434.243571 43.305974 
L 434.243571 43.305974 
" clip-path="url(#pd677718e21)" style="fill: none; stroke: #38049a; stroke-width: 2.2; stroke-linecap: square"/>
   </g>
   <g id="line2d_55">
    <path d="M 46.022143 282.710728 
L 55.358129 276.644358 
L 65.472114 269.802403 
L 76.364098 262.151391 
L 88.034081 253.6706 
L 100.482063 244.353033 
L 115.264041 232.99629 
L 132.380016 219.546244 
L 153.385985 202.733448 
L 181.393944 180.00117 
L 258.41583 117.314248 
L 273.975807 105.035331 
L 285.64579 96.087938 
L 295.759775 88.6045 
L 304.317763 82.5375 
L 312.097751 77.289048 
L 319.099741 72.82671 
L 325.323732 69.099677 
L 331.547723 65.623895 
L 337.771713 62.420563 
L 343.217705 59.853741 
L 348.663697 57.514042 
L 354.109689 55.403237 
L 359.555681 53.518409 
L 365.001673 51.852193 
L 371.225664 50.201064 
L 377.449655 48.799115 
L 383.673646 47.621415 
L 390.675636 46.531572 
L 398.455624 45.568631 
L 407.013612 44.755494 
L 416.349598 44.098553 
L 427.241582 43.557951 
L 434.243571 43.305706 
L 434.243571 43.305706 
" clip-path="url(#pd677718e21)" style="fill: none; stroke: #5b01a5; stroke-width: 2.2; stroke-linecap: square"/>
   </g>
   <g id="line2d_56">
    <path d="M 46.022143 273.805581 
L 54.58013 269.222852 
L 63.138118 264.404509 
L 72.474104 258.879767 
L 81.81009 253.081875 
L 91.146076 247.024101 
L 101.260062 240.189662 
L 112.152046 232.544837 
L 123.822028 224.068895 
L 136.27001 214.755184 
L 151.051988 203.402625 
L 168.167963 189.959661 
L 189.173932 173.16607 
L 221.849884 146.719581 
L 255.303835 119.71565 
L 271.641811 106.799461 
L 284.089792 97.22405 
L 294.203778 89.705829 
L 302.761765 83.596018 
L 310.541754 78.297067 
L 317.543743 73.779586 
L 324.545733 69.539858 
L 330.769724 66.033524 
L 336.993715 62.796907 
L 342.439707 60.199357 
L 347.885699 57.828109 
L 353.331691 55.685625 
L 358.777683 53.769675 
L 364.223674 52.073523 
L 369.669666 50.58645 
L 375.893657 49.125005 
L 382.117648 47.894157 
L 389.119638 46.752399 
L 396.121628 45.831553 
L 403.901616 45.023858 
L 413.237602 44.293898 
L 423.351587 43.727213 
L 434.243571 43.305335 
L 434.243571 43.305335 
" clip-path="url(#pd677718e21)" style="fill: none; stroke: #7d03a8; stroke-width: 2.2; stroke-linecap: square"/>
   </g>
   <g id="line2d_57">
    <path d="M 46.022143 260.911101 
L 56.136128 256.540551 
L 65.472114 252.268691 
L 74.8081 247.747047 
L 83.366088 243.368197 
L 91.924075 238.756224 
L 100.482063 233.906931 
L 109.818049 228.347306 
L 119.154035 222.514333 
L 128.490021 216.422288 
L 138.604007 209.552744 
L 149.495991 201.873685 
L 161.165973 193.366532 
L 174.391954 183.435866 
L 189.173932 172.052694 
L 207.845905 157.371398 
L 236.631862 134.400303 
L 264.639821 112.135745 
L 279.421799 100.671795 
L 290.313783 92.484274 
L 299.64977 85.725819 
L 308.207757 79.810265 
L 315.987745 74.722678 
L 322.989735 70.42509 
L 329.213726 66.859806 
L 335.437717 63.558357 
L 340.883709 60.900491 
L 346.329701 58.466906 
L 351.775693 56.261453 
L 357.221685 54.283296 
L 362.667677 52.526995 
L 368.113669 50.982942 
L 374.33766 49.46134 
L 380.56165 48.176413 
L 387.56364 46.981525 
L 394.56563 46.015641 
L 402.345618 45.16676 
L 410.903606 44.453371 
L 421.017591 43.839433 
L 432.687574 43.355106 
L 434.243571 43.30445 
L 434.243571 43.30445 
" clip-path="url(#pd677718e21)" style="fill: none; stroke: #9a169f; stroke-width: 2.2; stroke-linecap: square"/>
   </g>
   <g id="line2d_58">
    <path d="M 46.022143 244.978415 
L 59.248123 240.179594 
L 70.918106 235.708446 
L 81.81009 231.291706 
L 91.924075 226.94418 
L 101.260062 222.693146 
L 110.596048 218.191283 
L 119.154035 213.829135 
L 127.712023 209.232087 
L 136.27001 204.395676 
L 144.827997 199.320696 
L 154.163984 193.519479 
L 163.49997 187.455887 
L 173.613955 180.614018 
L 184.505939 172.96261 
L 196.175922 164.485606 
L 209.401902 154.595862 
L 224.961879 142.678118 
L 249.079844 123.883117 
L 273.197808 105.156967 
L 286.423789 95.165952 
L 296.537774 87.788772 
L 305.095762 81.801994 
L 312.87575 76.621822 
L 319.87774 72.218793 
L 326.101731 68.543532 
L 332.325721 65.11893 
L 338.549712 61.966137 
L 343.995704 59.442754 
L 349.441696 57.145388 
L 354.887688 55.075366 
L 360.33368 53.229313 
L 365.779672 51.599438 
L 372.003663 49.98643 
L 378.227654 48.618649 
L 384.451645 47.471034 
L 391.453634 46.410241 
L 399.233623 45.474004 
L 407.79161 44.684225 
L 417.127597 44.046733 
L 428.019581 43.522554 
L 434.243571 43.302343 
L 434.243571 43.302343 
" clip-path="url(#pd677718e21)" style="fill: none; stroke: #b52f8c; stroke-width: 2.2; stroke-linecap: square"/>
   </g>
   <g id="line2d_59">
    <path d="M 46.022143 227.274801 
L 64.694115 221.202182 
L 80.254092 215.907709 
L 93.480073 211.175659 
L 105.150056 206.771918 
L 116.04204 202.424805 
L 126.156025 198.146823 
L 135.492011 193.963014 
L 144.827997 189.529919 
L 153.385985 185.230881 
L 161.943972 180.695825 
L 170.50196 175.919309 
L 179.059947 170.901486 
L 188.395933 165.159366 
L 197.73192 159.152208 
L 207.845905 152.370672 
L 218.737889 144.788025 
L 231.18587 135.830576 
L 245.967849 124.900947 
L 291.869781 90.734471 
L 301.983766 83.627804 
L 310.541754 77.895792 
L 317.543743 73.451947 
L 324.545733 69.272994 
L 330.769724 65.8116 
L 336.993715 62.612704 
L 342.439707 60.043102 
L 347.885699 57.69575 
L 353.331691 55.573666 
L 358.777683 53.675105 
L 364.223674 51.993751 
L 370.447665 50.324736 
L 376.671656 48.905272 
L 382.895647 47.711158 
L 389.897637 46.604725 
L 397.677625 45.626004 
L 406.235613 44.798739 
L 415.571599 44.129875 
L 426.463583 43.57916 
L 434.243571 43.297338 
L 434.243571 43.297338 
" clip-path="url(#pd677718e21)" style="fill: none; stroke: #cc4778; stroke-width: 2.2; stroke-linecap: square"/>
   </g>
   <g id="line2d_60">
    <path d="M 46.022143 208.700298 
L 74.030102 200.107016 
L 94.258072 193.68523 
L 110.596048 188.27953 
L 124.600027 183.420172 
L 137.048009 178.866535 
L 147.939993 174.654439 
L 158.053978 170.514702 
L 167.389964 166.467987 
L 176.72595 162.179032 
L 185.283938 158.016224 
L 193.841925 153.619314 
L 202.399913 148.981194 
L 210.9579 144.101044 
L 220.293886 138.508513 
L 229.629873 132.652658 
L 239.743858 126.043103 
L 251.413841 118.132659 
L 266.195819 107.812286 
L 295.759775 87.086504 
L 305.87376 80.320322 
L 314.431748 74.87394 
L 321.433737 70.667437 
L 328.435727 66.731225 
L 334.659718 63.49001 
L 340.883709 60.51383 
L 346.329701 58.139011 
L 351.775693 55.983821 
L 357.221685 54.048578 
L 362.667677 52.328852 
L 368.891668 50.615984 
L 375.115658 49.154485 
L 381.339649 47.9215 
L 388.341639 46.776098 
L 395.343629 45.851207 
L 403.123617 45.039225 
L 412.459603 44.304892 
L 422.573589 43.734588 
L 434.243571 43.285518 
L 434.243571 43.285518 
" clip-path="url(#pd677718e21)" style="fill: none; stroke: #de5f65; stroke-width: 2.2; stroke-linecap: square"/>
   </g>
   <g id="line2d_61">
    <path d="M 46.022143 189.736927 
L 93.480073 175.591173 
L 119.154035 167.723161 
L 138.604007 161.536933 
L 154.163984 156.357818 
L 167.389964 151.724289 
L 179.059947 147.403219 
L 189.951931 143.125763 
L 200.065916 138.903302 
L 209.401902 134.761905 
L 218.737889 130.363725 
L 227.295876 126.093261 
L 235.853863 121.589322 
L 245.18985 116.414263 
L 254.525836 110.98403 
L 265.41782 104.371365 
L 278.6438 96.053409 
L 305.87376 78.825816 
L 315.209747 73.234078 
L 322.989735 68.833863 
L 329.991725 65.132137 
L 336.215716 62.08188 
L 342.439707 59.281679 
L 348.663697 56.747235 
L 354.109689 54.753692 
L 359.555681 52.969132 
L 365.779672 51.178814 
L 372.003663 49.640543 
L 378.227654 48.334789 
L 385.229644 47.115001 
L 392.231633 46.125171 
L 400.011622 45.252567 
L 408.569609 44.517486 
L 418.683594 43.883832 
L 430.353577 43.383532 
L 434.243571 43.257992 
L 434.243571 43.257992 
" clip-path="url(#pd677718e21)" style="fill: none; stroke: #ed7a52; stroke-width: 2.2; stroke-linecap: square"/>
   </g>
   <g id="line2d_62">
    <path d="M 46.022143 170.61467 
L 144.049999 141.84493 
L 167.389964 134.7385 
L 184.505939 129.310338 
L 198.509918 124.650858 
L 210.9579 120.278917 
L 221.849884 116.225744 
L 231.963869 112.233059 
L 241.299855 108.32449 
L 250.635842 104.183425 
L 259.971828 99.80245 
L 270.085813 94.794754 
L 280.977797 89.137867 
L 295.759775 81.177722 
L 313.653749 71.567302 
L 322.989735 66.812018 
L 330.769724 63.100598 
L 337.771713 60.011573 
L 343.995704 57.496657 
L 350.219695 55.217758 
L 356.443686 53.1841 
L 362.667677 51.396243 
L 368.891668 49.846771 
L 375.115658 48.521672 
L 382.117648 47.275605 
L 389.119638 46.258697 
L 396.899626 45.35812 
L 405.457614 44.596744 
L 415.571599 43.938758 
L 427.241582 43.418547 
L 434.243571 43.19596 
L 434.243571 43.19596 
" clip-path="url(#pd677718e21)" style="fill: none; stroke: #f89540; stroke-width: 2.2; stroke-linecap: square"/>
   </g>
   <g id="line2d_63">
    <path d="M 46.022143 151.447369 
L 104.372057 134.615093 
L 175.169953 114.462111 
L 205.511908 105.687292 
L 224.183881 100.062624 
L 238.965859 95.38152 
L 251.413841 91.216526 
L 263.083823 87.081393 
L 273.975807 82.99731 
L 285.64579 78.383323 
L 299.64977 72.591409 
L 323.767734 62.57977 
L 333.10372 58.989115 
L 340.883709 56.23718 
L 347.885699 53.990546 
L 354.887688 51.986569 
L 361.889678 50.235942 
L 368.891668 48.736775 
L 375.893657 47.476404 
L 382.895647 46.434241 
L 390.675636 45.501344 
L 399.233623 44.705855 
L 408.569609 44.059327 
L 419.461593 43.526223 
L 432.687574 43.10417 
L 434.243571 43.066604 
L 434.243571 43.066604 
" clip-path="url(#pd677718e21)" style="fill: none; stroke: #fdb52e; stroke-width: 2.2; stroke-linecap: square"/>
   </g>
   <g id="line2d_64">
    <path d="M 46.022143 132.314661 
L 91.924075 119.189057 
L 129.26802 108.73791 
L 161.943972 99.824872 
L 193.063926 91.568375 
L 234.297866 80.889846 
L 265.41782 72.740369 
L 285.64579 67.204548 
L 311.319752 59.902526 
L 327.657728 55.367625 
L 337.771713 52.780417 
L 346.329701 50.802681 
L 354.887688 49.062515 
L 362.667677 47.705551 
L 370.447665 46.56485 
L 379.005653 45.546351 
L 387.56364 44.748697 
L 397.677625 44.043995 
L 408.569609 43.510585 
L 421.79559 43.087966 
L 434.243571 42.841296 
L 434.243571 42.841296 
" clip-path="url(#pd677718e21)" style="fill: none; stroke: #fbd724; stroke-width: 2.2; stroke-linecap: square"/>
   </g>
   <g id="line2d_65">
    <path d="M 218.565 273.251621 
L 300.656146 205.268883 
" clip-path="url(#pd677718e21)" style="fill: none; stroke-dasharray: 6.66,2.88; stroke-dashoffset: 0; stroke: #2d5bff; stroke-width: 1.8"/>
   </g>
   <g id="line2d_66">
    <path d="M 218.565 200.481803 
L 300.656146 176.202254 
" clip-path="url(#pd677718e21)" style="fill: none; stroke-dasharray: 6.66,2.88; stroke-dashoffset: 0; stroke: #e45756; stroke-width: 1.8"/>
   </g>
   <g id="line2d_67">
    <path clip-path="url(#pd677718e21)" style="fill: none; stroke: #1f77b4; stroke-opacity: 0; stroke-width: 1.5; stroke-linecap: square"/>
   </g>
   <g id="patch_3">
    <path d="M 46.022143 297.6 
L 46.022143 38.4 
" style="fill: none; stroke: #000000; stroke-width: 0.8; stroke-linejoin: miter; stroke-linecap: square"/>
   </g>
   <g id="patch_4">
    <path d="M 46.022143 297.6 
L 434.243571 297.6 
" style="fill: none; stroke: #000000; stroke-width: 0.8; stroke-linejoin: miter; stroke-linecap: square"/>
   </g>
   <g id="text_14">
    <!-- $\propto R^{m_\phi}$ -->
    <g style="fill: #e45756" transform="translate(280.241305 186.695058) rotate(-16) scale(0.18 -0.18)">
     <defs>
      <path id="DejaVuSans-221d" d="M 1647 1134 
Q 2163 1134 2472 1884 
Q 2075 2703 1647 2703 
Q 1334 2703 1175 2478 
Q 1006 2238 1006 1919 
Q 1006 1569 1175 1353 
Q 1350 1134 1647 1134 
z
M 3884 1128 
L 3884 716 
L 3644 716 
Q 3416 716 3247 809 
Q 3078 894 2916 1091 
Q 2819 1203 2666 1466 
Q 2456 1091 2272 925 
Q 2044 725 1681 725 
Q 1259 725 981 1041 
Q 688 1372 688 1919 
Q 688 2444 981 2800 
Q 1241 3116 1688 3116 
Q 1916 3116 2084 3022 
Q 2281 2919 2416 2741 
Q 2541 2581 2666 2366 
Q 2875 2741 3059 2906 
Q 3288 3106 3650 3106 
L 3884 3106 
L 3884 2697 
L 3684 2697 
Q 3222 2697 2859 1947 
Q 3256 1128 3684 1128 
L 3884 1128 
z
" transform="scale(0.015625)"/>
      <path id="DejaVuSans-Oblique-52" d="M 1613 4147 
L 1294 2491 
L 2106 2491 
Q 2584 2491 2879 2755 
Q 3175 3019 3175 3444 
Q 3175 3784 2976 3965 
Q 2778 4147 2406 4147 
L 1613 4147 
z
M 2772 2241 
Q 2972 2194 3105 2009 
Q 3238 1825 3413 1275 
L 3809 0 
L 3144 0 
L 2778 1197 
Q 2638 1659 2453 1815 
Q 2269 1972 1888 1972 
L 1191 1972 
L 806 0 
L 172 0 
L 1081 4666 
L 2503 4666 
Q 3150 4666 3495 4373 
Q 3841 4081 3841 3531 
Q 3841 3044 3547 2687 
Q 3253 2331 2772 2241 
z
" transform="scale(0.015625)"/>
      <path id="DejaVuSans-Oblique-6d" d="M 5747 2113 
L 5338 0 
L 4763 0 
L 5166 2094 
Q 5191 2228 5203 2325 
Q 5216 2422 5216 2491 
Q 5216 2772 5059 2928 
Q 4903 3084 4622 3084 
Q 4203 3084 3875 2770 
Q 3547 2456 3450 1953 
L 3066 0 
L 2491 0 
L 2900 2094 
Q 2925 2209 2937 2307 
Q 2950 2406 2950 2484 
Q 2950 2769 2794 2926 
Q 2638 3084 2363 3084 
Q 1938 3084 1609 2770 
Q 1281 2456 1184 1953 
L 800 0 
L 225 0 
L 909 3500 
L 1484 3500 
L 1375 2956 
Q 1609 3263 1923 3423 
Q 2238 3584 2597 3584 
Q 2978 3584 3223 3384 
Q 3469 3184 3519 2828 
Q 3781 3197 4126 3390 
Q 4472 3584 4856 3584 
Q 5306 3584 5551 3325 
Q 5797 3066 5797 2591 
Q 5797 2488 5784 2364 
Q 5772 2241 5747 2113 
z
" transform="scale(0.015625)"/>
      <path id="DejaVuSans-Oblique-3d5" d="M 2991 4863 
L 2738 3572 
Q 3363 3572 3684 3094 
Q 4016 2606 3850 1747 
Q 3681 888 3159 400 
Q 2653 -78 2028 -78 
L 1784 -1331 
L 1213 -1331 
L 1456 -78 
Q 834 -78 509 400 
Q 178 888 347 1747 
Q 513 2606 1034 3094 
Q 1544 3572 2166 3572 
L 2419 4863 
L 2991 4863 
z
M 2128 434 
Q 2481 434 2784 756 
Q 3116 1116 3244 1747 
Q 3369 2372 3169 2738 
Q 2991 3059 2638 3059 
L 2128 434 
z
M 1556 434 
L 2066 3059 
Q 1716 3059 1413 2738 
Q 1072 2372 953 1747 
Q 834 1116 1028 756 
Q 1203 434 1556 434 
z
" transform="scale(0.015625)"/>
     </defs>
     <use xlink:href="#DejaVuSans-221d" transform="translate(19.482422 0.51875)"/>
     <use xlink:href="#DejaVuSans-Oblique-52" transform="translate(110.400391 0.51875)"/>
     <use xlink:href="#DejaVuSans-Oblique-6d" transform="translate(186.899583 38.8) scale(0.7)"/>
     <use xlink:href="#DejaVuSans-Oblique-3d5" transform="translate(255.08806 27.315625) scale(0.49)"/>
    </g>
   </g>
   <g id="text_15">
    <!-- $\propto R^{m_i}$ -->
    <g style="fill: #2d5bff" transform="translate(289.730811 136.122124) rotate(-33) scale(0.18 -0.18)">
     <defs>
      <path id="DejaVuSans-Oblique-69" d="M 1172 4863 
L 1747 4863 
L 1606 4134 
L 1031 4134 
L 1172 4863 
z
M 909 3500 
L 1484 3500 
L 800 0 
L 225 0 
L 909 3500 
z
" transform="scale(0.015625)"/>
     </defs>
     <use xlink:href="#DejaVuSans-221d" transform="translate(19.482422 0.51875)"/>
     <use xlink:href="#DejaVuSans-Oblique-52" transform="translate(110.400391 0.51875)"/>
     <use xlink:href="#DejaVuSans-Oblique-6d" transform="translate(186.899583 38.8) scale(0.7)"/>
     <use xlink:href="#DejaVuSans-Oblique-69" transform="translate(255.08806 27.315625) scale(0.49)"/>
    </g>
   </g>
   <g id="text_16">
    <!-- $D_u(R)/2=1-\xi_u$ -->
    <g transform="translate(7.2 25.44) scale(0.24 -0.24)">
     <defs>
      <path id="DejaVuSans-Oblique-44" d="M 1081 4666 
L 2438 4666 
Q 3519 4666 4070 4208 
Q 4622 3750 4622 2847 
Q 4622 2250 4412 1698 
Q 4203 1147 3834 769 
Q 3463 381 2891 190 
Q 2319 0 1538 0 
L 172 0 
L 1081 4666 
z
M 1613 4147 
L 909 519 
L 1734 519 
Q 2794 519 3375 1128 
Q 3956 1738 3956 2847 
Q 3956 3519 3581 3833 
Q 3206 4147 2406 4147 
L 1613 4147 
z
" transform="scale(0.015625)"/>
      <path id="DejaVuSans-Oblique-75" d="M 428 1388 
L 838 3500 
L 1416 3500 
L 1006 1409 
Q 975 1256 961 1147 
Q 947 1038 947 966 
Q 947 700 1109 554 
Q 1272 409 1569 409 
Q 2031 409 2368 721 
Q 2706 1034 2809 1563 
L 3194 3500 
L 3769 3500 
L 3091 0 
L 2516 0 
L 2631 550 
Q 2388 244 2052 76 
Q 1716 -91 1338 -91 
Q 878 -91 622 161 
Q 366 413 366 863 
Q 366 956 381 1097 
Q 397 1238 428 1388 
z
" transform="scale(0.015625)"/>
      <path id="DejaVuSans-28" d="M 1984 4856 
Q 1566 4138 1362 3434 
Q 1159 2731 1159 2009 
Q 1159 1288 1364 580 
Q 1569 -128 1984 -844 
L 1484 -844 
Q 1016 -109 783 600 
Q 550 1309 550 2009 
Q 550 2706 781 3412 
Q 1013 4119 1484 4856 
L 1984 4856 
z
" transform="scale(0.015625)"/>
      <path id="DejaVuSans-29" d="M 513 4856 
L 1013 4856 
Q 1481 4119 1714 3412 
Q 1947 2706 1947 2009 
Q 1947 1309 1714 600 
Q 1481 -109 1013 -844 
L 513 -844 
Q 928 -128 1133 580 
Q 1338 1288 1338 2009 
Q 1338 2731 1133 3434 
Q 928 4138 513 4856 
z
" transform="scale(0.015625)"/>
      <path id="DejaVuSans-2f" d="M 1625 4666 
L 2156 4666 
L 531 -594 
L 0 -594 
L 1625 4666 
z
" transform="scale(0.015625)"/>
      <path id="DejaVuSans-3d" d="M 678 2906 
L 4684 2906 
L 4684 2381 
L 678 2381 
L 678 2906 
z
M 678 1631 
L 4684 1631 
L 4684 1100 
L 678 1100 
L 678 1631 
z
" transform="scale(0.015625)"/>
      <path id="DejaVuSans-Oblique-3be" d="M 2016 397 
Q 2428 394 2628 159 
Q 2844 -88 2772 -463 
Q 2700 -822 2422 -1072 
Q 2119 -1344 1609 -1344 
Q 1656 -1109 1700 -872 
Q 1913 -888 2072 -750 
Q 2194 -641 2216 -525 
Q 2247 -359 2175 -222 
Q 2100 -91 1922 -91 
Q -25 -91 241 1275 
Q 422 2213 1516 2488 
Q 663 2600 822 3413 
Q 941 4028 1678 4284 
L 1028 4284 
L 1141 4863 
L 3606 4863 
L 3494 4284 
Q 1528 4284 1350 3375 
Q 1234 2778 2881 2750 
L 2778 2219 
Q 1009 2288 819 1275 
Q 659 428 2016 397 
z
" transform="scale(0.015625)"/>
     </defs>
     <use xlink:href="#DejaVuSans-Oblique-44" transform="translate(0 0.015625)"/>
     <use xlink:href="#DejaVuSans-Oblique-75" transform="translate(77.001953 -16.390625) scale(0.7)"/>
     <use xlink:href="#DejaVuSans-28" transform="translate(124.101562 0.015625)"/>
     <use xlink:href="#DejaVuSans-Oblique-52" transform="translate(163.115234 0.015625)"/>
     <use xlink:href="#DejaVuSans-29" transform="translate(232.597656 0.015625)"/>
     <use xlink:href="#DejaVuSans-2f" transform="translate(271.611328 0.015625)"/>
     <use xlink:href="#DejaVuSans-32" transform="translate(301.677734 0.015625)"/>
     <use xlink:href="#DejaVuSans-3d" transform="translate(384.783203 0.015625)"/>
     <use xlink:href="#DejaVuSans-31" transform="translate(488.054688 0.015625)"/>
     <use xlink:href="#DejaVuSans-2212" transform="translate(571.160156 0.015625)"/>
     <use xlink:href="#DejaVuSans-Oblique-3be" transform="translate(674.431641 0.015625)"/>
     <use xlink:href="#DejaVuSans-Oblique-75" transform="translate(730.193359 -16.390625) scale(0.7)"/>
    </g>
   </g>
   <g id="text_17">
    <!-- $R/r_i$ -->
    <g transform="translate(445.890214 302.784) scale(0.22 -0.22)">
     <defs>
      <path id="DejaVuSans-Oblique-72" d="M 2853 2969 
Q 2766 3016 2653 3041 
Q 2541 3066 2413 3066 
Q 1953 3066 1609 2717 
Q 1266 2369 1153 1784 
L 800 0 
L 225 0 
L 909 3500 
L 1484 3500 
L 1375 2956 
Q 1603 3259 1920 3421 
Q 2238 3584 2597 3584 
Q 2691 3584 2781 3573 
Q 2872 3563 2963 3538 
L 2853 2969 
z
" transform="scale(0.015625)"/>
     </defs>
     <use xlink:href="#DejaVuSans-Oblique-52" transform="translate(0 0.09375)"/>
     <use xlink:href="#DejaVuSans-2f" transform="translate(69.482422 0.09375)"/>
     <use xlink:href="#DejaVuSans-Oblique-72" transform="translate(103.173828 0.09375)"/>
     <use xlink:href="#DejaVuSans-Oblique-69" transform="translate(144.287109 -16.3125) scale(0.7)"/>
    </g>
   </g>
   <g id="text_18">
    <!-- $m_i=0.7,\ m_\phi=0.25$ -->
    <g transform="translate(57.668786 59.136) scale(0.15 -0.15)">
     <defs>
      <path id="DejaVuSans-2e" d="M 684 794 
L 1344 794 
L 1344 0 
L 684 0 
L 684 794 
z
" transform="scale(0.015625)"/>
      <path id="DejaVuSans-2c" d="M 750 794 
L 1409 794 
L 1409 256 
L 897 -744 
L 494 -744 
L 750 256 
L 750 794 
z
" transform="scale(0.015625)"/>
     </defs>
     <use xlink:href="#DejaVuSans-Oblique-6d" transform="translate(0 0.78125)"/>
     <use xlink:href="#DejaVuSans-Oblique-69" transform="translate(97.412109 -15.625) scale(0.7)"/>
     <use xlink:href="#DejaVuSans-3d" transform="translate(139.077148 0.78125)"/>
     <use xlink:href="#DejaVuSans-30" transform="translate(242.348633 0.78125)"/>
     <use xlink:href="#DejaVuSans-2e" transform="translate(305.97168 0.78125)"/>
     <use xlink:href="#DejaVuSans-37" transform="translate(330.008789 0.78125)"/>
     <use xlink:href="#DejaVuSans-2c" transform="translate(393.631836 0.78125)"/>
     <use xlink:href="#DejaVuSans-Oblique-6d" transform="translate(477.371746 0.78125)"/>
     <use xlink:href="#DejaVuSans-Oblique-3d5" transform="translate(574.783855 -15.625) scale(0.7)"/>
     <use xlink:href="#DejaVuSans-3d" transform="translate(643.17741 0.78125)"/>
     <use xlink:href="#DejaVuSans-30" transform="translate(746.448894 0.78125)"/>
     <use xlink:href="#DejaVuSans-2e" transform="translate(810.071941 0.78125)"/>
     <use xlink:href="#DejaVuSans-32" transform="translate(836.35905 0.78125)"/>
     <use xlink:href="#DejaVuSans-35" transform="translate(899.982097 0.78125)"/>
    </g>
   </g>
   <g id="text_19">
    <!-- $r_\phi/r_i=1$ -->
    <g transform="translate(57.668786 79.872) scale(0.15 -0.15)">
     <use xlink:href="#DejaVuSans-Oblique-72" transform="translate(0 0.09375)"/>
     <use xlink:href="#DejaVuSans-Oblique-3d5" transform="translate(41.113281 -16.3125) scale(0.7)"/>
     <use xlink:href="#DejaVuSans-2f" transform="translate(90.024414 0.09375)"/>
     <use xlink:href="#DejaVuSans-Oblique-72" transform="translate(123.71582 0.09375)"/>
     <use xlink:href="#DejaVuSans-Oblique-69" transform="translate(164.829102 -16.3125) scale(0.7)"/>
     <use xlink:href="#DejaVuSans-3d" transform="translate(206.494141 0.09375)"/>
     <use xlink:href="#DejaVuSans-31" transform="translate(309.765625 0.09375)"/>
    </g>
   </g>
   <g id="text_20">
    <!-- $\xi_u=\xi_i\,e^{-\eta^2\hat D_\Phi}$ -->
    <g transform="translate(57.668786 100.608) scale(0.15 -0.15)">
     <defs>
      <path id="DejaVuSans-Oblique-65" d="M 3078 2063 
Q 3088 2113 3092 2166 
Q 3097 2219 3097 2272 
Q 3097 2653 2873 2875 
Q 2650 3097 2266 3097 
Q 1838 3097 1509 2826 
Q 1181 2556 1013 2059 
L 3078 2063 
z
M 3578 1613 
L 903 1613 
Q 884 1494 878 1425 
Q 872 1356 872 1306 
Q 872 872 1139 634 
Q 1406 397 1894 397 
Q 2269 397 2603 481 
Q 2938 566 3225 728 
L 3116 159 
Q 2806 34 2476 -28 
Q 2147 -91 1806 -91 
Q 1078 -91 686 257 
Q 294 606 294 1247 
Q 294 1794 489 2264 
Q 684 2734 1063 3103 
Q 1306 3334 1642 3459 
Q 1978 3584 2356 3584 
Q 2950 3584 3301 3228 
Q 3653 2872 3653 2272 
Q 3653 2128 3634 1964 
Q 3616 1800 3578 1613 
z
" transform="scale(0.015625)"/>
      <path id="DejaVuSans-Oblique-3b7" d="M 3703 2113 
L 3034 -1331 
L 2459 -1331 
L 3125 2094 
Q 3222 2591 3075 2838 
Q 2931 3084 2544 3084 
Q 2078 3084 1750 2788 
Q 1425 2491 1325 1978 
L 941 0 
L 363 0 
L 1044 3500 
L 1622 3500 
L 1516 2956 
Q 1781 3272 2094 3428 
Q 2403 3584 2769 3584 
Q 3372 3584 3609 3213 
Q 3844 2838 3703 2113 
z
" transform="scale(0.015625)"/>
      <path id="DejaVuSans-302" d="M -1831 5119 
L -1369 5119 
L -603 3944 
L -1038 3944 
L -1600 4709 
L -2163 3944 
L -2597 3944 
L -1831 5119 
z
M -1600 3584 
L -1600 3584 
z
" transform="scale(0.015625)"/>
      <path id="DejaVuSans-3a6" d="M 2206 3644 
Q 1738 3578 1431 3306 
Q 1025 2947 1025 2328 
Q 1025 1713 1431 1353 
Q 1738 1081 2206 1016 
L 2206 3644 
z
M 2838 1016 
Q 3306 1081 3613 1353 
Q 4013 1713 4013 2328 
Q 4013 2947 3613 3306 
Q 3306 3578 2838 3644 
L 2838 1016 
z
M 2206 494 
Q 1444 563 950 981 
Q 359 1481 359 2328 
Q 359 3175 950 3678 
Q 1441 4100 2206 4169 
L 2206 4666 
L 2838 4666 
L 2838 4169 
Q 3600 4097 4091 3678 
Q 4678 3175 4678 2328 
Q 4678 1484 4091 981 
Q 3600 563 2838 491 
L 2838 0 
L 2206 0 
L 2206 494 
z
" transform="scale(0.015625)"/>
     </defs>
     <use xlink:href="#DejaVuSans-Oblique-3be" transform="translate(0 0.145313)"/>
     <use xlink:href="#DejaVuSans-Oblique-75" transform="translate(55.761719 -16.260938) scale(0.7)"/>
     <use xlink:href="#DejaVuSans-3d" transform="translate(122.34375 0.145313)"/>
     <use xlink:href="#DejaVuSans-Oblique-3be" transform="translate(225.615234 0.145313)"/>
     <use xlink:href="#DejaVuSans-Oblique-69" transform="translate(281.376953 -16.260938) scale(0.7)"/>
     <use xlink:href="#DejaVuSans-Oblique-65" transform="translate(319.795247 0.145313)"/>
     <use xlink:href="#DejaVuSans-2212" transform="translate(385.96858 38.426563) scale(0.7)"/>
     <use xlink:href="#DejaVuSans-Oblique-3b7" transform="translate(444.620924 38.426563) scale(0.7)"/>
     <use xlink:href="#DejaVuSans-32" transform="translate(492.241085 65.223438) scale(0.49)"/>
     <use xlink:href="#DejaVuSans-302" transform="translate(572.904659 59.007812) scale(0.7)"/>
     <use xlink:href="#DejaVuSans-Oblique-44" transform="translate(525.330441 38.426563) scale(0.7)"/>
     <use xlink:href="#DejaVuSans-3a6" transform="translate(579.90173 26.942188) scale(0.49)"/>
    </g>
   </g>
   <g id="legend_1">
    <g id="line2d_68">
     <path d="M 302.603571 103.69875 
L 314.603571 103.69875 
L 326.603571 103.69875 
" style="fill: none; stroke: #38049a; stroke-width: 2.2; stroke-linecap: square"/>
    </g>
    <g id="text_21">
     <!-- $\eta=0$ -->
     <g transform="translate(336.203571 107.89875) scale(0.12 -0.12)">
      <use xlink:href="#DejaVuSans-Oblique-3b7" transform="translate(0 0.78125)"/>
      <use xlink:href="#DejaVuSans-3d" transform="translate(82.861328 0.78125)"/>
      <use xlink:href="#DejaVuSans-30" transform="translate(186.132812 0.78125)"/>
     </g>
    </g>
    <g id="line2d_69">
     <path d="M 302.603571 121.336875 
L 314.603571 121.336875 
L 326.603571 121.336875 
" style="fill: none; stroke: #5b01a5; stroke-width: 2.2; stroke-linecap: square"/>
    </g>
    <g id="text_22">
     <!-- $\eta=0.02$ -->
     <g transform="translate(336.203571 125.536875) scale(0.12 -0.12)">
      <use xlink:href="#DejaVuSans-Oblique-3b7" transform="translate(0 0.78125)"/>
      <use xlink:href="#DejaVuSans-3d" transform="translate(82.861328 0.78125)"/>
      <use xlink:href="#DejaVuSans-30" transform="translate(186.132812 0.78125)"/>
      <use xlink:href="#DejaVuSans-2e" transform="translate(249.755859 0.78125)"/>
      <use xlink:href="#DejaVuSans-30" transform="translate(281.542969 0.78125)"/>
      <use xlink:href="#DejaVuSans-32" transform="translate(345.166016 0.78125)"/>
     </g>
    </g>
    <g id="line2d_70">
     <path d="M 302.603571 138.975 
L 314.603571 138.975 
L 326.603571 138.975 
" style="fill: none; stroke: #7d03a8; stroke-width: 2.2; stroke-linecap: square"/>
    </g>
    <g id="text_23">
     <!-- $\eta=0.030889$ -->
     <g transform="translate(336.203571 143.175) scale(0.12 -0.12)">
      <defs>
       <path id="DejaVuSans-38" d="M 2034 2216 
Q 1584 2216 1326 1975 
Q 1069 1734 1069 1313 
Q 1069 891 1326 650 
Q 1584 409 2034 409 
Q 2484 409 2743 651 
Q 3003 894 3003 1313 
Q 3003 1734 2745 1975 
Q 2488 2216 2034 2216 
z
M 1403 2484 
Q 997 2584 770 2862 
Q 544 3141 544 3541 
Q 544 4100 942 4425 
Q 1341 4750 2034 4750 
Q 2731 4750 3128 4425 
Q 3525 4100 3525 3541 
Q 3525 3141 3298 2862 
Q 3072 2584 2669 2484 
Q 3125 2378 3379 2068 
Q 3634 1759 3634 1313 
Q 3634 634 3220 271 
Q 2806 -91 2034 -91 
Q 1263 -91 848 271 
Q 434 634 434 1313 
Q 434 1759 690 2068 
Q 947 2378 1403 2484 
z
M 1172 3481 
Q 1172 3119 1398 2916 
Q 1625 2713 2034 2713 
Q 2441 2713 2670 2916 
Q 2900 3119 2900 3481 
Q 2900 3844 2670 4047 
Q 2441 4250 2034 4250 
Q 1625 4250 1398 4047 
Q 1172 3844 1172 3481 
z
" transform="scale(0.015625)"/>
       <path id="DejaVuSans-39" d="M 703 97 
L 703 672 
Q 941 559 1184 500 
Q 1428 441 1663 441 
Q 2288 441 2617 861 
Q 2947 1281 2994 2138 
Q 2813 1869 2534 1725 
Q 2256 1581 1919 1581 
Q 1219 1581 811 2004 
Q 403 2428 403 3163 
Q 403 3881 828 4315 
Q 1253 4750 1959 4750 
Q 2769 4750 3195 4129 
Q 3622 3509 3622 2328 
Q 3622 1225 3098 567 
Q 2575 -91 1691 -91 
Q 1453 -91 1209 -44 
Q 966 3 703 97 
z
M 1959 2075 
Q 2384 2075 2632 2365 
Q 2881 2656 2881 3163 
Q 2881 3666 2632 3958 
Q 2384 4250 1959 4250 
Q 1534 4250 1286 3958 
Q 1038 3666 1038 3163 
Q 1038 2656 1286 2365 
Q 1534 2075 1959 2075 
z
" transform="scale(0.015625)"/>
      </defs>
      <use xlink:href="#DejaVuSans-Oblique-3b7" transform="translate(0 0.78125)"/>
      <use xlink:href="#DejaVuSans-3d" transform="translate(82.861328 0.78125)"/>
      <use xlink:href="#DejaVuSans-30" transform="translate(186.132812 0.78125)"/>
      <use xlink:href="#DejaVuSans-2e" transform="translate(249.755859 0.78125)"/>
      <use xlink:href="#DejaVuSans-30" transform="translate(281.542969 0.78125)"/>
      <use xlink:href="#DejaVuSans-33" transform="translate(345.166016 0.78125)"/>
      <use xlink:href="#DejaVuSans-30" transform="translate(408.789062 0.78125)"/>
      <use xlink:href="#DejaVuSans-38" transform="translate(472.412109 0.78125)"/>
      <use xlink:href="#DejaVuSans-38" transform="translate(536.035156 0.78125)"/>
      <use xlink:href="#DejaVuSans-39" transform="translate(599.658203 0.78125)"/>
     </g>
    </g>
    <g id="line2d_71">
     <path d="M 302.603571 156.613125 
L 314.603571 156.613125 
L 326.603571 156.613125 
" style="fill: none; stroke: #9a169f; stroke-width: 2.2; stroke-linecap: square"/>
    </g>
    <g id="text_24">
     <!-- $\eta=0.0477066$ -->
     <g transform="translate(336.203571 160.813125) scale(0.12 -0.12)">
      <use xlink:href="#DejaVuSans-Oblique-3b7" transform="translate(0 0.78125)"/>
      <use xlink:href="#DejaVuSans-3d" transform="translate(82.861328 0.78125)"/>
      <use xlink:href="#DejaVuSans-30" transform="translate(186.132812 0.78125)"/>
      <use xlink:href="#DejaVuSans-2e" transform="translate(249.755859 0.78125)"/>
      <use xlink:href="#DejaVuSans-30" transform="translate(281.542969 0.78125)"/>
      <use xlink:href="#DejaVuSans-34" transform="translate(345.166016 0.78125)"/>
      <use xlink:href="#DejaVuSans-37" transform="translate(408.789062 0.78125)"/>
      <use xlink:href="#DejaVuSans-37" transform="translate(470.662109 0.78125)"/>
      <use xlink:href="#DejaVuSans-30" transform="translate(534.285156 0.78125)"/>
      <use xlink:href="#DejaVuSans-36" transform="translate(597.908203 0.78125)"/>
      <use xlink:href="#DejaVuSans-36" transform="translate(661.53125 0.78125)"/>
     </g>
    </g>
    <g id="line2d_72">
     <path d="M 302.603571 174.25125 
L 314.603571 174.25125 
L 326.603571 174.25125 
" style="fill: none; stroke: #b52f8c; stroke-width: 2.2; stroke-linecap: square"/>
    </g>
    <g id="text_25">
     <!-- $\eta=0.0736806$ -->
     <g transform="translate(336.203571 178.45125) scale(0.12 -0.12)">
      <use xlink:href="#DejaVuSans-Oblique-3b7" transform="translate(0 0.78125)"/>
      <use xlink:href="#DejaVuSans-3d" transform="translate(82.861328 0.78125)"/>
      <use xlink:href="#DejaVuSans-30" transform="translate(186.132812 0.78125)"/>
      <use xlink:href="#DejaVuSans-2e" transform="translate(249.755859 0.78125)"/>
      <use xlink:href="#DejaVuSans-30" transform="translate(281.542969 0.78125)"/>
      <use xlink:href="#DejaVuSans-37" transform="translate(345.166016 0.78125)"/>
      <use xlink:href="#DejaVuSans-33" transform="translate(408.789062 0.78125)"/>
      <use xlink:href="#DejaVuSans-36" transform="translate(472.412109 0.78125)"/>
      <use xlink:href="#DejaVuSans-38" transform="translate(536.035156 0.78125)"/>
      <use xlink:href="#DejaVuSans-30" transform="translate(599.658203 0.78125)"/>
      <use xlink:href="#DejaVuSans-36" transform="translate(663.28125 0.78125)"/>
     </g>
    </g>
    <g id="line2d_73">
     <path d="M 302.603571 191.889375 
L 314.603571 191.889375 
L 326.603571 191.889375 
" style="fill: none; stroke: #cc4778; stroke-width: 2.2; stroke-linecap: square"/>
    </g>
    <g id="text_26">
     <!-- $\eta=0.113796$ -->
     <g transform="translate(336.203571 196.089375) scale(0.12 -0.12)">
      <use xlink:href="#DejaVuSans-Oblique-3b7" transform="translate(0 0.78125)"/>
      <use xlink:href="#DejaVuSans-3d" transform="translate(82.861328 0.78125)"/>
      <use xlink:href="#DejaVuSans-30" transform="translate(186.132812 0.78125)"/>
      <use xlink:href="#DejaVuSans-2e" transform="translate(249.755859 0.78125)"/>
      <use xlink:href="#DejaVuSans-31" transform="translate(281.542969 0.78125)"/>
      <use xlink:href="#DejaVuSans-31" transform="translate(345.166016 0.78125)"/>
      <use xlink:href="#DejaVuSans-33" transform="translate(408.789062 0.78125)"/>
      <use xlink:href="#DejaVuSans-37" transform="translate(472.412109 0.78125)"/>
      <use xlink:href="#DejaVuSans-39" transform="translate(536.035156 0.78125)"/>
      <use xlink:href="#DejaVuSans-36" transform="translate(599.658203 0.78125)"/>
     </g>
    </g>
    <g id="line2d_74">
     <path d="M 302.603571 209.5275 
L 314.603571 209.5275 
L 326.603571 209.5275 
" style="fill: none; stroke: #de5f65; stroke-width: 2.2; stroke-linecap: square"/>
    </g>
    <g id="text_27">
     <!-- $\eta=0.175753$ -->
     <g transform="translate(336.203571 213.7275) scale(0.12 -0.12)">
      <use xlink:href="#DejaVuSans-Oblique-3b7" transform="translate(0 0.78125)"/>
      <use xlink:href="#DejaVuSans-3d" transform="translate(82.861328 0.78125)"/>
      <use xlink:href="#DejaVuSans-30" transform="translate(186.132812 0.78125)"/>
      <use xlink:href="#DejaVuSans-2e" transform="translate(249.755859 0.78125)"/>
      <use xlink:href="#DejaVuSans-31" transform="translate(281.542969 0.78125)"/>
      <use xlink:href="#DejaVuSans-37" transform="translate(345.166016 0.78125)"/>
      <use xlink:href="#DejaVuSans-35" transform="translate(408.789062 0.78125)"/>
      <use xlink:href="#DejaVuSans-37" transform="translate(465.162109 0.78125)"/>
      <use xlink:href="#DejaVuSans-35" transform="translate(528.785156 0.78125)"/>
      <use xlink:href="#DejaVuSans-33" transform="translate(592.408203 0.78125)"/>
     </g>
    </g>
    <g id="line2d_75">
     <path d="M 302.603571 227.165625 
L 314.603571 227.165625 
L 326.603571 227.165625 
" style="fill: none; stroke: #ed7a52; stroke-width: 2.2; stroke-linecap: square"/>
    </g>
    <g id="text_28">
     <!-- $\eta=0.271442$ -->
     <g transform="translate(336.203571 231.365625) scale(0.12 -0.12)">
      <use xlink:href="#DejaVuSans-Oblique-3b7" transform="translate(0 0.78125)"/>
      <use xlink:href="#DejaVuSans-3d" transform="translate(82.861328 0.78125)"/>
      <use xlink:href="#DejaVuSans-30" transform="translate(186.132812 0.78125)"/>
      <use xlink:href="#DejaVuSans-2e" transform="translate(249.755859 0.78125)"/>
      <use xlink:href="#DejaVuSans-32" transform="translate(276.042969 0.78125)"/>
      <use xlink:href="#DejaVuSans-37" transform="translate(339.666016 0.78125)"/>
      <use xlink:href="#DejaVuSans-31" transform="translate(403.289062 0.78125)"/>
      <use xlink:href="#DejaVuSans-34" transform="translate(466.912109 0.78125)"/>
      <use xlink:href="#DejaVuSans-34" transform="translate(530.535156 0.78125)"/>
      <use xlink:href="#DejaVuSans-32" transform="translate(594.158203 0.78125)"/>
     </g>
    </g>
    <g id="line2d_76">
     <path d="M 302.603571 244.80375 
L 314.603571 244.80375 
L 326.603571 244.80375 
" style="fill: none; stroke: #f89540; stroke-width: 2.2; stroke-linecap: square"/>
    </g>
    <g id="text_29">
     <!-- $\eta=0.419229$ -->
     <g transform="translate(336.203571 249.00375) scale(0.12 -0.12)">
      <use xlink:href="#DejaVuSans-Oblique-3b7" transform="translate(0 0.78125)"/>
      <use xlink:href="#DejaVuSans-3d" transform="translate(82.861328 0.78125)"/>
      <use xlink:href="#DejaVuSans-30" transform="translate(186.132812 0.78125)"/>
      <use xlink:href="#DejaVuSans-2e" transform="translate(249.755859 0.78125)"/>
      <use xlink:href="#DejaVuSans-34" transform="translate(281.542969 0.78125)"/>
      <use xlink:href="#DejaVuSans-31" transform="translate(345.166016 0.78125)"/>
      <use xlink:href="#DejaVuSans-39" transform="translate(408.789062 0.78125)"/>
      <use xlink:href="#DejaVuSans-32" transform="translate(470.662109 0.78125)"/>
      <use xlink:href="#DejaVuSans-32" transform="translate(534.285156 0.78125)"/>
      <use xlink:href="#DejaVuSans-39" transform="translate(596.158203 0.78125)"/>
     </g>
    </g>
    <g id="line2d_77">
     <path d="M 302.603571 262.441875 
L 314.603571 262.441875 
L 326.603571 262.441875 
" style="fill: none; stroke: #fdb52e; stroke-width: 2.2; stroke-linecap: square"/>
    </g>
    <g id="text_30">
     <!-- $\eta=0.647479$ -->
     <g transform="translate(336.203571 266.641875) scale(0.12 -0.12)">
      <use xlink:href="#DejaVuSans-Oblique-3b7" transform="translate(0 0.78125)"/>
      <use xlink:href="#DejaVuSans-3d" transform="translate(82.861328 0.78125)"/>
      <use xlink:href="#DejaVuSans-30" transform="translate(186.132812 0.78125)"/>
      <use xlink:href="#DejaVuSans-2e" transform="translate(249.755859 0.78125)"/>
      <use xlink:href="#DejaVuSans-36" transform="translate(281.542969 0.78125)"/>
      <use xlink:href="#DejaVuSans-34" transform="translate(345.166016 0.78125)"/>
      <use xlink:href="#DejaVuSans-37" transform="translate(408.789062 0.78125)"/>
      <use xlink:href="#DejaVuSans-34" transform="translate(472.412109 0.78125)"/>
      <use xlink:href="#DejaVuSans-37" transform="translate(536.035156 0.78125)"/>
      <use xlink:href="#DejaVuSans-39" transform="translate(599.658203 0.78125)"/>
     </g>
    </g>
    <g id="line2d_78">
     <path d="M 302.603571 280.08 
L 314.603571 280.08 
L 326.603571 280.08 
" style="fill: none; stroke: #fbd724; stroke-width: 2.2; stroke-linecap: square"/>
    </g>
    <g id="text_31">
     <!-- $\eta=1$ -->
     <g transform="translate(336.203571 284.28) scale(0.12 -0.12)">
      <use xlink:href="#DejaVuSans-Oblique-3b7" transform="translate(0 0.09375)"/>
      <use xlink:href="#DejaVuSans-3d" transform="translate(82.861328 0.09375)"/>
      <use xlink:href="#DejaVuSans-31" transform="translate(186.132812 0.09375)"/>
     </g>
    </g>
   </g>
  </g>
  <g id="axes_2">
   <g id="patch_5">
    <path d="M 527.416714 297.6 
L 915.638143 297.6 
L 915.638143 38.4 
L 527.416714 38.4 
z
" style="fill: #ffffff"/>
   </g>
   <g id="matplotlib.axis_3">
    <g id="xtick_11">
     <g id="line2d_79">
      <g>
       <use xlink:href="#m34923d7ce9" x="527.416714" y="297.6" style="stroke: #000000; stroke-width: 0.8"/>
      </g>
     </g>
     <g id="text_32">
      <!-- $\mathdefault{10^{-7}}$ -->
      <g transform="translate(512.141714 310.977969) scale(0.13 -0.13)">
       <use xlink:href="#DejaVuSans-31" transform="translate(0 0.684375)"/>
       <use xlink:href="#DejaVuSans-30" transform="translate(63.623047 0.684375)"/>
       <use xlink:href="#DejaVuSans-2212" transform="translate(128.203125 38.965625) scale(0.7)"/>
       <use xlink:href="#DejaVuSans-37" transform="translate(186.855469 38.965625) scale(0.7)"/>
      </g>
     </g>
    </g>
    <g id="xtick_12">
     <g id="line2d_80">
      <g>
       <use xlink:href="#m34923d7ce9" x="570.552429" y="297.6" style="stroke: #000000; stroke-width: 0.8"/>
      </g>
     </g>
     <g id="text_33">
      <!-- $\mathdefault{10^{-6}}$ -->
      <g transform="translate(555.277429 310.977969) scale(0.13 -0.13)">
       <use xlink:href="#DejaVuSans-31" transform="translate(0 0.765625)"/>
       <use xlink:href="#DejaVuSans-30" transform="translate(63.623047 0.765625)"/>
       <use xlink:href="#DejaVuSans-2212" transform="translate(128.203125 39.046875) scale(0.7)"/>
       <use xlink:href="#DejaVuSans-36" transform="translate(186.855469 39.046875) scale(0.7)"/>
      </g>
     </g>
    </g>
    <g id="xtick_13">
     <g id="line2d_81">
      <g>
       <use xlink:href="#m34923d7ce9" x="613.688143" y="297.6" style="stroke: #000000; stroke-width: 0.8"/>
      </g>
     </g>
     <g id="text_34">
      <!-- $\mathdefault{10^{-5}}$ -->
      <g transform="translate(598.413143 310.977969) scale(0.13 -0.13)">
       <use xlink:href="#DejaVuSans-31" transform="translate(0 0.684375)"/>
       <use xlink:href="#DejaVuSans-30" transform="translate(63.623047 0.684375)"/>
       <use xlink:href="#DejaVuSans-2212" transform="translate(128.203125 38.965625) scale(0.7)"/>
       <use xlink:href="#DejaVuSans-35" transform="translate(186.855469 38.965625) scale(0.7)"/>
      </g>
     </g>
    </g>
    <g id="xtick_14">
     <g id="line2d_82">
      <g>
       <use xlink:href="#m34923d7ce9" x="656.823857" y="297.6" style="stroke: #000000; stroke-width: 0.8"/>
      </g>
     </g>
     <g id="text_35">
      <!-- $\mathdefault{10^{-4}}$ -->
      <g transform="translate(641.548857 310.977969) scale(0.13 -0.13)">
       <use xlink:href="#DejaVuSans-31" transform="translate(0 0.684375)"/>
       <use xlink:href="#DejaVuSans-30" transform="translate(63.623047 0.684375)"/>
       <use xlink:href="#DejaVuSans-2212" transform="translate(128.203125 38.965625) scale(0.7)"/>
       <use xlink:href="#DejaVuSans-34" transform="translate(186.855469 38.965625) scale(0.7)"/>
      </g>
     </g>
    </g>
    <g id="xtick_15">
     <g id="line2d_83">
      <g>
       <use xlink:href="#m34923d7ce9" x="699.959571" y="297.6" style="stroke: #000000; stroke-width: 0.8"/>
      </g>
     </g>
     <g id="text_36">
      <!-- $\mathdefault{10^{-3}}$ -->
      <g transform="translate(684.684571 310.977969) scale(0.13 -0.13)">
       <use xlink:href="#DejaVuSans-31" transform="translate(0 0.765625)"/>
       <use xlink:href="#DejaVuSans-30" transform="translate(63.623047 0.765625)"/>
       <use xlink:href="#DejaVuSans-2212" transform="translate(128.203125 39.046875) scale(0.7)"/>
       <use xlink:href="#DejaVuSans-33" transform="translate(186.855469 39.046875) scale(0.7)"/>
      </g>
     </g>
    </g>
    <g id="xtick_16">
     <g id="line2d_84">
      <g>
       <use xlink:href="#m34923d7ce9" x="743.095286" y="297.6" style="stroke: #000000; stroke-width: 0.8"/>
      </g>
     </g>
     <g id="text_37">
      <!-- $\mathdefault{10^{-2}}$ -->
      <g transform="translate(727.820286 310.977969) scale(0.13 -0.13)">
       <use xlink:href="#DejaVuSans-31" transform="translate(0 0.765625)"/>
       <use xlink:href="#DejaVuSans-30" transform="translate(63.623047 0.765625)"/>
       <use xlink:href="#DejaVuSans-2212" transform="translate(128.203125 39.046875) scale(0.7)"/>
       <use xlink:href="#DejaVuSans-32" transform="translate(186.855469 39.046875) scale(0.7)"/>
      </g>
     </g>
    </g>
    <g id="xtick_17">
     <g id="line2d_85">
      <g>
       <use xlink:href="#m34923d7ce9" x="786.231" y="297.6" style="stroke: #000000; stroke-width: 0.8"/>
      </g>
     </g>
     <g id="text_38">
      <!-- $\mathdefault{10^{-1}}$ -->
      <g transform="translate(770.956 310.977969) scale(0.13 -0.13)">
       <use xlink:href="#DejaVuSans-31" transform="translate(0 0.684375)"/>
       <use xlink:href="#DejaVuSans-30" transform="translate(63.623047 0.684375)"/>
       <use xlink:href="#DejaVuSans-2212" transform="translate(128.203125 38.965625) scale(0.7)"/>
       <use xlink:href="#DejaVuSans-31" transform="translate(186.855469 38.965625) scale(0.7)"/>
      </g>
     </g>
    </g>
    <g id="xtick_18">
     <g id="line2d_86">
      <g>
       <use xlink:href="#m34923d7ce9" x="829.366714" y="297.6" style="stroke: #000000; stroke-width: 0.8"/>
      </g>
     </g>
     <g id="text_39">
      <!-- $\mathdefault{10^{0}}$ -->
      <g transform="translate(817.926714 310.977969) scale(0.13 -0.13)">
       <use xlink:href="#DejaVuSans-31" transform="translate(0 0.765625)"/>
       <use xlink:href="#DejaVuSans-30" transform="translate(63.623047 0.765625)"/>
       <use xlink:href="#DejaVuSans-30" transform="translate(128.203125 39.046875) scale(0.7)"/>
      </g>
     </g>
    </g>
    <g id="xtick_19">
     <g id="line2d_87">
      <g>
       <use xlink:href="#m34923d7ce9" x="872.502429" y="297.6" style="stroke: #000000; stroke-width: 0.8"/>
      </g>
     </g>
     <g id="text_40">
      <!-- $\mathdefault{10^{1}}$ -->
      <g transform="translate(861.062429 310.977969) scale(0.13 -0.13)">
       <use xlink:href="#DejaVuSans-31" transform="translate(0 0.684375)"/>
       <use xlink:href="#DejaVuSans-30" transform="translate(63.623047 0.684375)"/>
       <use xlink:href="#DejaVuSans-31" transform="translate(128.203125 38.965625) scale(0.7)"/>
      </g>
     </g>
    </g>
    <g id="xtick_20">
     <g id="line2d_88">
      <g>
       <use xlink:href="#m34923d7ce9" x="915.638143" y="297.6" style="stroke: #000000; stroke-width: 0.8"/>
      </g>
     </g>
     <g id="text_41">
      <!-- $\mathdefault{10^{2}}$ -->
      <g transform="translate(904.198143 310.977969) scale(0.13 -0.13)">
       <use xlink:href="#DejaVuSans-31" transform="translate(0 0.765625)"/>
       <use xlink:href="#DejaVuSans-30" transform="translate(63.623047 0.765625)"/>
       <use xlink:href="#DejaVuSans-32" transform="translate(128.203125 39.046875) scale(0.7)"/>
      </g>
     </g>
    </g>
   </g>
   <g id="matplotlib.axis_4">
    <g id="ytick_44">
     <g id="line2d_89">
      <g>
       <use xlink:href="#me128bb705c" x="527.416714" y="297.6" style="stroke: #000000; stroke-width: 0.8"/>
      </g>
     </g>
     <g id="text_42">
      <!-- 0.0 -->
      <g transform="translate(503.242652 302.538984) scale(0.13 -0.13)">
       <use xlink:href="#DejaVuSans-30"/>
       <use xlink:href="#DejaVuSans-2e" x="63.623047"/>
       <use xlink:href="#DejaVuSans-30" x="95.410156"/>
      </g>
     </g>
    </g>
    <g id="ytick_45">
     <g id="line2d_90">
      <g>
       <use xlink:href="#me128bb705c" x="527.416714" y="265.2" style="stroke: #000000; stroke-width: 0.8"/>
      </g>
     </g>
     <g id="text_43">
      <!-- 0.1 -->
      <g transform="translate(503.242652 270.138984) scale(0.13 -0.13)">
       <use xlink:href="#DejaVuSans-30"/>
       <use xlink:href="#DejaVuSans-2e" x="63.623047"/>
       <use xlink:href="#DejaVuSans-31" x="95.410156"/>
      </g>
     </g>
    </g>
    <g id="ytick_46">
     <g id="line2d_91">
      <g>
       <use xlink:href="#me128bb705c" x="527.416714" y="232.8" style="stroke: #000000; stroke-width: 0.8"/>
      </g>
     </g>
     <g id="text_44">
      <!-- 0.2 -->
      <g transform="translate(503.242652 237.738984) scale(0.13 -0.13)">
       <use xlink:href="#DejaVuSans-30"/>
       <use xlink:href="#DejaVuSans-2e" x="63.623047"/>
       <use xlink:href="#DejaVuSans-32" x="95.410156"/>
      </g>
     </g>
    </g>
    <g id="ytick_47">
     <g id="line2d_92">
      <g>
       <use xlink:href="#me128bb705c" x="527.416714" y="200.4" style="stroke: #000000; stroke-width: 0.8"/>
      </g>
     </g>
     <g id="text_45">
      <!-- 0.3 -->
      <g transform="translate(503.242652 205.338984) scale(0.13 -0.13)">
       <use xlink:href="#DejaVuSans-30"/>
       <use xlink:href="#DejaVuSans-2e" x="63.623047"/>
       <use xlink:href="#DejaVuSans-33" x="95.410156"/>
      </g>
     </g>
    </g>
    <g id="ytick_48">
     <g id="line2d_93">
      <g>
       <use xlink:href="#me128bb705c" x="527.416714" y="168" style="stroke: #000000; stroke-width: 0.8"/>
      </g>
     </g>
     <g id="text_46">
      <!-- 0.4 -->
      <g transform="translate(503.242652 172.938984) scale(0.13 -0.13)">
       <use xlink:href="#DejaVuSans-30"/>
       <use xlink:href="#DejaVuSans-2e" x="63.623047"/>
       <use xlink:href="#DejaVuSans-34" x="95.410156"/>
      </g>
     </g>
    </g>
    <g id="ytick_49">
     <g id="line2d_94">
      <g>
       <use xlink:href="#me128bb705c" x="527.416714" y="135.6" style="stroke: #000000; stroke-width: 0.8"/>
      </g>
     </g>
     <g id="text_47">
      <!-- 0.5 -->
      <g transform="translate(503.242652 140.538984) scale(0.13 -0.13)">
       <use xlink:href="#DejaVuSans-30"/>
       <use xlink:href="#DejaVuSans-2e" x="63.623047"/>
       <use xlink:href="#DejaVuSans-35" x="95.410156"/>
      </g>
     </g>
    </g>
    <g id="ytick_50">
     <g id="line2d_95">
      <g>
       <use xlink:href="#me128bb705c" x="527.416714" y="103.2" style="stroke: #000000; stroke-width: 0.8"/>
      </g>
     </g>
     <g id="text_48">
      <!-- 0.6 -->
      <g transform="translate(503.242652 108.138984) scale(0.13 -0.13)">
       <use xlink:href="#DejaVuSans-30"/>
       <use xlink:href="#DejaVuSans-2e" x="63.623047"/>
       <use xlink:href="#DejaVuSans-36" x="95.410156"/>
      </g>
     </g>
    </g>
    <g id="ytick_51">
     <g id="line2d_96">
      <g>
       <use xlink:href="#me128bb705c" x="527.416714" y="70.8" style="stroke: #000000; stroke-width: 0.8"/>
      </g>
     </g>
     <g id="text_49">
      <!-- 0.7 -->
      <g transform="translate(503.242652 75.738984) scale(0.13 -0.13)">
       <use xlink:href="#DejaVuSans-30"/>
       <use xlink:href="#DejaVuSans-2e" x="63.623047"/>
       <use xlink:href="#DejaVuSans-37" x="95.410156"/>
      </g>
     </g>
    </g>
    <g id="ytick_52">
     <g id="line2d_97">
      <g>
       <use xlink:href="#me128bb705c" x="527.416714" y="38.4" style="stroke: #000000; stroke-width: 0.8"/>
      </g>
     </g>
     <g id="text_50">
      <!-- 0.8 -->
      <g transform="translate(503.242652 43.338984) scale(0.13 -0.13)">
       <use xlink:href="#DejaVuSans-30"/>
       <use xlink:href="#DejaVuSans-2e" x="63.623047"/>
       <use xlink:href="#DejaVuSans-38" x="95.410156"/>
      </g>
     </g>
    </g>
   </g>
   <g id="line2d_98">
    <path d="M 527.416714 70.802897 
L 627.000568 70.917899 
L 656.564524 71.155479 
L 675.236497 71.513073 
L 689.240476 72.000744 
L 700.13246 72.599078 
L 709.468446 73.341657 
L 717.248435 74.186337 
L 724.250425 75.179475 
L 730.474415 76.298361 
L 735.920407 77.502545 
L 740.588401 78.735087 
L 745.256394 80.184616 
L 749.924387 81.885521 
L 753.814381 83.522521 
L 757.704375 85.384909 
L 761.59437 87.498652 
L 765.484364 89.891168 
L 769.374358 92.590913 
L 772.486354 94.991345 
L 775.598349 97.621601 
L 778.710344 100.495914 
L 781.82234 103.627676 
L 784.934335 107.029001 
L 788.046331 110.710219 
L 791.158326 114.679348 
L 795.04832 120.053126 
L 798.938315 125.886802 
L 802.828309 132.172565 
L 806.718303 138.891133 
L 810.608297 146.010781 
L 815.276291 155.020219 
L 820.722283 166.044288 
L 828.502271 182.368833 
L 839.394255 205.198339 
L 844.840247 216.097234 
L 849.50824 224.964076 
L 853.398234 231.945556 
L 857.288229 238.513214 
L 861.178223 244.639825 
L 865.068217 250.310321 
L 868.958212 255.520656 
L 872.070207 259.361006 
L 875.182202 262.916687 
L 878.294198 266.196813 
L 881.406193 269.212571 
L 884.518189 271.976701 
L 888.408183 275.09913 
L 892.298177 277.878371 
L 896.188171 280.343331 
L 900.078166 282.522639 
L 903.96816 284.44401 
L 907.858154 286.133795 
L 912.526147 287.890481 
L 914.860144 288.669455 
L 915.638143 288.794144 
L 915.638143 288.794144 
" clip-path="url(#pef09d20c17)" style="fill: none; stroke: #38049a; stroke-width: 2; stroke-linecap: square"/>
   </g>
   <g id="line2d_99">
    <path d="M 527.416714 123.038951 
L 528.194713 122.724423 
L 535.196703 117.209958 
L 541.420694 112.581727 
L 547.644685 108.240314 
L 553.090676 104.691698 
L 558.536668 101.383924 
L 563.98266 98.319139 
L 569.428652 95.495348 
L 574.874644 92.907073 
L 580.320636 90.546039 
L 585.766628 88.401838 
L 591.990619 86.201493 
L 598.21461 84.24949 
L 604.438601 82.525843 
L 611.440591 80.834875 
L 618.44258 79.380259 
L 626.222569 78.010085 
L 634.002557 76.868253 
L 642.560545 75.843055 
L 651.896531 74.965992 
L 661.232517 74.311854 
L 671.346502 73.832885 
L 681.460488 73.584907 
L 690.796474 73.569896 
L 699.354461 73.758538 
L 707.13445 74.127964 
L 714.914438 74.726438 
L 721.916428 75.506002 
L 728.140419 76.434503 
L 733.586411 77.466809 
L 739.032403 78.743884 
L 743.700396 80.067067 
L 748.368389 81.635256 
L 752.258383 83.155413 
L 756.148378 84.894164 
L 760.038372 86.876534 
L 763.928366 89.129144 
L 767.81836 91.679863 
L 771.708355 94.557285 
L 774.82035 97.113705 
L 777.932346 99.911838 
L 781.044341 102.965243 
L 784.156336 106.286316 
L 787.268332 109.885811 
L 790.380327 113.772308 
L 793.492323 117.951649 
L 797.382317 123.591135 
L 801.272311 129.688169 
L 805.162305 136.228105 
L 809.0523 143.184189 
L 813.720293 152.024315 
L 819.166285 162.898242 
L 826.168275 177.47304 
L 840.172254 206.812726 
L 845.618246 217.631766 
L 850.286239 226.411744 
L 854.176233 233.31102 
L 858.066228 239.790256 
L 861.956222 245.8247 
L 865.846216 251.401574 
L 869.73621 256.518843 
L 872.848206 260.286286 
L 875.960201 263.771204 
L 879.072197 266.983273 
L 882.184192 269.934109 
L 885.296188 272.636756 
L 889.186182 275.68746 
L 893.076176 278.400831 
L 896.96617 280.805771 
L 900.856165 282.930762 
L 904.746159 284.803271 
L 908.636153 286.449329 
L 913.304146 288.159805 
L 914.860144 288.672029 
L 915.638143 288.796685 
L 915.638143 288.796685 
" clip-path="url(#pef09d20c17)" style="fill: none; stroke: #5b01a5; stroke-width: 2; stroke-linecap: square"/>
   </g>
   <g id="line2d_100">
    <path d="M 527.416714 154.341368 
L 528.194713 154.004116 
L 540.642695 143.061902 
L 554.646674 130.809463 
L 563.204662 123.63103 
L 570.206651 118.047637 
L 576.430642 113.354115 
L 582.654633 108.945885 
L 588.100625 105.33917 
L 593.546617 101.97496 
L 598.992609 98.856527 
L 604.438601 95.982865 
L 609.884593 93.349357 
L 615.330585 90.948482 
L 620.776577 88.770511 
L 627.000568 86.539829 
L 633.224559 84.56723 
L 639.448549 82.833807 
L 645.67254 81.320898 
L 652.67453 79.860457 
L 659.67652 78.633845 
L 666.678509 77.621451 
L 674.458498 76.728953 
L 682.238486 76.067067 
L 690.018475 75.629358 
L 697.798463 75.418975 
L 704.800453 75.43564 
L 711.802443 75.667633 
L 718.026434 76.078629 
L 724.250425 76.712423 
L 729.696417 77.479305 
L 735.142409 78.477279 
L 739.810402 79.545375 
L 744.478395 80.839387 
L 749.146388 82.391547 
L 753.036382 83.908316 
L 756.926376 85.652711 
L 760.816371 87.64973 
L 764.706365 89.925939 
L 768.596359 92.509089 
L 771.708355 94.815678 
L 774.82035 97.351394 
L 777.932346 100.130405 
L 781.044341 103.166151 
L 784.156336 106.470924 
L 787.268332 110.055377 
L 790.380327 113.927997 
L 793.492323 118.09454 
L 797.382317 123.719427 
L 801.272311 129.803279 
L 805.162305 136.331321 
L 809.0523 143.276679 
L 813.720293 152.105323 
L 819.166285 162.967557 
L 826.168275 177.529653 
L 840.172254 206.85023 
L 845.618246 217.663639 
L 850.286239 226.439436 
L 854.176233 233.335632 
L 858.066228 239.812113 
L 861.956222 245.844097 
L 865.846216 251.418775 
L 869.73621 256.534085 
L 872.848206 260.300116 
L 875.960201 263.783747 
L 879.072197 266.994643 
L 882.184192 269.944412 
L 885.296188 272.646088 
L 889.186182 275.6957 
L 893.076176 278.408102 
L 896.96617 280.812182 
L 900.856165 282.936412 
L 904.746159 284.808246 
L 908.636153 286.453707 
L 913.304146 288.163558 
L 914.860144 288.675594 
L 915.638143 288.800204 
L 915.638143 288.800204 
" clip-path="url(#pef09d20c17)" style="fill: none; stroke: #7d03a8; stroke-width: 2; stroke-linecap: square"/>
   </g>
   <g id="line2d_101">
    <path d="M 527.416714 182.370076 
L 528.194713 182.11942 
L 533.640705 178.489054 
L 539.864696 174.051562 
L 546.088687 169.326427 
L 553.090676 163.705024 
L 560.870665 157.148006 
L 570.98465 148.29436 
L 592.768618 129.112043 
L 600.548607 122.60901 
L 607.550596 117.051637 
L 613.774587 112.394261 
L 619.998578 108.033576 
L 625.44457 104.477163 
L 630.890562 101.170891 
L 636.336554 98.117738 
L 641.782546 95.316645 
L 647.228538 92.763251 
L 652.67453 90.450666 
L 658.120522 88.370231 
L 663.566514 86.512251 
L 669.012506 84.866669 
L 675.236497 83.233548 
L 681.460488 81.851831 
L 687.684478 80.71068 
L 693.908469 79.802599 
L 700.13246 79.124337 
L 706.356451 78.677792 
L 712.580442 78.470976 
L 718.026434 78.498387 
L 723.472426 78.73614 
L 728.918418 79.205036 
L 733.586411 79.81116 
L 738.254404 80.627693 
L 742.922397 81.679481 
L 746.812391 82.756475 
L 750.702386 84.035953 
L 754.59238 85.539016 
L 758.482374 87.288742 
L 762.372368 89.310004 
L 766.262363 91.62917 
L 769.374358 93.717395 
L 772.486354 96.028074 
L 775.598349 98.575371 
L 778.710344 101.373032 
L 781.82234 104.433994 
L 784.934335 107.769945 
L 788.046331 111.390821 
L 791.158326 115.304271 
L 794.270322 119.515084 
L 798.160316 125.198461 
L 802.05031 131.342051 
L 805.940304 137.928436 
L 809.830299 144.927954 
L 814.498292 153.81212 
L 819.944284 164.720353 
L 826.946273 179.302941 
L 840.172254 206.939592 
L 845.618246 217.739592 
L 850.286239 226.505432 
L 854.176233 233.394287 
L 858.066228 239.864206 
L 861.956222 245.890327 
L 865.846216 251.459772 
L 869.73621 256.570416 
L 872.848206 260.333081 
L 875.960201 263.813644 
L 879.072197 267.021746 
L 882.184192 269.96897 
L 885.296188 272.668331 
L 889.186182 275.71534 
L 893.076176 278.425433 
L 896.96617 280.827465 
L 900.856165 282.949879 
L 904.746159 284.820106 
L 908.636153 286.464145 
L 913.304146 288.172504 
L 914.860144 288.684091 
L 915.638143 288.808591 
L 915.638143 288.808591 
" clip-path="url(#pef09d20c17)" style="fill: none; stroke: #9a169f; stroke-width: 2; stroke-linecap: square"/>
   </g>
   <g id="line2d_102">
    <path d="M 527.416714 200.633231 
L 528.194713 200.493906 
L 533.640705 198.439435 
L 539.086697 196.168311 
L 544.532689 193.668331 
L 549.978681 190.929206 
L 555.424673 187.943257 
L 560.870665 184.706145 
L 566.316657 181.217608 
L 571.762649 177.482148 
L 577.98664 172.923589 
L 584.210631 168.079501 
L 591.21262 162.33137 
L 598.992609 155.648843 
L 609.884593 145.970098 
L 627.000568 130.750896 
L 634.780556 124.135221 
L 641.782546 118.472109 
L 648.006537 113.72382 
L 653.452529 109.818768 
L 658.898521 106.165421 
L 664.344513 102.776203 
L 669.790505 99.658887 
L 675.236497 96.817319 
L 680.682489 94.252283 
L 686.128481 91.962432 
L 691.574473 89.945272 
L 697.020465 88.198141 
L 702.466457 86.719183 
L 707.13445 85.664799 
L 711.802443 84.808777 
L 716.470436 84.154444 
L 721.138429 83.707406 
L 725.806422 83.475957 
L 730.474415 83.471478 
L 735.142409 83.708822 
L 739.032403 84.104687 
L 742.922397 84.694371 
L 746.812391 85.492951 
L 750.702386 86.517646 
L 754.59238 87.787814 
L 758.482374 89.324878 
L 762.372368 91.152148 
L 765.484364 92.839604 
L 768.596359 94.742004 
L 771.708355 96.872917 
L 774.82035 99.245923 
L 777.932346 101.874304 
L 781.044341 104.770674 
L 784.156336 107.946544 
L 787.268332 111.411837 
L 790.380327 115.174354 
L 793.492323 119.239212 
L 796.604318 123.608263 
L 800.494312 129.49394 
L 804.384307 135.838025 
L 808.274301 142.615201 
L 812.942294 151.265258 
L 817.610287 160.394371 
L 823.834278 173.112693 
L 843.284249 213.371606 
L 847.952242 222.354638 
L 852.620236 230.833572 
L 856.51023 237.458424 
L 860.400224 243.649666 
L 864.290218 249.389576 
L 868.180213 254.671741 
L 872.070207 259.499613 
L 875.182202 263.042413 
L 878.294198 266.310802 
L 881.406193 269.315871 
L 884.518189 272.070272 
L 888.408183 275.181766 
L 892.298177 277.9513 
L 896.188171 280.407649 
L 900.078166 282.579324 
L 903.96816 284.493935 
L 907.858154 286.177739 
L 912.526147 287.928153 
L 914.860144 288.704324 
L 915.638143 288.828563 
L 915.638143 288.828563 
" clip-path="url(#pef09d20c17)" style="fill: none; stroke: #b52f8c; stroke-width: 2; stroke-linecap: square"/>
   </g>
   <g id="line2d_103">
    <path d="M 527.416714 210.203434 
L 528.972712 210.011557 
L 536.752701 208.595203 
L 543.75469 207.091277 
L 549.978681 205.547247 
L 556.202672 203.785288 
L 562.426663 201.78281 
L 567.872655 199.815625 
L 573.318647 197.63249 
L 578.764639 195.219919 
L 584.210631 192.566118 
L 589.656623 189.661692 
L 595.102615 186.500426 
L 600.548607 183.080073 
L 605.994599 179.403138 
L 611.440591 175.477568 
L 617.664581 170.704921 
L 623.888572 165.656858 
L 630.890562 159.700904 
L 640.226548 151.4307 
L 665.122512 129.139086 
L 672.124501 123.24921 
L 678.348492 118.291914 
L 683.794484 114.211802 
L 689.240476 110.403062 
L 694.686468 106.890465 
L 699.354461 104.1311 
L 704.022454 101.61552 
L 708.690447 99.353428 
L 713.358441 97.353791 
L 718.026434 95.625457 
L 721.916428 94.399163 
L 725.806422 93.373803 
L 729.696417 92.556255 
L 733.586411 91.954492 
L 737.476405 91.577827 
L 741.366399 91.437129 
L 745.256394 91.545018 
L 749.146388 91.916002 
L 752.258383 92.413232 
L 755.370379 93.09872 
L 758.482374 93.982625 
L 761.59437 95.075842 
L 764.706365 96.38992 
L 767.81836 97.936924 
L 770.930356 99.729255 
L 774.042351 101.779419 
L 777.154347 104.099734 
L 780.266342 106.701977 
L 783.378338 109.596973 
L 786.490333 112.794121 
L 789.602328 116.300875 
L 792.714324 120.122189 
L 795.826319 124.259936 
L 798.938315 128.712346 
L 802.828309 134.710861 
L 806.718303 141.169535 
L 810.608297 148.054251 
L 815.276291 156.811622 
L 820.722283 167.578397 
L 827.724272 181.97553 
L 840.172254 207.656287 
L 845.618246 218.349074 
L 850.286239 227.035223 
L 854.176233 233.865281 
L 858.066228 240.282601 
L 861.956222 246.261711 
L 865.846216 251.789174 
L 869.73621 256.86236 
L 872.848206 260.598006 
L 875.960201 264.053937 
L 879.072197 267.239593 
L 882.184192 270.166377 
L 885.296188 272.847132 
L 889.186182 275.87323 
L 893.076176 278.564758 
L 896.96617 280.950325 
L 900.856165 283.058146 
L 904.746159 284.915449 
L 908.636153 286.548053 
L 913.304146 288.244425 
L 914.860144 288.752396 
L 915.638143 288.876014 
L 915.638143 288.876014 
" clip-path="url(#pef09d20c17)" style="fill: none; stroke: #cc4778; stroke-width: 2; stroke-linecap: square"/>
   </g>
   <g id="line2d_104">
    <path d="M 527.416714 214.658526 
L 531.306709 214.431965 
L 542.198693 213.578197 
L 551.534679 212.629594 
L 560.092666 211.541706 
L 567.872655 210.334445 
L 574.874644 209.038961 
L 581.876634 207.514935 
L 588.100625 205.942649 
L 594.324616 204.141065 
L 600.548607 202.086092 
L 605.994599 200.061331 
L 611.440591 197.808955 
L 616.886583 195.314965 
L 622.332575 192.567398 
L 627.778567 189.557155 
L 633.224559 186.278896 
L 638.670551 182.73196 
L 644.116543 178.921254 
L 649.562534 174.858045 
L 655.786525 169.928911 
L 662.788515 164.06713 
L 670.568504 157.249239 
L 683.794484 145.28752 
L 694.686468 135.549522 
L 701.688458 129.574827 
L 707.912449 124.568859 
L 713.358441 120.490956 
L 718.026434 117.261457 
L 722.694427 114.310117 
L 726.584421 112.084662 
L 730.474415 110.089848 
L 734.36441 108.342262 
L 738.254404 106.858528 
L 742.144398 105.655561 
L 745.256394 104.907039 
L 748.368389 104.358631 
L 751.480384 104.019982 
L 754.59238 103.901151 
L 757.704375 104.012636 
L 760.816371 104.365365 
L 763.928366 104.970655 
L 767.040362 105.840126 
L 770.152357 106.985571 
L 773.264352 108.418771 
L 776.376348 110.151244 
L 779.488343 112.193943 
L 782.600339 114.556882 
L 785.712334 117.248699 
L 788.82433 120.276173 
L 791.936325 123.643688 
L 795.04832 127.352676 
L 798.160316 131.401061 
L 801.272311 135.782728 
L 805.162305 141.711848 
L 809.0523 148.113258 
L 812.942294 154.942984 
L 817.610287 163.623857 
L 823.056279 174.267999 
L 831.614267 191.598529 
L 840.950253 210.372964 
L 846.396245 220.816785 
L 851.064238 229.290398 
L 854.954232 235.945716 
L 858.844226 242.19209 
L 862.734221 248.005579 
L 866.624215 253.374147 
L 870.514209 258.296351 
L 873.626205 261.917536 
L 876.7382 265.265001 
L 879.850196 268.348414 
L 882.962191 271.179288 
L 886.852185 274.382434 
L 890.74218 277.238143 
L 894.632174 279.774446 
L 898.522168 282.019484 
L 902.412162 284.000784 
L 906.302157 285.744731 
L 910.192151 287.276204 
L 914.860144 288.865977 
L 915.638143 288.988129 
L 915.638143 288.988129 
" clip-path="url(#pef09d20c17)" style="fill: none; stroke: #de5f65; stroke-width: 2; stroke-linecap: square"/>
   </g>
   <g id="line2d_105">
    <path d="M 527.416714 216.636252 
L 537.530699 216.456097 
L 553.090676 216.00583 
L 566.316657 215.400293 
L 577.208641 214.685126 
L 586.544627 213.866614 
L 595.102615 212.906412 
L 602.882603 211.821164 
L 609.884593 210.639088 
L 616.886583 209.23035 
L 623.110573 207.760584 
L 629.334564 206.059875 
L 634.780556 204.36191 
L 640.226548 202.449846 
L 645.67254 200.306842 
L 651.118532 197.917319 
L 656.564524 195.267809 
L 662.010516 192.347942 
L 667.456508 189.151553 
L 672.9025 185.67787 
L 678.348492 181.932717 
L 683.794484 177.929664 
L 690.018475 173.067993 
L 697.020465 167.292228 
L 706.356451 159.249535 
L 721.916428 145.770269 
L 728.140419 140.682365 
L 733.586411 136.525014 
L 738.254404 133.252171 
L 742.144398 130.773854 
L 746.034392 128.557874 
L 749.924387 126.637949 
L 753.036382 125.337772 
L 756.148378 124.265713 
L 759.260373 123.438752 
L 762.372368 122.873661 
L 765.484364 122.586929 
L 767.81836 122.564248 
L 770.152357 122.713792 
L 772.486354 123.041932 
L 774.82035 123.554766 
L 777.154347 124.258053 
L 779.488343 125.157141 
L 781.82234 126.256885 
L 784.156336 127.561545 
L 786.490333 129.07469 
L 788.82433 130.799083 
L 791.158326 132.73656 
L 794.270322 135.652532 
L 797.382317 138.947182 
L 800.494312 142.614911 
L 803.606308 146.645491 
L 806.718303 151.023707 
L 810.608297 156.95372 
L 814.498292 163.343172 
L 819.166285 171.526373 
L 824.612277 181.617313 
L 832.392265 196.594596 
L 841.728252 214.50835 
L 847.174244 224.491946 
L 851.842237 232.594663 
L 855.732231 238.957862 
L 859.622225 244.928037 
L 863.51222 250.481741 
L 867.402214 255.607346 
L 871.292208 260.303646 
L 875.182202 264.578201 
L 878.294198 267.703792 
L 882.184192 271.25955 
L 886.074186 274.446646 
L 889.964181 277.290615 
L 893.854175 279.81835 
L 897.744169 282.057115 
L 901.634163 284.033772 
L 905.524158 285.774216 
L 909.414152 287.302968 
L 914.082145 288.890156 
L 914.860144 289.130844 
L 915.638143 289.249573 
L 915.638143 289.249573 
" clip-path="url(#pef09d20c17)" style="fill: none; stroke: #ed7a52; stroke-width: 2; stroke-linecap: square"/>
   </g>
   <g id="line2d_106">
    <path d="M 527.416714 217.539895 
L 573.318647 217.563882 
L 590.434622 217.3067 
L 603.660602 216.895222 
L 614.552586 216.349114 
L 623.888572 215.678725 
L 632.44656 214.853412 
L 640.226548 213.88668 
L 647.228538 212.804938 
L 654.230528 211.487605 
L 660.454518 210.089259 
L 666.678509 208.448799 
L 672.124501 206.793303 
L 677.570493 204.913757 
L 683.016485 202.793792 
L 688.462477 200.419505 
L 693.908469 197.780755 
L 699.354461 194.87269 
L 704.800453 191.697458 
L 710.246445 188.266049 
L 716.470436 184.059158 
L 723.472426 179.027204 
L 733.586411 171.429805 
L 743.700396 163.897346 
L 749.146388 160.096429 
L 753.814381 157.099016 
L 757.704375 154.848182 
L 761.59437 152.87524 
L 764.706365 151.531193 
L 767.81836 150.423694 
L 770.930356 149.578469 
L 774.042351 149.020509 
L 776.376348 148.804953 
L 778.710344 148.773914 
L 781.044341 148.936266 
L 783.378338 149.300144 
L 785.712334 149.872823 
L 788.046331 150.660587 
L 790.380327 151.668601 
L 792.714324 152.900777 
L 795.04832 154.359645 
L 797.382317 156.046232 
L 799.716313 157.959945 
L 802.05031 160.098474 
L 805.162305 163.292189 
L 808.274301 166.863159 
L 811.386296 170.790531 
L 814.498292 175.047572 
L 818.388286 180.782757 
L 822.27828 186.908169 
L 826.946273 194.654957 
L 833.948263 206.754533 
L 844.062248 224.255266 
L 849.50824 233.235857 
L 854.176233 240.505925 
L 858.066228 246.199979 
L 861.956222 251.528048 
L 865.846216 256.470542 
L 869.73621 261.019021 
L 873.626205 265.174647 
L 877.516199 268.946474 
L 881.406193 272.349706 
L 885.296188 275.404058 
L 889.186182 278.132276 
L 893.076176 280.558875 
L 896.96617 282.709098 
L 900.856165 284.608092 
L 904.746159 286.2803 
L 909.414152 288.020283 
L 914.082145 289.504626 
L 915.638143 289.840581 
L 915.638143 289.840581 
" clip-path="url(#pef09d20c17)" style="fill: none; stroke: #f89540; stroke-width: 2; stroke-linecap: square"/>
   </g>
   <g id="line2d_107">
    <path d="M 527.416714 218.061515 
L 539.864696 218.267442 
L 589.656623 219.269608 
L 619.998578 219.782673 
L 636.336554 219.845964 
L 648.784536 219.683077 
L 658.898521 219.344293 
L 668.234507 218.805429 
L 676.014496 218.143391 
L 683.016485 217.344689 
L 690.018475 216.318768 
L 696.242466 215.187577 
L 702.466457 213.824502 
L 707.912449 212.423842 
L 713.358441 210.815943 
L 718.804433 208.992445 
L 724.250425 206.950965 
L 730.474415 204.358902 
L 736.698406 201.516393 
L 744.478395 197.689781 
L 762.372368 188.732344 
L 767.040362 186.687529 
L 770.930356 185.193259 
L 774.82035 183.947758 
L 777.932346 183.168255 
L 781.044341 182.612801 
L 784.156336 182.30953 
L 787.268332 182.285133 
L 789.602328 182.464664 
L 791.936325 182.824108 
L 794.270322 183.371528 
L 796.604318 184.113632 
L 798.938315 185.055591 
L 801.272311 186.200869 
L 803.606308 187.55108 
L 805.940304 189.105867 
L 809.0523 191.492659 
L 812.164295 194.227022 
L 815.276291 197.290718 
L 818.388286 200.65909 
L 822.27828 205.250926 
L 826.168275 210.199875 
L 830.836268 216.496448 
L 837.838257 226.360639 
L 847.952242 240.586828 
L 853.398234 247.835143 
L 858.066228 253.666695 
L 861.956222 258.20796 
L 865.846216 262.434363 
L 869.73621 266.333395 
L 873.626205 269.901914 
L 877.516199 273.144559 
L 881.406193 276.072119 
L 885.296188 278.699965 
L 889.186182 281.046645 
L 893.076176 283.132657 
L 896.96617 284.979445 
L 900.856165 286.608595 
L 905.524158 288.305976 
L 910.192151 289.755064 
L 914.860144 290.988042 
L 915.638143 291.082614 
L 915.638143 291.082614 
" clip-path="url(#pef09d20c17)" style="fill: none; stroke: #fdb52e; stroke-width: 2; stroke-linecap: square"/>
   </g>
   <g id="line2d_108">
    <path d="M 527.416714 218.613623 
L 535.974702 218.828072 
L 561.648664 219.643824 
L 584.98863 220.599884 
L 608.328595 221.782079 
L 633.224559 223.276555 
L 682.238486 226.310418 
L 694.686468 226.803172 
L 704.800453 226.988625 
L 713.358441 226.939973 
L 721.138429 226.693976 
L 728.918418 226.226669 
L 736.698406 225.520138 
L 744.478395 224.575579 
L 753.036382 223.301216 
L 774.82035 219.900742 
L 780.266342 219.385647 
L 784.156336 219.211307 
L 788.046331 219.244706 
L 791.936325 219.526895 
L 795.04832 219.958094 
L 798.160316 220.591599 
L 801.272311 221.442879 
L 804.384307 222.524039 
L 807.496302 223.843084 
L 810.608297 225.403304 
L 813.720293 227.202811 
L 816.832288 229.234279 
L 820.722283 232.079828 
L 824.612277 235.231116 
L 829.28027 239.348726 
L 834.726262 244.490432 
L 854.954232 264.002221 
L 859.622225 268.060934 
L 864.290218 271.82002 
L 868.180213 274.702377 
L 872.070207 277.348603 
L 875.960201 279.757889 
L 879.850196 281.935065 
L 883.74019 283.88932 
L 888.408183 285.957704 
L 893.076176 287.748077 
L 897.744169 289.287693 
L 902.412162 290.604253 
L 907.858154 291.894164 
L 913.304146 292.957015 
L 915.638143 293.289028 
L 915.638143 293.289028 
" clip-path="url(#pef09d20c17)" style="fill: none; stroke: #fbd724; stroke-width: 2; stroke-linecap: square"/>
   </g>
   <g id="line2d_109">
    <path d="M 527.416714 70.8 
L 915.638143 70.8 
" clip-path="url(#pef09d20c17)" style="fill: none; stroke: #000000; stroke-width: 1.8; stroke-linecap: square"/>
   </g>
   <g id="line2d_110">
    <path d="M 527.416714 216.6 
L 915.638143 216.6 
" clip-path="url(#pef09d20c17)" style="fill: none; stroke-dasharray: 6.66,2.88; stroke-dashoffset: 0; stroke: #000000; stroke-width: 1.8"/>
   </g>
   <g id="patch_6">
    <path d="M 527.416714 297.6 
L 527.416714 38.4 
" style="fill: none; stroke: #000000; stroke-width: 0.8; stroke-linejoin: miter; stroke-linecap: square"/>
   </g>
   <g id="patch_7">
    <path d="M 527.416714 297.6 
L 915.638143 297.6 
" style="fill: none; stroke: #000000; stroke-width: 0.8; stroke-linejoin: miter; stroke-linecap: square"/>
   </g>
   <g id="text_51">
    <!-- $m_i=0.7$ -->
    <g transform="translate(663.127194 61.08) scale(0.14 -0.14)">
     <use xlink:href="#DejaVuSans-Oblique-6d" transform="translate(0 0.78125)"/>
     <use xlink:href="#DejaVuSans-Oblique-69" transform="translate(97.412109 -15.625) scale(0.7)"/>
     <use xlink:href="#DejaVuSans-3d" transform="translate(139.077148 0.78125)"/>
     <use xlink:href="#DejaVuSans-30" transform="translate(242.348633 0.78125)"/>
     <use xlink:href="#DejaVuSans-2e" transform="translate(305.97168 0.78125)"/>
     <use xlink:href="#DejaVuSans-37" transform="translate(330.008789 0.78125)"/>
    </g>
   </g>
   <g id="text_52">
    <!-- $m_\phi=0.25$ -->
    <g transform="translate(663.127194 206.88) scale(0.14 -0.14)">
     <use xlink:href="#DejaVuSans-Oblique-6d" transform="translate(0 0.78125)"/>
     <use xlink:href="#DejaVuSans-Oblique-3d5" transform="translate(97.412109 -15.625) scale(0.7)"/>
     <use xlink:href="#DejaVuSans-3d" transform="translate(165.805664 0.78125)"/>
     <use xlink:href="#DejaVuSans-30" transform="translate(269.077148 0.78125)"/>
     <use xlink:href="#DejaVuSans-2e" transform="translate(332.700195 0.78125)"/>
     <use xlink:href="#DejaVuSans-32" transform="translate(358.987305 0.78125)"/>
     <use xlink:href="#DejaVuSans-35" transform="translate(422.610352 0.78125)"/>
    </g>
   </g>
   <g id="text_53">
    <!-- $d\ln D_u/d\ln R$ -->
    <g transform="translate(519.652286 25.44) scale(0.24 -0.24)">
     <defs>
      <path id="DejaVuSans-Oblique-64" d="M 2675 525 
Q 2444 222 2128 65 
Q 1813 -91 1428 -91 
Q 903 -91 598 267 
Q 294 625 294 1247 
Q 294 1766 478 2236 
Q 663 2706 1013 3078 
Q 1244 3325 1534 3454 
Q 1825 3584 2144 3584 
Q 2481 3584 2739 3421 
Q 2997 3259 3138 2956 
L 3513 4863 
L 4091 4863 
L 3144 0 
L 2566 0 
L 2675 525 
z
M 891 1350 
Q 891 897 1095 644 
Q 1300 391 1663 391 
Q 1931 391 2161 520 
Q 2391 650 2566 903 
Q 2750 1166 2856 1509 
Q 2963 1853 2963 2188 
Q 2963 2622 2758 2865 
Q 2553 3109 2194 3109 
Q 1922 3109 1687 2981 
Q 1453 2853 1288 2613 
Q 1106 2353 998 2009 
Q 891 1666 891 1350 
z
" transform="scale(0.015625)"/>
      <path id="DejaVuSans-6c" d="M 603 4863 
L 1178 4863 
L 1178 0 
L 603 0 
L 603 4863 
z
" transform="scale(0.015625)"/>
      <path id="DejaVuSans-6e" d="M 3513 2113 
L 3513 0 
L 2938 0 
L 2938 2094 
Q 2938 2591 2744 2837 
Q 2550 3084 2163 3084 
Q 1697 3084 1428 2787 
Q 1159 2491 1159 1978 
L 1159 0 
L 581 0 
L 581 3500 
L 1159 3500 
L 1159 2956 
Q 1366 3272 1645 3428 
Q 1925 3584 2291 3584 
Q 2894 3584 3203 3211 
Q 3513 2838 3513 2113 
z
" transform="scale(0.015625)"/>
     </defs>
     <use xlink:href="#DejaVuSans-Oblique-64" transform="translate(0 0.015625)"/>
     <use xlink:href="#DejaVuSans-6c" transform="translate(63.476562 0.015625)"/>
     <use xlink:href="#DejaVuSans-6e" transform="translate(91.259766 0.015625)"/>
     <use xlink:href="#DejaVuSans-Oblique-44" transform="translate(170.874348 0.015625)"/>
     <use xlink:href="#DejaVuSans-Oblique-75" transform="translate(247.876301 -16.390625) scale(0.7)"/>
     <use xlink:href="#DejaVuSans-2f" transform="translate(294.975911 0.015625)"/>
     <use xlink:href="#DejaVuSans-Oblique-64" transform="translate(328.667317 0.015625)"/>
     <use xlink:href="#DejaVuSans-6c" transform="translate(392.143879 0.015625)"/>
     <use xlink:href="#DejaVuSans-6e" transform="translate(419.927083 0.015625)"/>
     <use xlink:href="#DejaVuSans-Oblique-52" transform="translate(499.541665 0.015625)"/>
    </g>
   </g>
   <g id="text_54">
    <!-- $R/r_i$ -->
    <g transform="translate(927.284786 302.784) scale(0.22 -0.22)">
     <use xlink:href="#DejaVuSans-Oblique-52" transform="translate(0 0.09375)"/>
     <use xlink:href="#DejaVuSans-2f" transform="translate(69.482422 0.09375)"/>
     <use xlink:href="#DejaVuSans-Oblique-72" transform="translate(103.173828 0.09375)"/>
     <use xlink:href="#DejaVuSans-Oblique-69" transform="translate(144.287109 -16.3125) scale(0.7)"/>
    </g>
   </g>
  </g>
 </g>
 <defs>
  <clipPath id="pd677718e21">
   <rect x="46.022143" y="38.4" width="388.221429" height="259.2"/>
  </clipPath>
  <clipPath id="pef09d20c17">
   <rect x="527.416714" y="38.4" width="388.221429" height="259.2"/>
  </clipPath>
 </defs>
</svg>
