<?xml version="1.0" encoding="utf-8" standalone="no"?>
<!DOCTYPE svg PUBLIC "-//W3C//DTD SVG 1.1//EN"
  "http://www.w3.org/Graphics/SVG/1.1/DTD/svg11.dtd">
<svg xmlns:xlink="http://www.w3.org/1999/xlink" width="971.224786pt" height="320.881562pt" viewBox="0 0 971.224786 320.881562" xmlns="http://www.w3.org/2000/svg" version="1.1">
 <metadata>
  <rdf:RDF xmlns:dc="http://purl.org/dc/elements/1.1/" xmlns:cc="http://creativecommons.org/ns#" xmlns:rdf="http://www.w3.org/1999/02/22-rdf-syntax-ns#">
   <cc:Work>
    <dc:type rdf:resource="http://purl.org/dc/dcmitype/StillImage"/>
    <dc:date>2026-02-22T03:36:02.426454</dc:date>
    <dc:format>image/svg+xml</dc:format>
    <dc:creator>
     <cc:Agent>
      <dc:title>Matplotlib v3.8.4, https://matplotlib.org/</dc:title>
     </cc:Agent>
    </dc:creator>
   </cc:Work>
  </rdf:RDF>
 </metadata>
 <defs>
  <style type="text/css">*{stroke-linejoin: round; stroke-linecap: butt}</style>
 </defs>
 <g id="figure_1">
  <g id="patch_1">
   <path d="M 0 320.881562 
L 971.224786 320.881562 
L 971.224786 0 
L 0 0 
z
" style="fill: #ffffff"/>
  </g>
  <g id="axes_1">
   <g id="patch_2">
    <path d="M 46.022143 297.6 
L 434.243571 297.6 
L 434.243571 38.4 
L 46.022143 38.4 
z
" style="fill: #ffffff"/>
   </g>
   <g id="matplotlib.axis_1">
    <g id="xtick_1">
     <g id="line2d_1">
      <defs>
       <path id="ma55788a4d6" d="M 0 0 
L 0 -3.5 
" style="stroke: #000000; stroke-width: 0.8"/>
      </defs>
      <g>
       <use xlink:href="#ma55788a4d6" x="46.022143" y="297.6" style="stroke: #000000; stroke-width: 0.8"/>
      </g>
     </g>
     <g id="text_1">
      <!-- $\mathdefault{10^{-7}}$ -->
      <g transform="translate(30.747143 310.977969) scale(0.13 -0.13)">
       <defs>
        <path id="DejaVuSans-31" d="M 794 531 
L 1825 531 
L 1825 4091 
L 703 3866 
L 703 4441 
L 1819 4666 
L 2450 4666 
L 2450 531 
L 3481 531 
L 3481 0 
L 794 0 
L 794 531 
z
" transform="scale(0.015625)"/>
        <path id="DejaVuSans-30" d="M 2034 4250 
Q 1547 4250 1301 3770 
Q 1056 3291 1056 2328 
Q 1056 1369 1301 889 
Q 1547 409 2034 409 
Q 2525 409 2770 889 
Q 3016 1369 3016 2328 
Q 3016 3291 2770 3770 
Q 2525 4250 2034 4250 
z
M 2034 4750 
Q 2819 4750 3233 4129 
Q 3647 3509 3647 2328 
Q 3647 1150 3233 529 
Q 2819 -91 2034 -91 
Q 1250 -91 836 529 
Q 422 1150 422 2328 
Q 422 3509 836 4129 
Q 1250 4750 2034 4750 
z
" transform="scale(0.015625)"/>
        <path id="DejaVuSans-2212" d="M 678 2272 
L 4684 2272 
L 4684 1741 
L 678 1741 
L 678 2272 
z
" transform="scale(0.015625)"/>
        <path id="DejaVuSans-37" d="M 525 4666 
L 3525 4666 
L 3525 4397 
L 1831 0 
L 1172 0 
L 2766 4134 
L 525 4134 
L 525 4666 
z
" transform="scale(0.015625)"/>
       </defs>
       <use xlink:href="#DejaVuSans-31" transform="translate(0 0.684375)"/>
       <use xlink:href="#DejaVuSans-30" transform="translate(63.623047 0.684375)"/>
       <use xlink:href="#DejaVuSans-2212" transform="translate(128.203125 38.965625) scale(0.7)"/>
       <use xlink:href="#DejaVuSans-37" transform="translate(186.855469 38.965625) scale(0.7)"/>
      </g>
     </g>
    </g>
    <g id="xtick_2">
     <g id="line2d_2">
      <g>
       <use xlink:href="#ma55788a4d6" x="89.157857" y="297.6" style="stroke: #000000; stroke-width: 0.8"/>
      </g>
     </g>
     <g id="text_2">
      <!-- $\mathdefault{10^{-6}}$ -->
      <g transform="translate(73.882857 310.977969) scale(0.13 -0.13)">
       <defs>
        <path id="DejaVuSans-36" d="M 2113 2584 
Q 1688 2584 1439 2293 
Q 1191 2003 1191 1497 
Q 1191 994 1439 701 
Q 1688 409 2113 409 
Q 2538 409 2786 701 
Q 3034 994 3034 1497 
Q 3034 2003 2786 2293 
Q 2538 2584 2113 2584 
z
M 3366 4563 
L 3366 3988 
Q 3128 4100 2886 4159 
Q 2644 4219 2406 4219 
Q 1781 4219 1451 3797 
Q 1122 3375 1075 2522 
Q 1259 2794 1537 2939 
Q 1816 3084 2150 3084 
Q 2853 3084 3261 2657 
Q 3669 2231 3669 1497 
Q 3669 778 3244 343 
Q 2819 -91 2113 -91 
Q 1303 -91 875 529 
Q 447 1150 447 2328 
Q 447 3434 972 4092 
Q 1497 4750 2381 4750 
Q 2619 4750 2861 4703 
Q 3103 4656 3366 4563 
z
" transform="scale(0.015625)"/>
       </defs>
       <use xlink:href="#DejaVuSans-31" transform="translate(0 0.765625)"/>
       <use xlink:href="#DejaVuSans-30" transform="translate(63.623047 0.765625)"/>
       <use xlink:href="#DejaVuSans-2212" transform="translate(128.203125 39.046875) scale(0.7)"/>
       <use xlink:href="#DejaVuSans-36" transform="translate(186.855469 39.046875) scale(0.7)"/>
      </g>
     </g>
    </g>
    <g id="xtick_3">
     <g id="line2d_3">
      <g>
       <use xlink:href="#ma55788a4d6" x="132.293571" y="297.6" style="stroke: #000000; stroke-width: 0.8"/>
      </g>
     </g>
     <g id="text_3">
      <!-- $\mathdefault{10^{-5}}$ -->
      <g transform="translate(117.018571 310.977969) scale(0.13 -0.13)">
       <defs>
        <path id="DejaVuSans-35" d="M 691 4666 
L 3169 4666 
L 3169 4134 
L 1269 4134 
L 1269 2991 
Q 1406 3038 1543 3061 
Q 1681 3084 1819 3084 
Q 2600 3084 3056 2656 
Q 3513 2228 3513 1497 
Q 3513 744 3044 326 
Q 2575 -91 1722 -91 
Q 1428 -91 1123 -41 
Q 819 9 494 109 
L 494 744 
Q 775 591 1075 516 
Q 1375 441 1709 441 
Q 2250 441 2565 725 
Q 2881 1009 2881 1497 
Q 2881 1984 2565 2268 
Q 2250 2553 1709 2553 
Q 1456 2553 1204 2497 
Q 953 2441 691 2322 
L 691 4666 
z
" transform="scale(0.015625)"/>
       </defs>
       <use xlink:href="#DejaVuSans-31" transform="translate(0 0.684375)"/>
       <use xlink:href="#DejaVuSans-30" transform="translate(63.623047 0.684375)"/>
       <use xlink:href="#DejaVuSans-2212" transform="translate(128.203125 38.965625) scale(0.7)"/>
       <use xlink:href="#DejaVuSans-35" transform="translate(186.855469 38.965625) scale(0.7)"/>
      </g>
     </g>
    </g>
    <g id="xtick_4">
     <g id="line2d_4">
      <g>
       <use xlink:href="#ma55788a4d6" x="175.429286" y="297.6" style="stroke: #000000; stroke-width: 0.8"/>
      </g>
     </g>
     <g id="text_4">
      <!-- $\mathdefault{10^{-4}}$ -->
      <g transform="translate(160.154286 310.977969) scale(0.13 -0.13)">
       <defs>
        <path id="DejaVuSans-34" d="M 2419 4116 
L 825 1625 
L 2419 1625 
L 2419 4116 
z
M 2253 4666 
L 3047 4666 
L 3047 1625 
L 3713 1625 
L 3713 1100 
L 3047 1100 
L 3047 0 
L 2419 0 
L 2419 1100 
L 313 1100 
L 313 1709 
L 2253 4666 
z
" transform="scale(0.015625)"/>
       </defs>
       <use xlink:href="#DejaVuSans-31" transform="translate(0 0.684375)"/>
       <use xlink:href="#DejaVuSans-30" transform="translate(63.623047 0.684375)"/>
       <use xlink:href="#DejaVuSans-2212" transform="translate(128.203125 38.965625) scale(0.7)"/>
       <use xlink:href="#DejaVuSans-34" transform="translate(186.855469 38.965625) scale(0.7)"/>
      </g>
     </g>
    </g>
    <g id="xtick_5">
     <g id="line2d_5">
      <g>
       <use xlink:href="#ma55788a4d6" x="218.565" y="297.6" style="stroke: #000000; stroke-width: 0.8"/>
      </g>
     </g>
     <g id="text_5">
      <!-- $\mathdefault{10^{-3}}$ -->
      <g transform="translate(203.29 310.977969) scale(0.13 -0.13)">
       <defs>
        <path id="DejaVuSans-33" d="M 2597 2516 
Q 3050 2419 3304 2112 
Q 3559 1806 3559 1356 
Q 3559 666 3084 287 
Q 2609 -91 1734 -91 
Q 1441 -91 1130 -33 
Q 819 25 488 141 
L 488 750 
Q 750 597 1062 519 
Q 1375 441 1716 441 
Q 2309 441 2620 675 
Q 2931 909 2931 1356 
Q 2931 1769 2642 2001 
Q 2353 2234 1838 2234 
L 1294 2234 
L 1294 2753 
L 1863 2753 
Q 2328 2753 2575 2939 
Q 2822 3125 2822 3475 
Q 2822 3834 2567 4026 
Q 2313 4219 1838 4219 
Q 1578 4219 1281 4162 
Q 984 4106 628 3988 
L 628 4550 
Q 988 4650 1302 4700 
Q 1616 4750 1894 4750 
Q 2613 4750 3031 4423 
Q 3450 4097 3450 3541 
Q 3450 3153 3228 2886 
Q 3006 2619 2597 2516 
z
" transform="scale(0.015625)"/>
       </defs>
       <use xlink:href="#DejaVuSans-31" transform="translate(0 0.765625)"/>
       <use xlink:href="#DejaVuSans-30" transform="translate(63.623047 0.765625)"/>
       <use xlink:href="#DejaVuSans-2212" transform="translate(128.203125 39.046875) scale(0.7)"/>
       <use xlink:href="#DejaVuSans-33" transform="translate(186.855469 39.046875) scale(0.7)"/>
      </g>
     </g>
    </g>
    <g id="xtick_6">
     <g id="line2d_6">
      <g>
       <use xlink:href="#ma55788a4d6" x="261.700714" y="297.6" style="stroke: #000000; stroke-width: 0.8"/>
      </g>
     </g>
     <g id="text_6">
      <!-- $\mathdefault{10^{-2}}$ -->
      <g transform="translate(246.425714 310.977969) scale(0.13 -0.13)">
       <defs>
        <path id="DejaVuSans-32" d="M 1228 531 
L 3431 531 
L 3431 0 
L 469 0 
L 469 531 
Q 828 903 1448 1529 
Q 2069 2156 2228 2338 
Q 2531 2678 2651 2914 
Q 2772 3150 2772 3378 
Q 2772 3750 2511 3984 
Q 2250 4219 1831 4219 
Q 1534 4219 1204 4116 
Q 875 4013 500 3803 
L 500 4441 
Q 881 4594 1212 4672 
Q 1544 4750 1819 4750 
Q 2544 4750 2975 4387 
Q 3406 4025 3406 3419 
Q 3406 3131 3298 2873 
Q 3191 2616 2906 2266 
Q 2828 2175 2409 1742 
Q 1991 1309 1228 531 
z
" transform="scale(0.015625)"/>
       </defs>
       <use xlink:href="#DejaVuSans-31" transform="translate(0 0.765625)"/>
       <use xlink:href="#DejaVuSans-30" transform="translate(63.623047 0.765625)"/>
       <use xlink:href="#DejaVuSans-2212" transform="translate(128.203125 39.046875) scale(0.7)"/>
       <use xlink:href="#DejaVuSans-32" transform="translate(186.855469 39.046875) scale(0.7)"/>
      </g>
     </g>
    </g>
    <g id="xtick_7">
     <g id="line2d_7">
      <g>
       <use xlink:href="#ma55788a4d6" x="304.836429" y="297.6" style="stroke: #000000; stroke-width: 0.8"/>
      </g>
     </g>
     <g id="text_7">
      <!-- $\mathdefault{10^{-1}}$ -->
      <g transform="translate(289.561429 310.977969) scale(0.13 -0.13)">
       <use xlink:href="#DejaVuSans-31" transform="translate(0 0.684375)"/>
       <use xlink:href="#DejaVuSans-30" transform="translate(63.623047 0.684375)"/>
       <use xlink:href="#DejaVuSans-2212" transform="translate(128.203125 38.965625) scale(0.7)"/>
       <use xlink:href="#DejaVuSans-31" transform="translate(186.855469 38.965625) scale(0.7)"/>
      </g>
     </g>
    </g>
    <g id="xtick_8">
     <g id="line2d_8">
      <g>
       <use xlink:href="#ma55788a4d6" x="347.972143" y="297.6" style="stroke: #000000; stroke-width: 0.8"/>
      </g>
     </g>
     <g id="text_8">
      <!-- $\mathdefault{10^{0}}$ -->
      <g transform="translate(336.532143 310.977969) scale(0.13 -0.13)">
       <use xlink:href="#DejaVuSans-31" transform="translate(0 0.765625)"/>
       <use xlink:href="#DejaVuSans-30" transform="translate(63.623047 0.765625)"/>
       <use xlink:href="#DejaVuSans-30" transform="translate(128.203125 39.046875) scale(0.7)"/>
      </g>
     </g>
    </g>
    <g id="xtick_9">
     <g id="line2d_9">
      <g>
       <use xlink:href="#ma55788a4d6" x="391.107857" y="297.6" style="stroke: #000000; stroke-width: 0.8"/>
      </g>
     </g>
     <g id="text_9">
      <!-- $\mathdefault{10^{1}}$ -->
      <g transform="translate(379.667857 310.977969) scale(0.13 -0.13)">
       <use xlink:href="#DejaVuSans-31" transform="translate(0 0.684375)"/>
       <use xlink:href="#DejaVuSans-30" transform="translate(63.623047 0.684375)"/>
       <use xlink:href="#DejaVuSans-31" transform="translate(128.203125 38.965625) scale(0.7)"/>
      </g>
     </g>
    </g>
    <g id="xtick_10">
     <g id="line2d_10">
      <g>
       <use xlink:href="#ma55788a4d6" x="434.243571" y="297.6" style="stroke: #000000; stroke-width: 0.8"/>
      </g>
     </g>
     <g id="text_10">
      <!-- $\mathdefault{10^{2}}$ -->
      <g transform="translate(422.803571 310.977969) scale(0.13 -0.13)">
       <use xlink:href="#DejaVuSans-31" transform="translate(0 0.765625)"/>
       <use xlink:href="#DejaVuSans-30" transform="translate(63.623047 0.765625)"/>
       <use xlink:href="#DejaVuSans-32" transform="translate(128.203125 39.046875) scale(0.7)"/>
      </g>
     </g>
    </g>
   </g>
   <g id="matplotlib.axis_2">
    <g id="ytick_1">
     <g id="line2d_11">
      <defs>
       <path id="m5bcfc824c7" d="M 0 0 
L 3.5 0 
" style="stroke: #000000; stroke-width: 0.8"/>
      </defs>
      <g>
       <use xlink:href="#m5bcfc824c7" x="46.022143" y="42.440765" style="stroke: #000000; stroke-width: 0.8"/>
      </g>
     </g>
     <g id="text_11">
      <!-- $\mathdefault{10^{0}}$ -->
      <g transform="translate(19.642143 47.37975) scale(0.13 -0.13)">
       <use xlink:href="#DejaVuSans-31" transform="translate(0 0.765625)"/>
       <use xlink:href="#DejaVuSans-30" transform="translate(63.623047 0.765625)"/>
       <use xlink:href="#DejaVuSans-30" transform="translate(128.203125 39.046875) scale(0.7)"/>
      </g>
     </g>
    </g>
    <g id="ytick_2">
     <g id="line2d_12">
      <g>
       <use xlink:href="#m5bcfc824c7" x="46.022143" y="144.504459" style="stroke: #000000; stroke-width: 0.8"/>
      </g>
     </g>
     <g id="text_12">
      <!-- $\mathdefault{10^{-2}}$ -->
      <g transform="translate(11.972143 149.443444) scale(0.13 -0.13)">
       <use xlink:href="#DejaVuSans-31" transform="translate(0 0.765625)"/>
       <use xlink:href="#DejaVuSans-30" transform="translate(63.623047 0.765625)"/>
       <use xlink:href="#DejaVuSans-2212" transform="translate(128.203125 39.046875) scale(0.7)"/>
       <use xlink:href="#DejaVuSans-32" transform="translate(186.855469 39.046875) scale(0.7)"/>
      </g>
     </g>
    </g>
    <g id="ytick_3">
     <g id="line2d_13">
      <g>
       <use xlink:href="#m5bcfc824c7" x="46.022143" y="246.568153" style="stroke: #000000; stroke-width: 0.8"/>
      </g>
     </g>
     <g id="text_13">
      <!-- $\mathdefault{10^{-4}}$ -->
      <g transform="translate(11.972143 251.507137) scale(0.13 -0.13)">
       <use xlink:href="#DejaVuSans-31" transform="translate(0 0.684375)"/>
       <use xlink:href="#DejaVuSans-30" transform="translate(63.623047 0.684375)"/>
       <use xlink:href="#DejaVuSans-2212" transform="translate(128.203125 38.965625) scale(0.7)"/>
       <use xlink:href="#DejaVuSans-34" transform="translate(186.855469 38.965625) scale(0.7)"/>
      </g>
     </g>
    </g>
    <g id="ytick_4">
     <g id="line2d_14">
      <defs>
       <path id="mf84780835b" d="M 0 0 
L 2 0 
" style="stroke: #000000; stroke-width: 0.6"/>
      </defs>
      <g>
       <use xlink:href="#mf84780835b" x="46.022143" y="282.237883" style="stroke: #000000; stroke-width: 0.6"/>
      </g>
     </g>
    </g>
    <g id="ytick_5">
     <g id="line2d_15">
      <g>
       <use xlink:href="#mf84780835b" x="46.022143" y="273.251621" style="stroke: #000000; stroke-width: 0.6"/>
      </g>
     </g>
    </g>
    <g id="ytick_6">
     <g id="line2d_16">
      <g>
       <use xlink:href="#mf84780835b" x="46.022143" y="266.875767" style="stroke: #000000; stroke-width: 0.6"/>
      </g>
     </g>
    </g>
    <g id="ytick_7">
     <g id="line2d_17">
      <g>
       <use xlink:href="#mf84780835b" x="46.022143" y="261.93027" style="stroke: #000000; stroke-width: 0.6"/>
      </g>
     </g>
    </g>
    <g id="ytick_8">
     <g id="line2d_18">
      <g>
       <use xlink:href="#mf84780835b" x="46.022143" y="257.889504" style="stroke: #000000; stroke-width: 0.6"/>
      </g>
     </g>
    </g>
    <g id="ytick_9">
     <g id="line2d_19">
      <g>
       <use xlink:href="#mf84780835b" x="46.022143" y="254.473086" style="stroke: #000000; stroke-width: 0.6"/>
      </g>
     </g>
    </g>
    <g id="ytick_10">
     <g id="line2d_20">
      <g>
       <use xlink:href="#mf84780835b" x="46.022143" y="251.51365" style="stroke: #000000; stroke-width: 0.6"/>
      </g>
     </g>
    </g>
    <g id="ytick_11">
     <g id="line2d_21">
      <g>
       <use xlink:href="#mf84780835b" x="46.022143" y="248.903242" style="stroke: #000000; stroke-width: 0.6"/>
      </g>
     </g>
    </g>
    <g id="ytick_12">
     <g id="line2d_22">
      <g>
       <use xlink:href="#mf84780835b" x="46.022143" y="231.206036" style="stroke: #000000; stroke-width: 0.6"/>
      </g>
     </g>
    </g>
    <g id="ytick_13">
     <g id="line2d_23">
      <g>
       <use xlink:href="#mf84780835b" x="46.022143" y="222.219774" style="stroke: #000000; stroke-width: 0.6"/>
      </g>
     </g>
    </g>
    <g id="ytick_14">
     <g id="line2d_24">
      <g>
       <use xlink:href="#mf84780835b" x="46.022143" y="215.84392" style="stroke: #000000; stroke-width: 0.6"/>
      </g>
     </g>
    </g>
    <g id="ytick_15">
     <g id="line2d_25">
      <g>
       <use xlink:href="#mf84780835b" x="46.022143" y="210.898423" style="stroke: #000000; stroke-width: 0.6"/>
      </g>
     </g>
    </g>
    <g id="ytick_16">
     <g id="line2d_26">
      <g>
       <use xlink:href="#mf84780835b" x="46.022143" y="206.857658" style="stroke: #000000; stroke-width: 0.6"/>
      </g>
     </g>
    </g>
    <g id="ytick_17">
     <g id="line2d_27">
      <g>
       <use xlink:href="#mf84780835b" x="46.022143" y="203.441239" style="stroke: #000000; stroke-width: 0.6"/>
      </g>
     </g>
    </g>
    <g id="ytick_18">
     <g id="line2d_28">
      <g>
       <use xlink:href="#mf84780835b" x="46.022143" y="200.481803" style="stroke: #000000; stroke-width: 0.6"/>
      </g>
     </g>
    </g>
    <g id="ytick_19">
     <g id="line2d_29">
      <g>
       <use xlink:href="#mf84780835b" x="46.022143" y="197.871395" style="stroke: #000000; stroke-width: 0.6"/>
      </g>
     </g>
    </g>
    <g id="ytick_20">
     <g id="line2d_30">
      <g>
       <use xlink:href="#mf84780835b" x="46.022143" y="180.174189" style="stroke: #000000; stroke-width: 0.6"/>
      </g>
     </g>
    </g>
    <g id="ytick_21">
     <g id="line2d_31">
      <g>
       <use xlink:href="#mf84780835b" x="46.022143" y="171.187927" style="stroke: #000000; stroke-width: 0.6"/>
      </g>
     </g>
    </g>
    <g id="ytick_22">
     <g id="line2d_32">
      <g>
       <use xlink:href="#mf84780835b" x="46.022143" y="164.812073" style="stroke: #000000; stroke-width: 0.6"/>
      </g>
     </g>
    </g>
    <g id="ytick_23">
     <g id="line2d_33">
      <g>
       <use xlink:href="#mf84780835b" x="46.022143" y="159.866576" style="stroke: #000000; stroke-width: 0.6"/>
      </g>
     </g>
    </g>
    <g id="ytick_24">
     <g id="line2d_34">
      <g>
       <use xlink:href="#mf84780835b" x="46.022143" y="155.825811" style="stroke: #000000; stroke-width: 0.6"/>
      </g>
     </g>
    </g>
    <g id="ytick_25">
     <g id="line2d_35">
      <g>
       <use xlink:href="#mf84780835b" x="46.022143" y="152.409392" style="stroke: #000000; stroke-width: 0.6"/>
      </g>
     </g>
    </g>
    <g id="ytick_26">
     <g id="line2d_36">
      <g>
       <use xlink:href="#mf84780835b" x="46.022143" y="149.449956" style="stroke: #000000; stroke-width: 0.6"/>
      </g>
     </g>
    </g>
    <g id="ytick_27">
     <g id="line2d_37">
      <g>
       <use xlink:href="#mf84780835b" x="46.022143" y="146.839548" style="stroke: #000000; stroke-width: 0.6"/>
      </g>
     </g>
    </g>
    <g id="ytick_28">
     <g id="line2d_38">
      <g>
       <use xlink:href="#mf84780835b" x="46.022143" y="129.142342" style="stroke: #000000; stroke-width: 0.6"/>
      </g>
     </g>
    </g>
    <g id="ytick_29">
     <g id="line2d_39">
      <g>
       <use xlink:href="#mf84780835b" x="46.022143" y="120.15608" style="stroke: #000000; stroke-width: 0.6"/>
      </g>
     </g>
    </g>
    <g id="ytick_30">
     <g id="line2d_40">
      <g>
       <use xlink:href="#mf84780835b" x="46.022143" y="113.780226" style="stroke: #000000; stroke-width: 0.6"/>
      </g>
     </g>
    </g>
    <g id="ytick_31">
     <g id="line2d_41">
      <g>
       <use xlink:href="#mf84780835b" x="46.022143" y="108.834729" style="stroke: #000000; stroke-width: 0.6"/>
      </g>
     </g>
    </g>
    <g id="ytick_32">
     <g id="line2d_42">
      <g>
       <use xlink:href="#mf84780835b" x="46.022143" y="104.793964" style="stroke: #000000; stroke-width: 0.6"/>
      </g>
     </g>
    </g>
    <g id="ytick_33">
     <g id="line2d_43">
      <g>
       <use xlink:href="#mf84780835b" x="46.022143" y="101.377545" style="stroke: #000000; stroke-width: 0.6"/>
      </g>
     </g>
    </g>
    <g id="ytick_34">
     <g id="line2d_44">
      <g>
       <use xlink:href="#mf84780835b" x="46.022143" y="98.418109" style="stroke: #000000; stroke-width: 0.6"/>
      </g>
     </g>
    </g>
    <g id="ytick_35">
     <g id="line2d_45">
      <g>
       <use xlink:href="#mf84780835b" x="46.022143" y="95.807701" style="stroke: #000000; stroke-width: 0.6"/>
      </g>
     </g>
    </g>
    <g id="ytick_36">
     <g id="line2d_46">
      <g>
       <use xlink:href="#mf84780835b" x="46.022143" y="78.110496" style="stroke: #000000; stroke-width: 0.6"/>
      </g>
     </g>
    </g>
    <g id="ytick_37">
     <g id="line2d_47">
      <g>
       <use xlink:href="#mf84780835b" x="46.022143" y="69.124233" style="stroke: #000000; stroke-width: 0.6"/>
      </g>
     </g>
    </g>
    <g id="ytick_38">
     <g id="line2d_48">
      <g>
       <use xlink:href="#mf84780835b" x="46.022143" y="62.748379" style="stroke: #000000; stroke-width: 0.6"/>
      </g>
     </g>
    </g>
    <g id="ytick_39">
     <g id="line2d_49">
      <g>
       <use xlink:href="#mf84780835b" x="46.022143" y="57.802882" style="stroke: #000000; stroke-width: 0.6"/>
      </g>
     </g>
    </g>
    <g id="ytick_40">
     <g id="line2d_50">
      <g>
       <use xlink:href="#mf84780835b" x="46.022143" y="53.762117" style="stroke: #000000; stroke-width: 0.6"/>
      </g>
     </g>
    </g>
    <g id="ytick_41">
     <g id="line2d_51">
      <g>
       <use xlink:href="#mf84780835b" x="46.022143" y="50.345698" style="stroke: #000000; stroke-width: 0.6"/>
      </g>
     </g>
    </g>
    <g id="ytick_42">
     <g id="line2d_52">
      <g>
       <use xlink:href="#mf84780835b" x="46.022143" y="47.386262" style="stroke: #000000; stroke-width: 0.6"/>
      </g>
     </g>
    </g>
    <g id="ytick_43">
     <g id="line2d_53">
      <g>
       <use xlink:href="#mf84780835b" x="46.022143" y="44.775854" style="stroke: #000000; stroke-width: 0.6"/>
      </g>
     </g>
    </g>
   </g>
   <g id="line2d_54">
    <path d="M 46.022143 292.497094 
L 213.291897 154.11859 
L 243.633852 129.291901 
L 263.083823 113.650116 
L 277.087803 102.657676 
L 288.757786 93.77962 
L 298.093772 86.942287 
L 306.651759 80.948968 
L 314.431748 75.78416 
L 321.433737 71.410996 
L 327.657728 67.773771 
L 333.881719 64.396532 
L 340.10571 61.298625 
L 345.551702 58.827764 
L 350.997694 56.585485 
L 356.443686 54.571527 
L 361.889678 52.781001 
L 367.33567 51.20478 
L 373.559661 49.649409 
L 379.783652 48.334237 
L 386.007642 47.233535 
L 393.009632 46.218446 
L 400.789621 45.324472 
L 409.347608 44.571783 
L 419.461593 43.92295 
L 431.131576 43.410364 
L 434.243571 43.305974 
L 434.243571 43.305974 
" clip-path="url(#p01fa9f022d)" style="fill: none; stroke: #38049a; stroke-width: 2.2; stroke-linecap: square"/>
   </g>
   <g id="line2d_55">
    <path d="M 46.022143 292.466357 
L 228.073875 141.9824 
L 252.969838 121.743282 
L 269.307814 108.727953 
L 281.755796 99.069161 
L 292.64778 90.897467 
L 301.983766 84.181518 
L 309.763755 78.84752 
L 316.765744 74.295418 
L 323.767734 70.017972 
L 329.991725 66.475669 
L 336.215716 63.201203 
L 341.661708 60.569497 
L 347.1077 58.1637 
L 352.553692 55.98689 
L 357.999684 54.037465 
L 363.445676 52.309272 
L 368.891668 50.792088 
L 375.115658 49.299066 
L 381.339649 48.039989 
L 388.341639 46.87062 
L 395.343629 45.926451 
L 403.123617 45.097482 
L 411.681605 44.40144 
L 421.79559 43.802885 
L 434.243571 43.305973 
L 434.243571 43.305973 
" clip-path="url(#p01fa9f022d)" style="fill: none; stroke: #5b01a5; stroke-width: 2.2; stroke-linecap: square"/>
   </g>
   <g id="line2d_56">
    <path d="M 46.022143 292.354782 
L 124.600027 227.407863 
L 221.849884 147.083662 
L 249.079844 124.880138 
L 266.973818 110.567203 
L 280.199798 100.259984 
L 291.091782 92.044773 
L 300.427768 85.278732 
L 308.207757 79.892456 
L 315.209747 75.284479 
L 322.211736 70.942789 
L 328.435727 67.33686 
L 334.659718 63.993603 
L 340.10571 61.298559 
L 345.551702 58.827708 
L 350.997694 56.585438 
L 356.443686 54.571487 
L 361.889678 52.780968 
L 367.33567 51.204752 
L 373.559661 49.649386 
L 379.783652 48.334218 
L 386.007642 47.23352 
L 393.009632 46.218434 
L 400.789621 45.324462 
L 409.347608 44.571776 
L 419.461593 43.922945 
L 431.131576 43.41036 
L 434.243571 43.305971 
L 434.243571 43.305971 
" clip-path="url(#p01fa9f022d)" style="fill: none; stroke: #7d03a8; stroke-width: 2.2; stroke-linecap: square"/>
   </g>
   <g id="line2d_57">
    <path d="M 46.022143 291.844129 
L 77.920096 265.77877 
L 126.934024 225.404824 
L 235.075865 136.252377 
L 256.859833 118.615336 
L 272.41981 106.285639 
L 284.867791 96.701857 
L 294.981776 89.189209 
L 303.539764 83.092946 
L 311.319752 77.813462 
L 318.321742 73.319264 
L 324.545733 69.560798 
L 330.769724 66.050921 
L 336.993715 62.811336 
L 342.439707 60.211589 
L 347.885699 57.838465 
L 353.331691 55.694382 
L 358.777683 53.77707 
L 364.223674 52.079759 
L 369.669666 50.591703 
L 375.893657 49.129315 
L 382.117648 47.897687 
L 389.119638 46.755213 
L 396.121628 45.833793 
L 403.901616 45.025592 
L 413.237602 44.29517 
L 423.351587 43.728118 
L 434.243571 43.305959 
L 434.243571 43.305959 
" clip-path="url(#p01fa9f022d)" style="fill: none; stroke: #9a169f; stroke-width: 2.2; stroke-linecap: square"/>
   </g>
   <g id="line2d_58">
    <path d="M 46.022143 289.616756 
L 60.804121 278.20527 
L 77.920096 264.708838 
L 98.926065 247.855026 
L 126.156025 225.710506 
L 167.389964 191.858494 
L 239.743858 132.429584 
L 259.971828 116.115153 
L 274.753806 104.458564 
L 286.423789 95.522431 
L 296.537774 88.057076 
L 305.095762 82.012208 
L 312.87575 76.789738 
L 319.87774 72.355648 
L 326.101731 68.657421 
L 332.325721 65.213539 
L 338.549712 62.044591 
L 343.995704 59.509254 
L 349.441696 57.201679 
L 354.887688 55.122951 
L 360.33368 53.269484 
L 365.779672 51.633305 
L 372.003663 50.014249 
L 378.227654 48.641461 
L 384.451645 47.489709 
L 391.453634 46.425124 
L 399.233623 45.48554 
L 407.79161 44.692919 
L 417.127597 44.053098 
L 428.019581 43.52696 
L 434.243571 43.305907 
L 434.243571 43.305907 
" clip-path="url(#p01fa9f022d)" style="fill: none; stroke: #b52f8c; stroke-width: 2.2; stroke-linecap: square"/>
   </g>
   <g id="line2d_59">
    <path d="M 46.022143 281.476748 
L 55.358129 275.579707 
L 64.694115 269.429963 
L 74.8081 262.505564 
L 85.700084 254.776066 
L 97.370067 246.223469 
L 110.596048 236.248889 
L 125.378026 224.819848 
L 143.272 210.689562 
L 165.055968 193.191211 
L 196.175922 167.879344 
L 251.413841 122.915189 
L 268.529815 109.28898 
L 281.755796 99.033555 
L 292.64778 90.871251 
L 301.983766 84.161427 
L 309.763755 78.83147 
L 316.765744 74.282332 
L 323.767734 70.007327 
L 329.991725 66.466823 
L 336.215716 63.193865 
L 341.661708 60.563275 
L 347.1077 58.15843 
L 352.553692 55.982434 
L 357.999684 54.033702 
L 363.445676 52.306098 
L 368.891668 50.789414 
L 375.115658 49.296872 
L 381.339649 48.038191 
L 388.341639 46.869186 
L 395.343629 45.925309 
L 403.123617 45.096599 
L 411.681605 44.400775 
L 421.79559 43.802411 
L 434.243571 43.305663 
L 434.243571 43.305663 
" clip-path="url(#p01fa9f022d)" style="fill: none; stroke: #cc4778; stroke-width: 2.2; stroke-linecap: square"/>
   </g>
   <g id="line2d_60">
    <path d="M 46.022143 261.828381 
L 56.136128 257.399178 
L 65.472114 253.067545 
L 74.8081 248.48163 
L 83.366088 244.041 
L 91.924075 239.36575 
L 100.482063 234.453025 
L 109.818049 228.825614 
L 119.154035 222.927909 
L 128.490021 216.775526 
L 138.604007 209.846684 
L 149.495991 202.11157 
L 161.165973 193.553531 
L 174.391954 183.576086 
L 189.951931 171.545056 
L 209.401902 156.198636 
L 243.633852 128.828018 
L 266.195819 110.929293 
L 280.199798 100.087955 
L 291.091782 91.917934 
L 300.427768 85.181426 
L 308.207757 79.814652 
L 315.209747 75.221002 
L 322.211736 70.891112 
L 328.435727 67.293895 
L 334.659718 63.957944 
L 340.10571 61.268309 
L 345.551702 58.80208 
L 350.997694 56.563755 
L 356.443686 54.553166 
L 361.889678 52.765508 
L 367.33567 51.191724 
L 373.559661 49.63869 
L 379.783652 48.325451 
L 386.007642 47.226346 
L 393.009632 46.21272 
L 400.789621 45.320035 
L 409.347608 44.568441 
L 419.461593 43.920568 
L 431.131576 43.408759 
L 434.243571 43.304531 
L 434.243571 43.304531 
" clip-path="url(#p01fa9f022d)" style="fill: none; stroke: #de5f65; stroke-width: 2.2; stroke-linecap: square"/>
   </g>
   <g id="line2d_61">
    <path d="M 46.022143 232.660929 
L 62.360119 227.209807 
L 76.364098 222.312651 
L 88.81208 217.729116 
L 99.704064 213.496093 
L 109.818049 209.343202 
L 119.932034 204.943052 
L 129.26802 200.635198 
L 138.604007 196.069176 
L 147.161994 191.642769 
L 155.719981 186.977648 
L 164.277969 182.0711 
L 173.613955 176.446647 
L 182.949941 170.549413 
L 192.285928 164.397296 
L 202.399913 157.472183 
L 213.291897 149.751124 
L 225.739878 140.653994 
L 241.299855 128.98724 
L 288.757786 93.157202 
L 298.871771 85.916937 
L 307.429758 80.052195 
L 315.209747 74.991328 
L 322.211736 70.703925 
L 328.435727 67.13814 
L 334.659718 63.828586 
L 340.883709 60.794924 
L 346.329701 58.377453 
L 351.775693 56.18576 
L 357.221685 54.219336 
L 362.667677 52.473024 
L 368.113669 50.937461 
L 374.33766 49.424002 
L 380.56165 48.145811 
L 387.56364 46.95711 
L 394.56563 45.996203 
L 402.345618 45.151707 
L 410.903606 44.442039 
L 421.017591 43.83136 
L 432.687574 43.349672 
L 434.243571 43.299297 
L 434.243571 43.299297 
" clip-path="url(#p01fa9f022d)" style="fill: none; stroke: #ed7a52; stroke-width: 2.2; stroke-linecap: square"/>
   </g>
   <g id="line2d_62">
    <path d="M 46.022143 199.847341 
L 81.032091 189.277398 
L 104.372057 182.011893 
L 122.266031 176.219404 
L 137.048009 171.209738 
L 149.495991 166.773238 
L 161.165973 162.380707 
L 171.279958 158.350772 
L 181.393944 154.077316 
L 190.72993 149.887666 
L 200.065916 145.439422 
L 208.623904 141.119983 
L 217.181891 136.561507 
L 225.739878 131.763605 
L 235.075865 126.265424 
L 244.411851 120.512238 
L 255.303835 113.522287 
L 267.751816 105.257406 
L 305.095762 80.260971 
L 313.653749 74.906727 
L 321.433737 70.306337 
L 328.435727 66.435867 
L 334.659718 63.243696 
L 340.883709 60.308955 
L 347.1077 57.647638 
L 352.553692 55.549866 
L 357.999684 53.667958 
L 363.445676 51.997331 
L 369.669666 50.335239 
L 375.893657 48.918768 
L 382.117648 47.725153 
L 389.119638 46.617597 
L 396.899626 45.636698 
L 405.457614 44.80683 
L 414.7936 44.135466 
L 425.685584 43.582551 
L 434.243571 43.275423 
L 434.243571 43.275423 
" clip-path="url(#p01fa9f022d)" style="fill: none; stroke: #f89540; stroke-width: 2.2; stroke-linecap: square"/>
   </g>
   <g id="line2d_63">
    <path d="M 46.022143 166.126224 
L 165.055968 131.275651 
L 185.283938 125.054892 
L 200.843915 120.049279 
L 214.069896 115.568046 
L 225.739878 111.382916 
L 236.631862 107.234695 
L 246.745847 103.139451 
L 256.081834 99.131366 
L 265.41782 94.897852 
L 275.531805 90.068621 
L 287.201788 84.234852 
L 322.989735 66.09432 
L 330.769724 62.513731 
L 337.771713 59.525641 
L 343.995704 57.088032 
L 350.219695 54.875767 
L 356.443686 52.899117 
L 362.667677 51.159705 
L 368.891668 49.651151 
L 375.115658 48.360426 
L 382.117648 47.14633 
L 389.119638 46.155412 
L 396.899626 45.277926 
L 405.457614 44.536276 
L 415.571599 43.895653 
L 427.241582 43.389544 
L 434.243571 43.173153 
L 434.243571 43.173153 
" clip-path="url(#p01fa9f022d)" style="fill: none; stroke: #fdb52e; stroke-width: 2.2; stroke-linecap: square"/>
   </g>
   <g id="line2d_64">
    <path d="M 46.022143 132.314661 
L 91.924075 119.189057 
L 129.26802 108.73791 
L 161.943972 99.824872 
L 193.063926 91.568375 
L 234.297866 80.889846 
L 265.41782 72.740369 
L 285.64579 67.204548 
L 311.319752 59.902526 
L 327.657728 55.367625 
L 337.771713 52.780417 
L 346.329701 50.802681 
L 354.887688 49.062515 
L 362.667677 47.705551 
L 370.447665 46.56485 
L 379.005653 45.546351 
L 387.56364 44.748697 
L 397.677625 44.043995 
L 408.569609 43.510585 
L 421.79559 43.087966 
L 434.243571 42.841296 
L 434.243571 42.841296 
" clip-path="url(#p01fa9f022d)" style="fill: none; stroke: #fbd724; stroke-width: 2.2; stroke-linecap: square"/>
   </g>
   <g id="line2d_65">
    <path d="M 218.565 273.251621 
L 300.656146 205.268883 
" clip-path="url(#p01fa9f022d)" style="fill: none; stroke-dasharray: 6.66,2.88; stroke-dashoffset: 0; stroke: #2d5bff; stroke-width: 1.8"/>
   </g>
   <g id="line2d_66">
    <path d="M 218.565 200.481803 
L 300.656146 176.202254 
" clip-path="url(#p01fa9f022d)" style="fill: none; stroke-dasharray: 6.66,2.88; stroke-dashoffset: 0; stroke: #e45756; stroke-width: 1.8"/>
   </g>
   <g id="line2d_67">
    <path clip-path="url(#p01fa9f022d)" style="fill: none; stroke: #1f77b4; stroke-opacity: 0; stroke-width: 1.5; stroke-linecap: square"/>
   </g>
   <g id="patch_3">
    <path d="M 46.022143 297.6 
L 46.022143 38.4 
" style="fill: none; stroke: #000000; stroke-width: 0.8; stroke-linejoin: miter; stroke-linecap: square"/>
   </g>
   <g id="patch_4">
    <path d="M 46.022143 297.6 
L 434.243571 297.6 
" style="fill: none; stroke: #000000; stroke-width: 0.8; stroke-linejoin: miter; stroke-linecap: square"/>
   </g>
   <g id="text_14">
    <!-- $\propto R^{m_\phi}$ -->
    <g style="fill: #e45756" transform="translate(280.241305 186.695058) rotate(-16) scale(0.18 -0.18)">
     <defs>
      <path id="DejaVuSans-221d" d="M 1647 1134 
Q 2163 1134 2472 1884 
Q 2075 2703 1647 2703 
Q 1334 2703 1175 2478 
Q 1006 2238 1006 1919 
Q 1006 1569 1175 1353 
Q 1350 1134 1647 1134 
z
M 3884 1128 
L 3884 716 
L 3644 716 
Q 3416 716 3247 809 
Q 3078 894 2916 1091 
Q 2819 1203 2666 1466 
Q 2456 1091 2272 925 
Q 2044 725 1681 725 
Q 1259 725 981 1041 
Q 688 1372 688 1919 
Q 688 2444 981 2800 
Q 1241 3116 1688 3116 
Q 1916 3116 2084 3022 
Q 2281 2919 2416 2741 
Q 2541 2581 2666 2366 
Q 2875 2741 3059 2906 
Q 3288 3106 3650 3106 
L 3884 3106 
L 3884 2697 
L 3684 2697 
Q 3222 2697 2859 1947 
Q 3256 1128 3684 1128 
L 3884 1128 
z
" transform="scale(0.015625)"/>
      <path id="DejaVuSans-Oblique-52" d="M 1613 4147 
L 1294 2491 
L 2106 2491 
Q 2584 2491 2879 2755 
Q 3175 3019 3175 3444 
Q 3175 3784 2976 3965 
Q 2778 4147 2406 4147 
L 1613 4147 
z
M 2772 2241 
Q 2972 2194 3105 2009 
Q 3238 1825 3413 1275 
L 3809 0 
L 3144 0 
L 2778 1197 
Q 2638 1659 2453 1815 
Q 2269 1972 1888 1972 
L 1191 1972 
L 806 0 
L 172 0 
L 1081 4666 
L 2503 4666 
Q 3150 4666 3495 4373 
Q 3841 4081 3841 3531 
Q 3841 3044 3547 2687 
Q 3253 2331 2772 2241 
z
" transform="scale(0.015625)"/>
      <path id="DejaVuSans-Oblique-6d" d="M 5747 2113 
L 5338 0 
L 4763 0 
L 5166 2094 
Q 5191 2228 5203 2325 
Q 5216 2422 5216 2491 
Q 5216 2772 5059 2928 
Q 4903 3084 4622 3084 
Q 4203 3084 3875 2770 
Q 3547 2456 3450 1953 
L 3066 0 
L 2491 0 
L 2900 2094 
Q 2925 2209 2937 2307 
Q 2950 2406 2950 2484 
Q 2950 2769 2794 2926 
Q 2638 3084 2363 3084 
Q 1938 3084 1609 2770 
Q 1281 2456 1184 1953 
L 800 0 
L 225 0 
L 909 3500 
L 1484 3500 
L 1375 2956 
Q 1609 3263 1923 3423 
Q 2238 3584 2597 3584 
Q 2978 3584 3223 3384 
Q 3469 3184 3519 2828 
Q 3781 3197 4126 3390 
Q 4472 3584 4856 3584 
Q 5306 3584 5551 3325 
Q 5797 3066 5797 2591 
Q 5797 2488 5784 2364 
Q 5772 2241 5747 2113 
z
" transform="scale(0.015625)"/>
      <path id="DejaVuSans-Oblique-3d5" d="M 2991 4863 
L 2738 3572 
Q 3363 3572 3684 3094 
Q 4016 2606 3850 1747 
Q 3681 888 3159 400 
Q 2653 -78 2028 -78 
L 1784 -1331 
L 1213 -1331 
L 1456 -78 
Q 834 -78 509 400 
Q 178 888 347 1747 
Q 513 2606 1034 3094 
Q 1544 3572 2166 3572 
L 2419 4863 
L 2991 4863 
z
M 2128 434 
Q 2481 434 2784 756 
Q 3116 1116 3244 1747 
Q 3369 2372 3169 2738 
Q 2991 3059 2638 3059 
L 2128 434 
z
M 1556 434 
L 2066 3059 
Q 1716 3059 1413 2738 
Q 1072 2372 953 1747 
Q 834 1116 1028 756 
Q 1203 434 1556 434 
z
" transform="scale(0.015625)"/>
     </defs>
     <use xlink:href="#DejaVuSans-221d" transform="translate(19.482422 0.51875)"/>
     <use xlink:href="#DejaVuSans-Oblique-52" transform="translate(110.400391 0.51875)"/>
     <use xlink:href="#DejaVuSans-Oblique-6d" transform="translate(186.899583 38.8) scale(0.7)"/>
     <use xlink:href="#DejaVuSans-Oblique-3d5" transform="translate(255.08806 27.315625) scale(0.49)"/>
    </g>
   </g>
   <g id="text_15">
    <!-- $\propto R^{m_i}$ -->
    <g style="fill: #2d5bff" transform="translate(289.730811 136.122124) rotate(-33) scale(0.18 -0.18)">
     <defs>
      <path id="DejaVuSans-Oblique-69" d="M 1172 4863 
L 1747 4863 
L 1606 4134 
L 1031 4134 
L 1172 4863 
z
M 909 3500 
L 1484 3500 
L 800 0 
L 225 0 
L 909 3500 
z
" transform="scale(0.015625)"/>
     </defs>
     <use xlink:href="#DejaVuSans-221d" transform="translate(19.482422 0.51875)"/>
     <use xlink:href="#DejaVuSans-Oblique-52" transform="translate(110.400391 0.51875)"/>
     <use xlink:href="#DejaVuSans-Oblique-6d" transform="translate(186.899583 38.8) scale(0.7)"/>
     <use xlink:href="#DejaVuSans-Oblique-69" transform="translate(255.08806 27.315625) scale(0.49)"/>
    </g>
   </g>
   <g id="text_16">
    <!-- $D_u(R)/2=1-\xi_u$ -->
    <g transform="translate(7.2 25.44) scale(0.24 -0.24)">
     <defs>
      <path id="DejaVuSans-Oblique-44" d="M 1081 4666 
L 2438 4666 
Q 3519 4666 4070 4208 
Q 4622 3750 4622 2847 
Q 4622 2250 4412 1698 
Q 4203 1147 3834 769 
Q 3463 381 2891 190 
Q 2319 0 1538 0 
L 172 0 
L 1081 4666 
z
M 1613 4147 
L 909 519 
L 1734 519 
Q 2794 519 3375 1128 
Q 3956 1738 3956 2847 
Q 3956 3519 3581 3833 
Q 3206 4147 2406 4147 
L 1613 4147 
z
" transform="scale(0.015625)"/>
      <path id="DejaVuSans-Oblique-75" d="M 428 1388 
L 838 3500 
L 1416 3500 
L 1006 1409 
Q 975 1256 961 1147 
Q 947 1038 947 966 
Q 947 700 1109 554 
Q 1272 409 1569 409 
Q 2031 409 2368 721 
Q 2706 1034 2809 1563 
L 3194 3500 
L 3769 3500 
L 3091 0 
L 2516 0 
L 2631 550 
Q 2388 244 2052 76 
Q 1716 -91 1338 -91 
Q 878 -91 622 161 
Q 366 413 366 863 
Q 366 956 381 1097 
Q 397 1238 428 1388 
z
" transform="scale(0.015625)"/>
      <path id="DejaVuSans-28" d="M 1984 4856 
Q 1566 4138 1362 3434 
Q 1159 2731 1159 2009 
Q 1159 1288 1364 580 
Q 1569 -128 1984 -844 
L 1484 -844 
Q 1016 -109 783 600 
Q 550 1309 550 2009 
Q 550 2706 781 3412 
Q 1013 4119 1484 4856 
L 1984 4856 
z
" transform="scale(0.015625)"/>
      <path id="DejaVuSans-29" d="M 513 4856 
L 1013 4856 
Q 1481 4119 1714 3412 
Q 1947 2706 1947 2009 
Q 1947 1309 1714 600 
Q 1481 -109 1013 -844 
L 513 -844 
Q 928 -128 1133 580 
Q 1338 1288 1338 2009 
Q 1338 2731 1133 3434 
Q 928 4138 513 4856 
z
" transform="scale(0.015625)"/>
      <path id="DejaVuSans-2f" d="M 1625 4666 
L 2156 4666 
L 531 -594 
L 0 -594 
L 1625 4666 
z
" transform="scale(0.015625)"/>
      <path id="DejaVuSans-3d" d="M 678 2906 
L 4684 2906 
L 4684 2381 
L 678 2381 
L 678 2906 
z
M 678 1631 
L 4684 1631 
L 4684 1100 
L 678 1100 
L 678 1631 
z
" transform="scale(0.015625)"/>
      <path id="DejaVuSans-Oblique-3be" d="M 2016 397 
Q 2428 394 2628 159 
Q 2844 -88 2772 -463 
Q 2700 -822 2422 -1072 
Q 2119 -1344 1609 -1344 
Q 1656 -1109 1700 -872 
Q 1913 -888 2072 -750 
Q 2194 -641 2216 -525 
Q 2247 -359 2175 -222 
Q 2100 -91 1922 -91 
Q -25 -91 241 1275 
Q 422 2213 1516 2488 
Q 663 2600 822 3413 
Q 941 4028 1678 4284 
L 1028 4284 
L 1141 4863 
L 3606 4863 
L 3494 4284 
Q 1528 4284 1350 3375 
Q 1234 2778 2881 2750 
L 2778 2219 
Q 1009 2288 819 1275 
Q 659 428 2016 397 
z
" transform="scale(0.015625)"/>
     </defs>
     <use xlink:href="#DejaVuSans-Oblique-44" transform="translate(0 0.015625)"/>
     <use xlink:href="#DejaVuSans-Oblique-75" transform="translate(77.001953 -16.390625) scale(0.7)"/>
     <use xlink:href="#DejaVuSans-28" transform="translate(124.101562 0.015625)"/>
     <use xlink:href="#DejaVuSans-Oblique-52" transform="translate(163.115234 0.015625)"/>
     <use xlink:href="#DejaVuSans-29" transform="translate(232.597656 0.015625)"/>
     <use xlink:href="#DejaVuSans-2f" transform="translate(271.611328 0.015625)"/>
     <use xlink:href="#DejaVuSans-32" transform="translate(301.677734 0.015625)"/>
     <use xlink:href="#DejaVuSans-3d" transform="translate(384.783203 0.015625)"/>
     <use xlink:href="#DejaVuSans-31" transform="translate(488.054688 0.015625)"/>
     <use xlink:href="#DejaVuSans-2212" transform="translate(571.160156 0.015625)"/>
     <use xlink:href="#DejaVuSans-Oblique-3be" transform="translate(674.431641 0.015625)"/>
     <use xlink:href="#DejaVuSans-Oblique-75" transform="translate(730.193359 -16.390625) scale(0.7)"/>
    </g>
   </g>
   <g id="text_17">
    <!-- $R/r_i$ -->
    <g transform="translate(445.890214 302.784) scale(0.22 -0.22)">
     <defs>
      <path id="DejaVuSans-Oblique-72" d="M 2853 2969 
Q 2766 3016 2653 3041 
Q 2541 3066 2413 3066 
Q 1953 3066 1609 2717 
Q 1266 2369 1153 1784 
L 800 0 
L 225 0 
L 909 3500 
L 1484 3500 
L 1375 2956 
Q 1603 3259 1920 3421 
Q 2238 3584 2597 3584 
Q 2691 3584 2781 3573 
Q 2872 3563 2963 3538 
L 2853 2969 
z
" transform="scale(0.015625)"/>
     </defs>
     <use xlink:href="#DejaVuSans-Oblique-52" transform="translate(0 0.09375)"/>
     <use xlink:href="#DejaVuSans-2f" transform="translate(69.482422 0.09375)"/>
     <use xlink:href="#DejaVuSans-Oblique-72" transform="translate(103.173828 0.09375)"/>
     <use xlink:href="#DejaVuSans-Oblique-69" transform="translate(144.287109 -16.3125) scale(0.7)"/>
    </g>
   </g>
   <g id="text_18">
    <!-- $m_i=0.7,\ m_\phi=0.25$ -->
    <g transform="translate(57.668786 59.136) scale(0.15 -0.15)">
     <defs>
      <path id="DejaVuSans-2e" d="M 684 794 
L 1344 794 
L 1344 0 
L 684 0 
L 684 794 
z
" transform="scale(0.015625)"/>
      <path id="DejaVuSans-2c" d="M 750 794 
L 1409 794 
L 1409 256 
L 897 -744 
L 494 -744 
L 750 256 
L 750 794 
z
" transform="scale(0.015625)"/>
     </defs>
     <use xlink:href="#DejaVuSans-Oblique-6d" transform="translate(0 0.78125)"/>
     <use xlink:href="#DejaVuSans-Oblique-69" transform="translate(97.412109 -15.625) scale(0.7)"/>
     <use xlink:href="#DejaVuSans-3d" transform="translate(139.077148 0.78125)"/>
     <use xlink:href="#DejaVuSans-30" transform="translate(242.348633 0.78125)"/>
     <use xlink:href="#DejaVuSans-2e" transform="translate(305.97168 0.78125)"/>
     <use xlink:href="#DejaVuSans-37" transform="translate(330.008789 0.78125)"/>
     <use xlink:href="#DejaVuSans-2c" transform="translate(393.631836 0.78125)"/>
     <use xlink:href="#DejaVuSans-Oblique-6d" transform="translate(477.371746 0.78125)"/>
     <use xlink:href="#DejaVuSans-Oblique-3d5" transform="translate(574.783855 -15.625) scale(0.7)"/>
     <use xlink:href="#DejaVuSans-3d" transform="translate(643.17741 0.78125)"/>
     <use xlink:href="#DejaVuSans-30" transform="translate(746.448894 0.78125)"/>
     <use xlink:href="#DejaVuSans-2e" transform="translate(810.071941 0.78125)"/>
     <use xlink:href="#DejaVuSans-32" transform="translate(836.35905 0.78125)"/>
     <use xlink:href="#DejaVuSans-35" transform="translate(899.982097 0.78125)"/>
    </g>
   </g>
   <g id="text_19">
    <!-- $r_\phi/r_i=1$ -->
    <g transform="translate(57.668786 79.872) scale(0.15 -0.15)">
     <use xlink:href="#DejaVuSans-Oblique-72" transform="translate(0 0.09375)"/>
     <use xlink:href="#DejaVuSans-Oblique-3d5" transform="translate(41.113281 -16.3125) scale(0.7)"/>
     <use xlink:href="#DejaVuSans-2f" transform="translate(90.024414 0.09375)"/>
     <use xlink:href="#DejaVuSans-Oblique-72" transform="translate(123.71582 0.09375)"/>
     <use xlink:href="#DejaVuSans-Oblique-69" transform="translate(164.829102 -16.3125) scale(0.7)"/>
     <use xlink:href="#DejaVuSans-3d" transform="translate(206.494141 0.09375)"/>
     <use xlink:href="#DejaVuSans-31" transform="translate(309.765625 0.09375)"/>
    </g>
   </g>
   <g id="text_20">
    <!-- $\xi_u=\xi_i\,e^{-\eta^2\hat D_\Phi}$ -->
    <g transform="translate(57.668786 100.608) scale(0.15 -0.15)">
     <defs>
      <path id="DejaVuSans-Oblique-65" d="M 3078 2063 
Q 3088 2113 3092 2166 
Q 3097 2219 3097 2272 
Q 3097 2653 2873 2875 
Q 2650 3097 2266 3097 
Q 1838 3097 1509 2826 
Q 1181 2556 1013 2059 
L 3078 2063 
z
M 3578 1613 
L 903 1613 
Q 884 1494 878 1425 
Q 872 1356 872 1306 
Q 872 872 1139 634 
Q 1406 397 1894 397 
Q 2269 397 2603 481 
Q 2938 566 3225 728 
L 3116 159 
Q 2806 34 2476 -28 
Q 2147 -91 1806 -91 
Q 1078 -91 686 257 
Q 294 606 294 1247 
Q 294 1794 489 2264 
Q 684 2734 1063 3103 
Q 1306 3334 1642 3459 
Q 1978 3584 2356 3584 
Q 2950 3584 3301 3228 
Q 3653 2872 3653 2272 
Q 3653 2128 3634 1964 
Q 3616 1800 3578 1613 
z
" transform="scale(0.015625)"/>
      <path id="DejaVuSans-Oblique-3b7" d="M 3703 2113 
L 3034 -1331 
L 2459 -1331 
L 3125 2094 
Q 3222 2591 3075 2838 
Q 2931 3084 2544 3084 
Q 2078 3084 1750 2788 
Q 1425 2491 1325 1978 
L 941 0 
L 363 0 
L 1044 3500 
L 1622 3500 
L 1516 2956 
Q 1781 3272 2094 3428 
Q 2403 3584 2769 3584 
Q 3372 3584 3609 3213 
Q 3844 2838 3703 2113 
z
" transform="scale(0.015625)"/>
      <path id="DejaVuSans-302" d="M -1831 5119 
L -1369 5119 
L -603 3944 
L -1038 3944 
L -1600 4709 
L -2163 3944 
L -2597 3944 
L -1831 5119 
z
M -1600 3584 
L -1600 3584 
z
" transform="scale(0.015625)"/>
      <path id="DejaVuSans-3a6" d="M 2206 3644 
Q 1738 3578 1431 3306 
Q 1025 2947 1025 2328 
Q 1025 1713 1431 1353 
Q 1738 1081 2206 1016 
L 2206 3644 
z
M 2838 1016 
Q 3306 1081 3613 1353 
Q 4013 1713 4013 2328 
Q 4013 2947 3613 3306 
Q 3306 3578 2838 3644 
L 2838 1016 
z
M 2206 494 
Q 1444 563 950 981 
Q 359 1481 359 2328 
Q 359 3175 950 3678 
Q 1441 4100 2206 4169 
L 2206 4666 
L 2838 4666 
L 2838 4169 
Q 3600 4097 4091 3678 
Q 4678 3175 4678 2328 
Q 4678 1484 4091 981 
Q 3600 563 2838 491 
L 2838 0 
L 2206 0 
L 2206 494 
z
" transform="scale(0.015625)"/>
     </defs>
     <use xlink:href="#DejaVuSans-Oblique-3be" transform="translate(0 0.145313)"/>
     <use xlink:href="#DejaVuSans-Oblique-75" transform="translate(55.761719 -16.260938) scale(0.7)"/>
     <use xlink:href="#DejaVuSans-3d" transform="translate(122.34375 0.145313)"/>
     <use xlink:href="#DejaVuSans-Oblique-3be" transform="translate(225.615234 0.145313)"/>
     <use xlink:href="#DejaVuSans-Oblique-69" transform="translate(281.376953 -16.260938) scale(0.7)"/>
     <use xlink:href="#DejaVuSans-Oblique-65" transform="translate(319.795247 0.145313)"/>
     <use xlink:href="#DejaVuSans-2212" transform="translate(385.96858 38.426563) scale(0.7)"/>
     <use xlink:href="#DejaVuSans-Oblique-3b7" transform="translate(444.620924 38.426563) scale(0.7)"/>
     <use xlink:href="#DejaVuSans-32" transform="translate(492.241085 65.223438) scale(0.49)"/>
     <use xlink:href="#DejaVuSans-302" transform="translate(572.904659 59.007812) scale(0.7)"/>
     <use xlink:href="#DejaVuSans-Oblique-44" transform="translate(525.330441 38.426563) scale(0.7)"/>
     <use xlink:href="#DejaVuSans-3a6" transform="translate(579.90173 26.942188) scale(0.49)"/>
    </g>
   </g>
   <g id="legend_1">
    <g id="line2d_68">
     <path d="M 294.923571 103.69875 
L 306.923571 103.69875 
L 318.923571 103.69875 
" style="fill: none; stroke: #38049a; stroke-width: 2.2; stroke-linecap: square"/>
    </g>
    <g id="text_21">
     <!-- $\eta=0$ -->
     <g transform="translate(328.523571 107.89875) scale(0.12 -0.12)">
      <use xlink:href="#DejaVuSans-Oblique-3b7" transform="translate(0 0.78125)"/>
      <use xlink:href="#DejaVuSans-3d" transform="translate(82.861328 0.78125)"/>
      <use xlink:href="#DejaVuSans-30" transform="translate(186.132812 0.78125)"/>
     </g>
    </g>
    <g id="line2d_69">
     <path d="M 294.923571 121.336875 
L 306.923571 121.336875 
L 318.923571 121.336875 
" style="fill: none; stroke: #5b01a5; stroke-width: 2.2; stroke-linecap: square"/>
    </g>
    <g id="text_22">
     <!-- $\eta=0.001$ -->
     <g transform="translate(328.523571 125.536875) scale(0.12 -0.12)">
      <use xlink:href="#DejaVuSans-Oblique-3b7" transform="translate(0 0.78125)"/>
      <use xlink:href="#DejaVuSans-3d" transform="translate(82.861328 0.78125)"/>
      <use xlink:href="#DejaVuSans-30" transform="translate(186.132812 0.78125)"/>
      <use xlink:href="#DejaVuSans-2e" transform="translate(249.755859 0.78125)"/>
      <use xlink:href="#DejaVuSans-30" transform="translate(281.542969 0.78125)"/>
      <use xlink:href="#DejaVuSans-30" transform="translate(345.166016 0.78125)"/>
      <use xlink:href="#DejaVuSans-31" transform="translate(408.789062 0.78125)"/>
     </g>
    </g>
    <g id="line2d_70">
     <path d="M 294.923571 138.975 
L 306.923571 138.975 
L 318.923571 138.975 
" style="fill: none; stroke: #7d03a8; stroke-width: 2.2; stroke-linecap: square"/>
    </g>
    <g id="text_23">
     <!-- $\eta=0.00215443$ -->
     <g transform="translate(328.523571 143.175) scale(0.12 -0.12)">
      <use xlink:href="#DejaVuSans-Oblique-3b7" transform="translate(0 0.78125)"/>
      <use xlink:href="#DejaVuSans-3d" transform="translate(82.861328 0.78125)"/>
      <use xlink:href="#DejaVuSans-30" transform="translate(186.132812 0.78125)"/>
      <use xlink:href="#DejaVuSans-2e" transform="translate(249.755859 0.78125)"/>
      <use xlink:href="#DejaVuSans-30" transform="translate(281.542969 0.78125)"/>
      <use xlink:href="#DejaVuSans-30" transform="translate(345.166016 0.78125)"/>
      <use xlink:href="#DejaVuSans-32" transform="translate(408.789062 0.78125)"/>
      <use xlink:href="#DejaVuSans-31" transform="translate(472.412109 0.78125)"/>
      <use xlink:href="#DejaVuSans-35" transform="translate(536.035156 0.78125)"/>
      <use xlink:href="#DejaVuSans-34" transform="translate(599.658203 0.78125)"/>
      <use xlink:href="#DejaVuSans-34" transform="translate(663.28125 0.78125)"/>
      <use xlink:href="#DejaVuSans-33" transform="translate(726.904297 0.78125)"/>
     </g>
    </g>
    <g id="line2d_71">
     <path d="M 294.923571 156.613125 
L 306.923571 156.613125 
L 318.923571 156.613125 
" style="fill: none; stroke: #9a169f; stroke-width: 2.2; stroke-linecap: square"/>
    </g>
    <g id="text_24">
     <!-- $\eta=0.00464159$ -->
     <g transform="translate(328.523571 160.813125) scale(0.12 -0.12)">
      <defs>
       <path id="DejaVuSans-39" d="M 703 97 
L 703 672 
Q 941 559 1184 500 
Q 1428 441 1663 441 
Q 2288 441 2617 861 
Q 2947 1281 2994 2138 
Q 2813 1869 2534 1725 
Q 2256 1581 1919 1581 
Q 1219 1581 811 2004 
Q 403 2428 403 3163 
Q 403 3881 828 4315 
Q 1253 4750 1959 4750 
Q 2769 4750 3195 4129 
Q 3622 3509 3622 2328 
Q 3622 1225 3098 567 
Q 2575 -91 1691 -91 
Q 1453 -91 1209 -44 
Q 966 3 703 97 
z
M 1959 2075 
Q 2384 2075 2632 2365 
Q 2881 2656 2881 3163 
Q 2881 3666 2632 3958 
Q 2384 4250 1959 4250 
Q 1534 4250 1286 3958 
Q 1038 3666 1038 3163 
Q 1038 2656 1286 2365 
Q 1534 2075 1959 2075 
z
" transform="scale(0.015625)"/>
      </defs>
      <use xlink:href="#DejaVuSans-Oblique-3b7" transform="translate(0 0.78125)"/>
      <use xlink:href="#DejaVuSans-3d" transform="translate(82.861328 0.78125)"/>
      <use xlink:href="#DejaVuSans-30" transform="translate(186.132812 0.78125)"/>
      <use xlink:href="#DejaVuSans-2e" transform="translate(249.755859 0.78125)"/>
      <use xlink:href="#DejaVuSans-30" transform="translate(281.542969 0.78125)"/>
      <use xlink:href="#DejaVuSans-30" transform="translate(345.166016 0.78125)"/>
      <use xlink:href="#DejaVuSans-34" transform="translate(408.789062 0.78125)"/>
      <use xlink:href="#DejaVuSans-36" transform="translate(472.412109 0.78125)"/>
      <use xlink:href="#DejaVuSans-34" transform="translate(536.035156 0.78125)"/>
      <use xlink:href="#DejaVuSans-31" transform="translate(599.658203 0.78125)"/>
      <use xlink:href="#DejaVuSans-35" transform="translate(663.28125 0.78125)"/>
      <use xlink:href="#DejaVuSans-39" transform="translate(721.404297 0.78125)"/>
     </g>
    </g>
    <g id="line2d_72">
     <path d="M 294.923571 174.25125 
L 306.923571 174.25125 
L 318.923571 174.25125 
" style="fill: none; stroke: #b52f8c; stroke-width: 2.2; stroke-linecap: square"/>
    </g>
    <g id="text_25">
     <!-- $\eta=0.01$ -->
     <g transform="translate(328.523571 178.45125) scale(0.12 -0.12)">
      <use xlink:href="#DejaVuSans-Oblique-3b7" transform="translate(0 0.78125)"/>
      <use xlink:href="#DejaVuSans-3d" transform="translate(82.861328 0.78125)"/>
      <use xlink:href="#DejaVuSans-30" transform="translate(186.132812 0.78125)"/>
      <use xlink:href="#DejaVuSans-2e" transform="translate(249.755859 0.78125)"/>
      <use xlink:href="#DejaVuSans-30" transform="translate(281.542969 0.78125)"/>
      <use xlink:href="#DejaVuSans-31" transform="translate(345.166016 0.78125)"/>
     </g>
    </g>
    <g id="line2d_73">
     <path d="M 294.923571 191.889375 
L 306.923571 191.889375 
L 318.923571 191.889375 
" style="fill: none; stroke: #cc4778; stroke-width: 2.2; stroke-linecap: square"/>
    </g>
    <g id="text_26">
     <!-- $\eta=0.0215443$ -->
     <g transform="translate(328.523571 196.089375) scale(0.12 -0.12)">
      <use xlink:href="#DejaVuSans-Oblique-3b7" transform="translate(0 0.78125)"/>
      <use xlink:href="#DejaVuSans-3d" transform="translate(82.861328 0.78125)"/>
      <use xlink:href="#DejaVuSans-30" transform="translate(186.132812 0.78125)"/>
      <use xlink:href="#DejaVuSans-2e" transform="translate(249.755859 0.78125)"/>
      <use xlink:href="#DejaVuSans-30" transform="translate(281.542969 0.78125)"/>
      <use xlink:href="#DejaVuSans-32" transform="translate(345.166016 0.78125)"/>
      <use xlink:href="#DejaVuSans-31" transform="translate(408.789062 0.78125)"/>
      <use xlink:href="#DejaVuSans-35" transform="translate(472.412109 0.78125)"/>
      <use xlink:href="#DejaVuSans-34" transform="translate(536.035156 0.78125)"/>
      <use xlink:href="#DejaVuSans-34" transform="translate(599.658203 0.78125)"/>
      <use xlink:href="#DejaVuSans-33" transform="translate(663.28125 0.78125)"/>
     </g>
    </g>
    <g id="line2d_74">
     <path d="M 294.923571 209.5275 
L 306.923571 209.5275 
L 318.923571 209.5275 
" style="fill: none; stroke: #de5f65; stroke-width: 2.2; stroke-linecap: square"/>
    </g>
    <g id="text_27">
     <!-- $\eta=0.0464159$ -->
     <g transform="translate(328.523571 213.7275) scale(0.12 -0.12)">
      <use xlink:href="#DejaVuSans-Oblique-3b7" transform="translate(0 0.78125)"/>
      <use xlink:href="#DejaVuSans-3d" transform="translate(82.861328 0.78125)"/>
      <use xlink:href="#DejaVuSans-30" transform="translate(186.132812 0.78125)"/>
      <use xlink:href="#DejaVuSans-2e" transform="translate(249.755859 0.78125)"/>
      <use xlink:href="#DejaVuSans-30" transform="translate(281.542969 0.78125)"/>
      <use xlink:href="#DejaVuSans-34" transform="translate(345.166016 0.78125)"/>
      <use xlink:href="#DejaVuSans-36" transform="translate(408.789062 0.78125)"/>
      <use xlink:href="#DejaVuSans-34" transform="translate(472.412109 0.78125)"/>
      <use xlink:href="#DejaVuSans-31" transform="translate(536.035156 0.78125)"/>
      <use xlink:href="#DejaVuSans-35" transform="translate(599.658203 0.78125)"/>
      <use xlink:href="#DejaVuSans-39" transform="translate(657.78125 0.78125)"/>
     </g>
    </g>
    <g id="line2d_75">
     <path d="M 294.923571 227.165625 
L 306.923571 227.165625 
L 318.923571 227.165625 
" style="fill: none; stroke: #ed7a52; stroke-width: 2.2; stroke-linecap: square"/>
    </g>
    <g id="text_28">
     <!-- $\eta=0.1$ -->
     <g transform="translate(328.523571 231.365625) scale(0.12 -0.12)">
      <use xlink:href="#DejaVuSans-Oblique-3b7" transform="translate(0 0.78125)"/>
      <use xlink:href="#DejaVuSans-3d" transform="translate(82.861328 0.78125)"/>
      <use xlink:href="#DejaVuSans-30" transform="translate(186.132812 0.78125)"/>
      <use xlink:href="#DejaVuSans-2e" transform="translate(249.755859 0.78125)"/>
      <use xlink:href="#DejaVuSans-31" transform="translate(281.542969 0.78125)"/>
     </g>
    </g>
    <g id="line2d_76">
     <path d="M 294.923571 244.80375 
L 306.923571 244.80375 
L 318.923571 244.80375 
" style="fill: none; stroke: #f89540; stroke-width: 2.2; stroke-linecap: square"/>
    </g>
    <g id="text_29">
     <!-- $\eta=0.215443$ -->
     <g transform="translate(328.523571 249.00375) scale(0.12 -0.12)">
      <use xlink:href="#DejaVuSans-Oblique-3b7" transform="translate(0 0.78125)"/>
      <use xlink:href="#DejaVuSans-3d" transform="translate(82.861328 0.78125)"/>
      <use xlink:href="#DejaVuSans-30" transform="translate(186.132812 0.78125)"/>
      <use xlink:href="#DejaVuSans-2e" transform="translate(249.755859 0.78125)"/>
      <use xlink:href="#DejaVuSans-32" transform="translate(276.042969 0.78125)"/>
      <use xlink:href="#DejaVuSans-31" transform="translate(339.666016 0.78125)"/>
      <use xlink:href="#DejaVuSans-35" transform="translate(403.289062 0.78125)"/>
      <use xlink:href="#DejaVuSans-34" transform="translate(466.912109 0.78125)"/>
      <use xlink:href="#DejaVuSans-34" transform="translate(530.535156 0.78125)"/>
      <use xlink:href="#DejaVuSans-33" transform="translate(594.158203 0.78125)"/>
     </g>
    </g>
    <g id="line2d_77">
     <path d="M 294.923571 262.441875 
L 306.923571 262.441875 
L 318.923571 262.441875 
" style="fill: none; stroke: #fdb52e; stroke-width: 2.2; stroke-linecap: square"/>
    </g>
    <g id="text_30">
     <!-- $\eta=0.464159$ -->
     <g transform="translate(328.523571 266.641875) scale(0.12 -0.12)">
      <use xlink:href="#DejaVuSans-Oblique-3b7" transform="translate(0 0.78125)"/>
      <use xlink:href="#DejaVuSans-3d" transform="translate(82.861328 0.78125)"/>
      <use xlink:href="#DejaVuSans-30" transform="translate(186.132812 0.78125)"/>
      <use xlink:href="#DejaVuSans-2e" transform="translate(249.755859 0.78125)"/>
      <use xlink:href="#DejaVuSans-34" transform="translate(281.542969 0.78125)"/>
      <use xlink:href="#DejaVuSans-36" transform="translate(345.166016 0.78125)"/>
      <use xlink:href="#DejaVuSans-34" transform="translate(408.789062 0.78125)"/>
      <use xlink:href="#DejaVuSans-31" transform="translate(472.412109 0.78125)"/>
      <use xlink:href="#DejaVuSans-35" transform="translate(536.035156 0.78125)"/>
      <use xlink:href="#DejaVuSans-39" transform="translate(594.158203 0.78125)"/>
     </g>
    </g>
    <g id="line2d_78">
     <path d="M 294.923571 280.08 
L 306.923571 280.08 
L 318.923571 280.08 
" style="fill: none; stroke: #fbd724; stroke-width: 2.2; stroke-linecap: square"/>
    </g>
    <g id="text_31">
     <!-- $\eta=1$ -->
     <g transform="translate(328.523571 284.28) scale(0.12 -0.12)">
      <use xlink:href="#DejaVuSans-Oblique-3b7" transform="translate(0 0.09375)"/>
      <use xlink:href="#DejaVuSans-3d" transform="translate(82.861328 0.09375)"/>
      <use xlink:href="#DejaVuSans-31" transform="translate(186.132812 0.09375)"/>
     </g>
    </g>
   </g>
  </g>
  <g id="axes_2">
   <g id="patch_5">
    <path d="M 527.416714 297.6 
L 915.638143 297.6 
L 915.638143 38.4 
L 527.416714 38.4 
z
" style="fill: #ffffff"/>
   </g>
   <g id="matplotlib.axis_3">
    <g id="xtick_11">
     <g id="line2d_79">
      <g>
       <use xlink:href="#ma55788a4d6" x="527.416714" y="297.6" style="stroke: #000000; stroke-width: 0.8"/>
      </g>
     </g>
     <g id="text_32">
      <!-- $\mathdefault{10^{-7}}$ -->
      <g transform="translate(512.141714 310.977969) scale(0.13 -0.13)">
       <use xlink:href="#DejaVuSans-31" transform="translate(0 0.684375)"/>
       <use xlink:href="#DejaVuSans-30" transform="translate(63.623047 0.684375)"/>
       <use xlink:href="#DejaVuSans-2212" transform="translate(128.203125 38.965625) scale(0.7)"/>
       <use xlink:href="#DejaVuSans-37" transform="translate(186.855469 38.965625) scale(0.7)"/>
      </g>
     </g>
    </g>
    <g id="xtick_12">
     <g id="line2d_80">
      <g>
       <use xlink:href="#ma55788a4d6" x="570.552429" y="297.6" style="stroke: #000000; stroke-width: 0.8"/>
      </g>
     </g>
     <g id="text_33">
      <!-- $\mathdefault{10^{-6}}$ -->
      <g transform="translate(555.277429 310.977969) scale(0.13 -0.13)">
       <use xlink:href="#DejaVuSans-31" transform="translate(0 0.765625)"/>
       <use xlink:href="#DejaVuSans-30" transform="translate(63.623047 0.765625)"/>
       <use xlink:href="#DejaVuSans-2212" transform="translate(128.203125 39.046875) scale(0.7)"/>
       <use xlink:href="#DejaVuSans-36" transform="translate(186.855469 39.046875) scale(0.7)"/>
      </g>
     </g>
    </g>
    <g id="xtick_13">
     <g id="line2d_81">
      <g>
       <use xlink:href="#ma55788a4d6" x="613.688143" y="297.6" style="stroke: #000000; stroke-width: 0.8"/>
      </g>
     </g>
     <g id="text_34">
      <!-- $\mathdefault{10^{-5}}$ -->
      <g transform="translate(598.413143 310.977969) scale(0.13 -0.13)">
       <use xlink:href="#DejaVuSans-31" transform="translate(0 0.684375)"/>
       <use xlink:href="#DejaVuSans-30" transform="translate(63.623047 0.684375)"/>
       <use xlink:href="#DejaVuSans-2212" transform="translate(128.203125 38.965625) scale(0.7)"/>
       <use xlink:href="#DejaVuSans-35" transform="translate(186.855469 38.965625) scale(0.7)"/>
      </g>
     </g>
    </g>
    <g id="xtick_14">
     <g id="line2d_82">
      <g>
       <use xlink:href="#ma55788a4d6" x="656.823857" y="297.6" style="stroke: #000000; stroke-width: 0.8"/>
      </g>
     </g>
     <g id="text_35">
      <!-- $\mathdefault{10^{-4}}$ -->
      <g transform="translate(641.548857 310.977969) scale(0.13 -0.13)">
       <use xlink:href="#DejaVuSans-31" transform="translate(0 0.684375)"/>
       <use xlink:href="#DejaVuSans-30" transform="translate(63.623047 0.684375)"/>
       <use xlink:href="#DejaVuSans-2212" transform="translate(128.203125 38.965625) scale(0.7)"/>
       <use xlink:href="#DejaVuSans-34" transform="translate(186.855469 38.965625) scale(0.7)"/>
      </g>
     </g>
    </g>
    <g id="xtick_15">
     <g id="line2d_83">
      <g>
       <use xlink:href="#ma55788a4d6" x="699.959571" y="297.6" style="stroke: #000000; stroke-width: 0.8"/>
      </g>
     </g>
     <g id="text_36">
      <!-- $\mathdefault{10^{-3}}$ -->
      <g transform="translate(684.684571 310.977969) scale(0.13 -0.13)">
       <use xlink:href="#DejaVuSans-31" transform="translate(0 0.765625)"/>
       <use xlink:href="#DejaVuSans-30" transform="translate(63.623047 0.765625)"/>
       <use xlink:href="#DejaVuSans-2212" transform="translate(128.203125 39.046875) scale(0.7)"/>
       <use xlink:href="#DejaVuSans-33" transform="translate(186.855469 39.046875) scale(0.7)"/>
      </g>
     </g>
    </g>
    <g id="xtick_16">
     <g id="line2d_84">
      <g>
       <use xlink:href="#ma55788a4d6" x="743.095286" y="297.6" style="stroke: #000000; stroke-width: 0.8"/>
      </g>
     </g>
     <g id="text_37">
      <!-- $\mathdefault{10^{-2}}$ -->
      <g transform="translate(727.820286 310.977969) scale(0.13 -0.13)">
       <use xlink:href="#DejaVuSans-31" transform="translate(0 0.765625)"/>
       <use xlink:href="#DejaVuSans-30" transform="translate(63.623047 0.765625)"/>
       <use xlink:href="#DejaVuSans-2212" transform="translate(128.203125 39.046875) scale(0.7)"/>
       <use xlink:href="#DejaVuSans-32" transform="translate(186.855469 39.046875) scale(0.7)"/>
      </g>
     </g>
    </g>
    <g id="xtick_17">
     <g id="line2d_85">
      <g>
       <use xlink:href="#ma55788a4d6" x="786.231" y="297.6" style="stroke: #000000; stroke-width: 0.8"/>
      </g>
     </g>
     <g id="text_38">
      <!-- $\mathdefault{10^{-1}}$ -->
      <g transform="translate(770.956 310.977969) scale(0.13 -0.13)">
       <use xlink:href="#DejaVuSans-31" transform="translate(0 0.684375)"/>
       <use xlink:href="#DejaVuSans-30" transform="translate(63.623047 0.684375)"/>
       <use xlink:href="#DejaVuSans-2212" transform="translate(128.203125 38.965625) scale(0.7)"/>
       <use xlink:href="#DejaVuSans-31" transform="translate(186.855469 38.965625) scale(0.7)"/>
      </g>
     </g>
    </g>
    <g id="xtick_18">
     <g id="line2d_86">
      <g>
       <use xlink:href="#ma55788a4d6" x="829.366714" y="297.6" style="stroke: #000000; stroke-width: 0.8"/>
      </g>
     </g>
     <g id="text_39">
      <!-- $\mathdefault{10^{0}}$ -->
      <g transform="translate(817.926714 310.977969) scale(0.13 -0.13)">
       <use xlink:href="#DejaVuSans-31" transform="translate(0 0.765625)"/>
       <use xlink:href="#DejaVuSans-30" transform="translate(63.623047 0.765625)"/>
       <use xlink:href="#DejaVuSans-30" transform="translate(128.203125 39.046875) scale(0.7)"/>
      </g>
     </g>
    </g>
    <g id="xtick_19">
     <g id="line2d_87">
      <g>
       <use xlink:href="#ma55788a4d6" x="872.502429" y="297.6" style="stroke: #000000; stroke-width: 0.8"/>
      </g>
     </g>
     <g id="text_40">
      <!-- $\mathdefault{10^{1}}$ -->
      <g transform="translate(861.062429 310.977969) scale(0.13 -0.13)">
       <use xlink:href="#DejaVuSans-31" transform="translate(0 0.684375)"/>
       <use xlink:href="#DejaVuSans-30" transform="translate(63.623047 0.684375)"/>
       <use xlink:href="#DejaVuSans-31" transform="translate(128.203125 38.965625) scale(0.7)"/>
      </g>
     </g>
    </g>
    <g id="xtick_20">
     <g id="line2d_88">
      <g>
       <use xlink:href="#ma55788a4d6" x="915.638143" y="297.6" style="stroke: #000000; stroke-width: 0.8"/>
      </g>
     </g>
     <g id="text_41">
      <!-- $\mathdefault{10^{2}}$ -->
      <g transform="translate(904.198143 310.977969) scale(0.13 -0.13)">
       <use xlink:href="#DejaVuSans-31" transform="translate(0 0.765625)"/>
       <use xlink:href="#DejaVuSans-30" transform="translate(63.623047 0.765625)"/>
       <use xlink:href="#DejaVuSans-32" transform="translate(128.203125 39.046875) scale(0.7)"/>
      </g>
     </g>
    </g>
   </g>
   <g id="matplotlib.axis_4">
    <g id="ytick_44">
     <g id="line2d_89">
      <g>
       <use xlink:href="#m5bcfc824c7" x="527.416714" y="297.6" style="stroke: #000000; stroke-width: 0.8"/>
      </g>
     </g>
     <g id="text_42">
      <!-- 0.0 -->
      <g transform="translate(503.242652 302.538984) scale(0.13 -0.13)">
       <use xlink:href="#DejaVuSans-30"/>
       <use xlink:href="#DejaVuSans-2e" x="63.623047"/>
       <use xlink:href="#DejaVuSans-30" x="95.410156"/>
      </g>
     </g>
    </g>
    <g id="ytick_45">
     <g id="line2d_90">
      <g>
       <use xlink:href="#m5bcfc824c7" x="527.416714" y="254.4" style="stroke: #000000; stroke-width: 0.8"/>
      </g>
     </g>
     <g id="text_43">
      <!-- 0.2 -->
      <g transform="translate(503.242652 259.338984) scale(0.13 -0.13)">
       <use xlink:href="#DejaVuSans-30"/>
       <use xlink:href="#DejaVuSans-2e" x="63.623047"/>
       <use xlink:href="#DejaVuSans-32" x="95.410156"/>
      </g>
     </g>
    </g>
    <g id="ytick_46">
     <g id="line2d_91">
      <g>
       <use xlink:href="#m5bcfc824c7" x="527.416714" y="211.2" style="stroke: #000000; stroke-width: 0.8"/>
      </g>
     </g>
     <g id="text_44">
      <!-- 0.4 -->
      <g transform="translate(503.242652 216.138984) scale(0.13 -0.13)">
       <use xlink:href="#DejaVuSans-30"/>
       <use xlink:href="#DejaVuSans-2e" x="63.623047"/>
       <use xlink:href="#DejaVuSans-34" x="95.410156"/>
      </g>
     </g>
    </g>
    <g id="ytick_47">
     <g id="line2d_92">
      <g>
       <use xlink:href="#m5bcfc824c7" x="527.416714" y="168" style="stroke: #000000; stroke-width: 0.8"/>
      </g>
     </g>
     <g id="text_45">
      <!-- 0.6 -->
      <g transform="translate(503.242652 172.938984) scale(0.13 -0.13)">
       <use xlink:href="#DejaVuSans-30"/>
       <use xlink:href="#DejaVuSans-2e" x="63.623047"/>
       <use xlink:href="#DejaVuSans-36" x="95.410156"/>
      </g>
     </g>
    </g>
    <g id="ytick_48">
     <g id="line2d_93">
      <g>
       <use xlink:href="#m5bcfc824c7" x="527.416714" y="124.8" style="stroke: #000000; stroke-width: 0.8"/>
      </g>
     </g>
     <g id="text_46">
      <!-- 0.8 -->
      <g transform="translate(503.242652 129.738984) scale(0.13 -0.13)">
       <defs>
        <path id="DejaVuSans-38" d="M 2034 2216 
Q 1584 2216 1326 1975 
Q 1069 1734 1069 1313 
Q 1069 891 1326 650 
Q 1584 409 2034 409 
Q 2484 409 2743 651 
Q 3003 894 3003 1313 
Q 3003 1734 2745 1975 
Q 2488 2216 2034 2216 
z
M 1403 2484 
Q 997 2584 770 2862 
Q 544 3141 544 3541 
Q 544 4100 942 4425 
Q 1341 4750 2034 4750 
Q 2731 4750 3128 4425 
Q 3525 4100 3525 3541 
Q 3525 3141 3298 2862 
Q 3072 2584 2669 2484 
Q 3125 2378 3379 2068 
Q 3634 1759 3634 1313 
Q 3634 634 3220 271 
Q 2806 -91 2034 -91 
Q 1263 -91 848 271 
Q 434 634 434 1313 
Q 434 1759 690 2068 
Q 947 2378 1403 2484 
z
M 1172 3481 
Q 1172 3119 1398 2916 
Q 1625 2713 2034 2713 
Q 2441 2713 2670 2916 
Q 2900 3119 2900 3481 
Q 2900 3844 2670 4047 
Q 2441 4250 2034 4250 
Q 1625 4250 1398 4047 
Q 1172 3844 1172 3481 
z
" transform="scale(0.015625)"/>
       </defs>
       <use xlink:href="#DejaVuSans-30"/>
       <use xlink:href="#DejaVuSans-2e" x="63.623047"/>
       <use xlink:href="#DejaVuSans-38" x="95.410156"/>
      </g>
     </g>
    </g>
    <g id="ytick_49">
     <g id="line2d_94">
      <g>
       <use xlink:href="#m5bcfc824c7" x="527.416714" y="81.6" style="stroke: #000000; stroke-width: 0.8"/>
      </g>
     </g>
     <g id="text_47">
      <!-- 1.0 -->
      <g transform="translate(503.242652 86.538984) scale(0.13 -0.13)">
       <use xlink:href="#DejaVuSans-31"/>
       <use xlink:href="#DejaVuSans-2e" x="63.623047"/>
       <use xlink:href="#DejaVuSans-30" x="95.410156"/>
      </g>
     </g>
    </g>
    <g id="ytick_50">
     <g id="line2d_95">
      <g>
       <use xlink:href="#m5bcfc824c7" x="527.416714" y="38.4" style="stroke: #000000; stroke-width: 0.8"/>
      </g>
     </g>
     <g id="text_48">
      <!-- 1.2 -->
      <g transform="translate(503.242652 43.338984) scale(0.13 -0.13)">
       <use xlink:href="#DejaVuSans-31"/>
       <use xlink:href="#DejaVuSans-2e" x="63.623047"/>
       <use xlink:href="#DejaVuSans-32" x="95.410156"/>
      </g>
     </g>
    </g>
   </g>
   <g id="line2d_96">
    <path d="M 527.416714 146.401931 
L 637.114553 146.514668 
L 667.456508 146.755742 
L 686.128481 147.113035 
L 700.13246 147.599386 
L 711.024444 148.194671 
L 720.36043 148.931284 
L 728.140419 149.766252 
L 735.142409 150.744014 
L 741.366399 151.840484 
L 746.812391 153.014561 
L 752.258383 154.428049 
L 756.926376 155.862118 
L 761.59437 157.532434 
L 766.262363 159.47041 
L 770.152357 161.313516 
L 774.042351 163.384561 
L 777.932346 165.70247 
L 781.82234 168.285118 
L 785.712334 171.148472 
L 789.602328 174.3056 
L 793.492323 177.765564 
L 797.382317 181.532267 
L 801.272311 185.603315 
L 805.162305 189.969009 
L 809.830299 195.571146 
L 814.498292 201.524661 
L 819.944284 208.828121 
L 827.724272 219.681048 
L 839.394255 235.998893 
L 844.840247 243.264823 
L 849.50824 249.176051 
L 854.176233 254.728831 
L 858.066228 259.049648 
L 861.956222 263.073795 
L 865.846216 266.792768 
L 869.73621 270.205224 
L 873.626205 273.315944 
L 877.516199 276.134689 
L 881.406193 278.675047 
L 885.296188 280.953345 
L 889.186182 282.987673 
L 893.076176 284.797054 
L 897.744169 286.698503 
L 902.412162 288.336462 
L 907.080155 289.742103 
L 912.526147 291.126987 
L 915.638143 291.72943 
L 915.638143 291.72943 
" clip-path="url(#p0bb000ca52)" style="fill: none; stroke: #38049a; stroke-width: 2; stroke-linecap: square"/>
   </g>
   <g id="line2d_97">
    <path d="M 527.416714 146.536685 
L 627.000568 146.490774 
L 662.010516 146.69552 
L 682.238486 147.020087 
L 697.020465 147.470808 
L 708.690447 148.048024 
L 718.026434 148.724394 
L 725.806422 149.4919 
L 732.808412 150.39166 
L 739.032403 151.401882 
L 744.478395 152.485008 
L 749.924387 153.790904 
L 754.59238 155.117932 
L 759.260373 156.666259 
L 763.928366 158.466321 
L 767.81836 160.181879 
L 771.708355 162.113819 
L 775.598349 164.281348 
L 779.488343 166.703066 
L 783.378338 169.396194 
L 787.268332 172.375665 
L 791.158326 175.653082 
L 795.04832 179.235583 
L 798.938315 183.124682 
L 802.828309 187.315176 
L 806.718303 191.794208 
L 811.386296 197.519535 
L 816.832288 204.613873 
L 823.056279 213.128679 
L 844.062248 242.248915 
L 848.730241 248.21431 
L 853.398234 253.830401 
L 857.288229 258.208836 
L 861.178223 262.29324 
L 865.068217 266.073568 
L 868.958212 269.547123 
L 872.848206 272.717549 
L 876.7382 275.593706 
L 880.628194 278.188507 
L 884.518189 280.517812 
L 888.408183 282.59943 
L 892.298177 284.452256 
L 896.96617 286.400769 
L 901.634163 288.080426 
L 906.302157 289.522707 
L 911.748149 290.944462 
L 914.860144 291.646308 
L 915.638143 291.729434 
L 915.638143 291.729434 
" clip-path="url(#p0bb000ca52)" style="fill: none; stroke: #5b01a5; stroke-width: 2; stroke-linecap: square"/>
   </g>
   <g id="line2d_98">
    <path d="M 527.416714 147.02429 
L 609.884593 146.527202 
L 649.562534 146.614995 
L 673.680499 146.866527 
L 690.796474 147.259845 
L 703.244455 147.754526 
L 713.358441 148.362725 
L 721.916428 149.08546 
L 729.696417 149.967387 
L 736.698406 150.999804 
L 742.922397 152.156881 
L 748.368389 153.394913 
L 753.814381 154.884012 
L 758.482374 156.393188 
L 763.150367 158.148907 
L 767.040362 159.823363 
L 770.930356 161.710354 
L 774.82035 163.829133 
L 778.710344 166.198475 
L 782.600339 168.835944 
L 786.490333 171.757011 
L 790.380327 174.974031 
L 794.270322 178.495127 
L 798.160316 182.323031 
L 802.05031 186.453961 
L 805.940304 190.876654 
L 810.608297 196.541016 
L 815.276291 202.547246 
L 821.500281 210.969608 
L 830.836268 224.075258 
L 840.172254 237.057303 
L 845.618246 244.272676 
L 850.286239 250.127984 
L 854.954232 255.616191 
L 858.844226 259.878713 
L 862.734221 263.84225 
L 866.624215 267.499803 
L 870.514209 270.851342 
L 874.404204 273.902737 
L 878.294198 276.664607 
L 882.184192 279.15117 
L 886.074186 281.379179 
L 889.964181 283.366973 
L 893.854175 285.133674 
L 898.522168 286.988963 
L 903.190161 288.586085 
L 907.858154 289.955889 
L 913.304146 291.304751 
L 915.638143 291.729449 
L 915.638143 291.729449 
" clip-path="url(#p0bb000ca52)" style="fill: none; stroke: #7d03a8; stroke-width: 2; stroke-linecap: square"/>
   </g>
   <g id="line2d_99">
    <path d="M 527.416714 149.225461 
L 531.306709 149.003187 
L 544.532689 148.307422 
L 560.092666 147.721502 
L 578.764639 147.253852 
L 601.326605 146.918176 
L 629.334564 146.732928 
L 656.564524 146.763829 
L 677.570493 146.994013 
L 693.13047 147.376155 
L 705.578452 147.904868 
L 715.692437 148.560816 
L 724.250425 149.342943 
L 731.252414 150.190463 
L 737.476405 151.144068 
L 743.700396 152.330959 
L 749.146388 153.600898 
L 753.814381 154.8925 
L 758.482374 156.400692 
L 763.150367 158.155538 
L 767.040362 159.82934 
L 770.930356 161.71574 
L 774.82035 163.833983 
L 778.710344 166.20284 
L 782.600339 168.839871 
L 786.490333 171.760542 
L 790.380327 174.977204 
L 794.270322 178.497977 
L 798.160316 182.325588 
L 802.05031 186.456255 
L 805.940304 190.878711 
L 810.608297 196.542818 
L 815.276291 202.548824 
L 821.500281 210.970927 
L 830.836268 224.076263 
L 840.172254 237.058066 
L 845.618246 244.273325 
L 850.286239 250.128548 
L 854.954232 255.61668 
L 858.844226 259.879147 
L 862.734221 263.842635 
L 866.624215 267.500144 
L 870.514209 270.851645 
L 874.404204 273.903005 
L 878.294198 276.664844 
L 882.184192 279.15138 
L 886.074186 281.379365 
L 889.964181 283.367137 
L 893.854175 285.133818 
L 898.522168 286.989087 
L 903.190161 288.586191 
L 907.858154 289.95598 
L 913.304146 291.304827 
L 915.638143 291.729521 
L 915.638143 291.729521 
" clip-path="url(#p0bb000ca52)" style="fill: none; stroke: #9a169f; stroke-width: 2; stroke-linecap: square"/>
   </g>
   <g id="line2d_100">
    <path d="M 527.416714 158.264795 
L 528.972712 157.974875 
L 535.974702 156.359492 
L 543.75469 154.801574 
L 551.534679 153.467566 
L 560.092666 152.227731 
L 569.428652 151.109768 
L 579.542638 150.13128 
L 590.434622 149.300111 
L 602.882603 148.576725 
L 616.886583 147.98858 
L 633.224559 147.534118 
L 651.118532 147.26306 
L 669.012506 147.208589 
L 684.572483 147.366532 
L 697.798463 147.710961 
L 708.690447 148.206842 
L 718.026434 148.849743 
L 725.806422 149.594675 
L 732.808412 150.47752 
L 739.032403 151.474988 
L 744.478395 152.548468 
L 749.924387 153.845948 
L 754.59238 155.166624 
L 759.260373 156.709305 
L 763.928366 158.50435 
L 767.81836 160.216159 
L 771.708355 162.144704 
L 775.598349 164.309161 
L 779.488343 166.728098 
L 783.378338 169.418711 
L 787.268332 172.395909 
L 791.158326 175.671271 
L 795.04832 179.251916 
L 798.938315 183.139341 
L 802.828309 187.328323 
L 806.718303 191.805991 
L 811.386296 197.529859 
L 816.832288 204.622711 
L 823.056279 213.136066 
L 844.062248 242.252896 
L 848.730241 248.21777 
L 853.398234 253.833404 
L 857.288229 258.211504 
L 861.178223 262.295608 
L 865.068217 266.075668 
L 868.958212 269.548984 
L 872.848206 272.719197 
L 876.7382 275.595165 
L 880.628194 278.189797 
L 884.518189 280.518952 
L 888.408183 282.600437 
L 892.298177 284.453145 
L 896.96617 286.401533 
L 901.634163 288.081083 
L 906.302157 289.52327 
L 911.748149 290.944933 
L 914.860144 291.646733 
L 915.638143 291.729853 
L 915.638143 291.729853 
" clip-path="url(#p0bb000ca52)" style="fill: none; stroke: #b52f8c; stroke-width: 2; stroke-linecap: square"/>
   </g>
   <g id="line2d_101">
    <path d="M 527.416714 184.635715 
L 528.194713 184.417852 
L 536.752701 179.74641 
L 544.532689 175.751376 
L 551.534679 172.39903 
L 558.536668 169.299648 
L 565.538658 166.465049 
L 572.540648 163.898322 
L 579.542638 161.595196 
L 586.544627 159.545597 
L 593.546617 157.735239 
L 600.548607 156.147086 
L 608.328595 154.620563 
L 616.108584 153.319604 
L 624.666571 152.119058 
L 634.002557 151.049503 
L 644.116543 150.133857 
L 655.008526 149.389591 
L 665.90051 148.863485 
L 677.570493 148.520253 
L 689.240476 148.402688 
L 700.13246 148.516793 
L 709.468446 148.82064 
L 718.026434 149.308297 
L 725.806422 149.971034 
L 732.808412 150.792176 
L 739.032403 151.743056 
L 744.478395 152.781265 
L 749.924387 154.047945 
L 754.59238 155.345361 
L 759.260373 156.867355 
L 763.928366 158.64401 
L 767.81836 160.342071 
L 771.708355 162.258163 
L 775.598349 164.411344 
L 779.488343 166.820077 
L 783.378338 169.501458 
L 787.268332 172.470308 
L 791.158326 175.738126 
L 795.04832 179.311954 
L 798.938315 183.193225 
L 802.828309 187.376654 
L 806.718303 191.849313 
L 811.386296 197.567817 
L 816.832288 204.655205 
L 823.056279 213.163228 
L 844.062248 242.267532 
L 848.730241 248.230491 
L 853.398234 253.844449 
L 857.288229 258.221314 
L 861.178223 262.304315 
L 865.068217 266.08339 
L 868.958212 269.555827 
L 872.848206 272.725258 
L 876.7382 275.600529 
L 880.628194 278.194541 
L 884.518189 280.523144 
L 888.408183 282.604139 
L 892.298177 284.456412 
L 896.96617 286.404342 
L 901.634163 288.083496 
L 906.302157 289.525342 
L 911.748149 290.946665 
L 914.860144 291.648295 
L 915.638143 291.731395 
L 915.638143 291.731395 
" clip-path="url(#p0bb000ca52)" style="fill: none; stroke: #cc4778; stroke-width: 2; stroke-linecap: square"/>
   </g>
   <g id="line2d_102">
    <path d="M 527.416714 219.777905 
L 528.194713 219.605983 
L 535.196703 216.380415 
L 542.198693 212.904962 
L 549.978681 208.78207 
L 558.536668 203.988137 
L 570.206651 197.169145 
L 590.434622 185.305697 
L 598.992609 180.54887 
L 606.772597 176.471206 
L 613.774587 173.044589 
L 620.776577 169.874613 
L 627.000568 167.284675 
L 633.224559 164.914082 
L 639.448549 162.762559 
L 645.67254 160.825927 
L 652.67453 158.89516 
L 659.67652 157.214385 
L 666.678509 155.769202 
L 673.680499 154.545242 
L 680.682489 153.529485 
L 688.462477 152.63239 
L 696.242466 151.970306 
L 704.022454 151.541303 
L 711.802443 151.352467 
L 718.804433 151.402545 
L 725.806422 151.683911 
L 732.030413 152.154121 
L 738.254404 152.862949 
L 743.700396 153.708975 
L 749.146388 154.798292 
L 753.814381 155.95316 
L 758.482374 157.339503 
L 763.150367 158.985843 
L 767.040362 160.578408 
L 770.930356 162.391137 
L 774.82035 164.442604 
L 778.710344 166.750965 
L 782.600339 169.333219 
L 786.490333 172.204317 
L 790.380327 175.376141 
L 794.270322 178.85638 
L 798.160316 182.64737 
L 802.05031 186.74497 
L 805.940304 191.137584 
L 810.608297 196.769723 
L 815.276291 202.747513 
L 820.722283 210.067871 
L 829.28027 222.011851 
L 839.394255 236.098328 
L 844.840247 243.34935 
L 849.50824 249.249507 
L 854.176233 254.792599 
L 858.066228 259.10628 
L 861.956222 263.124053 
L 865.846216 266.837337 
L 869.73621 270.244719 
L 873.626205 273.350917 
L 877.516199 276.165635 
L 881.406193 278.702411 
L 885.296188 280.977525 
L 889.186182 283.009024 
L 893.076176 284.815894 
L 897.744169 286.714702 
L 902.412162 288.350377 
L 907.080155 289.754045 
L 912.526147 291.136966 
L 915.638143 291.738547 
L 915.638143 291.738547 
" clip-path="url(#p0bb000ca52)" style="fill: none; stroke: #de5f65; stroke-width: 2; stroke-linecap: square"/>
   </g>
   <g id="line2d_103">
    <path d="M 527.416714 237.899054 
L 528.972712 237.734761 
L 537.530699 236.395573 
L 545.310688 234.948182 
L 552.312678 233.433605 
L 559.314667 231.696479 
L 566.316657 229.716921 
L 572.540648 227.739582 
L 578.764639 225.547105 
L 584.98863 223.133189 
L 591.21262 220.495962 
L 597.436611 217.638943 
L 604.438601 214.174485 
L 611.440591 210.46862 
L 619.220579 206.111387 
L 629.334564 200.174328 
L 656.564524 184.00413 
L 664.344513 179.711072 
L 671.346502 176.088917 
L 677.570493 173.096536 
L 683.794484 170.342153 
L 690.018475 167.843332 
L 695.464467 165.876887 
L 700.910459 164.122856 
L 706.356451 162.586752 
L 711.802443 161.27374 
L 717.248435 160.189494 
L 722.694427 159.341065 
L 728.140419 158.737741 
L 732.808412 158.424952 
L 737.476405 158.311241 
L 742.144398 158.408986 
L 746.812391 158.733212 
L 751.480384 159.301772 
L 755.370379 159.977094 
L 759.260373 160.849942 
L 763.150367 161.935043 
L 767.040362 163.24815 
L 770.930356 164.805729 
L 774.82035 166.624512 
L 778.710344 168.720912 
L 782.600339 171.110288 
L 786.490333 173.806052 
L 790.380327 176.81865 
L 794.270322 180.154429 
L 798.160316 183.814479 
L 802.05031 187.793501 
L 805.940304 192.07883 
L 810.608297 197.595745 
L 815.276291 203.471586 
L 820.722283 210.687899 
L 828.502271 221.411686 
L 840.172254 237.506071 
L 845.618246 244.65422 
L 850.286239 250.459583 
L 854.954232 255.904066 
L 858.844226 260.134374 
L 862.734221 264.069131 
L 866.624215 267.700992 
L 870.514209 271.029616 
L 874.404204 274.060589 
L 878.294198 276.804273 
L 882.184192 279.274657 
L 886.074186 281.488284 
L 889.964181 283.463302 
L 893.854175 285.218664 
L 898.522168 287.062029 
L 903.190161 288.648839 
L 907.858154 290.009736 
L 913.304146 291.349739 
L 915.638143 291.771624 
L 915.638143 291.771624 
" clip-path="url(#p0bb000ca52)" style="fill: none; stroke: #ed7a52; stroke-width: 2; stroke-linecap: square"/>
   </g>
   <g id="line2d_104">
    <path d="M 527.416714 243.056594 
L 535.196703 242.861619 
L 549.978681 242.322955 
L 562.426663 241.663877 
L 573.318647 240.87887 
L 583.432632 239.92565 
L 591.990619 238.910436 
L 600.548607 237.66524 
L 608.328595 236.299788 
L 615.330585 234.85341 
L 622.332575 233.176466 
L 628.556565 231.473832 
L 634.780556 229.556512 
L 641.004547 227.41252 
L 647.228538 225.033551 
L 653.452529 222.416271 
L 659.67652 219.563641 
L 666.678509 216.086519 
L 673.680499 212.353023 
L 681.460488 207.956517 
L 692.352472 201.515519 
L 708.690447 191.826633 
L 716.470436 187.49479 
L 722.694427 184.285704 
L 728.140419 181.723408 
L 732.808412 179.745694 
L 737.476405 177.999348 
L 742.144398 176.512148 
L 746.034392 175.490736 
L 749.924387 174.684564 
L 753.814381 174.109835 
L 757.704375 173.78294 
L 761.59437 173.720474 
L 764.706365 173.872133 
L 767.81836 174.212308 
L 770.930356 174.749482 
L 774.042351 175.491931 
L 777.154347 176.447562 
L 780.266342 177.623712 
L 783.378338 179.026907 
L 786.490333 180.662574 
L 789.602328 182.534726 
L 792.714324 184.645611 
L 795.826319 186.995353 
L 798.938315 189.581596 
L 802.828309 193.138805 
L 806.718303 197.040253 
L 810.608297 201.260789 
L 815.276291 206.698843 
L 819.944284 212.474501 
L 826.168275 220.547422 
L 844.062248 244.069507 
L 849.50824 250.724473 
L 854.176233 256.074667 
L 858.844226 261.046867 
L 862.734221 264.879496 
L 866.624215 268.420035 
L 870.514209 271.667085 
L 874.404204 274.62527 
L 878.294198 277.30407 
L 882.184192 279.716673 
L 886.074186 281.878895 
L 889.964181 283.808225 
L 893.854175 285.523017 
L 898.522168 287.323696 
L 903.190161 288.873578 
L 907.858154 290.20257 
L 913.304146 291.510834 
L 915.638143 291.92264 
L 915.638143 291.92264 
" clip-path="url(#p0bb000ca52)" style="fill: none; stroke: #f89540; stroke-width: 2; stroke-linecap: square"/>
   </g>
   <g id="line2d_105">
    <path d="M 527.416714 244.319337 
L 595.102615 244.411515 
L 612.218589 244.142764 
L 625.44457 243.731003 
L 637.114553 243.148919 
L 647.228538 242.419215 
L 655.786525 241.592699 
L 663.566514 240.638328 
L 671.346502 239.455631 
L 678.348492 238.166796 
L 685.350482 236.63915 
L 691.574473 235.062255 
L 697.798463 233.265939 
L 704.022454 231.242637 
L 710.246445 228.992155 
L 717.248435 226.2014 
L 724.250425 223.168999 
L 733.586411 218.854451 
L 749.924387 211.239071 
L 756.148378 208.631237 
L 760.816371 206.902841 
L 764.706365 205.65982 
L 768.596359 204.634336 
L 772.486354 203.8622 
L 775.598349 203.450438 
L 778.710344 203.240303 
L 781.82234 203.247772 
L 784.934335 203.48734 
L 788.046331 203.971623 
L 791.158326 204.710954 
L 794.270322 205.712981 
L 797.382317 206.98227 
L 800.494312 208.519952 
L 803.606308 210.323414 
L 806.718303 212.386064 
L 809.830299 214.697204 
L 813.720293 217.912606 
L 817.610287 221.455168 
L 821.500281 225.278414 
L 826.168275 230.160608 
L 832.392265 236.99929 
L 846.396245 252.532302 
L 851.842237 258.203738 
L 856.51023 262.764648 
L 861.178223 266.999707 
L 865.068217 270.259401 
L 868.958212 273.265482 
L 872.848206 276.016891 
L 876.7382 278.518073 
L 880.628194 280.777828 
L 884.518189 282.808202 
L 888.408183 284.623477 
L 893.076176 286.539971 
L 897.744169 288.197464 
L 902.412162 289.62409 
L 907.858154 291.03276 
L 913.304146 292.20408 
L 915.638143 292.572383 
L 915.638143 292.572383 
" clip-path="url(#p0bb000ca52)" style="fill: none; stroke: #fdb52e; stroke-width: 2; stroke-linecap: square"/>
   </g>
   <g id="line2d_106">
    <path d="M 527.416714 244.942416 
L 539.086697 245.14342 
L 570.206651 245.846016 
L 598.992609 246.72118 
L 627.778567 247.821661 
L 689.240476 250.278221 
L 702.466457 250.511275 
L 713.358441 250.493316 
L 723.472426 250.252067 
L 732.808412 249.802536 
L 742.144398 249.121845 
L 752.258383 248.150062 
L 776.376348 245.684415 
L 781.82234 245.395755 
L 786.490333 245.335845 
L 791.158326 245.49909 
L 795.04832 245.838729 
L 798.938315 246.388977 
L 802.828309 247.169413 
L 806.718303 248.193837 
L 810.608297 249.468869 
L 814.498292 250.992892 
L 818.388286 252.755475 
L 822.27828 254.737391 
L 826.946273 257.366191 
L 832.392265 260.701465 
L 840.950253 266.266482 
L 851.064238 272.816541 
L 857.288229 276.577675 
L 862.734221 279.601621 
L 867.402214 281.963104 
L 872.070207 284.099069 
L 876.7382 286.007769 
L 881.406193 287.695256 
L 886.074186 289.173271 
L 891.520178 290.653678 
L 896.96617 291.898216 
L 903.190161 293.06927 
L 909.414152 294.0129 
L 914.860144 294.682755 
L 915.638143 294.726019 
L 915.638143 294.726019 
" clip-path="url(#p0bb000ca52)" style="fill: none; stroke: #fbd724; stroke-width: 2; stroke-linecap: square"/>
   </g>
   <g id="line2d_107">
    <path d="M 527.416714 146.4 
L 915.638143 146.4 
" clip-path="url(#p0bb000ca52)" style="fill: none; stroke: #000000; stroke-width: 1.8; stroke-linecap: square"/>
   </g>
   <g id="line2d_108">
    <path d="M 527.416714 243.6 
L 915.638143 243.6 
" clip-path="url(#p0bb000ca52)" style="fill: none; stroke-dasharray: 6.66,2.88; stroke-dashoffset: 0; stroke: #000000; stroke-width: 1.8"/>
   </g>
   <g id="patch_6">
    <path d="M 527.416714 297.6 
L 527.416714 38.4 
" style="fill: none; stroke: #000000; stroke-width: 0.8; stroke-linejoin: miter; stroke-linecap: square"/>
   </g>
   <g id="patch_7">
    <path d="M 527.416714 297.6 
L 915.638143 297.6 
" style="fill: none; stroke: #000000; stroke-width: 0.8; stroke-linejoin: miter; stroke-linecap: square"/>
   </g>
   <g id="text_49">
    <!-- $m_i=0.7$ -->
    <g transform="translate(663.127194 139.92) scale(0.14 -0.14)">
     <use xlink:href="#DejaVuSans-Oblique-6d" transform="translate(0 0.78125)"/>
     <use xlink:href="#DejaVuSans-Oblique-69" transform="translate(97.412109 -15.625) scale(0.7)"/>
     <use xlink:href="#DejaVuSans-3d" transform="translate(139.077148 0.78125)"/>
     <use xlink:href="#DejaVuSans-30" transform="translate(242.348633 0.78125)"/>
     <use xlink:href="#DejaVuSans-2e" transform="translate(305.97168 0.78125)"/>
     <use xlink:href="#DejaVuSans-37" transform="translate(330.008789 0.78125)"/>
    </g>
   </g>
   <g id="text_50">
    <!-- $m_\phi=0.25$ -->
    <g transform="translate(663.127194 237.12) scale(0.14 -0.14)">
     <use xlink:href="#DejaVuSans-Oblique-6d" transform="translate(0 0.78125)"/>
     <use xlink:href="#DejaVuSans-Oblique-3d5" transform="translate(97.412109 -15.625) scale(0.7)"/>
     <use xlink:href="#DejaVuSans-3d" transform="translate(165.805664 0.78125)"/>
     <use xlink:href="#DejaVuSans-30" transform="translate(269.077148 0.78125)"/>
     <use xlink:href="#DejaVuSans-2e" transform="translate(332.700195 0.78125)"/>
     <use xlink:href="#DejaVuSans-32" transform="translate(358.987305 0.78125)"/>
     <use xlink:href="#DejaVuSans-35" transform="translate(422.610352 0.78125)"/>
    </g>
   </g>
   <g id="text_51">
    <!-- $d\ln D_u/d\ln R$ -->
    <g transform="translate(519.652286 25.44) scale(0.24 -0.24)">
     <defs>
      <path id="DejaVuSans-Oblique-64" d="M 2675 525 
Q 2444 222 2128 65 
Q 1813 -91 1428 -91 
Q 903 -91 598 267 
Q 294 625 294 1247 
Q 294 1766 478 2236 
Q 663 2706 1013 3078 
Q 1244 3325 1534 3454 
Q 1825 3584 2144 3584 
Q 2481 3584 2739 3421 
Q 2997 3259 3138 2956 
L 3513 4863 
L 4091 4863 
L 3144 0 
L 2566 0 
L 2675 525 
z
M 891 1350 
Q 891 897 1095 644 
Q 1300 391 1663 391 
Q 1931 391 2161 520 
Q 2391 650 2566 903 
Q 2750 1166 2856 1509 
Q 2963 1853 2963 2188 
Q 2963 2622 2758 2865 
Q 2553 3109 2194 3109 
Q 1922 3109 1687 2981 
Q 1453 2853 1288 2613 
Q 1106 2353 998 2009 
Q 891 1666 891 1350 
z
" transform="scale(0.015625)"/>
      <path id="DejaVuSans-6c" d="M 603 4863 
L 1178 4863 
L 1178 0 
L 603 0 
L 603 4863 
z
" transform="scale(0.015625)"/>
      <path id="DejaVuSans-6e" d="M 3513 2113 
L 3513 0 
L 2938 0 
L 2938 2094 
Q 2938 2591 2744 2837 
Q 2550 3084 2163 3084 
Q 1697 3084 1428 2787 
Q 1159 2491 1159 1978 
L 1159 0 
L 581 0 
L 581 3500 
L 1159 3500 
L 1159 2956 
Q 1366 3272 1645 3428 
Q 1925 3584 2291 3584 
Q 2894 3584 3203 3211 
Q 3513 2838 3513 2113 
z
" transform="scale(0.015625)"/>
     </defs>
     <use xlink:href="#DejaVuSans-Oblique-64" transform="translate(0 0.015625)"/>
     <use xlink:href="#DejaVuSans-6c" transform="translate(63.476562 0.015625)"/>
     <use xlink:href="#DejaVuSans-6e" transform="translate(91.259766 0.015625)"/>
     <use xlink:href="#DejaVuSans-Oblique-44" transform="translate(170.874348 0.015625)"/>
     <use xlink:href="#DejaVuSans-Oblique-75" transform="translate(247.876301 -16.390625) scale(0.7)"/>
     <use xlink:href="#DejaVuSans-2f" transform="translate(294.975911 0.015625)"/>
     <use xlink:href="#DejaVuSans-Oblique-64" transform="translate(328.667317 0.015625)"/>
     <use xlink:href="#DejaVuSans-6c" transform="translate(392.143879 0.015625)"/>
     <use xlink:href="#DejaVuSans-6e" transform="translate(419.927083 0.015625)"/>
     <use xlink:href="#DejaVuSans-Oblique-52" transform="translate(499.541665 0.015625)"/>
    </g>
   </g>
   <g id="text_52">
    <!-- $R/r_i$ -->
    <g transform="translate(927.284786 302.784) scale(0.22 -0.22)">
     <use xlink:href="#DejaVuSans-Oblique-52" transform="translate(0 0.09375)"/>
     <use xlink:href="#DejaVuSans-2f" transform="translate(69.482422 0.09375)"/>
     <use xlink:href="#DejaVuSans-Oblique-72" transform="translate(103.173828 0.09375)"/>
     <use xlink:href="#DejaVuSans-Oblique-69" transform="translate(144.287109 -16.3125) scale(0.7)"/>
    </g>
   </g>
  </g>
 </g>
 <defs>
  <clipPath id="p01fa9f022d">
   <rect x="46.022143" y="38.4" width="388.221429" height="259.2"/>
  </clipPath>
  <clipPath id="p0bb000ca52">
   <rect x="527.416714" y="38.4" width="388.221429" height="259.2"/>
  </clipPath>
 </defs>
</svg>
