<?xml version="1.0" encoding="utf-8" standalone="no"?>
<!DOCTYPE svg PUBLIC "-//W3C//DTD SVG 1.1//EN"
  "http://www.w3.org/Graphics/SVG/1.1/DTD/svg11.dtd">
<svg xmlns:xlink="http://www.w3.org/1999/xlink" width="971.224786pt" height="320.881562pt" viewBox="0 0 971.224786 320.881562" xmlns="http://www.w3.org/2000/svg" version="1.1">
 <metadata>
  <rdf:RDF xmlns:dc="http://purl.org/dc/elements/1.1/" xmlns:cc="http://creativecommons.org/ns#" xmlns:rdf="http://www.w3.org/1999/02/22-rdf-syntax-ns#">
   <cc:Work>
    <dc:type rdf:resource="http://purl.org/dc/dcmitype/StillImage"/>
    <dc:date>2026-02-22T03:17:15.340156</dc:date>
    <dc:format>image/svg+xml</dc:format>
    <dc:creator>
     <cc:Agent>
      <dc:title>Matplotlib v3.8.4, https://matplotlib.org/</dc:title>
     </cc:Agent>
    </dc:creator>
   </cc:Work>
  </rdf:RDF>
 </metadata>
 <defs>
  <style type="text/css">*{stroke-linejoin: round; stroke-linecap: butt}</style>
 </defs>
 <g id="figure_1">
  <g id="patch_1">
   <path d="M 0 320.881562 
L 971.224786 320.881562 
L 971.224786 0 
L 0 0 
z
" style="fill: #ffffff"/>
  </g>
  <g id="axes_1">
   <g id="patch_2">
    <path d="M 46.022143 297.6 
L 434.243571 297.6 
L 434.243571 38.4 
L 46.022143 38.4 
z
" style="fill: #ffffff"/>
   </g>
   <g id="matplotlib.axis_1">
    <g id="xtick_1">
     <g id="line2d_1">
      <defs>
       <path id="mb2d6676c3a" d="M 0 0 
L 0 -3.5 
" style="stroke: #000000; stroke-width: 0.8"/>
      </defs>
      <g>
       <use xlink:href="#mb2d6676c3a" x="46.022143" y="297.6" style="stroke: #000000; stroke-width: 0.8"/>
      </g>
     </g>
     <g id="text_1">
      <!-- $\mathdefault{10^{-4}}$ -->
      <g transform="translate(30.747143 310.977969) scale(0.13 -0.13)">
       <defs>
        <path id="DejaVuSans-31" d="M 794 531 
L 1825 531 
L 1825 4091 
L 703 3866 
L 703 4441 
L 1819 4666 
L 2450 4666 
L 2450 531 
L 3481 531 
L 3481 0 
L 794 0 
L 794 531 
z
" transform="scale(0.015625)"/>
        <path id="DejaVuSans-30" d="M 2034 4250 
Q 1547 4250 1301 3770 
Q 1056 3291 1056 2328 
Q 1056 1369 1301 889 
Q 1547 409 2034 409 
Q 2525 409 2770 889 
Q 3016 1369 3016 2328 
Q 3016 3291 2770 3770 
Q 2525 4250 2034 4250 
z
M 2034 4750 
Q 2819 4750 3233 4129 
Q 3647 3509 3647 2328 
Q 3647 1150 3233 529 
Q 2819 -91 2034 -91 
Q 1250 -91 836 529 
Q 422 1150 422 2328 
Q 422 3509 836 4129 
Q 1250 4750 2034 4750 
z
" transform="scale(0.015625)"/>
        <path id="DejaVuSans-2212" d="M 678 2272 
L 4684 2272 
L 4684 1741 
L 678 1741 
L 678 2272 
z
" transform="scale(0.015625)"/>
        <path id="DejaVuSans-34" d="M 2419 4116 
L 825 1625 
L 2419 1625 
L 2419 4116 
z
M 2253 4666 
L 3047 4666 
L 3047 1625 
L 3713 1625 
L 3713 1100 
L 3047 1100 
L 3047 0 
L 2419 0 
L 2419 1100 
L 313 1100 
L 313 1709 
L 2253 4666 
z
" transform="scale(0.015625)"/>
       </defs>
       <use xlink:href="#DejaVuSans-31" transform="translate(0 0.684375)"/>
       <use xlink:href="#DejaVuSans-30" transform="translate(63.623047 0.684375)"/>
       <use xlink:href="#DejaVuSans-2212" transform="translate(128.203125 38.965625) scale(0.7)"/>
       <use xlink:href="#DejaVuSans-34" transform="translate(186.855469 38.965625) scale(0.7)"/>
      </g>
     </g>
    </g>
    <g id="xtick_2">
     <g id="line2d_2">
      <g>
       <use xlink:href="#mb2d6676c3a" x="123.666429" y="297.6" style="stroke: #000000; stroke-width: 0.8"/>
      </g>
     </g>
     <g id="text_2">
      <!-- $\mathdefault{10^{-3}}$ -->
      <g transform="translate(108.391429 310.977969) scale(0.13 -0.13)">
       <defs>
        <path id="DejaVuSans-33" d="M 2597 2516 
Q 3050 2419 3304 2112 
Q 3559 1806 3559 1356 
Q 3559 666 3084 287 
Q 2609 -91 1734 -91 
Q 1441 -91 1130 -33 
Q 819 25 488 141 
L 488 750 
Q 750 597 1062 519 
Q 1375 441 1716 441 
Q 2309 441 2620 675 
Q 2931 909 2931 1356 
Q 2931 1769 2642 2001 
Q 2353 2234 1838 2234 
L 1294 2234 
L 1294 2753 
L 1863 2753 
Q 2328 2753 2575 2939 
Q 2822 3125 2822 3475 
Q 2822 3834 2567 4026 
Q 2313 4219 1838 4219 
Q 1578 4219 1281 4162 
Q 984 4106 628 3988 
L 628 4550 
Q 988 4650 1302 4700 
Q 1616 4750 1894 4750 
Q 2613 4750 3031 4423 
Q 3450 4097 3450 3541 
Q 3450 3153 3228 2886 
Q 3006 2619 2597 2516 
z
" transform="scale(0.015625)"/>
       </defs>
       <use xlink:href="#DejaVuSans-31" transform="translate(0 0.765625)"/>
       <use xlink:href="#DejaVuSans-30" transform="translate(63.623047 0.765625)"/>
       <use xlink:href="#DejaVuSans-2212" transform="translate(128.203125 39.046875) scale(0.7)"/>
       <use xlink:href="#DejaVuSans-33" transform="translate(186.855469 39.046875) scale(0.7)"/>
      </g>
     </g>
    </g>
    <g id="xtick_3">
     <g id="line2d_3">
      <g>
       <use xlink:href="#mb2d6676c3a" x="201.310714" y="297.6" style="stroke: #000000; stroke-width: 0.8"/>
      </g>
     </g>
     <g id="text_3">
      <!-- $\mathdefault{10^{-2}}$ -->
      <g transform="translate(186.035714 310.977969) scale(0.13 -0.13)">
       <defs>
        <path id="DejaVuSans-32" d="M 1228 531 
L 3431 531 
L 3431 0 
L 469 0 
L 469 531 
Q 828 903 1448 1529 
Q 2069 2156 2228 2338 
Q 2531 2678 2651 2914 
Q 2772 3150 2772 3378 
Q 2772 3750 2511 3984 
Q 2250 4219 1831 4219 
Q 1534 4219 1204 4116 
Q 875 4013 500 3803 
L 500 4441 
Q 881 4594 1212 4672 
Q 1544 4750 1819 4750 
Q 2544 4750 2975 4387 
Q 3406 4025 3406 3419 
Q 3406 3131 3298 2873 
Q 3191 2616 2906 2266 
Q 2828 2175 2409 1742 
Q 1991 1309 1228 531 
z
" transform="scale(0.015625)"/>
       </defs>
       <use xlink:href="#DejaVuSans-31" transform="translate(0 0.765625)"/>
       <use xlink:href="#DejaVuSans-30" transform="translate(63.623047 0.765625)"/>
       <use xlink:href="#DejaVuSans-2212" transform="translate(128.203125 39.046875) scale(0.7)"/>
       <use xlink:href="#DejaVuSans-32" transform="translate(186.855469 39.046875) scale(0.7)"/>
      </g>
     </g>
    </g>
    <g id="xtick_4">
     <g id="line2d_4">
      <g>
       <use xlink:href="#mb2d6676c3a" x="278.955" y="297.6" style="stroke: #000000; stroke-width: 0.8"/>
      </g>
     </g>
     <g id="text_4">
      <!-- $\mathdefault{10^{-1}}$ -->
      <g transform="translate(263.68 310.977969) scale(0.13 -0.13)">
       <use xlink:href="#DejaVuSans-31" transform="translate(0 0.684375)"/>
       <use xlink:href="#DejaVuSans-30" transform="translate(63.623047 0.684375)"/>
       <use xlink:href="#DejaVuSans-2212" transform="translate(128.203125 38.965625) scale(0.7)"/>
       <use xlink:href="#DejaVuSans-31" transform="translate(186.855469 38.965625) scale(0.7)"/>
      </g>
     </g>
    </g>
    <g id="xtick_5">
     <g id="line2d_5">
      <g>
       <use xlink:href="#mb2d6676c3a" x="356.599286" y="297.6" style="stroke: #000000; stroke-width: 0.8"/>
      </g>
     </g>
     <g id="text_5">
      <!-- $\mathdefault{10^{0}}$ -->
      <g transform="translate(345.159286 310.977969) scale(0.13 -0.13)">
       <use xlink:href="#DejaVuSans-31" transform="translate(0 0.765625)"/>
       <use xlink:href="#DejaVuSans-30" transform="translate(63.623047 0.765625)"/>
       <use xlink:href="#DejaVuSans-30" transform="translate(128.203125 39.046875) scale(0.7)"/>
      </g>
     </g>
    </g>
    <g id="xtick_6">
     <g id="line2d_6">
      <g>
       <use xlink:href="#mb2d6676c3a" x="434.243571" y="297.6" style="stroke: #000000; stroke-width: 0.8"/>
      </g>
     </g>
     <g id="text_6">
      <!-- $\mathdefault{10^{1}}$ -->
      <g transform="translate(422.803571 310.977969) scale(0.13 -0.13)">
       <use xlink:href="#DejaVuSans-31" transform="translate(0 0.684375)"/>
       <use xlink:href="#DejaVuSans-30" transform="translate(63.623047 0.684375)"/>
       <use xlink:href="#DejaVuSans-31" transform="translate(128.203125 38.965625) scale(0.7)"/>
      </g>
     </g>
    </g>
    <g id="xtick_7">
     <g id="line2d_7">
      <defs>
       <path id="mc06fd8cd6b" d="M 0 0 
L 0 -2 
" style="stroke: #000000; stroke-width: 0.6"/>
      </defs>
      <g>
       <use xlink:href="#mc06fd8cd6b" x="69.395402" y="297.6" style="stroke: #000000; stroke-width: 0.6"/>
      </g>
     </g>
    </g>
    <g id="xtick_8">
     <g id="line2d_8">
      <g>
       <use xlink:href="#mc06fd8cd6b" x="83.067882" y="297.6" style="stroke: #000000; stroke-width: 0.6"/>
      </g>
     </g>
    </g>
    <g id="xtick_9">
     <g id="line2d_9">
      <g>
       <use xlink:href="#mc06fd8cd6b" x="92.768661" y="297.6" style="stroke: #000000; stroke-width: 0.6"/>
      </g>
     </g>
    </g>
    <g id="xtick_10">
     <g id="line2d_10">
      <g>
       <use xlink:href="#mc06fd8cd6b" x="100.29317" y="297.6" style="stroke: #000000; stroke-width: 0.6"/>
      </g>
     </g>
    </g>
    <g id="xtick_11">
     <g id="line2d_11">
      <g>
       <use xlink:href="#mc06fd8cd6b" x="106.441141" y="297.6" style="stroke: #000000; stroke-width: 0.6"/>
      </g>
     </g>
    </g>
    <g id="xtick_12">
     <g id="line2d_12">
      <g>
       <use xlink:href="#mc06fd8cd6b" x="111.639177" y="297.6" style="stroke: #000000; stroke-width: 0.6"/>
      </g>
     </g>
    </g>
    <g id="xtick_13">
     <g id="line2d_13">
      <g>
       <use xlink:href="#mc06fd8cd6b" x="116.14192" y="297.6" style="stroke: #000000; stroke-width: 0.6"/>
      </g>
     </g>
    </g>
    <g id="xtick_14">
     <g id="line2d_14">
      <g>
       <use xlink:href="#mc06fd8cd6b" x="120.113621" y="297.6" style="stroke: #000000; stroke-width: 0.6"/>
      </g>
     </g>
    </g>
    <g id="xtick_15">
     <g id="line2d_15">
      <g>
       <use xlink:href="#mc06fd8cd6b" x="147.039688" y="297.6" style="stroke: #000000; stroke-width: 0.6"/>
      </g>
     </g>
    </g>
    <g id="xtick_16">
     <g id="line2d_16">
      <g>
       <use xlink:href="#mc06fd8cd6b" x="160.712168" y="297.6" style="stroke: #000000; stroke-width: 0.6"/>
      </g>
     </g>
    </g>
    <g id="xtick_17">
     <g id="line2d_17">
      <g>
       <use xlink:href="#mc06fd8cd6b" x="170.412947" y="297.6" style="stroke: #000000; stroke-width: 0.6"/>
      </g>
     </g>
    </g>
    <g id="xtick_18">
     <g id="line2d_18">
      <g>
       <use xlink:href="#mc06fd8cd6b" x="177.937455" y="297.6" style="stroke: #000000; stroke-width: 0.6"/>
      </g>
     </g>
    </g>
    <g id="xtick_19">
     <g id="line2d_19">
      <g>
       <use xlink:href="#mc06fd8cd6b" x="184.085427" y="297.6" style="stroke: #000000; stroke-width: 0.6"/>
      </g>
     </g>
    </g>
    <g id="xtick_20">
     <g id="line2d_20">
      <g>
       <use xlink:href="#mc06fd8cd6b" x="189.283462" y="297.6" style="stroke: #000000; stroke-width: 0.6"/>
      </g>
     </g>
    </g>
    <g id="xtick_21">
     <g id="line2d_21">
      <g>
       <use xlink:href="#mc06fd8cd6b" x="193.786206" y="297.6" style="stroke: #000000; stroke-width: 0.6"/>
      </g>
     </g>
    </g>
    <g id="xtick_22">
     <g id="line2d_22">
      <g>
       <use xlink:href="#mc06fd8cd6b" x="197.757907" y="297.6" style="stroke: #000000; stroke-width: 0.6"/>
      </g>
     </g>
    </g>
    <g id="xtick_23">
     <g id="line2d_23">
      <g>
       <use xlink:href="#mc06fd8cd6b" x="224.683973" y="297.6" style="stroke: #000000; stroke-width: 0.6"/>
      </g>
     </g>
    </g>
    <g id="xtick_24">
     <g id="line2d_24">
      <g>
       <use xlink:href="#mc06fd8cd6b" x="238.356453" y="297.6" style="stroke: #000000; stroke-width: 0.6"/>
      </g>
     </g>
    </g>
    <g id="xtick_25">
     <g id="line2d_25">
      <g>
       <use xlink:href="#mc06fd8cd6b" x="248.057232" y="297.6" style="stroke: #000000; stroke-width: 0.6"/>
      </g>
     </g>
    </g>
    <g id="xtick_26">
     <g id="line2d_26">
      <g>
       <use xlink:href="#mc06fd8cd6b" x="255.581741" y="297.6" style="stroke: #000000; stroke-width: 0.6"/>
      </g>
     </g>
    </g>
    <g id="xtick_27">
     <g id="line2d_27">
      <g>
       <use xlink:href="#mc06fd8cd6b" x="261.729712" y="297.6" style="stroke: #000000; stroke-width: 0.6"/>
      </g>
     </g>
    </g>
    <g id="xtick_28">
     <g id="line2d_28">
      <g>
       <use xlink:href="#mc06fd8cd6b" x="266.927748" y="297.6" style="stroke: #000000; stroke-width: 0.6"/>
      </g>
     </g>
    </g>
    <g id="xtick_29">
     <g id="line2d_29">
      <g>
       <use xlink:href="#mc06fd8cd6b" x="271.430491" y="297.6" style="stroke: #000000; stroke-width: 0.6"/>
      </g>
     </g>
    </g>
    <g id="xtick_30">
     <g id="line2d_30">
      <g>
       <use xlink:href="#mc06fd8cd6b" x="275.402192" y="297.6" style="stroke: #000000; stroke-width: 0.6"/>
      </g>
     </g>
    </g>
    <g id="xtick_31">
     <g id="line2d_31">
      <g>
       <use xlink:href="#mc06fd8cd6b" x="302.328259" y="297.6" style="stroke: #000000; stroke-width: 0.6"/>
      </g>
     </g>
    </g>
    <g id="xtick_32">
     <g id="line2d_32">
      <g>
       <use xlink:href="#mc06fd8cd6b" x="316.000739" y="297.6" style="stroke: #000000; stroke-width: 0.6"/>
      </g>
     </g>
    </g>
    <g id="xtick_33">
     <g id="line2d_33">
      <g>
       <use xlink:href="#mc06fd8cd6b" x="325.701518" y="297.6" style="stroke: #000000; stroke-width: 0.6"/>
      </g>
     </g>
    </g>
    <g id="xtick_34">
     <g id="line2d_34">
      <g>
       <use xlink:href="#mc06fd8cd6b" x="333.226027" y="297.6" style="stroke: #000000; stroke-width: 0.6"/>
      </g>
     </g>
    </g>
    <g id="xtick_35">
     <g id="line2d_35">
      <g>
       <use xlink:href="#mc06fd8cd6b" x="339.373998" y="297.6" style="stroke: #000000; stroke-width: 0.6"/>
      </g>
     </g>
    </g>
    <g id="xtick_36">
     <g id="line2d_36">
      <g>
       <use xlink:href="#mc06fd8cd6b" x="344.572034" y="297.6" style="stroke: #000000; stroke-width: 0.6"/>
      </g>
     </g>
    </g>
    <g id="xtick_37">
     <g id="line2d_37">
      <g>
       <use xlink:href="#mc06fd8cd6b" x="349.074777" y="297.6" style="stroke: #000000; stroke-width: 0.6"/>
      </g>
     </g>
    </g>
    <g id="xtick_38">
     <g id="line2d_38">
      <g>
       <use xlink:href="#mc06fd8cd6b" x="353.046478" y="297.6" style="stroke: #000000; stroke-width: 0.6"/>
      </g>
     </g>
    </g>
    <g id="xtick_39">
     <g id="line2d_39">
      <g>
       <use xlink:href="#mc06fd8cd6b" x="379.972545" y="297.6" style="stroke: #000000; stroke-width: 0.6"/>
      </g>
     </g>
    </g>
    <g id="xtick_40">
     <g id="line2d_40">
      <g>
       <use xlink:href="#mc06fd8cd6b" x="393.645025" y="297.6" style="stroke: #000000; stroke-width: 0.6"/>
      </g>
     </g>
    </g>
    <g id="xtick_41">
     <g id="line2d_41">
      <g>
       <use xlink:href="#mc06fd8cd6b" x="403.345804" y="297.6" style="stroke: #000000; stroke-width: 0.6"/>
      </g>
     </g>
    </g>
    <g id="xtick_42">
     <g id="line2d_42">
      <g>
       <use xlink:href="#mc06fd8cd6b" x="410.870312" y="297.6" style="stroke: #000000; stroke-width: 0.6"/>
      </g>
     </g>
    </g>
    <g id="xtick_43">
     <g id="line2d_43">
      <g>
       <use xlink:href="#mc06fd8cd6b" x="417.018284" y="297.6" style="stroke: #000000; stroke-width: 0.6"/>
      </g>
     </g>
    </g>
    <g id="xtick_44">
     <g id="line2d_44">
      <g>
       <use xlink:href="#mc06fd8cd6b" x="422.216319" y="297.6" style="stroke: #000000; stroke-width: 0.6"/>
      </g>
     </g>
    </g>
    <g id="xtick_45">
     <g id="line2d_45">
      <g>
       <use xlink:href="#mc06fd8cd6b" x="426.719063" y="297.6" style="stroke: #000000; stroke-width: 0.6"/>
      </g>
     </g>
    </g>
    <g id="xtick_46">
     <g id="line2d_46">
      <g>
       <use xlink:href="#mc06fd8cd6b" x="430.690764" y="297.6" style="stroke: #000000; stroke-width: 0.6"/>
      </g>
     </g>
    </g>
   </g>
   <g id="matplotlib.axis_2">
    <g id="ytick_1">
     <g id="line2d_47">
      <defs>
       <path id="m2778a31a21" d="M 0 0 
L 3.5 0 
" style="stroke: #000000; stroke-width: 0.8"/>
      </defs>
      <g>
       <use xlink:href="#m2778a31a21" x="46.022143" y="41.776076" style="stroke: #000000; stroke-width: 0.8"/>
      </g>
     </g>
     <g id="text_7">
      <!-- $\mathdefault{10^{0}}$ -->
      <g transform="translate(19.642143 46.715061) scale(0.13 -0.13)">
       <use xlink:href="#DejaVuSans-31" transform="translate(0 0.765625)"/>
       <use xlink:href="#DejaVuSans-30" transform="translate(63.623047 0.765625)"/>
       <use xlink:href="#DejaVuSans-30" transform="translate(128.203125 39.046875) scale(0.7)"/>
      </g>
     </g>
    </g>
    <g id="ytick_2">
     <g id="line2d_48">
      <g>
       <use xlink:href="#m2778a31a21" x="46.022143" y="127.050717" style="stroke: #000000; stroke-width: 0.8"/>
      </g>
     </g>
     <g id="text_8">
      <!-- $\mathdefault{10^{-2}}$ -->
      <g transform="translate(11.972143 131.989702) scale(0.13 -0.13)">
       <use xlink:href="#DejaVuSans-31" transform="translate(0 0.765625)"/>
       <use xlink:href="#DejaVuSans-30" transform="translate(63.623047 0.765625)"/>
       <use xlink:href="#DejaVuSans-2212" transform="translate(128.203125 39.046875) scale(0.7)"/>
       <use xlink:href="#DejaVuSans-32" transform="translate(186.855469 39.046875) scale(0.7)"/>
      </g>
     </g>
    </g>
    <g id="ytick_3">
     <g id="line2d_49">
      <g>
       <use xlink:href="#m2778a31a21" x="46.022143" y="212.325359" style="stroke: #000000; stroke-width: 0.8"/>
      </g>
     </g>
     <g id="text_9">
      <!-- $\mathdefault{10^{-4}}$ -->
      <g transform="translate(11.972143 217.264343) scale(0.13 -0.13)">
       <use xlink:href="#DejaVuSans-31" transform="translate(0 0.684375)"/>
       <use xlink:href="#DejaVuSans-30" transform="translate(63.623047 0.684375)"/>
       <use xlink:href="#DejaVuSans-2212" transform="translate(128.203125 38.965625) scale(0.7)"/>
       <use xlink:href="#DejaVuSans-34" transform="translate(186.855469 38.965625) scale(0.7)"/>
      </g>
     </g>
    </g>
    <g id="ytick_4">
     <g id="line2d_50">
      <g>
       <use xlink:href="#m2778a31a21" x="46.022143" y="297.6" style="stroke: #000000; stroke-width: 0.8"/>
      </g>
     </g>
     <g id="text_10">
      <!-- $\mathdefault{10^{-6}}$ -->
      <g transform="translate(11.972143 302.538984) scale(0.13 -0.13)">
       <defs>
        <path id="DejaVuSans-36" d="M 2113 2584 
Q 1688 2584 1439 2293 
Q 1191 2003 1191 1497 
Q 1191 994 1439 701 
Q 1688 409 2113 409 
Q 2538 409 2786 701 
Q 3034 994 3034 1497 
Q 3034 2003 2786 2293 
Q 2538 2584 2113 2584 
z
M 3366 4563 
L 3366 3988 
Q 3128 4100 2886 4159 
Q 2644 4219 2406 4219 
Q 1781 4219 1451 3797 
Q 1122 3375 1075 2522 
Q 1259 2794 1537 2939 
Q 1816 3084 2150 3084 
Q 2853 3084 3261 2657 
Q 3669 2231 3669 1497 
Q 3669 778 3244 343 
Q 2819 -91 2113 -91 
Q 1303 -91 875 529 
Q 447 1150 447 2328 
Q 447 3434 972 4092 
Q 1497 4750 2381 4750 
Q 2619 4750 2861 4703 
Q 3103 4656 3366 4563 
z
" transform="scale(0.015625)"/>
       </defs>
       <use xlink:href="#DejaVuSans-31" transform="translate(0 0.765625)"/>
       <use xlink:href="#DejaVuSans-30" transform="translate(63.623047 0.765625)"/>
       <use xlink:href="#DejaVuSans-2212" transform="translate(128.203125 39.046875) scale(0.7)"/>
       <use xlink:href="#DejaVuSans-36" transform="translate(186.855469 39.046875) scale(0.7)"/>
      </g>
     </g>
    </g>
    <g id="ytick_5">
     <g id="line2d_51">
      <defs>
       <path id="m809c296b36" d="M 0 0 
L 2 0 
" style="stroke: #000000; stroke-width: 0.6"/>
      </defs>
      <g>
       <use xlink:href="#m809c296b36" x="46.022143" y="284.764888" style="stroke: #000000; stroke-width: 0.6"/>
      </g>
     </g>
    </g>
    <g id="ytick_6">
     <g id="line2d_52">
      <g>
       <use xlink:href="#m809c296b36" x="46.022143" y="277.256828" style="stroke: #000000; stroke-width: 0.6"/>
      </g>
     </g>
    </g>
    <g id="ytick_7">
     <g id="line2d_53">
      <g>
       <use xlink:href="#m809c296b36" x="46.022143" y="271.929775" style="stroke: #000000; stroke-width: 0.6"/>
      </g>
     </g>
    </g>
    <g id="ytick_8">
     <g id="line2d_54">
      <g>
       <use xlink:href="#m809c296b36" x="46.022143" y="267.797792" style="stroke: #000000; stroke-width: 0.6"/>
      </g>
     </g>
    </g>
    <g id="ytick_9">
     <g id="line2d_55">
      <g>
       <use xlink:href="#m809c296b36" x="46.022143" y="264.421716" style="stroke: #000000; stroke-width: 0.6"/>
      </g>
     </g>
    </g>
    <g id="ytick_10">
     <g id="line2d_56">
      <g>
       <use xlink:href="#m809c296b36" x="46.022143" y="261.567284" style="stroke: #000000; stroke-width: 0.6"/>
      </g>
     </g>
    </g>
    <g id="ytick_11">
     <g id="line2d_57">
      <g>
       <use xlink:href="#m809c296b36" x="46.022143" y="259.094663" style="stroke: #000000; stroke-width: 0.6"/>
      </g>
     </g>
    </g>
    <g id="ytick_12">
     <g id="line2d_58">
      <g>
       <use xlink:href="#m809c296b36" x="46.022143" y="256.913656" style="stroke: #000000; stroke-width: 0.6"/>
      </g>
     </g>
    </g>
    <g id="ytick_13">
     <g id="line2d_59">
      <g>
       <use xlink:href="#m809c296b36" x="46.022143" y="242.127567" style="stroke: #000000; stroke-width: 0.6"/>
      </g>
     </g>
    </g>
    <g id="ytick_14">
     <g id="line2d_60">
      <g>
       <use xlink:href="#m809c296b36" x="46.022143" y="234.619507" style="stroke: #000000; stroke-width: 0.6"/>
      </g>
     </g>
    </g>
    <g id="ytick_15">
     <g id="line2d_61">
      <g>
       <use xlink:href="#m809c296b36" x="46.022143" y="229.292454" style="stroke: #000000; stroke-width: 0.6"/>
      </g>
     </g>
    </g>
    <g id="ytick_16">
     <g id="line2d_62">
      <g>
       <use xlink:href="#m809c296b36" x="46.022143" y="225.160471" style="stroke: #000000; stroke-width: 0.6"/>
      </g>
     </g>
    </g>
    <g id="ytick_17">
     <g id="line2d_63">
      <g>
       <use xlink:href="#m809c296b36" x="46.022143" y="221.784395" style="stroke: #000000; stroke-width: 0.6"/>
      </g>
     </g>
    </g>
    <g id="ytick_18">
     <g id="line2d_64">
      <g>
       <use xlink:href="#m809c296b36" x="46.022143" y="218.929963" style="stroke: #000000; stroke-width: 0.6"/>
      </g>
     </g>
    </g>
    <g id="ytick_19">
     <g id="line2d_65">
      <g>
       <use xlink:href="#m809c296b36" x="46.022143" y="216.457342" style="stroke: #000000; stroke-width: 0.6"/>
      </g>
     </g>
    </g>
    <g id="ytick_20">
     <g id="line2d_66">
      <g>
       <use xlink:href="#m809c296b36" x="46.022143" y="214.276336" style="stroke: #000000; stroke-width: 0.6"/>
      </g>
     </g>
    </g>
    <g id="ytick_21">
     <g id="line2d_67">
      <g>
       <use xlink:href="#m809c296b36" x="46.022143" y="199.490246" style="stroke: #000000; stroke-width: 0.6"/>
      </g>
     </g>
    </g>
    <g id="ytick_22">
     <g id="line2d_68">
      <g>
       <use xlink:href="#m809c296b36" x="46.022143" y="191.982187" style="stroke: #000000; stroke-width: 0.6"/>
      </g>
     </g>
    </g>
    <g id="ytick_23">
     <g id="line2d_69">
      <g>
       <use xlink:href="#m809c296b36" x="46.022143" y="186.655134" style="stroke: #000000; stroke-width: 0.6"/>
      </g>
     </g>
    </g>
    <g id="ytick_24">
     <g id="line2d_70">
      <g>
       <use xlink:href="#m809c296b36" x="46.022143" y="182.523151" style="stroke: #000000; stroke-width: 0.6"/>
      </g>
     </g>
    </g>
    <g id="ytick_25">
     <g id="line2d_71">
      <g>
       <use xlink:href="#m809c296b36" x="46.022143" y="179.147074" style="stroke: #000000; stroke-width: 0.6"/>
      </g>
     </g>
    </g>
    <g id="ytick_26">
     <g id="line2d_72">
      <g>
       <use xlink:href="#m809c296b36" x="46.022143" y="176.292643" style="stroke: #000000; stroke-width: 0.6"/>
      </g>
     </g>
    </g>
    <g id="ytick_27">
     <g id="line2d_73">
      <g>
       <use xlink:href="#m809c296b36" x="46.022143" y="173.820021" style="stroke: #000000; stroke-width: 0.6"/>
      </g>
     </g>
    </g>
    <g id="ytick_28">
     <g id="line2d_74">
      <g>
       <use xlink:href="#m809c296b36" x="46.022143" y="171.639015" style="stroke: #000000; stroke-width: 0.6"/>
      </g>
     </g>
    </g>
    <g id="ytick_29">
     <g id="line2d_75">
      <g>
       <use xlink:href="#m809c296b36" x="46.022143" y="156.852926" style="stroke: #000000; stroke-width: 0.6"/>
      </g>
     </g>
    </g>
    <g id="ytick_30">
     <g id="line2d_76">
      <g>
       <use xlink:href="#m809c296b36" x="46.022143" y="149.344866" style="stroke: #000000; stroke-width: 0.6"/>
      </g>
     </g>
    </g>
    <g id="ytick_31">
     <g id="line2d_77">
      <g>
       <use xlink:href="#m809c296b36" x="46.022143" y="144.017813" style="stroke: #000000; stroke-width: 0.6"/>
      </g>
     </g>
    </g>
    <g id="ytick_32">
     <g id="line2d_78">
      <g>
       <use xlink:href="#m809c296b36" x="46.022143" y="139.88583" style="stroke: #000000; stroke-width: 0.6"/>
      </g>
     </g>
    </g>
    <g id="ytick_33">
     <g id="line2d_79">
      <g>
       <use xlink:href="#m809c296b36" x="46.022143" y="136.509754" style="stroke: #000000; stroke-width: 0.6"/>
      </g>
     </g>
    </g>
    <g id="ytick_34">
     <g id="line2d_80">
      <g>
       <use xlink:href="#m809c296b36" x="46.022143" y="133.655322" style="stroke: #000000; stroke-width: 0.6"/>
      </g>
     </g>
    </g>
    <g id="ytick_35">
     <g id="line2d_81">
      <g>
       <use xlink:href="#m809c296b36" x="46.022143" y="131.182701" style="stroke: #000000; stroke-width: 0.6"/>
      </g>
     </g>
    </g>
    <g id="ytick_36">
     <g id="line2d_82">
      <g>
       <use xlink:href="#m809c296b36" x="46.022143" y="129.001694" style="stroke: #000000; stroke-width: 0.6"/>
      </g>
     </g>
    </g>
    <g id="ytick_37">
     <g id="line2d_83">
      <g>
       <use xlink:href="#m809c296b36" x="46.022143" y="114.215605" style="stroke: #000000; stroke-width: 0.6"/>
      </g>
     </g>
    </g>
    <g id="ytick_38">
     <g id="line2d_84">
      <g>
       <use xlink:href="#m809c296b36" x="46.022143" y="106.707546" style="stroke: #000000; stroke-width: 0.6"/>
      </g>
     </g>
    </g>
    <g id="ytick_39">
     <g id="line2d_85">
      <g>
       <use xlink:href="#m809c296b36" x="46.022143" y="101.380493" style="stroke: #000000; stroke-width: 0.6"/>
      </g>
     </g>
    </g>
    <g id="ytick_40">
     <g id="line2d_86">
      <g>
       <use xlink:href="#m809c296b36" x="46.022143" y="97.248509" style="stroke: #000000; stroke-width: 0.6"/>
      </g>
     </g>
    </g>
    <g id="ytick_41">
     <g id="line2d_87">
      <g>
       <use xlink:href="#m809c296b36" x="46.022143" y="93.872433" style="stroke: #000000; stroke-width: 0.6"/>
      </g>
     </g>
    </g>
    <g id="ytick_42">
     <g id="line2d_88">
      <g>
       <use xlink:href="#m809c296b36" x="46.022143" y="91.018001" style="stroke: #000000; stroke-width: 0.6"/>
      </g>
     </g>
    </g>
    <g id="ytick_43">
     <g id="line2d_89">
      <g>
       <use xlink:href="#m809c296b36" x="46.022143" y="88.54538" style="stroke: #000000; stroke-width: 0.6"/>
      </g>
     </g>
    </g>
    <g id="ytick_44">
     <g id="line2d_90">
      <g>
       <use xlink:href="#m809c296b36" x="46.022143" y="86.364374" style="stroke: #000000; stroke-width: 0.6"/>
      </g>
     </g>
    </g>
    <g id="ytick_45">
     <g id="line2d_91">
      <g>
       <use xlink:href="#m809c296b36" x="46.022143" y="71.578284" style="stroke: #000000; stroke-width: 0.6"/>
      </g>
     </g>
    </g>
    <g id="ytick_46">
     <g id="line2d_92">
      <g>
       <use xlink:href="#m809c296b36" x="46.022143" y="64.070225" style="stroke: #000000; stroke-width: 0.6"/>
      </g>
     </g>
    </g>
    <g id="ytick_47">
     <g id="line2d_93">
      <g>
       <use xlink:href="#m809c296b36" x="46.022143" y="58.743172" style="stroke: #000000; stroke-width: 0.6"/>
      </g>
     </g>
    </g>
    <g id="ytick_48">
     <g id="line2d_94">
      <g>
       <use xlink:href="#m809c296b36" x="46.022143" y="54.611189" style="stroke: #000000; stroke-width: 0.6"/>
      </g>
     </g>
    </g>
    <g id="ytick_49">
     <g id="line2d_95">
      <g>
       <use xlink:href="#m809c296b36" x="46.022143" y="51.235112" style="stroke: #000000; stroke-width: 0.6"/>
      </g>
     </g>
    </g>
    <g id="ytick_50">
     <g id="line2d_96">
      <g>
       <use xlink:href="#m809c296b36" x="46.022143" y="48.380681" style="stroke: #000000; stroke-width: 0.6"/>
      </g>
     </g>
    </g>
    <g id="ytick_51">
     <g id="line2d_97">
      <g>
       <use xlink:href="#m809c296b36" x="46.022143" y="45.908059" style="stroke: #000000; stroke-width: 0.6"/>
      </g>
     </g>
    </g>
    <g id="ytick_52">
     <g id="line2d_98">
      <g>
       <use xlink:href="#m809c296b36" x="46.022143" y="43.727053" style="stroke: #000000; stroke-width: 0.6"/>
      </g>
     </g>
    </g>
   </g>
   <g id="line2d_99">
    <path d="M 46.022143 178.227182 
L 157.275979 129.50357 
L 200.065916 110.988816 
L 228.073875 99.095978 
L 249.079844 90.40142 
L 266.195819 83.541587 
L 280.977797 77.845603 
L 294.203778 72.983691 
L 305.87376 68.920808 
L 316.765744 65.355341 
L 326.879729 62.266851 
L 336.993715 59.41396 
L 346.329701 57.004011 
L 355.665687 54.817393 
L 365.001673 52.857391 
L 374.33766 51.121807 
L 383.673646 49.603178 
L 393.787631 48.188755 
L 403.901616 46.994798 
L 414.7936 45.929091 
L 426.463583 45.006786 
L 434.243571 44.500261 
L 434.243571 44.500261 
" clip-path="url(#pf2f24603a3)" style="fill: none; stroke: #38049a; stroke-width: 2.2; stroke-linecap: square"/>
   </g>
   <g id="line2d_100">
    <path d="M 46.022143 172.531234 
L 64.694115 165.559746 
L 84.144087 158.059182 
L 105.928055 149.416192 
L 130.824018 139.292004 
L 161.943972 126.382799 
L 243.633852 92.35372 
L 263.083823 84.575041 
L 278.6438 78.581957 
L 291.869781 73.709266 
L 304.317763 69.359076 
L 315.209747 65.777561 
L 325.323732 62.667731 
L 335.437717 59.788263 
L 344.773703 57.35013 
L 354.109689 55.132893 
L 363.445676 53.140944 
L 372.781662 51.37318 
L 382.117648 49.823133 
L 392.231633 48.376498 
L 402.345618 47.152976 
L 413.237602 46.058932 
L 424.907585 45.110537 
L 434.243571 44.494232 
L 434.243571 44.494232 
" clip-path="url(#pf2f24603a3)" style="fill: none; stroke: #7d03a8; stroke-width: 2.2; stroke-linecap: square"/>
   </g>
   <g id="line2d_101">
    <path d="M 46.022143 163.910236 
L 61.58212 159.254405 
L 77.142097 154.373492 
L 93.480073 149.007876 
L 109.818049 143.404459 
L 126.934024 137.296338 
L 144.827997 130.67734 
L 165.055968 122.952424 
L 189.173932 113.487652 
L 231.18587 96.69871 
L 257.637831 86.253002 
L 275.531805 79.418489 
L 290.313783 74.010483 
L 302.761765 69.683739 
L 314.431748 65.86214 
L 325.323732 62.535648 
L 335.437717 59.680261 
L 344.773703 57.260642 
L 354.109689 55.058899 
L 363.445676 53.079882 
L 372.781662 51.322886 
L 382.117648 49.781783 
L 392.231633 48.343118 
L 402.345618 47.126081 
L 413.237602 46.037662 
L 424.907585 45.094032 
L 434.243571 44.480779 
L 434.243571 44.480779 
" clip-path="url(#pf2f24603a3)" style="fill: none; stroke: #b52f8c; stroke-width: 2.2; stroke-linecap: square"/>
   </g>
   <g id="line2d_102">
    <path d="M 46.022143 142.860261 
L 69.362109 137.933162 
L 89.590079 133.445252 
L 108.262051 129.077489 
L 125.378026 124.848298 
L 141.716002 120.58305 
L 157.275979 116.295414 
L 172.835956 111.778136 
L 188.395933 107.031743 
L 204.733909 101.815563 
L 222.627883 95.866604 
L 245.18985 88.117806 
L 287.201788 73.646436 
L 301.983766 68.816058 
L 314.431748 64.966605 
L 326.101731 61.59188 
L 336.993715 58.683785 
L 347.1077 56.216491 
L 357.221685 53.988759 
L 366.557671 52.151143 
L 376.671656 50.396639 
L 386.785641 48.879854 
L 396.899626 47.586365 
L 407.79161 46.421094 
L 419.461593 45.404065 
L 431.909575 44.544189 
L 434.243571 44.405493 
L 434.243571 44.405493 
" clip-path="url(#pf2f24603a3)" style="fill: none; stroke: #de5f65; stroke-width: 2.2; stroke-linecap: square"/>
   </g>
   <g id="line2d_103">
    <path d="M 46.022143 129.472915 
L 84.144087 122.301957 
L 111.374047 116.966075 
L 133.936013 112.327495 
L 153.385985 108.110716 
L 171.279958 104.007359 
L 187.617934 100.042022 
L 203.95591 95.847813 
L 220.293886 91.419281 
L 237.409861 86.544699 
L 257.637831 80.539138 
L 306.651759 65.862374 
L 320.655739 61.982031 
L 332.325721 58.971038 
L 343.217705 56.383775 
L 353.331691 54.197955 
L 363.445676 52.234584 
L 373.559661 50.498784 
L 383.673646 48.987597 
L 393.787631 47.690942 
L 404.679615 46.516437 
L 416.349598 45.486342 
L 428.797579 44.611772 
L 434.243571 44.291977 
L 434.243571 44.291977 
" clip-path="url(#pf2f24603a3)" style="fill: none; stroke: #f89540; stroke-width: 2.2; stroke-linecap: square"/>
   </g>
   <g id="line2d_104">
    <path d="M 46.022143 111.557425 
L 121.488032 98.709774 
L 167.389964 90.797566 
L 194.619924 85.882233 
L 216.403892 81.729268 
L 235.853863 77.802645 
L 255.303835 73.649936 
L 277.865802 68.58793 
L 322.211736 58.558058 
L 336.993715 55.501151 
L 349.441696 53.151746 
L 361.111679 51.174179 
L 372.003663 49.542951 
L 382.895647 48.124116 
L 394.56563 46.833915 
L 406.235613 45.765735 
L 418.683594 44.844901 
L 432.687574 44.038993 
L 434.243571 43.962537 
L 434.243571 43.962537 
" clip-path="url(#pf2f24603a3)" style="fill: none; stroke: #fbd724; stroke-width: 2.2; stroke-linecap: square"/>
   </g>
   <g id="line2d_105">
    <path d="M 123.666429 234.619507 
L 271.430491 169.705381 
" clip-path="url(#pf2f24603a3)" style="fill: none; stroke-dasharray: 6.66,2.88; stroke-dashoffset: 0; stroke: #2d5bff; stroke-width: 1.8"/>
   </g>
   <g id="line2d_106">
    <path d="M 123.666429 173.820021 
L 271.430491 146.772469 
" clip-path="url(#pf2f24603a3)" style="fill: none; stroke-dasharray: 6.66,2.88; stroke-dashoffset: 0; stroke: #e45756; stroke-width: 1.8"/>
   </g>
   <g id="line2d_107">
    <path clip-path="url(#pf2f24603a3)" style="fill: none; stroke: #1f77b4; stroke-opacity: 0; stroke-width: 1.5; stroke-linecap: square"/>
   </g>
   <g id="line2d_108">
    <path d="M 179.469375 297.6 
L 179.469375 38.4 
" clip-path="url(#pf2f24603a3)" style="fill: none; stroke-dasharray: 1.2,1.98; stroke-dashoffset: 0; stroke: #333333; stroke-width: 1.2"/>
   </g>
   <g id="patch_3">
    <path d="M 46.022143 297.6 
L 46.022143 38.4 
" style="fill: none; stroke: #000000; stroke-width: 0.8; stroke-linejoin: miter; stroke-linecap: square"/>
   </g>
   <g id="patch_4">
    <path d="M 46.022143 297.6 
L 434.243571 297.6 
" style="fill: none; stroke: #000000; stroke-width: 0.8; stroke-linejoin: miter; stroke-linecap: square"/>
   </g>
   <g id="text_11">
    <!-- $\propto R^{m_\phi}$ -->
    <g style="fill: #e45756" transform="translate(231.667823 162.324993) rotate(-16) scale(0.18 -0.18)">
     <defs>
      <path id="DejaVuSans-221d" d="M 1647 1134 
Q 2163 1134 2472 1884 
Q 2075 2703 1647 2703 
Q 1334 2703 1175 2478 
Q 1006 2238 1006 1919 
Q 1006 1569 1175 1353 
Q 1350 1134 1647 1134 
z
M 3884 1128 
L 3884 716 
L 3644 716 
Q 3416 716 3247 809 
Q 3078 894 2916 1091 
Q 2819 1203 2666 1466 
Q 2456 1091 2272 925 
Q 2044 725 1681 725 
Q 1259 725 981 1041 
Q 688 1372 688 1919 
Q 688 2444 981 2800 
Q 1241 3116 1688 3116 
Q 1916 3116 2084 3022 
Q 2281 2919 2416 2741 
Q 2541 2581 2666 2366 
Q 2875 2741 3059 2906 
Q 3288 3106 3650 3106 
L 3884 3106 
L 3884 2697 
L 3684 2697 
Q 3222 2697 2859 1947 
Q 3256 1128 3684 1128 
L 3884 1128 
z
" transform="scale(0.015625)"/>
      <path id="DejaVuSans-Oblique-52" d="M 1613 4147 
L 1294 2491 
L 2106 2491 
Q 2584 2491 2879 2755 
Q 3175 3019 3175 3444 
Q 3175 3784 2976 3965 
Q 2778 4147 2406 4147 
L 1613 4147 
z
M 2772 2241 
Q 2972 2194 3105 2009 
Q 3238 1825 3413 1275 
L 3809 0 
L 3144 0 
L 2778 1197 
Q 2638 1659 2453 1815 
Q 2269 1972 1888 1972 
L 1191 1972 
L 806 0 
L 172 0 
L 1081 4666 
L 2503 4666 
Q 3150 4666 3495 4373 
Q 3841 4081 3841 3531 
Q 3841 3044 3547 2687 
Q 3253 2331 2772 2241 
z
" transform="scale(0.015625)"/>
      <path id="DejaVuSans-Oblique-6d" d="M 5747 2113 
L 5338 0 
L 4763 0 
L 5166 2094 
Q 5191 2228 5203 2325 
Q 5216 2422 5216 2491 
Q 5216 2772 5059 2928 
Q 4903 3084 4622 3084 
Q 4203 3084 3875 2770 
Q 3547 2456 3450 1953 
L 3066 0 
L 2491 0 
L 2900 2094 
Q 2925 2209 2937 2307 
Q 2950 2406 2950 2484 
Q 2950 2769 2794 2926 
Q 2638 3084 2363 3084 
Q 1938 3084 1609 2770 
Q 1281 2456 1184 1953 
L 800 0 
L 225 0 
L 909 3500 
L 1484 3500 
L 1375 2956 
Q 1609 3263 1923 3423 
Q 2238 3584 2597 3584 
Q 2978 3584 3223 3384 
Q 3469 3184 3519 2828 
Q 3781 3197 4126 3390 
Q 4472 3584 4856 3584 
Q 5306 3584 5551 3325 
Q 5797 3066 5797 2591 
Q 5797 2488 5784 2364 
Q 5772 2241 5747 2113 
z
" transform="scale(0.015625)"/>
      <path id="DejaVuSans-Oblique-3d5" d="M 2991 4863 
L 2738 3572 
Q 3363 3572 3684 3094 
Q 4016 2606 3850 1747 
Q 3681 888 3159 400 
Q 2653 -78 2028 -78 
L 1784 -1331 
L 1213 -1331 
L 1456 -78 
Q 834 -78 509 400 
Q 178 888 347 1747 
Q 513 2606 1034 3094 
Q 1544 3572 2166 3572 
L 2419 4863 
L 2991 4863 
z
M 2128 434 
Q 2481 434 2784 756 
Q 3116 1116 3244 1747 
Q 3369 2372 3169 2738 
Q 2991 3059 2638 3059 
L 2128 434 
z
M 1556 434 
L 2066 3059 
Q 1716 3059 1413 2738 
Q 1072 2372 953 1747 
Q 834 1116 1028 756 
Q 1203 434 1556 434 
z
" transform="scale(0.015625)"/>
     </defs>
     <use xlink:href="#DejaVuSans-221d" transform="translate(19.482422 0.51875)"/>
     <use xlink:href="#DejaVuSans-Oblique-52" transform="translate(110.400391 0.51875)"/>
     <use xlink:href="#DejaVuSans-Oblique-6d" transform="translate(186.899583 38.8) scale(0.7)"/>
     <use xlink:href="#DejaVuSans-Oblique-3d5" transform="translate(255.08806 27.315625) scale(0.49)"/>
    </g>
   </g>
   <g id="text_12">
    <!-- $\propto R^{m_i}$ -->
    <g style="fill: #2d5bff" transform="translate(245.805584 120.146585) rotate(-33) scale(0.18 -0.18)">
     <defs>
      <path id="DejaVuSans-Oblique-69" d="M 1172 4863 
L 1747 4863 
L 1606 4134 
L 1031 4134 
L 1172 4863 
z
M 909 3500 
L 1484 3500 
L 800 0 
L 225 0 
L 909 3500 
z
" transform="scale(0.015625)"/>
     </defs>
     <use xlink:href="#DejaVuSans-221d" transform="translate(19.482422 0.51875)"/>
     <use xlink:href="#DejaVuSans-Oblique-52" transform="translate(110.400391 0.51875)"/>
     <use xlink:href="#DejaVuSans-Oblique-6d" transform="translate(186.899583 38.8) scale(0.7)"/>
     <use xlink:href="#DejaVuSans-Oblique-69" transform="translate(255.08806 27.315625) scale(0.49)"/>
    </g>
   </g>
   <g id="text_13">
    <!-- $R_\times$ -->
    <g transform="translate(181.114603 245.136955) scale(0.16 -0.16)">
     <defs>
      <path id="DejaVuSans-d7" d="M 4488 3438 
L 3059 2003 
L 4488 575 
L 4116 197 
L 2681 1631 
L 1247 197 
L 878 575 
L 2303 2003 
L 878 3438 
L 1247 3816 
L 2681 2381 
L 4116 3816 
L 4488 3438 
z
" transform="scale(0.015625)"/>
     </defs>
     <use xlink:href="#DejaVuSans-Oblique-52" transform="translate(0 0.09375)"/>
     <use xlink:href="#DejaVuSans-d7" transform="translate(83.120117 -16.3125) scale(0.7)"/>
    </g>
   </g>
   <g id="text_14">
    <!-- $D_u(R)/2=1-\xi_u$ -->
    <g transform="translate(7.2 25.44) scale(0.24 -0.24)">
     <defs>
      <path id="DejaVuSans-Oblique-44" d="M 1081 4666 
L 2438 4666 
Q 3519 4666 4070 4208 
Q 4622 3750 4622 2847 
Q 4622 2250 4412 1698 
Q 4203 1147 3834 769 
Q 3463 381 2891 190 
Q 2319 0 1538 0 
L 172 0 
L 1081 4666 
z
M 1613 4147 
L 909 519 
L 1734 519 
Q 2794 519 3375 1128 
Q 3956 1738 3956 2847 
Q 3956 3519 3581 3833 
Q 3206 4147 2406 4147 
L 1613 4147 
z
" transform="scale(0.015625)"/>
      <path id="DejaVuSans-Oblique-75" d="M 428 1388 
L 838 3500 
L 1416 3500 
L 1006 1409 
Q 975 1256 961 1147 
Q 947 1038 947 966 
Q 947 700 1109 554 
Q 1272 409 1569 409 
Q 2031 409 2368 721 
Q 2706 1034 2809 1563 
L 3194 3500 
L 3769 3500 
L 3091 0 
L 2516 0 
L 2631 550 
Q 2388 244 2052 76 
Q 1716 -91 1338 -91 
Q 878 -91 622 161 
Q 366 413 366 863 
Q 366 956 381 1097 
Q 397 1238 428 1388 
z
" transform="scale(0.015625)"/>
      <path id="DejaVuSans-28" d="M 1984 4856 
Q 1566 4138 1362 3434 
Q 1159 2731 1159 2009 
Q 1159 1288 1364 580 
Q 1569 -128 1984 -844 
L 1484 -844 
Q 1016 -109 783 600 
Q 550 1309 550 2009 
Q 550 2706 781 3412 
Q 1013 4119 1484 4856 
L 1984 4856 
z
" transform="scale(0.015625)"/>
      <path id="DejaVuSans-29" d="M 513 4856 
L 1013 4856 
Q 1481 4119 1714 3412 
Q 1947 2706 1947 2009 
Q 1947 1309 1714 600 
Q 1481 -109 1013 -844 
L 513 -844 
Q 928 -128 1133 580 
Q 1338 1288 1338 2009 
Q 1338 2731 1133 3434 
Q 928 4138 513 4856 
z
" transform="scale(0.015625)"/>
      <path id="DejaVuSans-2f" d="M 1625 4666 
L 2156 4666 
L 531 -594 
L 0 -594 
L 1625 4666 
z
" transform="scale(0.015625)"/>
      <path id="DejaVuSans-3d" d="M 678 2906 
L 4684 2906 
L 4684 2381 
L 678 2381 
L 678 2906 
z
M 678 1631 
L 4684 1631 
L 4684 1100 
L 678 1100 
L 678 1631 
z
" transform="scale(0.015625)"/>
      <path id="DejaVuSans-Oblique-3be" d="M 2016 397 
Q 2428 394 2628 159 
Q 2844 -88 2772 -463 
Q 2700 -822 2422 -1072 
Q 2119 -1344 1609 -1344 
Q 1656 -1109 1700 -872 
Q 1913 -888 2072 -750 
Q 2194 -641 2216 -525 
Q 2247 -359 2175 -222 
Q 2100 -91 1922 -91 
Q -25 -91 241 1275 
Q 422 2213 1516 2488 
Q 663 2600 822 3413 
Q 941 4028 1678 4284 
L 1028 4284 
L 1141 4863 
L 3606 4863 
L 3494 4284 
Q 1528 4284 1350 3375 
Q 1234 2778 2881 2750 
L 2778 2219 
Q 1009 2288 819 1275 
Q 659 428 2016 397 
z
" transform="scale(0.015625)"/>
     </defs>
     <use xlink:href="#DejaVuSans-Oblique-44" transform="translate(0 0.015625)"/>
     <use xlink:href="#DejaVuSans-Oblique-75" transform="translate(77.001953 -16.390625) scale(0.7)"/>
     <use xlink:href="#DejaVuSans-28" transform="translate(124.101562 0.015625)"/>
     <use xlink:href="#DejaVuSans-Oblique-52" transform="translate(163.115234 0.015625)"/>
     <use xlink:href="#DejaVuSans-29" transform="translate(232.597656 0.015625)"/>
     <use xlink:href="#DejaVuSans-2f" transform="translate(271.611328 0.015625)"/>
     <use xlink:href="#DejaVuSans-32" transform="translate(301.677734 0.015625)"/>
     <use xlink:href="#DejaVuSans-3d" transform="translate(384.783203 0.015625)"/>
     <use xlink:href="#DejaVuSans-31" transform="translate(488.054688 0.015625)"/>
     <use xlink:href="#DejaVuSans-2212" transform="translate(571.160156 0.015625)"/>
     <use xlink:href="#DejaVuSans-Oblique-3be" transform="translate(674.431641 0.015625)"/>
     <use xlink:href="#DejaVuSans-Oblique-75" transform="translate(730.193359 -16.390625) scale(0.7)"/>
    </g>
   </g>
   <g id="text_15">
    <!-- $R/r_i$ -->
    <g transform="translate(445.890214 302.784) scale(0.22 -0.22)">
     <defs>
      <path id="DejaVuSans-Oblique-72" d="M 2853 2969 
Q 2766 3016 2653 3041 
Q 2541 3066 2413 3066 
Q 1953 3066 1609 2717 
Q 1266 2369 1153 1784 
L 800 0 
L 225 0 
L 909 3500 
L 1484 3500 
L 1375 2956 
Q 1603 3259 1920 3421 
Q 2238 3584 2597 3584 
Q 2691 3584 2781 3573 
Q 2872 3563 2963 3538 
L 2853 2969 
z
" transform="scale(0.015625)"/>
     </defs>
     <use xlink:href="#DejaVuSans-Oblique-52" transform="translate(0 0.09375)"/>
     <use xlink:href="#DejaVuSans-2f" transform="translate(69.482422 0.09375)"/>
     <use xlink:href="#DejaVuSans-Oblique-72" transform="translate(103.173828 0.09375)"/>
     <use xlink:href="#DejaVuSans-Oblique-69" transform="translate(144.287109 -16.3125) scale(0.7)"/>
    </g>
   </g>
   <g id="text_16">
    <!-- $m_i=0.8,\ m_\phi=0.333$ -->
    <g transform="translate(57.668786 59.136) scale(0.15 -0.15)">
     <defs>
      <path id="DejaVuSans-2e" d="M 684 794 
L 1344 794 
L 1344 0 
L 684 0 
L 684 794 
z
" transform="scale(0.015625)"/>
      <path id="DejaVuSans-38" d="M 2034 2216 
Q 1584 2216 1326 1975 
Q 1069 1734 1069 1313 
Q 1069 891 1326 650 
Q 1584 409 2034 409 
Q 2484 409 2743 651 
Q 3003 894 3003 1313 
Q 3003 1734 2745 1975 
Q 2488 2216 2034 2216 
z
M 1403 2484 
Q 997 2584 770 2862 
Q 544 3141 544 3541 
Q 544 4100 942 4425 
Q 1341 4750 2034 4750 
Q 2731 4750 3128 4425 
Q 3525 4100 3525 3541 
Q 3525 3141 3298 2862 
Q 3072 2584 2669 2484 
Q 3125 2378 3379 2068 
Q 3634 1759 3634 1313 
Q 3634 634 3220 271 
Q 2806 -91 2034 -91 
Q 1263 -91 848 271 
Q 434 634 434 1313 
Q 434 1759 690 2068 
Q 947 2378 1403 2484 
z
M 1172 3481 
Q 1172 3119 1398 2916 
Q 1625 2713 2034 2713 
Q 2441 2713 2670 2916 
Q 2900 3119 2900 3481 
Q 2900 3844 2670 4047 
Q 2441 4250 2034 4250 
Q 1625 4250 1398 4047 
Q 1172 3844 1172 3481 
z
" transform="scale(0.015625)"/>
      <path id="DejaVuSans-2c" d="M 750 794 
L 1409 794 
L 1409 256 
L 897 -744 
L 494 -744 
L 750 256 
L 750 794 
z
" transform="scale(0.015625)"/>
     </defs>
     <use xlink:href="#DejaVuSans-Oblique-6d" transform="translate(0 0.78125)"/>
     <use xlink:href="#DejaVuSans-Oblique-69" transform="translate(97.412109 -15.625) scale(0.7)"/>
     <use xlink:href="#DejaVuSans-3d" transform="translate(139.077148 0.78125)"/>
     <use xlink:href="#DejaVuSans-30" transform="translate(242.348633 0.78125)"/>
     <use xlink:href="#DejaVuSans-2e" transform="translate(305.97168 0.78125)"/>
     <use xlink:href="#DejaVuSans-38" transform="translate(335.133789 0.78125)"/>
     <use xlink:href="#DejaVuSans-2c" transform="translate(398.756836 0.78125)"/>
     <use xlink:href="#DejaVuSans-Oblique-6d" transform="translate(482.496746 0.78125)"/>
     <use xlink:href="#DejaVuSans-Oblique-3d5" transform="translate(579.908855 -15.625) scale(0.7)"/>
     <use xlink:href="#DejaVuSans-3d" transform="translate(648.30241 0.78125)"/>
     <use xlink:href="#DejaVuSans-30" transform="translate(751.573894 0.78125)"/>
     <use xlink:href="#DejaVuSans-2e" transform="translate(815.196941 0.78125)"/>
     <use xlink:href="#DejaVuSans-33" transform="translate(846.98405 0.78125)"/>
     <use xlink:href="#DejaVuSans-33" transform="translate(910.607097 0.78125)"/>
     <use xlink:href="#DejaVuSans-33" transform="translate(974.230144 0.78125)"/>
    </g>
   </g>
   <g id="text_17">
    <!-- $r_\phi/r_i=0.1$ -->
    <g transform="translate(57.668786 79.872) scale(0.15 -0.15)">
     <use xlink:href="#DejaVuSans-Oblique-72" transform="translate(0 0.78125)"/>
     <use xlink:href="#DejaVuSans-Oblique-3d5" transform="translate(41.113281 -15.625) scale(0.7)"/>
     <use xlink:href="#DejaVuSans-2f" transform="translate(90.024414 0.78125)"/>
     <use xlink:href="#DejaVuSans-Oblique-72" transform="translate(123.71582 0.78125)"/>
     <use xlink:href="#DejaVuSans-Oblique-69" transform="translate(164.829102 -15.625) scale(0.7)"/>
     <use xlink:href="#DejaVuSans-3d" transform="translate(206.494141 0.78125)"/>
     <use xlink:href="#DejaVuSans-30" transform="translate(309.765625 0.78125)"/>
     <use xlink:href="#DejaVuSans-2e" transform="translate(373.388672 0.78125)"/>
     <use xlink:href="#DejaVuSans-31" transform="translate(405.175781 0.78125)"/>
    </g>
   </g>
   <g id="text_18">
    <!-- $\xi_u=\xi_i\,e^{-\eta^2\hat D_\Phi}$ -->
    <g transform="translate(57.668786 100.608) scale(0.15 -0.15)">
     <defs>
      <path id="DejaVuSans-Oblique-65" d="M 3078 2063 
Q 3088 2113 3092 2166 
Q 3097 2219 3097 2272 
Q 3097 2653 2873 2875 
Q 2650 3097 2266 3097 
Q 1838 3097 1509 2826 
Q 1181 2556 1013 2059 
L 3078 2063 
z
M 3578 1613 
L 903 1613 
Q 884 1494 878 1425 
Q 872 1356 872 1306 
Q 872 872 1139 634 
Q 1406 397 1894 397 
Q 2269 397 2603 481 
Q 2938 566 3225 728 
L 3116 159 
Q 2806 34 2476 -28 
Q 2147 -91 1806 -91 
Q 1078 -91 686 257 
Q 294 606 294 1247 
Q 294 1794 489 2264 
Q 684 2734 1063 3103 
Q 1306 3334 1642 3459 
Q 1978 3584 2356 3584 
Q 2950 3584 3301 3228 
Q 3653 2872 3653 2272 
Q 3653 2128 3634 1964 
Q 3616 1800 3578 1613 
z
" transform="scale(0.015625)"/>
      <path id="DejaVuSans-Oblique-3b7" d="M 3703 2113 
L 3034 -1331 
L 2459 -1331 
L 3125 2094 
Q 3222 2591 3075 2838 
Q 2931 3084 2544 3084 
Q 2078 3084 1750 2788 
Q 1425 2491 1325 1978 
L 941 0 
L 363 0 
L 1044 3500 
L 1622 3500 
L 1516 2956 
Q 1781 3272 2094 3428 
Q 2403 3584 2769 3584 
Q 3372 3584 3609 3213 
Q 3844 2838 3703 2113 
z
" transform="scale(0.015625)"/>
      <path id="DejaVuSans-302" d="M -1831 5119 
L -1369 5119 
L -603 3944 
L -1038 3944 
L -1600 4709 
L -2163 3944 
L -2597 3944 
L -1831 5119 
z
M -1600 3584 
L -1600 3584 
z
" transform="scale(0.015625)"/>
      <path id="DejaVuSans-3a6" d="M 2206 3644 
Q 1738 3578 1431 3306 
Q 1025 2947 1025 2328 
Q 1025 1713 1431 1353 
Q 1738 1081 2206 1016 
L 2206 3644 
z
M 2838 1016 
Q 3306 1081 3613 1353 
Q 4013 1713 4013 2328 
Q 4013 2947 3613 3306 
Q 3306 3578 2838 3644 
L 2838 1016 
z
M 2206 494 
Q 1444 563 950 981 
Q 359 1481 359 2328 
Q 359 3175 950 3678 
Q 1441 4100 2206 4169 
L 2206 4666 
L 2838 4666 
L 2838 4169 
Q 3600 4097 4091 3678 
Q 4678 3175 4678 2328 
Q 4678 1484 4091 981 
Q 3600 563 2838 491 
L 2838 0 
L 2206 0 
L 2206 494 
z
" transform="scale(0.015625)"/>
     </defs>
     <use xlink:href="#DejaVuSans-Oblique-3be" transform="translate(0 0.145313)"/>
     <use xlink:href="#DejaVuSans-Oblique-75" transform="translate(55.761719 -16.260938) scale(0.7)"/>
     <use xlink:href="#DejaVuSans-3d" transform="translate(122.34375 0.145313)"/>
     <use xlink:href="#DejaVuSans-Oblique-3be" transform="translate(225.615234 0.145313)"/>
     <use xlink:href="#DejaVuSans-Oblique-69" transform="translate(281.376953 -16.260938) scale(0.7)"/>
     <use xlink:href="#DejaVuSans-Oblique-65" transform="translate(319.795247 0.145313)"/>
     <use xlink:href="#DejaVuSans-2212" transform="translate(385.96858 38.426563) scale(0.7)"/>
     <use xlink:href="#DejaVuSans-Oblique-3b7" transform="translate(444.620924 38.426563) scale(0.7)"/>
     <use xlink:href="#DejaVuSans-32" transform="translate(492.241085 65.223438) scale(0.49)"/>
     <use xlink:href="#DejaVuSans-302" transform="translate(572.904659 59.007812) scale(0.7)"/>
     <use xlink:href="#DejaVuSans-Oblique-44" transform="translate(525.330441 38.426563) scale(0.7)"/>
     <use xlink:href="#DejaVuSans-3a6" transform="translate(579.90173 26.942188) scale(0.49)"/>
    </g>
   </g>
   <g id="legend_1">
    <g id="line2d_109">
     <path d="M 340.763571 191.889375 
L 352.763571 191.889375 
L 364.763571 191.889375 
" style="fill: none; stroke: #38049a; stroke-width: 2.2; stroke-linecap: square"/>
    </g>
    <g id="text_19">
     <!-- $\eta=0$ -->
     <g transform="translate(374.363571 196.089375) scale(0.12 -0.12)">
      <use xlink:href="#DejaVuSans-Oblique-3b7" transform="translate(0 0.78125)"/>
      <use xlink:href="#DejaVuSans-3d" transform="translate(82.861328 0.78125)"/>
      <use xlink:href="#DejaVuSans-30" transform="translate(186.132812 0.78125)"/>
     </g>
    </g>
    <g id="line2d_110">
     <path d="M 340.763571 209.5275 
L 352.763571 209.5275 
L 364.763571 209.5275 
" style="fill: none; stroke: #7d03a8; stroke-width: 2.2; stroke-linecap: square"/>
    </g>
    <g id="text_20">
     <!-- $\eta=0.05$ -->
     <g transform="translate(374.363571 213.7275) scale(0.12 -0.12)">
      <defs>
       <path id="DejaVuSans-35" d="M 691 4666 
L 3169 4666 
L 3169 4134 
L 1269 4134 
L 1269 2991 
Q 1406 3038 1543 3061 
Q 1681 3084 1819 3084 
Q 2600 3084 3056 2656 
Q 3513 2228 3513 1497 
Q 3513 744 3044 326 
Q 2575 -91 1722 -91 
Q 1428 -91 1123 -41 
Q 819 9 494 109 
L 494 744 
Q 775 591 1075 516 
Q 1375 441 1709 441 
Q 2250 441 2565 725 
Q 2881 1009 2881 1497 
Q 2881 1984 2565 2268 
Q 2250 2553 1709 2553 
Q 1456 2553 1204 2497 
Q 953 2441 691 2322 
L 691 4666 
z
" transform="scale(0.015625)"/>
      </defs>
      <use xlink:href="#DejaVuSans-Oblique-3b7" transform="translate(0 0.78125)"/>
      <use xlink:href="#DejaVuSans-3d" transform="translate(82.861328 0.78125)"/>
      <use xlink:href="#DejaVuSans-30" transform="translate(186.132812 0.78125)"/>
      <use xlink:href="#DejaVuSans-2e" transform="translate(249.755859 0.78125)"/>
      <use xlink:href="#DejaVuSans-30" transform="translate(281.542969 0.78125)"/>
      <use xlink:href="#DejaVuSans-35" transform="translate(345.166016 0.78125)"/>
     </g>
    </g>
    <g id="line2d_111">
     <path d="M 340.763571 227.165625 
L 352.763571 227.165625 
L 364.763571 227.165625 
" style="fill: none; stroke: #b52f8c; stroke-width: 2.2; stroke-linecap: square"/>
    </g>
    <g id="text_21">
     <!-- $\eta=0.09$ -->
     <g transform="translate(374.363571 231.365625) scale(0.12 -0.12)">
      <defs>
       <path id="DejaVuSans-39" d="M 703 97 
L 703 672 
Q 941 559 1184 500 
Q 1428 441 1663 441 
Q 2288 441 2617 861 
Q 2947 1281 2994 2138 
Q 2813 1869 2534 1725 
Q 2256 1581 1919 1581 
Q 1219 1581 811 2004 
Q 403 2428 403 3163 
Q 403 3881 828 4315 
Q 1253 4750 1959 4750 
Q 2769 4750 3195 4129 
Q 3622 3509 3622 2328 
Q 3622 1225 3098 567 
Q 2575 -91 1691 -91 
Q 1453 -91 1209 -44 
Q 966 3 703 97 
z
M 1959 2075 
Q 2384 2075 2632 2365 
Q 2881 2656 2881 3163 
Q 2881 3666 2632 3958 
Q 2384 4250 1959 4250 
Q 1534 4250 1286 3958 
Q 1038 3666 1038 3163 
Q 1038 2656 1286 2365 
Q 1534 2075 1959 2075 
z
" transform="scale(0.015625)"/>
      </defs>
      <use xlink:href="#DejaVuSans-Oblique-3b7" transform="translate(0 0.78125)"/>
      <use xlink:href="#DejaVuSans-3d" transform="translate(82.861328 0.78125)"/>
      <use xlink:href="#DejaVuSans-30" transform="translate(186.132812 0.78125)"/>
      <use xlink:href="#DejaVuSans-2e" transform="translate(249.755859 0.78125)"/>
      <use xlink:href="#DejaVuSans-30" transform="translate(281.542969 0.78125)"/>
      <use xlink:href="#DejaVuSans-39" transform="translate(345.166016 0.78125)"/>
     </g>
    </g>
    <g id="line2d_112">
     <path d="M 340.763571 244.80375 
L 352.763571 244.80375 
L 364.763571 244.80375 
" style="fill: none; stroke: #de5f65; stroke-width: 2.2; stroke-linecap: square"/>
    </g>
    <g id="text_22">
     <!-- $\eta=0.2$ -->
     <g transform="translate(374.363571 249.00375) scale(0.12 -0.12)">
      <use xlink:href="#DejaVuSans-Oblique-3b7" transform="translate(0 0.78125)"/>
      <use xlink:href="#DejaVuSans-3d" transform="translate(82.861328 0.78125)"/>
      <use xlink:href="#DejaVuSans-30" transform="translate(186.132812 0.78125)"/>
      <use xlink:href="#DejaVuSans-2e" transform="translate(249.755859 0.78125)"/>
      <use xlink:href="#DejaVuSans-32" transform="translate(276.042969 0.78125)"/>
     </g>
    </g>
    <g id="line2d_113">
     <path d="M 340.763571 262.441875 
L 352.763571 262.441875 
L 364.763571 262.441875 
" style="fill: none; stroke: #f89540; stroke-width: 2.2; stroke-linecap: square"/>
    </g>
    <g id="text_23">
     <!-- $\eta=0.3$ -->
     <g transform="translate(374.363571 266.641875) scale(0.12 -0.12)">
      <use xlink:href="#DejaVuSans-Oblique-3b7" transform="translate(0 0.78125)"/>
      <use xlink:href="#DejaVuSans-3d" transform="translate(82.861328 0.78125)"/>
      <use xlink:href="#DejaVuSans-30" transform="translate(186.132812 0.78125)"/>
      <use xlink:href="#DejaVuSans-2e" transform="translate(249.755859 0.78125)"/>
      <use xlink:href="#DejaVuSans-33" transform="translate(281.542969 0.78125)"/>
     </g>
    </g>
    <g id="line2d_114">
     <path d="M 340.763571 280.08 
L 352.763571 280.08 
L 364.763571 280.08 
" style="fill: none; stroke: #fbd724; stroke-width: 2.2; stroke-linecap: square"/>
    </g>
    <g id="text_24">
     <!-- $\eta=0.5$ -->
     <g transform="translate(374.363571 284.28) scale(0.12 -0.12)">
      <use xlink:href="#DejaVuSans-Oblique-3b7" transform="translate(0 0.78125)"/>
      <use xlink:href="#DejaVuSans-3d" transform="translate(82.861328 0.78125)"/>
      <use xlink:href="#DejaVuSans-30" transform="translate(186.132812 0.78125)"/>
      <use xlink:href="#DejaVuSans-2e" transform="translate(249.755859 0.78125)"/>
      <use xlink:href="#DejaVuSans-35" transform="translate(281.542969 0.78125)"/>
     </g>
    </g>
   </g>
  </g>
  <g id="axes_2">
   <g id="patch_5">
    <path d="M 527.416714 297.6 
L 915.638143 297.6 
L 915.638143 38.4 
L 527.416714 38.4 
z
" style="fill: #ffffff"/>
   </g>
   <g id="matplotlib.axis_3">
    <g id="xtick_47">
     <g id="line2d_115">
      <g>
       <use xlink:href="#mb2d6676c3a" x="527.416714" y="297.6" style="stroke: #000000; stroke-width: 0.8"/>
      </g>
     </g>
     <g id="text_25">
      <!-- $\mathdefault{10^{-4}}$ -->
      <g transform="translate(512.141714 310.977969) scale(0.13 -0.13)">
       <use xlink:href="#DejaVuSans-31" transform="translate(0 0.684375)"/>
       <use xlink:href="#DejaVuSans-30" transform="translate(63.623047 0.684375)"/>
       <use xlink:href="#DejaVuSans-2212" transform="translate(128.203125 38.965625) scale(0.7)"/>
       <use xlink:href="#DejaVuSans-34" transform="translate(186.855469 38.965625) scale(0.7)"/>
      </g>
     </g>
    </g>
    <g id="xtick_48">
     <g id="line2d_116">
      <g>
       <use xlink:href="#mb2d6676c3a" x="605.061" y="297.6" style="stroke: #000000; stroke-width: 0.8"/>
      </g>
     </g>
     <g id="text_26">
      <!-- $\mathdefault{10^{-3}}$ -->
      <g transform="translate(589.786 310.977969) scale(0.13 -0.13)">
       <use xlink:href="#DejaVuSans-31" transform="translate(0 0.765625)"/>
       <use xlink:href="#DejaVuSans-30" transform="translate(63.623047 0.765625)"/>
       <use xlink:href="#DejaVuSans-2212" transform="translate(128.203125 39.046875) scale(0.7)"/>
       <use xlink:href="#DejaVuSans-33" transform="translate(186.855469 39.046875) scale(0.7)"/>
      </g>
     </g>
    </g>
    <g id="xtick_49">
     <g id="line2d_117">
      <g>
       <use xlink:href="#mb2d6676c3a" x="682.705286" y="297.6" style="stroke: #000000; stroke-width: 0.8"/>
      </g>
     </g>
     <g id="text_27">
      <!-- $\mathdefault{10^{-2}}$ -->
      <g transform="translate(667.430286 310.977969) scale(0.13 -0.13)">
       <use xlink:href="#DejaVuSans-31" transform="translate(0 0.765625)"/>
       <use xlink:href="#DejaVuSans-30" transform="translate(63.623047 0.765625)"/>
       <use xlink:href="#DejaVuSans-2212" transform="translate(128.203125 39.046875) scale(0.7)"/>
       <use xlink:href="#DejaVuSans-32" transform="translate(186.855469 39.046875) scale(0.7)"/>
      </g>
     </g>
    </g>
    <g id="xtick_50">
     <g id="line2d_118">
      <g>
       <use xlink:href="#mb2d6676c3a" x="760.349571" y="297.6" style="stroke: #000000; stroke-width: 0.8"/>
      </g>
     </g>
     <g id="text_28">
      <!-- $\mathdefault{10^{-1}}$ -->
      <g transform="translate(745.074571 310.977969) scale(0.13 -0.13)">
       <use xlink:href="#DejaVuSans-31" transform="translate(0 0.684375)"/>
       <use xlink:href="#DejaVuSans-30" transform="translate(63.623047 0.684375)"/>
       <use xlink:href="#DejaVuSans-2212" transform="translate(128.203125 38.965625) scale(0.7)"/>
       <use xlink:href="#DejaVuSans-31" transform="translate(186.855469 38.965625) scale(0.7)"/>
      </g>
     </g>
    </g>
    <g id="xtick_51">
     <g id="line2d_119">
      <g>
       <use xlink:href="#mb2d6676c3a" x="837.993857" y="297.6" style="stroke: #000000; stroke-width: 0.8"/>
      </g>
     </g>
     <g id="text_29">
      <!-- $\mathdefault{10^{0}}$ -->
      <g transform="translate(826.553857 310.977969) scale(0.13 -0.13)">
       <use xlink:href="#DejaVuSans-31" transform="translate(0 0.765625)"/>
       <use xlink:href="#DejaVuSans-30" transform="translate(63.623047 0.765625)"/>
       <use xlink:href="#DejaVuSans-30" transform="translate(128.203125 39.046875) scale(0.7)"/>
      </g>
     </g>
    </g>
    <g id="xtick_52">
     <g id="line2d_120">
      <g>
       <use xlink:href="#mb2d6676c3a" x="915.638143" y="297.6" style="stroke: #000000; stroke-width: 0.8"/>
      </g>
     </g>
     <g id="text_30">
      <!-- $\mathdefault{10^{1}}$ -->
      <g transform="translate(904.198143 310.977969) scale(0.13 -0.13)">
       <use xlink:href="#DejaVuSans-31" transform="translate(0 0.684375)"/>
       <use xlink:href="#DejaVuSans-30" transform="translate(63.623047 0.684375)"/>
       <use xlink:href="#DejaVuSans-31" transform="translate(128.203125 38.965625) scale(0.7)"/>
      </g>
     </g>
    </g>
    <g id="xtick_53">
     <g id="line2d_121">
      <g>
       <use xlink:href="#mc06fd8cd6b" x="550.789973" y="297.6" style="stroke: #000000; stroke-width: 0.6"/>
      </g>
     </g>
    </g>
    <g id="xtick_54">
     <g id="line2d_122">
      <g>
       <use xlink:href="#mc06fd8cd6b" x="564.462453" y="297.6" style="stroke: #000000; stroke-width: 0.6"/>
      </g>
     </g>
    </g>
    <g id="xtick_55">
     <g id="line2d_123">
      <g>
       <use xlink:href="#mc06fd8cd6b" x="574.163232" y="297.6" style="stroke: #000000; stroke-width: 0.6"/>
      </g>
     </g>
    </g>
    <g id="xtick_56">
     <g id="line2d_124">
      <g>
       <use xlink:href="#mc06fd8cd6b" x="581.687741" y="297.6" style="stroke: #000000; stroke-width: 0.6"/>
      </g>
     </g>
    </g>
    <g id="xtick_57">
     <g id="line2d_125">
      <g>
       <use xlink:href="#mc06fd8cd6b" x="587.835712" y="297.6" style="stroke: #000000; stroke-width: 0.6"/>
      </g>
     </g>
    </g>
    <g id="xtick_58">
     <g id="line2d_126">
      <g>
       <use xlink:href="#mc06fd8cd6b" x="593.033748" y="297.6" style="stroke: #000000; stroke-width: 0.6"/>
      </g>
     </g>
    </g>
    <g id="xtick_59">
     <g id="line2d_127">
      <g>
       <use xlink:href="#mc06fd8cd6b" x="597.536491" y="297.6" style="stroke: #000000; stroke-width: 0.6"/>
      </g>
     </g>
    </g>
    <g id="xtick_60">
     <g id="line2d_128">
      <g>
       <use xlink:href="#mc06fd8cd6b" x="601.508192" y="297.6" style="stroke: #000000; stroke-width: 0.6"/>
      </g>
     </g>
    </g>
    <g id="xtick_61">
     <g id="line2d_129">
      <g>
       <use xlink:href="#mc06fd8cd6b" x="628.434259" y="297.6" style="stroke: #000000; stroke-width: 0.6"/>
      </g>
     </g>
    </g>
    <g id="xtick_62">
     <g id="line2d_130">
      <g>
       <use xlink:href="#mc06fd8cd6b" x="642.106739" y="297.6" style="stroke: #000000; stroke-width: 0.6"/>
      </g>
     </g>
    </g>
    <g id="xtick_63">
     <g id="line2d_131">
      <g>
       <use xlink:href="#mc06fd8cd6b" x="651.807518" y="297.6" style="stroke: #000000; stroke-width: 0.6"/>
      </g>
     </g>
    </g>
    <g id="xtick_64">
     <g id="line2d_132">
      <g>
       <use xlink:href="#mc06fd8cd6b" x="659.332027" y="297.6" style="stroke: #000000; stroke-width: 0.6"/>
      </g>
     </g>
    </g>
    <g id="xtick_65">
     <g id="line2d_133">
      <g>
       <use xlink:href="#mc06fd8cd6b" x="665.479998" y="297.6" style="stroke: #000000; stroke-width: 0.6"/>
      </g>
     </g>
    </g>
    <g id="xtick_66">
     <g id="line2d_134">
      <g>
       <use xlink:href="#mc06fd8cd6b" x="670.678034" y="297.6" style="stroke: #000000; stroke-width: 0.6"/>
      </g>
     </g>
    </g>
    <g id="xtick_67">
     <g id="line2d_135">
      <g>
       <use xlink:href="#mc06fd8cd6b" x="675.180777" y="297.6" style="stroke: #000000; stroke-width: 0.6"/>
      </g>
     </g>
    </g>
    <g id="xtick_68">
     <g id="line2d_136">
      <g>
       <use xlink:href="#mc06fd8cd6b" x="679.152478" y="297.6" style="stroke: #000000; stroke-width: 0.6"/>
      </g>
     </g>
    </g>
    <g id="xtick_69">
     <g id="line2d_137">
      <g>
       <use xlink:href="#mc06fd8cd6b" x="706.078545" y="297.6" style="stroke: #000000; stroke-width: 0.6"/>
      </g>
     </g>
    </g>
    <g id="xtick_70">
     <g id="line2d_138">
      <g>
       <use xlink:href="#mc06fd8cd6b" x="719.751025" y="297.6" style="stroke: #000000; stroke-width: 0.6"/>
      </g>
     </g>
    </g>
    <g id="xtick_71">
     <g id="line2d_139">
      <g>
       <use xlink:href="#mc06fd8cd6b" x="729.451804" y="297.6" style="stroke: #000000; stroke-width: 0.6"/>
      </g>
     </g>
    </g>
    <g id="xtick_72">
     <g id="line2d_140">
      <g>
       <use xlink:href="#mc06fd8cd6b" x="736.976312" y="297.6" style="stroke: #000000; stroke-width: 0.6"/>
      </g>
     </g>
    </g>
    <g id="xtick_73">
     <g id="line2d_141">
      <g>
       <use xlink:href="#mc06fd8cd6b" x="743.124284" y="297.6" style="stroke: #000000; stroke-width: 0.6"/>
      </g>
     </g>
    </g>
    <g id="xtick_74">
     <g id="line2d_142">
      <g>
       <use xlink:href="#mc06fd8cd6b" x="748.322319" y="297.6" style="stroke: #000000; stroke-width: 0.6"/>
      </g>
     </g>
    </g>
    <g id="xtick_75">
     <g id="line2d_143">
      <g>
       <use xlink:href="#mc06fd8cd6b" x="752.825063" y="297.6" style="stroke: #000000; stroke-width: 0.6"/>
      </g>
     </g>
    </g>
    <g id="xtick_76">
     <g id="line2d_144">
      <g>
       <use xlink:href="#mc06fd8cd6b" x="756.796764" y="297.6" style="stroke: #000000; stroke-width: 0.6"/>
      </g>
     </g>
    </g>
    <g id="xtick_77">
     <g id="line2d_145">
      <g>
       <use xlink:href="#mc06fd8cd6b" x="783.72283" y="297.6" style="stroke: #000000; stroke-width: 0.6"/>
      </g>
     </g>
    </g>
    <g id="xtick_78">
     <g id="line2d_146">
      <g>
       <use xlink:href="#mc06fd8cd6b" x="797.39531" y="297.6" style="stroke: #000000; stroke-width: 0.6"/>
      </g>
     </g>
    </g>
    <g id="xtick_79">
     <g id="line2d_147">
      <g>
       <use xlink:href="#mc06fd8cd6b" x="807.096089" y="297.6" style="stroke: #000000; stroke-width: 0.6"/>
      </g>
     </g>
    </g>
    <g id="xtick_80">
     <g id="line2d_148">
      <g>
       <use xlink:href="#mc06fd8cd6b" x="814.620598" y="297.6" style="stroke: #000000; stroke-width: 0.6"/>
      </g>
     </g>
    </g>
    <g id="xtick_81">
     <g id="line2d_149">
      <g>
       <use xlink:href="#mc06fd8cd6b" x="820.768569" y="297.6" style="stroke: #000000; stroke-width: 0.6"/>
      </g>
     </g>
    </g>
    <g id="xtick_82">
     <g id="line2d_150">
      <g>
       <use xlink:href="#mc06fd8cd6b" x="825.966605" y="297.6" style="stroke: #000000; stroke-width: 0.6"/>
      </g>
     </g>
    </g>
    <g id="xtick_83">
     <g id="line2d_151">
      <g>
       <use xlink:href="#mc06fd8cd6b" x="830.469348" y="297.6" style="stroke: #000000; stroke-width: 0.6"/>
      </g>
     </g>
    </g>
    <g id="xtick_84">
     <g id="line2d_152">
      <g>
       <use xlink:href="#mc06fd8cd6b" x="834.441049" y="297.6" style="stroke: #000000; stroke-width: 0.6"/>
      </g>
     </g>
    </g>
    <g id="xtick_85">
     <g id="line2d_153">
      <g>
       <use xlink:href="#mc06fd8cd6b" x="861.367116" y="297.6" style="stroke: #000000; stroke-width: 0.6"/>
      </g>
     </g>
    </g>
    <g id="xtick_86">
     <g id="line2d_154">
      <g>
       <use xlink:href="#mc06fd8cd6b" x="875.039596" y="297.6" style="stroke: #000000; stroke-width: 0.6"/>
      </g>
     </g>
    </g>
    <g id="xtick_87">
     <g id="line2d_155">
      <g>
       <use xlink:href="#mc06fd8cd6b" x="884.740375" y="297.6" style="stroke: #000000; stroke-width: 0.6"/>
      </g>
     </g>
    </g>
    <g id="xtick_88">
     <g id="line2d_156">
      <g>
       <use xlink:href="#mc06fd8cd6b" x="892.264884" y="297.6" style="stroke: #000000; stroke-width: 0.6"/>
      </g>
     </g>
    </g>
    <g id="xtick_89">
     <g id="line2d_157">
      <g>
       <use xlink:href="#mc06fd8cd6b" x="898.412855" y="297.6" style="stroke: #000000; stroke-width: 0.6"/>
      </g>
     </g>
    </g>
    <g id="xtick_90">
     <g id="line2d_158">
      <g>
       <use xlink:href="#mc06fd8cd6b" x="903.610891" y="297.6" style="stroke: #000000; stroke-width: 0.6"/>
      </g>
     </g>
    </g>
    <g id="xtick_91">
     <g id="line2d_159">
      <g>
       <use xlink:href="#mc06fd8cd6b" x="908.113634" y="297.6" style="stroke: #000000; stroke-width: 0.6"/>
      </g>
     </g>
    </g>
    <g id="xtick_92">
     <g id="line2d_160">
      <g>
       <use xlink:href="#mc06fd8cd6b" x="912.085335" y="297.6" style="stroke: #000000; stroke-width: 0.6"/>
      </g>
     </g>
    </g>
   </g>
   <g id="matplotlib.axis_4">
    <g id="ytick_53">
     <g id="line2d_161">
      <g>
       <use xlink:href="#m2778a31a21" x="527.416714" y="297.6" style="stroke: #000000; stroke-width: 0.8"/>
      </g>
     </g>
     <g id="text_31">
      <!-- 0.0 -->
      <g transform="translate(503.242652 302.538984) scale(0.13 -0.13)">
       <use xlink:href="#DejaVuSans-30"/>
       <use xlink:href="#DejaVuSans-2e" x="63.623047"/>
       <use xlink:href="#DejaVuSans-30" x="95.410156"/>
      </g>
     </g>
    </g>
    <g id="ytick_54">
     <g id="line2d_162">
      <g>
       <use xlink:href="#m2778a31a21" x="527.416714" y="254.4" style="stroke: #000000; stroke-width: 0.8"/>
      </g>
     </g>
     <g id="text_32">
      <!-- 0.2 -->
      <g transform="translate(503.242652 259.338984) scale(0.13 -0.13)">
       <use xlink:href="#DejaVuSans-30"/>
       <use xlink:href="#DejaVuSans-2e" x="63.623047"/>
       <use xlink:href="#DejaVuSans-32" x="95.410156"/>
      </g>
     </g>
    </g>
    <g id="ytick_55">
     <g id="line2d_163">
      <g>
       <use xlink:href="#m2778a31a21" x="527.416714" y="211.2" style="stroke: #000000; stroke-width: 0.8"/>
      </g>
     </g>
     <g id="text_33">
      <!-- 0.4 -->
      <g transform="translate(503.242652 216.138984) scale(0.13 -0.13)">
       <use xlink:href="#DejaVuSans-30"/>
       <use xlink:href="#DejaVuSans-2e" x="63.623047"/>
       <use xlink:href="#DejaVuSans-34" x="95.410156"/>
      </g>
     </g>
    </g>
    <g id="ytick_56">
     <g id="line2d_164">
      <g>
       <use xlink:href="#m2778a31a21" x="527.416714" y="168" style="stroke: #000000; stroke-width: 0.8"/>
      </g>
     </g>
     <g id="text_34">
      <!-- 0.6 -->
      <g transform="translate(503.242652 172.938984) scale(0.13 -0.13)">
       <use xlink:href="#DejaVuSans-30"/>
       <use xlink:href="#DejaVuSans-2e" x="63.623047"/>
       <use xlink:href="#DejaVuSans-36" x="95.410156"/>
      </g>
     </g>
    </g>
    <g id="ytick_57">
     <g id="line2d_165">
      <g>
       <use xlink:href="#m2778a31a21" x="527.416714" y="124.8" style="stroke: #000000; stroke-width: 0.8"/>
      </g>
     </g>
     <g id="text_35">
      <!-- 0.8 -->
      <g transform="translate(503.242652 129.738984) scale(0.13 -0.13)">
       <use xlink:href="#DejaVuSans-30"/>
       <use xlink:href="#DejaVuSans-2e" x="63.623047"/>
       <use xlink:href="#DejaVuSans-38" x="95.410156"/>
      </g>
     </g>
    </g>
    <g id="ytick_58">
     <g id="line2d_166">
      <g>
       <use xlink:href="#m2778a31a21" x="527.416714" y="81.6" style="stroke: #000000; stroke-width: 0.8"/>
      </g>
     </g>
     <g id="text_36">
      <!-- 1.0 -->
      <g transform="translate(503.242652 86.538984) scale(0.13 -0.13)">
       <use xlink:href="#DejaVuSans-31"/>
       <use xlink:href="#DejaVuSans-2e" x="63.623047"/>
       <use xlink:href="#DejaVuSans-30" x="95.410156"/>
      </g>
     </g>
    </g>
    <g id="ytick_59">
     <g id="line2d_167">
      <g>
       <use xlink:href="#m2778a31a21" x="527.416714" y="38.4" style="stroke: #000000; stroke-width: 0.8"/>
      </g>
     </g>
     <g id="text_37">
      <!-- 1.2 -->
      <g transform="translate(503.242652 43.338984) scale(0.13 -0.13)">
       <use xlink:href="#DejaVuSans-31"/>
       <use xlink:href="#DejaVuSans-2e" x="63.623047"/>
       <use xlink:href="#DejaVuSans-32" x="95.410156"/>
      </g>
     </g>
    </g>
   </g>
   <g id="line2d_168">
    <path d="M 527.416714 124.909972 
L 565.538658 125.068954 
L 598.992609 125.393675 
L 622.332575 125.830213 
L 641.004547 126.399083 
L 655.786525 127.061989 
L 668.234507 127.825506 
L 679.126491 128.697498 
L 689.240476 129.724314 
L 698.576462 130.902111 
L 707.13445 132.216813 
L 714.914438 133.643313 
L 721.916428 135.145724 
L 728.918418 136.884567 
L 735.142409 138.653287 
L 741.366399 140.655338 
L 747.59039 142.913746 
L 753.036382 145.118239 
L 758.482374 147.55156 
L 763.928366 150.227697 
L 769.374358 153.159115 
L 774.82035 156.356113 
L 780.266342 159.826116 
L 785.712334 163.57294 
L 791.158326 167.596063 
L 796.604318 171.889957 
L 802.05031 176.443524 
L 808.274301 181.943424 
L 815.276291 188.465154 
L 823.056279 196.049187 
L 833.170264 206.261845 
L 854.176233 227.584055 
L 861.956222 235.117587 
L 868.958212 241.580352 
L 875.182202 247.019395 
L 880.628194 251.514892 
L 886.074186 255.747665 
L 891.520178 259.707931 
L 896.96617 263.391359 
L 902.412162 266.798482 
L 907.858154 269.934007 
L 913.304146 272.806078 
L 914.860144 273.579743 
L 915.638143 273.770603 
L 915.638143 273.770603 
" clip-path="url(#p21b52863e1)" style="fill: none; stroke: #38049a; stroke-width: 2; stroke-linecap: square"/>
   </g>
   <g id="line2d_169">
    <path d="M 527.416714 153.222737 
L 528.972712 152.886683 
L 539.864696 149.872348 
L 550.75668 147.090553 
L 561.648664 144.550374 
L 571.762649 142.411627 
L 581.876634 140.485079 
L 591.990619 138.769088 
L 602.882603 137.153552 
L 613.774587 135.775917 
L 624.666571 134.634349 
L 635.558555 133.729879 
L 645.67254 133.10692 
L 655.786525 132.701776 
L 665.90051 132.528765 
L 675.236497 132.593162 
L 683.794484 132.860754 
L 692.352472 133.350635 
L 700.13246 134.011857 
L 707.912449 134.904037 
L 714.914438 135.928072 
L 721.916428 137.186033 
L 728.140419 138.52174 
L 734.36441 140.082866 
L 740.588401 141.890437 
L 746.034392 143.691305 
L 751.480384 145.712169 
L 756.926376 147.96741 
L 762.372368 150.470646 
L 767.81836 153.23419 
L 773.264352 156.268416 
L 778.710344 159.581072 
L 784.156336 163.176542 
L 789.602328 167.055114 
L 795.04832 171.21228 
L 800.494312 175.638144 
L 806.718303 181.004836 
L 812.942294 186.668567 
L 819.944284 193.340987 
L 828.502271 201.820406 
L 846.396245 219.999529 
L 856.51023 230.054594 
L 864.290218 237.460459 
L 870.514209 243.102241 
L 876.7382 248.447419 
L 882.184192 252.85673 
L 887.630184 257.001194 
L 893.076176 260.872519 
L 898.522168 264.467721 
L 903.96816 267.7885 
L 909.414152 270.84053 
L 914.860144 273.632721 
L 915.638143 273.823142 
L 915.638143 273.823142 
" clip-path="url(#p21b52863e1)" style="fill: none; stroke: #7d03a8; stroke-width: 2; stroke-linecap: square"/>
   </g>
   <g id="line2d_170">
    <path d="M 527.416714 182.582729 
L 528.194713 182.442852 
L 551.534679 173.927521 
L 573.318647 166.055933 
L 587.322626 161.234271 
L 598.992609 157.447875 
L 609.884593 154.153283 
L 619.998578 151.334239 
L 629.334564 148.960529 
L 638.670551 146.825059 
L 647.228538 145.091471 
L 655.786525 143.58545 
L 664.344513 142.320539 
L 672.124501 141.392348 
L 679.90449 140.688462 
L 687.684478 140.223672 
L 694.686468 140.02406 
L 701.688458 140.046849 
L 708.690447 140.308978 
L 714.914438 140.758476 
L 721.138429 141.427511 
L 727.36242 142.332771 
L 732.808412 143.332816 
L 738.254404 144.540351 
L 743.700396 145.968677 
L 749.146388 147.631323 
L 754.59238 149.541707 
L 760.038372 151.71272 
L 765.484364 154.156213 
L 770.930356 156.882414 
L 776.376348 159.899258 
L 781.82234 163.211671 
L 787.268332 166.820839 
L 792.714324 170.723481 
L 798.160316 174.91121 
L 803.606308 179.370013 
L 809.830299 184.771836 
L 816.054289 190.462039 
L 823.834278 197.904559 
L 833.170264 207.165803 
L 855.732231 229.696266 
L 863.51222 237.079021 
L 870.514209 243.399714 
L 876.7382 248.709454 
L 882.184192 253.091058 
L 887.630184 257.210597 
L 893.076176 261.059523 
L 898.522168 264.634612 
L 903.96816 267.937345 
L 909.414152 270.9732 
L 914.860144 273.750903 
L 915.638143 273.940344 
L 915.638143 273.940344 
" clip-path="url(#p21b52863e1)" style="fill: none; stroke: #b52f8c; stroke-width: 2; stroke-linecap: square"/>
   </g>
   <g id="line2d_171">
    <path d="M 527.416714 216.402069 
L 528.972712 216.228723 
L 539.864696 214.479447 
L 549.978681 212.627649 
L 560.092666 210.541421 
L 569.428652 208.397499 
L 578.764639 206.038421 
L 588.100625 203.463354 
L 598.21461 200.435871 
L 608.328595 197.176324 
L 619.220579 193.437082 
L 632.44656 188.647436 
L 675.236497 172.905798 
L 684.572483 169.84617 
L 692.352472 167.524118 
L 699.354461 165.65376 
L 705.578452 164.195868 
L 711.802443 162.957143 
L 718.026434 161.963283 
L 723.472426 161.314798 
L 728.918418 160.890798 
L 734.36441 160.708432 
L 739.032403 160.757266 
L 743.700396 161.006471 
L 748.368389 161.466132 
L 753.036382 162.145868 
L 757.704375 163.054674 
L 762.372368 164.200717 
L 767.040362 165.591114 
L 771.708355 167.231666 
L 776.376348 169.126578 
L 781.044341 171.278152 
L 785.712334 173.686474 
L 790.380327 176.349115 
L 795.04832 179.26084 
L 799.716313 182.413376 
L 805.162305 186.380184 
L 810.608297 190.635061 
L 816.832288 195.811766 
L 823.834278 201.970838 
L 831.614267 209.125214 
L 844.840247 221.659531 
L 857.288229 233.348113 
L 865.068217 240.355495 
L 872.070207 246.357669 
L 878.294198 251.399701 
L 884.518189 256.133267 
L 889.964181 260.005818 
L 895.410173 263.618936 
L 900.856165 266.970295 
L 906.302157 270.062066 
L 911.748149 272.900187 
L 914.860144 274.411431 
L 915.638143 274.595421 
L 915.638143 274.595421 
" clip-path="url(#p21b52863e1)" style="fill: none; stroke: #de5f65; stroke-width: 2; stroke-linecap: square"/>
   </g>
   <g id="line2d_172">
    <path d="M 527.416714 224.769566 
L 532.084707 224.557738 
L 546.088687 223.718338 
L 558.536668 222.752146 
L 570.206651 221.621511 
L 581.098635 220.338463 
L 591.21262 218.924288 
L 600.548607 217.408781 
L 609.884593 215.675579 
L 619.220579 213.712445 
L 628.556565 211.512106 
L 637.892552 209.074203 
L 647.228538 206.407424 
L 657.342523 203.28355 
L 669.012506 199.431862 
L 687.684478 192.977654 
L 701.688458 188.229923 
L 711.024444 185.29913 
L 718.804433 183.101015 
L 725.028423 181.555936 
L 731.252414 180.243284 
L 736.698406 179.316713 
L 742.144398 178.625108 
L 746.812391 178.238938 
L 751.480384 178.060053 
L 756.148378 178.103264 
L 760.816371 178.382295 
L 765.484364 178.909499 
L 770.152357 179.695576 
L 774.82035 180.749258 
L 778.710344 181.836478 
L 783.378338 183.395662 
L 788.046331 185.233768 
L 792.714324 187.349123 
L 797.382317 189.736675 
L 802.05031 192.387816 
L 806.718303 195.290276 
L 812.164295 198.972651 
L 817.610287 202.943839 
L 823.834278 207.787647 
L 830.836268 213.548832 
L 839.394255 220.895133 
L 863.51222 241.792655 
L 870.514209 247.506846 
L 876.7382 252.337836 
L 882.962191 256.89703 
L 889.186182 261.158827 
L 894.632174 264.631528 
L 900.078166 267.859919 
L 905.524158 270.844076 
L 910.97015 273.588041 
L 914.860144 275.404879 
L 915.638143 275.580727 
L 915.638143 275.580727 
" clip-path="url(#p21b52863e1)" style="fill: none; stroke: #f89540; stroke-width: 2; stroke-linecap: square"/>
   </g>
   <g id="line2d_173">
    <path d="M 527.416714 230.052284 
L 538.308698 230.285387 
L 566.316657 230.769598 
L 585.766628 230.885116 
L 601.326605 230.757162 
L 614.552586 230.431783 
L 626.222569 229.93268 
L 637.114553 229.249813 
L 647.228538 228.398228 
L 656.564524 227.404494 
L 665.90051 226.195552 
L 675.236497 224.762407 
L 684.572483 223.105561 
L 694.686468 221.074419 
L 705.578452 218.658288 
L 725.028423 214.054069 
L 736.698406 211.413161 
L 744.478395 209.858371 
L 751.480384 208.685919 
L 757.704375 207.882202 
L 763.150367 207.40334 
L 768.596359 207.167451 
L 773.264352 207.181463 
L 777.932346 207.413195 
L 782.600339 207.877552 
L 787.268332 208.586697 
L 791.936325 209.549568 
L 796.604318 210.771436 
L 801.272311 212.253549 
L 805.940304 213.992885 
L 810.608297 215.982011 
L 815.276291 218.209099 
L 819.944284 220.658077 
L 825.390276 223.768782 
L 831.614267 227.611625 
L 838.616256 232.224366 
L 847.952242 238.683877 
L 868.958212 253.351241 
L 876.7382 258.467052 
L 883.74019 262.805905 
L 889.964181 266.415983 
L 896.188171 269.773976 
L 902.412162 272.869896 
L 908.636153 275.701404 
L 914.860144 278.272469 
L 915.638143 278.425185 
L 915.638143 278.425185 
" clip-path="url(#p21b52863e1)" style="fill: none; stroke: #fbd724; stroke-width: 2; stroke-linecap: square"/>
   </g>
   <g id="line2d_174">
    <path d="M 527.416714 124.8 
L 915.638143 124.8 
" clip-path="url(#p21b52863e1)" style="fill: none; stroke: #000000; stroke-width: 1.8; stroke-linecap: square"/>
   </g>
   <g id="line2d_175">
    <path d="M 527.416714 225.6 
L 915.638143 225.6 
" clip-path="url(#p21b52863e1)" style="fill: none; stroke-dasharray: 6.66,2.88; stroke-dashoffset: 0; stroke: #000000; stroke-width: 1.8"/>
   </g>
   <g id="patch_6">
    <path d="M 527.416714 297.6 
L 527.416714 38.4 
" style="fill: none; stroke: #000000; stroke-width: 0.8; stroke-linejoin: miter; stroke-linecap: square"/>
   </g>
   <g id="patch_7">
    <path d="M 527.416714 297.6 
L 915.638143 297.6 
" style="fill: none; stroke: #000000; stroke-width: 0.8; stroke-linejoin: miter; stroke-linecap: square"/>
   </g>
   <g id="text_38">
    <!-- $m_i=0.8$ -->
    <g transform="translate(538.762721 118.32) scale(0.14 -0.14)">
     <use xlink:href="#DejaVuSans-Oblique-6d" transform="translate(0 0.78125)"/>
     <use xlink:href="#DejaVuSans-Oblique-69" transform="translate(97.412109 -15.625) scale(0.7)"/>
     <use xlink:href="#DejaVuSans-3d" transform="translate(139.077148 0.78125)"/>
     <use xlink:href="#DejaVuSans-30" transform="translate(242.348633 0.78125)"/>
     <use xlink:href="#DejaVuSans-2e" transform="translate(305.97168 0.78125)"/>
     <use xlink:href="#DejaVuSans-38" transform="translate(335.133789 0.78125)"/>
    </g>
   </g>
   <g id="text_39">
    <!-- $m_\phi=0.333$ -->
    <g transform="translate(538.762721 219.12) scale(0.14 -0.14)">
     <use xlink:href="#DejaVuSans-Oblique-6d" transform="translate(0 0.78125)"/>
     <use xlink:href="#DejaVuSans-Oblique-3d5" transform="translate(97.412109 -15.625) scale(0.7)"/>
     <use xlink:href="#DejaVuSans-3d" transform="translate(165.805664 0.78125)"/>
     <use xlink:href="#DejaVuSans-30" transform="translate(269.077148 0.78125)"/>
     <use xlink:href="#DejaVuSans-2e" transform="translate(332.700195 0.78125)"/>
     <use xlink:href="#DejaVuSans-33" transform="translate(364.487305 0.78125)"/>
     <use xlink:href="#DejaVuSans-33" transform="translate(428.110352 0.78125)"/>
     <use xlink:href="#DejaVuSans-33" transform="translate(491.733398 0.78125)"/>
    </g>
   </g>
   <g id="text_40">
    <!-- $d\ln D_u/d\ln R$ -->
    <g transform="translate(519.652286 25.44) scale(0.24 -0.24)">
     <defs>
      <path id="DejaVuSans-Oblique-64" d="M 2675 525 
Q 2444 222 2128 65 
Q 1813 -91 1428 -91 
Q 903 -91 598 267 
Q 294 625 294 1247 
Q 294 1766 478 2236 
Q 663 2706 1013 3078 
Q 1244 3325 1534 3454 
Q 1825 3584 2144 3584 
Q 2481 3584 2739 3421 
Q 2997 3259 3138 2956 
L 3513 4863 
L 4091 4863 
L 3144 0 
L 2566 0 
L 2675 525 
z
M 891 1350 
Q 891 897 1095 644 
Q 1300 391 1663 391 
Q 1931 391 2161 520 
Q 2391 650 2566 903 
Q 2750 1166 2856 1509 
Q 2963 1853 2963 2188 
Q 2963 2622 2758 2865 
Q 2553 3109 2194 3109 
Q 1922 3109 1687 2981 
Q 1453 2853 1288 2613 
Q 1106 2353 998 2009 
Q 891 1666 891 1350 
z
" transform="scale(0.015625)"/>
      <path id="DejaVuSans-6c" d="M 603 4863 
L 1178 4863 
L 1178 0 
L 603 0 
L 603 4863 
z
" transform="scale(0.015625)"/>
      <path id="DejaVuSans-6e" d="M 3513 2113 
L 3513 0 
L 2938 0 
L 2938 2094 
Q 2938 2591 2744 2837 
Q 2550 3084 2163 3084 
Q 1697 3084 1428 2787 
Q 1159 2491 1159 1978 
L 1159 0 
L 581 0 
L 581 3500 
L 1159 3500 
L 1159 2956 
Q 1366 3272 1645 3428 
Q 1925 3584 2291 3584 
Q 2894 3584 3203 3211 
Q 3513 2838 3513 2113 
z
" transform="scale(0.015625)"/>
     </defs>
     <use xlink:href="#DejaVuSans-Oblique-64" transform="translate(0 0.015625)"/>
     <use xlink:href="#DejaVuSans-6c" transform="translate(63.476562 0.015625)"/>
     <use xlink:href="#DejaVuSans-6e" transform="translate(91.259766 0.015625)"/>
     <use xlink:href="#DejaVuSans-Oblique-44" transform="translate(170.874348 0.015625)"/>
     <use xlink:href="#DejaVuSans-Oblique-75" transform="translate(247.876301 -16.390625) scale(0.7)"/>
     <use xlink:href="#DejaVuSans-2f" transform="translate(294.975911 0.015625)"/>
     <use xlink:href="#DejaVuSans-Oblique-64" transform="translate(328.667317 0.015625)"/>
     <use xlink:href="#DejaVuSans-6c" transform="translate(392.143879 0.015625)"/>
     <use xlink:href="#DejaVuSans-6e" transform="translate(419.927083 0.015625)"/>
     <use xlink:href="#DejaVuSans-Oblique-52" transform="translate(499.541665 0.015625)"/>
    </g>
   </g>
   <g id="text_41">
    <!-- $R/r_i$ -->
    <g transform="translate(927.284786 302.784) scale(0.22 -0.22)">
     <use xlink:href="#DejaVuSans-Oblique-52" transform="translate(0 0.09375)"/>
     <use xlink:href="#DejaVuSans-2f" transform="translate(69.482422 0.09375)"/>
     <use xlink:href="#DejaVuSans-Oblique-72" transform="translate(103.173828 0.09375)"/>
     <use xlink:href="#DejaVuSans-Oblique-69" transform="translate(144.287109 -16.3125) scale(0.7)"/>
    </g>
   </g>
  </g>
 </g>
 <defs>
  <clipPath id="pf2f24603a3">
   <rect x="46.022143" y="38.4" width="388.221429" height="259.2"/>
  </clipPath>
  <clipPath id="p21b52863e1">
   <rect x="527.416714" y="38.4" width="388.221429" height="259.2"/>
  </clipPath>
 </defs>
</svg>
