<?xml version="1.0" encoding="UTF-8" standalone="no"?>
<svg
   width="610.56pt"
   height="394.56pt"
   viewBox="0 0 610.56 394.56"
   version="1.1"
   id="svg112"
   sodipodi:docname="spectrum_comparison.svg"
   inkscape:export-filename="spectrum_comparison2.png"
   inkscape:export-xdpi="300"
   inkscape:export-ydpi="300"
   xmlns:inkscape="http://www.inkscape.org/namespaces/inkscape"
   xmlns:sodipodi="http://sodipodi.sourceforge.net/DTD/sodipodi-0.dtd"
   xmlns:xlink="http://www.w3.org/1999/xlink"
   xmlns="http://www.w3.org/2000/svg"
   xmlns:svg="http://www.w3.org/2000/svg"
   xmlns:rdf="http://www.w3.org/1999/02/22-rdf-syntax-ns#"
   xmlns:cc="http://creativecommons.org/ns#"
   xmlns:dc="http://purl.org/dc/elements/1.1/">
  <sodipodi:namedview
     id="namedview112"
     pagecolor="#ffffff"
     bordercolor="#000000"
     borderopacity="0.25"
     inkscape:showpageshadow="2"
     inkscape:pageopacity="0.0"
     inkscape:pagecheckerboard="0"
     inkscape:deskcolor="#d1d1d1"
     inkscape:document-units="pt">
    <inkscape:page
       x="0"
       y="0"
       width="610.56"
       height="394.56"
       id="page2"
       margin="0"
       bleed="0" />
  </sodipodi:namedview>
  <metadata
     id="metadata1">
    <rdf:RDF>
      <cc:Work>
        <dc:type
           rdf:resource="http://purl.org/dc/dcmitype/StillImage" />
        <dc:date>2026-02-17T20:36:17.944249</dc:date>
        <dc:format>image/svg+xml</dc:format>
        <dc:creator>
          <cc:Agent>
            <dc:title>Matplotlib v3.8.4, https://matplotlib.org/</dc:title>
          </cc:Agent>
        </dc:creator>
      </cc:Work>
    </rdf:RDF>
  </metadata>
  <defs
     id="defs1">
    <style
       type="text/css"
       id="style1">*{stroke-linejoin: round; stroke-linecap: butt}</style>
    <path
       id="CMMI12-4d"
       d="m 5811,3886 c 58,217 71,281 525,281 122,0 179,0 179,121 0,64 -45,64 -166,64 h -768 c -160,0 -167,-6 -237,-109 L 3008,562 2528,4211 c -19,141 -26,141 -192,141 h -794 c -121,0 -179,0 -179,-121 0,-64 58,-64 154,-64 390,0 390,-51 390,-121 0,-12 0,-51 -25,-147 L 1062,634 C 986,327 838,186 410,186 390,186 314,186 314,73 314,0 371,0 397,0 525,0 851,0 979,0 h 307 c 90,0 199,0 288,0 45,0 116,0 116,122 0,58 -64,64 -90,64 -211,0 -416,38 -416,268 0,64 0,70 26,159 l 883,3516 h 6 L 2630,172 c 20,-153 26,-172 84,-172 70,0 102,51 134,109 l 2573,4052 h 6 L 4499,473 c -57,-223 -70,-287 -518,-287 -122,0 -186,0 -186,-116 0,-70 58,-70 96,-70 109,0 237,0 346,0 h 755 c 109,0 243,0 352,0 51,0 122,0 122,122 0,64 -58,64 -154,64 -390,0 -390,48 -390,108 0,7 0,51 12,102 z"
       transform="scale(0.015625)" />
    <path
       id="CMMI12-41"
       d="M 1088,691 C 864,314 646,186 339,186 269,180 218,180 218,58 218,24 250,0 294,0 c 116,0 404,0 519,0 185,0 390,0 569,0 39,0 116,0 116,122 0,58 -52,64 -90,64 -147,0 -269,50 -269,202 0,88 39,158 122,297 l 486,794 h 1632 c 7,-56 7,-106 13,-163 19,-164 96,-821 96,-940 0,-190 -326,-190 -429,-190 -70,0 -141,0 -141,-116 0,-70 58,-70 96,-70 109,0 237,0 346,0 h 365 c 390,0 672,0 678,0 45,0 115,0 115,122 0,64 -57,64 -153,64 -352,0 -359,58 -378,248 l -390,3970 c -13,127 -39,140 -109,140 -64,0 -102,-13 -160,-109 z m 768,973 1286,2155 218,-2155 z"
       transform="scale(0.015625)" />
    <path
       id="CMR17-3d"
       d="m 4115,2017 c 96,0 192,0 192,108 0,115 -109,115 -217,115 H 512 c -109,0 -218,0 -218,-115 0,-108 96,-108 192,-108 z M 4090,896 c 108,0 217,0 217,115 0,108 -96,108 -192,108 H 486 c -96,0 -192,0 -192,-108 0,-115 109,-115 218,-115 z"
       transform="scale(0.015625)" />
    <path
       id="CMMI12-3a"
       d="M 1178,307 C 1178,492 1024,619 870,619 685,619 557,466 557,313 557,128 710,0 864,0 c 186,0 314,153 314,307 z"
       transform="scale(0.015625)" />
    <path
       id="CMMI12-3b"
       d="M 1248,-31 C 1248,343 1126,619 864,619 659,619 557,453 557,313 557,172 653,0 870,0 c 84,0 154,26 212,83 12,13 19,13 25,13 13,0 13,-91 13,-123 0,-213 -38,-632 -410,-1053 -70,-77 -70,-90 -70,-103 0,-33 32,-65 64,-65 51,0 544,477 544,1217 z"
       transform="scale(0.015625)" />
    <path
       id="CMMI12-73"
       d="m 1459,1280 c 109,-19 282,-57 320,-64 83,-24 371,-126 371,-433 0,-197 -179,-713 -921,-713 -135,0 -615,0 -743,366 256,-32 384,167 384,309 0,135 -89,205 -217,205 -141,0 -327,-109 -327,-398 0,-379 384,-616 896,-616 973,0 1261,715 1261,1048 0,95 0,274 -205,478 -160,154 -313,186 -659,256 -173,38 -448,96 -448,383 0,128 115,588 723,588 269,0 532,-100 596,-321 -282,0 -295,-243 -295,-249 0,-135 122,-173 179,-173 90,0 269,69 269,335 0,264 -243,535 -742,535 -839,0 -1063,-656 -1063,-917 0,-485 474,-587 621,-619 z"
       transform="scale(0.015625)" />
    <path
       id="CMSY10-0"
       d="m 4218,1472 c 108,0 224,0 224,128 0,128 -116,128 -224,128 H 755 c -109,0 -224,0 -224,-128 0,-128 115,-128 224,-128 z"
       transform="scale(0.015625)" />
    <path
       id="CMMI12-3d"
       d="m 2746,4562 c 0,7 38,104 38,116 0,77 -64,122 -115,122 -32,0 -90,0 -141,-141 L 384,-1363 c 0,-7 -38,-102 -38,-115 0,-77 64,-122 115,-122 38,0 96,7 141,141 z"
       transform="scale(0.015625)" />
    <path
       id="CMR17-33"
       d="m 1414,2157 c 570,0 820,-495 820,-1067 C 2234,320 1824,25 1453,25 1114,25 563,194 390,693 c 32,-13 64,-13 96,-13 154,0 269,102 269,268 0,185 -141,268 -269,268 -108,0 -275,-51 -275,-290 0,-591 576,-1054 1255,-1054 710,0 1254,558 1254,1213 0,622 -512,1072 -1120,1142 486,101 954,529 954,1102 0,491 -506,850 -1082,850 -582,0 -1094,-350 -1094,-850 0,-219 166,-257 249,-257 135,0 250,83 250,249 0,165 -115,248 -250,248 -25,0 -57,0 -83,-12 186,402 691,475 915,475 224,0 647,-107 647,-712 0,-177 -26,-492 -244,-770 -192,-246 -409,-246 -620,-266 -32,0 -180,-15 -205,-15 -45,-6 -71,-12 -71,-61 0,-45 7,-51 135,-51 z"
       transform="scale(0.015625)" />
  </defs>
  <g
     id="figure_1">
    <g
       id="patch_1">
      <path
         d="M 0,394.56 H 610.56 V 0 H 0 Z"
         style="fill:#ffffff"
         id="path1" />
    </g>
    <g
       id="axes_1">
      <g
         id="patch_2">
        <path
           d="M 72.672514,323.81764 H 603.36 V 7.2 H 72.672514 Z"
           style="fill:#ffffff"
           id="path2" />
      </g>
      <g
         id="line2d_49"
         transform="matrix(0.42168923,0,0,0.42168923,265.82013,96.109707)">
        <path
           d="M 154.14476,-1 603.36,267.56631 v 0"
           clip-path="url(#p22f1af465e)"
           style="fill:none;stroke:#000000;stroke-width:8;stroke-dasharray:29.6, 12.8;stroke-dashoffset:0"
           id="path78" />
      </g>
      <g
         id="matplotlib.axis_1">
        <g
           id="xtick_1">
          <g
             id="line2d_1">
            <defs
               id="defs2">
              <path
                 id="mdd4c830f9e"
                 d="M 0,0 V -10"
                 style="stroke:#000000;stroke-width:2" />
            </defs>
            <g
               id="g2">
              <use
                 xlink:href="#mdd4c830f9e"
                 x="289.76352"
                 y="323.81763"
                 style="stroke:#000000;stroke-width:2"
                 id="use2" />
            </g>
          </g>
          <g
             id="line2d_2">
            <defs
               id="defs3">
              <path
                 id="mbaf2ee7a8e"
                 d="M 0,0 V 10"
                 style="stroke:#000000;stroke-width:2" />
            </defs>
            <g
               id="g3">
              <use
                 xlink:href="#mbaf2ee7a8e"
                 x="289.76352"
                 y="7.1999998"
                 style="stroke:#000000;stroke-width:2"
                 id="use3" />
            </g>
          </g>
          <g
             id="text_1">
            <!-- $\mathdefault{10^{1}}$ -->
            <g
               transform="matrix(0.24,0,0,-0.24,274.70074,343.92205)"
               id="g6">
              <defs
                 id="defs4">
                <path
                   id="CMR17-31"
                   d="m 1702,4058 c 0,134 -6,134 -96,134 -249,-276 -627,-365 -985,-365 -19,0 -51,0 -58,-19 -6,-13 -6,-26 -6,-160 198,0 531,38 787,191 V 461 C 1344,236 1331,160 781,160 H 589 V 0 c 307,0 627,0 934,0 307,0 627,0 935,0 v 160 h -192 c -551,0 -564,70 -564,298 z"
                   transform="scale(0.015625)" />
                <path
                   id="CMR17-30"
                   d="m 2688,2025 c 0,391 -6,1055 -275,1566 -237,448 -615,607 -947,607 -308,0 -698,-140 -941,-601 C 269,3118 243,2524 243,2025 c 0,-364 7,-919 205,-1406 275,-658 768,-747 1018,-747 294,0 742,121 1004,728 192,442 218,959 218,1425 z M 1466,-26 c -410,0 -653,351 -743,838 -70,376 -70,926 -70,1284 0,492 0,901 83,1291 122,542 480,709 730,709 262,0 601,-173 723,-696 83,-364 89,-793 89,-1304 0,-416 0,-927 -76,-1304 C 2067,95 1690,-26 1466,-26 Z"
                   transform="scale(0.015625)" />
              </defs>
              <use
                 xlink:href="#CMR17-31"
                 transform="scale(0.996264)"
                 id="use4" />
              <use
                 xlink:href="#CMR17-30"
                 transform="matrix(0.996264,0,0,0.996264,45.690477,0)"
                 id="use5" />
              <use
                 xlink:href="#CMR17-31"
                 transform="matrix(0.697382,0,0,0.697382,91.380954,36.153639)"
                 id="use6" />
            </g>
          </g>
        </g>
        <g
           id="xtick_2">
          <g
             id="line2d_3">
            <g
               id="g7">
              <use
                 xlink:href="#mdd4c830f9e"
                 x="512.55267"
                 y="323.81763"
                 style="stroke:#000000;stroke-width:2"
                 id="use7" />
            </g>
          </g>
          <g
             id="line2d_4">
            <g
               id="g8">
              <use
                 xlink:href="#mbaf2ee7a8e"
                 x="512.55267"
                 y="7.1999998"
                 style="stroke:#000000;stroke-width:2"
                 id="use8" />
            </g>
          </g>
          <g
             id="text_2">
            <!-- $\mathdefault{10^{2}}$ -->
            <g
               transform="matrix(0.24,0,0,-0.24,497.48986,343.92205)"
               id="g11">
              <defs
                 id="defs8">
                <path
                   id="CMR17-32"
                   d="M 2669,989 H 2554 C 2490,536 2438,459 2413,420 2381,369 1920,369 1830,369 H 602 c 230,250 678,703 1222,1228 390,370 845,805 845,1438 0,755 -602,1189 -1274,1189 -704,0 -1133,-620 -1133,-1194 0,-250 186,-282 263,-282 64,0 256,39 256,262 0,197 -167,254 -256,254 -39,0 -77,-6 -103,-19 122,545 493,813 884,813 556,0 921,-441 921,-1023 0,-556 -326,-1035 -691,-1451 L 262,146 V 0 h 2253 z"
                   transform="scale(0.015625)" />
              </defs>
              <use
                 xlink:href="#CMR17-31"
                 transform="scale(0.996264)"
                 id="use9" />
              <use
                 xlink:href="#CMR17-30"
                 transform="matrix(0.996264,0,0,0.996264,45.690477,0)"
                 id="use10" />
              <use
                 xlink:href="#CMR17-32"
                 transform="matrix(0.697382,0,0,0.697382,91.380954,36.153639)"
                 id="use11" />
            </g>
          </g>
        </g>
        <g
           id="xtick_3">
          <g
             id="line2d_5">
            <defs
               id="defs11">
              <path
                 id="m9654448ba2"
                 d="M 0,0 V -5"
                 style="stroke:#000000;stroke-width:1.5" />
            </defs>
            <g
               id="g12">
              <use
                 xlink:href="#m9654448ba2"
                 x="134.0406"
                 y="323.81763"
                 style="stroke:#000000;stroke-width:1.5"
                 id="use12" />
            </g>
          </g>
          <g
             id="line2d_6">
            <defs
               id="defs12">
              <path
                 id="m743139e9d5"
                 d="M 0,0 V 5"
                 style="stroke:#000000;stroke-width:1.5" />
            </defs>
            <g
               id="g13">
              <use
                 xlink:href="#m743139e9d5"
                 x="134.0406"
                 y="7.1999998"
                 style="stroke:#000000;stroke-width:1.5"
                 id="use13" />
            </g>
          </g>
        </g>
        <g
           id="xtick_4">
          <g
             id="line2d_7">
            <g
               id="g14">
              <use
                 xlink:href="#m9654448ba2"
                 x="173.27182"
                 y="323.81763"
                 style="stroke:#000000;stroke-width:1.5"
                 id="use14" />
            </g>
          </g>
          <g
             id="line2d_8">
            <g
               id="g15">
              <use
                 xlink:href="#m743139e9d5"
                 x="173.27182"
                 y="7.1999998"
                 style="stroke:#000000;stroke-width:1.5"
                 id="use15" />
            </g>
          </g>
        </g>
        <g
           id="xtick_5">
          <g
             id="line2d_9">
            <g
               id="g16">
              <use
                 xlink:href="#m9654448ba2"
                 x="201.10681"
                 y="323.81763"
                 style="stroke:#000000;stroke-width:1.5"
                 id="use16" />
            </g>
          </g>
          <g
             id="line2d_10">
            <g
               id="g17">
              <use
                 xlink:href="#m743139e9d5"
                 x="201.10681"
                 y="7.1999998"
                 style="stroke:#000000;stroke-width:1.5"
                 id="use17" />
            </g>
          </g>
        </g>
        <g
           id="xtick_6">
          <g
             id="line2d_11">
            <g
               id="g18">
              <use
                 xlink:href="#m9654448ba2"
                 x="222.69731"
                 y="323.81763"
                 style="stroke:#000000;stroke-width:1.5"
                 id="use18" />
            </g>
          </g>
          <g
             id="line2d_12">
            <g
               id="g19">
              <use
                 xlink:href="#m743139e9d5"
                 x="222.69731"
                 y="7.1999998"
                 style="stroke:#000000;stroke-width:1.5"
                 id="use19" />
            </g>
          </g>
        </g>
        <g
           id="xtick_7">
          <g
             id="line2d_13">
            <g
               id="g20">
              <use
                 xlink:href="#m9654448ba2"
                 x="240.33803"
                 y="323.81763"
                 style="stroke:#000000;stroke-width:1.5"
                 id="use20" />
            </g>
          </g>
          <g
             id="line2d_14">
            <g
               id="g21">
              <use
                 xlink:href="#m743139e9d5"
                 x="240.33803"
                 y="7.1999998"
                 style="stroke:#000000;stroke-width:1.5"
                 id="use21" />
            </g>
          </g>
        </g>
        <g
           id="xtick_8">
          <g
             id="line2d_15">
            <g
               id="g22">
              <use
                 xlink:href="#m9654448ba2"
                 x="255.25305"
                 y="323.81763"
                 style="stroke:#000000;stroke-width:1.5"
                 id="use22" />
            </g>
          </g>
          <g
             id="line2d_16">
            <g
               id="g23">
              <use
                 xlink:href="#m743139e9d5"
                 x="255.25305"
                 y="7.1999998"
                 style="stroke:#000000;stroke-width:1.5"
                 id="use23" />
            </g>
          </g>
        </g>
        <g
           id="xtick_9">
          <g
             id="line2d_17">
            <g
               id="g24">
              <use
                 xlink:href="#m9654448ba2"
                 x="268.17303"
                 y="323.81763"
                 style="stroke:#000000;stroke-width:1.5"
                 id="use24" />
            </g>
          </g>
          <g
             id="line2d_18">
            <g
               id="g25">
              <use
                 xlink:href="#m743139e9d5"
                 x="268.17303"
                 y="7.1999998"
                 style="stroke:#000000;stroke-width:1.5"
                 id="use25" />
            </g>
          </g>
        </g>
        <g
           id="xtick_10">
          <g
             id="line2d_19">
            <g
               id="g26">
              <use
                 xlink:href="#m9654448ba2"
                 x="279.56924"
                 y="323.81763"
                 style="stroke:#000000;stroke-width:1.5"
                 id="use26" />
            </g>
          </g>
          <g
             id="line2d_20">
            <g
               id="g27">
              <use
                 xlink:href="#m743139e9d5"
                 x="279.56924"
                 y="7.1999998"
                 style="stroke:#000000;stroke-width:1.5"
                 id="use27" />
            </g>
          </g>
        </g>
        <g
           id="xtick_11">
          <g
             id="line2d_21">
            <g
               id="g28">
              <use
                 xlink:href="#m9654448ba2"
                 x="356.82974"
                 y="323.81763"
                 style="stroke:#000000;stroke-width:1.5"
                 id="use28" />
            </g>
          </g>
          <g
             id="line2d_22">
            <g
               id="g29">
              <use
                 xlink:href="#m743139e9d5"
                 x="356.82974"
                 y="7.1999998"
                 style="stroke:#000000;stroke-width:1.5"
                 id="use29" />
            </g>
          </g>
        </g>
        <g
           id="xtick_12">
          <g
             id="line2d_23">
            <g
               id="g30">
              <use
                 xlink:href="#m9654448ba2"
                 x="396.06094"
                 y="323.81763"
                 style="stroke:#000000;stroke-width:1.5"
                 id="use30" />
            </g>
          </g>
          <g
             id="line2d_24">
            <g
               id="g31">
              <use
                 xlink:href="#m743139e9d5"
                 x="396.06094"
                 y="7.1999998"
                 style="stroke:#000000;stroke-width:1.5"
                 id="use31" />
            </g>
          </g>
        </g>
        <g
           id="xtick_13">
          <g
             id="line2d_25">
            <g
               id="g32">
              <use
                 xlink:href="#m9654448ba2"
                 x="423.89594"
                 y="323.81763"
                 style="stroke:#000000;stroke-width:1.5"
                 id="use32" />
            </g>
          </g>
          <g
             id="line2d_26">
            <g
               id="g33">
              <use
                 xlink:href="#m743139e9d5"
                 x="423.89594"
                 y="7.1999998"
                 style="stroke:#000000;stroke-width:1.5"
                 id="use33" />
            </g>
          </g>
        </g>
        <g
           id="xtick_14">
          <g
             id="line2d_27">
            <g
               id="g34">
              <use
                 xlink:href="#m9654448ba2"
                 x="445.48645"
                 y="323.81763"
                 style="stroke:#000000;stroke-width:1.5"
                 id="use34" />
            </g>
          </g>
          <g
             id="line2d_28">
            <g
               id="g35">
              <use
                 xlink:href="#m743139e9d5"
                 x="445.48645"
                 y="7.1999998"
                 style="stroke:#000000;stroke-width:1.5"
                 id="use35" />
            </g>
          </g>
        </g>
        <g
           id="xtick_15">
          <g
             id="line2d_29">
            <g
               id="g36">
              <use
                 xlink:href="#m9654448ba2"
                 x="463.12717"
                 y="323.81763"
                 style="stroke:#000000;stroke-width:1.5"
                 id="use36" />
            </g>
          </g>
          <g
             id="line2d_30">
            <g
               id="g37">
              <use
                 xlink:href="#m743139e9d5"
                 x="463.12717"
                 y="7.1999998"
                 style="stroke:#000000;stroke-width:1.5"
                 id="use37" />
            </g>
          </g>
        </g>
        <g
           id="xtick_16">
          <g
             id="line2d_31">
            <g
               id="g38">
              <use
                 xlink:href="#m9654448ba2"
                 x="478.04218"
                 y="323.81763"
                 style="stroke:#000000;stroke-width:1.5"
                 id="use38" />
            </g>
          </g>
          <g
             id="line2d_32">
            <g
               id="g39">
              <use
                 xlink:href="#m743139e9d5"
                 x="478.04218"
                 y="7.1999998"
                 style="stroke:#000000;stroke-width:1.5"
                 id="use39" />
            </g>
          </g>
        </g>
        <g
           id="xtick_17">
          <g
             id="line2d_33">
            <g
               id="g40">
              <use
                 xlink:href="#m9654448ba2"
                 x="490.96216"
                 y="323.81763"
                 style="stroke:#000000;stroke-width:1.5"
                 id="use40" />
            </g>
          </g>
          <g
             id="line2d_34">
            <g
               id="g41">
              <use
                 xlink:href="#m743139e9d5"
                 x="490.96216"
                 y="7.1999998"
                 style="stroke:#000000;stroke-width:1.5"
                 id="use41" />
            </g>
          </g>
        </g>
        <g
           id="xtick_18">
          <g
             id="line2d_35">
            <g
               id="g42">
              <use
                 xlink:href="#m9654448ba2"
                 x="502.35837"
                 y="323.81763"
                 style="stroke:#000000;stroke-width:1.5"
                 id="use42" />
            </g>
          </g>
          <g
             id="line2d_36">
            <g
               id="g43">
              <use
                 xlink:href="#m743139e9d5"
                 x="502.35837"
                 y="7.1999998"
                 style="stroke:#000000;stroke-width:1.5"
                 id="use43" />
            </g>
          </g>
        </g>
        <g
           id="xtick_19">
          <g
             id="line2d_37">
            <g
               id="g44">
              <use
                 xlink:href="#m9654448ba2"
                 x="579.61884"
                 y="323.81763"
                 style="stroke:#000000;stroke-width:1.5"
                 id="use44" />
            </g>
          </g>
          <g
             id="line2d_38">
            <g
               id="g45">
              <use
                 xlink:href="#m743139e9d5"
                 x="579.61884"
                 y="7.1999998"
                 style="stroke:#000000;stroke-width:1.5"
                 id="use45" />
            </g>
          </g>
        </g>
        <g
           id="text_3">
          <!-- $\frac{k L_{\rm box}}{\pi}$ -->
          <g
             transform="matrix(0.44332195,0,0,-0.44332195,304.65137,376.51566)"
             id="g51">
            <defs
               id="defs45">
              <path
                 id="CMMI12-6b"
                 d="m 1798,4257 c 7,26 20,64 20,95 0,64 -64,64 -77,64 -7,0 -237,-23 -352,-39 -109,0 -205,-19 -320,-19 -154,-13 -199,-19 -199,-134 0,-64 64,-64 128,-64 327,0 327,-57 327,-120 0,-25 0,-38 -32,-152 L 378,248 C 352,152 352,140 352,101 352,-38 461,-64 525,-64 704,-64 742,77 794,275 l 300,1194 c 461,-51 736,-243 736,-549 0,-39 0,-64 -19,-160 -25,-96 -25,-172 -25,-204 0,-371 243,-620 569,-620 295,0 448,268 499,358 135,236 218,594 218,619 0,32 -26,58 -64,58 -58,0 -64,-26 -90,-128 -89,-332 -224,-779 -550,-779 -128,0 -211,64 -211,306 0,122 25,262 51,358 26,115 26,121 26,198 0,377 -340,588 -928,664 230,141 460,390 550,486 365,408 614,613 909,613 147,0 185,-39 230,-77 -237,-26 -326,-192 -326,-319 0,-154 121,-205 211,-205 173,0 326,147 326,352 0,185 -147,376 -435,376 -352,0 -640,-249 -1094,-760 -64,-76 -301,-319 -538,-408 z"
                 transform="scale(0.015625)" />
              <path
                 id="CMMI12-4c"
                 d="m 2349,3861 c 57,242 77,306 640,306 173,0 217,0 217,121 0,64 -70,64 -96,64 -128,0 -275,0 -403,0 h -857 c -122,0 -263,0 -384,0 -52,0 -122,0 -122,-121 0,-64 58,-64 154,-64 390,0 390,-51 390,-121 0,-12 0,-51 -26,-147 L 998,472 C 941,249 928,185 480,185 358,185 294,185 294,70 294,0 333,0 461,0 h 2867 c 141,0 147,6 192,121 l 493,1357 c 13,32 25,70 25,89 0,38 -32,64 -64,64 -6,0 -38,0 -51,-26 -13,-6 -13,-19 -64,-140 C 3654,905 3366,185 2285,185 h -615 c -89,0 -102,0 -140,7 -71,6 -77,19 -77,70 0,45 13,83 25,139 z"
                 transform="scale(0.015625)" />
              <path
                 id="CMR17-62"
                 d="m 960,4396 -762,-70 v -166 c 378,0 436,-38 436,-343 V -13 h 115 l 185,454 c 186,-300 461,-505 832,-505 640,0 1287,564 1287,1434 0,818 -576,1420 -1223,1420 -396,0 -678,-211 -870,-460 z m 13,-2392 c 0,114 0,134 89,268 250,385 608,416 730,416 192,0 851,-103 851,-1312 C 2643,108 1888,38 1734,38 c -198,0 -486,76 -691,448 -70,122 -70,135 -70,249 z"
                 transform="scale(0.015625)" />
              <path
                 id="CMR17-6f"
                 d="m 2758,1356 c 0,820 -595,1460 -1292,1460 C 768,2816 173,2176 173,1356 173,551 768,-64 1466,-64 c 697,0 1292,615 1292,1420 z M 1466,51 c -301,0 -557,179 -704,429 -160,287 -180,646 -180,928 0,269 13,602 180,890 128,211 377,416 704,416 288,0 531,-160 684,-384 199,-301 199,-723 199,-922 0,-250 -13,-633 -186,-941 C 1984,173 1709,51 1466,51 Z"
                 transform="scale(0.015625)" />
              <path
                 id="CMR17-78"
                 d="m 1664,1477 c 192,249 410,529 589,739 211,242 454,344 736,344 v 166 c -109,0 -333,0 -448,0 -173,0 -371,0 -519,6 v -166 c 90,-13 141,-77 141,-166 0,-115 -64,-185 -96,-229 l -473,-598 -564,733 c -57,70 -57,82 -57,114 0,77 64,140 173,140 v 172 c -154,-6 -429,-6 -589,-6 -173,0 -378,0 -519,6 v -172 c 346,0 423,-26 576,-217 l 736,-948 c 13,-13 45,-51 45,-70 C 1395,1299 838,619 768,530 480,185 179,160 6,160 V 0 c 109,0 333,0 448,0 128,0 410,0 525,-6 v 166 c -38,6 -141,19 -141,165 0,115 52,185 109,261 l 531,650 557,-724 c 51,-70 128,-166 128,-211 0,-90 -77,-141 -179,-141 V -6 c 154,6 429,6 589,6 173,0 377,0 518,-6 v 166 c -320,0 -416,12 -569,210 z"
                 transform="scale(0.015625)" />
              <path
                 id="CMMI12-19"
                 d="m 1658,2408 h 723 C 2208,1692 2099,1226 2099,716 c 0,-90 0,-780 263,-780 134,0 249,121 249,230 0,31 0,44 -45,140 -172,441 -172,990 -172,1035 0,38 0,491 134,1067 h 717 c 83,0 294,0 294,204 0,140 -121,140 -237,140 H 1197 c -147,0 -365,0 -659,-312 -167,-186 -372,-524 -372,-562 0,-38 32,-51 71,-51 45,0 51,19 83,57 333,524 666,524 826,524 h 364 C 1370,1929 1210,1373 685,256 634,154 634,140 634,102 634,-32 749,-64 806,-64 c 186,0 237,166 314,434 102,326 102,339 166,594 z"
                 transform="scale(0.015625)" />
            </defs>
            <use
               xlink:href="#CMMI12-6b"
               transform="matrix(0.697382,0,0,0.697382,0,41.455641)"
               id="use46" />
            <use
               xlink:href="#CMMI12-4c"
               transform="matrix(0.697382,0,0,0.697382,37.85525,41.455641)"
               id="use47" />
            <use
               xlink:href="#CMR17-62"
               transform="matrix(0.498132,0,0,0.498132,84.314664,30.884032)"
               id="use48" />
            <use
               xlink:href="#CMR17-6f"
               transform="matrix(0.498132,0,0,0.498132,111.06355,30.884032)"
               id="use49" />
            <use
               xlink:href="#CMR17-78"
               transform="matrix(0.498132,0,0,0.498132,132.60756,30.884032)"
               id="use50" />
            <use
               xlink:href="#CMMI12-19"
               transform="matrix(0.697382,0,0,0.697382,58.007463,-34.355253)"
               id="use51" />
            <path
               d="m 0,22.914133 h 157.25215 v 3.98495 H 0 Z"
               id="path51" />
          </g>
        </g>
      </g>
      <g
         id="matplotlib.axis_2">
        <g
           id="ytick_1">
          <g
             id="line2d_39">
            <defs
               id="defs51">
              <path
                 id="m8045078cbb"
                 d="M 0,0 H 10"
                 style="stroke:#000000;stroke-width:2" />
            </defs>
            <g
               id="g52">
              <use
                 xlink:href="#m8045078cbb"
                 x="72.672516"
                 y="277.23703"
                 style="stroke:#000000;stroke-width:2"
                 id="use52" />
            </g>
          </g>
          <g
             id="line2d_40">
            <defs
               id="defs52">
              <path
                 id="m93d23bcd3a"
                 d="M 0,0 H -10"
                 style="stroke:#000000;stroke-width:2" />
            </defs>
            <g
               id="g53">
              <use
                 xlink:href="#m93d23bcd3a"
                 x="603.35999"
                 y="277.23703"
                 style="stroke:#000000;stroke-width:2"
                 id="use53" />
            </g>
          </g>
          <g
             id="text_4">
            <!-- $\mathdefault{10^{2}}$ -->
            <g
               transform="matrix(0.24,0,0,-0.24,39.046944,285.53923)"
               id="g56">
              <use
                 xlink:href="#CMR17-31"
                 transform="scale(0.996264)"
                 id="use54" />
              <use
                 xlink:href="#CMR17-30"
                 transform="matrix(0.996264,0,0,0.996264,45.690477,0)"
                 id="use55" />
              <use
                 xlink:href="#CMR17-32"
                 transform="matrix(0.697382,0,0,0.697382,91.380954,36.153639)"
                 id="use56" />
            </g>
          </g>
        </g>
        <g
           id="ytick_2">
          <g
             id="line2d_41">
            <g
               id="g57">
              <use
                 xlink:href="#m8045078cbb"
                 x="72.672516"
                 y="204.58469"
                 style="stroke:#000000;stroke-width:2"
                 id="use57" />
            </g>
          </g>
          <g
             id="line2d_42">
            <g
               id="g58">
              <use
                 xlink:href="#m93d23bcd3a"
                 x="603.35999"
                 y="204.58469"
                 style="stroke:#000000;stroke-width:2"
                 id="use58" />
            </g>
          </g>
          <g
             id="text_5">
            <!-- $\mathdefault{10^{4}}$ -->
            <g
               transform="matrix(0.24,0,0,-0.24,39.046944,212.88689)"
               id="g61">
              <defs
                 id="defs58">
                <path
                   id="CMR17-34"
                   d="m 2150,4122 c 0,134 -6,134 -121,134 L 128,1254 V 1088 H 1779 V 457 c 0,-233 -13,-297 -461,-297 H 1197 V 0 c 205,0 550,0 768,0 217,0 563,0 768,0 v 160 h -122 c -448,0 -461,64 -461,297 v 631 h 653 v 166 H 2150 Z M 1798,3703 V 1254 H 256 Z"
                   transform="scale(0.015625)" />
              </defs>
              <use
                 xlink:href="#CMR17-31"
                 transform="scale(0.996264)"
                 id="use59" />
              <use
                 xlink:href="#CMR17-30"
                 transform="matrix(0.996264,0,0,0.996264,45.690477,0)"
                 id="use60" />
              <use
                 xlink:href="#CMR17-34"
                 transform="matrix(0.697382,0,0,0.697382,91.380954,36.153639)"
                 id="use61" />
            </g>
          </g>
        </g>
        <g
           id="ytick_3">
          <g
             id="line2d_43">
            <g
               id="g62">
              <use
                 xlink:href="#m8045078cbb"
                 x="72.672516"
                 y="131.93234"
                 style="stroke:#000000;stroke-width:2"
                 id="use62" />
            </g>
          </g>
          <g
             id="line2d_44">
            <g
               id="g63">
              <use
                 xlink:href="#m93d23bcd3a"
                 x="603.35999"
                 y="131.93234"
                 style="stroke:#000000;stroke-width:2"
                 id="use63" />
            </g>
          </g>
          <g
             id="text_6">
            <!-- $\mathdefault{10^{6}}$ -->
            <g
               transform="matrix(0.24,0,0,-0.24,39.046944,140.23455)"
               id="g66">
              <defs
                 id="defs63">
                <path
                   id="CMR17-36"
                   d="m 678,2176 c 0,1514 717,1856 1133,1856 135,0 461,-23 589,-256 -102,0 -294,0 -294,-223 0,-172 140,-230 230,-230 58,0 230,25 230,237 0,394 -320,619 -761,619 -762,0 -1562,-789 -1562,-2195 0,-1731 723,-2112 1235,-2112 621,0 1210,555 1210,1411 0,798 -518,1379 -1171,1379 -391,0 -679,-255 -839,-702 z M 1478,25 c -787,0 -787,1175 -787,1411 0,460 218,1124 813,1124 109,0 422,0 634,-440 115,-250 115,-511 115,-831 0,-345 0,-599 -135,-855 C 1978,171 1773,25 1478,25 Z"
                   transform="scale(0.015625)" />
              </defs>
              <use
                 xlink:href="#CMR17-31"
                 transform="scale(0.996264)"
                 id="use64" />
              <use
                 xlink:href="#CMR17-30"
                 transform="matrix(0.996264,0,0,0.996264,45.690477,0)"
                 id="use65" />
              <use
                 xlink:href="#CMR17-36"
                 transform="matrix(0.697382,0,0,0.697382,91.380954,36.153639)"
                 id="use66" />
            </g>
          </g>
        </g>
        <g
           id="ytick_4">
          <g
             id="line2d_45">
            <g
               id="g67">
              <use
                 xlink:href="#m8045078cbb"
                 x="72.672516"
                 y="59.280006"
                 style="stroke:#000000;stroke-width:2"
                 id="use67" />
            </g>
          </g>
          <g
             id="line2d_46">
            <g
               id="g68">
              <use
                 xlink:href="#m93d23bcd3a"
                 x="603.35999"
                 y="59.280006"
                 style="stroke:#000000;stroke-width:2"
                 id="use68" />
            </g>
          </g>
          <g
             id="text_7">
            <!-- $\mathdefault{10^{8}}$ -->
            <g
               transform="matrix(0.24,0,0,-0.24,39.046944,67.582208)"
               id="g71">
              <defs
                 id="defs68">
                <path
                   id="CMR17-38"
                   d="m 1741,2264 c 403,203 813,509 813,999 0,578 -564,916 -1082,916 -582,0 -1094,-420 -1094,-999 0,-159 38,-433 288,-675 64,-63 332,-254 505,-375 C 883,1983 211,1634 211,934 211,279 838,-128 1459,-128 c 685,0 1261,490 1261,1138 0,580 -390,847 -646,1019 z m -839,558 c -51,32 -307,229 -307,529 0,388 403,681 864,681 506,0 877,-356 877,-770 0,-593 -666,-931 -698,-931 -6,0 -12,0 -64,39 z M 2080,1519 c 96,-70 403,-279 403,-668 C 2483,381 2010,25 1472,25 890,25 448,438 448,940 c 0,503 390,922 832,1120 z"
                   transform="scale(0.015625)" />
              </defs>
              <use
                 xlink:href="#CMR17-31"
                 transform="scale(0.996264)"
                 id="use69" />
              <use
                 xlink:href="#CMR17-30"
                 transform="matrix(0.996264,0,0,0.996264,45.690477,0)"
                 id="use70" />
              <use
                 xlink:href="#CMR17-38"
                 transform="matrix(0.697382,0,0,0.697382,91.380954,36.153639)"
                 id="use71" />
            </g>
          </g>
        </g>
        <g
           id="text_8"
           transform="matrix(1.407548,0,0,1.407548,-7.7016,-66.215572)">
          <!-- $P_u(k)$ -->
          <g
             transform="matrix(0,-0.28,-0.28,0,28.096431,197.45135)"
             id="g76">
            <defs
               id="defs71">
              <path
                 id="CMMI12-50"
                 d="m 1894,2023 h 1076 c 883,0 1766,650 1766,1378 0,497 -422,951 -1229,951 H 1530 c -122,0 -180,0 -180,-121 0,-64 58,-64 154,-64 390,0 390,-51 390,-121 0,-12 0,-51 -25,-147 L 1005,472 C 947,249 934,185 486,185 365,185 301,185 301,70 301,0 358,0 397,0 518,0 646,0 768,0 h 749 c 121,0 256,0 377,0 52,0 122,0 122,121 0,64 -58,64 -154,64 -384,0 -390,45 -390,108 0,32 6,76 13,108 z m 461,1907 c 58,237 83,237 333,237 h 634 c 480,0 876,-154 876,-632 0,-166 -83,-708 -377,-1001 -109,-115 -416,-358 -999,-358 h -902 z"
                 transform="scale(0.015625)" />
              <path
                 id="CMMI12-75"
                 d="m 2182,370 c 84,-357 391,-434 544,-434 205,0 359,134 461,351 109,230 192,607 192,626 0,32 -25,58 -64,58 -57,0 -64,-32 -89,-128 C 3110,402 2995,64 2739,64 c -192,0 -192,211 -192,294 0,147 19,210 83,479 45,172 90,344 128,523 l 263,1041 c 45,160 45,173 45,192 0,96 -77,160 -173,160 -186,0 -231,-160 -269,-320 -64,-249 -410,-1622 -454,-1845 -7,0 -256,-524 -724,-524 -332,0 -396,287 -396,524 0,364 179,874 345,1302 77,205 109,288 109,415 0,275 -198,511 -506,511 -588,0 -825,-926 -825,-977 0,-25 25,-57 70,-57 58,0 64,25 90,114 153,545 403,786 646,786 64,0 167,0 167,-204 0,-166 -71,-351 -167,-594 C 698,1124 666,881 666,690 c 0,-652 492,-754 755,-754 409,0 633,281 761,434 z"
                 transform="scale(0.015625)" />
              <path
                 id="CMR17-28"
                 d="m 1958,-1561 c 0,6 0,19 -19,38 -294,299 -1081,1116 -1081,3104 0,1988 774,2798 1088,3116 0,7 12,20 12,39 0,19 -19,32 -44,32 -71,0 -615,-472 -928,-1174 C 666,2887 576,2199 576,1588 c 0,-460 45,-1237 429,-2059 307,-664 832,-1129 909,-1129 32,0 44,13 44,39 z"
                 transform="scale(0.015625)" />
              <path
                 id="CMR17-29"
                 d="m 1683,1581 c 0,459 -45,1236 -429,2058 -307,664 -832,1129 -908,1129 -20,0 -45,-7 -45,-39 0,-12 6,-19 13,-32 307,-319 1088,-1129 1088,-3113 0,-1991 -775,-2801 -1088,-3121 -7,-12 -13,-19 -13,-31 0,-32 25,-32 45,-32 70,0 614,472 928,1174 320,707 409,1395 409,2007 z"
                 transform="scale(0.015625)" />
            </defs>
            <use
               xlink:href="#CMMI12-50"
               transform="scale(0.996264)"
               id="use72" />
            <use
               xlink:href="#CMMI12-75"
               transform="matrix(0.697382,0,0,0.697382,62.877232,-14.943915)"
               id="use73" />
            <use
               xlink:href="#CMR17-28"
               transform="matrix(0.996264,0,0,0.996264,102.23942,0)"
               id="use74" />
            <use
               xlink:href="#CMMI12-6b"
               transform="matrix(0.996264,0,0,0.996264,137.52019,0)"
               id="use75" />
            <use
               xlink:href="#CMR17-29"
               transform="matrix(0.996264,0,0,0.996264,191.59939,0)"
               id="use76" />
          </g>
        </g>
      </g>
      <g
         id="line2d_47">
        <path
           d="m 72.672514,7.2 49.425486,10.309819 32.55574,19.309688 24.3162,9.943347 19.41611,15.258975 16.1635,1.345999 13.84588,3.326557 12.11029,6.419959 10.76176,4.019385 9.68368,0.0023 8.80208,7.481428 8.06768,1.262833 7.44644,2.551935 6.9141,4.963268 6.45279,3.312269 6.04923,3.900868 5.69317,0.69416 5.37672,5.02884 5.09361,0.15645 4.83881,7.78531 4.6083,-1.93007 4.39876,2.72396 4.20745,1.87838 7.90285,1.30058 3.72185,4.66181 3.58396,-2.49958 3.45595,-0.92151 3.33674,9.3074 3.22551,3.24738 3.12143,-0.32174 3.02387,1.49127 2.93223,0.65205 2.84597,0.43795 2.76465,1.12138 2.68784,3.78719 2.61519,-2.04376 2.54636,1.38749 2.48106,0.84869 2.41903,3.36285 2.36002,0.66334 2.30383,0.27897 2.25024,1.41971 2.1991,2.67549 2.15022,-2.86041 2.10348,2.60099 2.05871,1.23546 2.01583,-0.26131 1.97468,6.62148 1.93519,-2.72031 1.89724,3.46825 1.86075,-2.64842 1.82564,2.29344 1.79183,2.9823 1.75925,-0.0969 1.72783,0.19373 1.69752,3.29144 1.66825,-0.40856 1.63997,3.33474 1.61264,1.79954 3.14682,1.43237 1.53584,1.54494 1.51185,-3.80858 1.48858,6.88724 1.46603,-0.57005 1.44415,0.29084 1.42291,2.48397 1.40228,-0.90624 1.38226,3.05284 1.36278,-0.82629 1.34386,0.69996 1.32544,3.28221 1.30754,-0.40171 2.56322,0.81955 1.25659,0.82486 1.24048,-1.18217 1.22478,3.49432 1.20947,0.84385 1.19453,1.94722 1.17997,-1.34372 1.16575,1.738 1.15187,-0.93575 1.13832,2.6546 1.12508,-0.95643 1.11216,-0.51013 1.09951,2.94703 1.08716,-2.80429 1.07508,1.18825 1.06326,3.98017 1.05171,-0.80118 1.0404,2.34907 1.02933,-1.10245 1.01849,4.52477 1.00788,-3.67575 0.9975,3.3263 0.98731,1.96858 0.97735,-0.88807 0.96757,1.84984 0.95798,-0.48704 1.88799,3.24025 0.93035,-1.11833 0.9215,2.87373 0.9128,-1.26296 0.90427,2.00138 0.89589,1.31598 0.88768,-0.4988 0.8796,0.84313 0.87169,1.57809 0.8639,2.5994 0.85625,-3.95257 0.84874,4.86266 0.84137,0.55793 0.83411,-1.53773 1.64695,3.15149 0.81308,-1.19469 0.8063,2.12978 0.79965,0.39348 0.79308,1.22375 0.78664,0.50581 0.7803,0.84835 0.77405,-0.0965 0.76791,-1.14368 0.76186,1.45839 0.75591,0.4143 0.75005,2.41631 0.74429,0.22777 0.73859,0.54104 0.73301,0.9549 0.72749,0.48495 0.72207,1.65415 0.71671,-0.76019 0.71145,1.93444 0.70625,-0.66787 0.70113,1.0764 0.69609,2.55957 0.69112,-0.49091 1.3676,0.3607 0.67662,0.99184 0.67192,-0.4454 0.66728,1.10403 0.66272,-0.74895 0.65821,0.4945 0.65376,3.44563 0.64937,0.0743 0.64504,-0.65124 0.64077,3.61031 0.63656,-0.11459 0.63239,-0.37878 0.62829,1.55391 1.24447,0.17145 0.61628,1.46744 0.61239,0.0991 0.60853,0.34572 0.60472,-0.47752 0.60098,1.93172 0.59726,-0.35199 0.59359,1.34428 0.58998,0.10451 0.5864,1.30821 0.58287,0.80407 0.57938,0.48857 0.57594,-0.67722 0.57252,1.68184 0.56915,-0.1068 1.12837,1.80564 0.55928,-0.75759 1.10897,2.33508 0.54975,1.00427 0.54664,0.36042 0.54358,0.53029 0.54054,-1.06919 0.53753,2.99084 0.53457,-1.47474 0.53163,2.83135 0.52872,0.64767 0.52585,1.04083 0.52301,-1.17807 0.52019,0.8739 0.51742,0.0285 0.51466,0.719 0.51193,1.95685 0.50925,-0.35532 0.50658,0.73719 0.50393,-0.64412 0.50133,0.72918 0.49875,3.18624 0.49618,-1.43356 0.49366,-0.28611 0.49115,1.59753 0.48866,1.00152 0.48622,-0.29957 0.48378,0.51686 0.48137,2.39906 0.47899,-1.2269 0.47664,0.56935 1.41596,2.46381 0.46743,-0.10337 0.46517,0.45713 0.46295,-0.0165 0.46074,1.4944 0.45856,0.29124 0.4564,0.11518 0.45426,-0.0636 0.45213,2.10946 0.45003,0.82555 0.44794,-0.87928 0.44588,0.52274 0.44384,-0.56396 0.44181,0.631 0.4398,1.64378 0.43781,-0.64521 0.43584,1.39538 0.43389,0.36055 0.43194,-1.13642 0.43003,1.30499 0.42812,0.40521 0.42624,1.992 0.42437,1.24285 0.42252,0.43364 0.42068,-1.57958 0.83591,0.34057 0.41526,-1.04493 0.41349,3.82459 0.41173,-0.88195 0.40998,-0.49048 0.40826,1.80068 0.40654,0.0327 0.40483,1.60051 0.40316,0.13199 0.40147,-0.46219 0.39982,1.922 0.79472,-0.0793 0.39492,-0.22187 0.39332,1.6837 0.39172,-0.28321 0.39015,0.34777 0.38858,-0.21268 0.38703,1.60195 0.38548,-0.28822 0.38395,1.15914 0.76337,0.60869 0.37943,1.60247 0.37796,-1.67555 0.37648,2.23928 0.7486,1.3938 0.37214,0.28611 0.37071,-0.11091 0.3693,2.49082 0.3679,-0.30411 0.3665,-1.1615 0.72886,2.17233 0.36238,0.004 0.36103,0.97166 0.35969,-0.21646 0.35836,0.60634 0.35703,1.10055 0.35572,-1.0585 0.35442,2.00326 0.35313,-1.6994 0.7024,0.99415 0.3493,1.36862 0.34805,0.55243 0.34679,-0.10697 0.68989,0.30908 0.34311,0.80522 0.34189,0.43415 0.34069,0.17116 0.3395,-0.5779 0.33831,0.20508 0.33713,1.70765 0.33595,-0.33964 0.3348,0.36094 0.33364,-0.0528 0.3325,0.4525 0.33135,0.93577 0.33023,-0.21517 0.3291,0.0316 0.32799,0.91269 0.65266,-0.14379 0.64828,1.96511 0.32252,0.25914 0.32145,0.42015 0.32039,-0.15506 0.31932,1.22893 0.31828,0.34226 0.31723,1.27784 0.3162,-0.089 0.31517,-1.59316 0.31414,1.02698 0.31313,0.18644 0.31211,1.73718 0.31112,-1.49717 0.31011,0.69468 0.30913,-0.22105 0.30814,0.45419 0.61335,1.40602 0.30523,1.44218 0.60757,-0.5941 0.30237,1.18283 0.30142,-1.3959 0.30048,1.11543 0.29956,-0.46108 0.29863,1.12971 0.29771,0.3635 0.29679,-0.87143 0.2959,0.0999 0.58908,1.29251 0.2932,1.33657 0.29231,-1.24781 0.29143,-0.009 0.29056,0.13202 0.28969,0.61325 0.28883,-0.62225 0.28796,0.9144 0.28711,1.7578 0.28626,-2.41388 0.85374,2.34173 0.28291,-1.5909 0.28209,0.002 0.28127,2.747 0.28045,-1.43035 0.27964,-2.12987 0.27884,2.08616 0.27803,0.54524 0.27724,1.85329 0.27645,-2.83232 0.27566,1.76894 0.27487,-0.40866 0.2741,1.38911 0.27332,0.81115 0.27255,-1.42755 0.27179,1.21519 0.27103,-1.00308 0.27026,1.19912 0.26952,-1.68787 0.26877,2.49733 0.26802,1.17574 v 0"
           clip-path="url(#p22f1af465e)"
           style="fill:none;stroke:#0000ff;stroke-width:2.5;stroke-linecap:square"
           id="path76" />
      </g>
      <g
         id="line2d_48">
        <path
           d="m 72.672514,17.322918 49.425486,6.440647 32.55574,29.486347 24.3162,7.207622 19.41611,2.79783 30.00938,4.672166 12.11029,2.146376 10.76176,3.634871 9.68368,1.372237 8.80208,3.73988 8.06768,6.515118 7.44644,0.242459 6.9141,0.992146 6.45279,1.121529 6.04923,4.367905 16.1635,4.039439 4.83881,1.91989 4.6083,-0.244383 4.39876,2.156838 4.20745,0.109625 4.03209,1.71467 3.87076,2.57582 3.72185,-0.35346 3.58396,0.98084 3.45595,-1.73443 3.33674,6.41497 3.22551,-0.0862 3.12143,-0.61178 3.02387,2.8178 2.93223,-0.42475 2.84597,4.81752 5.45249,-1.81743 2.61519,3.01355 2.54636,-1.14298 2.48106,4.25083 2.41903,0.97855 2.36002,-3.98027 2.30383,1.02293 2.25024,3.82754 2.1991,-0.72245 2.15022,1.65463 2.10348,2.91077 2.05871,-1.11046 2.01583,-0.30053 1.97468,-0.10437 1.93519,1.58787 1.89724,1.3592 1.86075,1.58894 3.61747,3.59828 1.75925,-3.16119 1.72783,4.77565 1.69752,-3.98155 1.66825,3.54559 1.63997,0.33297 1.61264,0.87743 1.5862,-0.47472 1.56062,2.62884 1.53584,-2.02338 1.51185,3.80387 1.48858,-1.50256 2.91018,4.15928 1.42291,-1.11041 1.40228,1.14514 1.38226,-1.05565 1.36278,3.3019 1.34386,-1.63997 1.32544,2.32829 1.30754,-0.57522 1.2901,-1.10732 1.27312,2.57613 1.25659,0.0792 1.24048,0.34279 1.22478,0.86578 1.20947,-0.003 1.19453,-0.66113 1.17997,1.17596 1.16575,3.23699 1.15187,-2.49832 1.13832,1.21442 1.12508,0.17309 1.11216,2.44153 1.09951,0.36125 1.08716,0.656 1.07508,-0.56935 1.06326,0.69524 1.05171,1.81345 1.0404,0.0787 2.04782,1.79347 1.00788,0.16663 0.9975,-1.24373 0.98731,2.59746 0.97735,-0.87761 0.96757,2.56644 0.95798,-2.91736 0.9486,1.30265 0.93939,0.33704 0.93035,0.49342 0.9215,2.60955 0.9128,-0.85917 1.80016,0.0661 0.88768,0.86353 0.8796,0.12718 0.87169,2.98411 0.8639,-0.68026 0.85625,0.11993 0.84874,1.05121 0.84137,-0.67073 0.83411,0.62238 0.82698,1.41429 0.81997,-0.95153 0.81308,2.77103 0.8063,-0.93207 0.79965,0.97301 0.79308,-0.0395 0.78664,-0.45102 0.7803,0.98231 0.77405,-1.33226 0.76791,0.67341 1.51777,1.72722 0.75005,-0.97866 0.74429,1.96337 0.73859,-0.3886 0.73301,1.42104 0.72749,-0.8218 0.72207,1.32903 0.71671,0.15674 0.71145,-0.71028 0.70625,1.08226 0.70113,1.41327 0.69609,-0.61202 0.69112,1.83038 0.68622,-0.0295 0.68138,0.62486 0.67662,1.24324 0.67192,-0.25904 0.66728,-0.0122 0.66272,0.82754 0.65821,-0.48927 0.65376,0.27101 0.64937,0.12671 0.64504,1.15231 0.64077,-2.1053 0.63656,2.53519 0.63239,-0.56875 0.62829,1.14887 0.62424,-0.65124 0.62023,2.85021 0.61628,-1.35808 0.61239,0.74698 0.60853,-0.26923 0.60472,-0.49094 1.19824,2.6733 0.59359,0.13433 0.58998,-0.42074 0.5864,0.33072 0.58287,-0.40584 0.57938,1.56886 0.57594,0.10872 0.57252,0.47005 0.56915,0.0361 0.56583,-0.10396 0.56254,1.24965 0.55928,-0.28104 0.55607,-0.0503 0.5529,1.26616 0.54975,-0.0585 0.54664,0.32623 0.54358,-0.22198 0.54054,1.25306 1.0721,0.24787 0.53163,1.04398 0.52872,-0.15673 0.52585,-0.28913 0.52301,0.15301 0.52019,1.71484 0.51742,-1.17317 0.51466,0.4307 1.02118,0.39049 0.50658,-0.15987 0.50393,1.02679 0.50133,0.28689 0.49875,0.091 0.49618,-0.83848 0.49366,1.74101 0.49115,0.18308 0.48866,-0.40231 0.97,1.7017 0.48137,1.36895 0.47899,-0.11661 0.47664,0.02 0.47429,-0.45538 0.47198,0.55486 0.46969,-0.76235 0.46743,0.66298 0.46517,0.22255 0.46295,1.19566 0.46074,-0.62495 0.45856,0.44297 0.4564,1.0242 0.45426,-0.25642 0.45213,-0.11895 0.45003,0.42219 0.44794,-1.37954 0.44588,1.39475 0.44384,-0.29204 0.44181,1.61076 0.4398,-0.45314 0.43781,1.15579 0.43584,0.24686 0.86583,-0.22281 0.43003,-0.28432 0.42812,0.78385 0.42624,-0.18141 0.42437,1.45224 0.42252,-0.15119 0.42068,0.33243 0.41886,-0.89897 0.41705,0.98228 0.41526,0.50102 0.41349,0.8294 0.82171,-0.5063 0.8148,0.99202 0.40483,-0.83705 0.40316,0.24228 0.40147,-0.15759 0.39982,0.72416 0.39818,0.4269 0.39654,-0.91919 0.39492,0.26438 1.17519,2.19264 0.38858,-0.46504 0.38703,0.65706 0.38548,0.96558 0.38395,0.59735 0.38244,0.0707 0.38093,-0.76377 0.37943,-0.18683 0.37796,-1.20146 0.37648,0.58944 0.37502,1.93661 0.37358,-0.19931 0.74285,1.13082 0.3693,-0.39078 0.3679,0.39898 0.3665,0.07 0.36511,0.29049 0.36375,-0.0775 0.36238,-0.5957 0.36103,0.22409 0.35969,-0.12263 0.35836,0.76246 0.35703,-0.44899 0.71014,1.66 0.35313,-0.77097 0.35184,0.66539 0.35056,-0.18498 0.3493,0.20671 0.34805,-0.40401 0.34679,1.39817 0.68989,-0.76063 0.34311,0.50232 0.34189,-0.32665 0.68019,0.93758 0.33831,0.41103 0.33713,-0.0174 0.33595,-1.43857 0.66844,1.37149 0.66385,1.41615 0.33023,0.1326 0.3291,-0.16998 0.32799,0.56664 0.32688,-0.69429 0.32578,0.58824 0.64828,0.56596 0.32252,-0.55594 0.32145,1.15073 0.32039,-0.79834 0.31932,0.76877 0.31828,-1.15759 0.31723,1.03294 0.3162,-0.91785 0.31517,1.54695 0.31414,-0.34355 0.31313,0.30349 0.31211,-1.30257 0.62123,0.89286 0.30913,2.14702 0.30814,-1.18734 0.61335,0.28774 0.30523,-0.50454 0.30426,0.49098 0.30331,1.23113 0.30237,-0.70022 0.30142,0.82196 0.30048,0.36628 0.29956,-0.59649 0.29863,-0.0785 0.5945,0.3726 0.2959,-0.40601 0.29498,0.34545 0.2941,-0.1842 0.58551,-0.71103 0.29143,0.45005 0.29056,-0.4074 0.57852,2.36363 0.86133,-1.63409 0.28542,1.15583 0.28458,0.45533 0.28374,-0.33525 0.28291,1.0348 0.28209,-0.19069 0.28127,-0.47909 0.28045,-0.2522 0.27964,-0.97305 0.27884,1.19987 0.27803,-0.23075 0.27724,0.39246 0.27645,-0.0139 0.27566,0.28567 0.27487,-0.21726 0.2741,-0.71667 0.27332,0.82981 0.27255,0.15128 0.27179,0.29242 0.27103,-0.33988 0.27026,0.39322 0.26952,-0.29301 0.26877,-0.54182 0.26802,0.30344 v 0"
           clip-path="url(#p22f1af465e)"
           style="fill:none;stroke:#ff0000;stroke-width:2.5;stroke-linecap:square"
           id="path77" />
      </g>
      <g
         id="patch_3">
        <path
           d="M 72.672514,323.81764 V 7.2"
           style="fill:none;stroke:#000000;stroke-width:2;stroke-linecap:square;stroke-linejoin:miter"
           id="path79" />
      </g>
      <g
         id="patch_4">
        <path
           d="M 603.36,323.81764 V 7.2"
           style="fill:none;stroke:#000000;stroke-width:2;stroke-linecap:square;stroke-linejoin:miter"
           id="path80" />
      </g>
      <g
         id="patch_5">
        <path
           d="M 72.672514,323.81764 H 603.36"
           style="fill:none;stroke:#000000;stroke-width:2;stroke-linecap:square;stroke-linejoin:miter"
           id="path81" />
      </g>
      <g
         id="patch_6">
        <path
           d="M 72.672514,7.2 H 603.36"
           style="fill:none;stroke:#000000;stroke-width:2;stroke-linecap:square;stroke-linejoin:miter"
           id="path82" />
      </g>
      <g
         id="legend_1"
         transform="matrix(1.213658,0,0,1.213658,-19.698479,-64.958055)">
        <g
           id="legend_1-8"
           style="stroke-linecap:butt;stroke-linejoin:round"
           transform="translate(10.023818,-10.28938)">
          <g
             id="patch_7"
             style="stroke-linecap:butt;stroke-linejoin:round">
            <path
               d="M 86.672514,313.81764 H 307.62595 q 4,0 4,-4 v -81.6269 q 0,-4 -4,-4 H 86.672514 q -4,0 -4,4 v 81.6269 q 0,4 4,4 z"
               style="opacity:0.9;fill:#ffffff;stroke:#000000;stroke-linecap:butt;stroke-linejoin:miter"
               id="path83" />
          </g>
          <g
             id="line2d_50"
             style="stroke-linecap:butt;stroke-linejoin:round">
            <path
               d="m 90.672514,239.19074 h 19.999996 20"
               style="fill:none;stroke:#0000ff;stroke-width:2.5;stroke-linecap:square;stroke-linejoin:round"
               id="path84" />
          </g>
          <g
             id="text_9"
             style="stroke-linecap:butt;stroke-linejoin:round">
            <!-- $M_A=0.8, M_s=1$ -->
            <g
               transform="matrix(0.2,0,0,-0.2,146.67251,246.19074)"
               id="g94"
               style="stroke-linecap:butt;stroke-linejoin:round">
              <defs
                 id="defs84" />
              <use
                 xlink:href="#CMMI12-4d"
                 transform="scale(0.996264)"
                 id="use84"
                 style="stroke-linecap:butt;stroke-linejoin:round" />
              <use
                 xlink:href="#CMMI12-41"
                 transform="matrix(0.697382,0,0,0.697382,94.373425,-14.943915)"
                 id="use85"
                 style="stroke-linecap:butt;stroke-linejoin:round" />
              <use
                 xlink:href="#CMR17-3d"
                 transform="matrix(0.996264,0,0,0.996264,173.73486,0)"
                 id="use86"
                 style="stroke-linecap:butt;stroke-linejoin:round" />
              <use
                 xlink:href="#CMR17-30"
                 transform="matrix(0.996264,0,0,0.996264,273.12366,0)"
                 id="use87"
                 style="stroke-linecap:butt;stroke-linejoin:round" />
              <use
                 xlink:href="#CMMI12-3a"
                 transform="matrix(0.996264,0,0,0.996264,318.81414,0)"
                 id="use88"
                 style="stroke-linecap:butt;stroke-linejoin:round" />
              <use
                 xlink:href="#CMR17-38"
                 transform="matrix(0.996264,0,0,0.996264,345.91131,0)"
                 id="use89"
                 style="stroke-linecap:butt;stroke-linejoin:round" />
              <use
                 xlink:href="#CMMI12-3b"
                 transform="matrix(0.996264,0,0,0.996264,391.60179,0)"
                 id="use90"
                 style="stroke-linecap:butt;stroke-linejoin:round" />
              <use
                 xlink:href="#CMMI12-4d"
                 transform="matrix(0.996264,0,0,0.996264,435.30337,0)"
                 id="use91"
                 style="stroke-linecap:butt;stroke-linejoin:round" />
              <use
                 xlink:href="#CMMI12-73"
                 transform="matrix(0.697382,0,0,0.697382,529.6768,-14.943915)"
                 id="use92"
                 style="stroke-linecap:butt;stroke-linejoin:round" />
              <use
                 xlink:href="#CMR17-3d"
                 transform="matrix(0.996264,0,0,0.996264,590.01383,0)"
                 id="use93"
                 style="stroke-linecap:butt;stroke-linejoin:round" />
              <use
                 xlink:href="#CMR17-31"
                 transform="matrix(0.996264,0,0,0.996264,689.40262,0)"
                 id="use94"
                 style="stroke-linecap:butt;stroke-linejoin:round" />
            </g>
          </g>
          <g
             id="line2d_51"
             style="stroke-linecap:butt;stroke-linejoin:round">
            <path
               d="m 90.672514,267.06637 h 19.999996 20"
               style="fill:none;stroke:#ff0000;stroke-width:2.5;stroke-linecap:square;stroke-linejoin:round"
               id="path94" />
          </g>
          <g
             id="text_10"
             style="stroke-linecap:butt;stroke-linejoin:round">
            <!-- $M_A=0.8, M_s=10$ -->
            <g
               transform="matrix(0.2,0,0,-0.2,146.67251,274.06637)"
               id="g106"
               style="stroke-linecap:butt;stroke-linejoin:round">
              <use
                 xlink:href="#CMMI12-4d"
                 transform="scale(0.996264)"
                 id="use95"
                 style="stroke-linecap:butt;stroke-linejoin:round" />
              <use
                 xlink:href="#CMMI12-41"
                 transform="matrix(0.697382,0,0,0.697382,94.373425,-14.943915)"
                 id="use96"
                 style="stroke-linecap:butt;stroke-linejoin:round" />
              <use
                 xlink:href="#CMR17-3d"
                 transform="matrix(0.996264,0,0,0.996264,173.73486,0)"
                 id="use97"
                 style="stroke-linecap:butt;stroke-linejoin:round" />
              <use
                 xlink:href="#CMR17-30"
                 transform="matrix(0.996264,0,0,0.996264,273.12366,0)"
                 id="use98"
                 style="stroke-linecap:butt;stroke-linejoin:round" />
              <use
                 xlink:href="#CMMI12-3a"
                 transform="matrix(0.996264,0,0,0.996264,318.81414,0)"
                 id="use99"
                 style="stroke-linecap:butt;stroke-linejoin:round" />
              <use
                 xlink:href="#CMR17-38"
                 transform="matrix(0.996264,0,0,0.996264,345.91131,0)"
                 id="use100"
                 style="stroke-linecap:butt;stroke-linejoin:round" />
              <use
                 xlink:href="#CMMI12-3b"
                 transform="matrix(0.996264,0,0,0.996264,391.60179,0)"
                 id="use101"
                 style="stroke-linecap:butt;stroke-linejoin:round" />
              <use
                 xlink:href="#CMMI12-4d"
                 transform="matrix(0.996264,0,0,0.996264,435.30337,0)"
                 id="use102"
                 style="stroke-linecap:butt;stroke-linejoin:round" />
              <use
                 xlink:href="#CMMI12-73"
                 transform="matrix(0.697382,0,0,0.697382,529.6768,-14.943915)"
                 id="use103"
                 style="stroke-linecap:butt;stroke-linejoin:round" />
              <use
                 xlink:href="#CMR17-3d"
                 transform="matrix(0.996264,0,0,0.996264,590.01383,0)"
                 id="use104"
                 style="stroke-linecap:butt;stroke-linejoin:round" />
              <use
                 xlink:href="#CMR17-31"
                 transform="matrix(0.996264,0,0,0.996264,689.40262,0)"
                 id="use105"
                 style="stroke-linecap:butt;stroke-linejoin:round" />
              <use
                 xlink:href="#CMR17-30"
                 transform="matrix(0.996264,0,0,0.996264,735.0931,0)"
                 id="use106"
                 style="stroke-linecap:butt;stroke-linejoin:round" />
            </g>
          </g>
          <g
             id="line2d_52"
             style="stroke-linecap:butt;stroke-linejoin:round">
            <path
               d="m 90.672514,294.94201 h 19.999996 20"
               style="fill:none;stroke:#000000;stroke-width:4;stroke-linecap:butt;stroke-linejoin:round;stroke-dasharray:14.8, 6.4;stroke-dashoffset:0"
               id="path106" />
          </g>
          <g
             id="text_11"
             style="stroke-linecap:butt;stroke-linejoin:round">
            <!-- $k^{-11/3}$ -->
            <g
               transform="matrix(0.2,0,0,-0.2,146.67251,301.94201)"
               id="g112"
               style="stroke-linecap:butt;stroke-linejoin:round">
              <defs
                 id="defs106" />
              <use
                 xlink:href="#CMMI12-6b"
                 transform="scale(0.996264)"
                 id="use107"
                 style="stroke-linecap:butt;stroke-linejoin:round" />
              <use
                 xlink:href="#CMSY10-0"
                 transform="matrix(0.697382,0,0,0.697382,54.079201,36.153639)"
                 id="use108"
                 style="stroke-linecap:butt;stroke-linejoin:round" />
              <use
                 xlink:href="#CMR17-31"
                 transform="matrix(0.697382,0,0,0.697382,108.32019,36.153639)"
                 id="use109"
                 style="stroke-linecap:butt;stroke-linejoin:round" />
              <use
                 xlink:href="#CMR17-31"
                 transform="matrix(0.697382,0,0,0.697382,140.30338,36.153639)"
                 id="use110"
                 style="stroke-linecap:butt;stroke-linejoin:round" />
              <use
                 xlink:href="#CMMI12-3d"
                 transform="matrix(0.697382,0,0,0.697382,172.28656,36.153639)"
                 id="use111"
                 style="stroke-linecap:butt;stroke-linejoin:round" />
              <use
                 xlink:href="#CMR17-33"
                 transform="matrix(0.697382,0,0,0.697382,206.42885,36.153639)"
                 id="use112"
                 style="stroke-linecap:butt;stroke-linejoin:round" />
            </g>
          </g>
        </g>
      </g>
    </g>
  </g>
  <defs
     id="defs112">
    <clipPath
       id="p22f1af465e">
      <rect
         x="72.672516"
         y="7.1999998"
         width="530.6875"
         height="316.61765"
         id="rect112" />
    </clipPath>
  </defs>
</svg>
