<?xml version="1.0" encoding="utf-8" standalone="no"?>
<!DOCTYPE svg PUBLIC "-//W3C//DTD SVG 1.1//EN"
  "http://www.w3.org/Graphics/SVG/1.1/DTD/svg11.dtd">
<svg xmlns:xlink="http://www.w3.org/1999/xlink" width="486pt" height="270pt" viewBox="0 0 486 270" xmlns="http://www.w3.org/2000/svg" version="1.1">
 <metadata>
  <rdf:RDF xmlns:dc="http://purl.org/dc/elements/1.1/" xmlns:cc="http://creativecommons.org/ns#" xmlns:rdf="http://www.w3.org/1999/02/22-rdf-syntax-ns#">
   <cc:Work>
    <dc:type rdf:resource="http://purl.org/dc/dcmitype/StillImage"/>
    <dc:date>2026-02-13T18:26:29.071376</dc:date>
    <dc:format>image/svg+xml</dc:format>
    <dc:creator>
     <cc:Agent>
      <dc:title>Matplotlib v3.8.4, https://matplotlib.org/</dc:title>
     </cc:Agent>
    </dc:creator>
   </cc:Work>
  </rdf:RDF>
 </metadata>
 <defs>
  <style type="text/css">*{stroke-linejoin: round; stroke-linecap: butt}</style>
 </defs>
 <g id="figure_1">
  <g id="patch_1">
   <path d="M 0 270 
L 486 270 
L 486 0 
L 0 0 
z
" style="fill: #ffffff"/>
  </g>
  <g id="axes_1">
   <g id="patch_2">
    <path d="M 49.506807 228.733061 
L 478.8 228.733061 
L 478.8 7.2 
L 49.506807 7.2 
z
" style="fill: #ffffff"/>
   </g>
   <g id="matplotlib.axis_1">
    <g id="xtick_1">
     <g id="line2d_1">
      <defs>
       <path id="mf003ef2c32" d="M 0 0 
L 0 -6 
" style="stroke: #000000; stroke-width: 0.8"/>
      </defs>
      <g>
       <use xlink:href="#mf003ef2c32" x="81.269927" y="228.733061" style="stroke: #000000; stroke-width: 0.8"/>
      </g>
     </g>
     <g id="line2d_2">
      <defs>
       <path id="m19786dec39" d="M 0 0 
L 0 6 
" style="stroke: #000000; stroke-width: 0.8"/>
      </defs>
      <g>
       <use xlink:href="#m19786dec39" x="81.269927" y="7.2" style="stroke: #000000; stroke-width: 0.8"/>
      </g>
     </g>
     <g id="text_1">
      <!-- $\mathdefault{10^{1}}$ -->
      <g transform="translate(71.338504 242.610786) scale(0.15 -0.15)">
       <defs>
        <path id="CMR17-31" d="M 1702 4058 
C 1702 4192 1696 4192 1606 4192 
C 1357 3916 979 3827 621 3827 
C 602 3827 570 3827 563 3808 
C 557 3795 557 3782 557 3648 
C 755 3648 1088 3686 1344 3839 
L 1344 461 
C 1344 236 1331 160 781 160 
L 589 160 
L 589 0 
C 896 0 1216 0 1523 0 
C 1830 0 2150 0 2458 0 
L 2458 160 
L 2266 160 
C 1715 160 1702 230 1702 458 
L 1702 4058 
z
" transform="scale(0.015625)"/>
        <path id="CMR17-30" d="M 2688 2025 
C 2688 2416 2682 3080 2413 3591 
C 2176 4039 1798 4198 1466 4198 
C 1158 4198 768 4058 525 3597 
C 269 3118 243 2524 243 2025 
C 243 1661 250 1106 448 619 
C 723 -39 1216 -128 1466 -128 
C 1760 -128 2208 -7 2470 600 
C 2662 1042 2688 1559 2688 2025 
z
M 1466 -26 
C 1056 -26 813 325 723 812 
C 653 1188 653 1738 653 2096 
C 653 2588 653 2997 736 3387 
C 858 3929 1216 4096 1466 4096 
C 1728 4096 2067 3923 2189 3400 
C 2272 3036 2278 2607 2278 2096 
C 2278 1680 2278 1169 2202 792 
C 2067 95 1690 -26 1466 -26 
z
" transform="scale(0.015625)"/>
       </defs>
       <use xlink:href="#CMR17-31" transform="scale(0.996264)"/>
       <use xlink:href="#CMR17-30" transform="translate(45.690477 0) scale(0.996264)"/>
       <use xlink:href="#CMR17-31" transform="translate(91.380954 36.153639) scale(0.697382)"/>
      </g>
     </g>
    </g>
    <g id="xtick_2">
     <g id="line2d_3">
      <g>
       <use xlink:href="#mf003ef2c32" x="261.49248" y="228.733061" style="stroke: #000000; stroke-width: 0.8"/>
      </g>
     </g>
     <g id="line2d_4">
      <g>
       <use xlink:href="#m19786dec39" x="261.49248" y="7.2" style="stroke: #000000; stroke-width: 0.8"/>
      </g>
     </g>
     <g id="text_2">
      <!-- $\mathdefault{10^{2}}$ -->
      <g transform="translate(251.561057 242.610786) scale(0.15 -0.15)">
       <defs>
        <path id="CMR17-32" d="M 2669 989 
L 2554 989 
C 2490 536 2438 459 2413 420 
C 2381 369 1920 369 1830 369 
L 602 369 
C 832 619 1280 1072 1824 1597 
C 2214 1967 2669 2402 2669 3035 
C 2669 3790 2067 4224 1395 4224 
C 691 4224 262 3604 262 3030 
C 262 2780 448 2748 525 2748 
C 589 2748 781 2787 781 3010 
C 781 3207 614 3264 525 3264 
C 486 3264 448 3258 422 3245 
C 544 3790 915 4058 1306 4058 
C 1862 4058 2227 3617 2227 3035 
C 2227 2479 1901 2000 1536 1584 
L 262 146 
L 262 0 
L 2515 0 
L 2669 989 
z
" transform="scale(0.015625)"/>
       </defs>
       <use xlink:href="#CMR17-31" transform="scale(0.996264)"/>
       <use xlink:href="#CMR17-30" transform="translate(45.690477 0) scale(0.996264)"/>
       <use xlink:href="#CMR17-32" transform="translate(91.380954 36.153639) scale(0.697382)"/>
      </g>
     </g>
    </g>
    <g id="xtick_3">
     <g id="line2d_5">
      <g>
       <use xlink:href="#mf003ef2c32" x="441.715034" y="228.733061" style="stroke: #000000; stroke-width: 0.8"/>
      </g>
     </g>
     <g id="line2d_6">
      <g>
       <use xlink:href="#m19786dec39" x="441.715034" y="7.2" style="stroke: #000000; stroke-width: 0.8"/>
      </g>
     </g>
     <g id="text_3">
      <!-- $\mathdefault{10^{3}}$ -->
      <g transform="translate(431.78361 242.610786) scale(0.15 -0.15)">
       <defs>
        <path id="CMR17-33" d="M 1414 2157 
C 1984 2157 2234 1662 2234 1090 
C 2234 320 1824 25 1453 25 
C 1114 25 563 194 390 693 
C 422 680 454 680 486 680 
C 640 680 755 782 755 948 
C 755 1133 614 1216 486 1216 
C 378 1216 211 1165 211 926 
C 211 335 787 -128 1466 -128 
C 2176 -128 2720 430 2720 1085 
C 2720 1707 2208 2157 1600 2227 
C 2086 2328 2554 2756 2554 3329 
C 2554 3820 2048 4179 1472 4179 
C 890 4179 378 3829 378 3329 
C 378 3110 544 3072 627 3072 
C 762 3072 877 3155 877 3321 
C 877 3486 762 3569 627 3569 
C 602 3569 570 3569 544 3557 
C 730 3959 1235 4032 1459 4032 
C 1683 4032 2106 3925 2106 3320 
C 2106 3143 2080 2828 1862 2550 
C 1670 2304 1453 2304 1242 2284 
C 1210 2284 1062 2269 1037 2269 
C 992 2263 966 2257 966 2208 
C 966 2163 973 2157 1101 2157 
L 1414 2157 
z
" transform="scale(0.015625)"/>
       </defs>
       <use xlink:href="#CMR17-31" transform="scale(0.996264)"/>
       <use xlink:href="#CMR17-30" transform="translate(45.690477 0) scale(0.996264)"/>
       <use xlink:href="#CMR17-33" transform="translate(91.380954 36.153639) scale(0.697382)"/>
      </g>
     </g>
    </g>
    <g id="xtick_4">
     <g id="line2d_7">
      <defs>
       <path id="m29045929a7" d="M 0 0 
L 0 -3 
" style="stroke: #000000; stroke-width: 0.6"/>
      </defs>
      <g>
       <use xlink:href="#m29045929a7" x="53.3531" y="228.733061" style="stroke: #000000; stroke-width: 0.6"/>
      </g>
     </g>
     <g id="line2d_8">
      <defs>
       <path id="m69566b3391" d="M 0 0 
L 0 3 
" style="stroke: #000000; stroke-width: 0.6"/>
      </defs>
      <g>
       <use xlink:href="#m69566b3391" x="53.3531" y="7.2" style="stroke: #000000; stroke-width: 0.6"/>
      </g>
     </g>
    </g>
    <g id="xtick_5">
     <g id="line2d_9">
      <g>
       <use xlink:href="#m29045929a7" x="63.804557" y="228.733061" style="stroke: #000000; stroke-width: 0.6"/>
      </g>
     </g>
     <g id="line2d_10">
      <g>
       <use xlink:href="#m69566b3391" x="63.804557" y="7.2" style="stroke: #000000; stroke-width: 0.6"/>
      </g>
     </g>
    </g>
    <g id="xtick_6">
     <g id="line2d_11">
      <g>
       <use xlink:href="#m29045929a7" x="73.023395" y="228.733061" style="stroke: #000000; stroke-width: 0.6"/>
      </g>
     </g>
     <g id="line2d_12">
      <g>
       <use xlink:href="#m69566b3391" x="73.023395" y="7.2" style="stroke: #000000; stroke-width: 0.6"/>
      </g>
     </g>
    </g>
    <g id="xtick_7">
     <g id="line2d_13">
      <g>
       <use xlink:href="#m29045929a7" x="135.522321" y="228.733061" style="stroke: #000000; stroke-width: 0.6"/>
      </g>
     </g>
     <g id="line2d_14">
      <g>
       <use xlink:href="#m69566b3391" x="135.522321" y="7.2" style="stroke: #000000; stroke-width: 0.6"/>
      </g>
     </g>
    </g>
    <g id="xtick_8">
     <g id="line2d_15">
      <g>
       <use xlink:href="#m29045929a7" x="167.257938" y="228.733061" style="stroke: #000000; stroke-width: 0.6"/>
      </g>
     </g>
     <g id="line2d_16">
      <g>
       <use xlink:href="#m69566b3391" x="167.257938" y="7.2" style="stroke: #000000; stroke-width: 0.6"/>
      </g>
     </g>
    </g>
    <g id="xtick_9">
     <g id="line2d_17">
      <g>
       <use xlink:href="#m29045929a7" x="189.774716" y="228.733061" style="stroke: #000000; stroke-width: 0.6"/>
      </g>
     </g>
     <g id="line2d_18">
      <g>
       <use xlink:href="#m69566b3391" x="189.774716" y="7.2" style="stroke: #000000; stroke-width: 0.6"/>
      </g>
     </g>
    </g>
    <g id="xtick_10">
     <g id="line2d_19">
      <g>
       <use xlink:href="#m29045929a7" x="207.240086" y="228.733061" style="stroke: #000000; stroke-width: 0.6"/>
      </g>
     </g>
     <g id="line2d_20">
      <g>
       <use xlink:href="#m69566b3391" x="207.240086" y="7.2" style="stroke: #000000; stroke-width: 0.6"/>
      </g>
     </g>
    </g>
    <g id="xtick_11">
     <g id="line2d_21">
      <g>
       <use xlink:href="#m29045929a7" x="221.510332" y="228.733061" style="stroke: #000000; stroke-width: 0.6"/>
      </g>
     </g>
     <g id="line2d_22">
      <g>
       <use xlink:href="#m69566b3391" x="221.510332" y="7.2" style="stroke: #000000; stroke-width: 0.6"/>
      </g>
     </g>
    </g>
    <g id="xtick_12">
     <g id="line2d_23">
      <g>
       <use xlink:href="#m29045929a7" x="233.575653" y="228.733061" style="stroke: #000000; stroke-width: 0.6"/>
      </g>
     </g>
     <g id="line2d_24">
      <g>
       <use xlink:href="#m69566b3391" x="233.575653" y="7.2" style="stroke: #000000; stroke-width: 0.6"/>
      </g>
     </g>
    </g>
    <g id="xtick_13">
     <g id="line2d_25">
      <g>
       <use xlink:href="#m29045929a7" x="244.02711" y="228.733061" style="stroke: #000000; stroke-width: 0.6"/>
      </g>
     </g>
     <g id="line2d_26">
      <g>
       <use xlink:href="#m69566b3391" x="244.02711" y="7.2" style="stroke: #000000; stroke-width: 0.6"/>
      </g>
     </g>
    </g>
    <g id="xtick_14">
     <g id="line2d_27">
      <g>
       <use xlink:href="#m29045929a7" x="253.245948" y="228.733061" style="stroke: #000000; stroke-width: 0.6"/>
      </g>
     </g>
     <g id="line2d_28">
      <g>
       <use xlink:href="#m69566b3391" x="253.245948" y="7.2" style="stroke: #000000; stroke-width: 0.6"/>
      </g>
     </g>
    </g>
    <g id="xtick_15">
     <g id="line2d_29">
      <g>
       <use xlink:href="#m29045929a7" x="315.744875" y="228.733061" style="stroke: #000000; stroke-width: 0.6"/>
      </g>
     </g>
     <g id="line2d_30">
      <g>
       <use xlink:href="#m69566b3391" x="315.744875" y="7.2" style="stroke: #000000; stroke-width: 0.6"/>
      </g>
     </g>
    </g>
    <g id="xtick_16">
     <g id="line2d_31">
      <g>
       <use xlink:href="#m29045929a7" x="347.480491" y="228.733061" style="stroke: #000000; stroke-width: 0.6"/>
      </g>
     </g>
     <g id="line2d_32">
      <g>
       <use xlink:href="#m69566b3391" x="347.480491" y="7.2" style="stroke: #000000; stroke-width: 0.6"/>
      </g>
     </g>
    </g>
    <g id="xtick_17">
     <g id="line2d_33">
      <g>
       <use xlink:href="#m29045929a7" x="369.997269" y="228.733061" style="stroke: #000000; stroke-width: 0.6"/>
      </g>
     </g>
     <g id="line2d_34">
      <g>
       <use xlink:href="#m69566b3391" x="369.997269" y="7.2" style="stroke: #000000; stroke-width: 0.6"/>
      </g>
     </g>
    </g>
    <g id="xtick_18">
     <g id="line2d_35">
      <g>
       <use xlink:href="#m29045929a7" x="387.462639" y="228.733061" style="stroke: #000000; stroke-width: 0.6"/>
      </g>
     </g>
     <g id="line2d_36">
      <g>
       <use xlink:href="#m69566b3391" x="387.462639" y="7.2" style="stroke: #000000; stroke-width: 0.6"/>
      </g>
     </g>
    </g>
    <g id="xtick_19">
     <g id="line2d_37">
      <g>
       <use xlink:href="#m29045929a7" x="401.732885" y="228.733061" style="stroke: #000000; stroke-width: 0.6"/>
      </g>
     </g>
     <g id="line2d_38">
      <g>
       <use xlink:href="#m69566b3391" x="401.732885" y="7.2" style="stroke: #000000; stroke-width: 0.6"/>
      </g>
     </g>
    </g>
    <g id="xtick_20">
     <g id="line2d_39">
      <g>
       <use xlink:href="#m29045929a7" x="413.798207" y="228.733061" style="stroke: #000000; stroke-width: 0.6"/>
      </g>
     </g>
     <g id="line2d_40">
      <g>
       <use xlink:href="#m69566b3391" x="413.798207" y="7.2" style="stroke: #000000; stroke-width: 0.6"/>
      </g>
     </g>
    </g>
    <g id="xtick_21">
     <g id="line2d_41">
      <g>
       <use xlink:href="#m29045929a7" x="424.249664" y="228.733061" style="stroke: #000000; stroke-width: 0.6"/>
      </g>
     </g>
     <g id="line2d_42">
      <g>
       <use xlink:href="#m69566b3391" x="424.249664" y="7.2" style="stroke: #000000; stroke-width: 0.6"/>
      </g>
     </g>
    </g>
    <g id="xtick_22">
     <g id="line2d_43">
      <g>
       <use xlink:href="#m29045929a7" x="433.468502" y="228.733061" style="stroke: #000000; stroke-width: 0.6"/>
      </g>
     </g>
     <g id="line2d_44">
      <g>
       <use xlink:href="#m69566b3391" x="433.468502" y="7.2" style="stroke: #000000; stroke-width: 0.6"/>
      </g>
     </g>
    </g>
    <g id="text_4">
     <!-- $k$ -->
     <g transform="translate(260.348268 259.894255) scale(0.15 -0.15)">
      <defs>
       <path id="CMMI12-6b" d="M 1798 4257 
C 1805 4283 1818 4321 1818 4352 
C 1818 4416 1754 4416 1741 4416 
C 1734 4416 1504 4393 1389 4377 
C 1280 4377 1184 4358 1069 4358 
C 915 4345 870 4339 870 4224 
C 870 4160 934 4160 998 4160 
C 1325 4160 1325 4103 1325 4040 
C 1325 4015 1325 4002 1293 3888 
L 378 248 
C 352 152 352 140 352 101 
C 352 -38 461 -64 525 -64 
C 704 -64 742 77 794 275 
L 1094 1469 
C 1555 1418 1830 1226 1830 920 
C 1830 881 1830 856 1811 760 
C 1786 664 1786 588 1786 556 
C 1786 185 2029 -64 2355 -64 
C 2650 -64 2803 204 2854 294 
C 2989 530 3072 888 3072 913 
C 3072 945 3046 971 3008 971 
C 2950 971 2944 945 2918 843 
C 2829 511 2694 64 2368 64 
C 2240 64 2157 128 2157 370 
C 2157 492 2182 632 2208 728 
C 2234 843 2234 849 2234 926 
C 2234 1303 1894 1514 1306 1590 
C 1536 1731 1766 1980 1856 2076 
C 2221 2484 2470 2689 2765 2689 
C 2912 2689 2950 2650 2995 2612 
C 2758 2586 2669 2420 2669 2293 
C 2669 2139 2790 2088 2880 2088 
C 3053 2088 3206 2235 3206 2440 
C 3206 2625 3059 2816 2771 2816 
C 2419 2816 2131 2567 1677 2056 
C 1613 1980 1376 1737 1139 1648 
L 1798 4257 
z
" transform="scale(0.015625)"/>
      </defs>
      <use xlink:href="#CMMI12-6b" transform="scale(0.996264)"/>
     </g>
    </g>
   </g>
   <g id="matplotlib.axis_2">
    <g id="ytick_1">
     <g id="line2d_45">
      <defs>
       <path id="m561011af71" d="M 0 0 
L 6 0 
" style="stroke: #000000; stroke-width: 0.8"/>
      </defs>
      <g>
       <use xlink:href="#m561011af71" x="49.506807" y="187.88976" style="stroke: #000000; stroke-width: 0.8"/>
      </g>
     </g>
     <g id="line2d_46">
      <defs>
       <path id="m8a958705bd" d="M 0 0 
L -6 0 
" style="stroke: #000000; stroke-width: 0.8"/>
      </defs>
      <g>
       <use xlink:href="#m8a958705bd" x="478.8" y="187.88976" style="stroke: #000000; stroke-width: 0.8"/>
      </g>
     </g>
     <g id="text_5">
      <!-- $\mathdefault{10^{1}}$ -->
      <g transform="translate(26.14396 193.078623) scale(0.15 -0.15)">
       <use xlink:href="#CMR17-31" transform="scale(0.996264)"/>
       <use xlink:href="#CMR17-30" transform="translate(45.690477 0) scale(0.996264)"/>
       <use xlink:href="#CMR17-31" transform="translate(91.380954 36.153639) scale(0.697382)"/>
      </g>
     </g>
    </g>
    <g id="ytick_2">
     <g id="line2d_47">
      <g>
       <use xlink:href="#m561011af71" x="49.506807" y="135.008473" style="stroke: #000000; stroke-width: 0.8"/>
      </g>
     </g>
     <g id="line2d_48">
      <g>
       <use xlink:href="#m8a958705bd" x="478.8" y="135.008473" style="stroke: #000000; stroke-width: 0.8"/>
      </g>
     </g>
     <g id="text_6">
      <!-- $\mathdefault{10^{3}}$ -->
      <g transform="translate(26.14396 140.197335) scale(0.15 -0.15)">
       <use xlink:href="#CMR17-31" transform="scale(0.996264)"/>
       <use xlink:href="#CMR17-30" transform="translate(45.690477 0) scale(0.996264)"/>
       <use xlink:href="#CMR17-33" transform="translate(91.380954 36.153639) scale(0.697382)"/>
      </g>
     </g>
    </g>
    <g id="ytick_3">
     <g id="line2d_49">
      <g>
       <use xlink:href="#m561011af71" x="49.506807" y="82.127185" style="stroke: #000000; stroke-width: 0.8"/>
      </g>
     </g>
     <g id="line2d_50">
      <g>
       <use xlink:href="#m8a958705bd" x="478.8" y="82.127185" style="stroke: #000000; stroke-width: 0.8"/>
      </g>
     </g>
     <g id="text_7">
      <!-- $\mathdefault{10^{5}}$ -->
      <g transform="translate(26.14396 87.316047) scale(0.15 -0.15)">
       <defs>
        <path id="CMR17-35" d="M 730 3692 
C 794 3666 1056 3584 1325 3584 
C 1920 3584 2246 3911 2432 4100 
C 2432 4157 2432 4192 2394 4192 
C 2387 4192 2374 4192 2323 4163 
C 2099 4058 1837 3973 1517 3973 
C 1325 3973 1037 3999 723 4139 
C 653 4171 640 4171 634 4171 
C 602 4171 595 4164 595 4037 
L 595 2203 
C 595 2089 595 2057 659 2057 
C 691 2057 704 2070 736 2114 
C 941 2401 1222 2522 1542 2522 
C 1766 2522 2246 2382 2246 1289 
C 2246 1085 2246 715 2054 421 
C 1894 159 1645 25 1370 25 
C 947 25 518 320 403 814 
C 429 807 480 795 506 795 
C 589 795 749 840 749 1038 
C 749 1210 627 1280 506 1280 
C 358 1280 262 1190 262 1011 
C 262 454 704 -128 1382 -128 
C 2042 -128 2669 440 2669 1264 
C 2669 2030 2170 2624 1549 2624 
C 1222 2624 947 2503 730 2274 
L 730 3692 
z
" transform="scale(0.015625)"/>
       </defs>
       <use xlink:href="#CMR17-31" transform="scale(0.996264)"/>
       <use xlink:href="#CMR17-30" transform="translate(45.690477 0) scale(0.996264)"/>
       <use xlink:href="#CMR17-35" transform="translate(91.380954 36.153639) scale(0.697382)"/>
      </g>
     </g>
    </g>
    <g id="ytick_4">
     <g id="line2d_51">
      <g>
       <use xlink:href="#m561011af71" x="49.506807" y="29.245897" style="stroke: #000000; stroke-width: 0.8"/>
      </g>
     </g>
     <g id="line2d_52">
      <g>
       <use xlink:href="#m8a958705bd" x="478.8" y="29.245897" style="stroke: #000000; stroke-width: 0.8"/>
      </g>
     </g>
     <g id="text_8">
      <!-- $\mathdefault{10^{7}}$ -->
      <g transform="translate(26.14396 34.434759) scale(0.15 -0.15)">
       <defs>
        <path id="CMR17-37" d="M 2886 3941 
L 2886 4081 
L 1382 4081 
C 634 4081 621 4165 595 4288 
L 480 4288 
L 294 3094 
L 410 3094 
C 429 3215 474 3540 550 3661 
C 589 3712 1062 3712 1171 3712 
L 2579 3712 
L 1869 2661 
C 1395 1954 1069 999 1069 165 
C 1069 89 1069 -128 1299 -128 
C 1530 -128 1530 89 1530 171 
L 1530 465 
C 1530 1508 1709 2196 2003 2636 
L 2886 3941 
z
" transform="scale(0.015625)"/>
       </defs>
       <use xlink:href="#CMR17-31" transform="scale(0.996264)"/>
       <use xlink:href="#CMR17-30" transform="translate(45.690477 0) scale(0.996264)"/>
       <use xlink:href="#CMR17-37" transform="translate(91.380954 36.153639) scale(0.697382)"/>
      </g>
     </g>
    </g>
    <g id="text_9">
     <!-- $P(k)$ -->
     <g transform="translate(18.40797 133.444803) rotate(-90) scale(0.15 -0.15)">
      <defs>
       <path id="CMMI12-50" d="M 1894 2023 
L 2970 2023 
C 3853 2023 4736 2673 4736 3401 
C 4736 3898 4314 4352 3507 4352 
L 1530 4352 
C 1408 4352 1350 4352 1350 4231 
C 1350 4167 1408 4167 1504 4167 
C 1894 4167 1894 4116 1894 4046 
C 1894 4034 1894 3995 1869 3899 
L 1005 472 
C 947 249 934 185 486 185 
C 365 185 301 185 301 70 
C 301 0 358 0 397 0 
C 518 0 646 0 768 0 
L 1517 0 
C 1638 0 1773 0 1894 0 
C 1946 0 2016 0 2016 121 
C 2016 185 1958 185 1862 185 
C 1478 185 1472 230 1472 293 
C 1472 325 1478 369 1485 401 
L 1894 2023 
z
M 2355 3930 
C 2413 4167 2438 4167 2688 4167 
L 3322 4167 
C 3802 4167 4198 4013 4198 3535 
C 4198 3369 4115 2827 3821 2534 
C 3712 2419 3405 2176 2822 2176 
L 1920 2176 
L 2355 3930 
z
" transform="scale(0.015625)"/>
       <path id="CMR17-28" d="M 1958 -1561 
C 1958 -1555 1958 -1542 1939 -1523 
C 1645 -1224 858 -407 858 1581 
C 858 3569 1632 4379 1946 4697 
C 1946 4704 1958 4717 1958 4736 
C 1958 4755 1939 4768 1914 4768 
C 1843 4768 1299 4296 986 3594 
C 666 2887 576 2199 576 1588 
C 576 1128 621 351 1005 -471 
C 1312 -1135 1837 -1600 1914 -1600 
C 1946 -1600 1958 -1587 1958 -1561 
z
" transform="scale(0.015625)"/>
       <path id="CMR17-29" d="M 1683 1581 
C 1683 2040 1638 2817 1254 3639 
C 947 4303 422 4768 346 4768 
C 326 4768 301 4761 301 4729 
C 301 4717 307 4710 314 4697 
C 621 4378 1402 3568 1402 1584 
C 1402 -407 627 -1217 314 -1537 
C 307 -1549 301 -1556 301 -1568 
C 301 -1600 326 -1600 346 -1600 
C 416 -1600 960 -1128 1274 -426 
C 1594 281 1683 969 1683 1581 
z
" transform="scale(0.015625)"/>
      </defs>
      <use xlink:href="#CMMI12-50" transform="scale(0.996264)"/>
      <use xlink:href="#CMR17-28" transform="translate(76.425821 0) scale(0.996264)"/>
      <use xlink:href="#CMMI12-6b" transform="translate(111.706589 0) scale(0.996264)"/>
      <use xlink:href="#CMR17-29" transform="translate(165.785789 0) scale(0.996264)"/>
     </g>
    </g>
   </g>
   <g id="line2d_53">
    <path d="M 49.506807 7.2 
L 89.488955 14.58884 
L 115.824522 10.856606 
L 135.494817 18.339969 
L 151.201245 27.310966 
L 164.276511 33.887667 
L 175.476965 34.82161 
L 185.273442 37.862327 
L 193.979035 47.000903 
L 201.812533 39.803291 
L 208.932863 43.632522 
L 215.459114 45.453302 
L 221.482828 50.588792 
L 227.075897 56.911294 
L 232.295808 61.919518 
L 237.189255 54.93173 
L 241.794681 60.883604 
L 246.144115 63.95369 
L 250.264522 67.957379 
L 254.17882 70.657325 
L 257.906652 72.353886 
L 261.464976 69.089976 
L 264.868541 69.874006 
L 268.130249 76.15268 
L 271.261453 78.022947 
L 274.272196 75.464798 
L 277.171403 78.156534 
L 279.967046 77.988804 
L 282.666267 82.431564 
L 285.275497 82.496174 
L 287.800544 84.933818 
L 290.24667 87.112793 
L 292.618659 87.963662 
L 294.920874 90.772438 
L 297.157302 92.4752 
L 299.331599 90.092351 
L 301.447124 93.821166 
L 303.506971 91.981643 
L 305.513995 96.917986 
L 307.470839 94.337022 
L 309.37995 94.555281 
L 311.243601 94.518532 
L 313.063908 96.91222 
L 314.84284 99.514223 
L 316.582238 99.890482 
L 318.283819 98.450808 
L 319.949194 98.498655 
L 321.579871 102.566462 
L 323.177266 101.463439 
L 324.742711 100.804221 
L 326.27746 107.053419 
L 327.782692 106.094685 
L 329.259522 106.871837 
L 330.709001 110.779754 
L 332.132125 108.782017 
L 333.529835 109.794969 
L 334.903022 109.495023 
L 336.252533 111.87149 
L 337.579169 111.12466 
L 338.883693 112.43918 
L 340.166831 115.208731 
L 341.429272 116.089624 
L 342.671674 115.580208 
L 343.894662 116.788248 
L 345.098835 116.854743 
L 346.284761 115.896551 
L 347.452987 117.139201 
L 349.738395 120.084744 
L 350.856552 119.780834 
L 351.95896 121.013528 
L 353.046056 120.888871 
L 354.11826 123.747099 
L 355.175974 123.197227 
L 356.219585 123.560855 
L 357.249464 122.662831 
L 358.265967 126.685471 
L 359.269438 123.8183 
L 360.260206 126.199535 
L 361.23859 126.614934 
L 362.204894 128.281465 
L 363.159414 128.690479 
L 364.102434 127.289557 
L 365.034226 129.176322 
L 365.955056 129.526041 
L 366.865179 129.624917 
L 367.76484 130.097048 
L 368.654278 131.078335 
L 369.533721 131.48859 
L 370.403393 134.151984 
L 371.263508 132.977003 
L 372.114273 134.525362 
L 372.955891 133.721537 
L 373.788555 136.039134 
L 374.612453 135.063559 
L 375.42777 134.698476 
L 376.234681 137.995822 
L 377.033358 136.505197 
L 377.823967 138.676738 
L 378.60667 139.043629 
L 379.381624 138.553809 
L 380.148979 139.664877 
L 380.908885 141.031647 
L 381.661484 139.968131 
L 382.406915 141.894384 
L 383.145313 141.122914 
L 383.87681 143.535807 
L 384.601535 143.908449 
L 385.31961 143.647955 
L 386.031157 144.003319 
L 388.127791 146.63387 
L 388.814372 145.15912 
L 389.494982 146.326017 
L 390.169724 147.00405 
L 390.8387 148.441231 
L 392.159738 148.245536 
L 392.811989 149.025602 
L 393.45885 148.374296 
L 394.100408 151.688876 
L 394.73675 151.812741 
L 395.36796 152.488734 
L 395.994121 152.11843 
L 396.615312 152.505968 
L 397.231612 153.153019 
L 397.843097 152.822912 
L 399.051918 155.194459 
L 399.6494 154.727008 
L 400.242355 156.542546 
L 400.830851 157.385332 
L 401.414956 156.804598 
L 401.994734 157.154086 
L 402.570248 159.418877 
L 403.141562 158.303565 
L 403.708736 160.562294 
L 404.27183 159.067838 
L 404.830901 160.830871 
L 405.386007 161.091024 
L 405.937204 159.511941 
L 406.484547 159.869755 
L 407.028088 160.476531 
L 407.567881 162.00993 
L 408.103977 161.973785 
L 408.636426 162.850315 
L 409.165277 164.083973 
L 410.212378 164.103695 
L 410.730722 165.368905 
L 411.245656 165.899953 
L 411.757224 166.69655 
L 412.265471 166.674689 
L 412.770438 168.69278 
L 413.272168 166.37263 
L 413.770703 169.183392 
L 414.266082 168.678186 
L 414.758346 168.927754 
L 415.247533 169.774158 
L 415.733681 171.241101 
L 416.216829 170.630754 
L 416.697012 171.946846 
L 417.174268 169.479456 
L 417.648631 171.390759 
L 418.120136 172.240432 
L 418.588818 173.329558 
L 419.05471 173.081538 
L 419.517846 174.729555 
L 419.978257 175.091371 
L 420.435976 174.404165 
L 420.891033 175.247755 
L 421.34346 176.887132 
L 421.793287 173.869061 
L 422.240543 177.157856 
L 422.685258 177.465663 
L 423.127461 176.349652 
L 423.567179 178.17354 
L 424.004441 179.175817 
L 424.439274 178.831445 
L 424.871704 178.876826 
L 425.301758 178.445396 
L 425.729462 180.650248 
L 426.154842 181.59978 
L 426.577922 180.970519 
L 426.998728 180.744764 
L 427.417283 182.072204 
L 427.833612 182.348576 
L 428.247738 182.161 
L 428.659685 182.680471 
L 429.069475 183.979399 
L 429.47713 184.000078 
L 429.882673 183.4804 
L 430.286126 185.15085 
L 430.68751 185.3314 
L 431.086846 184.772076 
L 431.484154 186.807664 
L 432.272772 186.535434 
L 432.664121 187.850238 
L 433.053523 187.934521 
L 433.440998 187.890975 
L 433.826563 189.154896 
L 434.210239 189.639594 
L 434.971993 188.791651 
L 435.350108 190.102812 
L 436.100902 190.584095 
L 436.473616 191.57939 
L 436.844563 191.517107 
L 437.21376 190.819529 
L 437.94697 194.075166 
L 438.311016 193.910791 
L 438.673376 193.183509 
L 439.034067 195.144467 
L 439.393102 193.675874 
L 439.750499 195.637886 
L 440.10627 195.4688 
L 440.460432 194.850902 
L 440.812999 195.336942 
L 441.163985 196.47594 
L 441.513403 195.55252 
L 441.861269 195.945563 
L 442.552396 198.160145 
L 442.895685 197.714908 
L 443.237474 199.007336 
L 443.577778 197.486282 
L 443.916608 200.126476 
L 444.253978 199.688139 
L 444.5899 199.007414 
L 444.924386 201.178447 
L 445.257449 200.263645 
L 445.5891 200.452804 
L 445.919353 200.30571 
L 446.248217 203.237203 
L 446.575706 201.657494 
L 446.90183 200.890496 
L 447.226601 202.499512 
L 447.550029 202.330462 
L 447.872127 203.081721 
L 448.830543 204.011685 
L 449.147425 203.222642 
L 449.463029 205.648614 
L 449.777365 204.435541 
L 450.090444 205.775388 
L 450.402276 205.718419 
L 450.71287 206.757821 
L 451.022237 206.130756 
L 451.330386 206.168785 
L 451.637326 206.573903 
L 451.943067 206.544483 
L 452.85319 208.493039 
L 453.154227 208.386988 
L 453.454111 208.620303 
L 454.050454 209.521756 
L 454.346931 209.010188 
L 454.936536 210.842672 
L 455.229681 209.820856 
L 455.812698 212.474175 
L 456.102586 211.092806 
L 456.391404 210.843816 
L 456.965863 212.816363 
L 457.251519 212.154558 
L 457.536136 212.383626 
L 457.819722 213.108757 
L 458.102284 212.566823 
L 458.38383 213.576683 
L 458.664367 213.055459 
L 458.943902 214.994967 
L 459.222442 214.12859 
L 459.499994 215.156147 
L 459.776565 214.389781 
L 460.326794 214.69883 
L 460.600464 215.342873 
L 461.415781 216.158048 
L 461.685676 217.217579 
L 461.954644 216.836941 
L 462.489824 218.378648 
L 462.756047 217.249004 
L 463.021368 218.416434 
L 463.285793 218.415628 
L 463.549328 217.478273 
L 464.073749 218.68521 
L 464.334648 218.611194 
L 464.594681 219.005897 
L 464.853852 218.0063 
L 465.112168 219.689099 
L 465.626256 218.743629 
L 465.88204 220.870751 
L 466.13699 219.832317 
L 466.391113 221.098512 
L 466.644413 220.801864 
L 466.896896 221.314817 
L 467.148567 221.484543 
L 467.399431 221.252938 
L 467.649494 223.275559 
L 467.898761 221.657442 
L 468.147236 220.997237 
L 468.394925 222.809233 
L 468.887964 223.779187 
L 469.133324 223.274849 
L 469.377917 223.660224 
L 469.621748 221.312538 
L 469.864821 223.573565 
L 470.107142 224.422671 
L 470.348716 224.281867 
L 470.589546 223.790108 
L 470.829637 223.982217 
L 471.068994 225.310958 
L 471.307621 224.429772 
L 471.545523 224.548741 
L 471.782704 224.911633 
L 472.019168 226.250392 
L 472.25492 224.458432 
L 472.724305 225.972535 
L 472.957946 225.387167 
L 473.190891 226.058052 
L 473.423146 225.740252 
L 473.654713 226.122993 
L 473.885597 225.222817 
L 474.115802 226.27417 
L 474.345332 226.176088 
L 474.574191 226.9707 
L 474.802383 225.41713 
L 475.25678 226.791717 
L 475.482993 225.704414 
L 475.708554 227.545507 
L 475.933467 225.707018 
L 476.157735 226.540377 
L 476.381363 226.789668 
L 476.604354 228.086892 
L 476.826711 226.676116 
L 477.269539 228.733061 
L 477.490017 227.391836 
L 477.709876 226.811716 
L 477.929119 226.779082 
L 478.147749 228.231415 
L 478.365771 226.532867 
L 478.583186 227.495184 
L 478.8 227.9385 
L 478.8 227.9385 
" clip-path="url(#pa707117f2f)" style="fill: none; stroke: #0000ff; stroke-width: 2.5; stroke-linecap: square"/>
   </g>
   <g id="line2d_54">
    <path d="M 49.506807 18.387 
L 89.488955 11.338093 
L 115.824522 18.845103 
L 135.494817 28.844108 
L 151.201245 34.974716 
L 164.276511 37.625381 
L 175.476965 40.447483 
L 185.273442 47.771297 
L 193.979035 42.331816 
L 201.812533 51.385374 
L 208.932863 57.471811 
L 215.459114 57.130025 
L 221.482828 57.65545 
L 227.075897 63.309011 
L 232.295808 59.689782 
L 237.189255 61.424612 
L 241.794681 66.827885 
L 246.144115 61.566492 
L 250.264522 68.518487 
L 254.17882 68.777924 
L 257.906652 69.871985 
L 261.464976 72.214816 
L 264.868541 73.479742 
L 268.130249 79.664771 
L 271.261453 81.503798 
L 274.272196 78.374466 
L 277.171403 81.648786 
L 279.967046 82.991603 
L 282.666267 82.875333 
L 285.275497 86.026047 
L 287.800544 82.822638 
L 290.24667 87.832555 
L 292.618659 87.431599 
L 294.920874 88.578131 
L 297.157302 89.361269 
L 299.331599 89.388811 
L 301.447124 94.891943 
L 303.506971 91.423681 
L 305.513995 94.058218 
L 307.470839 94.193164 
L 309.37995 98.604848 
L 311.243601 95.154556 
L 313.063908 99.435231 
L 314.84284 100.757655 
L 316.582238 98.424495 
L 319.949194 100.691214 
L 321.579871 103.390194 
L 323.177266 104.244267 
L 324.742711 106.257745 
L 326.27746 107.914566 
L 327.782692 109.056609 
L 329.259522 106.745825 
L 330.709001 110.648643 
L 332.132125 108.166523 
L 333.529835 108.955405 
L 334.903022 111.844852 
L 336.252533 109.999178 
L 337.579169 113.161766 
L 338.883693 112.889998 
L 340.166831 113.735892 
L 341.429272 115.640291 
L 342.671674 116.153207 
L 343.894662 115.061179 
L 345.098835 117.079113 
L 346.284761 114.144708 
L 347.452987 118.230856 
L 348.604032 117.505202 
L 349.738395 118.432982 
L 350.856552 118.490164 
L 351.95896 118.754138 
L 353.046056 120.631692 
L 354.11826 120.591727 
L 355.175974 121.340148 
L 356.219585 121.403798 
L 357.249464 123.970475 
L 358.265967 123.680381 
L 359.269438 124.231675 
L 360.260206 125.461573 
L 361.23859 126.861863 
L 362.204894 126.26393 
L 363.159414 125.216354 
L 364.102434 129.11679 
L 365.034226 129.21453 
L 365.955056 129.823489 
L 366.865179 129.537377 
L 367.76484 132.859494 
L 368.654278 131.26993 
L 369.533721 131.97386 
L 370.403393 133.074344 
L 371.263508 132.199021 
L 372.114273 132.848651 
L 372.955891 134.052818 
L 373.788555 136.350056 
L 374.612453 133.823272 
L 375.42777 136.646326 
L 376.234681 137.720126 
L 377.033358 138.106377 
L 377.823967 139.260195 
L 378.60667 139.573541 
L 379.381624 139.475525 
L 380.148979 139.962933 
L 380.908885 140.163068 
L 381.661484 143.043529 
L 382.406915 140.838023 
L 383.145313 144.159291 
L 384.601535 141.598789 
L 385.31961 143.344772 
L 386.031157 145.552248 
L 386.736294 144.123781 
L 387.435135 146.012375 
L 388.127791 146.965019 
L 388.814372 145.388607 
L 389.494982 147.188718 
L 390.169724 148.446257 
L 390.8387 146.904392 
L 391.502006 148.737644 
L 392.159738 148.185807 
L 392.811989 149.033402 
L 393.45885 148.49115 
L 394.100408 150.082079 
L 394.73675 149.865456 
L 395.36796 153.045979 
L 395.994121 150.874247 
L 396.615312 151.185879 
L 397.231612 151.735984 
L 397.843097 151.60253 
L 398.449841 152.412887 
L 399.051918 152.267391 
L 399.6494 154.44785 
L 400.242355 153.288697 
L 400.830851 152.934952 
L 401.414956 155.034358 
L 401.994734 154.521659 
L 402.570248 155.179342 
L 403.141562 156.956516 
L 403.708736 156.020336 
L 404.27183 155.363279 
L 405.386007 158.268661 
L 405.937204 159.249547 
L 406.484547 157.476719 
L 407.028088 159.633777 
L 408.103977 160.017866 
L 408.636426 159.990815 
L 409.165277 162.105295 
L 409.690579 162.0031 
L 410.212378 162.525125 
L 410.730722 162.314435 
L 411.245656 163.867366 
L 411.757224 163.133702 
L 412.265471 163.362525 
L 412.770438 164.07195 
L 413.272168 164.514825 
L 413.770703 164.773259 
L 414.266082 165.616319 
L 414.758346 164.950302 
L 415.733681 167.194114 
L 416.216829 168.135895 
L 416.697012 167.598908 
L 417.174268 167.322722 
L 417.648631 168.074255 
L 418.120136 168.116898 
L 418.588818 170.46289 
L 419.05471 168.844391 
L 419.517846 170.912941 
L 419.978257 170.836441 
L 420.435976 171.053499 
L 420.891033 171.694598 
L 421.34346 172.824433 
L 421.793287 172.508726 
L 422.240543 171.822898 
L 422.685258 172.658493 
L 423.127461 172.235869 
L 423.567179 173.710407 
L 424.004441 173.818892 
L 424.439274 175.005428 
L 424.871704 174.615689 
L 425.301758 175.744144 
L 425.729462 174.720367 
L 426.154842 176.592395 
L 426.577922 175.729509 
L 426.998728 176.747812 
L 427.417283 176.659215 
L 427.833612 177.524249 
L 428.247738 177.525666 
L 428.659685 177.394096 
L 429.069475 178.731243 
L 429.47713 178.599007 
L 429.882673 179.440229 
L 430.286126 179.672577 
L 430.68751 180.292156 
L 431.086846 179.096037 
L 431.484154 180.678347 
L 431.879456 180.889097 
L 432.272772 180.798173 
L 432.664121 181.593912 
L 433.053523 181.678467 
L 433.440998 182.848507 
L 433.826563 181.761892 
L 434.210239 183.194212 
L 434.592043 183.949043 
L 434.971993 183.57936 
L 435.726406 184.147513 
L 436.100902 185.45556 
L 436.473616 184.962413 
L 436.844563 186.010983 
L 437.21376 185.890485 
L 437.581224 186.980562 
L 437.94697 186.083057 
L 439.034067 188.738426 
L 439.393102 188.365592 
L 439.750499 189.054356 
L 440.10627 187.997768 
L 440.812999 189.678052 
L 441.163985 189.1198 
L 441.513403 188.94291 
L 441.861269 190.087595 
L 442.207596 190.830695 
L 442.552396 190.313084 
L 442.895685 191.532374 
L 443.237474 191.309363 
L 443.577778 191.340421 
L 443.916608 192.037425 
L 444.253978 192.057484 
L 444.5899 192.558987 
L 444.924386 193.452116 
L 445.257449 193.419107 
L 445.5891 193.668775 
L 445.919353 193.440607 
L 446.248217 195.086591 
L 446.575706 193.820154 
L 446.90183 195.023752 
L 447.226601 194.649438 
L 447.550029 195.48815 
L 447.872127 193.88556 
L 448.192905 196.176586 
L 448.512373 196.320424 
L 448.830543 197.224634 
L 449.147425 196.224902 
L 449.463029 197.948173 
L 449.777365 197.204361 
L 450.090444 198.073838 
L 450.402276 197.510202 
L 450.71287 198.377485 
L 451.022237 197.945951 
L 451.330386 198.90141 
L 451.637326 198.338427 
L 451.943067 199.615064 
L 452.247619 199.526945 
L 452.55099 199.098185 
L 452.85319 201.329895 
L 453.154227 200.644735 
L 453.752851 201.516262 
L 454.050454 200.760583 
L 454.346931 202.311949 
L 454.642288 202.20452 
L 454.936536 202.683926 
L 455.229681 202.71416 
L 455.521732 201.950919 
L 455.812698 203.552577 
L 456.102586 203.528551 
L 456.391404 203.359779 
L 456.67916 203.513396 
L 456.965863 204.833623 
L 457.251519 204.900693 
L 457.536136 203.797147 
L 457.819722 206.50584 
L 458.664367 205.435706 
L 458.943902 206.858487 
L 459.222442 207.280742 
L 459.499994 207.433287 
L 459.776565 207.276081 
L 460.052163 207.98028 
L 460.600464 208.533356 
L 460.873181 208.162922 
L 461.144951 210.066943 
L 461.415781 209.828328 
L 461.685676 210.138772 
L 461.954644 208.778662 
L 462.222691 210.059099 
L 462.756047 211.050873 
L 463.021368 210.757706 
L 463.285793 211.563924 
L 463.549328 211.979331 
L 463.811978 212.009535 
L 464.073749 213.017299 
L 464.334648 211.883542 
L 464.594681 213.042957 
L 465.112168 213.518059 
L 465.369634 212.791639 
L 465.626256 213.941867 
L 466.13699 214.404855 
L 466.391113 213.928812 
L 466.644413 214.207802 
L 466.896896 215.033819 
L 467.148567 215.169316 
L 467.399431 215.430784 
L 467.649494 215.107464 
L 468.147236 216.787233 
L 468.394925 216.252406 
L 468.641833 217.426827 
L 468.887964 216.248113 
L 469.133324 217.481792 
L 469.377917 218.023261 
L 469.621748 216.814437 
L 469.864821 216.942074 
L 470.348716 219.164693 
L 470.829637 217.848861 
L 471.068994 220.758186 
L 471.307621 219.043175 
L 471.545523 219.29951 
L 471.782704 220.028524 
L 472.019168 219.840231 
L 472.489964 220.012573 
L 472.724305 221.993353 
L 472.957946 220.069269 
L 473.190891 220.879351 
L 473.423146 222.37704 
L 473.885597 220.602455 
L 474.115802 222.354804 
L 474.345332 222.722937 
L 474.574191 221.571667 
L 474.802383 222.117795 
L 475.029911 223.274219 
L 475.25678 222.284613 
L 475.482993 221.840885 
L 475.708554 223.486347 
L 475.933467 222.955028 
L 476.157735 223.30068 
L 476.381363 222.484807 
L 476.604354 224.207493 
L 477.048438 223.650964 
L 477.269539 224.063813 
L 477.490017 223.092173 
L 477.929119 224.348104 
L 478.147749 223.83046 
L 478.365771 223.795082 
L 478.8 226.044949 
L 478.8 226.044949 
" clip-path="url(#pa707117f2f)" style="fill: none; stroke: #ff0000; stroke-width: 2.5; stroke-linecap: square"/>
   </g>
   <g id="line2d_55">
    <path d="M 49.506807 9.778331 
L 89.488955 13.633562 
L 115.824522 11.446412 
L 135.494817 18.570915 
L 151.201245 31.495437 
L 164.276511 33.934808 
L 175.476965 35.17891 
L 185.273442 37.978377 
L 193.979035 49.010958 
L 201.812533 40.043439 
L 208.932863 44.382614 
L 215.459114 46.462303 
L 221.482828 50.993474 
L 227.075897 56.042142 
L 232.295808 59.445063 
L 237.189255 56.021225 
L 241.794681 59.74737 
L 246.144115 64.214975 
L 250.264522 66.390596 
L 254.17882 69.595359 
L 257.906652 71.221447 
L 261.464976 68.732035 
L 264.868541 68.546943 
L 268.130249 76.423006 
L 271.261453 76.491994 
L 274.272196 76.973154 
L 277.171403 77.581339 
L 279.967046 76.666171 
L 282.666267 81.949886 
L 285.275497 82.09121 
L 287.800544 82.826481 
L 290.24667 86.968124 
L 292.618659 86.971917 
L 294.920874 88.400529 
L 297.157302 91.571718 
L 299.331599 89.454355 
L 301.447124 93.903012 
L 303.506971 91.165203 
L 305.513995 95.339589 
L 307.470839 91.328756 
L 309.37995 92.954294 
L 311.243601 93.687109 
L 313.063908 94.927262 
L 314.84284 97.393004 
L 316.582238 97.006046 
L 318.283819 96.184341 
L 319.949194 97.398116 
L 321.579871 103.256658 
L 323.177266 101.525402 
L 324.742711 100.786639 
L 326.27746 103.445812 
L 327.782692 104.710133 
L 329.259522 103.617326 
L 330.709001 108.11905 
L 332.132125 107.651766 
L 333.529835 107.804734 
L 334.903022 107.613479 
L 336.252533 110.097683 
L 337.579169 110.796013 
L 338.883693 110.867578 
L 340.166831 112.230569 
L 341.429272 112.986369 
L 342.671674 113.59427 
L 343.894662 113.804684 
L 346.284761 113.223729 
L 347.452987 115.486177 
L 348.604032 115.348033 
L 349.738395 116.452549 
L 350.856552 116.82778 
L 351.95896 118.787092 
L 353.046056 118.188181 
L 354.11826 121.289357 
L 355.175974 120.592454 
L 356.219585 121.118254 
L 357.249464 119.807871 
L 358.265967 123.654796 
L 359.269438 121.6763 
L 360.260206 123.542335 
L 361.23859 124.347036 
L 362.204894 124.052777 
L 363.159414 126.664944 
L 364.102434 125.824516 
L 365.034226 127.16447 
L 365.955056 126.387022 
L 366.865179 127.085225 
L 367.76484 128.572125 
L 368.654278 128.517514 
L 369.533721 128.860879 
L 370.403393 131.321755 
L 371.263508 131.167256 
L 372.114273 132.627847 
L 372.955891 131.842028 
L 373.788555 133.875838 
L 374.612453 132.446581 
L 375.42777 133.244692 
L 376.234681 135.177407 
L 377.033358 135.263643 
L 377.823967 135.844226 
L 378.60667 137.359078 
L 379.381624 136.885052 
L 380.148979 136.893845 
L 380.908885 138.237391 
L 381.661484 137.299423 
L 382.406915 140.439008 
L 383.145313 139.817986 
L 383.87681 141.364943 
L 384.601535 141.720083 
L 385.31961 142.333113 
L 386.031157 141.631881 
L 386.736294 143.034287 
L 387.435135 143.286758 
L 388.127791 144.786868 
L 388.814372 143.135272 
L 389.494982 143.483778 
L 390.169724 145.361684 
L 390.8387 145.309414 
L 391.502006 144.601807 
L 392.159738 145.708998 
L 392.811989 146.478682 
L 393.45885 145.691576 
L 394.100408 148.456186 
L 395.36796 149.05775 
L 395.994121 149.14209 
L 396.615312 149.050134 
L 397.231612 150.457333 
L 397.843097 150.13273 
L 398.449841 151.286537 
L 399.051918 152.965448 
L 399.6494 151.675071 
L 400.242355 154.74771 
L 400.830851 154.616419 
L 401.414956 155.414625 
L 401.994734 155.74709 
L 402.570248 156.325927 
L 403.141562 156.173451 
L 403.708736 157.926355 
L 404.27183 155.782884 
L 404.830901 159.091701 
L 405.386007 158.368302 
L 405.937204 158.003018 
L 406.484547 157.021519 
L 407.567881 159.180826 
L 408.103977 159.202495 
L 408.636426 160.639272 
L 409.165277 161.442624 
L 409.690579 161.909025 
L 410.212378 161.713765 
L 410.730722 163.876662 
L 411.245656 163.799784 
L 411.757224 164.867116 
L 412.265471 164.896786 
L 412.770438 165.670646 
L 413.272168 164.680933 
L 413.770703 166.489461 
L 414.266082 165.740946 
L 414.758346 166.943562 
L 415.247533 167.297954 
L 415.733681 168.385931 
L 416.216829 168.361803 
L 416.697012 169.381693 
L 417.174268 167.086205 
L 417.648631 169.270444 
L 418.588818 171.438162 
L 419.05471 171.193615 
L 419.517846 172.590717 
L 419.978257 172.561848 
L 420.435976 172.183417 
L 420.891033 172.82289 
L 421.34346 173.934776 
L 421.793287 171.754959 
L 422.240543 175.463699 
L 422.685258 174.959489 
L 423.127461 174.648083 
L 423.567179 175.897083 
L 424.004441 178.073948 
L 424.439274 176.80601 
L 424.871704 176.430313 
L 425.301758 175.739122 
L 426.154842 179.78334 
L 426.577922 178.629959 
L 426.998728 178.961972 
L 427.417283 179.630512 
L 427.833612 180.528942 
L 428.247738 180.076226 
L 428.659685 180.232195 
L 429.069475 181.477816 
L 429.47713 181.938725 
L 429.882673 180.900107 
L 430.286126 183.375512 
L 430.68751 183.255623 
L 431.086846 183.57149 
L 431.484154 184.389746 
L 431.879456 183.716145 
L 432.272772 184.765785 
L 432.664121 184.769282 
L 433.053523 185.82412 
L 433.440998 186.059413 
L 433.826563 187.259245 
L 434.210239 187.778019 
L 434.592043 186.312606 
L 434.971993 186.838342 
L 435.350108 188.111944 
L 435.726406 188.501177 
L 436.100902 188.45298 
L 436.473616 189.577413 
L 436.844563 189.070827 
L 437.21376 188.902679 
L 437.581224 189.483139 
L 437.94697 191.867204 
L 438.673376 191.305322 
L 439.034067 192.411418 
L 439.393102 192.058413 
L 439.750499 193.126696 
L 440.10627 193.440855 
L 440.460432 192.381924 
L 440.812999 193.077754 
L 441.163985 194.405981 
L 441.513403 193.341642 
L 441.861269 194.03467 
L 442.207596 195.210099 
L 442.552396 195.637153 
L 442.895685 195.687806 
L 443.237474 197.247811 
L 443.577778 195.314829 
L 443.916608 198.172022 
L 444.5899 197.14041 
L 444.924386 199.0845 
L 445.257449 197.843273 
L 445.5891 198.273648 
L 445.919353 198.9099 
L 446.248217 200.749213 
L 446.90183 198.901856 
L 447.226601 200.646025 
L 447.550029 200.50277 
L 447.872127 202.067742 
L 448.192905 201.688245 
L 448.512373 201.757097 
L 448.830543 202.370553 
L 449.147425 201.514516 
L 449.463029 203.608432 
L 449.777365 202.850643 
L 450.090444 203.845214 
L 450.402276 203.886191 
L 450.71287 205.283756 
L 451.022237 204.741689 
L 451.330386 204.91031 
L 451.637326 205.311841 
L 451.943067 204.89599 
L 452.247619 205.939477 
L 452.55099 205.884899 
L 452.85319 206.531765 
L 453.154227 206.679194 
L 453.454111 206.643798 
L 454.050454 208.198993 
L 454.346931 208.139335 
L 454.642288 208.557769 
L 454.936536 208.756956 
L 455.229681 208.146657 
L 455.812698 210.306733 
L 456.391404 209.147289 
L 456.67916 209.581174 
L 456.965863 211.1097 
L 457.251519 210.395364 
L 457.536136 210.840404 
L 457.819722 211.554049 
L 458.102284 210.48795 
L 458.38383 211.577924 
L 458.664367 211.288839 
L 458.943902 213.258349 
L 459.222442 212.190242 
L 459.499994 213.443227 
L 459.776565 213.175401 
L 460.052163 212.57289 
L 460.600464 213.804304 
L 460.873181 213.79257 
L 461.144951 214.015365 
L 461.685676 215.607459 
L 461.954644 215.271251 
L 462.222691 216.505013 
L 462.756047 216.153334 
L 463.021368 217.301697 
L 463.285793 217.14009 
L 463.549328 216.289233 
L 463.811978 216.653521 
L 464.073749 217.47336 
L 464.334648 217.350981 
L 464.594681 217.890927 
L 464.853852 216.73427 
L 465.112168 218.080282 
L 465.369634 218.336836 
L 465.626256 218.095321 
L 465.88204 219.92445 
L 466.13699 218.459476 
L 466.391113 220.043021 
L 466.644413 219.940408 
L 466.896896 220.124307 
L 467.148567 220.456052 
L 467.399431 220.203241 
L 467.649494 222.157606 
L 467.898761 220.603686 
L 468.147236 219.861533 
L 468.394925 221.543598 
L 468.887964 222.556202 
L 469.133324 221.983258 
L 469.377917 223.042668 
L 469.621748 220.620087 
L 470.107142 223.230841 
L 470.348716 223.450746 
L 470.589546 223.093011 
L 470.829637 222.960107 
L 471.068994 224.202963 
L 471.307621 223.113058 
L 471.545523 223.136029 
L 471.782704 223.38749 
L 472.019168 224.814879 
L 472.25492 223.172558 
L 472.489964 224.652293 
L 472.724305 224.772755 
L 472.957946 224.617926 
L 473.190891 225.307595 
L 473.423146 224.78022 
L 473.654713 224.930154 
L 473.885597 224.39729 
L 474.115802 225.379135 
L 474.345332 225.471113 
L 474.574191 226.145023 
L 474.802383 224.531799 
L 475.029911 225.032117 
L 475.25678 226.00228 
L 475.482993 224.775453 
L 475.708554 226.286518 
L 475.933467 224.587007 
L 476.157735 225.610609 
L 476.381363 225.952889 
L 476.604354 227.138215 
L 476.826711 226.024033 
L 477.269539 227.481057 
L 477.490017 226.350185 
L 477.709876 226.276959 
L 477.929119 226.03974 
L 478.147749 227.485259 
L 478.365771 225.319051 
L 478.583186 226.61562 
L 478.8 227.205813 
L 478.8 227.205813 
" clip-path="url(#pa707117f2f)" style="fill: none; stroke: #008000; stroke-width: 2.5; stroke-linecap: square"/>
   </g>
   <g id="line2d_56">
    <path d="M 131.259404 -1 
L 478.8 185.956196 
L 478.8 185.956196 
" clip-path="url(#pa707117f2f)" style="fill: none; stroke-dasharray: 14.8,6.4; stroke-dashoffset: 0; stroke: #000000; stroke-width: 4"/>
   </g>
   <g id="patch_3">
    <path d="M 49.506807 228.733061 
L 49.506807 7.2 
" style="fill: none; stroke: #000000; stroke-linejoin: miter; stroke-linecap: square"/>
   </g>
   <g id="patch_4">
    <path d="M 478.8 228.733061 
L 478.8 7.2 
" style="fill: none; stroke: #000000; stroke-linejoin: miter; stroke-linecap: square"/>
   </g>
   <g id="patch_5">
    <path d="M 49.506807 228.733061 
L 478.8 228.733061 
" style="fill: none; stroke: #000000; stroke-linejoin: miter; stroke-linecap: square"/>
   </g>
   <g id="patch_6">
    <path d="M 49.506807 7.2 
L 478.8 7.2 
" style="fill: none; stroke: #000000; stroke-linejoin: miter; stroke-linecap: square"/>
   </g>
   <g id="legend_1">
    <g id="line2d_57">
     <path d="M 63.006807 144.360082 
L 78.006807 144.360082 
L 93.006807 144.360082 
" style="fill: none; stroke: #0000ff; stroke-width: 2.5; stroke-linecap: square"/>
    </g>
    <g id="text_10">
     <!-- $M_s=1, M_A=0.8$ -->
     <g transform="translate(105.006807 149.610082) scale(0.15 -0.15)">
      <defs>
       <path id="CMMI12-4d" d="M 5811 3886 
C 5869 4103 5882 4167 6336 4167 
C 6458 4167 6515 4167 6515 4288 
C 6515 4352 6470 4352 6349 4352 
L 5581 4352 
C 5421 4352 5414 4346 5344 4243 
L 3008 562 
L 2528 4211 
C 2509 4352 2502 4352 2336 4352 
L 1542 4352 
C 1421 4352 1363 4352 1363 4231 
C 1363 4167 1421 4167 1517 4167 
C 1907 4167 1907 4116 1907 4046 
C 1907 4034 1907 3995 1882 3899 
L 1062 634 
C 986 327 838 186 410 186 
C 390 186 314 186 314 73 
C 314 0 371 0 397 0 
C 525 0 851 0 979 0 
L 1286 0 
C 1376 0 1485 0 1574 0 
C 1619 0 1690 0 1690 122 
C 1690 180 1626 186 1600 186 
C 1389 186 1184 224 1184 454 
C 1184 518 1184 524 1210 613 
L 2093 4129 
L 2099 4129 
L 2630 172 
C 2650 19 2656 0 2714 0 
C 2784 0 2816 51 2848 109 
L 5421 4161 
L 5427 4161 
L 4499 473 
C 4442 250 4429 186 3981 186 
C 3859 186 3795 186 3795 70 
C 3795 0 3853 0 3891 0 
C 4000 0 4128 0 4237 0 
L 4992 0 
C 5101 0 5235 0 5344 0 
C 5395 0 5466 0 5466 122 
C 5466 186 5408 186 5312 186 
C 4922 186 4922 234 4922 294 
C 4922 301 4922 345 4934 396 
L 5811 3886 
z
" transform="scale(0.015625)"/>
       <path id="CMMI12-73" d="M 1459 1280 
C 1568 1261 1741 1223 1779 1216 
C 1862 1192 2150 1090 2150 783 
C 2150 586 1971 70 1229 70 
C 1094 70 614 70 486 436 
C 742 404 870 603 870 745 
C 870 880 781 950 653 950 
C 512 950 326 841 326 552 
C 326 173 710 -64 1222 -64 
C 2195 -64 2483 651 2483 984 
C 2483 1079 2483 1258 2278 1462 
C 2118 1616 1965 1648 1619 1718 
C 1446 1756 1171 1814 1171 2101 
C 1171 2229 1286 2689 1894 2689 
C 2163 2689 2426 2589 2490 2368 
C 2208 2368 2195 2125 2195 2119 
C 2195 1984 2317 1946 2374 1946 
C 2464 1946 2643 2015 2643 2281 
C 2643 2545 2400 2816 1901 2816 
C 1062 2816 838 2160 838 1899 
C 838 1414 1312 1312 1459 1280 
z
" transform="scale(0.015625)"/>
       <path id="CMR17-3d" d="M 4115 2017 
C 4211 2017 4307 2017 4307 2125 
C 4307 2240 4198 2240 4090 2240 
L 512 2240 
C 403 2240 294 2240 294 2125 
C 294 2017 390 2017 486 2017 
L 4115 2017 
z
M 4090 896 
C 4198 896 4307 896 4307 1011 
C 4307 1119 4211 1119 4115 1119 
L 486 1119 
C 390 1119 294 1119 294 1011 
C 294 896 403 896 512 896 
L 4090 896 
z
" transform="scale(0.015625)"/>
       <path id="CMMI12-3b" d="M 1248 -31 
C 1248 343 1126 619 864 619 
C 659 619 557 453 557 313 
C 557 172 653 0 870 0 
C 954 0 1024 26 1082 83 
C 1094 96 1101 96 1107 96 
C 1120 96 1120 5 1120 -27 
C 1120 -240 1082 -659 710 -1080 
C 640 -1157 640 -1170 640 -1183 
C 640 -1216 672 -1248 704 -1248 
C 755 -1248 1248 -771 1248 -31 
z
" transform="scale(0.015625)"/>
       <path id="CMMI12-41" d="M 1088 691 
C 864 314 646 186 339 186 
C 269 180 218 180 218 58 
C 218 24 250 0 294 0 
C 410 0 698 0 813 0 
C 998 0 1203 0 1382 0 
C 1421 0 1498 0 1498 122 
C 1498 180 1446 186 1408 186 
C 1261 186 1139 236 1139 388 
C 1139 476 1178 546 1261 685 
L 1747 1479 
L 3379 1479 
C 3386 1423 3386 1373 3392 1316 
C 3411 1152 3488 495 3488 376 
C 3488 186 3162 186 3059 186 
C 2989 186 2918 186 2918 70 
C 2918 0 2976 0 3014 0 
C 3123 0 3251 0 3360 0 
L 3725 0 
C 4115 0 4397 0 4403 0 
C 4448 0 4518 0 4518 122 
C 4518 186 4461 186 4365 186 
C 4013 186 4006 244 3987 434 
L 3597 4404 
C 3584 4531 3558 4544 3488 4544 
C 3424 4544 3386 4531 3328 4435 
L 1088 691 
z
M 1856 1664 
L 3142 3819 
L 3360 1664 
L 1856 1664 
z
" transform="scale(0.015625)"/>
       <path id="CMMI12-3a" d="M 1178 307 
C 1178 492 1024 619 870 619 
C 685 619 557 466 557 313 
C 557 128 710 0 864 0 
C 1050 0 1178 153 1178 307 
z
" transform="scale(0.015625)"/>
       <path id="CMR17-38" d="M 1741 2264 
C 2144 2467 2554 2773 2554 3263 
C 2554 3841 1990 4179 1472 4179 
C 890 4179 378 3759 378 3180 
C 378 3021 416 2747 666 2505 
C 730 2442 998 2251 1171 2130 
C 883 1983 211 1634 211 934 
C 211 279 838 -128 1459 -128 
C 2144 -128 2720 362 2720 1010 
C 2720 1590 2330 1857 2074 2029 
L 1741 2264 
z
M 902 2822 
C 851 2854 595 3051 595 3351 
C 595 3739 998 4032 1459 4032 
C 1965 4032 2336 3676 2336 3262 
C 2336 2669 1670 2331 1638 2331 
C 1632 2331 1626 2331 1574 2370 
L 902 2822 
z
M 2080 1519 
C 2176 1449 2483 1240 2483 851 
C 2483 381 2010 25 1472 25 
C 890 25 448 438 448 940 
C 448 1443 838 1862 1280 2060 
L 2080 1519 
z
" transform="scale(0.015625)"/>
      </defs>
      <use xlink:href="#CMMI12-4d" transform="scale(0.996264)"/>
      <use xlink:href="#CMMI12-73" transform="translate(94.373425 -14.943915) scale(0.697382)"/>
      <use xlink:href="#CMR17-3d" transform="translate(154.710455 0) scale(0.996264)"/>
      <use xlink:href="#CMR17-31" transform="translate(254.099252 0) scale(0.996264)"/>
      <use xlink:href="#CMMI12-3b" transform="translate(299.789729 0) scale(0.996264)"/>
      <use xlink:href="#CMMI12-4d" transform="translate(343.491311 0) scale(0.996264)"/>
      <use xlink:href="#CMMI12-41" transform="translate(437.864736 -14.943915) scale(0.697382)"/>
      <use xlink:href="#CMR17-3d" transform="translate(517.226173 0) scale(0.996264)"/>
      <use xlink:href="#CMR17-30" transform="translate(616.61497 0) scale(0.996264)"/>
      <use xlink:href="#CMMI12-3a" transform="translate(662.305448 0) scale(0.996264)"/>
      <use xlink:href="#CMR17-38" transform="translate(689.402625 0) scale(0.996264)"/>
     </g>
    </g>
    <g id="line2d_58">
     <path d="M 63.006807 165.265827 
L 78.006807 165.265827 
L 93.006807 165.265827 
" style="fill: none; stroke: #ff0000; stroke-width: 2.5; stroke-linecap: square"/>
    </g>
    <g id="text_11">
     <!-- $M_s=10, M_A=0.8, t=0.25$ -->
     <g transform="translate(105.006807 170.515827) scale(0.15 -0.15)">
      <defs>
       <path id="CMMI12-74" d="M 1286 2566 
L 1875 2566 
C 1997 2566 2061 2566 2061 2681 
C 2061 2752 2022 2752 1894 2752 
L 1331 2752 
L 1568 3692 
C 1594 3781 1594 3794 1594 3840 
C 1594 3943 1510 4000 1427 4000 
C 1376 4000 1229 3981 1178 3775 
L 928 2752 
L 326 2752 
C 198 2752 141 2752 141 2630 
C 141 2566 186 2566 307 2566 
L 877 2566 
L 454 881 
C 403 658 384 594 384 511 
C 384 211 595 -64 954 -64 
C 1600 -64 1946 868 1946 912 
C 1946 951 1920 970 1882 970 
C 1869 970 1843 970 1830 944 
C 1824 938 1818 931 1773 829 
C 1638 511 1344 64 973 64 
C 781 64 768 224 768 364 
C 768 370 768 492 787 568 
L 1286 2566 
z
" transform="scale(0.015625)"/>
      </defs>
      <use xlink:href="#CMMI12-4d" transform="scale(0.996264)"/>
      <use xlink:href="#CMMI12-73" transform="translate(94.373425 -14.943915) scale(0.697382)"/>
      <use xlink:href="#CMR17-3d" transform="translate(154.710455 0) scale(0.996264)"/>
      <use xlink:href="#CMR17-31" transform="translate(254.099252 0) scale(0.996264)"/>
      <use xlink:href="#CMR17-30" transform="translate(299.789729 0) scale(0.996264)"/>
      <use xlink:href="#CMMI12-3b" transform="translate(345.480206 0) scale(0.996264)"/>
      <use xlink:href="#CMMI12-4d" transform="translate(389.181788 0) scale(0.996264)"/>
      <use xlink:href="#CMMI12-41" transform="translate(483.555213 -14.943915) scale(0.697382)"/>
      <use xlink:href="#CMR17-3d" transform="translate(562.91665 0) scale(0.996264)"/>
      <use xlink:href="#CMR17-30" transform="translate(662.305448 0) scale(0.996264)"/>
      <use xlink:href="#CMMI12-3a" transform="translate(707.995925 0) scale(0.996264)"/>
      <use xlink:href="#CMR17-38" transform="translate(735.093102 0) scale(0.996264)"/>
      <use xlink:href="#CMMI12-3b" transform="translate(780.783579 0) scale(0.996264)"/>
      <use xlink:href="#CMMI12-74" transform="translate(824.485161 0) scale(0.996264)"/>
      <use xlink:href="#CMR17-3d" transform="translate(887.3855 0) scale(0.996264)"/>
      <use xlink:href="#CMR17-30" transform="translate(986.774297 0) scale(0.996264)"/>
      <use xlink:href="#CMMI12-3a" transform="translate(1032.464774 0) scale(0.996264)"/>
      <use xlink:href="#CMR17-32" transform="translate(1059.561952 0) scale(0.996264)"/>
      <use xlink:href="#CMR17-35" transform="translate(1105.252429 0) scale(0.996264)"/>
     </g>
    </g>
    <g id="line2d_59">
     <path d="M 63.006807 186.171572 
L 78.006807 186.171572 
L 93.006807 186.171572 
" style="fill: none; stroke: #008000; stroke-width: 2.5; stroke-linecap: square"/>
    </g>
    <g id="text_12">
     <!-- $M_s=10, M_A=0.8, t=0.25$ \&amp; $M_s=1, M_A=0.8$ -->
     <g transform="translate(105.006807 191.421572) scale(0.15 -0.15)">
      <defs>
       <path id="CMR17-26" d="M 429 1327 
C 288 1169 211 992 211 782 
C 211 264 704 -128 1306 -128 
C 1907 -128 2291 240 2419 361 
C 2592 202 2944 -128 3456 -128 
C 3910 -128 4294 214 4307 740 
L 4192 740 
C 4179 247 3763 38 3482 38 
C 3104 38 2790 411 2637 588 
C 2758 733 2963 980 3386 1732 
C 3507 1941 3686 2257 3782 2339 
C 3872 2415 4019 2522 4339 2522 
L 4339 2694 
C 4218 2688 3949 2688 3821 2688 
C 3629 2688 3328 2688 3142 2688 
L 3142 2522 
C 3354 2522 3526 2434 3526 2264 
C 3526 2163 3379 1917 3104 1463 
C 3008 1300 2784 928 2560 683 
C 2464 803 1830 1606 1517 2421 
C 2176 3211 2246 3499 2246 3703 
C 2246 3958 2163 4480 1747 4480 
C 1370 4480 979 4136 979 3518 
C 979 3193 1030 2792 1222 2238 
L 429 1327 
z
M 1478 2543 
C 1357 2875 1286 3295 1286 3639 
C 1286 4200 1549 4378 1754 4378 
C 2112 4378 2131 3805 2131 3709 
C 2131 3486 2016 3168 1478 2543 
z
M 1267 2143 
C 1581 1436 2035 793 2336 449 
C 2022 158 1677 38 1363 38 
C 845 38 621 563 621 978 
C 621 1239 704 1500 870 1691 
L 1267 2143 
z
" transform="scale(0.015625)"/>
      </defs>
      <use xlink:href="#CMMI12-4d" transform="scale(0.996264)"/>
      <use xlink:href="#CMMI12-73" transform="translate(94.373425 -14.943915) scale(0.697382)"/>
      <use xlink:href="#CMR17-3d" transform="translate(154.710455 0) scale(0.996264)"/>
      <use xlink:href="#CMR17-31" transform="translate(254.099252 0) scale(0.996264)"/>
      <use xlink:href="#CMR17-30" transform="translate(299.789729 0) scale(0.996264)"/>
      <use xlink:href="#CMMI12-3b" transform="translate(345.480206 0) scale(0.996264)"/>
      <use xlink:href="#CMMI12-4d" transform="translate(389.181788 0) scale(0.996264)"/>
      <use xlink:href="#CMMI12-41" transform="translate(483.555213 -14.943915) scale(0.697382)"/>
      <use xlink:href="#CMR17-3d" transform="translate(562.91665 0) scale(0.996264)"/>
      <use xlink:href="#CMR17-30" transform="translate(662.305448 0) scale(0.996264)"/>
      <use xlink:href="#CMMI12-3a" transform="translate(707.995925 0) scale(0.996264)"/>
      <use xlink:href="#CMR17-38" transform="translate(735.093102 0) scale(0.996264)"/>
      <use xlink:href="#CMMI12-3b" transform="translate(780.783579 0) scale(0.996264)"/>
      <use xlink:href="#CMMI12-74" transform="translate(824.485161 0) scale(0.996264)"/>
      <use xlink:href="#CMR17-3d" transform="translate(887.3855 0) scale(0.996264)"/>
      <use xlink:href="#CMR17-30" transform="translate(986.774297 0) scale(0.996264)"/>
      <use xlink:href="#CMMI12-3a" transform="translate(1032.464774 0) scale(0.996264)"/>
      <use xlink:href="#CMR17-32" transform="translate(1059.561952 0) scale(0.996264)"/>
      <use xlink:href="#CMR17-35" transform="translate(1105.252429 0) scale(0.996264)"/>
      <use xlink:href="#CMR17-26" transform="translate(1181.018872 0) scale(0.996264)"/>
      <use xlink:href="#CMMI12-4d" transform="translate(1282.809627 0) scale(0.996264)"/>
      <use xlink:href="#CMMI12-73" transform="translate(1377.183052 -14.943915) scale(0.697382)"/>
      <use xlink:href="#CMR17-3d" transform="translate(1437.520082 0) scale(0.996264)"/>
      <use xlink:href="#CMR17-31" transform="translate(1536.908879 0) scale(0.996264)"/>
      <use xlink:href="#CMMI12-3b" transform="translate(1582.599356 0) scale(0.996264)"/>
      <use xlink:href="#CMMI12-4d" transform="translate(1626.300938 0) scale(0.996264)"/>
      <use xlink:href="#CMMI12-41" transform="translate(1720.674363 -14.943915) scale(0.697382)"/>
      <use xlink:href="#CMR17-3d" transform="translate(1800.0358 0) scale(0.996264)"/>
      <use xlink:href="#CMR17-30" transform="translate(1899.424597 0) scale(0.996264)"/>
      <use xlink:href="#CMMI12-3a" transform="translate(1945.115074 0) scale(0.996264)"/>
      <use xlink:href="#CMR17-38" transform="translate(1972.212252 0) scale(0.996264)"/>
     </g>
    </g>
    <g id="line2d_60">
     <path d="M 63.006807 207.077316 
L 78.006807 207.077316 
L 93.006807 207.077316 
" style="fill: none; stroke-dasharray: 14.8,6.4; stroke-dashoffset: 0; stroke: #000000; stroke-width: 4"/>
    </g>
    <g id="text_13">
     <!-- $k^{-11/3}$ -->
     <g transform="translate(105.006807 212.327316) scale(0.15 -0.15)">
      <defs>
       <path id="CMSY10-0" d="M 4218 1472 
C 4326 1472 4442 1472 4442 1600 
C 4442 1728 4326 1728 4218 1728 
L 755 1728 
C 646 1728 531 1728 531 1600 
C 531 1472 646 1472 755 1472 
L 4218 1472 
z
" transform="scale(0.015625)"/>
       <path id="CMMI12-3d" d="M 2746 4562 
C 2746 4569 2784 4666 2784 4678 
C 2784 4755 2720 4800 2669 4800 
C 2637 4800 2579 4800 2528 4659 
L 384 -1363 
C 384 -1370 346 -1465 346 -1478 
C 346 -1555 410 -1600 461 -1600 
C 499 -1600 557 -1593 602 -1459 
L 2746 4562 
z
" transform="scale(0.015625)"/>
      </defs>
      <use xlink:href="#CMMI12-6b" transform="scale(0.996264)"/>
      <use xlink:href="#CMSY10-0" transform="translate(54.079201 36.153639) scale(0.697382)"/>
      <use xlink:href="#CMR17-31" transform="translate(108.320194 36.153639) scale(0.697382)"/>
      <use xlink:href="#CMR17-31" transform="translate(140.303376 36.153639) scale(0.697382)"/>
      <use xlink:href="#CMMI12-3d" transform="translate(172.286558 36.153639) scale(0.697382)"/>
      <use xlink:href="#CMR17-33" transform="translate(206.428849 36.153639) scale(0.697382)"/>
     </g>
    </g>
   </g>
  </g>
 </g>
 <defs>
  <clipPath id="pa707117f2f">
   <rect x="49.506807" y="7.2" width="429.293193" height="221.533061"/>
  </clipPath>
 </defs>
</svg>
