<?xml version="1.0" encoding="utf-8" standalone="no"?>
<!DOCTYPE svg PUBLIC "-//W3C//DTD SVG 1.1//EN"
  "http://www.w3.org/Graphics/SVG/1.1/DTD/svg11.dtd">
<svg xmlns:xlink="http://www.w3.org/1999/xlink" width="682.56pt" height="394.56pt" viewBox="0 0 682.56 394.56" xmlns="http://www.w3.org/2000/svg" version="1.1">
 <metadata>
  <rdf:RDF xmlns:dc="http://purl.org/dc/elements/1.1/" xmlns:cc="http://creativecommons.org/ns#" xmlns:rdf="http://www.w3.org/1999/02/22-rdf-syntax-ns#">
   <cc:Work>
    <dc:type rdf:resource="http://purl.org/dc/dcmitype/StillImage"/>
    <dc:date>2026-01-13T09:59:52.879291</dc:date>
    <dc:format>image/svg+xml</dc:format>
    <dc:creator>
     <cc:Agent>
      <dc:title>Matplotlib v3.8.4, https://matplotlib.org/</dc:title>
     </cc:Agent>
    </dc:creator>
   </cc:Work>
  </rdf:RDF>
 </metadata>
 <defs>
  <style type="text/css">*{stroke-linejoin: round; stroke-linecap: butt}</style>
 </defs>
 <g id="figure_1">
  <g id="patch_1">
   <path d="M 0 394.56 
L 682.56 394.56 
L 682.56 0 
L 0 0 
z
" style="fill: #ffffff"/>
  </g>
  <g id="axes_1">
   <g id="patch_2">
    <path d="M 85.212208 333.849675 
L 675.36 333.849675 
L 675.36 7.2 
L 85.212208 7.2 
z
" style="fill: #ffffff"/>
   </g>
   <g id="matplotlib.axis_1">
    <g id="xtick_1">
     <g id="line2d_1">
      <defs>
       <path id="m8110d19d90" d="M 0 0 
L 0 3.5 
" style="stroke: #000000; stroke-width: 0.8"/>
      </defs>
      <g>
       <use xlink:href="#m8110d19d90" x="146.19162" y="333.849675" style="stroke: #000000; stroke-width: 0.8"/>
      </g>
     </g>
     <g id="text_1">
      <!-- $\mathdefault{10^{2}}$ -->
      <g transform="translate(131.128836 357.45408) scale(0.24 -0.24)">
       <defs>
        <path id="CMR17-31" d="M 1702 4058 
C 1702 4192 1696 4192 1606 4192 
C 1357 3916 979 3827 621 3827 
C 602 3827 570 3827 563 3808 
C 557 3795 557 3782 557 3648 
C 755 3648 1088 3686 1344 3839 
L 1344 461 
C 1344 236 1331 160 781 160 
L 589 160 
L 589 0 
C 896 0 1216 0 1523 0 
C 1830 0 2150 0 2458 0 
L 2458 160 
L 2266 160 
C 1715 160 1702 230 1702 458 
L 1702 4058 
z
" transform="scale(0.015625)"/>
        <path id="CMR17-30" d="M 2688 2025 
C 2688 2416 2682 3080 2413 3591 
C 2176 4039 1798 4198 1466 4198 
C 1158 4198 768 4058 525 3597 
C 269 3118 243 2524 243 2025 
C 243 1661 250 1106 448 619 
C 723 -39 1216 -128 1466 -128 
C 1760 -128 2208 -7 2470 600 
C 2662 1042 2688 1559 2688 2025 
z
M 1466 -26 
C 1056 -26 813 325 723 812 
C 653 1188 653 1738 653 2096 
C 653 2588 653 2997 736 3387 
C 858 3929 1216 4096 1466 4096 
C 1728 4096 2067 3923 2189 3400 
C 2272 3036 2278 2607 2278 2096 
C 2278 1680 2278 1169 2202 792 
C 2067 95 1690 -26 1466 -26 
z
" transform="scale(0.015625)"/>
        <path id="CMR17-32" d="M 2669 989 
L 2554 989 
C 2490 536 2438 459 2413 420 
C 2381 369 1920 369 1830 369 
L 602 369 
C 832 619 1280 1072 1824 1597 
C 2214 1967 2669 2402 2669 3035 
C 2669 3790 2067 4224 1395 4224 
C 691 4224 262 3604 262 3030 
C 262 2780 448 2748 525 2748 
C 589 2748 781 2787 781 3010 
C 781 3207 614 3264 525 3264 
C 486 3264 448 3258 422 3245 
C 544 3790 915 4058 1306 4058 
C 1862 4058 2227 3617 2227 3035 
C 2227 2479 1901 2000 1536 1584 
L 262 146 
L 262 0 
L 2515 0 
L 2669 989 
z
" transform="scale(0.015625)"/>
       </defs>
       <use xlink:href="#CMR17-31" transform="scale(0.996264)"/>
       <use xlink:href="#CMR17-30" transform="translate(45.690477 0) scale(0.996264)"/>
       <use xlink:href="#CMR17-32" transform="translate(91.380954 36.153639) scale(0.697382)"/>
      </g>
     </g>
    </g>
    <g id="xtick_2">
     <g id="line2d_2">
      <g>
       <use xlink:href="#m8110d19d90" x="441.910895" y="333.849675" style="stroke: #000000; stroke-width: 0.8"/>
      </g>
     </g>
     <g id="text_2">
      <!-- $\mathdefault{10^{3}}$ -->
      <g transform="translate(426.84811 357.45408) scale(0.24 -0.24)">
       <defs>
        <path id="CMR17-33" d="M 1414 2157 
C 1984 2157 2234 1662 2234 1090 
C 2234 320 1824 25 1453 25 
C 1114 25 563 194 390 693 
C 422 680 454 680 486 680 
C 640 680 755 782 755 948 
C 755 1133 614 1216 486 1216 
C 378 1216 211 1165 211 926 
C 211 335 787 -128 1466 -128 
C 2176 -128 2720 430 2720 1085 
C 2720 1707 2208 2157 1600 2227 
C 2086 2328 2554 2756 2554 3329 
C 2554 3820 2048 4179 1472 4179 
C 890 4179 378 3829 378 3329 
C 378 3110 544 3072 627 3072 
C 762 3072 877 3155 877 3321 
C 877 3486 762 3569 627 3569 
C 602 3569 570 3569 544 3557 
C 730 3959 1235 4032 1459 4032 
C 1683 4032 2106 3925 2106 3320 
C 2106 3143 2080 2828 1862 2550 
C 1670 2304 1453 2304 1242 2284 
C 1210 2284 1062 2269 1037 2269 
C 992 2263 966 2257 966 2208 
C 966 2163 973 2157 1101 2157 
L 1414 2157 
z
" transform="scale(0.015625)"/>
       </defs>
       <use xlink:href="#CMR17-31" transform="scale(0.996264)"/>
       <use xlink:href="#CMR17-30" transform="translate(45.690477 0) scale(0.996264)"/>
       <use xlink:href="#CMR17-33" transform="translate(91.380954 36.153639) scale(0.697382)"/>
      </g>
     </g>
    </g>
    <g id="xtick_3">
     <g id="line2d_3">
      <defs>
       <path id="mddada9a007" d="M 0 0 
L 0 2 
" style="stroke: #000000; stroke-width: 0.6"/>
      </defs>
      <g>
       <use xlink:href="#mddada9a007" x="100.384125" y="333.849675" style="stroke: #000000; stroke-width: 0.6"/>
      </g>
     </g>
    </g>
    <g id="xtick_4">
     <g id="line2d_4">
      <g>
       <use xlink:href="#mddada9a007" x="117.533462" y="333.849675" style="stroke: #000000; stroke-width: 0.6"/>
      </g>
     </g>
    </g>
    <g id="xtick_5">
     <g id="line2d_5">
      <g>
       <use xlink:href="#mddada9a007" x="132.660248" y="333.849675" style="stroke: #000000; stroke-width: 0.6"/>
      </g>
     </g>
    </g>
    <g id="xtick_6">
     <g id="line2d_6">
      <g>
       <use xlink:href="#mddada9a007" x="235.211992" y="333.849675" style="stroke: #000000; stroke-width: 0.6"/>
      </g>
     </g>
    </g>
    <g id="xtick_7">
     <g id="line2d_7">
      <g>
       <use xlink:href="#mddada9a007" x="287.285572" y="333.849675" style="stroke: #000000; stroke-width: 0.6"/>
      </g>
     </g>
    </g>
    <g id="xtick_8">
     <g id="line2d_8">
      <g>
       <use xlink:href="#mddada9a007" x="324.232364" y="333.849675" style="stroke: #000000; stroke-width: 0.6"/>
      </g>
     </g>
    </g>
    <g id="xtick_9">
     <g id="line2d_9">
      <g>
       <use xlink:href="#mddada9a007" x="352.890523" y="333.849675" style="stroke: #000000; stroke-width: 0.6"/>
      </g>
     </g>
    </g>
    <g id="xtick_10">
     <g id="line2d_10">
      <g>
       <use xlink:href="#mddada9a007" x="376.305944" y="333.849675" style="stroke: #000000; stroke-width: 0.6"/>
      </g>
     </g>
    </g>
    <g id="xtick_11">
     <g id="line2d_11">
      <g>
       <use xlink:href="#mddada9a007" x="396.1034" y="333.849675" style="stroke: #000000; stroke-width: 0.6"/>
      </g>
     </g>
    </g>
    <g id="xtick_12">
     <g id="line2d_12">
      <g>
       <use xlink:href="#mddada9a007" x="413.252736" y="333.849675" style="stroke: #000000; stroke-width: 0.6"/>
      </g>
     </g>
    </g>
    <g id="xtick_13">
     <g id="line2d_13">
      <g>
       <use xlink:href="#mddada9a007" x="428.379523" y="333.849675" style="stroke: #000000; stroke-width: 0.6"/>
      </g>
     </g>
    </g>
    <g id="xtick_14">
     <g id="line2d_14">
      <g>
       <use xlink:href="#mddada9a007" x="530.931267" y="333.849675" style="stroke: #000000; stroke-width: 0.6"/>
      </g>
     </g>
    </g>
    <g id="xtick_15">
     <g id="line2d_15">
      <g>
       <use xlink:href="#mddada9a007" x="583.004846" y="333.849675" style="stroke: #000000; stroke-width: 0.6"/>
      </g>
     </g>
    </g>
    <g id="xtick_16">
     <g id="line2d_16">
      <g>
       <use xlink:href="#mddada9a007" x="619.951639" y="333.849675" style="stroke: #000000; stroke-width: 0.6"/>
      </g>
     </g>
    </g>
    <g id="xtick_17">
     <g id="line2d_17">
      <g>
       <use xlink:href="#mddada9a007" x="648.609797" y="333.849675" style="stroke: #000000; stroke-width: 0.6"/>
      </g>
     </g>
    </g>
    <g id="xtick_18">
     <g id="line2d_18">
      <g>
       <use xlink:href="#mddada9a007" x="672.025218" y="333.849675" style="stroke: #000000; stroke-width: 0.6"/>
      </g>
     </g>
    </g>
    <g id="text_3">
     <!-- $k$ -->
     <g transform="translate(374.197881 382.709243) scale(0.24 -0.24)">
      <defs>
       <path id="CMMI12-6b" d="M 1798 4257 
C 1805 4283 1818 4321 1818 4352 
C 1818 4416 1754 4416 1741 4416 
C 1734 4416 1504 4393 1389 4377 
C 1280 4377 1184 4358 1069 4358 
C 915 4345 870 4339 870 4224 
C 870 4160 934 4160 998 4160 
C 1325 4160 1325 4103 1325 4040 
C 1325 4015 1325 4002 1293 3888 
L 378 248 
C 352 152 352 140 352 101 
C 352 -38 461 -64 525 -64 
C 704 -64 742 77 794 275 
L 1094 1469 
C 1555 1418 1830 1226 1830 920 
C 1830 881 1830 856 1811 760 
C 1786 664 1786 588 1786 556 
C 1786 185 2029 -64 2355 -64 
C 2650 -64 2803 204 2854 294 
C 2989 530 3072 888 3072 913 
C 3072 945 3046 971 3008 971 
C 2950 971 2944 945 2918 843 
C 2829 511 2694 64 2368 64 
C 2240 64 2157 128 2157 370 
C 2157 492 2182 632 2208 728 
C 2234 843 2234 849 2234 926 
C 2234 1303 1894 1514 1306 1590 
C 1536 1731 1766 1980 1856 2076 
C 2221 2484 2470 2689 2765 2689 
C 2912 2689 2950 2650 2995 2612 
C 2758 2586 2669 2420 2669 2293 
C 2669 2139 2790 2088 2880 2088 
C 3053 2088 3206 2235 3206 2440 
C 3206 2625 3059 2816 2771 2816 
C 2419 2816 2131 2567 1677 2056 
C 1613 1980 1376 1737 1139 1648 
L 1798 4257 
z
" transform="scale(0.015625)"/>
      </defs>
      <use xlink:href="#CMMI12-6b" transform="scale(0.996264)"/>
     </g>
    </g>
   </g>
   <g id="matplotlib.axis_2">
    <g id="ytick_1">
     <g id="line2d_19">
      <defs>
       <path id="m92158fe7b6" d="M 0 0 
L -3.5 0 
" style="stroke: #000000; stroke-width: 0.8"/>
      </defs>
      <g>
       <use xlink:href="#m92158fe7b6" x="85.212208" y="264.698237" style="stroke: #000000; stroke-width: 0.8"/>
      </g>
     </g>
     <g id="text_4">
      <!-- $\mathdefault{10^{-3}}$ -->
      <g transform="translate(35.068805 273.00044) scale(0.24 -0.24)">
       <defs>
        <path id="CMSY10-0" d="M 4218 1472 
C 4326 1472 4442 1472 4442 1600 
C 4442 1728 4326 1728 4218 1728 
L 755 1728 
C 646 1728 531 1728 531 1600 
C 531 1472 646 1472 755 1472 
L 4218 1472 
z
" transform="scale(0.015625)"/>
       </defs>
       <use xlink:href="#CMR17-31" transform="scale(0.996264)"/>
       <use xlink:href="#CMR17-30" transform="translate(45.690477 0) scale(0.996264)"/>
       <use xlink:href="#CMSY10-0" transform="translate(91.380954 36.153639) scale(0.697382)"/>
       <use xlink:href="#CMR17-33" transform="translate(145.621947 36.153639) scale(0.697382)"/>
      </g>
     </g>
    </g>
    <g id="ytick_2">
     <g id="line2d_20">
      <g>
       <use xlink:href="#m92158fe7b6" x="85.212208" y="182.512756" style="stroke: #000000; stroke-width: 0.8"/>
      </g>
     </g>
     <g id="text_5">
      <!-- $\mathdefault{10^{-1}}$ -->
      <g transform="translate(35.068805 190.814959) scale(0.24 -0.24)">
       <use xlink:href="#CMR17-31" transform="scale(0.996264)"/>
       <use xlink:href="#CMR17-30" transform="translate(45.690477 0) scale(0.996264)"/>
       <use xlink:href="#CMSY10-0" transform="translate(91.380954 36.153639) scale(0.697382)"/>
       <use xlink:href="#CMR17-31" transform="translate(145.621947 36.153639) scale(0.697382)"/>
      </g>
     </g>
    </g>
    <g id="ytick_3">
     <g id="line2d_21">
      <g>
       <use xlink:href="#m92158fe7b6" x="85.212208" y="100.327275" style="stroke: #000000; stroke-width: 0.8"/>
      </g>
     </g>
     <g id="text_6">
      <!-- $\mathdefault{10^{1}}$ -->
      <g transform="translate(48.086638 108.629478) scale(0.24 -0.24)">
       <use xlink:href="#CMR17-31" transform="scale(0.996264)"/>
       <use xlink:href="#CMR17-30" transform="translate(45.690477 0) scale(0.996264)"/>
       <use xlink:href="#CMR17-31" transform="translate(91.380954 36.153639) scale(0.697382)"/>
      </g>
     </g>
    </g>
    <g id="ytick_4">
     <g id="line2d_22">
      <g>
       <use xlink:href="#m92158fe7b6" x="85.212208" y="18.141794" style="stroke: #000000; stroke-width: 0.8"/>
      </g>
     </g>
     <g id="text_7">
      <!-- $\mathdefault{10^{3}}$ -->
      <g transform="translate(48.086638 26.443997) scale(0.24 -0.24)">
       <use xlink:href="#CMR17-31" transform="scale(0.996264)"/>
       <use xlink:href="#CMR17-30" transform="translate(45.690477 0) scale(0.996264)"/>
       <use xlink:href="#CMR17-33" transform="translate(91.380954 36.153639) scale(0.697382)"/>
      </g>
     </g>
    </g>
    <g id="text_8">
     <!-- $P(k)$ -->
     <g transform="translate(25.111226 194.652818) rotate(-90) scale(0.24 -0.24)">
      <defs>
       <path id="CMMI12-50" d="M 1894 2023 
L 2970 2023 
C 3853 2023 4736 2673 4736 3401 
C 4736 3898 4314 4352 3507 4352 
L 1530 4352 
C 1408 4352 1350 4352 1350 4231 
C 1350 4167 1408 4167 1504 4167 
C 1894 4167 1894 4116 1894 4046 
C 1894 4034 1894 3995 1869 3899 
L 1005 472 
C 947 249 934 185 486 185 
C 365 185 301 185 301 70 
C 301 0 358 0 397 0 
C 518 0 646 0 768 0 
L 1517 0 
C 1638 0 1773 0 1894 0 
C 1946 0 2016 0 2016 121 
C 2016 185 1958 185 1862 185 
C 1478 185 1472 230 1472 293 
C 1472 325 1478 369 1485 401 
L 1894 2023 
z
M 2355 3930 
C 2413 4167 2438 4167 2688 4167 
L 3322 4167 
C 3802 4167 4198 4013 4198 3535 
C 4198 3369 4115 2827 3821 2534 
C 3712 2419 3405 2176 2822 2176 
L 1920 2176 
L 2355 3930 
z
" transform="scale(0.015625)"/>
       <path id="CMR17-28" d="M 1958 -1561 
C 1958 -1555 1958 -1542 1939 -1523 
C 1645 -1224 858 -407 858 1581 
C 858 3569 1632 4379 1946 4697 
C 1946 4704 1958 4717 1958 4736 
C 1958 4755 1939 4768 1914 4768 
C 1843 4768 1299 4296 986 3594 
C 666 2887 576 2199 576 1588 
C 576 1128 621 351 1005 -471 
C 1312 -1135 1837 -1600 1914 -1600 
C 1946 -1600 1958 -1587 1958 -1561 
z
" transform="scale(0.015625)"/>
       <path id="CMR17-29" d="M 1683 1581 
C 1683 2040 1638 2817 1254 3639 
C 947 4303 422 4768 346 4768 
C 326 4768 301 4761 301 4729 
C 301 4717 307 4710 314 4697 
C 621 4378 1402 3568 1402 1584 
C 1402 -407 627 -1217 314 -1537 
C 307 -1549 301 -1556 301 -1568 
C 301 -1600 326 -1600 346 -1600 
C 416 -1600 960 -1128 1274 -426 
C 1594 281 1683 969 1683 1581 
z
" transform="scale(0.015625)"/>
      </defs>
      <use xlink:href="#CMMI12-50" transform="scale(0.996264)"/>
      <use xlink:href="#CMR17-28" transform="translate(76.425821 0) scale(0.996264)"/>
      <use xlink:href="#CMMI12-6b" transform="translate(111.706589 0) scale(0.996264)"/>
      <use xlink:href="#CMR17-29" transform="translate(165.785789 0) scale(0.996264)"/>
     </g>
    </g>
   </g>
   <g id="line2d_23">
    <defs>
     <path id="m44b957a3fe" d="M 0 2 
C 0.530406 2 1.03916 1.789267 1.414214 1.414214 
C 1.789267 1.03916 2 0.530406 2 0 
C 2 -0.530406 1.789267 -1.03916 1.414214 -1.414214 
C 1.03916 -1.789267 0.530406 -2 0 -2 
C -0.530406 -2 -1.03916 -1.789267 -1.414214 -1.414214 
C -1.789267 -1.03916 -2 -0.530406 -2 0 
C -2 0.530406 -1.789267 1.03916 -1.414214 1.414214 
C -1.03916 1.789267 -0.530406 2 0 2 
z
" style="stroke: #0000ff"/>
    </defs>
    <g clip-path="url(#pf40887ade2)">
     <use xlink:href="#m44b957a3fe" x="85.212208" y="7.2" style="fill: #0000ff; stroke: #0000ff"/>
     <use xlink:href="#m44b957a3fe" x="226.30616" y="107.631646" style="fill: #0000ff; stroke: #0000ff"/>
     <use xlink:href="#m44b957a3fe" x="291.911111" y="143.083766" style="fill: #0000ff; stroke: #0000ff"/>
     <use xlink:href="#m44b957a3fe" x="335.123987" y="164.696637" style="fill: #0000ff; stroke: #0000ff"/>
     <use xlink:href="#m44b957a3fe" x="367.400111" y="180.862389" style="fill: #0000ff; stroke: #0000ff"/>
     <use xlink:href="#m44b957a3fe" x="393.172097" y="193.686488" style="fill: #0000ff; stroke: #0000ff"/>
     <use xlink:href="#m44b957a3fe" x="414.626728" y="203.987786" style="fill: #0000ff; stroke: #0000ff"/>
     <use xlink:href="#m44b957a3fe" x="433.005062" y="212.727049" style="fill: #0000ff; stroke: #0000ff"/>
     <use xlink:href="#m44b957a3fe" x="449.07967" y="220.751341" style="fill: #0000ff; stroke: #0000ff"/>
     <use xlink:href="#m44b957a3fe" x="463.364295" y="228.340793" style="fill: #0000ff; stroke: #0000ff"/>
     <use xlink:href="#m44b957a3fe" x="476.217939" y="234.500203" style="fill: #0000ff; stroke: #0000ff"/>
     <use xlink:href="#m44b957a3fe" x="487.901376" y="240.600488" style="fill: #0000ff; stroke: #0000ff"/>
     <use xlink:href="#m44b957a3fe" x="498.610013" y="246.447879" style="fill: #0000ff; stroke: #0000ff"/>
     <use xlink:href="#m44b957a3fe" x="508.494062" y="251.628917" style="fill: #0000ff; stroke: #0000ff"/>
     <use xlink:href="#m44b957a3fe" x="517.671483" y="256.420597" style="fill: #0000ff; stroke: #0000ff"/>
     <use xlink:href="#m44b957a3fe" x="526.236606" y="260.057217" style="fill: #0000ff; stroke: #0000ff"/>
     <use xlink:href="#m44b957a3fe" x="534.266049" y="264.285961" style="fill: #0000ff; stroke: #0000ff"/>
     <use xlink:href="#m44b957a3fe" x="541.82289" y="268.222974" style="fill: #0000ff; stroke: #0000ff"/>
     <use xlink:href="#m44b957a3fe" x="548.959684" y="271.853803" style="fill: #0000ff; stroke: #0000ff"/>
     <use xlink:href="#m44b957a3fe" x="555.720679" y="275.362154" style="fill: #0000ff; stroke: #0000ff"/>
     <use xlink:href="#m44b957a3fe" x="562.14348" y="278.177418" style="fill: #0000ff; stroke: #0000ff"/>
     <use xlink:href="#m44b957a3fe" x="568.260315" y="281.943076" style="fill: #0000ff; stroke: #0000ff"/>
     <use xlink:href="#m44b957a3fe" x="574.099013" y="284.59461" style="fill: #0000ff; stroke: #0000ff"/>
     <use xlink:href="#m44b957a3fe" x="579.683774" y="287.418312" style="fill: #0000ff; stroke: #0000ff"/>
     <use xlink:href="#m44b957a3fe" x="585.035767" y="290.385642" style="fill: #0000ff; stroke: #0000ff"/>
     <use xlink:href="#m44b957a3fe" x="590.173622" y="293.16722" style="fill: #0000ff; stroke: #0000ff"/>
     <use xlink:href="#m44b957a3fe" x="595.113817" y="295.765965" style="fill: #0000ff; stroke: #0000ff"/>
     <use xlink:href="#m44b957a3fe" x="599.871" y="297.836065" style="fill: #0000ff; stroke: #0000ff"/>
     <use xlink:href="#m44b957a3fe" x="604.458247" y="300.00162" style="fill: #0000ff; stroke: #0000ff"/>
     <use xlink:href="#m44b957a3fe" x="608.88728" y="302.48338" style="fill: #0000ff; stroke: #0000ff"/>
     <use xlink:href="#m44b957a3fe" x="613.168652" y="304.747442" style="fill: #0000ff; stroke: #0000ff"/>
     <use xlink:href="#m44b957a3fe" x="617.31189" y="306.558349" style="fill: #0000ff; stroke: #0000ff"/>
     <use xlink:href="#m44b957a3fe" x="621.325631" y="308.560821" style="fill: #0000ff; stroke: #0000ff"/>
     <use xlink:href="#m44b957a3fe" x="625.217724" y="310.796295" style="fill: #0000ff; stroke: #0000ff"/>
     <use xlink:href="#m44b957a3fe" x="628.995327" y="312.263952" style="fill: #0000ff; stroke: #0000ff"/>
     <use xlink:href="#m44b957a3fe" x="632.664984" y="313.966973" style="fill: #0000ff; stroke: #0000ff"/>
     <use xlink:href="#m44b957a3fe" x="636.232692" y="315.781118" style="fill: #0000ff; stroke: #0000ff"/>
     <use xlink:href="#m44b957a3fe" x="639.703965" y="317.663123" style="fill: #0000ff; stroke: #0000ff"/>
     <use xlink:href="#m44b957a3fe" x="643.083877" y="319.32993" style="fill: #0000ff; stroke: #0000ff"/>
     <use xlink:href="#m44b957a3fe" x="646.377115" y="320.726354" style="fill: #0000ff; stroke: #0000ff"/>
     <use xlink:href="#m44b957a3fe" x="649.588013" y="322.617243" style="fill: #0000ff; stroke: #0000ff"/>
     <use xlink:href="#m44b957a3fe" x="652.720589" y="324.508299" style="fill: #0000ff; stroke: #0000ff"/>
     <use xlink:href="#m44b957a3fe" x="655.778573" y="326.224843" style="fill: #0000ff; stroke: #0000ff"/>
     <use xlink:href="#m44b957a3fe" x="658.765434" y="327.101093" style="fill: #0000ff; stroke: #0000ff"/>
     <use xlink:href="#m44b957a3fe" x="661.684407" y="329.559388" style="fill: #0000ff; stroke: #0000ff"/>
     <use xlink:href="#m44b957a3fe" x="664.538507" y="330.089334" style="fill: #0000ff; stroke: #0000ff"/>
     <use xlink:href="#m44b957a3fe" x="667.330558" y="330.894311" style="fill: #0000ff; stroke: #0000ff"/>
     <use xlink:href="#m44b957a3fe" x="670.063198" y="333.849675" style="fill: #0000ff; stroke: #0000ff"/>
     <use xlink:href="#m44b957a3fe" x="672.738904" y="332.758309" style="fill: #0000ff; stroke: #0000ff"/>
     <use xlink:href="#m44b957a3fe" x="675.36" y="333.192039" style="fill: #0000ff; stroke: #0000ff"/>
    </g>
   </g>
   <g id="line2d_24">
    <defs>
     <path id="m3f4fb5d81d" d="M -2 2 
L 2 2 
L 2 -2 
L -2 -2 
z
" style="stroke: #ff0000; stroke-linejoin: miter"/>
    </defs>
    <g clip-path="url(#pf40887ade2)">
     <use xlink:href="#m3f4fb5d81d" x="85.212208" y="10.740285" style="fill: #ff0000; stroke: #ff0000; stroke-linejoin: miter"/>
     <use xlink:href="#m3f4fb5d81d" x="226.30616" y="91.616705" style="fill: #ff0000; stroke: #ff0000; stroke-linejoin: miter"/>
     <use xlink:href="#m3f4fb5d81d" x="291.911111" y="120.972752" style="fill: #ff0000; stroke: #ff0000; stroke-linejoin: miter"/>
     <use xlink:href="#m3f4fb5d81d" x="335.123987" y="141.696797" style="fill: #ff0000; stroke: #ff0000; stroke-linejoin: miter"/>
     <use xlink:href="#m3f4fb5d81d" x="367.400111" y="156.426028" style="fill: #ff0000; stroke: #ff0000; stroke-linejoin: miter"/>
     <use xlink:href="#m3f4fb5d81d" x="393.172097" y="168.755743" style="fill: #ff0000; stroke: #ff0000; stroke-linejoin: miter"/>
     <use xlink:href="#m3f4fb5d81d" x="414.626728" y="178.902485" style="fill: #ff0000; stroke: #ff0000; stroke-linejoin: miter"/>
     <use xlink:href="#m3f4fb5d81d" x="433.005062" y="187.508443" style="fill: #ff0000; stroke: #ff0000; stroke-linejoin: miter"/>
     <use xlink:href="#m3f4fb5d81d" x="449.07967" y="195.35054" style="fill: #ff0000; stroke: #ff0000; stroke-linejoin: miter"/>
     <use xlink:href="#m3f4fb5d81d" x="463.364295" y="201.491151" style="fill: #ff0000; stroke: #ff0000; stroke-linejoin: miter"/>
     <use xlink:href="#m3f4fb5d81d" x="476.217939" y="207.453625" style="fill: #ff0000; stroke: #ff0000; stroke-linejoin: miter"/>
     <use xlink:href="#m3f4fb5d81d" x="487.901376" y="212.730997" style="fill: #ff0000; stroke: #ff0000; stroke-linejoin: miter"/>
     <use xlink:href="#m3f4fb5d81d" x="498.610013" y="217.885266" style="fill: #ff0000; stroke: #ff0000; stroke-linejoin: miter"/>
     <use xlink:href="#m3f4fb5d81d" x="508.494062" y="222.903018" style="fill: #ff0000; stroke: #ff0000; stroke-linejoin: miter"/>
     <use xlink:href="#m3f4fb5d81d" x="517.671483" y="227.533465" style="fill: #ff0000; stroke: #ff0000; stroke-linejoin: miter"/>
     <use xlink:href="#m3f4fb5d81d" x="526.236606" y="231.471545" style="fill: #ff0000; stroke: #ff0000; stroke-linejoin: miter"/>
     <use xlink:href="#m3f4fb5d81d" x="534.266049" y="234.978228" style="fill: #ff0000; stroke: #ff0000; stroke-linejoin: miter"/>
     <use xlink:href="#m3f4fb5d81d" x="541.82289" y="238.740413" style="fill: #ff0000; stroke: #ff0000; stroke-linejoin: miter"/>
     <use xlink:href="#m3f4fb5d81d" x="548.959684" y="241.955305" style="fill: #ff0000; stroke: #ff0000; stroke-linejoin: miter"/>
     <use xlink:href="#m3f4fb5d81d" x="555.720679" y="245.345216" style="fill: #ff0000; stroke: #ff0000; stroke-linejoin: miter"/>
     <use xlink:href="#m3f4fb5d81d" x="562.14348" y="247.953271" style="fill: #ff0000; stroke: #ff0000; stroke-linejoin: miter"/>
     <use xlink:href="#m3f4fb5d81d" x="568.260315" y="250.600031" style="fill: #ff0000; stroke: #ff0000; stroke-linejoin: miter"/>
     <use xlink:href="#m3f4fb5d81d" x="574.099013" y="253.367728" style="fill: #ff0000; stroke: #ff0000; stroke-linejoin: miter"/>
     <use xlink:href="#m3f4fb5d81d" x="579.683774" y="256.120952" style="fill: #ff0000; stroke: #ff0000; stroke-linejoin: miter"/>
     <use xlink:href="#m3f4fb5d81d" x="585.035767" y="258.256543" style="fill: #ff0000; stroke: #ff0000; stroke-linejoin: miter"/>
     <use xlink:href="#m3f4fb5d81d" x="590.173622" y="260.436608" style="fill: #ff0000; stroke: #ff0000; stroke-linejoin: miter"/>
     <use xlink:href="#m3f4fb5d81d" x="595.113817" y="262.978782" style="fill: #ff0000; stroke: #ff0000; stroke-linejoin: miter"/>
     <use xlink:href="#m3f4fb5d81d" x="599.871" y="264.856384" style="fill: #ff0000; stroke: #ff0000; stroke-linejoin: miter"/>
     <use xlink:href="#m3f4fb5d81d" x="604.458247" y="266.861681" style="fill: #ff0000; stroke: #ff0000; stroke-linejoin: miter"/>
     <use xlink:href="#m3f4fb5d81d" x="608.88728" y="268.763805" style="fill: #ff0000; stroke: #ff0000; stroke-linejoin: miter"/>
     <use xlink:href="#m3f4fb5d81d" x="613.168652" y="270.503222" style="fill: #ff0000; stroke: #ff0000; stroke-linejoin: miter"/>
     <use xlink:href="#m3f4fb5d81d" x="617.31189" y="271.98604" style="fill: #ff0000; stroke: #ff0000; stroke-linejoin: miter"/>
     <use xlink:href="#m3f4fb5d81d" x="621.325631" y="273.059502" style="fill: #ff0000; stroke: #ff0000; stroke-linejoin: miter"/>
     <use xlink:href="#m3f4fb5d81d" x="625.217724" y="274.504939" style="fill: #ff0000; stroke: #ff0000; stroke-linejoin: miter"/>
     <use xlink:href="#m3f4fb5d81d" x="628.995327" y="275.550151" style="fill: #ff0000; stroke: #ff0000; stroke-linejoin: miter"/>
     <use xlink:href="#m3f4fb5d81d" x="632.664984" y="276.540307" style="fill: #ff0000; stroke: #ff0000; stroke-linejoin: miter"/>
     <use xlink:href="#m3f4fb5d81d" x="636.232692" y="277.75339" style="fill: #ff0000; stroke: #ff0000; stroke-linejoin: miter"/>
     <use xlink:href="#m3f4fb5d81d" x="639.703965" y="278.738888" style="fill: #ff0000; stroke: #ff0000; stroke-linejoin: miter"/>
     <use xlink:href="#m3f4fb5d81d" x="643.083877" y="280.095716" style="fill: #ff0000; stroke: #ff0000; stroke-linejoin: miter"/>
     <use xlink:href="#m3f4fb5d81d" x="646.377115" y="281.334332" style="fill: #ff0000; stroke: #ff0000; stroke-linejoin: miter"/>
     <use xlink:href="#m3f4fb5d81d" x="649.588013" y="282.373491" style="fill: #ff0000; stroke: #ff0000; stroke-linejoin: miter"/>
     <use xlink:href="#m3f4fb5d81d" x="652.720589" y="283.549553" style="fill: #ff0000; stroke: #ff0000; stroke-linejoin: miter"/>
     <use xlink:href="#m3f4fb5d81d" x="655.778573" y="284.147473" style="fill: #ff0000; stroke: #ff0000; stroke-linejoin: miter"/>
     <use xlink:href="#m3f4fb5d81d" x="658.765434" y="284.678666" style="fill: #ff0000; stroke: #ff0000; stroke-linejoin: miter"/>
     <use xlink:href="#m3f4fb5d81d" x="661.684407" y="286.279249" style="fill: #ff0000; stroke: #ff0000; stroke-linejoin: miter"/>
     <use xlink:href="#m3f4fb5d81d" x="664.538507" y="285.647658" style="fill: #ff0000; stroke: #ff0000; stroke-linejoin: miter"/>
     <use xlink:href="#m3f4fb5d81d" x="667.330558" y="287.414188" style="fill: #ff0000; stroke: #ff0000; stroke-linejoin: miter"/>
     <use xlink:href="#m3f4fb5d81d" x="670.063198" y="287.232848" style="fill: #ff0000; stroke: #ff0000; stroke-linejoin: miter"/>
     <use xlink:href="#m3f4fb5d81d" x="672.738904" y="287.892999" style="fill: #ff0000; stroke: #ff0000; stroke-linejoin: miter"/>
     <use xlink:href="#m3f4fb5d81d" x="675.36" y="288.02281" style="fill: #ff0000; stroke: #ff0000; stroke-linejoin: miter"/>
    </g>
   </g>
   <g id="line2d_25">
    <path d="M 85.212208 37.083443 
L 91.173297 40.120707 
L 97.134386 43.15797 
L 103.095475 46.195234 
L 109.056563 49.232498 
L 115.017652 52.269761 
L 120.978741 55.307025 
L 126.93983 58.344289 
L 132.900919 61.381552 
L 138.862007 64.418816 
L 144.823096 67.45608 
L 150.784185 70.493343 
L 156.745274 73.530607 
L 162.706363 76.567871 
L 168.667452 79.605134 
L 174.62854 82.642398 
L 180.589629 85.679662 
L 186.550718 88.716925 
L 192.511807 91.754189 
L 198.472896 94.791453 
L 204.433984 97.828716 
L 210.395073 100.86598 
L 216.356162 103.903244 
L 222.317251 106.940507 
L 228.27834 109.977771 
L 234.239428 113.015035 
L 240.200517 116.052298 
L 246.161606 119.089562 
L 252.122695 122.126826 
L 258.083784 125.164089 
L 264.044872 128.201353 
L 270.005961 131.238617 
L 275.96705 134.27588 
L 281.928139 137.313144 
L 287.889228 140.350408 
L 293.850316 143.387671 
L 299.811405 146.424935 
L 305.772494 149.462199 
L 311.733583 152.499463 
L 317.694672 155.536726 
L 323.65576 158.57399 
L 329.616849 161.611254 
L 335.577938 164.648517 
L 341.539027 167.685781 
L 347.500116 170.723045 
L 353.461204 173.760308 
L 359.422293 176.797572 
L 365.383382 179.834836 
L 371.344471 182.872099 
L 377.30556 185.909363 
L 383.266649 188.946627 
L 389.227737 191.98389 
L 395.188826 195.021154 
L 401.149915 198.058418 
L 407.111004 201.095681 
L 413.072093 204.132945 
L 419.033181 207.170209 
L 424.99427 210.207472 
L 430.955359 213.244736 
L 436.916448 216.282 
L 442.877537 219.319263 
L 448.838625 222.356527 
L 454.799714 225.393791 
L 460.760803 228.431054 
L 466.721892 231.468318 
L 472.682981 234.505582 
L 478.644069 237.542845 
L 484.605158 240.580109 
L 490.566247 243.617373 
L 496.527336 246.654636 
L 502.488425 249.6919 
L 508.449513 252.729164 
L 514.410602 255.766427 
L 520.371691 258.803691 
L 526.33278 261.840955 
L 532.293869 264.878218 
L 538.254957 267.915482 
L 544.216046 270.952746 
L 550.177135 273.990009 
L 556.138224 277.027273 
L 562.099313 280.064537 
L 568.060401 283.1018 
L 574.02149 286.139064 
L 579.982579 289.176328 
L 585.943668 292.213591 
L 591.904757 295.250855 
L 597.865846 298.288119 
L 603.826934 301.325382 
L 609.788023 304.362646 
L 615.749112 307.39991 
L 621.710201 310.437173 
L 627.67129 313.474437 
L 633.632378 316.511701 
L 639.593467 319.548964 
L 645.554556 322.586228 
L 651.515645 325.623492 
L 657.476734 328.660755 
L 663.437822 331.698019 
L 669.398911 334.735283 
L 675.36 337.772546 
" clip-path="url(#pf40887ade2)" style="fill: none; stroke-dasharray: 5.55,2.4; stroke-dashoffset: 0; stroke: #0000ff; stroke-opacity: 0.7; stroke-width: 1.5"/>
   </g>
   <g id="line2d_26">
    <path d="M 85.212208 12.647082 
L 91.173297 15.684346 
L 97.134386 18.721609 
L 103.095475 21.758873 
L 109.056563 24.796137 
L 115.017652 27.8334 
L 120.978741 30.870664 
L 126.93983 33.907928 
L 132.900919 36.945191 
L 138.862007 39.982455 
L 144.823096 43.019719 
L 150.784185 46.056982 
L 156.745274 49.094246 
L 162.706363 52.13151 
L 168.667452 55.168773 
L 174.62854 58.206037 
L 180.589629 61.243301 
L 186.550718 64.280564 
L 192.511807 67.317828 
L 198.472896 70.355092 
L 204.433984 73.392355 
L 210.395073 76.429619 
L 216.356162 79.466883 
L 222.317251 82.504146 
L 228.27834 85.54141 
L 234.239428 88.578674 
L 240.200517 91.615937 
L 246.161606 94.653201 
L 252.122695 97.690465 
L 258.083784 100.727728 
L 264.044872 103.764992 
L 270.005961 106.802256 
L 275.96705 109.839519 
L 281.928139 112.876783 
L 287.889228 115.914047 
L 293.850316 118.95131 
L 299.811405 121.988574 
L 305.772494 125.025838 
L 311.733583 128.063101 
L 317.694672 131.100365 
L 323.65576 134.137629 
L 329.616849 137.174892 
L 335.577938 140.212156 
L 341.539027 143.24942 
L 347.500116 146.286683 
L 353.461204 149.323947 
L 359.422293 152.361211 
L 365.383382 155.398475 
L 371.344471 158.435738 
L 377.30556 161.473002 
L 383.266649 164.510266 
L 389.227737 167.547529 
L 395.188826 170.584793 
L 401.149915 173.622057 
L 407.111004 176.65932 
L 413.072093 179.696584 
L 419.033181 182.733848 
L 424.99427 185.771111 
L 430.955359 188.808375 
L 436.916448 191.845639 
L 442.877537 194.882902 
L 448.838625 197.920166 
L 454.799714 200.95743 
L 460.760803 203.994693 
L 466.721892 207.031957 
L 472.682981 210.069221 
L 478.644069 213.106484 
L 484.605158 216.143748 
L 490.566247 219.181012 
L 496.527336 222.218275 
L 502.488425 225.255539 
L 508.449513 228.292803 
L 514.410602 231.330066 
L 520.371691 234.36733 
L 526.33278 237.404594 
L 532.293869 240.441857 
L 538.254957 243.479121 
L 544.216046 246.516385 
L 550.177135 249.553648 
L 556.138224 252.590912 
L 562.099313 255.628176 
L 568.060401 258.665439 
L 574.02149 261.702703 
L 579.982579 264.739967 
L 585.943668 267.77723 
L 591.904757 270.814494 
L 597.865846 273.851758 
L 603.826934 276.889021 
L 609.788023 279.926285 
L 615.749112 282.963549 
L 621.710201 286.000812 
L 627.67129 289.038076 
L 633.632378 292.07534 
L 639.593467 295.112603 
L 645.554556 298.149867 
L 651.515645 301.187131 
L 657.476734 304.224394 
L 663.437822 307.261658 
L 669.398911 310.298922 
L 675.36 313.336185 
" clip-path="url(#pf40887ade2)" style="fill: none; stroke-dasharray: 5.55,2.4; stroke-dashoffset: 0; stroke: #ff0000; stroke-opacity: 0.7; stroke-width: 1.5"/>
   </g>
   <g id="patch_3">
    <path d="M 85.212208 333.849675 
L 85.212208 7.2 
" style="fill: none; stroke: #000000; stroke-width: 0.8; stroke-linejoin: miter; stroke-linecap: square"/>
   </g>
   <g id="patch_4">
    <path d="M 675.36 333.849675 
L 675.36 7.2 
" style="fill: none; stroke: #000000; stroke-width: 0.8; stroke-linejoin: miter; stroke-linecap: square"/>
   </g>
   <g id="patch_5">
    <path d="M 85.212208 333.849675 
L 675.36 333.849675 
" style="fill: none; stroke: #000000; stroke-width: 0.8; stroke-linejoin: miter; stroke-linecap: square"/>
   </g>
   <g id="patch_6">
    <path d="M 85.212208 7.2 
L 675.36 7.2 
" style="fill: none; stroke: #000000; stroke-width: 0.8; stroke-linejoin: miter; stroke-linecap: square"/>
   </g>
   <g id="legend_1">
    <g id="line2d_27">
     <g>
      <use xlink:href="#m44b957a3fe" x="487.377844" y="38.332752" style="fill: #0000ff; stroke: #0000ff"/>
     </g>
    </g>
    <g id="text_9">
     <!-- $P(k)$ for $|P_i|$ -->
     <g transform="translate(530.577844 46.732752) scale(0.24 -0.24)">
      <defs>
       <path id="CMR17-66" d="M 979 2560 
L 1709 2560 
L 1709 2725 
L 966 2725 
L 966 3494 
C 966 4022 1235 4352 1510 4352 
C 1594 4352 1690 4327 1754 4282 
C 1702 4269 1568 4225 1568 4067 
C 1568 3901 1696 3850 1786 3850 
C 1875 3850 2003 3901 2003 4067 
C 2003 4308 1773 4454 1517 4454 
C 1152 4454 653 4156 653 3481 
L 653 2725 
L 141 2725 
L 141 2560 
L 653 2560 
L 653 427 
C 653 184 627 153 218 153 
L 218 -13 
C 371 0 666 0 832 0 
C 1018 0 1344 0 1517 -13 
L 1517 153 
C 1056 153 979 153 979 439 
L 979 2560 
z
" transform="scale(0.015625)"/>
       <path id="CMR17-6f" d="M 2758 1356 
C 2758 2176 2163 2816 1466 2816 
C 768 2816 173 2176 173 1356 
C 173 551 768 -64 1466 -64 
C 2163 -64 2758 551 2758 1356 
z
M 1466 51 
C 1165 51 909 230 762 480 
C 602 767 582 1126 582 1408 
C 582 1677 595 2010 762 2298 
C 890 2509 1139 2714 1466 2714 
C 1754 2714 1997 2554 2150 2330 
C 2349 2029 2349 1607 2349 1408 
C 2349 1158 2336 775 2163 467 
C 1984 173 1709 51 1466 51 
z
" transform="scale(0.015625)"/>
       <path id="CMR17-72" d="M 960 1497 
C 960 2112 1222 2688 1702 2688 
C 1747 2688 1792 2682 1837 2662 
C 1837 2662 1696 2617 1696 2452 
C 1696 2298 1818 2234 1914 2234 
C 1990 2234 2131 2279 2131 2458 
C 2131 2663 1926 2790 1709 2790 
C 1222 2790 1011 2317 947 2093 
L 941 2093 
L 941 2790 
L 198 2720 
L 198 2554 
C 576 2554 634 2515 634 2208 
L 634 428 
C 634 184 608 153 198 153 
L 198 -13 
C 352 0 646 0 813 0 
C 998 0 1325 0 1498 -13 
L 1498 153 
C 1037 153 960 153 960 440 
L 960 1497 
z
" transform="scale(0.015625)"/>
       <path id="CMSY10-6a" d="M 1018 4570 
C 1018 4685 1018 4800 890 4800 
C 762 4800 762 4685 762 4570 
L 762 -1370 
C 762 -1485 762 -1600 890 -1600 
C 1018 -1600 1018 -1485 1018 -1370 
L 1018 4570 
z
" transform="scale(0.015625)"/>
       <path id="CMMI12-69" d="M 1811 913 
C 1811 945 1786 971 1747 971 
C 1690 971 1683 952 1651 843 
C 1485 262 1222 64 1011 64 
C 934 64 845 83 845 275 
C 845 447 922 639 992 830 
L 1440 2018 
C 1459 2069 1504 2184 1504 2305 
C 1504 2574 1312 2816 998 2816 
C 410 2816 173 1890 173 1839 
C 173 1814 198 1782 243 1782 
C 301 1782 307 1807 333 1896 
C 486 2428 730 2682 979 2682 
C 1037 2682 1146 2682 1146 2478 
C 1146 2312 1062 2101 1011 1961 
L 563 773 
C 525 671 486 568 486 453 
C 486 166 685 -64 992 -64 
C 1581 -64 1811 869 1811 913 
z
M 1760 4013 
C 1760 4109 1683 4224 1542 4224 
C 1395 4224 1229 4083 1229 3917 
C 1229 3758 1363 3707 1440 3707 
C 1613 3707 1760 3873 1760 4013 
z
" transform="scale(0.015625)"/>
      </defs>
      <use xlink:href="#CMMI12-50" transform="scale(0.996264)"/>
      <use xlink:href="#CMR17-28" transform="translate(76.425821 0) scale(0.996264)"/>
      <use xlink:href="#CMMI12-6b" transform="translate(111.706589 0) scale(0.996264)"/>
      <use xlink:href="#CMR17-29" transform="translate(165.785789 0) scale(0.996264)"/>
      <use xlink:href="#CMR17-66" transform="translate(231.142523 0) scale(0.996264)"/>
      <use xlink:href="#CMR17-6f" transform="translate(258.616036 0) scale(0.996264)"/>
      <use xlink:href="#CMR17-72" transform="translate(304.306513 0) scale(0.996264)"/>
      <use xlink:href="#CMSY10-6a" transform="translate(369.663247 0) scale(0.996264)"/>
      <use xlink:href="#CMMI12-50" transform="translate(397.337332 0) scale(0.996264)"/>
      <use xlink:href="#CMMI12-69" transform="translate(460.214564 -14.943915) scale(0.697382)"/>
      <use xlink:href="#CMSY10-6a" transform="translate(484.007603 0) scale(0.996264)"/>
     </g>
    </g>
    <g id="line2d_28">
     <g>
      <use xlink:href="#m3f4fb5d81d" x="487.377844" y="74.221563" style="fill: #ff0000; stroke: #ff0000; stroke-linejoin: miter"/>
     </g>
    </g>
    <g id="text_10">
     <!-- $P(k)$ for $u_i$ -->
     <g transform="translate(530.577844 82.621563) scale(0.24 -0.24)">
      <defs>
       <path id="CMMI12-75" d="M 2182 370 
C 2266 13 2573 -64 2726 -64 
C 2931 -64 3085 70 3187 287 
C 3296 517 3379 894 3379 913 
C 3379 945 3354 971 3315 971 
C 3258 971 3251 939 3226 843 
C 3110 402 2995 64 2739 64 
C 2547 64 2547 275 2547 358 
C 2547 505 2566 568 2630 837 
C 2675 1009 2720 1181 2758 1360 
L 3021 2401 
C 3066 2561 3066 2574 3066 2593 
C 3066 2689 2989 2753 2893 2753 
C 2707 2753 2662 2593 2624 2433 
C 2560 2184 2214 811 2170 588 
C 2163 588 1914 64 1446 64 
C 1114 64 1050 351 1050 588 
C 1050 952 1229 1462 1395 1890 
C 1472 2095 1504 2178 1504 2305 
C 1504 2580 1306 2816 998 2816 
C 410 2816 173 1890 173 1839 
C 173 1814 198 1782 243 1782 
C 301 1782 307 1807 333 1896 
C 486 2441 736 2682 979 2682 
C 1043 2682 1146 2682 1146 2478 
C 1146 2312 1075 2127 979 1884 
C 698 1124 666 881 666 690 
C 666 38 1158 -64 1421 -64 
C 1830 -64 2054 217 2182 370 
z
" transform="scale(0.015625)"/>
      </defs>
      <use xlink:href="#CMMI12-50" transform="scale(0.996264)"/>
      <use xlink:href="#CMR17-28" transform="translate(76.425821 0) scale(0.996264)"/>
      <use xlink:href="#CMMI12-6b" transform="translate(111.706589 0) scale(0.996264)"/>
      <use xlink:href="#CMR17-29" transform="translate(165.785789 0) scale(0.996264)"/>
      <use xlink:href="#CMR17-66" transform="translate(231.142523 0) scale(0.996264)"/>
      <use xlink:href="#CMR17-6f" transform="translate(258.616036 0) scale(0.996264)"/>
      <use xlink:href="#CMR17-72" transform="translate(304.306513 0) scale(0.996264)"/>
      <use xlink:href="#CMMI12-75" transform="translate(369.663247 0) scale(0.996264)"/>
      <use xlink:href="#CMMI12-69" transform="translate(425.183577 -14.943915) scale(0.697382)"/>
     </g>
    </g>
    <g id="line2d_29">
     <path d="M 463.377844 113.408886 
L 487.377844 113.408886 
L 511.377844 113.408886 
" style="fill: none; stroke-dasharray: 5.55,2.4; stroke-dashoffset: 0; stroke: #0000ff; stroke-opacity: 0.7; stroke-width: 1.5"/>
    </g>
    <g id="text_11">
     <!-- $k^{-11/3}$ ($|P_i|$) -->
     <g transform="translate(530.577844 121.808886) scale(0.24 -0.24)">
      <defs>
       <path id="CMMI12-3d" d="M 2746 4562 
C 2746 4569 2784 4666 2784 4678 
C 2784 4755 2720 4800 2669 4800 
C 2637 4800 2579 4800 2528 4659 
L 384 -1363 
C 384 -1370 346 -1465 346 -1478 
C 346 -1555 410 -1600 461 -1600 
C 499 -1600 557 -1593 602 -1459 
L 2746 4562 
z
" transform="scale(0.015625)"/>
      </defs>
      <use xlink:href="#CMMI12-6b" transform="scale(0.996264)"/>
      <use xlink:href="#CMSY10-0" transform="translate(54.079201 36.153639) scale(0.697382)"/>
      <use xlink:href="#CMR17-31" transform="translate(108.320194 36.153639) scale(0.697382)"/>
      <use xlink:href="#CMR17-31" transform="translate(140.303376 36.153639) scale(0.697382)"/>
      <use xlink:href="#CMMI12-3d" transform="translate(172.286558 36.153639) scale(0.697382)"/>
      <use xlink:href="#CMR17-33" transform="translate(206.428849 36.153639) scale(0.697382)"/>
      <use xlink:href="#CMR17-28" transform="translate(268.986129 0) scale(0.996264)"/>
      <use xlink:href="#CMSY10-6a" transform="translate(304.266897 0) scale(0.996264)"/>
      <use xlink:href="#CMMI12-50" transform="translate(331.940982 0) scale(0.996264)"/>
      <use xlink:href="#CMMI12-69" transform="translate(394.818214 -14.943915) scale(0.697382)"/>
      <use xlink:href="#CMSY10-6a" transform="translate(418.611253 0) scale(0.996264)"/>
      <use xlink:href="#CMR17-29" transform="translate(446.285338 0) scale(0.996264)"/>
     </g>
    </g>
    <g id="line2d_30">
     <path d="M 463.377844 152.616216 
L 487.377844 152.616216 
L 511.377844 152.616216 
" style="fill: none; stroke-dasharray: 5.55,2.4; stroke-dashoffset: 0; stroke: #ff0000; stroke-opacity: 0.7; stroke-width: 1.5"/>
    </g>
    <g id="text_12">
     <!-- $k^{-11/3}$ ($u_i$) -->
     <g transform="translate(530.577844 161.016216) scale(0.24 -0.24)">
      <use xlink:href="#CMMI12-6b" transform="scale(0.996264)"/>
      <use xlink:href="#CMSY10-0" transform="translate(54.079201 36.153639) scale(0.697382)"/>
      <use xlink:href="#CMR17-31" transform="translate(108.320194 36.153639) scale(0.697382)"/>
      <use xlink:href="#CMR17-31" transform="translate(140.303376 36.153639) scale(0.697382)"/>
      <use xlink:href="#CMMI12-3d" transform="translate(172.286558 36.153639) scale(0.697382)"/>
      <use xlink:href="#CMR17-33" transform="translate(206.428849 36.153639) scale(0.697382)"/>
      <use xlink:href="#CMR17-28" transform="translate(268.986129 0) scale(0.996264)"/>
      <use xlink:href="#CMMI12-75" transform="translate(304.266897 0) scale(0.996264)"/>
      <use xlink:href="#CMMI12-69" transform="translate(359.787227 -14.943915) scale(0.697382)"/>
      <use xlink:href="#CMR17-29" transform="translate(383.580266 0) scale(0.996264)"/>
     </g>
    </g>
   </g>
  </g>
 </g>
 <defs>
  <clipPath id="pf40887ade2">
   <rect x="85.212208" y="7.2" width="590.147792" height="326.649675"/>
  </clipPath>
 </defs>
</svg>
