<?xml version="1.0" encoding="utf-8" standalone="no"?>
<!DOCTYPE svg PUBLIC "-//W3C//DTD SVG 1.1//EN"
  "http://www.w3.org/Graphics/SVG/1.1/DTD/svg11.dtd">
<svg xmlns:xlink="http://www.w3.org/1999/xlink" width="682.56pt" height="394.56pt" viewBox="0 0 682.56 394.56" xmlns="http://www.w3.org/2000/svg" version="1.1">
 <metadata>
  <rdf:RDF xmlns:dc="http://purl.org/dc/elements/1.1/" xmlns:cc="http://creativecommons.org/ns#" xmlns:rdf="http://www.w3.org/1999/02/22-rdf-syntax-ns#">
   <cc:Work>
    <dc:type rdf:resource="http://purl.org/dc/dcmitype/StillImage"/>
    <dc:date>2026-01-13T09:51:38.483871</dc:date>
    <dc:format>image/svg+xml</dc:format>
    <dc:creator>
     <cc:Agent>
      <dc:title>Matplotlib v3.8.4, https://matplotlib.org/</dc:title>
     </cc:Agent>
    </dc:creator>
   </cc:Work>
  </rdf:RDF>
 </metadata>
 <defs>
  <style type="text/css">*{stroke-linejoin: round; stroke-linecap: butt}</style>
 </defs>
 <g id="figure_1">
  <g id="patch_1">
   <path d="M 0 394.56 
L 682.56 394.56 
L 682.56 0 
L 0 0 
z
" style="fill: #ffffff"/>
  </g>
  <g id="axes_1">
   <g id="patch_2">
    <path d="M 85.212208 333.849675 
L 675.36 333.849675 
L 675.36 7.2 
L 85.212208 7.2 
z
" style="fill: #ffffff"/>
   </g>
   <g id="matplotlib.axis_1">
    <g id="xtick_1">
     <g id="line2d_1">
      <defs>
       <path id="m4d923d7db6" d="M 0 0 
L 0 3.5 
" style="stroke: #000000; stroke-width: 0.8"/>
      </defs>
      <g>
       <use xlink:href="#m4d923d7db6" x="369.626504" y="333.849675" style="stroke: #000000; stroke-width: 0.8"/>
      </g>
     </g>
     <g id="text_1">
      <!-- $\mathdefault{10^{3}}$ -->
      <g transform="translate(354.563719 357.45408) scale(0.24 -0.24)">
       <defs>
        <path id="CMR17-31" d="M 1702 4058 
C 1702 4192 1696 4192 1606 4192 
C 1357 3916 979 3827 621 3827 
C 602 3827 570 3827 563 3808 
C 557 3795 557 3782 557 3648 
C 755 3648 1088 3686 1344 3839 
L 1344 461 
C 1344 236 1331 160 781 160 
L 589 160 
L 589 0 
C 896 0 1216 0 1523 0 
C 1830 0 2150 0 2458 0 
L 2458 160 
L 2266 160 
C 1715 160 1702 230 1702 458 
L 1702 4058 
z
" transform="scale(0.015625)"/>
        <path id="CMR17-30" d="M 2688 2025 
C 2688 2416 2682 3080 2413 3591 
C 2176 4039 1798 4198 1466 4198 
C 1158 4198 768 4058 525 3597 
C 269 3118 243 2524 243 2025 
C 243 1661 250 1106 448 619 
C 723 -39 1216 -128 1466 -128 
C 1760 -128 2208 -7 2470 600 
C 2662 1042 2688 1559 2688 2025 
z
M 1466 -26 
C 1056 -26 813 325 723 812 
C 653 1188 653 1738 653 2096 
C 653 2588 653 2997 736 3387 
C 858 3929 1216 4096 1466 4096 
C 1728 4096 2067 3923 2189 3400 
C 2272 3036 2278 2607 2278 2096 
C 2278 1680 2278 1169 2202 792 
C 2067 95 1690 -26 1466 -26 
z
" transform="scale(0.015625)"/>
        <path id="CMR17-33" d="M 1414 2157 
C 1984 2157 2234 1662 2234 1090 
C 2234 320 1824 25 1453 25 
C 1114 25 563 194 390 693 
C 422 680 454 680 486 680 
C 640 680 755 782 755 948 
C 755 1133 614 1216 486 1216 
C 378 1216 211 1165 211 926 
C 211 335 787 -128 1466 -128 
C 2176 -128 2720 430 2720 1085 
C 2720 1707 2208 2157 1600 2227 
C 2086 2328 2554 2756 2554 3329 
C 2554 3820 2048 4179 1472 4179 
C 890 4179 378 3829 378 3329 
C 378 3110 544 3072 627 3072 
C 762 3072 877 3155 877 3321 
C 877 3486 762 3569 627 3569 
C 602 3569 570 3569 544 3557 
C 730 3959 1235 4032 1459 4032 
C 1683 4032 2106 3925 2106 3320 
C 2106 3143 2080 2828 1862 2550 
C 1670 2304 1453 2304 1242 2284 
C 1210 2284 1062 2269 1037 2269 
C 992 2263 966 2257 966 2208 
C 966 2163 973 2157 1101 2157 
L 1414 2157 
z
" transform="scale(0.015625)"/>
       </defs>
       <use xlink:href="#CMR17-31" transform="scale(0.996264)"/>
       <use xlink:href="#CMR17-30" transform="translate(45.690477 0) scale(0.996264)"/>
       <use xlink:href="#CMR17-33" transform="translate(91.380954 36.153639) scale(0.697382)"/>
      </g>
     </g>
    </g>
    <g id="xtick_2">
     <g id="line2d_2">
      <defs>
       <path id="mde81ef481e" d="M 0 0 
L 0 2 
" style="stroke: #000000; stroke-width: 0.6"/>
      </defs>
      <g>
       <use xlink:href="#mde81ef481e" x="122.677171" y="333.849675" style="stroke: #000000; stroke-width: 0.6"/>
      </g>
     </g>
    </g>
    <g id="xtick_3">
     <g id="line2d_3">
      <g>
       <use xlink:href="#mde81ef481e" x="184.891027" y="333.849675" style="stroke: #000000; stroke-width: 0.6"/>
      </g>
     </g>
    </g>
    <g id="xtick_4">
     <g id="line2d_4">
      <g>
       <use xlink:href="#mde81ef481e" x="229.03246" y="333.849675" style="stroke: #000000; stroke-width: 0.6"/>
      </g>
     </g>
    </g>
    <g id="xtick_5">
     <g id="line2d_5">
      <g>
       <use xlink:href="#mde81ef481e" x="263.271216" y="333.849675" style="stroke: #000000; stroke-width: 0.6"/>
      </g>
     </g>
    </g>
    <g id="xtick_6">
     <g id="line2d_6">
      <g>
       <use xlink:href="#mde81ef481e" x="291.246316" y="333.849675" style="stroke: #000000; stroke-width: 0.6"/>
      </g>
     </g>
    </g>
    <g id="xtick_7">
     <g id="line2d_7">
      <g>
       <use xlink:href="#mde81ef481e" x="314.898926" y="333.849675" style="stroke: #000000; stroke-width: 0.6"/>
      </g>
     </g>
    </g>
    <g id="xtick_8">
     <g id="line2d_8">
      <g>
       <use xlink:href="#mde81ef481e" x="335.387749" y="333.849675" style="stroke: #000000; stroke-width: 0.6"/>
      </g>
     </g>
    </g>
    <g id="xtick_9">
     <g id="line2d_9">
      <g>
       <use xlink:href="#mde81ef481e" x="353.460171" y="333.849675" style="stroke: #000000; stroke-width: 0.6"/>
      </g>
     </g>
    </g>
    <g id="xtick_10">
     <g id="line2d_10">
      <g>
       <use xlink:href="#mde81ef481e" x="475.981793" y="333.849675" style="stroke: #000000; stroke-width: 0.6"/>
      </g>
     </g>
    </g>
    <g id="xtick_11">
     <g id="line2d_11">
      <g>
       <use xlink:href="#mde81ef481e" x="538.195648" y="333.849675" style="stroke: #000000; stroke-width: 0.6"/>
      </g>
     </g>
    </g>
    <g id="xtick_12">
     <g id="line2d_12">
      <g>
       <use xlink:href="#mde81ef481e" x="582.337081" y="333.849675" style="stroke: #000000; stroke-width: 0.6"/>
      </g>
     </g>
    </g>
    <g id="xtick_13">
     <g id="line2d_13">
      <g>
       <use xlink:href="#mde81ef481e" x="616.575837" y="333.849675" style="stroke: #000000; stroke-width: 0.6"/>
      </g>
     </g>
    </g>
    <g id="xtick_14">
     <g id="line2d_14">
      <g>
       <use xlink:href="#mde81ef481e" x="644.550937" y="333.849675" style="stroke: #000000; stroke-width: 0.6"/>
      </g>
     </g>
    </g>
    <g id="xtick_15">
     <g id="line2d_15">
      <g>
       <use xlink:href="#mde81ef481e" x="668.203547" y="333.849675" style="stroke: #000000; stroke-width: 0.6"/>
      </g>
     </g>
    </g>
    <g id="text_2">
     <!-- $k$ -->
     <g transform="translate(374.197881 382.709243) scale(0.24 -0.24)">
      <defs>
       <path id="CMMI12-6b" d="M 1798 4257 
C 1805 4283 1818 4321 1818 4352 
C 1818 4416 1754 4416 1741 4416 
C 1734 4416 1504 4393 1389 4377 
C 1280 4377 1184 4358 1069 4358 
C 915 4345 870 4339 870 4224 
C 870 4160 934 4160 998 4160 
C 1325 4160 1325 4103 1325 4040 
C 1325 4015 1325 4002 1293 3888 
L 378 248 
C 352 152 352 140 352 101 
C 352 -38 461 -64 525 -64 
C 704 -64 742 77 794 275 
L 1094 1469 
C 1555 1418 1830 1226 1830 920 
C 1830 881 1830 856 1811 760 
C 1786 664 1786 588 1786 556 
C 1786 185 2029 -64 2355 -64 
C 2650 -64 2803 204 2854 294 
C 2989 530 3072 888 3072 913 
C 3072 945 3046 971 3008 971 
C 2950 971 2944 945 2918 843 
C 2829 511 2694 64 2368 64 
C 2240 64 2157 128 2157 370 
C 2157 492 2182 632 2208 728 
C 2234 843 2234 849 2234 926 
C 2234 1303 1894 1514 1306 1590 
C 1536 1731 1766 1980 1856 2076 
C 2221 2484 2470 2689 2765 2689 
C 2912 2689 2950 2650 2995 2612 
C 2758 2586 2669 2420 2669 2293 
C 2669 2139 2790 2088 2880 2088 
C 3053 2088 3206 2235 3206 2440 
C 3206 2625 3059 2816 2771 2816 
C 2419 2816 2131 2567 1677 2056 
C 1613 1980 1376 1737 1139 1648 
L 1798 4257 
z
" transform="scale(0.015625)"/>
      </defs>
      <use xlink:href="#CMMI12-6b" transform="scale(0.996264)"/>
     </g>
    </g>
   </g>
   <g id="matplotlib.axis_2">
    <g id="ytick_1">
     <g id="line2d_16">
      <defs>
       <path id="m26224309fb" d="M 0 0 
L -3.5 0 
" style="stroke: #000000; stroke-width: 0.8"/>
      </defs>
      <g>
       <use xlink:href="#m26224309fb" x="85.212208" y="282.247045" style="stroke: #000000; stroke-width: 0.8"/>
      </g>
     </g>
     <g id="text_3">
      <!-- $\mathdefault{10^{-4}}$ -->
      <g transform="translate(35.068805 290.549247) scale(0.24 -0.24)">
       <defs>
        <path id="CMSY10-0" d="M 4218 1472 
C 4326 1472 4442 1472 4442 1600 
C 4442 1728 4326 1728 4218 1728 
L 755 1728 
C 646 1728 531 1728 531 1600 
C 531 1472 646 1472 755 1472 
L 4218 1472 
z
" transform="scale(0.015625)"/>
        <path id="CMR17-34" d="M 2150 4122 
C 2150 4256 2144 4256 2029 4256 
L 128 1254 
L 128 1088 
L 1779 1088 
L 1779 457 
C 1779 224 1766 160 1318 160 
L 1197 160 
L 1197 0 
C 1402 0 1747 0 1965 0 
C 2182 0 2528 0 2733 0 
L 2733 160 
L 2611 160 
C 2163 160 2150 224 2150 457 
L 2150 1088 
L 2803 1088 
L 2803 1254 
L 2150 1254 
L 2150 4122 
z
M 1798 3703 
L 1798 1254 
L 256 1254 
L 1798 3703 
z
" transform="scale(0.015625)"/>
       </defs>
       <use xlink:href="#CMR17-31" transform="scale(0.996264)"/>
       <use xlink:href="#CMR17-30" transform="translate(45.690477 0) scale(0.996264)"/>
       <use xlink:href="#CMSY10-0" transform="translate(91.380954 36.153639) scale(0.697382)"/>
       <use xlink:href="#CMR17-34" transform="translate(145.621947 36.153639) scale(0.697382)"/>
      </g>
     </g>
    </g>
    <g id="ytick_2">
     <g id="line2d_17">
      <g>
       <use xlink:href="#m26224309fb" x="85.212208" y="182.400284" style="stroke: #000000; stroke-width: 0.8"/>
      </g>
     </g>
     <g id="text_4">
      <!-- $\mathdefault{10^{-2}}$ -->
      <g transform="translate(35.068805 190.702487) scale(0.24 -0.24)">
       <defs>
        <path id="CMR17-32" d="M 2669 989 
L 2554 989 
C 2490 536 2438 459 2413 420 
C 2381 369 1920 369 1830 369 
L 602 369 
C 832 619 1280 1072 1824 1597 
C 2214 1967 2669 2402 2669 3035 
C 2669 3790 2067 4224 1395 4224 
C 691 4224 262 3604 262 3030 
C 262 2780 448 2748 525 2748 
C 589 2748 781 2787 781 3010 
C 781 3207 614 3264 525 3264 
C 486 3264 448 3258 422 3245 
C 544 3790 915 4058 1306 4058 
C 1862 4058 2227 3617 2227 3035 
C 2227 2479 1901 2000 1536 1584 
L 262 146 
L 262 0 
L 2515 0 
L 2669 989 
z
" transform="scale(0.015625)"/>
       </defs>
       <use xlink:href="#CMR17-31" transform="scale(0.996264)"/>
       <use xlink:href="#CMR17-30" transform="translate(45.690477 0) scale(0.996264)"/>
       <use xlink:href="#CMSY10-0" transform="translate(91.380954 36.153639) scale(0.697382)"/>
       <use xlink:href="#CMR17-32" transform="translate(145.621947 36.153639) scale(0.697382)"/>
      </g>
     </g>
    </g>
    <g id="ytick_3">
     <g id="line2d_18">
      <g>
       <use xlink:href="#m26224309fb" x="85.212208" y="82.553524" style="stroke: #000000; stroke-width: 0.8"/>
      </g>
     </g>
     <g id="text_5">
      <!-- $\mathdefault{10^{0}}$ -->
      <g transform="translate(48.086638 90.855727) scale(0.24 -0.24)">
       <use xlink:href="#CMR17-31" transform="scale(0.996264)"/>
       <use xlink:href="#CMR17-30" transform="translate(45.690477 0) scale(0.996264)"/>
       <use xlink:href="#CMR17-30" transform="translate(91.380954 36.153639) scale(0.697382)"/>
      </g>
     </g>
    </g>
    <g id="text_6">
     <!-- $P(k)$ -->
     <g transform="translate(25.111226 194.652818) rotate(-90) scale(0.24 -0.24)">
      <defs>
       <path id="CMMI12-50" d="M 1894 2023 
L 2970 2023 
C 3853 2023 4736 2673 4736 3401 
C 4736 3898 4314 4352 3507 4352 
L 1530 4352 
C 1408 4352 1350 4352 1350 4231 
C 1350 4167 1408 4167 1504 4167 
C 1894 4167 1894 4116 1894 4046 
C 1894 4034 1894 3995 1869 3899 
L 1005 472 
C 947 249 934 185 486 185 
C 365 185 301 185 301 70 
C 301 0 358 0 397 0 
C 518 0 646 0 768 0 
L 1517 0 
C 1638 0 1773 0 1894 0 
C 1946 0 2016 0 2016 121 
C 2016 185 1958 185 1862 185 
C 1478 185 1472 230 1472 293 
C 1472 325 1478 369 1485 401 
L 1894 2023 
z
M 2355 3930 
C 2413 4167 2438 4167 2688 4167 
L 3322 4167 
C 3802 4167 4198 4013 4198 3535 
C 4198 3369 4115 2827 3821 2534 
C 3712 2419 3405 2176 2822 2176 
L 1920 2176 
L 2355 3930 
z
" transform="scale(0.015625)"/>
       <path id="CMR17-28" d="M 1958 -1561 
C 1958 -1555 1958 -1542 1939 -1523 
C 1645 -1224 858 -407 858 1581 
C 858 3569 1632 4379 1946 4697 
C 1946 4704 1958 4717 1958 4736 
C 1958 4755 1939 4768 1914 4768 
C 1843 4768 1299 4296 986 3594 
C 666 2887 576 2199 576 1588 
C 576 1128 621 351 1005 -471 
C 1312 -1135 1837 -1600 1914 -1600 
C 1946 -1600 1958 -1587 1958 -1561 
z
" transform="scale(0.015625)"/>
       <path id="CMR17-29" d="M 1683 1581 
C 1683 2040 1638 2817 1254 3639 
C 947 4303 422 4768 346 4768 
C 326 4768 301 4761 301 4729 
C 301 4717 307 4710 314 4697 
C 621 4378 1402 3568 1402 1584 
C 1402 -407 627 -1217 314 -1537 
C 307 -1549 301 -1556 301 -1568 
C 301 -1600 326 -1600 346 -1600 
C 416 -1600 960 -1128 1274 -426 
C 1594 281 1683 969 1683 1581 
z
" transform="scale(0.015625)"/>
      </defs>
      <use xlink:href="#CMMI12-50" transform="scale(0.996264)"/>
      <use xlink:href="#CMR17-28" transform="translate(76.425821 0) scale(0.996264)"/>
      <use xlink:href="#CMMI12-6b" transform="translate(111.706589 0) scale(0.996264)"/>
      <use xlink:href="#CMR17-29" transform="translate(165.785789 0) scale(0.996264)"/>
     </g>
    </g>
   </g>
   <g id="line2d_19">
    <defs>
     <path id="m4a18eb53f6" d="M 0 2 
C 0.530406 2 1.03916 1.789267 1.414214 1.414214 
C 1.789267 1.03916 2 0.530406 2 0 
C 2 -0.530406 1.789267 -1.03916 1.414214 -1.414214 
C 1.03916 -1.789267 0.530406 -2 0 -2 
C -0.530406 -2 -1.03916 -1.789267 -1.414214 -1.414214 
C -1.789267 -1.03916 -2 -0.530406 -2 0 
C -2 0.530406 -1.789267 1.03916 -1.414214 1.414214 
C -1.03916 1.789267 -0.530406 2 0 2 
z
" style="stroke: #0000ff"/>
    </defs>
    <g clip-path="url(#p4331e2956b)">
     <use xlink:href="#m4a18eb53f6" x="112.037108" y="41.504191" style="fill: #0000ff; stroke: #0000ff"/>
     <use xlink:href="#m4a18eb53f6" x="190.417296" y="84.574807" style="fill: #0000ff; stroke: #0000ff"/>
     <use xlink:href="#m4a18eb53f6" x="242.045007" y="110.832184" style="fill: #0000ff; stroke: #0000ff"/>
     <use xlink:href="#m4a18eb53f6" x="280.606252" y="130.471881" style="fill: #0000ff; stroke: #0000ff"/>
     <use xlink:href="#m4a18eb53f6" x="311.396812" y="146.051819" style="fill: #0000ff; stroke: #0000ff"/>
     <use xlink:href="#m4a18eb53f6" x="337.029298" y="158.566818" style="fill: #0000ff; stroke: #0000ff"/>
     <use xlink:href="#m4a18eb53f6" x="358.986441" y="169.184109" style="fill: #0000ff; stroke: #0000ff"/>
     <use xlink:href="#m4a18eb53f6" x="378.191254" y="178.932784" style="fill: #0000ff; stroke: #0000ff"/>
     <use xlink:href="#m4a18eb53f6" x="395.25752" y="188.153173" style="fill: #0000ff; stroke: #0000ff"/>
     <use xlink:href="#m4a18eb53f6" x="410.614151" y="195.636212" style="fill: #0000ff; stroke: #0000ff"/>
     <use xlink:href="#m4a18eb53f6" x="424.572701" y="203.047421" style="fill: #0000ff; stroke: #0000ff"/>
     <use xlink:href="#m4a18eb53f6" x="437.366629" y="210.151389" style="fill: #0000ff; stroke: #0000ff"/>
     <use xlink:href="#m4a18eb53f6" x="449.175396" y="216.445807" style="fill: #0000ff; stroke: #0000ff"/>
     <use xlink:href="#m4a18eb53f6" x="460.139935" y="222.267198" style="fill: #0000ff; stroke: #0000ff"/>
     <use xlink:href="#m4a18eb53f6" x="470.372942" y="226.685311" style="fill: #0000ff; stroke: #0000ff"/>
     <use xlink:href="#m4a18eb53f6" x="479.965956" y="231.822792" style="fill: #0000ff; stroke: #0000ff"/>
     <use xlink:href="#m4a18eb53f6" x="488.994339" y="236.60585" style="fill: #0000ff; stroke: #0000ff"/>
     <use xlink:href="#m4a18eb53f6" x="497.52088" y="241.016928" style="fill: #0000ff; stroke: #0000ff"/>
     <use xlink:href="#m4a18eb53f6" x="505.598442" y="245.279207" style="fill: #0000ff; stroke: #0000ff"/>
     <use xlink:href="#m4a18eb53f6" x="513.271953" y="248.699459" style="fill: #0000ff; stroke: #0000ff"/>
     <use xlink:href="#m4a18eb53f6" x="520.579918" y="253.274339" style="fill: #0000ff; stroke: #0000ff"/>
     <use xlink:href="#m4a18eb53f6" x="527.555585" y="256.495676" style="fill: #0000ff; stroke: #0000ff"/>
     <use xlink:href="#m4a18eb53f6" x="534.227864" y="259.926178" style="fill: #0000ff; stroke: #0000ff"/>
     <use xlink:href="#m4a18eb53f6" x="540.62205" y="263.531174" style="fill: #0000ff; stroke: #0000ff"/>
     <use xlink:href="#m4a18eb53f6" x="546.760398" y="266.9105" style="fill: #0000ff; stroke: #0000ff"/>
     <use xlink:href="#m4a18eb53f6" x="552.662597" y="270.067703" style="fill: #0000ff; stroke: #0000ff"/>
     <use xlink:href="#m4a18eb53f6" x="558.346145" y="272.582658" style="fill: #0000ff; stroke: #0000ff"/>
     <use xlink:href="#m4a18eb53f6" x="563.826665" y="275.213581" style="fill: #0000ff; stroke: #0000ff"/>
     <use xlink:href="#m4a18eb53f6" x="569.118163" y="278.228659" style="fill: #0000ff; stroke: #0000ff"/>
     <use xlink:href="#m4a18eb53f6" x="574.233245" y="280.979258" style="fill: #0000ff; stroke: #0000ff"/>
     <use xlink:href="#m4a18eb53f6" x="579.183295" y="283.17932" style="fill: #0000ff; stroke: #0000ff"/>
     <use xlink:href="#m4a18eb53f6" x="583.978631" y="285.612115" style="fill: #0000ff; stroke: #0000ff"/>
     <use xlink:href="#m4a18eb53f6" x="588.62863" y="288.327981" style="fill: #0000ff; stroke: #0000ff"/>
     <use xlink:href="#m4a18eb53f6" x="593.141845" y="290.111031" style="fill: #0000ff; stroke: #0000ff"/>
     <use xlink:href="#m4a18eb53f6" x="597.526094" y="292.180023" style="fill: #0000ff; stroke: #0000ff"/>
     <use xlink:href="#m4a18eb53f6" x="601.788541" y="294.384019" style="fill: #0000ff; stroke: #0000ff"/>
     <use xlink:href="#m4a18eb53f6" x="605.935773" y="296.670459" style="fill: #0000ff; stroke: #0000ff"/>
     <use xlink:href="#m4a18eb53f6" x="609.973855" y="298.695456" style="fill: #0000ff; stroke: #0000ff"/>
     <use xlink:href="#m4a18eb53f6" x="613.908385" y="300.391964" style="fill: #0000ff; stroke: #0000ff"/>
     <use xlink:href="#m4a18eb53f6" x="617.744541" y="302.689196" style="fill: #0000ff; stroke: #0000ff"/>
     <use xlink:href="#m4a18eb53f6" x="621.487122" y="304.986631" style="fill: #0000ff; stroke: #0000ff"/>
     <use xlink:href="#m4a18eb53f6" x="625.140587" y="307.072053" style="fill: #0000ff; stroke: #0000ff"/>
     <use xlink:href="#m4a18eb53f6" x="628.709079" y="308.136606" style="fill: #0000ff; stroke: #0000ff"/>
     <use xlink:href="#m4a18eb53f6" x="632.196462" y="311.123177" style="fill: #0000ff; stroke: #0000ff"/>
     <use xlink:href="#m4a18eb53f6" x="635.606341" y="311.767006" style="fill: #0000ff; stroke: #0000ff"/>
     <use xlink:href="#m4a18eb53f6" x="638.942086" y="312.744968" style="fill: #0000ff; stroke: #0000ff"/>
     <use xlink:href="#m4a18eb53f6" x="642.206853" y="316.335426" style="fill: #0000ff; stroke: #0000ff"/>
     <use xlink:href="#m4a18eb53f6" x="645.403599" y="315.009531" style="fill: #0000ff; stroke: #0000ff"/>
     <use xlink:href="#m4a18eb53f6" x="648.5351" y="315.536467" style="fill: #0000ff; stroke: #0000ff"/>
    </g>
   </g>
   <g id="line2d_20">
    <defs>
     <path id="m81678683d6" d="M -2 2 
L 2 2 
L 2 -2 
L -2 -2 
z
" style="stroke: #ff0000; stroke-linejoin: miter"/>
    </defs>
    <g clip-path="url(#p4331e2956b)">
     <use xlink:href="#m81678683d6" x="112.037108" y="22.047712" style="fill: #ff0000; stroke: #ff0000; stroke-linejoin: miter"/>
     <use xlink:href="#m81678683d6" x="190.417296" y="57.712238" style="fill: #ff0000; stroke: #ff0000; stroke-linejoin: miter"/>
     <use xlink:href="#m81678683d6" x="242.045007" y="82.889785" style="fill: #ff0000; stroke: #ff0000; stroke-linejoin: miter"/>
     <use xlink:href="#m81678683d6" x="280.606252" y="100.784259" style="fill: #ff0000; stroke: #ff0000; stroke-linejoin: miter"/>
     <use xlink:href="#m81678683d6" x="311.396812" y="115.763573" style="fill: #ff0000; stroke: #ff0000; stroke-linejoin: miter"/>
     <use xlink:href="#m81678683d6" x="337.029298" y="128.090802" style="fill: #ff0000; stroke: #ff0000; stroke-linejoin: miter"/>
     <use xlink:href="#m81678683d6" x="358.986441" y="138.546141" style="fill: #ff0000; stroke: #ff0000; stroke-linejoin: miter"/>
     <use xlink:href="#m81678683d6" x="378.191254" y="148.073469" style="fill: #ff0000; stroke: #ff0000; stroke-linejoin: miter"/>
     <use xlink:href="#m81678683d6" x="395.25752" y="155.533668" style="fill: #ff0000; stroke: #ff0000; stroke-linejoin: miter"/>
     <use xlink:href="#m81678683d6" x="410.614151" y="162.77745" style="fill: #ff0000; stroke: #ff0000; stroke-linejoin: miter"/>
     <use xlink:href="#m81678683d6" x="424.572701" y="169.188905" style="fill: #ff0000; stroke: #ff0000; stroke-linejoin: miter"/>
     <use xlink:href="#m81678683d6" x="437.366629" y="175.450802" style="fill: #ff0000; stroke: #ff0000; stroke-linejoin: miter"/>
     <use xlink:href="#m81678683d6" x="449.175396" y="181.546847" style="fill: #ff0000; stroke: #ff0000; stroke-linejoin: miter"/>
     <use xlink:href="#m81678683d6" x="460.139935" y="187.172355" style="fill: #ff0000; stroke: #ff0000; stroke-linejoin: miter"/>
     <use xlink:href="#m81678683d6" x="470.372942" y="191.95671" style="fill: #ff0000; stroke: #ff0000; stroke-linejoin: miter"/>
     <use xlink:href="#m81678683d6" x="479.965956" y="196.216963" style="fill: #ff0000; stroke: #ff0000; stroke-linejoin: miter"/>
     <use xlink:href="#m81678683d6" x="488.994339" y="200.787624" style="fill: #ff0000; stroke: #ff0000; stroke-linejoin: miter"/>
     <use xlink:href="#m81678683d6" x="497.52088" y="204.693382" style="fill: #ff0000; stroke: #ff0000; stroke-linejoin: miter"/>
     <use xlink:href="#m81678683d6" x="505.598442" y="208.811768" style="fill: #ff0000; stroke: #ff0000; stroke-linejoin: miter"/>
     <use xlink:href="#m81678683d6" x="513.271953" y="211.980283" style="fill: #ff0000; stroke: #ff0000; stroke-linejoin: miter"/>
     <use xlink:href="#m81678683d6" x="520.579918" y="215.19582" style="fill: #ff0000; stroke: #ff0000; stroke-linejoin: miter"/>
     <use xlink:href="#m81678683d6" x="527.555585" y="218.558282" style="fill: #ff0000; stroke: #ff0000; stroke-linejoin: miter"/>
     <use xlink:href="#m81678683d6" x="534.227864" y="221.90316" style="fill: #ff0000; stroke: #ff0000; stroke-linejoin: miter"/>
     <use xlink:href="#m81678683d6" x="540.62205" y="224.49768" style="fill: #ff0000; stroke: #ff0000; stroke-linejoin: miter"/>
     <use xlink:href="#m81678683d6" x="546.760398" y="227.146231" style="fill: #ff0000; stroke: #ff0000; stroke-linejoin: miter"/>
     <use xlink:href="#m81678683d6" x="552.662597" y="230.234706" style="fill: #ff0000; stroke: #ff0000; stroke-linejoin: miter"/>
     <use xlink:href="#m81678683d6" x="558.346145" y="232.515797" style="fill: #ff0000; stroke: #ff0000; stroke-linejoin: miter"/>
     <use xlink:href="#m81678683d6" x="563.826665" y="234.952022" style="fill: #ff0000; stroke: #ff0000; stroke-linejoin: miter"/>
     <use xlink:href="#m81678683d6" x="569.118163" y="237.262904" style="fill: #ff0000; stroke: #ff0000; stroke-linejoin: miter"/>
     <use xlink:href="#m81678683d6" x="574.233245" y="239.376114" style="fill: #ff0000; stroke: #ff0000; stroke-linejoin: miter"/>
     <use xlink:href="#m81678683d6" x="579.183295" y="241.177582" style="fill: #ff0000; stroke: #ff0000; stroke-linejoin: miter"/>
     <use xlink:href="#m81678683d6" x="583.978631" y="242.481726" style="fill: #ff0000; stroke: #ff0000; stroke-linejoin: miter"/>
     <use xlink:href="#m81678683d6" x="588.62863" y="244.237781" style="fill: #ff0000; stroke: #ff0000; stroke-linejoin: miter"/>
     <use xlink:href="#m81678683d6" x="593.141845" y="245.507604" style="fill: #ff0000; stroke: #ff0000; stroke-linejoin: miter"/>
     <use xlink:href="#m81678683d6" x="597.526094" y="246.71054" style="fill: #ff0000; stroke: #ff0000; stroke-linejoin: miter"/>
     <use xlink:href="#m81678683d6" x="601.788541" y="248.184309" style="fill: #ff0000; stroke: #ff0000; stroke-linejoin: miter"/>
     <use xlink:href="#m81678683d6" x="605.935773" y="249.381586" style="fill: #ff0000; stroke: #ff0000; stroke-linejoin: miter"/>
     <use xlink:href="#m81678683d6" x="609.973855" y="251.029991" style="fill: #ff0000; stroke: #ff0000; stroke-linejoin: miter"/>
     <use xlink:href="#m81678683d6" x="613.908385" y="252.534779" style="fill: #ff0000; stroke: #ff0000; stroke-linejoin: miter"/>
     <use xlink:href="#m81678683d6" x="617.744541" y="253.797248" style="fill: #ff0000; stroke: #ff0000; stroke-linejoin: miter"/>
     <use xlink:href="#m81678683d6" x="621.487122" y="255.226041" style="fill: #ff0000; stroke: #ff0000; stroke-linejoin: miter"/>
     <use xlink:href="#m81678683d6" x="625.140587" y="255.952452" style="fill: #ff0000; stroke: #ff0000; stroke-linejoin: miter"/>
     <use xlink:href="#m81678683d6" x="628.709079" y="256.597795" style="fill: #ff0000; stroke: #ff0000; stroke-linejoin: miter"/>
     <use xlink:href="#m81678683d6" x="632.196462" y="258.542335" style="fill: #ff0000; stroke: #ff0000; stroke-linejoin: miter"/>
     <use xlink:href="#m81678683d6" x="635.606341" y="257.775019" style="fill: #ff0000; stroke: #ff0000; stroke-linejoin: miter"/>
     <use xlink:href="#m81678683d6" x="638.942086" y="259.921168" style="fill: #ff0000; stroke: #ff0000; stroke-linejoin: miter"/>
     <use xlink:href="#m81678683d6" x="642.206853" y="259.700858" style="fill: #ff0000; stroke: #ff0000; stroke-linejoin: miter"/>
     <use xlink:href="#m81678683d6" x="645.403599" y="260.502874" style="fill: #ff0000; stroke: #ff0000; stroke-linejoin: miter"/>
     <use xlink:href="#m81678683d6" x="648.5351" y="260.66058" style="fill: #ff0000; stroke: #ff0000; stroke-linejoin: miter"/>
    </g>
   </g>
   <g id="line2d_21">
    <path d="M 112.037108 41.034351 
L 117.45628 43.842105 
L 122.875451 46.649859 
L 128.294623 49.457612 
L 133.713794 52.265366 
L 139.132966 55.07312 
L 144.552138 57.880873 
L 149.971309 60.688627 
L 155.390481 63.49638 
L 160.809653 66.304134 
L 166.228824 69.111888 
L 171.647996 71.919641 
L 177.067168 74.727395 
L 182.486339 77.535149 
L 187.905511 80.342902 
L 193.324682 83.150656 
L 198.743854 85.95841 
L 204.163026 88.766163 
L 209.582197 91.573917 
L 215.001369 94.381671 
L 220.420541 97.189424 
L 225.839712 99.997178 
L 231.258884 102.804932 
L 236.678056 105.612685 
L 242.097227 108.420439 
L 247.516399 111.228192 
L 252.935571 114.035946 
L 258.354742 116.8437 
L 263.773914 119.651453 
L 269.193085 122.459207 
L 274.612257 125.266961 
L 280.031429 128.074714 
L 285.4506 130.882468 
L 290.869772 133.690222 
L 296.288944 136.497975 
L 301.708115 139.305729 
L 307.127287 142.113483 
L 312.546459 144.921236 
L 317.96563 147.72899 
L 323.384802 150.536744 
L 328.803974 153.344497 
L 334.223145 156.152251 
L 339.642317 158.960005 
L 345.061488 161.767758 
L 350.48066 164.575512 
L 355.899832 167.383265 
L 361.319003 170.191019 
L 366.738175 172.998773 
L 372.157347 175.806526 
L 377.576518 178.61428 
L 382.99569 181.422034 
L 388.414862 184.229787 
L 393.834033 187.037541 
L 399.253205 189.845295 
L 404.672377 192.653048 
L 410.091548 195.460802 
L 415.51072 198.268556 
L 420.929891 201.076309 
L 426.349063 203.884063 
L 431.768235 206.691817 
L 437.187406 209.49957 
L 442.606578 212.307324 
L 448.02575 215.115077 
L 453.444921 217.922831 
L 458.864093 220.730585 
L 464.283265 223.538338 
L 469.702436 226.346092 
L 475.121608 229.153846 
L 480.540779 231.961599 
L 485.959951 234.769353 
L 491.379123 237.577107 
L 496.798294 240.38486 
L 502.217466 243.192614 
L 507.636638 246.000368 
L 513.055809 248.808121 
L 518.474981 251.615875 
L 523.894153 254.423629 
L 529.313324 257.231382 
L 534.732496 260.039136 
L 540.151668 262.846889 
L 545.570839 265.654643 
L 550.990011 268.462397 
L 556.409182 271.27015 
L 561.828354 274.077904 
L 567.247526 276.885658 
L 572.666697 279.693411 
L 578.085869 282.501165 
L 583.505041 285.308919 
L 588.924212 288.116672 
L 594.343384 290.924426 
L 599.762556 293.73218 
L 605.181727 296.539933 
L 610.600899 299.347687 
L 616.020071 302.155441 
L 621.439242 304.963194 
L 626.858414 307.770948 
L 632.277585 310.578702 
L 637.696757 313.386455 
L 643.115929 316.194209 
L 648.5351 319.001962 
" clip-path="url(#p4331e2956b)" style="fill: none; stroke-dasharray: 5.55,2.4; stroke-dashoffset: 0; stroke: #808080; stroke-opacity: 0.7; stroke-width: 1.5"/>
   </g>
   <g id="patch_3">
    <path d="M 85.212208 333.849675 
L 85.212208 7.2 
" style="fill: none; stroke: #000000; stroke-width: 0.8; stroke-linejoin: miter; stroke-linecap: square"/>
   </g>
   <g id="patch_4">
    <path d="M 675.36 333.849675 
L 675.36 7.2 
" style="fill: none; stroke: #000000; stroke-width: 0.8; stroke-linejoin: miter; stroke-linecap: square"/>
   </g>
   <g id="patch_5">
    <path d="M 85.212208 333.849675 
L 675.36 333.849675 
" style="fill: none; stroke: #000000; stroke-width: 0.8; stroke-linejoin: miter; stroke-linecap: square"/>
   </g>
   <g id="patch_6">
    <path d="M 85.212208 7.2 
L 675.36 7.2 
" style="fill: none; stroke: #000000; stroke-width: 0.8; stroke-linejoin: miter; stroke-linecap: square"/>
   </g>
   <g id="legend_1">
    <g id="line2d_22">
     <g>
      <use xlink:href="#m4a18eb53f6" x="487.377844" y="38.332752" style="fill: #0000ff; stroke: #0000ff"/>
     </g>
    </g>
    <g id="text_7">
     <!-- $P(k)$ for $|P_i|$ -->
     <g transform="translate(530.577844 46.732752) scale(0.24 -0.24)">
      <defs>
       <path id="CMR17-66" d="M 979 2560 
L 1709 2560 
L 1709 2725 
L 966 2725 
L 966 3494 
C 966 4022 1235 4352 1510 4352 
C 1594 4352 1690 4327 1754 4282 
C 1702 4269 1568 4225 1568 4067 
C 1568 3901 1696 3850 1786 3850 
C 1875 3850 2003 3901 2003 4067 
C 2003 4308 1773 4454 1517 4454 
C 1152 4454 653 4156 653 3481 
L 653 2725 
L 141 2725 
L 141 2560 
L 653 2560 
L 653 427 
C 653 184 627 153 218 153 
L 218 -13 
C 371 0 666 0 832 0 
C 1018 0 1344 0 1517 -13 
L 1517 153 
C 1056 153 979 153 979 439 
L 979 2560 
z
" transform="scale(0.015625)"/>
       <path id="CMR17-6f" d="M 2758 1356 
C 2758 2176 2163 2816 1466 2816 
C 768 2816 173 2176 173 1356 
C 173 551 768 -64 1466 -64 
C 2163 -64 2758 551 2758 1356 
z
M 1466 51 
C 1165 51 909 230 762 480 
C 602 767 582 1126 582 1408 
C 582 1677 595 2010 762 2298 
C 890 2509 1139 2714 1466 2714 
C 1754 2714 1997 2554 2150 2330 
C 2349 2029 2349 1607 2349 1408 
C 2349 1158 2336 775 2163 467 
C 1984 173 1709 51 1466 51 
z
" transform="scale(0.015625)"/>
       <path id="CMR17-72" d="M 960 1497 
C 960 2112 1222 2688 1702 2688 
C 1747 2688 1792 2682 1837 2662 
C 1837 2662 1696 2617 1696 2452 
C 1696 2298 1818 2234 1914 2234 
C 1990 2234 2131 2279 2131 2458 
C 2131 2663 1926 2790 1709 2790 
C 1222 2790 1011 2317 947 2093 
L 941 2093 
L 941 2790 
L 198 2720 
L 198 2554 
C 576 2554 634 2515 634 2208 
L 634 428 
C 634 184 608 153 198 153 
L 198 -13 
C 352 0 646 0 813 0 
C 998 0 1325 0 1498 -13 
L 1498 153 
C 1037 153 960 153 960 440 
L 960 1497 
z
" transform="scale(0.015625)"/>
       <path id="CMSY10-6a" d="M 1018 4570 
C 1018 4685 1018 4800 890 4800 
C 762 4800 762 4685 762 4570 
L 762 -1370 
C 762 -1485 762 -1600 890 -1600 
C 1018 -1600 1018 -1485 1018 -1370 
L 1018 4570 
z
" transform="scale(0.015625)"/>
       <path id="CMMI12-69" d="M 1811 913 
C 1811 945 1786 971 1747 971 
C 1690 971 1683 952 1651 843 
C 1485 262 1222 64 1011 64 
C 934 64 845 83 845 275 
C 845 447 922 639 992 830 
L 1440 2018 
C 1459 2069 1504 2184 1504 2305 
C 1504 2574 1312 2816 998 2816 
C 410 2816 173 1890 173 1839 
C 173 1814 198 1782 243 1782 
C 301 1782 307 1807 333 1896 
C 486 2428 730 2682 979 2682 
C 1037 2682 1146 2682 1146 2478 
C 1146 2312 1062 2101 1011 1961 
L 563 773 
C 525 671 486 568 486 453 
C 486 166 685 -64 992 -64 
C 1581 -64 1811 869 1811 913 
z
M 1760 4013 
C 1760 4109 1683 4224 1542 4224 
C 1395 4224 1229 4083 1229 3917 
C 1229 3758 1363 3707 1440 3707 
C 1613 3707 1760 3873 1760 4013 
z
" transform="scale(0.015625)"/>
      </defs>
      <use xlink:href="#CMMI12-50" transform="scale(0.996264)"/>
      <use xlink:href="#CMR17-28" transform="translate(76.425821 0) scale(0.996264)"/>
      <use xlink:href="#CMMI12-6b" transform="translate(111.706589 0) scale(0.996264)"/>
      <use xlink:href="#CMR17-29" transform="translate(165.785789 0) scale(0.996264)"/>
      <use xlink:href="#CMR17-66" transform="translate(231.142523 0) scale(0.996264)"/>
      <use xlink:href="#CMR17-6f" transform="translate(258.616036 0) scale(0.996264)"/>
      <use xlink:href="#CMR17-72" transform="translate(304.306513 0) scale(0.996264)"/>
      <use xlink:href="#CMSY10-6a" transform="translate(369.663247 0) scale(0.996264)"/>
      <use xlink:href="#CMMI12-50" transform="translate(397.337332 0) scale(0.996264)"/>
      <use xlink:href="#CMMI12-69" transform="translate(460.214564 -14.943915) scale(0.697382)"/>
      <use xlink:href="#CMSY10-6a" transform="translate(484.007603 0) scale(0.996264)"/>
     </g>
    </g>
    <g id="line2d_23">
     <g>
      <use xlink:href="#m81678683d6" x="487.377844" y="74.221563" style="fill: #ff0000; stroke: #ff0000; stroke-linejoin: miter"/>
     </g>
    </g>
    <g id="text_8">
     <!-- $P(k)$ for $u_i$ -->
     <g transform="translate(530.577844 82.621563) scale(0.24 -0.24)">
      <defs>
       <path id="CMMI12-75" d="M 2182 370 
C 2266 13 2573 -64 2726 -64 
C 2931 -64 3085 70 3187 287 
C 3296 517 3379 894 3379 913 
C 3379 945 3354 971 3315 971 
C 3258 971 3251 939 3226 843 
C 3110 402 2995 64 2739 64 
C 2547 64 2547 275 2547 358 
C 2547 505 2566 568 2630 837 
C 2675 1009 2720 1181 2758 1360 
L 3021 2401 
C 3066 2561 3066 2574 3066 2593 
C 3066 2689 2989 2753 2893 2753 
C 2707 2753 2662 2593 2624 2433 
C 2560 2184 2214 811 2170 588 
C 2163 588 1914 64 1446 64 
C 1114 64 1050 351 1050 588 
C 1050 952 1229 1462 1395 1890 
C 1472 2095 1504 2178 1504 2305 
C 1504 2580 1306 2816 998 2816 
C 410 2816 173 1890 173 1839 
C 173 1814 198 1782 243 1782 
C 301 1782 307 1807 333 1896 
C 486 2441 736 2682 979 2682 
C 1043 2682 1146 2682 1146 2478 
C 1146 2312 1075 2127 979 1884 
C 698 1124 666 881 666 690 
C 666 38 1158 -64 1421 -64 
C 1830 -64 2054 217 2182 370 
z
" transform="scale(0.015625)"/>
      </defs>
      <use xlink:href="#CMMI12-50" transform="scale(0.996264)"/>
      <use xlink:href="#CMR17-28" transform="translate(76.425821 0) scale(0.996264)"/>
      <use xlink:href="#CMMI12-6b" transform="translate(111.706589 0) scale(0.996264)"/>
      <use xlink:href="#CMR17-29" transform="translate(165.785789 0) scale(0.996264)"/>
      <use xlink:href="#CMR17-66" transform="translate(231.142523 0) scale(0.996264)"/>
      <use xlink:href="#CMR17-6f" transform="translate(258.616036 0) scale(0.996264)"/>
      <use xlink:href="#CMR17-72" transform="translate(304.306513 0) scale(0.996264)"/>
      <use xlink:href="#CMMI12-75" transform="translate(369.663247 0) scale(0.996264)"/>
      <use xlink:href="#CMMI12-69" transform="translate(425.183577 -14.943915) scale(0.697382)"/>
     </g>
    </g>
    <g id="line2d_24">
     <path d="M 463.377844 108.979141 
L 487.377844 108.979141 
L 511.377844 108.979141 
" style="fill: none; stroke-dasharray: 5.55,2.4; stroke-dashoffset: 0; stroke: #808080; stroke-opacity: 0.7; stroke-width: 1.5"/>
    </g>
    <g id="text_9">
     <!-- $k^{-11/3}$ -->
     <g transform="translate(530.577844 117.379141) scale(0.24 -0.24)">
      <defs>
       <path id="CMMI12-3d" d="M 2746 4562 
C 2746 4569 2784 4666 2784 4678 
C 2784 4755 2720 4800 2669 4800 
C 2637 4800 2579 4800 2528 4659 
L 384 -1363 
C 384 -1370 346 -1465 346 -1478 
C 346 -1555 410 -1600 461 -1600 
C 499 -1600 557 -1593 602 -1459 
L 2746 4562 
z
" transform="scale(0.015625)"/>
      </defs>
      <use xlink:href="#CMMI12-6b" transform="scale(0.996264)"/>
      <use xlink:href="#CMSY10-0" transform="translate(54.079201 36.153639) scale(0.697382)"/>
      <use xlink:href="#CMR17-31" transform="translate(108.320194 36.153639) scale(0.697382)"/>
      <use xlink:href="#CMR17-31" transform="translate(140.303376 36.153639) scale(0.697382)"/>
      <use xlink:href="#CMMI12-3d" transform="translate(172.286558 36.153639) scale(0.697382)"/>
      <use xlink:href="#CMR17-33" transform="translate(206.428849 36.153639) scale(0.697382)"/>
     </g>
    </g>
   </g>
  </g>
 </g>
 <defs>
  <clipPath id="p4331e2956b">
   <rect x="85.212208" y="7.2" width="590.147792" height="326.649675"/>
  </clipPath>
 </defs>
</svg>
