<?xml version="1.0" encoding="utf-8" standalone="no"?>
<!DOCTYPE svg PUBLIC "-//W3C//DTD SVG 1.1//EN"
  "http://www.w3.org/Graphics/SVG/1.1/DTD/svg11.dtd">
<svg xmlns:xlink="http://www.w3.org/1999/xlink" width="475.2pt" height="259.2pt" viewBox="0 0 475.2 259.2" xmlns="http://www.w3.org/2000/svg" version="1.1">
 <metadata>
  <rdf:RDF xmlns:dc="http://purl.org/dc/elements/1.1/" xmlns:cc="http://creativecommons.org/ns#" xmlns:rdf="http://www.w3.org/1999/02/22-rdf-syntax-ns#">
   <cc:Work>
    <dc:type rdf:resource="http://purl.org/dc/dcmitype/StillImage"/>
    <dc:date>2026-02-12T17:51:12.734725</dc:date>
    <dc:format>image/svg+xml</dc:format>
    <dc:creator>
     <cc:Agent>
      <dc:title>Matplotlib v3.8.4, https://matplotlib.org/</dc:title>
     </cc:Agent>
    </dc:creator>
   </cc:Work>
  </rdf:RDF>
 </metadata>
 <defs>
  <style type="text/css">*{stroke-linejoin: round; stroke-linecap: butt}</style>
 </defs>
 <g id="figure_1">
  <g id="patch_1">
   <path d="M 0 259.2 
L 475.2 259.2 
L 475.2 0 
L 0 0 
z
" style="fill: #ffffff"/>
  </g>
  <g id="axes_1">
   <g id="patch_2">
    <path d="M 63.330456 210.846005 
L 468 210.846005 
L 468 7.2 
L 63.330456 7.2 
z
" style="fill: #ffffff"/>
   </g>
   <g id="matplotlib.axis_1">
    <g id="xtick_1">
     <g id="line2d_1">
      <defs>
       <path id="me4d49fed30" d="M 0 0 
L 0 -6 
" style="stroke: #000000; stroke-width: 0.8"/>
      </defs>
      <g>
       <use xlink:href="#me4d49fed30" x="151.17361" y="210.846005" style="stroke: #000000; stroke-width: 0.8"/>
      </g>
     </g>
     <g id="line2d_2">
      <defs>
       <path id="m54fcb4131c" d="M 0 0 
L 0 6 
" style="stroke: #000000; stroke-width: 0.8"/>
      </defs>
      <g>
       <use xlink:href="#m54fcb4131c" x="151.17361" y="7.2" style="stroke: #000000; stroke-width: 0.8"/>
      </g>
     </g>
     <g id="text_1">
      <!-- $\mathdefault{10^{1}}$ -->
      <g transform="translate(139.876519 226.799305) scale(0.18 -0.18)">
       <defs>
        <path id="CMR17-31" d="M 1702 4058 
C 1702 4192 1696 4192 1606 4192 
C 1357 3916 979 3827 621 3827 
C 602 3827 570 3827 563 3808 
C 557 3795 557 3782 557 3648 
C 755 3648 1088 3686 1344 3839 
L 1344 461 
C 1344 236 1331 160 781 160 
L 589 160 
L 589 0 
C 896 0 1216 0 1523 0 
C 1830 0 2150 0 2458 0 
L 2458 160 
L 2266 160 
C 1715 160 1702 230 1702 458 
L 1702 4058 
z
" transform="scale(0.015625)"/>
        <path id="CMR17-30" d="M 2688 2025 
C 2688 2416 2682 3080 2413 3591 
C 2176 4039 1798 4198 1466 4198 
C 1158 4198 768 4058 525 3597 
C 269 3118 243 2524 243 2025 
C 243 1661 250 1106 448 619 
C 723 -39 1216 -128 1466 -128 
C 1760 -128 2208 -7 2470 600 
C 2662 1042 2688 1559 2688 2025 
z
M 1466 -26 
C 1056 -26 813 325 723 812 
C 653 1188 653 1738 653 2096 
C 653 2588 653 2997 736 3387 
C 858 3929 1216 4096 1466 4096 
C 1728 4096 2067 3923 2189 3400 
C 2272 3036 2278 2607 2278 2096 
C 2278 1680 2278 1169 2202 792 
C 2067 95 1690 -26 1466 -26 
z
" transform="scale(0.015625)"/>
       </defs>
       <use xlink:href="#CMR17-31" transform="scale(0.996264)"/>
       <use xlink:href="#CMR17-30" transform="translate(45.690477 0) scale(0.996264)"/>
       <use xlink:href="#CMR17-31" transform="translate(91.380954 36.153639) scale(0.697382)"/>
      </g>
     </g>
    </g>
    <g id="xtick_2">
     <g id="line2d_3">
      <g>
       <use xlink:href="#me4d49fed30" x="285.620874" y="210.846005" style="stroke: #000000; stroke-width: 0.8"/>
      </g>
     </g>
     <g id="line2d_4">
      <g>
       <use xlink:href="#m54fcb4131c" x="285.620874" y="7.2" style="stroke: #000000; stroke-width: 0.8"/>
      </g>
     </g>
     <g id="text_2">
      <!-- $\mathdefault{10^{2}}$ -->
      <g transform="translate(274.323783 226.799305) scale(0.18 -0.18)">
       <defs>
        <path id="CMR17-32" d="M 2669 989 
L 2554 989 
C 2490 536 2438 459 2413 420 
C 2381 369 1920 369 1830 369 
L 602 369 
C 832 619 1280 1072 1824 1597 
C 2214 1967 2669 2402 2669 3035 
C 2669 3790 2067 4224 1395 4224 
C 691 4224 262 3604 262 3030 
C 262 2780 448 2748 525 2748 
C 589 2748 781 2787 781 3010 
C 781 3207 614 3264 525 3264 
C 486 3264 448 3258 422 3245 
C 544 3790 915 4058 1306 4058 
C 1862 4058 2227 3617 2227 3035 
C 2227 2479 1901 2000 1536 1584 
L 262 146 
L 262 0 
L 2515 0 
L 2669 989 
z
" transform="scale(0.015625)"/>
       </defs>
       <use xlink:href="#CMR17-31" transform="scale(0.996264)"/>
       <use xlink:href="#CMR17-30" transform="translate(45.690477 0) scale(0.996264)"/>
       <use xlink:href="#CMR17-32" transform="translate(91.380954 36.153639) scale(0.697382)"/>
      </g>
     </g>
    </g>
    <g id="xtick_3">
     <g id="line2d_5">
      <g>
       <use xlink:href="#me4d49fed30" x="420.068138" y="210.846005" style="stroke: #000000; stroke-width: 0.8"/>
      </g>
     </g>
     <g id="line2d_6">
      <g>
       <use xlink:href="#m54fcb4131c" x="420.068138" y="7.2" style="stroke: #000000; stroke-width: 0.8"/>
      </g>
     </g>
     <g id="text_3">
      <!-- $\mathdefault{10^{3}}$ -->
      <g transform="translate(408.771047 226.799305) scale(0.18 -0.18)">
       <defs>
        <path id="CMR17-33" d="M 1414 2157 
C 1984 2157 2234 1662 2234 1090 
C 2234 320 1824 25 1453 25 
C 1114 25 563 194 390 693 
C 422 680 454 680 486 680 
C 640 680 755 782 755 948 
C 755 1133 614 1216 486 1216 
C 378 1216 211 1165 211 926 
C 211 335 787 -128 1466 -128 
C 2176 -128 2720 430 2720 1085 
C 2720 1707 2208 2157 1600 2227 
C 2086 2328 2554 2756 2554 3329 
C 2554 3820 2048 4179 1472 4179 
C 890 4179 378 3829 378 3329 
C 378 3110 544 3072 627 3072 
C 762 3072 877 3155 877 3321 
C 877 3486 762 3569 627 3569 
C 602 3569 570 3569 544 3557 
C 730 3959 1235 4032 1459 4032 
C 1683 4032 2106 3925 2106 3320 
C 2106 3143 2080 2828 1862 2550 
C 1670 2304 1453 2304 1242 2284 
C 1210 2284 1062 2269 1037 2269 
C 992 2263 966 2257 966 2208 
C 966 2163 973 2157 1101 2157 
L 1414 2157 
z
" transform="scale(0.015625)"/>
       </defs>
       <use xlink:href="#CMR17-31" transform="scale(0.996264)"/>
       <use xlink:href="#CMR17-30" transform="translate(45.690477 0) scale(0.996264)"/>
       <use xlink:href="#CMR17-33" transform="translate(91.380954 36.153639) scale(0.697382)"/>
      </g>
     </g>
    </g>
    <g id="xtick_4">
     <g id="line2d_7">
      <defs>
       <path id="mabc971799f" d="M 0 0 
L 0 -3 
" style="stroke: #000000; stroke-width: 0.6"/>
      </defs>
      <g>
       <use xlink:href="#mabc971799f" x="80.873993" y="210.846005" style="stroke: #000000; stroke-width: 0.6"/>
      </g>
     </g>
     <g id="line2d_8">
      <defs>
       <path id="me41ca40ae8" d="M 0 0 
L 0 3 
" style="stroke: #000000; stroke-width: 0.6"/>
      </defs>
      <g>
       <use xlink:href="#me41ca40ae8" x="80.873993" y="7.2" style="stroke: #000000; stroke-width: 0.6"/>
      </g>
     </g>
    </g>
    <g id="xtick_5">
     <g id="line2d_9">
      <g>
       <use xlink:href="#mabc971799f" x="97.671664" y="210.846005" style="stroke: #000000; stroke-width: 0.6"/>
      </g>
     </g>
     <g id="line2d_10">
      <g>
       <use xlink:href="#me41ca40ae8" x="97.671664" y="7.2" style="stroke: #000000; stroke-width: 0.6"/>
      </g>
     </g>
    </g>
    <g id="xtick_6">
     <g id="line2d_11">
      <g>
       <use xlink:href="#mabc971799f" x="110.70095" y="210.846005" style="stroke: #000000; stroke-width: 0.6"/>
      </g>
     </g>
     <g id="line2d_12">
      <g>
       <use xlink:href="#me41ca40ae8" x="110.70095" y="7.2" style="stroke: #000000; stroke-width: 0.6"/>
      </g>
     </g>
    </g>
    <g id="xtick_7">
     <g id="line2d_13">
      <g>
       <use xlink:href="#mabc971799f" x="121.346652" y="210.846005" style="stroke: #000000; stroke-width: 0.6"/>
      </g>
     </g>
     <g id="line2d_14">
      <g>
       <use xlink:href="#me41ca40ae8" x="121.346652" y="7.2" style="stroke: #000000; stroke-width: 0.6"/>
      </g>
     </g>
    </g>
    <g id="xtick_8">
     <g id="line2d_15">
      <g>
       <use xlink:href="#mabc971799f" x="130.347465" y="210.846005" style="stroke: #000000; stroke-width: 0.6"/>
      </g>
     </g>
     <g id="line2d_16">
      <g>
       <use xlink:href="#me41ca40ae8" x="130.347465" y="7.2" style="stroke: #000000; stroke-width: 0.6"/>
      </g>
     </g>
    </g>
    <g id="xtick_9">
     <g id="line2d_17">
      <g>
       <use xlink:href="#mabc971799f" x="138.144324" y="210.846005" style="stroke: #000000; stroke-width: 0.6"/>
      </g>
     </g>
     <g id="line2d_18">
      <g>
       <use xlink:href="#me41ca40ae8" x="138.144324" y="7.2" style="stroke: #000000; stroke-width: 0.6"/>
      </g>
     </g>
    </g>
    <g id="xtick_10">
     <g id="line2d_19">
      <g>
       <use xlink:href="#mabc971799f" x="145.02164" y="210.846005" style="stroke: #000000; stroke-width: 0.6"/>
      </g>
     </g>
     <g id="line2d_20">
      <g>
       <use xlink:href="#me41ca40ae8" x="145.02164" y="7.2" style="stroke: #000000; stroke-width: 0.6"/>
      </g>
     </g>
    </g>
    <g id="xtick_11">
     <g id="line2d_21">
      <g>
       <use xlink:href="#mabc971799f" x="191.646269" y="210.846005" style="stroke: #000000; stroke-width: 0.6"/>
      </g>
     </g>
     <g id="line2d_22">
      <g>
       <use xlink:href="#me41ca40ae8" x="191.646269" y="7.2" style="stroke: #000000; stroke-width: 0.6"/>
      </g>
     </g>
    </g>
    <g id="xtick_12">
     <g id="line2d_23">
      <g>
       <use xlink:href="#mabc971799f" x="215.321257" y="210.846005" style="stroke: #000000; stroke-width: 0.6"/>
      </g>
     </g>
     <g id="line2d_24">
      <g>
       <use xlink:href="#me41ca40ae8" x="215.321257" y="7.2" style="stroke: #000000; stroke-width: 0.6"/>
      </g>
     </g>
    </g>
    <g id="xtick_13">
     <g id="line2d_25">
      <g>
       <use xlink:href="#mabc971799f" x="232.118928" y="210.846005" style="stroke: #000000; stroke-width: 0.6"/>
      </g>
     </g>
     <g id="line2d_26">
      <g>
       <use xlink:href="#me41ca40ae8" x="232.118928" y="7.2" style="stroke: #000000; stroke-width: 0.6"/>
      </g>
     </g>
    </g>
    <g id="xtick_14">
     <g id="line2d_27">
      <g>
       <use xlink:href="#mabc971799f" x="245.148214" y="210.846005" style="stroke: #000000; stroke-width: 0.6"/>
      </g>
     </g>
     <g id="line2d_28">
      <g>
       <use xlink:href="#me41ca40ae8" x="245.148214" y="7.2" style="stroke: #000000; stroke-width: 0.6"/>
      </g>
     </g>
    </g>
    <g id="xtick_15">
     <g id="line2d_29">
      <g>
       <use xlink:href="#mabc971799f" x="255.793916" y="210.846005" style="stroke: #000000; stroke-width: 0.6"/>
      </g>
     </g>
     <g id="line2d_30">
      <g>
       <use xlink:href="#me41ca40ae8" x="255.793916" y="7.2" style="stroke: #000000; stroke-width: 0.6"/>
      </g>
     </g>
    </g>
    <g id="xtick_16">
     <g id="line2d_31">
      <g>
       <use xlink:href="#mabc971799f" x="264.794729" y="210.846005" style="stroke: #000000; stroke-width: 0.6"/>
      </g>
     </g>
     <g id="line2d_32">
      <g>
       <use xlink:href="#me41ca40ae8" x="264.794729" y="7.2" style="stroke: #000000; stroke-width: 0.6"/>
      </g>
     </g>
    </g>
    <g id="xtick_17">
     <g id="line2d_33">
      <g>
       <use xlink:href="#mabc971799f" x="272.591588" y="210.846005" style="stroke: #000000; stroke-width: 0.6"/>
      </g>
     </g>
     <g id="line2d_34">
      <g>
       <use xlink:href="#me41ca40ae8" x="272.591588" y="7.2" style="stroke: #000000; stroke-width: 0.6"/>
      </g>
     </g>
    </g>
    <g id="xtick_18">
     <g id="line2d_35">
      <g>
       <use xlink:href="#mabc971799f" x="279.468904" y="210.846005" style="stroke: #000000; stroke-width: 0.6"/>
      </g>
     </g>
     <g id="line2d_36">
      <g>
       <use xlink:href="#me41ca40ae8" x="279.468904" y="7.2" style="stroke: #000000; stroke-width: 0.6"/>
      </g>
     </g>
    </g>
    <g id="xtick_19">
     <g id="line2d_37">
      <g>
       <use xlink:href="#mabc971799f" x="326.093533" y="210.846005" style="stroke: #000000; stroke-width: 0.6"/>
      </g>
     </g>
     <g id="line2d_38">
      <g>
       <use xlink:href="#me41ca40ae8" x="326.093533" y="7.2" style="stroke: #000000; stroke-width: 0.6"/>
      </g>
     </g>
    </g>
    <g id="xtick_20">
     <g id="line2d_39">
      <g>
       <use xlink:href="#mabc971799f" x="349.768521" y="210.846005" style="stroke: #000000; stroke-width: 0.6"/>
      </g>
     </g>
     <g id="line2d_40">
      <g>
       <use xlink:href="#me41ca40ae8" x="349.768521" y="7.2" style="stroke: #000000; stroke-width: 0.6"/>
      </g>
     </g>
    </g>
    <g id="xtick_21">
     <g id="line2d_41">
      <g>
       <use xlink:href="#mabc971799f" x="366.566192" y="210.846005" style="stroke: #000000; stroke-width: 0.6"/>
      </g>
     </g>
     <g id="line2d_42">
      <g>
       <use xlink:href="#me41ca40ae8" x="366.566192" y="7.2" style="stroke: #000000; stroke-width: 0.6"/>
      </g>
     </g>
    </g>
    <g id="xtick_22">
     <g id="line2d_43">
      <g>
       <use xlink:href="#mabc971799f" x="379.595478" y="210.846005" style="stroke: #000000; stroke-width: 0.6"/>
      </g>
     </g>
     <g id="line2d_44">
      <g>
       <use xlink:href="#me41ca40ae8" x="379.595478" y="7.2" style="stroke: #000000; stroke-width: 0.6"/>
      </g>
     </g>
    </g>
    <g id="xtick_23">
     <g id="line2d_45">
      <g>
       <use xlink:href="#mabc971799f" x="390.24118" y="210.846005" style="stroke: #000000; stroke-width: 0.6"/>
      </g>
     </g>
     <g id="line2d_46">
      <g>
       <use xlink:href="#me41ca40ae8" x="390.24118" y="7.2" style="stroke: #000000; stroke-width: 0.6"/>
      </g>
     </g>
    </g>
    <g id="xtick_24">
     <g id="line2d_47">
      <g>
       <use xlink:href="#mabc971799f" x="399.241993" y="210.846005" style="stroke: #000000; stroke-width: 0.6"/>
      </g>
     </g>
     <g id="line2d_48">
      <g>
       <use xlink:href="#me41ca40ae8" x="399.241993" y="7.2" style="stroke: #000000; stroke-width: 0.6"/>
      </g>
     </g>
    </g>
    <g id="xtick_25">
     <g id="line2d_49">
      <g>
       <use xlink:href="#mabc971799f" x="407.038851" y="210.846005" style="stroke: #000000; stroke-width: 0.6"/>
      </g>
     </g>
     <g id="line2d_50">
      <g>
       <use xlink:href="#me41ca40ae8" x="407.038851" y="7.2" style="stroke: #000000; stroke-width: 0.6"/>
      </g>
     </g>
    </g>
    <g id="xtick_26">
     <g id="line2d_51">
      <g>
       <use xlink:href="#mabc971799f" x="413.916168" y="210.846005" style="stroke: #000000; stroke-width: 0.6"/>
      </g>
     </g>
     <g id="line2d_52">
      <g>
       <use xlink:href="#me41ca40ae8" x="413.916168" y="7.2" style="stroke: #000000; stroke-width: 0.6"/>
      </g>
     </g>
    </g>
    <g id="xtick_27">
     <g id="line2d_53">
      <g>
       <use xlink:href="#mabc971799f" x="460.540797" y="210.846005" style="stroke: #000000; stroke-width: 0.6"/>
      </g>
     </g>
     <g id="line2d_54">
      <g>
       <use xlink:href="#me41ca40ae8" x="460.540797" y="7.2" style="stroke: #000000; stroke-width: 0.6"/>
      </g>
     </g>
    </g>
    <g id="text_4">
     <!-- $k$ -->
     <g transform="translate(260.591709 248.124366) scale(0.2 -0.2)">
      <defs>
       <path id="CMMI12-6b" d="M 1798 4257 
C 1805 4283 1818 4321 1818 4352 
C 1818 4416 1754 4416 1741 4416 
C 1734 4416 1504 4393 1389 4377 
C 1280 4377 1184 4358 1069 4358 
C 915 4345 870 4339 870 4224 
C 870 4160 934 4160 998 4160 
C 1325 4160 1325 4103 1325 4040 
C 1325 4015 1325 4002 1293 3888 
L 378 248 
C 352 152 352 140 352 101 
C 352 -38 461 -64 525 -64 
C 704 -64 742 77 794 275 
L 1094 1469 
C 1555 1418 1830 1226 1830 920 
C 1830 881 1830 856 1811 760 
C 1786 664 1786 588 1786 556 
C 1786 185 2029 -64 2355 -64 
C 2650 -64 2803 204 2854 294 
C 2989 530 3072 888 3072 913 
C 3072 945 3046 971 3008 971 
C 2950 971 2944 945 2918 843 
C 2829 511 2694 64 2368 64 
C 2240 64 2157 128 2157 370 
C 2157 492 2182 632 2208 728 
C 2234 843 2234 849 2234 926 
C 2234 1303 1894 1514 1306 1590 
C 1536 1731 1766 1980 1856 2076 
C 2221 2484 2470 2689 2765 2689 
C 2912 2689 2950 2650 2995 2612 
C 2758 2586 2669 2420 2669 2293 
C 2669 2139 2790 2088 2880 2088 
C 3053 2088 3206 2235 3206 2440 
C 3206 2625 3059 2816 2771 2816 
C 2419 2816 2131 2567 1677 2056 
C 1613 1980 1376 1737 1139 1648 
L 1798 4257 
z
" transform="scale(0.015625)"/>
      </defs>
      <use xlink:href="#CMMI12-6b" transform="scale(0.996264)"/>
     </g>
    </g>
   </g>
   <g id="matplotlib.axis_2">
    <g id="ytick_1">
     <g id="line2d_55">
      <defs>
       <path id="mf03be11ee4" d="M 0 0 
L 6 0 
" style="stroke: #000000; stroke-width: 0.8"/>
      </defs>
      <g>
       <use xlink:href="#mf03be11ee4" x="63.330456" y="165.638678" style="stroke: #000000; stroke-width: 0.8"/>
      </g>
     </g>
     <g id="line2d_56">
      <defs>
       <path id="m5777b5c83a" d="M 0 0 
L -6 0 
" style="stroke: #000000; stroke-width: 0.8"/>
      </defs>
      <g>
       <use xlink:href="#m5777b5c83a" x="468" y="165.638678" style="stroke: #000000; stroke-width: 0.8"/>
      </g>
     </g>
     <g id="text_5">
      <!-- $\mathdefault{10^{1}}$ -->
      <g transform="translate(37.236275 171.865328) scale(0.18 -0.18)">
       <use xlink:href="#CMR17-31" transform="scale(0.996264)"/>
       <use xlink:href="#CMR17-30" transform="translate(45.690477 0) scale(0.996264)"/>
       <use xlink:href="#CMR17-31" transform="translate(91.380954 36.153639) scale(0.697382)"/>
      </g>
     </g>
    </g>
    <g id="ytick_2">
     <g id="line2d_57">
      <g>
       <use xlink:href="#mf03be11ee4" x="63.330456" y="117.1703" style="stroke: #000000; stroke-width: 0.8"/>
      </g>
     </g>
     <g id="line2d_58">
      <g>
       <use xlink:href="#m5777b5c83a" x="468" y="117.1703" style="stroke: #000000; stroke-width: 0.8"/>
      </g>
     </g>
     <g id="text_6">
      <!-- $\mathdefault{10^{4}}$ -->
      <g transform="translate(37.236275 123.396951) scale(0.18 -0.18)">
       <defs>
        <path id="CMR17-34" d="M 2150 4122 
C 2150 4256 2144 4256 2029 4256 
L 128 1254 
L 128 1088 
L 1779 1088 
L 1779 457 
C 1779 224 1766 160 1318 160 
L 1197 160 
L 1197 0 
C 1402 0 1747 0 1965 0 
C 2182 0 2528 0 2733 0 
L 2733 160 
L 2611 160 
C 2163 160 2150 224 2150 457 
L 2150 1088 
L 2803 1088 
L 2803 1254 
L 2150 1254 
L 2150 4122 
z
M 1798 3703 
L 1798 1254 
L 256 1254 
L 1798 3703 
z
" transform="scale(0.015625)"/>
       </defs>
       <use xlink:href="#CMR17-31" transform="scale(0.996264)"/>
       <use xlink:href="#CMR17-30" transform="translate(45.690477 0) scale(0.996264)"/>
       <use xlink:href="#CMR17-34" transform="translate(91.380954 36.153639) scale(0.697382)"/>
      </g>
     </g>
    </g>
    <g id="ytick_3">
     <g id="line2d_59">
      <g>
       <use xlink:href="#mf03be11ee4" x="63.330456" y="68.701923" style="stroke: #000000; stroke-width: 0.8"/>
      </g>
     </g>
     <g id="line2d_60">
      <g>
       <use xlink:href="#m5777b5c83a" x="468" y="68.701923" style="stroke: #000000; stroke-width: 0.8"/>
      </g>
     </g>
     <g id="text_7">
      <!-- $\mathdefault{10^{7}}$ -->
      <g transform="translate(37.236275 74.928573) scale(0.18 -0.18)">
       <defs>
        <path id="CMR17-37" d="M 2886 3941 
L 2886 4081 
L 1382 4081 
C 634 4081 621 4165 595 4288 
L 480 4288 
L 294 3094 
L 410 3094 
C 429 3215 474 3540 550 3661 
C 589 3712 1062 3712 1171 3712 
L 2579 3712 
L 1869 2661 
C 1395 1954 1069 999 1069 165 
C 1069 89 1069 -128 1299 -128 
C 1530 -128 1530 89 1530 171 
L 1530 465 
C 1530 1508 1709 2196 2003 2636 
L 2886 3941 
z
" transform="scale(0.015625)"/>
       </defs>
       <use xlink:href="#CMR17-31" transform="scale(0.996264)"/>
       <use xlink:href="#CMR17-30" transform="translate(45.690477 0) scale(0.996264)"/>
       <use xlink:href="#CMR17-37" transform="translate(91.380954 36.153639) scale(0.697382)"/>
      </g>
     </g>
    </g>
    <g id="ytick_4">
     <g id="line2d_61">
      <g>
       <use xlink:href="#mf03be11ee4" x="63.330456" y="20.233546" style="stroke: #000000; stroke-width: 0.8"/>
      </g>
     </g>
     <g id="line2d_62">
      <g>
       <use xlink:href="#m5777b5c83a" x="468" y="20.233546" style="stroke: #000000; stroke-width: 0.8"/>
      </g>
     </g>
     <g id="text_8">
      <!-- $\mathdefault{10^{10}}$ -->
      <g transform="translate(31.090666 26.460196) scale(0.18 -0.18)">
       <use xlink:href="#CMR17-31" transform="scale(0.996264)"/>
       <use xlink:href="#CMR17-30" transform="translate(45.690477 0) scale(0.996264)"/>
       <use xlink:href="#CMR17-31" transform="translate(91.380954 36.153639) scale(0.697382)"/>
       <use xlink:href="#CMR17-30" transform="translate(123.364136 36.153639) scale(0.697382)"/>
      </g>
     </g>
    </g>
    <g id="text_9">
     <!-- $P(k)$ -->
     <g transform="translate(22.126022 129.129655) rotate(-90) scale(0.2 -0.2)">
      <defs>
       <path id="CMMI12-50" d="M 1894 2023 
L 2970 2023 
C 3853 2023 4736 2673 4736 3401 
C 4736 3898 4314 4352 3507 4352 
L 1530 4352 
C 1408 4352 1350 4352 1350 4231 
C 1350 4167 1408 4167 1504 4167 
C 1894 4167 1894 4116 1894 4046 
C 1894 4034 1894 3995 1869 3899 
L 1005 472 
C 947 249 934 185 486 185 
C 365 185 301 185 301 70 
C 301 0 358 0 397 0 
C 518 0 646 0 768 0 
L 1517 0 
C 1638 0 1773 0 1894 0 
C 1946 0 2016 0 2016 121 
C 2016 185 1958 185 1862 185 
C 1478 185 1472 230 1472 293 
C 1472 325 1478 369 1485 401 
L 1894 2023 
z
M 2355 3930 
C 2413 4167 2438 4167 2688 4167 
L 3322 4167 
C 3802 4167 4198 4013 4198 3535 
C 4198 3369 4115 2827 3821 2534 
C 3712 2419 3405 2176 2822 2176 
L 1920 2176 
L 2355 3930 
z
" transform="scale(0.015625)"/>
       <path id="CMR17-28" d="M 1958 -1561 
C 1958 -1555 1958 -1542 1939 -1523 
C 1645 -1224 858 -407 858 1581 
C 858 3569 1632 4379 1946 4697 
C 1946 4704 1958 4717 1958 4736 
C 1958 4755 1939 4768 1914 4768 
C 1843 4768 1299 4296 986 3594 
C 666 2887 576 2199 576 1588 
C 576 1128 621 351 1005 -471 
C 1312 -1135 1837 -1600 1914 -1600 
C 1946 -1600 1958 -1587 1958 -1561 
z
" transform="scale(0.015625)"/>
       <path id="CMR17-29" d="M 1683 1581 
C 1683 2040 1638 2817 1254 3639 
C 947 4303 422 4768 346 4768 
C 326 4768 301 4761 301 4729 
C 301 4717 307 4710 314 4697 
C 621 4378 1402 3568 1402 1584 
C 1402 -407 627 -1217 314 -1537 
C 307 -1549 301 -1556 301 -1568 
C 301 -1600 326 -1600 346 -1600 
C 416 -1600 960 -1128 1274 -426 
C 1594 281 1683 969 1683 1581 
z
" transform="scale(0.015625)"/>
      </defs>
      <use xlink:href="#CMMI12-50" transform="scale(0.996264)"/>
      <use xlink:href="#CMR17-28" transform="translate(76.425821 0) scale(0.996264)"/>
      <use xlink:href="#CMMI12-6b" transform="translate(111.706589 0) scale(0.996264)"/>
      <use xlink:href="#CMR17-29" transform="translate(165.785789 0) scale(0.996264)"/>
     </g>
    </g>
   </g>
   <g id="line2d_63">
    <path d="M 63.330456 7.2 
L 127.478103 48.44215 
L 157.305061 53.655109 
L 176.951575 56.050289 
L 191.625751 60.682186 
L 203.342853 64.123968 
L 213.097092 69.517585 
L 221.452708 70.788862 
L 228.760947 71.665834 
L 235.255379 76.293465 
L 241.099223 73.340358 
L 246.411038 74.525497 
L 251.279666 76.484926 
L 255.773398 79.014531 
L 259.945866 83.387543 
L 263.839956 86.693755 
L 267.490501 82.480053 
L 270.92618 86.004508 
L 274.170887 87.394463 
L 277.244739 89.455956 
L 282.945821 92.408575 
L 285.600355 91.425619 
L 288.139438 91.140279 
L 290.572695 94.349453 
L 292.908594 96.489478 
L 295.154629 94.323176 
L 297.317458 95.491089 
L 299.403026 96.436423 
L 301.416664 98.818806 
L 303.363168 98.22978 
L 305.24687 99.841419 
L 307.071697 101.144711 
L 308.841217 102.245823 
L 310.558685 102.94583 
L 312.227076 104.491664 
L 313.849117 103.173567 
L 315.427313 104.477687 
L 316.963973 104.451086 
L 318.461227 106.904759 
L 319.921045 106.202689 
L 322.735552 105.492886 
L 324.093513 107.931085 
L 325.420609 108.907928 
L 326.718211 109.089193 
L 327.987603 107.909575 
L 329.229984 108.432326 
L 330.44648 109.588824 
L 331.638148 109.852283 
L 332.805981 108.84217 
L 333.950914 113.481746 
L 335.073827 112.832984 
L 336.175553 113.12562 
L 337.256874 115.272311 
L 338.318535 114.414345 
L 339.361236 115.254729 
L 340.385643 114.860108 
L 341.392387 116.33908 
L 342.382066 115.652587 
L 343.355251 116.568874 
L 344.31248 117.818748 
L 345.25427 118.778268 
L 346.18111 118.310383 
L 347.991789 119.611726 
L 348.876498 118.790151 
L 351.452933 121.458219 
L 352.287086 120.398494 
L 353.109489 121.585763 
L 353.920471 121.374566 
L 354.720342 123.7287 
L 355.509404 123.049875 
L 356.287945 123.644302 
L 357.056242 123.13299 
L 357.81456 125.400504 
L 358.563156 123.804051 
L 359.302276 125.038865 
L 360.032157 125.438075 
L 360.753027 126.173212 
L 361.465105 126.550008 
L 362.168604 126.377827 
L 362.863728 126.759015 
L 363.550674 127.367527 
L 365.564311 127.947728 
L 366.220382 127.901777 
L 366.869163 129.432593 
L 367.510815 128.818706 
L 368.145492 130.395618 
L 368.773344 129.82549 
L 369.394517 130.867001 
L 370.009151 130.407309 
L 370.617383 130.164195 
L 371.219344 132.012742 
L 371.815163 131.602884 
L 372.404963 132.635841 
L 372.988864 132.670839 
L 373.566985 132.33564 
L 374.139438 133.673571 
L 374.706333 133.780943 
L 375.267776 133.404671 
L 375.823873 134.863567 
L 376.374723 134.048837 
L 376.920425 135.771422 
L 377.461075 135.998627 
L 377.996764 135.658163 
L 378.527583 136.189069 
L 379.05362 136.406927 
L 379.57496 137.326251 
L 380.091687 137.574349 
L 380.60388 137.198747 
L 381.11162 137.362139 
L 381.614983 137.81008 
L 382.114043 138.568712 
L 382.608874 138.411845 
L 383.58613 139.424436 
L 384.068693 138.86501 
L 384.547299 140.612433 
L 386.423435 141.293787 
L 386.883199 141.578618 
L 387.339371 141.176949 
L 387.792007 141.835609 
L 388.24116 143.204971 
L 388.686885 142.457329 
L 389.129234 143.733699 
L 389.568256 143.663389 
L 390.436521 144.028611 
L 390.865859 145.214881 
L 391.292063 144.922156 
L 391.715178 145.813124 
L 392.13525 145.226244 
L 392.552321 145.831337 
L 392.966434 146.117974 
L 393.377631 145.200111 
L 393.785952 146.065053 
L 394.191438 145.976388 
L 394.594127 147.165247 
L 394.994058 146.888824 
L 395.391269 147.472292 
L 395.785795 148.302128 
L 396.177674 148.276938 
L 396.56694 148.057156 
L 397.719406 149.351968 
L 398.098561 149.425716 
L 398.47527 150.530971 
L 398.849564 149.463722 
L 399.221475 151.448158 
L 399.591031 151.186507 
L 400.3232 151.446858 
L 400.68587 152.272716 
L 401.046301 151.770122 
L 401.404522 152.827986 
L 401.760558 151.844089 
L 402.466182 153.050354 
L 402.815822 153.515459 
L 403.163381 153.453668 
L 403.508883 154.327315 
L 403.852353 154.546504 
L 404.193814 154.207783 
L 404.53329 154.770465 
L 404.870804 155.65693 
L 405.206378 154.400098 
L 405.540034 155.863483 
L 405.871795 156.361245 
L 406.201681 155.465338 
L 406.855914 156.958023 
L 407.502898 157.013393 
L 407.823721 157.058608 
L 408.142792 158.142102 
L 408.460128 158.384088 
L 408.775748 158.14578 
L 409.089672 158.255532 
L 409.712502 159.213441 
L 410.021443 159.054463 
L 410.328758 159.729067 
L 410.634464 160.097757 
L 410.938577 159.770686 
L 411.241115 159.74244 
L 411.542094 160.544145 
L 412.139436 160.535548 
L 412.435831 161.453192 
L 412.730729 161.920428 
L 413.024146 161.676211 
L 413.316095 162.595621 
L 413.89565 162.378372 
L 414.183285 163.113087 
L 414.754338 163.317788 
L 415.037783 162.943999 
L 415.31986 163.610615 
L 415.60058 163.6733 
L 415.879957 164.090134 
L 416.158004 164.780741 
L 416.434733 164.595249 
L 416.710156 164.17119 
L 417.257137 166.145026 
L 417.528717 166.008484 
L 417.79904 165.691978 
L 418.068118 166.754742 
L 418.335961 165.944479 
L 418.602581 166.968929 
L 418.867989 167.28106 
L 419.132197 166.898165 
L 419.395214 167.122726 
L 419.657051 167.547999 
L 420.17723 167.22331 
L 420.692816 168.525763 
L 421.203889 168.673642 
L 421.457758 168.517368 
L 421.710527 169.675573 
L 421.962207 169.139917 
L 422.212807 168.893656 
L 422.462336 170.167926 
L 422.710804 170.178579 
L 422.958218 169.917418 
L 423.204588 170.021857 
L 423.449924 171.10756 
L 423.694232 170.562522 
L 423.937523 170.520882 
L 424.421085 171.213372 
L 424.900674 171.756415 
L 425.139 171.713165 
L 425.376357 172.208572 
L 425.612753 171.853487 
L 425.848195 173.239799 
L 426.082692 172.576572 
L 426.780586 173.861826 
L 427.011375 173.53884 
L 427.470236 173.730042 
L 427.698321 173.718546 
L 428.601855 175.17599 
L 429.048432 175.268429 
L 429.270446 175.709227 
L 429.49162 175.387222 
L 429.931469 176.355577 
L 430.150157 176.054479 
L 430.585092 177.50787 
L 430.80135 176.726743 
L 431.016811 176.855037 
L 431.445361 177.563049 
L 431.658462 177.533408 
L 431.870789 177.278995 
L 432.082346 177.800293 
L 432.293139 177.877636 
L 432.503174 178.556465 
L 432.712457 177.973387 
L 432.920992 179.046376 
L 433.128784 178.64185 
L 433.33584 179.498429 
L 433.542165 178.839037 
L 433.952639 179.071127 
L 434.156799 179.575836 
L 434.360247 179.584161 
L 435.167026 180.302886 
L 435.366991 180.611941 
L 435.566274 181.202671 
L 435.764878 180.373326 
L 435.96281 181.08153 
L 436.160073 180.884606 
L 436.356671 180.474273 
L 436.747893 181.431832 
L 437.136512 181.261418 
L 437.329855 181.276691 
L 437.522561 182.126168 
L 437.714632 181.915689 
L 437.906074 181.363406 
L 438.09689 182.478242 
L 438.287085 182.279579 
L 438.476662 182.631035 
L 438.665626 182.593692 
L 438.85398 183.111705 
L 439.041728 183.130877 
L 439.228875 182.904948 
L 439.415424 183.928369 
L 439.601378 183.344762 
L 439.786743 183.157513 
L 440.155715 184.552734 
L 440.522371 184.124583 
L 440.704839 184.403294 
L 440.886738 183.036995 
L 441.068073 184.362894 
L 441.248846 184.711451 
L 441.429061 184.803536 
L 441.608722 184.591637 
L 441.787832 184.806531 
L 441.966394 185.201575 
L 442.321888 185.064773 
L 442.498826 185.253349 
L 442.67523 185.955383 
L 442.851103 184.88384 
L 443.026448 185.095823 
L 443.201267 185.861075 
L 443.375565 185.483397 
L 443.549344 185.968425 
L 443.895358 185.88504 
L 444.067599 185.530119 
L 444.239334 185.991588 
L 444.410565 185.936846 
L 444.581295 186.223191 
L 444.751527 185.755705 
L 444.921265 186.375413 
L 445.090511 186.149471 
L 445.259267 185.599543 
L 445.427537 186.802002 
L 445.595324 185.966067 
L 445.76263 186.204881 
L 445.929458 186.191648 
L 446.09581 187.013974 
L 446.26169 186.076077 
L 446.592043 187.57423 
L 446.756521 186.661808 
L 446.920537 186.658426 
L 447.084094 186.447872 
L 447.247194 187.22608 
L 447.409839 186.574414 
L 447.895075 187.78781 
L 448.21634 189.275392 
L 448.376312 188.987138 
L 449.011852 190.816112 
L 449.169662 190.158545 
L 449.484009 191.691648 
L 449.64055 191.38006 
L 449.796672 192.436269 
L 449.952378 192.516723 
L 450.10767 193.049222 
L 450.26255 192.999555 
L 450.41702 193.067932 
L 450.571083 193.930371 
L 450.877994 193.900465 
L 451.030846 194.143729 
L 451.1833 194.697991 
L 451.335357 194.611818 
L 451.638287 195.56496 
L 451.789165 195.371566 
L 451.939654 195.772734 
L 452.089756 195.66903 
L 452.239473 195.715979 
L 452.537761 196.923913 
L 452.686335 196.670274 
L 452.834533 196.962792 
L 452.982355 197.922108 
L 453.276881 197.19389 
L 453.569929 198.752067 
L 453.715904 198.482629 
L 453.861514 199.425209 
L 454.006762 198.531089 
L 454.296179 199.678837 
L 454.440351 199.456285 
L 454.584168 198.631635 
L 455.013506 200.4148 
L 455.297987 199.811887 
L 455.58109 200.621822 
L 455.722128 200.550738 
L 455.862826 201.154822 
L 456.003186 200.835687 
L 456.143209 201.750942 
L 456.422252 201.291408 
L 456.699968 201.527715 
L 456.97637 202.504874 
L 457.114082 201.961669 
L 457.251469 202.25515 
L 457.388534 203.402675 
L 457.525278 202.187823 
L 457.661703 202.619276 
L 457.79781 203.925357 
L 457.9336 203.697641 
L 458.069075 202.300951 
L 458.204236 203.365394 
L 458.339085 203.101112 
L 458.473624 204.24405 
L 458.607853 203.084613 
L 458.741775 203.334732 
L 458.875389 203.260021 
L 459.141706 202.767873 
L 459.27441 203.850295 
L 459.406813 203.433575 
L 459.538916 204.645715 
L 459.670721 204.642695 
L 459.80223 204.486526 
L 459.933443 205.538244 
L 460.064361 203.973845 
L 460.194987 204.462293 
L 460.325321 203.549545 
L 460.58512 204.462353 
L 460.714587 204.473846 
L 461.101276 205.903161 
L 461.229605 204.272598 
L 461.357652 207.165323 
L 461.48542 206.687822 
L 461.612908 204.817209 
L 461.867053 206.736745 
L 461.993712 205.186205 
L 462.120097 205.327624 
L 462.246208 206.255262 
L 462.372048 206.093255 
L 462.497618 206.331181 
L 462.622917 204.376827 
L 462.872713 206.261038 
L 463.121445 204.35709 
L 463.245415 207.398614 
L 463.369122 205.172514 
L 463.492567 207.834911 
L 463.615753 205.343919 
L 463.738678 207.101034 
L 463.861346 205.515891 
L 463.983756 205.754435 
L 464.10591 207.434199 
L 464.22781 206.655373 
L 464.349455 207.78936 
L 464.470847 205.972985 
L 464.712877 207.570064 
L 464.833517 206.769615 
L 464.953908 208.219169 
L 465.074052 206.91776 
L 465.3136 209.453343 
L 465.433006 206.76939 
L 465.552169 207.48572 
L 465.671089 206.02525 
L 465.789767 207.206838 
L 465.908205 207.231082 
L 466.026403 206.703532 
L 466.144362 207.178803 
L 466.262083 209.368821 
L 466.379567 209.329547 
L 466.613829 206.743578 
L 466.847155 208.407979 
L 466.963469 206.85541 
L 467.079552 207.087346 
L 467.195405 206.625014 
L 467.311028 207.924469 
L 467.426423 205.8318 
L 467.54159 208.251088 
L 467.65653 207.889388 
L 467.771245 206.498502 
L 467.885734 200.046264 
L 468 210.846005 
L 468 210.846005 
" clip-path="url(#p731c41b7e2)" style="fill: none; stroke: #0000ff; stroke-width: 2.5; stroke-linecap: square"/>
   </g>
   <g id="line2d_64">
    <path d="M 71.213899 -1 
L 468 173.828865 
L 468 173.828865 
" clip-path="url(#p731c41b7e2)" style="fill: none; stroke-dasharray: 14.8,6.4; stroke-dashoffset: 0; stroke: #000000; stroke-width: 4"/>
   </g>
   <g id="patch_3">
    <path d="M 63.330456 210.846005 
L 63.330456 7.2 
" style="fill: none; stroke: #000000; stroke-linejoin: miter; stroke-linecap: square"/>
   </g>
   <g id="patch_4">
    <path d="M 468 210.846005 
L 468 7.2 
" style="fill: none; stroke: #000000; stroke-linejoin: miter; stroke-linecap: square"/>
   </g>
   <g id="patch_5">
    <path d="M 63.330456 210.846005 
L 468 210.846005 
" style="fill: none; stroke: #000000; stroke-linejoin: miter; stroke-linecap: square"/>
   </g>
   <g id="patch_6">
    <path d="M 63.330456 7.2 
L 468 7.2 
" style="fill: none; stroke: #000000; stroke-linejoin: miter; stroke-linecap: square"/>
   </g>
   <g id="legend_1">
    <g id="line2d_65">
     <path d="M 79.530456 159.769877 
L 97.530456 159.769877 
L 115.530456 159.769877 
" style="fill: none; stroke: #0000ff; stroke-width: 2.5; stroke-linecap: square"/>
    </g>
    <g id="text_10">
     <!-- Directional Spectrum -->
     <g transform="translate(129.930456 166.069877) scale(0.18 -0.18)">
      <defs>
       <path id="CMR17-44" d="M 333 4352 
L 333 4186 
C 774 4186 845 4186 845 3900 
L 845 452 
C 845 166 774 166 333 166 
L 333 0 
L 2368 0 
C 3398 0 4224 943 4224 2141 
C 4224 3346 3411 4352 2368 4352 
L 333 4352 
z
M 1523 166 
C 1267 166 1254 197 1254 414 
L 1254 3938 
C 1254 4155 1267 4186 1523 4186 
L 2240 4186 
C 2771 4186 3750 3874 3750 2141 
C 3750 1242 3488 879 3366 707 
C 3213 510 2848 166 2240 166 
L 1523 166 
z
" transform="scale(0.015625)"/>
       <path id="CMR17-69" d="M 992 3909 
C 992 4049 877 4170 730 4170 
C 589 4170 467 4056 467 3909 
C 467 3769 582 3648 730 3648 
C 870 3648 992 3763 992 3909 
z
M 243 2706 
L 243 2541 
C 602 2541 653 2502 653 2197 
L 653 427 
C 653 184 627 153 218 153 
L 218 -13 
C 371 0 646 0 806 0 
C 960 0 1222 0 1370 -13 
L 1370 153 
C 992 153 979 191 979 420 
L 979 2776 
L 243 2706 
z
" transform="scale(0.015625)"/>
       <path id="CMR17-72" d="M 960 1497 
C 960 2112 1222 2688 1702 2688 
C 1747 2688 1792 2682 1837 2662 
C 1837 2662 1696 2617 1696 2452 
C 1696 2298 1818 2234 1914 2234 
C 1990 2234 2131 2279 2131 2458 
C 2131 2663 1926 2790 1709 2790 
C 1222 2790 1011 2317 947 2093 
L 941 2093 
L 941 2790 
L 198 2720 
L 198 2554 
C 576 2554 634 2515 634 2208 
L 634 428 
C 634 184 608 153 198 153 
L 198 -13 
C 352 0 646 0 813 0 
C 998 0 1325 0 1498 -13 
L 1498 153 
C 1037 153 960 153 960 440 
L 960 1497 
z
" transform="scale(0.015625)"/>
       <path id="CMR17-65" d="M 2438 1472 
C 2464 1498 2464 1511 2464 1576 
C 2464 2238 2118 2816 1389 2816 
C 710 2816 173 2169 173 1383 
C 173 551 781 -64 1459 -64 
C 2176 -64 2458 607 2458 740 
C 2458 784 2419 784 2406 784 
C 2362 784 2355 771 2330 696 
C 2189 265 1837 51 1504 51 
C 1229 51 954 203 781 480 
C 582 803 582 1176 582 1472 
L 2438 1472 
z
M 589 1568 
C 634 2505 1126 2714 1382 2714 
C 1818 2714 2112 2297 2118 1568 
L 589 1568 
z
" transform="scale(0.015625)"/>
       <path id="CMR17-63" d="M 2234 2240 
C 2112 2240 1933 2240 1933 2017 
C 1933 1838 2080 1787 2163 1787 
C 2208 1787 2394 1807 2394 2024 
C 2394 2467 1958 2803 1466 2803 
C 787 2803 211 2178 211 1363 
C 211 516 813 -64 1466 -64 
C 2259 -64 2458 677 2458 748 
C 2458 774 2451 793 2406 793 
C 2362 793 2355 787 2330 703 
C 2163 180 1798 51 1523 51 
C 1114 51 621 427 621 1369 
C 621 2338 1094 2688 1472 2688 
C 1722 2688 2093 2573 2234 2240 
z
" transform="scale(0.015625)"/>
       <path id="CMR17-74" d="M 966 2560 
L 1862 2560 
L 1862 2725 
L 966 2725 
L 966 3904 
L 851 3904 
C 838 3245 614 2668 70 2668 
L 70 2560 
L 627 2560 
L 627 771 
C 627 650 627 -64 1370 -64 
C 1747 -64 1965 306 1965 777 
L 1965 1140 
L 1850 1140 
L 1850 783 
C 1850 344 1677 51 1408 51 
C 1222 51 966 178 966 758 
L 966 2560 
z
" transform="scale(0.015625)"/>
       <path id="CMR17-6f" d="M 2758 1356 
C 2758 2176 2163 2816 1466 2816 
C 768 2816 173 2176 173 1356 
C 173 551 768 -64 1466 -64 
C 2163 -64 2758 551 2758 1356 
z
M 1466 51 
C 1165 51 909 230 762 480 
C 602 767 582 1126 582 1408 
C 582 1677 595 2010 762 2298 
C 890 2509 1139 2714 1466 2714 
C 1754 2714 1997 2554 2150 2330 
C 2349 2029 2349 1607 2349 1408 
C 2349 1158 2336 775 2163 467 
C 1984 173 1709 51 1466 51 
z
" transform="scale(0.015625)"/>
       <path id="CMR17-6e" d="M 2656 1933 
C 2656 2259 2592 2790 1837 2790 
C 1331 2790 1069 2400 973 2144 
L 966 2144 
L 966 2790 
L 211 2720 
L 211 2554 
C 589 2554 646 2515 646 2208 
L 646 428 
C 646 184 621 153 211 153 
L 211 -13 
C 365 0 646 0 813 0 
C 979 0 1267 0 1421 -13 
L 1421 153 
C 1011 153 986 178 986 428 
L 986 1658 
C 986 2247 1344 2688 1792 2688 
C 2266 2688 2317 2266 2317 1958 
L 2317 428 
C 2317 184 2291 153 1882 153 
L 1882 -13 
C 2035 0 2317 0 2483 0 
C 2650 0 2938 0 3091 -13 
L 3091 153 
C 2682 153 2656 178 2656 428 
L 2656 1933 
z
" transform="scale(0.015625)"/>
       <path id="CMR17-61" d="M 2304 1653 
C 2304 2072 2304 2294 2035 2543 
C 1798 2752 1523 2816 1306 2816 
C 800 2816 435 2407 435 1971 
C 435 1728 627 1728 666 1728 
C 749 1728 896 1778 896 1954 
C 896 2112 774 2181 666 2181 
C 640 2181 608 2174 589 2168 
C 723 2592 1069 2714 1293 2714 
C 1613 2714 1965 2429 1965 1885 
L 1965 1600 
C 1587 1600 1133 1549 774 1357 
C 371 1133 256 813 256 570 
C 256 77 832 -64 1171 -64 
C 1523 -64 1850 139 1990 511 
C 2003 233 2182 -18 2464 -18 
C 2598 -18 2938 70 2938 567 
L 2938 920 
L 2822 920 
L 2822 562 
C 2822 178 2650 128 2566 128 
C 2304 128 2304 458 2304 738 
L 2304 1653 
z
M 1965 870 
C 1965 317 1568 38 1216 38 
C 896 38 646 275 646 570 
C 646 761 730 1100 1101 1305 
C 1408 1478 1760 1504 1965 1504 
L 1965 870 
z
" transform="scale(0.015625)"/>
       <path id="CMR17-6c" d="M 979 4396 
L 218 4326 
L 218 4160 
C 595 4160 653 4122 653 3817 
L 653 426 
C 653 184 627 153 218 153 
L 218 -13 
C 371 0 653 0 813 0 
C 979 0 1261 0 1414 -13 
L 1414 153 
C 1005 153 979 178 979 426 
L 979 4396 
z
" transform="scale(0.015625)"/>
       <path id="CMR17-53" d="M 2803 4290 
C 2803 4404 2797 4411 2758 4411 
C 2720 4411 2707 4385 2682 4328 
L 2490 3907 
C 2246 4257 1875 4416 1472 4416 
C 819 4416 294 3901 294 3253 
C 294 3056 339 2776 557 2510 
C 794 2218 1018 2167 1530 2033 
C 1722 1982 2042 1899 2106 1874 
C 2470 1722 2662 1341 2662 985 
C 2662 527 2336 38 1779 38 
C 1094 38 454 419 410 1311 
C 403 1413 397 1419 352 1419 
C 301 1419 294 1413 294 1285 
L 294 -1 
C 294 -115 301 -122 339 -122 
C 384 -122 397 -90 486 108 
C 493 127 493 140 614 381 
C 934 -39 1472 -128 1779 -128 
C 2477 -128 2970 451 2970 1124 
C 2970 1454 2848 1708 2778 1823 
C 2509 2230 2221 2306 1914 2382 
C 1869 2402 1856 2402 1498 2490 
C 1152 2579 1005 2624 845 2796 
C 666 2992 602 3196 602 3399 
C 602 3812 934 4263 1478 4263 
C 2157 4263 2579 3786 2675 2993 
C 2694 2878 2701 2872 2746 2872 
C 2803 2872 2803 2891 2803 2999 
L 2803 4290 
z
" transform="scale(0.015625)"/>
       <path id="CMR17-70" d="M 1408 -1063 
C 998 -1063 973 -1037 973 -789 
L 973 402 
C 1158 134 1427 -38 1766 -38 
C 2406 -38 3053 523 3053 1388 
C 3053 2191 2496 2802 1837 2802 
C 1453 2802 1139 2592 960 2338 
L 960 2802 
L 198 2732 
L 198 2567 
C 576 2567 634 2528 634 2223 
L 634 -789 
C 634 -1031 608 -1063 198 -1063 
L 198 -1228 
C 352 -1216 634 -1216 800 -1216 
C 966 -1216 1254 -1216 1408 -1228 
L 1408 -1063 
z
M 973 2012 
C 973 2102 973 2235 1222 2471 
C 1254 2497 1472 2688 1792 2688 
C 2259 2688 2643 2108 2643 1382 
C 2643 656 2234 64 1728 64 
C 1498 64 1248 172 1056 472 
C 973 612 973 650 973 752 
L 973 2012 
z
" transform="scale(0.015625)"/>
       <path id="CMR17-75" d="M 1882 2693 
L 1882 2528 
C 2259 2528 2317 2489 2317 2186 
L 2317 1032 
C 2317 500 2029 38 1555 38 
C 1030 38 986 348 986 678 
L 986 2763 
L 211 2693 
L 211 2528 
C 467 2528 640 2528 646 2274 
L 646 1058 
C 646 633 646 361 813 183 
C 896 101 1056 -64 1517 -64 
C 2061 -64 2272 377 2323 506 
L 2330 506 
L 2330 -63 
L 3091 -63 
L 3091 128 
C 2714 128 2656 166 2656 473 
L 2656 2763 
L 1882 2693 
z
" transform="scale(0.015625)"/>
       <path id="CMR17-6d" d="M 4326 1933 
C 4326 2252 4269 2790 3507 2790 
C 3072 2790 2771 2496 2656 2151 
L 2650 2151 
C 2573 2676 2195 2790 1837 2790 
C 1331 2790 1069 2400 973 2144 
L 966 2144 
L 966 2790 
L 211 2720 
L 211 2554 
C 589 2554 646 2515 646 2208 
L 646 428 
C 646 184 621 153 211 153 
L 211 -13 
C 365 0 646 0 813 0 
C 979 0 1267 0 1421 -13 
L 1421 153 
C 1011 153 986 178 986 428 
L 986 1658 
C 986 2247 1344 2688 1792 2688 
C 2266 2688 2317 2266 2317 1958 
L 2317 428 
C 2317 184 2291 153 1882 153 
L 1882 -13 
C 2035 0 2317 0 2483 0 
C 2650 0 2938 0 3091 -13 
L 3091 153 
C 2682 153 2656 178 2656 428 
L 2656 1658 
C 2656 2247 3014 2688 3462 2688 
C 3936 2688 3987 2266 3987 1958 
L 3987 428 
C 3987 184 3962 153 3552 153 
L 3552 -13 
C 3706 0 3987 0 4154 0 
C 4320 0 4608 0 4762 -13 
L 4762 153 
C 4352 153 4326 178 4326 428 
L 4326 1933 
z
" transform="scale(0.015625)"/>
      </defs>
      <use xlink:href="#CMR17-44" transform="scale(0.996264)"/>
      <use xlink:href="#CMR17-69" transform="translate(70.393556 0) scale(0.996264)"/>
      <use xlink:href="#CMR17-72" transform="translate(95.264614 0) scale(0.996264)"/>
      <use xlink:href="#CMR17-65" transform="translate(130.545382 0) scale(0.996264)"/>
      <use xlink:href="#CMR17-63" transform="translate(171.031043 0) scale(0.996264)"/>
      <use xlink:href="#CMR17-74" transform="translate(211.516703 0) scale(0.996264)"/>
      <use xlink:href="#CMR17-69" transform="translate(246.797471 0) scale(0.996264)"/>
      <use xlink:href="#CMR17-6f" transform="translate(271.668529 0) scale(0.996264)"/>
      <use xlink:href="#CMR17-6e" transform="translate(317.359007 0) scale(0.996264)"/>
      <use xlink:href="#CMR17-61" transform="translate(368.254376 0) scale(0.996264)"/>
      <use xlink:href="#CMR17-6c" transform="translate(413.944853 0) scale(0.996264)"/>
      <use xlink:href="#CMR17-53" transform="translate(468.891878 0) scale(0.996264)"/>
      <use xlink:href="#CMR17-70" transform="translate(519.787248 0) scale(0.996264)"/>
      <use xlink:href="#CMR17-65" transform="translate(573.285057 0) scale(0.996264)"/>
      <use xlink:href="#CMR17-63" transform="translate(613.770717 0) scale(0.996264)"/>
      <use xlink:href="#CMR17-74" transform="translate(654.256377 0) scale(0.996264)"/>
      <use xlink:href="#CMR17-72" transform="translate(689.537145 0) scale(0.996264)"/>
      <use xlink:href="#CMR17-75" transform="translate(724.817913 0) scale(0.996264)"/>
      <use xlink:href="#CMR17-6d" transform="translate(775.713283 0) scale(0.996264)"/>
     </g>
    </g>
    <g id="line2d_66">
     <path d="M 79.530456 184.857941 
L 97.530456 184.857941 
L 115.530456 184.857941 
" style="fill: none; stroke-dasharray: 14.8,6.4; stroke-dashoffset: 0; stroke: #000000; stroke-width: 4"/>
    </g>
    <g id="text_11">
     <!-- $k^{-11/3}$ -->
     <g transform="translate(129.930456 191.157941) scale(0.18 -0.18)">
      <defs>
       <path id="CMSY10-0" d="M 4218 1472 
C 4326 1472 4442 1472 4442 1600 
C 4442 1728 4326 1728 4218 1728 
L 755 1728 
C 646 1728 531 1728 531 1600 
C 531 1472 646 1472 755 1472 
L 4218 1472 
z
" transform="scale(0.015625)"/>
       <path id="CMMI12-3d" d="M 2746 4562 
C 2746 4569 2784 4666 2784 4678 
C 2784 4755 2720 4800 2669 4800 
C 2637 4800 2579 4800 2528 4659 
L 384 -1363 
C 384 -1370 346 -1465 346 -1478 
C 346 -1555 410 -1600 461 -1600 
C 499 -1600 557 -1593 602 -1459 
L 2746 4562 
z
" transform="scale(0.015625)"/>
      </defs>
      <use xlink:href="#CMMI12-6b" transform="scale(0.996264)"/>
      <use xlink:href="#CMSY10-0" transform="translate(54.079201 36.153639) scale(0.697382)"/>
      <use xlink:href="#CMR17-31" transform="translate(108.320194 36.153639) scale(0.697382)"/>
      <use xlink:href="#CMR17-31" transform="translate(140.303376 36.153639) scale(0.697382)"/>
      <use xlink:href="#CMMI12-3d" transform="translate(172.286558 36.153639) scale(0.697382)"/>
      <use xlink:href="#CMR17-33" transform="translate(206.428849 36.153639) scale(0.697382)"/>
     </g>
    </g>
   </g>
  </g>
 </g>
 <defs>
  <clipPath id="p731c41b7e2">
   <rect x="63.330456" y="7.2" width="404.669544" height="203.646005"/>
  </clipPath>
 </defs>
</svg>
