<?xml version="1.0" encoding="utf-8" standalone="no"?>
<!DOCTYPE svg PUBLIC "-//W3C//DTD SVG 1.1//EN"
  "http://www.w3.org/Graphics/SVG/1.1/DTD/svg11.dtd">
<svg xmlns:xlink="http://www.w3.org/1999/xlink" width="496.8pt" height="280.8pt" viewBox="0 0 496.8 280.8" xmlns="http://www.w3.org/2000/svg" version="1.1">
 <metadata>
  <rdf:RDF xmlns:dc="http://purl.org/dc/elements/1.1/" xmlns:cc="http://creativecommons.org/ns#" xmlns:rdf="http://www.w3.org/1999/02/22-rdf-syntax-ns#">
   <cc:Work>
    <dc:type rdf:resource="http://purl.org/dc/dcmitype/StillImage"/>
    <dc:date>2026-02-16T21:16:47.411224</dc:date>
    <dc:format>image/svg+xml</dc:format>
    <dc:creator>
     <cc:Agent>
      <dc:title>Matplotlib v3.8.4, https://matplotlib.org/</dc:title>
     </cc:Agent>
    </dc:creator>
   </cc:Work>
  </rdf:RDF>
 </metadata>
 <defs>
  <style type="text/css">*{stroke-linejoin: round; stroke-linecap: butt}</style>
 </defs>
 <g id="figure_1">
  <g id="patch_1">
   <path d="M 0 280.8 
L 496.8 280.8 
L 496.8 0 
L 0 0 
z
" style="fill: #ffffff"/>
  </g>
  <g id="axes_1">
   <g id="patch_2">
    <path d="M 37.392719 248.388647 
L 489.6 248.388647 
L 489.6 10.659249 
L 37.392719 10.659249 
z
" style="fill: #ffffff"/>
   </g>
   <g id="matplotlib.axis_1">
    <g id="xtick_1">
     <g id="line2d_1">
      <defs>
       <path id="meed4e4e984" d="M 0 0 
L 0 -6 
" style="stroke: #000000; stroke-width: 0.8"/>
      </defs>
      <g>
       <use xlink:href="#meed4e4e984" x="75.702323" y="248.388647" style="stroke: #000000; stroke-width: 0.8"/>
      </g>
     </g>
     <g id="line2d_2">
      <defs>
       <path id="m3eab9c40dd" d="M 0 0 
L 0 6 
" style="stroke: #000000; stroke-width: 0.8"/>
      </defs>
      <g>
       <use xlink:href="#m3eab9c40dd" x="75.702323" y="10.659249" style="stroke: #000000; stroke-width: 0.8"/>
      </g>
     </g>
     <g id="text_1">
      <!-- $\mathdefault{10^{1}}$ -->
      <g transform="translate(68.735369 258.807145) scale(0.1 -0.1)">
       <defs>
        <path id="CMR17-31" d="M 1702 4058 
C 1702 4192 1696 4192 1606 4192 
C 1357 3916 979 3827 621 3827 
C 602 3827 570 3827 563 3808 
C 557 3795 557 3782 557 3648 
C 755 3648 1088 3686 1344 3839 
L 1344 461 
C 1344 236 1331 160 781 160 
L 589 160 
L 589 0 
C 896 0 1216 0 1523 0 
C 1830 0 2150 0 2458 0 
L 2458 160 
L 2266 160 
C 1715 160 1702 230 1702 458 
L 1702 4058 
z
" transform="scale(0.015625)"/>
        <path id="CMR17-30" d="M 2688 2025 
C 2688 2416 2682 3080 2413 3591 
C 2176 4039 1798 4198 1466 4198 
C 1158 4198 768 4058 525 3597 
C 269 3118 243 2524 243 2025 
C 243 1661 250 1106 448 619 
C 723 -39 1216 -128 1466 -128 
C 1760 -128 2208 -7 2470 600 
C 2662 1042 2688 1559 2688 2025 
z
M 1466 -26 
C 1056 -26 813 325 723 812 
C 653 1188 653 1738 653 2096 
C 653 2588 653 2997 736 3387 
C 858 3929 1216 4096 1466 4096 
C 1728 4096 2067 3923 2189 3400 
C 2272 3036 2278 2607 2278 2096 
C 2278 1680 2278 1169 2202 792 
C 2067 95 1690 -26 1466 -26 
z
" transform="scale(0.015625)"/>
       </defs>
       <use xlink:href="#CMR17-31" transform="scale(0.996264)"/>
       <use xlink:href="#CMR17-30" transform="translate(45.690477 0) scale(0.996264)"/>
       <use xlink:href="#CMR17-31" transform="translate(91.380954 36.153639) scale(0.697382)"/>
      </g>
     </g>
    </g>
    <g id="xtick_2">
     <g id="line2d_3">
      <g>
       <use xlink:href="#meed4e4e984" x="293.069337" y="248.388647" style="stroke: #000000; stroke-width: 0.8"/>
      </g>
     </g>
     <g id="line2d_4">
      <g>
       <use xlink:href="#m3eab9c40dd" x="293.069337" y="10.659249" style="stroke: #000000; stroke-width: 0.8"/>
      </g>
     </g>
     <g id="text_2">
      <!-- $\mathdefault{10^{2}}$ -->
      <g transform="translate(286.102383 258.807145) scale(0.1 -0.1)">
       <defs>
        <path id="CMR17-32" d="M 2669 989 
L 2554 989 
C 2490 536 2438 459 2413 420 
C 2381 369 1920 369 1830 369 
L 602 369 
C 832 619 1280 1072 1824 1597 
C 2214 1967 2669 2402 2669 3035 
C 2669 3790 2067 4224 1395 4224 
C 691 4224 262 3604 262 3030 
C 262 2780 448 2748 525 2748 
C 589 2748 781 2787 781 3010 
C 781 3207 614 3264 525 3264 
C 486 3264 448 3258 422 3245 
C 544 3790 915 4058 1306 4058 
C 1862 4058 2227 3617 2227 3035 
C 2227 2479 1901 2000 1536 1584 
L 262 146 
L 262 0 
L 2515 0 
L 2669 989 
z
" transform="scale(0.015625)"/>
       </defs>
       <use xlink:href="#CMR17-31" transform="scale(0.996264)"/>
       <use xlink:href="#CMR17-30" transform="translate(45.690477 0) scale(0.996264)"/>
       <use xlink:href="#CMR17-32" transform="translate(91.380954 36.153639) scale(0.697382)"/>
      </g>
     </g>
    </g>
    <g id="xtick_3">
     <g id="line2d_5">
      <defs>
       <path id="mf0eb88563c" d="M 0 0 
L 0 -3 
" style="stroke: #000000; stroke-width: 0.6"/>
      </defs>
      <g>
       <use xlink:href="#mf0eb88563c" x="42.031746" y="248.388647" style="stroke: #000000; stroke-width: 0.6"/>
      </g>
     </g>
     <g id="line2d_6">
      <defs>
       <path id="m8df58d891c" d="M 0 0 
L 0 3 
" style="stroke: #000000; stroke-width: 0.6"/>
      </defs>
      <g>
       <use xlink:href="#m8df58d891c" x="42.031746" y="10.659249" style="stroke: #000000; stroke-width: 0.6"/>
      </g>
     </g>
    </g>
    <g id="xtick_4">
     <g id="line2d_7">
      <g>
       <use xlink:href="#mf0eb88563c" x="54.637283" y="248.388647" style="stroke: #000000; stroke-width: 0.6"/>
      </g>
     </g>
     <g id="line2d_8">
      <g>
       <use xlink:href="#m8df58d891c" x="54.637283" y="10.659249" style="stroke: #000000; stroke-width: 0.6"/>
      </g>
     </g>
    </g>
    <g id="xtick_5">
     <g id="line2d_9">
      <g>
       <use xlink:href="#mf0eb88563c" x="65.756154" y="248.388647" style="stroke: #000000; stroke-width: 0.6"/>
      </g>
     </g>
     <g id="line2d_10">
      <g>
       <use xlink:href="#m8df58d891c" x="65.756154" y="10.659249" style="stroke: #000000; stroke-width: 0.6"/>
      </g>
     </g>
    </g>
    <g id="xtick_6">
     <g id="line2d_11">
      <g>
       <use xlink:href="#mf0eb88563c" x="141.136314" y="248.388647" style="stroke: #000000; stroke-width: 0.6"/>
      </g>
     </g>
     <g id="line2d_12">
      <g>
       <use xlink:href="#m8df58d891c" x="141.136314" y="10.659249" style="stroke: #000000; stroke-width: 0.6"/>
      </g>
     </g>
    </g>
    <g id="xtick_7">
     <g id="line2d_13">
      <g>
       <use xlink:href="#mf0eb88563c" x="179.412745" y="248.388647" style="stroke: #000000; stroke-width: 0.6"/>
      </g>
     </g>
     <g id="line2d_14">
      <g>
       <use xlink:href="#m8df58d891c" x="179.412745" y="10.659249" style="stroke: #000000; stroke-width: 0.6"/>
      </g>
     </g>
    </g>
    <g id="xtick_8">
     <g id="line2d_15">
      <g>
       <use xlink:href="#mf0eb88563c" x="206.570305" y="248.388647" style="stroke: #000000; stroke-width: 0.6"/>
      </g>
     </g>
     <g id="line2d_16">
      <g>
       <use xlink:href="#m8df58d891c" x="206.570305" y="10.659249" style="stroke: #000000; stroke-width: 0.6"/>
      </g>
     </g>
    </g>
    <g id="xtick_9">
     <g id="line2d_17">
      <g>
       <use xlink:href="#mf0eb88563c" x="227.635345" y="248.388647" style="stroke: #000000; stroke-width: 0.6"/>
      </g>
     </g>
     <g id="line2d_18">
      <g>
       <use xlink:href="#m8df58d891c" x="227.635345" y="10.659249" style="stroke: #000000; stroke-width: 0.6"/>
      </g>
     </g>
    </g>
    <g id="xtick_10">
     <g id="line2d_19">
      <g>
       <use xlink:href="#mf0eb88563c" x="244.846736" y="248.388647" style="stroke: #000000; stroke-width: 0.6"/>
      </g>
     </g>
     <g id="line2d_20">
      <g>
       <use xlink:href="#m8df58d891c" x="244.846736" y="10.659249" style="stroke: #000000; stroke-width: 0.6"/>
      </g>
     </g>
    </g>
    <g id="xtick_11">
     <g id="line2d_21">
      <g>
       <use xlink:href="#mf0eb88563c" x="259.39876" y="248.388647" style="stroke: #000000; stroke-width: 0.6"/>
      </g>
     </g>
     <g id="line2d_22">
      <g>
       <use xlink:href="#m8df58d891c" x="259.39876" y="10.659249" style="stroke: #000000; stroke-width: 0.6"/>
      </g>
     </g>
    </g>
    <g id="xtick_12">
     <g id="line2d_23">
      <g>
       <use xlink:href="#mf0eb88563c" x="272.004297" y="248.388647" style="stroke: #000000; stroke-width: 0.6"/>
      </g>
     </g>
     <g id="line2d_24">
      <g>
       <use xlink:href="#m8df58d891c" x="272.004297" y="10.659249" style="stroke: #000000; stroke-width: 0.6"/>
      </g>
     </g>
    </g>
    <g id="xtick_13">
     <g id="line2d_25">
      <g>
       <use xlink:href="#mf0eb88563c" x="283.123168" y="248.388647" style="stroke: #000000; stroke-width: 0.6"/>
      </g>
     </g>
     <g id="line2d_26">
      <g>
       <use xlink:href="#m8df58d891c" x="283.123168" y="10.659249" style="stroke: #000000; stroke-width: 0.6"/>
      </g>
     </g>
    </g>
    <g id="xtick_14">
     <g id="line2d_27">
      <g>
       <use xlink:href="#mf0eb88563c" x="358.503328" y="248.388647" style="stroke: #000000; stroke-width: 0.6"/>
      </g>
     </g>
     <g id="line2d_28">
      <g>
       <use xlink:href="#m8df58d891c" x="358.503328" y="10.659249" style="stroke: #000000; stroke-width: 0.6"/>
      </g>
     </g>
    </g>
    <g id="xtick_15">
     <g id="line2d_29">
      <g>
       <use xlink:href="#mf0eb88563c" x="396.779759" y="248.388647" style="stroke: #000000; stroke-width: 0.6"/>
      </g>
     </g>
     <g id="line2d_30">
      <g>
       <use xlink:href="#m8df58d891c" x="396.779759" y="10.659249" style="stroke: #000000; stroke-width: 0.6"/>
      </g>
     </g>
    </g>
    <g id="xtick_16">
     <g id="line2d_31">
      <g>
       <use xlink:href="#mf0eb88563c" x="423.937319" y="248.388647" style="stroke: #000000; stroke-width: 0.6"/>
      </g>
     </g>
     <g id="line2d_32">
      <g>
       <use xlink:href="#m8df58d891c" x="423.937319" y="10.659249" style="stroke: #000000; stroke-width: 0.6"/>
      </g>
     </g>
    </g>
    <g id="xtick_17">
     <g id="line2d_33">
      <g>
       <use xlink:href="#mf0eb88563c" x="445.002359" y="248.388647" style="stroke: #000000; stroke-width: 0.6"/>
      </g>
     </g>
     <g id="line2d_34">
      <g>
       <use xlink:href="#m8df58d891c" x="445.002359" y="10.659249" style="stroke: #000000; stroke-width: 0.6"/>
      </g>
     </g>
    </g>
    <g id="xtick_18">
     <g id="line2d_35">
      <g>
       <use xlink:href="#mf0eb88563c" x="462.21375" y="248.388647" style="stroke: #000000; stroke-width: 0.6"/>
      </g>
     </g>
     <g id="line2d_36">
      <g>
       <use xlink:href="#m8df58d891c" x="462.21375" y="10.659249" style="stroke: #000000; stroke-width: 0.6"/>
      </g>
     </g>
    </g>
    <g id="xtick_19">
     <g id="line2d_37">
      <g>
       <use xlink:href="#mf0eb88563c" x="476.765774" y="248.388647" style="stroke: #000000; stroke-width: 0.6"/>
      </g>
     </g>
     <g id="line2d_38">
      <g>
       <use xlink:href="#m8df58d891c" x="476.765774" y="10.659249" style="stroke: #000000; stroke-width: 0.6"/>
      </g>
     </g>
    </g>
    <g id="xtick_20">
     <g id="line2d_39">
      <g>
       <use xlink:href="#mf0eb88563c" x="489.37131" y="248.388647" style="stroke: #000000; stroke-width: 0.6"/>
      </g>
     </g>
     <g id="line2d_40">
      <g>
       <use xlink:href="#m8df58d891c" x="489.37131" y="10.659249" style="stroke: #000000; stroke-width: 0.6"/>
      </g>
     </g>
    </g>
    <g id="text_3">
     <!-- $k$ -->
     <g transform="translate(260.903065 271.662822) scale(0.1 -0.1)">
      <defs>
       <path id="CMMI12-6b" d="M 1798 4257 
C 1805 4283 1818 4321 1818 4352 
C 1818 4416 1754 4416 1741 4416 
C 1734 4416 1504 4393 1389 4377 
C 1280 4377 1184 4358 1069 4358 
C 915 4345 870 4339 870 4224 
C 870 4160 934 4160 998 4160 
C 1325 4160 1325 4103 1325 4040 
C 1325 4015 1325 4002 1293 3888 
L 378 248 
C 352 152 352 140 352 101 
C 352 -38 461 -64 525 -64 
C 704 -64 742 77 794 275 
L 1094 1469 
C 1555 1418 1830 1226 1830 920 
C 1830 881 1830 856 1811 760 
C 1786 664 1786 588 1786 556 
C 1786 185 2029 -64 2355 -64 
C 2650 -64 2803 204 2854 294 
C 2989 530 3072 888 3072 913 
C 3072 945 3046 971 3008 971 
C 2950 971 2944 945 2918 843 
C 2829 511 2694 64 2368 64 
C 2240 64 2157 128 2157 370 
C 2157 492 2182 632 2208 728 
C 2234 843 2234 849 2234 926 
C 2234 1303 1894 1514 1306 1590 
C 1536 1731 1766 1980 1856 2076 
C 2221 2484 2470 2689 2765 2689 
C 2912 2689 2950 2650 2995 2612 
C 2758 2586 2669 2420 2669 2293 
C 2669 2139 2790 2088 2880 2088 
C 3053 2088 3206 2235 3206 2440 
C 3206 2625 3059 2816 2771 2816 
C 2419 2816 2131 2567 1677 2056 
C 1613 1980 1376 1737 1139 1648 
L 1798 4257 
z
" transform="scale(0.015625)"/>
      </defs>
      <use xlink:href="#CMMI12-6b" transform="scale(0.996264)"/>
     </g>
    </g>
   </g>
   <g id="matplotlib.axis_2">
    <g id="ytick_1">
     <g id="line2d_41">
      <defs>
       <path id="meba0d09751" d="M 0 0 
L 6 0 
" style="stroke: #000000; stroke-width: 0.8"/>
      </defs>
      <g>
       <use xlink:href="#meba0d09751" x="37.392719" y="248.388647" style="stroke: #000000; stroke-width: 0.8"/>
      </g>
     </g>
     <g id="line2d_42">
      <defs>
       <path id="m31ef38da15" d="M 0 0 
L -6 0 
" style="stroke: #000000; stroke-width: 0.8"/>
      </defs>
      <g>
       <use xlink:href="#m31ef38da15" x="489.6" y="248.388647" style="stroke: #000000; stroke-width: 0.8"/>
      </g>
     </g>
     <g id="text_4">
      <!-- $\mathdefault{−6}$ -->
      <g transform="translate(21.16264 251.847896) scale(0.1 -0.1)">
       <defs>
        <path id="CMSY10-0" d="M 4218 1472 
C 4326 1472 4442 1472 4442 1600 
C 4442 1728 4326 1728 4218 1728 
L 755 1728 
C 646 1728 531 1728 531 1600 
C 531 1472 646 1472 755 1472 
L 4218 1472 
z
" transform="scale(0.015625)"/>
        <path id="CMR17-36" d="M 678 2176 
C 678 3690 1395 4032 1811 4032 
C 1946 4032 2272 4009 2400 3776 
C 2298 3776 2106 3776 2106 3553 
C 2106 3381 2246 3323 2336 3323 
C 2394 3323 2566 3348 2566 3560 
C 2566 3954 2246 4179 1805 4179 
C 1043 4179 243 3390 243 1984 
C 243 253 966 -128 1478 -128 
C 2099 -128 2688 427 2688 1283 
C 2688 2081 2170 2662 1517 2662 
C 1126 2662 838 2407 678 1960 
L 678 2176 
z
M 1478 25 
C 691 25 691 1200 691 1436 
C 691 1896 909 2560 1504 2560 
C 1613 2560 1926 2560 2138 2120 
C 2253 1870 2253 1609 2253 1289 
C 2253 944 2253 690 2118 434 
C 1978 171 1773 25 1478 25 
z
" transform="scale(0.015625)"/>
       </defs>
       <use xlink:href="#CMSY10-0" transform="scale(0.996264)"/>
       <use xlink:href="#CMR17-36" transform="translate(77.487468 0) scale(0.996264)"/>
      </g>
     </g>
    </g>
    <g id="ytick_2">
     <g id="line2d_43">
      <g>
       <use xlink:href="#meba0d09751" x="37.392719" y="208.76708" style="stroke: #000000; stroke-width: 0.8"/>
      </g>
     </g>
     <g id="line2d_44">
      <g>
       <use xlink:href="#m31ef38da15" x="489.6" y="208.76708" style="stroke: #000000; stroke-width: 0.8"/>
      </g>
     </g>
     <g id="text_5">
      <!-- $\mathdefault{−5}$ -->
      <g transform="translate(21.16264 212.22633) scale(0.1 -0.1)">
       <defs>
        <path id="CMR17-35" d="M 730 3692 
C 794 3666 1056 3584 1325 3584 
C 1920 3584 2246 3911 2432 4100 
C 2432 4157 2432 4192 2394 4192 
C 2387 4192 2374 4192 2323 4163 
C 2099 4058 1837 3973 1517 3973 
C 1325 3973 1037 3999 723 4139 
C 653 4171 640 4171 634 4171 
C 602 4171 595 4164 595 4037 
L 595 2203 
C 595 2089 595 2057 659 2057 
C 691 2057 704 2070 736 2114 
C 941 2401 1222 2522 1542 2522 
C 1766 2522 2246 2382 2246 1289 
C 2246 1085 2246 715 2054 421 
C 1894 159 1645 25 1370 25 
C 947 25 518 320 403 814 
C 429 807 480 795 506 795 
C 589 795 749 840 749 1038 
C 749 1210 627 1280 506 1280 
C 358 1280 262 1190 262 1011 
C 262 454 704 -128 1382 -128 
C 2042 -128 2669 440 2669 1264 
C 2669 2030 2170 2624 1549 2624 
C 1222 2624 947 2503 730 2274 
L 730 3692 
z
" transform="scale(0.015625)"/>
       </defs>
       <use xlink:href="#CMSY10-0" transform="scale(0.996264)"/>
       <use xlink:href="#CMR17-35" transform="translate(77.487468 0) scale(0.996264)"/>
      </g>
     </g>
    </g>
    <g id="ytick_3">
     <g id="line2d_45">
      <g>
       <use xlink:href="#meba0d09751" x="37.392719" y="169.145514" style="stroke: #000000; stroke-width: 0.8"/>
      </g>
     </g>
     <g id="line2d_46">
      <g>
       <use xlink:href="#m31ef38da15" x="489.6" y="169.145514" style="stroke: #000000; stroke-width: 0.8"/>
      </g>
     </g>
     <g id="text_6">
      <!-- $\mathdefault{−4}$ -->
      <g transform="translate(21.16264 172.604763) scale(0.1 -0.1)">
       <defs>
        <path id="CMR17-34" d="M 2150 4122 
C 2150 4256 2144 4256 2029 4256 
L 128 1254 
L 128 1088 
L 1779 1088 
L 1779 457 
C 1779 224 1766 160 1318 160 
L 1197 160 
L 1197 0 
C 1402 0 1747 0 1965 0 
C 2182 0 2528 0 2733 0 
L 2733 160 
L 2611 160 
C 2163 160 2150 224 2150 457 
L 2150 1088 
L 2803 1088 
L 2803 1254 
L 2150 1254 
L 2150 4122 
z
M 1798 3703 
L 1798 1254 
L 256 1254 
L 1798 3703 
z
" transform="scale(0.015625)"/>
       </defs>
       <use xlink:href="#CMSY10-0" transform="scale(0.996264)"/>
       <use xlink:href="#CMR17-34" transform="translate(77.487468 0) scale(0.996264)"/>
      </g>
     </g>
    </g>
    <g id="ytick_4">
     <g id="line2d_47">
      <g>
       <use xlink:href="#meba0d09751" x="37.392719" y="129.523948" style="stroke: #000000; stroke-width: 0.8"/>
      </g>
     </g>
     <g id="line2d_48">
      <g>
       <use xlink:href="#m31ef38da15" x="489.6" y="129.523948" style="stroke: #000000; stroke-width: 0.8"/>
      </g>
     </g>
     <g id="text_7">
      <!-- $\mathdefault{−3}$ -->
      <g transform="translate(21.16264 132.983197) scale(0.1 -0.1)">
       <defs>
        <path id="CMR17-33" d="M 1414 2157 
C 1984 2157 2234 1662 2234 1090 
C 2234 320 1824 25 1453 25 
C 1114 25 563 194 390 693 
C 422 680 454 680 486 680 
C 640 680 755 782 755 948 
C 755 1133 614 1216 486 1216 
C 378 1216 211 1165 211 926 
C 211 335 787 -128 1466 -128 
C 2176 -128 2720 430 2720 1085 
C 2720 1707 2208 2157 1600 2227 
C 2086 2328 2554 2756 2554 3329 
C 2554 3820 2048 4179 1472 4179 
C 890 4179 378 3829 378 3329 
C 378 3110 544 3072 627 3072 
C 762 3072 877 3155 877 3321 
C 877 3486 762 3569 627 3569 
C 602 3569 570 3569 544 3557 
C 730 3959 1235 4032 1459 4032 
C 1683 4032 2106 3925 2106 3320 
C 2106 3143 2080 2828 1862 2550 
C 1670 2304 1453 2304 1242 2284 
C 1210 2284 1062 2269 1037 2269 
C 992 2263 966 2257 966 2208 
C 966 2163 973 2157 1101 2157 
L 1414 2157 
z
" transform="scale(0.015625)"/>
       </defs>
       <use xlink:href="#CMSY10-0" transform="scale(0.996264)"/>
       <use xlink:href="#CMR17-33" transform="translate(77.487468 0) scale(0.996264)"/>
      </g>
     </g>
    </g>
    <g id="ytick_5">
     <g id="line2d_49">
      <g>
       <use xlink:href="#meba0d09751" x="37.392719" y="89.902382" style="stroke: #000000; stroke-width: 0.8"/>
      </g>
     </g>
     <g id="line2d_50">
      <g>
       <use xlink:href="#m31ef38da15" x="489.6" y="89.902382" style="stroke: #000000; stroke-width: 0.8"/>
      </g>
     </g>
     <g id="text_8">
      <!-- $\mathdefault{−2}$ -->
      <g transform="translate(21.16264 93.361631) scale(0.1 -0.1)">
       <use xlink:href="#CMSY10-0" transform="scale(0.996264)"/>
       <use xlink:href="#CMR17-32" transform="translate(77.487468 0) scale(0.996264)"/>
      </g>
     </g>
    </g>
    <g id="ytick_6">
     <g id="line2d_51">
      <g>
       <use xlink:href="#meba0d09751" x="37.392719" y="50.280815" style="stroke: #000000; stroke-width: 0.8"/>
      </g>
     </g>
     <g id="line2d_52">
      <g>
       <use xlink:href="#m31ef38da15" x="489.6" y="50.280815" style="stroke: #000000; stroke-width: 0.8"/>
      </g>
     </g>
     <g id="text_9">
      <!-- $\mathdefault{−1}$ -->
      <g transform="translate(21.16264 53.740065) scale(0.1 -0.1)">
       <use xlink:href="#CMSY10-0" transform="scale(0.996264)"/>
       <use xlink:href="#CMR17-31" transform="translate(77.487468 0) scale(0.996264)"/>
      </g>
     </g>
    </g>
    <g id="ytick_7">
     <g id="line2d_53">
      <g>
       <use xlink:href="#meba0d09751" x="37.392719" y="10.659249" style="stroke: #000000; stroke-width: 0.8"/>
      </g>
     </g>
     <g id="line2d_54">
      <g>
       <use xlink:href="#m31ef38da15" x="489.6" y="10.659249" style="stroke: #000000; stroke-width: 0.8"/>
      </g>
     </g>
     <g id="text_10">
      <!-- $\mathdefault{0}$ -->
      <g transform="translate(28.911384 14.118498) scale(0.1 -0.1)">
       <use xlink:href="#CMR17-30" transform="scale(0.996264)"/>
      </g>
     </g>
    </g>
    <g id="text_11">
     <!-- $\mathrm{d}(\log P)/\mathrm{d}(\log k)$ -->
     <g transform="translate(14.67198 166.467046) rotate(-90) scale(0.1 -0.1)">
      <defs>
       <path id="CMR17-64" d="M 1869 4326 
L 1869 4160 
C 2246 4160 2304 4122 2304 3820 
L 2304 2345 
C 2278 2377 2016 2790 1498 2790 
C 845 2790 211 2208 211 1364 
C 211 525 806 -64 1434 -64 
C 1978 -64 2259 337 2291 380 
L 2291 -63 
L 3066 -63 
L 3066 128 
C 2688 128 2630 166 2630 473 
L 2630 4396 
L 1869 4326 
z
M 2291 755 
C 2291 563 2176 390 2029 262 
C 1811 70 1594 38 1472 38 
C 1286 38 621 134 621 1356 
C 621 2612 1363 2688 1530 2688 
C 1824 2688 2061 2522 2208 2291 
C 2291 2157 2291 2138 2291 2023 
L 2291 755 
z
" transform="scale(0.015625)"/>
       <path id="CMR17-28" d="M 1958 -1561 
C 1958 -1555 1958 -1542 1939 -1523 
C 1645 -1224 858 -407 858 1581 
C 858 3569 1632 4379 1946 4697 
C 1946 4704 1958 4717 1958 4736 
C 1958 4755 1939 4768 1914 4768 
C 1843 4768 1299 4296 986 3594 
C 666 2887 576 2199 576 1588 
C 576 1128 621 351 1005 -471 
C 1312 -1135 1837 -1600 1914 -1600 
C 1946 -1600 1958 -1587 1958 -1561 
z
" transform="scale(0.015625)"/>
       <path id="CMR17-6c" d="M 979 4396 
L 218 4326 
L 218 4160 
C 595 4160 653 4122 653 3817 
L 653 426 
C 653 184 627 153 218 153 
L 218 -13 
C 371 0 653 0 813 0 
C 979 0 1261 0 1414 -13 
L 1414 153 
C 1005 153 979 178 979 426 
L 979 4396 
z
" transform="scale(0.015625)"/>
       <path id="CMR17-6f" d="M 2758 1356 
C 2758 2176 2163 2816 1466 2816 
C 768 2816 173 2176 173 1356 
C 173 551 768 -64 1466 -64 
C 2163 -64 2758 551 2758 1356 
z
M 1466 51 
C 1165 51 909 230 762 480 
C 602 767 582 1126 582 1408 
C 582 1677 595 2010 762 2298 
C 890 2509 1139 2714 1466 2714 
C 1754 2714 1997 2554 2150 2330 
C 2349 2029 2349 1607 2349 1408 
C 2349 1158 2336 775 2163 467 
C 1984 173 1709 51 1466 51 
z
" transform="scale(0.015625)"/>
       <path id="CMR17-67" d="M 710 1164 
C 832 1068 1043 960 1299 960 
C 1805 960 2240 1357 2240 1888 
C 2240 2054 2189 2310 1997 2509 
C 2176 2692 2438 2752 2586 2752 
C 2611 2752 2650 2752 2682 2734 
C 2656 2728 2598 2703 2598 2605 
C 2598 2527 2656 2471 2739 2471 
C 2835 2471 2886 2533 2886 2614 
C 2886 2731 2790 2854 2586 2854 
C 2330 2854 2106 2738 1926 2580 
C 1734 2753 1504 2816 1299 2816 
C 794 2816 358 2419 358 1888 
C 358 1522 570 1292 634 1228 
C 442 1004 442 743 442 711 
C 442 545 506 302 723 168 
C 390 85 128 -169 128 -486 
C 128 -943 736 -1280 1466 -1280 
C 2170 -1280 2803 -956 2803 -479 
C 2803 384 1856 384 1363 384 
C 1216 384 954 384 922 391 
C 723 423 589 602 589 826 
C 589 883 589 1024 710 1164 
z
M 1299 1068 
C 736 1068 736 1760 736 1889 
C 736 2016 736 2708 1299 2708 
C 1862 2708 1862 2016 1862 1889 
C 1862 1760 1862 1068 1299 1068 
z
M 1466 -1171 
C 826 -1171 384 -835 384 -486 
C 384 -289 493 -105 634 -4 
C 794 104 858 104 1293 104 
C 1818 104 2547 104 2547 -486 
C 2547 -835 2106 -1171 1466 -1171 
z
" transform="scale(0.015625)"/>
       <path id="CMMI12-50" d="M 1894 2023 
L 2970 2023 
C 3853 2023 4736 2673 4736 3401 
C 4736 3898 4314 4352 3507 4352 
L 1530 4352 
C 1408 4352 1350 4352 1350 4231 
C 1350 4167 1408 4167 1504 4167 
C 1894 4167 1894 4116 1894 4046 
C 1894 4034 1894 3995 1869 3899 
L 1005 472 
C 947 249 934 185 486 185 
C 365 185 301 185 301 70 
C 301 0 358 0 397 0 
C 518 0 646 0 768 0 
L 1517 0 
C 1638 0 1773 0 1894 0 
C 1946 0 2016 0 2016 121 
C 2016 185 1958 185 1862 185 
C 1478 185 1472 230 1472 293 
C 1472 325 1478 369 1485 401 
L 1894 2023 
z
M 2355 3930 
C 2413 4167 2438 4167 2688 4167 
L 3322 4167 
C 3802 4167 4198 4013 4198 3535 
C 4198 3369 4115 2827 3821 2534 
C 3712 2419 3405 2176 2822 2176 
L 1920 2176 
L 2355 3930 
z
" transform="scale(0.015625)"/>
       <path id="CMR17-29" d="M 1683 1581 
C 1683 2040 1638 2817 1254 3639 
C 947 4303 422 4768 346 4768 
C 326 4768 301 4761 301 4729 
C 301 4717 307 4710 314 4697 
C 621 4378 1402 3568 1402 1584 
C 1402 -407 627 -1217 314 -1537 
C 307 -1549 301 -1556 301 -1568 
C 301 -1600 326 -1600 346 -1600 
C 416 -1600 960 -1128 1274 -426 
C 1594 281 1683 969 1683 1581 
z
" transform="scale(0.015625)"/>
       <path id="CMMI12-3d" d="M 2746 4562 
C 2746 4569 2784 4666 2784 4678 
C 2784 4755 2720 4800 2669 4800 
C 2637 4800 2579 4800 2528 4659 
L 384 -1363 
C 384 -1370 346 -1465 346 -1478 
C 346 -1555 410 -1600 461 -1600 
C 499 -1600 557 -1593 602 -1459 
L 2746 4562 
z
" transform="scale(0.015625)"/>
      </defs>
      <use xlink:href="#CMR17-64" transform="scale(0.996264)"/>
      <use xlink:href="#CMR17-28" transform="translate(50.89537 0) scale(0.996264)"/>
      <use xlink:href="#CMR17-6c" transform="translate(86.176138 0) scale(0.996264)"/>
      <use xlink:href="#CMR17-6f" transform="translate(111.047196 0) scale(0.996264)"/>
      <use xlink:href="#CMR17-67" transform="translate(156.737673 0) scale(0.996264)"/>
      <use xlink:href="#CMMI12-50" transform="translate(220.333722 0) scale(0.996264)"/>
      <use xlink:href="#CMR17-29" transform="translate(296.759542 0) scale(0.996264)"/>
      <use xlink:href="#CMMI12-3d" transform="translate(332.04031 0) scale(0.996264)"/>
      <use xlink:href="#CMR17-64" transform="translate(380.815229 0) scale(0.996264)"/>
      <use xlink:href="#CMR17-28" transform="translate(431.710599 0) scale(0.996264)"/>
      <use xlink:href="#CMR17-6c" transform="translate(466.991367 0) scale(0.996264)"/>
      <use xlink:href="#CMR17-6f" transform="translate(491.862425 0) scale(0.996264)"/>
      <use xlink:href="#CMR17-67" transform="translate(537.552902 0) scale(0.996264)"/>
      <use xlink:href="#CMMI12-6b" transform="translate(601.148951 0) scale(0.996264)"/>
      <use xlink:href="#CMR17-29" transform="translate(655.228151 0) scale(0.996264)"/>
     </g>
    </g>
   </g>
   <g id="line2d_55">
    <path d="M 37.392719 43.012659 
L 85.615319 55.428573 
L 117.378734 76.554152 
L 141.103141 98.147664 
L 160.046715 120.912585 
L 175.816837 139.502236 
L 189.325742 164.678801 
L 201.141304 191.968525 
L 211.641148 199.091642 
L 221.089156 195.979963 
L 229.67701 195.366275 
L 237.548342 183.806327 
L 244.813564 160.130835 
L 251.559383 165.37999 
L 257.855135 169.141166 
L 263.757137 162.504861 
L 269.311757 163.654705 
L 274.557623 150.552739 
L 279.527259 143.896219 
L 284.248308 146.765062 
L 288.744457 171.491666 
L 293.036164 171.918841 
L 297.141215 158.945216 
L 301.075171 159.640497 
L 304.851727 152.672958 
L 308.482993 160.645314 
L 311.979737 160.404049 
L 315.351571 156.762788 
L 318.60711 154.338702 
L 324.799579 151.453558 
L 327.749859 157.482742 
L 330.610724 169.152005 
L 333.387432 168.893776 
L 336.084796 164.826113 
L 338.707223 147.88396 
L 341.258764 153.820915 
L 343.743152 165.191513 
L 346.163831 164.302906 
L 348.523986 168.418264 
L 350.826571 147.933484 
L 353.074327 154.055813 
L 355.269805 164.873111 
L 357.415381 157.820603 
L 359.513274 161.604036 
L 361.565557 161.841504 
L 363.574171 139.214036 
L 365.540936 131.067077 
L 367.46756 157.075279 
L 369.355648 158.133055 
L 371.206714 161.256124 
L 373.022179 150.723398 
L 374.803388 146.881329 
L 376.55161 162.795539 
L 378.268045 142.042516 
L 379.953827 147.57408 
L 381.610033 165.526392 
L 383.237681 157.28591 
L 384.837742 170.702032 
L 386.411133 199.785942 
L 387.95873 192.872866 
L 389.481364 178.378617 
L 390.979829 172.228201 
L 392.454879 148.133171 
L 393.907236 164.511712 
L 395.337586 164.06234 
L 396.746586 145.406852 
L 398.134866 154.231134 
L 399.503024 155.460401 
L 400.851637 152.398862 
L 402.181255 142.812289 
L 403.492405 135.077074 
L 404.785594 152.652769 
L 406.061306 141.830135 
L 407.320009 103.981459 
L 408.562149 110.24955 
L 409.788157 126.883198 
L 410.998447 157.825169 
L 412.193416 166.241215 
L 413.373447 127.930136 
L 414.53891 133.667224 
L 415.69016 161.716616 
L 416.827539 155.062822 
L 417.951377 158.720126 
L 419.061993 178.180274 
L 420.159695 180.741615 
L 421.244779 182.122312 
L 422.317533 168.440544 
L 423.378233 169.086069 
L 424.427147 175.356365 
L 425.464534 146.89686 
L 426.490645 140.36403 
L 427.505723 130.931824 
L 428.510001 155.634127 
L 429.503708 191.284545 
L 430.487064 162.509121 
L 431.460282 151.449416 
L 432.423569 169.292173 
L 433.377125 151.015062 
L 434.321146 139.308731 
L 435.25582 155.868733 
L 436.18133 150.297387 
L 437.097855 151.251053 
L 438.005567 145.324538 
L 438.904633 137.319072 
L 439.795218 171.91039 
L 440.67748 184.588697 
L 441.551572 169.078359 
L 442.417645 148.220921 
L 443.275844 134.490601 
L 444.126312 166.264777 
L 444.969187 192.688117 
L 446.632689 144.674875 
L 447.453575 154.658686 
L 448.267384 167.473519 
L 449.074237 162.212746 
L 449.874253 128.143791 
L 451.454228 197.145785 
L 452.234409 166.975892 
L 453.008194 147.470783 
L 453.775688 146.904702 
L 454.536993 161.164512 
L 455.292208 158.107024 
L 456.041428 159.255071 
L 457.522263 119.297917 
L 458.25406 162.711098 
L 458.980227 170.58292 
L 459.700851 146.406526 
L 460.416016 159.131052 
L 461.125804 174.835921 
L 461.830294 138.635391 
L 462.529566 144.461953 
L 463.223696 166.997096 
L 463.91276 134.558684 
L 464.59683 164.173028 
L 465.275979 164.088948 
L 465.950277 144.506583 
L 466.619793 139.870364 
L 467.284593 139.269384 
L 467.944745 183.225982 
L 468.600312 178.094906 
L 469.251358 140.898699 
L 469.897945 117.399442 
L 470.540133 139.498415 
L 471.177982 180.34473 
L 471.81155 176.47913 
L 472.440894 150.173881 
L 473.066071 153.744263 
L 473.687134 206.582704 
L 474.917136 159.604241 
L 475.526179 188.810299 
L 476.131317 188.679654 
L 476.732601 175.50136 
L 477.33008 147.611011 
L 477.923801 156.576931 
L 478.513811 186.986585 
L 479.100156 198.46217 
L 480.262033 128.752402 
L 480.837652 158.299293 
L 481.409783 150.820761 
L 481.978467 131.244403 
L 482.543746 127.040124 
L 483.10566 124.576881 
L 483.664249 133.965577 
L 484.219553 114.780874 
L 484.771609 126.214537 
L 485.320455 162.094871 
L 485.866129 153.580506 
L 486.408666 115.936727 
L 486.948104 109.755348 
L 487.484476 121.338444 
L 488.017818 115.648906 
L 488.548164 125.963874 
L 489.075547 109.20098 
L 489.6 82.922537 
L 489.6 82.922537 
" clip-path="url(#p1d72a91f04)" style="fill: none; stroke: #0000ff; stroke-linecap: square"/>
   </g>
   <g id="line2d_56">
    <path d="M 37.392719 42.610637 
L 85.615319 54.977371 
L 117.378734 76.287457 
L 141.103141 98.112467 
L 160.046715 120.417764 
L 175.816837 139.239907 
L 189.325742 164.595613 
L 201.141304 192.645993 
L 211.641148 200.171643 
L 221.089156 195.422377 
L 229.67701 194.300418 
L 237.548342 184.009764 
L 244.813564 159.579286 
L 251.559383 163.266722 
L 257.855135 166.553149 
L 263.757137 160.855338 
L 269.311757 163.294769 
L 274.557623 149.773597 
L 279.527259 145.539814 
L 284.248308 149.694481 
L 288.744457 167.573347 
L 293.036164 168.492568 
L 297.141215 153.202844 
L 301.075171 151.879716 
L 304.851727 148.816771 
L 308.482993 153.360119 
L 311.979737 149.727248 
L 315.351571 147.988628 
L 321.754112 149.243856 
L 324.799579 152.064151 
L 327.749859 155.886033 
L 330.610724 161.687493 
L 333.387432 154.928503 
L 336.084796 157.928443 
L 338.707223 146.479016 
L 341.258764 143.380644 
L 343.743152 160.87513 
L 346.163831 156.285836 
L 348.523986 154.806551 
L 350.826571 144.650048 
L 353.074327 148.109916 
L 355.269805 155.237484 
L 357.415381 156.244116 
L 359.513274 157.84461 
L 361.565557 154.663769 
L 363.574171 140.463227 
L 365.540936 131.66893 
L 367.46756 144.461205 
L 369.355648 137.328253 
L 371.206714 152.083407 
L 373.022179 146.407423 
L 374.803388 129.497871 
L 376.55161 156.068108 
L 378.268045 141.931504 
L 379.953827 136.211494 
L 381.610033 160.016089 
L 383.237681 151.614466 
L 384.837742 151.633704 
L 386.411133 183.299156 
L 387.95873 175.744525 
L 389.481364 160.416066 
L 390.979829 161.174091 
L 392.454879 140.058403 
L 393.907236 138.572868 
L 395.337586 123.420778 
L 396.746586 115.92347 
L 398.134866 135.050224 
L 399.503024 140.857785 
L 400.851637 145.657304 
L 402.181255 136.994801 
L 403.492405 119.985357 
L 404.785594 126.957634 
L 406.061306 119.386524 
L 407.320009 83.784834 
L 408.562149 79.638813 
L 409.788157 81.017558 
L 410.998447 99.493213 
L 412.193416 127.399474 
L 413.373447 131.413619 
L 414.53891 150.753196 
L 415.69016 165.577087 
L 416.827539 150.511559 
L 417.951377 117.612941 
L 419.061993 117.873746 
L 421.244779 142.859205 
L 422.317533 153.86695 
L 423.378233 145.771763 
L 424.427147 135.84507 
L 425.464534 128.195653 
L 426.490645 140.578115 
L 427.505723 138.283927 
L 428.510001 138.413053 
L 429.503708 138.154769 
L 430.487064 125.641453 
L 431.460282 116.743004 
L 432.423569 124.688453 
L 433.377125 136.590173 
L 434.321146 124.738378 
L 435.25582 128.845002 
L 436.18133 129.998377 
L 437.097855 120.760409 
L 438.005567 139.132299 
L 438.904633 135.310866 
L 439.795218 132.672317 
L 440.67748 150.601567 
L 441.551572 140.680929 
L 443.275844 105.353973 
L 444.126312 109.950192 
L 444.969187 139.540554 
L 445.804602 109.469652 
L 446.632689 86.593517 
L 447.453575 122.010586 
L 448.267384 138.237353 
L 449.074237 119.226228 
L 449.874253 94.518643 
L 450.667546 126.425912 
L 451.454228 178.508159 
L 452.234409 165.183186 
L 453.008194 102.112235 
L 453.775688 102.417185 
L 454.536993 134.484667 
L 455.292208 136.069773 
L 456.041428 125.269867 
L 456.784749 100.958198 
L 457.522263 121.233572 
L 458.25406 137.602469 
L 458.980227 114.978069 
L 459.700851 118.136062 
L 460.416016 124.825869 
L 461.125804 124.518118 
L 461.830294 100.06659 
L 462.529566 79.735362 
L 463.223696 89.874014 
L 463.91276 112.797031 
L 464.59683 117.34715 
L 465.275979 111.544921 
L 465.950277 124.491152 
L 466.619793 112.738232 
L 467.284593 91.233429 
L 468.600312 144.399385 
L 469.251358 112.587417 
L 469.897945 62.209655 
L 470.540133 86.685687 
L 471.177982 118.187142 
L 472.440894 62.873971 
L 473.066071 76.66391 
L 473.687134 111.602125 
L 474.304138 110.218032 
L 474.917136 94.00385 
L 475.526179 118.671895 
L 476.131317 119.628037 
L 476.732601 123.947628 
L 477.923801 84.543821 
L 478.513811 115.194653 
L 479.100156 121.62404 
L 479.682882 109.647534 
L 480.262033 106.760849 
L 480.837652 107.676079 
L 481.409783 111.173344 
L 481.978467 113.25813 
L 482.543746 85.835553 
L 483.10566 98.491427 
L 483.664249 71.6523 
L 484.219553 16.491023 
L 484.771609 53.872182 
L 485.320455 100.695805 
L 485.866129 115.439648 
L 486.408666 94.251024 
L 486.948104 90.790304 
L 487.484476 104.557583 
L 488.017818 81.567123 
L 488.548164 78.305142 
L 489.075547 86.531944 
L 489.6 87.82546 
L 489.6 87.82546 
" clip-path="url(#p1d72a91f04)" style="fill: none; stroke: #ff0000; stroke-linecap: square"/>
   </g>
   <g id="line2d_57">
    <defs>
     <path id="ma85ebcb525" d="M 0 4 
C 1.060812 4 2.078319 3.578535 2.828427 2.828427 
C 3.578535 2.078319 4 1.060812 4 0 
C 4 -1.060812 3.578535 -2.078319 2.828427 -2.828427 
C 2.078319 -3.578535 1.060812 -4 0 -4 
C -1.060812 -4 -2.078319 -3.578535 -2.828427 -2.828427 
C -3.578535 -2.078319 -4 -1.060812 -4 0 
C -4 1.060812 -3.578535 2.078319 -2.828427 2.828427 
C -2.078319 3.578535 -1.060812 4 0 4 
z
" style="stroke: #ff0000; stroke-opacity: 0.7"/>
    </defs>
    <g clip-path="url(#p1d72a91f04)">
     <use xlink:href="#ma85ebcb525" x="409.556552" y="80.755725" style="fill: #ff0000; fill-opacity: 0.7; stroke: #ff0000; stroke-opacity: 0.7"/>
    </g>
   </g>
   <g id="line2d_58">
    <path d="M 37.392719 42.402286 
L 85.615319 54.720519 
L 117.378734 76.061322 
L 141.103141 97.955063 
L 160.046715 119.996785 
L 175.816837 138.926529 
L 189.325742 164.268817 
L 201.141304 192.592748 
L 211.641148 200.259566 
L 221.089156 194.520239 
L 229.67701 193.137538 
L 237.548342 183.525241 
L 244.813564 158.667186 
L 251.559383 161.37426 
L 257.855135 164.291298 
L 263.757137 159.087177 
L 269.311757 161.846138 
L 274.557623 148.33826 
L 279.527259 145.405969 
L 284.248308 149.725667 
L 288.744457 163.984971 
L 293.036164 164.92758 
L 297.141215 148.553071 
L 301.075171 146.300587 
L 304.851727 145.594515 
L 308.482993 147.861743 
L 311.979737 142.604308 
L 315.351571 141.92413 
L 318.60711 143.907807 
L 321.754112 145.504269 
L 324.799579 149.455838 
L 327.749859 151.466961 
L 330.610724 154.483101 
L 333.387432 144.844985 
L 336.084796 150.087889 
L 338.707223 142.286447 
L 341.258764 135.296398 
L 343.743152 155.134274 
L 346.163831 150.181954 
L 348.523986 142.775161 
L 350.826571 137.377073 
L 353.074327 141.957389 
L 355.269805 146.927559 
L 357.415381 150.319337 
L 359.513274 150.986311 
L 361.565557 146.302225 
L 363.574171 135.589278 
L 365.540936 128.769269 
L 367.46756 136.601735 
L 369.355648 126.562418 
L 371.206714 142.696052 
L 373.022179 139.676079 
L 374.803388 118.480067 
L 376.55161 144.984599 
L 378.268045 139.572831 
L 379.953827 130.4523 
L 381.610033 149.640236 
L 383.237681 141.937681 
L 384.837742 139.741647 
L 386.411133 169.476916 
L 387.95873 159.759399 
L 389.481364 141.872784 
L 390.979829 144.357505 
L 392.454879 128.724304 
L 393.907236 121.258059 
L 395.337586 103.455254 
L 396.746586 101.179168 
L 398.134866 121.932876 
L 399.503024 129.760989 
L 400.851637 133.337795 
L 402.181255 123.024478 
L 403.492405 109.862744 
L 404.785594 115.387396 
L 406.061306 106.356653 
L 407.320009 74.438152 
L 408.562149 68.294879 
L 409.788157 69.640512 
L 410.998447 83.354474 
L 412.193416 109.746778 
L 413.373447 126.040875 
L 414.53891 149.600335 
L 415.69016 156.159407 
L 416.827539 135.225547 
L 417.951377 95.494114 
L 419.061993 92.723684 
L 420.159695 110.151986 
L 421.244779 122.496094 
L 422.317533 138.685464 
L 423.378233 134.635745 
L 424.427147 121.784969 
L 425.464534 118.011835 
L 426.490645 134.201559 
L 427.505723 128.780511 
L 428.510001 119.9325 
L 430.487064 106.912105 
L 431.460282 101.159488 
L 432.423569 110.531906 
L 433.377125 129.033657 
L 434.321146 113.537988 
L 435.25582 115.040901 
L 436.18133 113.909539 
L 437.097855 100.025103 
L 438.005567 122.906922 
L 438.904633 120.785534 
L 439.795218 112.724092 
L 440.67748 127.293806 
L 441.551572 122.371453 
L 442.417645 108.079715 
L 443.275844 90.133446 
L 444.126312 87.250281 
L 444.969187 116.89822 
L 445.804602 90.463193 
L 446.632689 67.948699 
L 447.453575 110.285967 
L 448.267384 125.102772 
L 449.874253 85.492242 
L 450.667546 106.774181 
L 451.454228 160.165867 
L 452.234409 151.981291 
L 453.008194 87.488403 
L 453.775688 88.237631 
L 454.536993 122.280472 
L 455.292208 127.462788 
L 456.041428 113.556837 
L 456.784749 86.486044 
L 457.522263 109.784964 
L 458.25406 123.877354 
L 458.980227 89.965631 
L 459.700851 93.21461 
L 460.416016 104.343513 
L 461.125804 108.424531 
L 461.830294 89.995486 
L 462.529566 59.597538 
L 463.223696 69.819817 
L 463.91276 104.667344 
L 464.59683 99.639888 
L 465.275979 100.294825 
L 465.950277 119.556971 
L 467.284593 77.104891 
L 467.944745 95.914534 
L 468.600312 125.943318 
L 469.251358 107.957769 
L 469.897945 62.408508 
L 471.177982 102.741403 
L 471.81155 65.064782 
L 472.440894 43.640241 
L 473.066071 61.421466 
L 473.687134 83.73641 
L 474.304138 89.235313 
L 474.917136 75.217882 
L 475.526179 91.459124 
L 476.131317 104.330545 
L 476.732601 114.032629 
L 477.923801 66.223987 
L 478.513811 93.346024 
L 479.100156 98.8278 
L 479.682882 88.883615 
L 480.262033 88.671601 
L 480.837652 90.937601 
L 481.409783 98.091229 
L 481.978467 98.226066 
L 482.543746 72.866796 
L 483.10566 90.259466 
L 483.664249 59.538986 
L 484.219553 8.538273 
L 484.771609 39.134095 
L 485.320455 81.751726 
L 485.866129 110.246576 
L 486.408666 94.325208 
L 486.948104 86.612692 
L 487.484476 98.5124 
L 488.017818 77.434921 
L 488.548164 72.319631 
L 489.075547 82.755907 
L 489.6 85.041621 
L 489.6 85.041621 
" clip-path="url(#p1d72a91f04)" style="fill: none; stroke: #008000; stroke-linecap: square"/>
   </g>
   <g id="line2d_59">
    <defs>
     <path id="m3cb5b51fb0" d="M 0 4 
C 1.060812 4 2.078319 3.578535 2.828427 2.828427 
C 3.578535 2.078319 4 1.060812 4 0 
C 4 -1.060812 3.578535 -2.078319 2.828427 -2.828427 
C 2.078319 -3.578535 1.060812 -4 0 -4 
C -1.060812 -4 -2.078319 -3.578535 -2.828427 -2.828427 
C -3.578535 -2.078319 -4 -1.060812 -4 0 
C -4 1.060812 -3.578535 2.078319 -2.828427 2.828427 
C -2.078319 3.578535 -1.060812 4 0 4 
z
" style="stroke: #008000; stroke-opacity: 0.7"/>
    </defs>
    <g clip-path="url(#p1d72a91f04)">
     <use xlink:href="#m3cb5b51fb0" x="363.624834" y="135.415373" style="fill: #008000; fill-opacity: 0.7; stroke: #008000; stroke-opacity: 0.7"/>
    </g>
   </g>
   <g id="line2d_60">
    <path d="M 37.392719 41.976878 
L 85.615319 54.160296 
L 117.378734 75.45168 
L 141.103141 97.391048 
L 160.046715 118.874501 
L 175.816837 137.988804 
L 189.325742 163.122485 
L 201.141304 191.74894 
L 211.641148 199.551304 
L 221.089156 191.641211 
L 229.67701 189.740953 
L 237.548342 181.473743 
L 244.813564 155.749852 
L 251.559383 156.392163 
L 257.855135 158.450862 
L 263.757137 154.297351 
L 269.311757 157.332432 
L 274.557623 144.126706 
L 279.527259 143.376557 
L 284.248308 147.352436 
L 288.744457 155.148349 
L 293.036164 155.706207 
L 297.141215 137.620548 
L 301.075171 133.881851 
L 304.851727 137.970863 
L 308.482993 135.836129 
L 311.979737 127.732005 
L 315.351571 129.05169 
L 318.60711 133.239273 
L 321.754112 136.691193 
L 324.799579 141.19626 
L 327.749859 140.084175 
L 330.610724 138.659761 
L 333.387432 124.300447 
L 336.084796 131.646942 
L 338.707223 131.184101 
L 341.258764 119.683013 
L 343.743152 142.286354 
L 346.163831 138.12952 
L 348.523986 119.165576 
L 350.826571 120.887246 
L 353.074327 129.05344 
L 355.269805 130.454744 
L 357.415381 135.971636 
L 359.513274 135.410841 
L 361.565557 128.929922 
L 363.574171 122.96498 
L 365.540936 121.390578 
L 367.46756 123.762315 
L 369.355648 111.320599 
L 371.206714 126.041445 
L 373.022179 126.717003 
L 374.803388 101.33771 
L 376.55161 122.928368 
L 378.268045 134.135246 
L 379.953827 122.394506 
L 381.610033 129.354906 
L 383.237681 123.492695 
L 384.837742 122.112698 
L 386.411133 147.273528 
L 387.95873 134.028005 
L 389.481364 112.668412 
L 390.979829 114.974492 
L 392.454879 108.260841 
L 393.907236 96.117916 
L 395.337586 78.804659 
L 396.746586 82.733856 
L 398.134866 103.003286 
L 399.503024 113.982166 
L 400.851637 111.73917 
L 402.181255 98.124116 
L 403.492405 96.321596 
L 404.785594 102.108124 
L 406.061306 89.20502 
L 407.320009 63.638037 
L 408.562149 57.41851 
L 409.788157 63.575848 
L 410.998447 71.762802 
L 412.193416 89.48636 
L 414.53891 142.492446 
L 415.69016 138.598848 
L 416.827539 111.202922 
L 417.951377 70.228292 
L 419.061993 67.746352 
L 420.159695 89.875189 
L 421.244779 99.245742 
L 422.317533 117.482893 
L 423.378233 121.972458 
L 424.427147 108.221396 
L 425.464534 105.874469 
L 426.490645 123.580489 
L 427.505723 112.33593 
L 428.510001 95.675607 
L 429.503708 86.622066 
L 430.487064 86.80274 
L 431.460282 85.603234 
L 432.423569 99.311615 
L 433.377125 121.107003 
L 434.321146 100.150454 
L 435.25582 100.159179 
L 436.18133 94.897914 
L 437.097855 76.18632 
L 438.005567 99.742954 
L 438.904633 99.220606 
L 439.795218 91.437181 
L 440.67748 101.266375 
L 441.551572 102.479847 
L 442.417645 94.372374 
L 443.275844 75.104762 
L 444.126312 66.463375 
L 444.969187 95.156029 
L 446.632689 52.174935 
L 447.453575 99.861916 
L 448.267384 112.223192 
L 449.074237 94.053547 
L 449.874253 78.914422 
L 450.667546 86.909195 
L 451.454228 138.143937 
L 452.234409 134.429292 
L 453.008194 75.556797 
L 453.775688 76.942152 
L 454.536993 111.034822 
L 455.292208 120.081851 
L 456.041428 103.647377 
L 456.784749 73.991176 
L 457.522263 95.803979 
L 458.25406 109.607884 
L 458.980227 66.181884 
L 459.700851 66.991331 
L 460.416016 84.517743 
L 461.125804 95.093064 
L 461.830294 83.017132 
L 462.529566 45.116889 
L 463.223696 56.134599 
L 463.91276 97.402494 
L 464.59683 84.251387 
L 465.275979 93.41862 
L 465.950277 115.923286 
L 466.619793 87.673334 
L 467.284593 66.793049 
L 467.944745 79.709581 
L 468.600312 108.786607 
L 469.251358 106.325423 
L 469.897945 69.188668 
L 471.177982 91.619042 
L 471.81155 48.090467 
L 472.440894 30.914957 
L 473.066071 52.004457 
L 474.304138 73.43024 
L 474.917136 60.693229 
L 475.526179 67.976544 
L 476.131317 93.779837 
L 476.732601 107.782328 
L 477.33008 84.07773 
L 477.923801 53.839232 
L 478.513811 75.921848 
L 479.100156 80.145081 
L 479.682882 70.461073 
L 480.262033 71.010808 
L 480.837652 77.200298 
L 481.409783 87.626765 
L 481.978467 83.934574 
L 482.543746 62.773223 
L 483.10566 83.719984 
L 483.664249 50.825064 
L 484.219553 7.98643 
L 484.771609 29.643533 
L 485.866129 107.732622 
L 486.948104 83.628089 
L 487.484476 94.107937 
L 488.017818 77.058506 
L 488.548164 70.351853 
L 489.075547 80.61093 
L 489.6 82.079658 
L 489.6 82.079658 
" clip-path="url(#p1d72a91f04)" style="fill: none; stroke: #ffa500; stroke-linecap: square"/>
   </g>
   <g id="line2d_61">
    <defs>
     <path id="m75af2f45f1" d="M 0 4 
C 1.060812 4 2.078319 3.578535 2.828427 2.828427 
C 3.578535 2.078319 4 1.060812 4 0 
C 4 -1.060812 3.578535 -2.078319 2.828427 -2.828427 
C 2.078319 -3.578535 1.060812 -4 0 -4 
C -1.060812 -4 -2.078319 -3.578535 -2.828427 -2.828427 
C -3.578535 -2.078319 -4 -1.060812 -4 0 
C -4 1.060812 -3.578535 2.078319 -2.828427 2.828427 
C -2.078319 3.578535 -1.060812 4 0 4 
z
" style="stroke: #ffa500; stroke-opacity: 0.7"/>
    </defs>
    <g clip-path="url(#p1d72a91f04)">
     <use xlink:href="#m75af2f45f1" x="305.757714" y="137.445918" style="fill: #ffa500; fill-opacity: 0.7; stroke: #ffa500; stroke-opacity: 0.7"/>
    </g>
   </g>
   <g id="line2d_62">
    <path d="M 37.392719 40.902909 
L 85.615319 52.61012 
L 117.378734 73.311446 
L 141.103141 94.927441 
L 160.046715 115.057739 
L 175.816837 134.378992 
L 189.325742 158.320502 
L 201.141304 186.415443 
L 211.641148 193.807139 
L 221.089156 180.648876 
L 229.67701 177.599168 
L 237.548342 172.265029 
L 244.813564 144.953449 
L 251.559383 141.306123 
L 257.855135 141.481939 
L 263.757137 140.008321 
L 269.311757 143.362172 
L 274.557623 131.650928 
L 279.527259 132.85673 
L 284.248308 134.701942 
L 288.744457 133.283977 
L 293.036164 132.258243 
L 297.141215 113.176902 
L 301.075171 107.985308 
L 304.851727 121.274424 
L 308.482993 112.188518 
L 311.979737 99.746715 
L 315.351571 104.567656 
L 318.60711 112.17388 
L 321.754112 118.797073 
L 324.799579 120.558876 
L 327.749859 116.70975 
L 330.610724 110.02926 
L 333.387432 90.613354 
L 336.084796 99.030481 
L 338.707223 109.056198 
L 341.258764 97.549178 
L 343.743152 120.993856 
L 346.163831 119.355315 
L 348.523986 85.211269 
L 350.826571 93.903456 
L 353.074327 107.870099 
L 355.269805 105.129088 
L 357.415381 111.037689 
L 359.513274 109.773404 
L 361.565557 103.753644 
L 363.574171 102.18125 
L 365.540936 109.058485 
L 367.46756 108.989338 
L 369.355648 98.644739 
L 371.206714 106.836509 
L 373.022179 109.567465 
L 374.803388 84.040103 
L 376.55161 93.14276 
L 378.268045 125.070591 
L 379.953827 115.149868 
L 381.610033 102.641987 
L 383.237681 99.762524 
L 384.837742 105.5156 
L 386.411133 124.477721 
L 387.95873 107.929863 
L 389.481364 85.413413 
L 390.979829 82.684571 
L 392.454879 82.978526 
L 395.337586 61.519749 
L 396.746586 69.492875 
L 399.503024 100.279059 
L 400.851637 87.307109 
L 402.181255 69.368287 
L 403.492405 86.0384 
L 404.785594 93.507731 
L 407.320009 56.281628 
L 408.562149 52.402199 
L 409.788157 68.043923 
L 410.998447 71.902141 
L 412.193416 74.934955 
L 414.53891 127.708286 
L 415.69016 115.093415 
L 416.827539 85.546857 
L 417.951377 52.909472 
L 419.061993 56.482158 
L 420.159695 80.744775 
L 421.244779 82.864693 
L 423.378233 113.428444 
L 424.427147 101.110928 
L 425.464534 95.823154 
L 426.490645 110.061712 
L 428.510001 73.68049 
L 429.503708 67.884488 
L 430.487064 73.666811 
L 431.460282 77.436859 
L 433.377125 114.879652 
L 434.321146 87.997382 
L 435.25582 88.148335 
L 436.18133 79.048586 
L 437.097855 56.872765 
L 438.005567 76.769317 
L 438.904633 78.25155 
L 439.795218 76.951604 
L 440.67748 84.06439 
L 441.551572 89.683083 
L 442.417645 85.372004 
L 443.275844 66.371688 
L 444.126312 55.056646 
L 444.969187 80.206536 
L 445.804602 65.535579 
L 446.632689 44.759331 
L 447.453575 93.95679 
L 448.267384 103.10474 
L 449.074237 85.586781 
L 449.874253 75.573274 
L 450.667546 72.381514 
L 451.454228 115.447825 
L 452.234409 115.848088 
L 453.008194 67.940667 
L 453.775688 69.506483 
L 454.536993 103.881708 
L 455.292208 117.04398 
L 456.041428 98.434248 
L 456.784749 67.064703 
L 457.522263 83.565199 
L 458.25406 96.783923 
L 458.980227 48.686024 
L 459.700851 46.536286 
L 460.416016 72.128401 
L 461.125804 87.182532 
L 461.830294 80.932625 
L 462.529566 44.193879 
L 463.223696 53.396811 
L 463.91276 92.833803 
L 464.59683 75.598465 
L 465.275979 91.089359 
L 465.950277 112.963757 
L 466.619793 81.619004 
L 467.284593 65.086468 
L 467.944745 71.307282 
L 468.600312 97.63143 
L 469.251358 109.36949 
L 469.897945 81.200158 
L 470.540133 83.300879 
L 471.177982 88.562663 
L 471.81155 42.947956 
L 472.440894 26.270459 
L 473.066071 50.557565 
L 473.687134 52.574023 
L 474.304138 66.220472 
L 474.917136 54.909905 
L 475.526179 54.069577 
L 476.131317 88.997622 
L 476.732601 106.018421 
L 477.33008 83.565664 
L 477.923801 51.208345 
L 478.513811 66.447601 
L 479.100156 67.700178 
L 479.682882 56.586142 
L 480.262033 57.540176 
L 481.409783 82.236794 
L 481.978467 74.520816 
L 482.543746 58.177149 
L 483.10566 80.028132 
L 484.219553 13.411366 
L 484.771609 27.134524 
L 485.320455 56.361261 
L 485.866129 106.413778 
L 486.408666 96.411003 
L 486.948104 81.328709 
L 487.484476 93.395219 
L 488.548164 72.813204 
L 489.075547 78.771382 
L 489.6 78.668174 
L 489.6 78.668174 
" clip-path="url(#p1d72a91f04)" style="fill: none; stroke: #800080; stroke-linecap: square"/>
   </g>
   <g id="line2d_63">
    <defs>
     <path id="m9c66b55678" d="M 0 4 
C 1.060812 4 2.078319 3.578535 2.828427 2.828427 
C 3.578535 2.078319 4 1.060812 4 0 
C 4 -1.060812 3.578535 -2.078319 2.828427 -2.828427 
C 2.078319 -3.578535 1.060812 -4 0 -4 
C -1.060812 -4 -2.078319 -3.578535 -2.828427 -2.828427 
C -3.578535 -2.078319 -4 -1.060812 -4 0 
C -4 1.060812 -3.578535 2.078319 -2.828427 2.828427 
C -2.078319 3.578535 -1.060812 4 0 4 
z
" style="stroke: #800080; stroke-opacity: 0.7"/>
    </defs>
    <g clip-path="url(#p1d72a91f04)">
     <use xlink:href="#m9c66b55678" x="227.236925" y="178.494084" style="fill: #800080; fill-opacity: 0.7; stroke: #800080; stroke-opacity: 0.7"/>
    </g>
   </g>
   <g id="line2d_64">
    <path d="M 37.392719 38.90603 
L 85.615319 49.500579 
L 117.378734 68.370674 
L 141.103141 88.528309 
L 160.046715 106.679638 
L 175.816837 125.444633 
L 189.325742 146.586258 
L 201.141304 171.620495 
L 211.641148 177.216573 
L 221.089156 157.488423 
L 229.67701 153.255175 
L 237.548342 152.935095 
L 244.813564 125.834824 
L 251.559383 117.698873 
L 257.855135 116.253884 
L 263.757137 118.462583 
L 269.311757 123.072217 
L 274.557623 114.944384 
L 279.527259 115.39686 
L 284.248308 114.199058 
L 288.744457 108.912753 
L 293.036164 107.0148 
L 297.141215 91.856775 
L 301.075171 88.084247 
L 304.851727 108.068141 
L 308.482993 94.201068 
L 311.979737 79.212919 
L 315.351571 86.826883 
L 321.754112 104.504168 
L 327.749859 97.506114 
L 330.610724 89.523162 
L 333.387432 71.736582 
L 336.084796 81.313621 
L 338.707223 93.227059 
L 341.258764 87.232163 
L 343.743152 107.483724 
L 346.163831 107.063734 
L 348.523986 67.871352 
L 350.826571 76.766778 
L 353.074327 93.766252 
L 355.269805 89.36603 
L 357.415381 93.740416 
L 359.513274 93.563926 
L 361.565557 91.303376 
L 363.574171 90.213866 
L 365.540936 101.219888 
L 367.46756 102.178446 
L 369.355648 95.082815 
L 371.206714 98.075035 
L 373.022179 100.174885 
L 374.803388 79.076584 
L 376.55161 77.73902 
L 378.268045 116.865704 
L 379.953827 112.049768 
L 381.610033 88.32581 
L 383.237681 87.598126 
L 384.837742 100.140633 
L 386.411133 115.833423 
L 387.95873 98.264696 
L 389.481364 76.504257 
L 390.979829 68.62123 
L 392.454879 70.356441 
L 393.907236 65.00999 
L 395.337586 60.83633 
L 396.746586 68.49796 
L 398.134866 78.849916 
L 399.503024 97.14874 
L 402.181255 55.812125 
L 403.492405 84.417093 
L 404.785594 91.474615 
L 406.061306 70.264174 
L 407.320009 54.60886 
L 408.562149 51.676445 
L 409.788157 74.678289 
L 410.998447 77.482135 
L 412.193416 70.932397 
L 413.373447 93.894717 
L 414.53891 112.356906 
L 415.69016 96.448795 
L 416.827539 70.766729 
L 417.951377 49.483012 
L 419.061993 61.366416 
L 420.159695 82.363493 
L 421.244779 78.031897 
L 422.317533 94.039578 
L 423.378233 112.080913 
L 424.427147 98.708161 
L 425.464534 89.604588 
L 426.490645 97.184998 
L 427.505723 79.429116 
L 428.510001 64.322926 
L 429.503708 58.678662 
L 430.487064 69.070202 
L 431.460282 77.494508 
L 432.423569 95.275418 
L 433.377125 108.154364 
L 434.321146 77.694376 
L 435.25582 80.545915 
L 436.18133 71.54219 
L 437.097855 46.561233 
L 438.005567 63.968712 
L 438.904633 68.848943 
L 439.795218 72.640919 
L 440.67748 85.145421 
L 441.551572 90.599461 
L 442.417645 81.377788 
L 443.275844 65.487501 
L 444.126312 51.991825 
L 444.969187 71.279759 
L 445.804602 64.654607 
L 446.632689 46.898188 
L 447.453575 92.444349 
L 448.267384 98.62641 
L 449.074237 76.817585 
L 449.874253 72.414279 
L 450.667546 66.143515 
L 451.454228 95.131016 
L 452.234409 101.0146 
L 453.008194 59.050771 
L 453.775688 58.588017 
L 454.536993 98.889393 
L 455.292208 118.722856 
L 456.041428 99.163078 
L 456.784749 66.107317 
L 458.25406 84.142289 
L 458.980227 38.841315 
L 459.700851 37.503519 
L 460.416016 72.346543 
L 461.125804 84.050026 
L 461.830294 80.466773 
L 462.529566 56.552414 
L 463.223696 59.318589 
L 463.91276 92.678572 
L 464.59683 76.994173 
L 465.275979 90.303924 
L 465.950277 107.347929 
L 466.619793 82.823786 
L 467.284593 73.139424 
L 467.944745 70.815923 
L 468.600312 95.778267 
L 469.251358 114.867441 
L 469.897945 90.577605 
L 470.540133 83.196563 
L 471.177982 91.054335 
L 471.81155 47.59059 
L 472.440894 26.703412 
L 473.066071 54.574655 
L 473.687134 50.937874 
L 474.304138 64.830442 
L 475.526179 52.889327 
L 476.131317 87.139212 
L 476.732601 105.820187 
L 477.33008 88.595952 
L 477.923801 56.780151 
L 478.513811 66.642582 
L 479.100156 61.529501 
L 479.682882 47.710903 
L 480.262033 51.945854 
L 481.409783 81.845769 
L 482.543746 59.553519 
L 483.10566 78.862299 
L 483.664249 41.944026 
L 484.219553 20.082331 
L 484.771609 30.267167 
L 485.320455 51.358592 
L 485.866129 103.046646 
L 486.408666 93.505599 
L 486.948104 77.351961 
L 487.484476 95.697445 
L 488.017818 94.130032 
L 488.548164 75.866106 
L 489.075547 73.680946 
L 489.6 72.983342 
L 489.6 72.983342 
" clip-path="url(#p1d72a91f04)" style="fill: none; stroke: #1f77b4; stroke-linecap: square"/>
   </g>
   <g id="line2d_65">
    <defs>
     <path id="m7fb16ac67e" d="M 0 4 
C 1.060812 4 2.078319 3.578535 2.828427 2.828427 
C 3.578535 2.078319 4 1.060812 4 0 
C 4 -1.060812 3.578535 -2.078319 2.828427 -2.828427 
C 2.078319 -3.578535 1.060812 -4 0 -4 
C -1.060812 -4 -2.078319 -3.578535 -2.828427 -2.828427 
C -3.578535 -2.078319 -4 -1.060812 -4 0 
C -4 1.060812 -3.578535 2.078319 -2.828427 2.828427 
C -2.078319 3.578535 -1.060812 4 0 4 
z
" style="stroke: #ff7f0e; stroke-opacity: 0.7"/>
    </defs>
    <g clip-path="url(#p1d72a91f04)">
     <use xlink:href="#m7fb16ac67e" x="148.716135" y="95.38837" style="fill: #ff7f0e; fill-opacity: 0.7; stroke: #ff7f0e; stroke-opacity: 0.7"/>
    </g>
   </g>
   <g id="line2d_66">
    <path d="M 37.392719 35.785705 
L 85.615319 44.534358 
L 117.378734 60.414784 
L 141.103141 78.030918 
L 160.046715 94.038789 
L 175.816837 110.734993 
L 189.325742 128.27288 
L 201.141304 149.209488 
L 211.641148 152.89736 
L 221.089156 128.785814 
L 229.67701 125.655532 
L 237.548342 132.935836 
L 244.813564 110.241717 
L 251.559383 99.390412 
L 257.855135 95.992554 
L 263.757137 99.866122 
L 269.311757 106.70262 
L 274.557623 103.429241 
L 279.527259 102.446849 
L 284.248308 98.216633 
L 288.744457 94.351129 
L 293.036164 93.318631 
L 297.141215 82.483769 
L 301.075171 82.413396 
L 304.851727 104.49041 
L 311.979737 71.873548 
L 315.351571 82.176023 
L 321.754112 97.587863 
L 324.799579 90.091536 
L 327.749859 86.455309 
L 330.610724 80.426329 
L 333.387432 67.087009 
L 336.084796 78.416899 
L 338.707223 87.416353 
L 341.258764 85.249064 
L 343.743152 100.829718 
L 346.163831 101.640756 
L 348.523986 63.816238 
L 350.826571 68.670699 
L 353.074327 86.815282 
L 355.269805 80.123475 
L 357.415381 82.238203 
L 359.513274 86.030432 
L 361.565557 87.933223 
L 363.574171 86.175093 
L 365.540936 96.759371 
L 367.46756 96.668402 
L 369.355648 90.458471 
L 371.206714 92.507186 
L 373.022179 94.333872 
L 374.803388 77.962385 
L 376.55161 67.91823 
L 378.268045 106.487953 
L 379.953827 108.172856 
L 381.610033 82.132503 
L 383.237681 84.572319 
L 384.837742 96.022579 
L 386.411133 108.761071 
L 387.95873 93.353408 
L 389.481364 71.867501 
L 390.979829 62.147 
L 392.454879 69.354622 
L 393.907236 67.315512 
L 395.337586 60.883311 
L 396.746586 68.799091 
L 398.134866 78.586897 
L 399.503024 99.693266 
L 400.851637 74.811535 
L 402.181255 52.462094 
L 403.492405 83.494481 
L 404.785594 88.111822 
L 406.061306 69.225052 
L 407.320009 53.773865 
L 408.562149 53.147543 
L 409.788157 78.722743 
L 410.998447 81.409452 
L 412.193416 71.833533 
L 414.53891 109.384934 
L 415.69016 90.108137 
L 416.827539 65.275969 
L 417.951377 54.759584 
L 419.061993 73.50946 
L 420.159695 84.358376 
L 421.244779 76.374455 
L 422.317533 94.191032 
L 423.378233 108.986474 
L 424.427147 99.34462 
L 425.464534 83.608477 
L 426.490645 84.960268 
L 427.505723 75.58128 
L 428.510001 61.810023 
L 429.503708 51.844255 
L 430.487064 59.436707 
L 431.460282 71.462438 
L 432.423569 91.947811 
L 433.377125 95.319852 
L 434.321146 61.537819 
L 435.25582 76.199312 
L 436.18133 67.988412 
L 437.097855 40.113632 
L 438.005567 61.172843 
L 438.904633 60.153853 
L 439.795218 66.618335 
L 440.67748 93.346291 
L 441.551572 97.066978 
L 444.126312 46.106925 
L 444.969187 66.104709 
L 445.804602 71.429435 
L 446.632689 55.394566 
L 447.453575 91.120846 
L 448.267384 98.111579 
L 449.074237 75.936634 
L 449.874253 74.236083 
L 450.667546 68.45909 
L 451.454228 84.348008 
L 452.234409 91.668262 
L 453.008194 47.997236 
L 453.775688 43.776393 
L 454.536993 88.29166 
L 455.292208 119.008764 
L 456.041428 109.253202 
L 456.784749 69.701603 
L 457.522263 62.650162 
L 458.25406 70.297056 
L 458.980227 42.649137 
L 459.700851 41.368608 
L 460.416016 75.64582 
L 461.125804 87.549501 
L 461.830294 80.4687 
L 462.529566 64.167657 
L 463.223696 68.392874 
L 463.91276 96.974813 
L 464.59683 81.190889 
L 465.275979 84.2071 
L 465.950277 92.496348 
L 466.619793 78.651374 
L 467.284593 77.007826 
L 467.944745 72.432997 
L 468.600312 93.337019 
L 469.251358 105.957642 
L 469.897945 79.829115 
L 470.540133 70.874108 
L 471.177982 78.800994 
L 471.81155 41.293972 
L 472.440894 28.345534 
L 473.066071 55.466953 
L 473.687134 45.354637 
L 474.304138 58.949455 
L 474.917136 67.279213 
L 475.526179 59.915655 
L 476.131317 83.77763 
L 476.732601 99.998668 
L 477.33008 81.716138 
L 477.923801 56.416374 
L 478.513811 69.21146 
L 479.100156 57.835018 
L 479.682882 41.735596 
L 480.262033 53.093724 
L 480.837652 68.616848 
L 481.409783 80.056326 
L 481.978467 66.801606 
L 482.543746 58.223585 
L 483.10566 69.087959 
L 483.664249 37.642533 
L 484.219553 31.312549 
L 484.771609 31.853534 
L 485.320455 51.126522 
L 485.866129 106.74346 
L 486.408666 97.247578 
L 486.948104 76.451439 
L 487.484476 96.846222 
L 488.017818 102.240178 
L 488.548164 78.199963 
L 489.075547 72.425921 
L 489.6 72.913861 
L 489.6 72.913861 
" clip-path="url(#p1d72a91f04)" style="fill: none; stroke: #2ca02c; stroke-linecap: square"/>
   </g>
   <g id="line2d_67">
    <defs>
     <path id="m613b7b107f" d="M 0 4 
C 1.060812 4 2.078319 3.578535 2.828427 2.828427 
C 3.578535 2.078319 4 1.060812 4 0 
C 4 -1.060812 3.578535 -2.078319 2.828427 -2.828427 
C 2.078319 -3.578535 1.060812 -4 0 -4 
C -1.060812 -4 -2.078319 -3.578535 -2.828427 -2.828427 
C -3.578535 -2.078319 -4 -1.060812 -4 0 
C -4 1.060812 -3.578535 2.078319 -2.828427 2.828427 
C -2.078319 3.578535 -1.060812 4 0 4 
z
" style="stroke: #d62728; stroke-opacity: 0.7"/>
    </defs>
    <g clip-path="url(#p1d72a91f04)">
     <use xlink:href="#m613b7b107f" x="70.195346" y="41.238263" style="fill: #d62728; fill-opacity: 0.7; stroke: #d62728; stroke-opacity: 0.7"/>
    </g>
   </g>
   <g id="line2d_68">
    <path d="M 37.392719 155.938325 
L 489.6 155.938325 
" clip-path="url(#p1d72a91f04)" style="fill: none; stroke-dasharray: 3.7,1.6; stroke-dashoffset: 0; stroke: #000000"/>
   </g>
   <g id="patch_3">
    <path d="M 37.392719 248.388647 
L 37.392719 10.659249 
" style="fill: none; stroke: #000000; stroke-linejoin: miter; stroke-linecap: square"/>
   </g>
   <g id="patch_4">
    <path d="M 489.6 248.388647 
L 489.6 10.659249 
" style="fill: none; stroke: #000000; stroke-linejoin: miter; stroke-linecap: square"/>
   </g>
   <g id="patch_5">
    <path d="M 37.392719 248.388647 
L 489.6 248.388647 
" style="fill: none; stroke: #000000; stroke-linejoin: miter; stroke-linecap: square"/>
   </g>
   <g id="patch_6">
    <path d="M 37.392719 10.659249 
L 489.6 10.659249 
" style="fill: none; stroke: #000000; stroke-linejoin: miter; stroke-linecap: square"/>
   </g>
   <g id="legend_1">
    <g id="line2d_69">
     <path d="M 46.392719 136.39122 
L 56.392719 136.39122 
L 66.392719 136.39122 
" style="fill: none; stroke: #0000ff; stroke-linecap: square"/>
    </g>
    <g id="text_12">
     <!-- $\eta=0$ -->
     <g transform="translate(74.392719 139.89122) scale(0.1 -0.1)">
      <defs>
       <path id="CMMI12-11" d="M 3040 1768 
C 3072 1895 3091 1973 3091 2145 
C 3091 2528 2867 2815 2381 2815 
C 1811 2815 1510 2413 1395 2254 
C 1376 2618 1114 2815 832 2815 
C 646 2815 499 2726 378 2483 
C 262 2254 173 1864 173 1839 
C 173 1813 198 1781 243 1781 
C 294 1781 301 1788 339 1934 
C 435 2311 557 2688 813 2688 
C 960 2688 1011 2586 1011 2394 
C 1011 2254 947 2005 902 1807 
L 723 1118 
C 698 996 627 709 595 593 
C 550 428 480 127 480 96 
C 480 6 550 -64 646 -64 
C 723 -64 813 -25 864 70 
C 877 102 934 326 966 453 
L 1107 1028 
L 1318 1871 
C 1331 1909 1491 2228 1728 2432 
C 1894 2586 2112 2688 2362 2688 
C 2618 2688 2707 2496 2707 2241 
C 2707 2055 2682 1953 2650 1831 
L 1907 -1107 
C 1901 -1139 1888 -1177 1888 -1216 
C 1888 -1312 1965 -1376 2061 -1376 
C 2118 -1376 2253 -1350 2304 -1158 
L 3040 1768 
z
" transform="scale(0.015625)"/>
       <path id="CMR17-3d" d="M 4115 2017 
C 4211 2017 4307 2017 4307 2125 
C 4307 2240 4198 2240 4090 2240 
L 512 2240 
C 403 2240 294 2240 294 2125 
C 294 2017 390 2017 486 2017 
L 4115 2017 
z
M 4090 896 
C 4198 896 4307 896 4307 1011 
C 4307 1119 4211 1119 4115 1119 
L 486 1119 
C 390 1119 294 1119 294 1011 
C 294 896 403 896 512 896 
L 4090 896 
z
" transform="scale(0.015625)"/>
      </defs>
      <use xlink:href="#CMMI12-11" transform="scale(0.996264)"/>
      <use xlink:href="#CMR17-3d" transform="translate(79.377824 0) scale(0.996264)"/>
      <use xlink:href="#CMR17-30" transform="translate(178.766622 0) scale(0.996264)"/>
     </g>
    </g>
    <g id="line2d_70">
     <path d="M 46.392719 150.328398 
L 56.392719 150.328398 
L 66.392719 150.328398 
" style="fill: none; stroke: #ff0000; stroke-linecap: square"/>
    </g>
    <g id="text_13">
     <!-- $\eta=0.02$ -->
     <g transform="translate(74.392719 153.828398) scale(0.1 -0.1)">
      <defs>
       <path id="CMMI12-3a" d="M 1178 307 
C 1178 492 1024 619 870 619 
C 685 619 557 466 557 313 
C 557 128 710 0 864 0 
C 1050 0 1178 153 1178 307 
z
" transform="scale(0.015625)"/>
      </defs>
      <use xlink:href="#CMMI12-11" transform="scale(0.996264)"/>
      <use xlink:href="#CMR17-3d" transform="translate(79.377824 0) scale(0.996264)"/>
      <use xlink:href="#CMR17-30" transform="translate(178.766622 0) scale(0.996264)"/>
      <use xlink:href="#CMMI12-3a" transform="translate(224.457099 0) scale(0.996264)"/>
      <use xlink:href="#CMR17-30" transform="translate(251.554276 0) scale(0.996264)"/>
      <use xlink:href="#CMR17-32" transform="translate(297.244753 0) scale(0.996264)"/>
     </g>
    </g>
    <g id="line2d_71">
     <path d="M 46.392719 164.265577 
L 56.392719 164.265577 
L 66.392719 164.265577 
" style="fill: none; stroke: #008000; stroke-linecap: square"/>
    </g>
    <g id="text_14">
     <!-- $\eta=0.03$ -->
     <g transform="translate(74.392719 167.765577) scale(0.1 -0.1)">
      <use xlink:href="#CMMI12-11" transform="scale(0.996264)"/>
      <use xlink:href="#CMR17-3d" transform="translate(79.377824 0) scale(0.996264)"/>
      <use xlink:href="#CMR17-30" transform="translate(178.766622 0) scale(0.996264)"/>
      <use xlink:href="#CMMI12-3a" transform="translate(224.457099 0) scale(0.996264)"/>
      <use xlink:href="#CMR17-30" transform="translate(251.554276 0) scale(0.996264)"/>
      <use xlink:href="#CMR17-33" transform="translate(297.244753 0) scale(0.996264)"/>
     </g>
    </g>
    <g id="line2d_72">
     <path d="M 46.392719 178.202755 
L 56.392719 178.202755 
L 66.392719 178.202755 
" style="fill: none; stroke: #ffa500; stroke-linecap: square"/>
    </g>
    <g id="text_15">
     <!-- $\eta=0.05$ -->
     <g transform="translate(74.392719 181.702755) scale(0.1 -0.1)">
      <use xlink:href="#CMMI12-11" transform="scale(0.996264)"/>
      <use xlink:href="#CMR17-3d" transform="translate(79.377824 0) scale(0.996264)"/>
      <use xlink:href="#CMR17-30" transform="translate(178.766622 0) scale(0.996264)"/>
      <use xlink:href="#CMMI12-3a" transform="translate(224.457099 0) scale(0.996264)"/>
      <use xlink:href="#CMR17-30" transform="translate(251.554276 0) scale(0.996264)"/>
      <use xlink:href="#CMR17-35" transform="translate(297.244753 0) scale(0.996264)"/>
     </g>
    </g>
    <g id="line2d_73">
     <path d="M 46.392719 192.139933 
L 56.392719 192.139933 
L 66.392719 192.139933 
" style="fill: none; stroke: #800080; stroke-linecap: square"/>
    </g>
    <g id="text_16">
     <!-- $\eta=0.1$ -->
     <g transform="translate(74.392719 195.639933) scale(0.1 -0.1)">
      <use xlink:href="#CMMI12-11" transform="scale(0.996264)"/>
      <use xlink:href="#CMR17-3d" transform="translate(79.377824 0) scale(0.996264)"/>
      <use xlink:href="#CMR17-30" transform="translate(178.766622 0) scale(0.996264)"/>
      <use xlink:href="#CMMI12-3a" transform="translate(224.457099 0) scale(0.996264)"/>
      <use xlink:href="#CMR17-31" transform="translate(251.554276 0) scale(0.996264)"/>
     </g>
    </g>
    <g id="line2d_74">
     <path d="M 46.392719 206.077112 
L 56.392719 206.077112 
L 66.392719 206.077112 
" style="fill: none; stroke: #1f77b4; stroke-linecap: square"/>
    </g>
    <g id="text_17">
     <!-- $\eta=0.2$ -->
     <g transform="translate(74.392719 209.577112) scale(0.1 -0.1)">
      <use xlink:href="#CMMI12-11" transform="scale(0.996264)"/>
      <use xlink:href="#CMR17-3d" transform="translate(79.377824 0) scale(0.996264)"/>
      <use xlink:href="#CMR17-30" transform="translate(178.766622 0) scale(0.996264)"/>
      <use xlink:href="#CMMI12-3a" transform="translate(224.457099 0) scale(0.996264)"/>
      <use xlink:href="#CMR17-32" transform="translate(251.554276 0) scale(0.996264)"/>
     </g>
    </g>
    <g id="line2d_75">
     <path d="M 46.392719 220.01429 
L 56.392719 220.01429 
L 66.392719 220.01429 
" style="fill: none; stroke: #2ca02c; stroke-linecap: square"/>
    </g>
    <g id="text_18">
     <!-- $\eta=0.4$ -->
     <g transform="translate(74.392719 223.51429) scale(0.1 -0.1)">
      <use xlink:href="#CMMI12-11" transform="scale(0.996264)"/>
      <use xlink:href="#CMR17-3d" transform="translate(79.377824 0) scale(0.996264)"/>
      <use xlink:href="#CMR17-30" transform="translate(178.766622 0) scale(0.996264)"/>
      <use xlink:href="#CMMI12-3a" transform="translate(224.457099 0) scale(0.996264)"/>
      <use xlink:href="#CMR17-34" transform="translate(251.554276 0) scale(0.996264)"/>
     </g>
    </g>
    <g id="line2d_76">
     <path d="M 46.392719 233.951468 
L 56.392719 233.951468 
L 66.392719 233.951468 
" style="fill: none; stroke-dasharray: 3.7,1.6; stroke-dashoffset: 0; stroke: #000000"/>
    </g>
    <g id="text_19">
     <!-- $k^{-11/3}$ -->
     <g transform="translate(74.392719 237.451468) scale(0.1 -0.1)">
      <use xlink:href="#CMMI12-6b" transform="scale(0.996264)"/>
      <use xlink:href="#CMSY10-0" transform="translate(54.079201 36.153639) scale(0.697382)"/>
      <use xlink:href="#CMR17-31" transform="translate(108.320194 36.153639) scale(0.697382)"/>
      <use xlink:href="#CMR17-31" transform="translate(140.303376 36.153639) scale(0.697382)"/>
      <use xlink:href="#CMMI12-3d" transform="translate(172.286558 36.153639) scale(0.697382)"/>
      <use xlink:href="#CMR17-33" transform="translate(206.428849 36.153639) scale(0.697382)"/>
     </g>
    </g>
   </g>
  </g>
 </g>
 <defs>
  <clipPath id="p1d72a91f04">
   <rect x="37.392719" y="10.659249" width="452.207281" height="237.729397"/>
  </clipPath>
 </defs>
</svg>
