<?xml version="1.0" encoding="utf-8" standalone="no"?>
<!DOCTYPE svg PUBLIC "-//W3C//DTD SVG 1.1//EN"
  "http://www.w3.org/Graphics/SVG/1.1/DTD/svg11.dtd">
<svg xmlns:xlink="http://www.w3.org/1999/xlink" width="720pt" height="288pt" viewBox="0 0 720 288" xmlns="http://www.w3.org/2000/svg" version="1.1">
 <metadata>
  <rdf:RDF xmlns:dc="http://purl.org/dc/elements/1.1/" xmlns:cc="http://creativecommons.org/ns#" xmlns:rdf="http://www.w3.org/1999/02/22-rdf-syntax-ns#">
   <cc:Work>
    <dc:type rdf:resource="http://purl.org/dc/dcmitype/StillImage"/>
    <dc:date>2026-02-14T21:04:29.352247</dc:date>
    <dc:format>image/svg+xml</dc:format>
    <dc:creator>
     <cc:Agent>
      <dc:title>Matplotlib v3.8.4, https://matplotlib.org/</dc:title>
     </cc:Agent>
    </dc:creator>
   </cc:Work>
  </rdf:RDF>
 </metadata>
 <defs>
  <style type="text/css">*{stroke-linejoin: round; stroke-linecap: butt}</style>
 </defs>
 <g id="figure_1">
  <g id="patch_1">
   <path d="M 0 288 
L 720 288 
L 720 0 
L 0 0 
z
" style="fill: #ffffff"/>
  </g>
  <g id="axes_1">
   <g id="patch_2">
    <path d="M 74.085813 231.381871 
L 351.36 231.381871 
L 351.36 22.814794 
L 74.085813 22.814794 
z
" style="fill: #ffffff"/>
   </g>
   <g id="matplotlib.axis_1">
    <g id="xtick_1">
     <g id="line2d_1">
      <defs>
       <path id="mcd3a51c37d" d="M 0 0 
L 0 3.5 
" style="stroke: #000000; stroke-width: 0.8"/>
      </defs>
      <g>
       <use xlink:href="#mcd3a51c37d" x="166.058774" y="231.381871" style="stroke: #000000; stroke-width: 0.8"/>
      </g>
     </g>
     <g id="text_1">
      <!-- $\mathdefault{10^{1}}$ -->
      <g transform="translate(155.465252 249.451459) scale(0.16 -0.16)">
       <defs>
        <path id="CMR17-31" d="M 1702 4058 
C 1702 4192 1696 4192 1606 4192 
C 1357 3916 979 3827 621 3827 
C 602 3827 570 3827 563 3808 
C 557 3795 557 3782 557 3648 
C 755 3648 1088 3686 1344 3839 
L 1344 461 
C 1344 236 1331 160 781 160 
L 589 160 
L 589 0 
C 896 0 1216 0 1523 0 
C 1830 0 2150 0 2458 0 
L 2458 160 
L 2266 160 
C 1715 160 1702 230 1702 458 
L 1702 4058 
z
" transform="scale(0.015625)"/>
        <path id="CMR17-30" d="M 2688 2025 
C 2688 2416 2682 3080 2413 3591 
C 2176 4039 1798 4198 1466 4198 
C 1158 4198 768 4058 525 3597 
C 269 3118 243 2524 243 2025 
C 243 1661 250 1106 448 619 
C 723 -39 1216 -128 1466 -128 
C 1760 -128 2208 -7 2470 600 
C 2662 1042 2688 1559 2688 2025 
z
M 1466 -26 
C 1056 -26 813 325 723 812 
C 653 1188 653 1738 653 2096 
C 653 2588 653 2997 736 3387 
C 858 3929 1216 4096 1466 4096 
C 1728 4096 2067 3923 2189 3400 
C 2272 3036 2278 2607 2278 2096 
C 2278 1680 2278 1169 2202 792 
C 2067 95 1690 -26 1466 -26 
z
" transform="scale(0.015625)"/>
       </defs>
       <use xlink:href="#CMR17-31" transform="scale(0.996264)"/>
       <use xlink:href="#CMR17-30" transform="translate(45.690477 0) scale(0.996264)"/>
       <use xlink:href="#CMR17-31" transform="translate(91.380954 36.153639) scale(0.697382)"/>
      </g>
     </g>
    </g>
    <g id="xtick_2">
     <g id="line2d_2">
      <g>
       <use xlink:href="#mcd3a51c37d" x="297.642333" y="231.381871" style="stroke: #000000; stroke-width: 0.8"/>
      </g>
     </g>
     <g id="text_2">
      <!-- $\mathdefault{10^{2}}$ -->
      <g transform="translate(287.048811 249.451459) scale(0.16 -0.16)">
       <defs>
        <path id="CMR17-32" d="M 2669 989 
L 2554 989 
C 2490 536 2438 459 2413 420 
C 2381 369 1920 369 1830 369 
L 602 369 
C 832 619 1280 1072 1824 1597 
C 2214 1967 2669 2402 2669 3035 
C 2669 3790 2067 4224 1395 4224 
C 691 4224 262 3604 262 3030 
C 262 2780 448 2748 525 2748 
C 589 2748 781 2787 781 3010 
C 781 3207 614 3264 525 3264 
C 486 3264 448 3258 422 3245 
C 544 3790 915 4058 1306 4058 
C 1862 4058 2227 3617 2227 3035 
C 2227 2479 1901 2000 1536 1584 
L 262 146 
L 262 0 
L 2515 0 
L 2669 989 
z
" transform="scale(0.015625)"/>
       </defs>
       <use xlink:href="#CMR17-31" transform="scale(0.996264)"/>
       <use xlink:href="#CMR17-30" transform="translate(45.690477 0) scale(0.996264)"/>
       <use xlink:href="#CMR17-32" transform="translate(91.380954 36.153639) scale(0.697382)"/>
      </g>
     </g>
    </g>
    <g id="xtick_3">
     <g id="line2d_3">
      <defs>
       <path id="m58c230106c" d="M 0 0 
L 0 2 
" style="stroke: #000000; stroke-width: 0.6"/>
      </defs>
      <g>
       <use xlink:href="#m58c230106c" x="74.085813" y="231.381871" style="stroke: #000000; stroke-width: 0.6"/>
      </g>
     </g>
    </g>
    <g id="xtick_4">
     <g id="line2d_4">
      <g>
       <use xlink:href="#m58c230106c" x="97.256528" y="231.381871" style="stroke: #000000; stroke-width: 0.6"/>
      </g>
     </g>
    </g>
    <g id="xtick_5">
     <g id="line2d_5">
      <g>
       <use xlink:href="#m58c230106c" x="113.696411" y="231.381871" style="stroke: #000000; stroke-width: 0.6"/>
      </g>
     </g>
    </g>
    <g id="xtick_6">
     <g id="line2d_6">
      <g>
       <use xlink:href="#m58c230106c" x="126.448176" y="231.381871" style="stroke: #000000; stroke-width: 0.6"/>
      </g>
     </g>
    </g>
    <g id="xtick_7">
     <g id="line2d_7">
      <g>
       <use xlink:href="#m58c230106c" x="136.867126" y="231.381871" style="stroke: #000000; stroke-width: 0.6"/>
      </g>
     </g>
    </g>
    <g id="xtick_8">
     <g id="line2d_8">
      <g>
       <use xlink:href="#m58c230106c" x="145.676223" y="231.381871" style="stroke: #000000; stroke-width: 0.6"/>
      </g>
     </g>
    </g>
    <g id="xtick_9">
     <g id="line2d_9">
      <g>
       <use xlink:href="#m58c230106c" x="153.307009" y="231.381871" style="stroke: #000000; stroke-width: 0.6"/>
      </g>
     </g>
    </g>
    <g id="xtick_10">
     <g id="line2d_10">
      <g>
       <use xlink:href="#m58c230106c" x="160.03784" y="231.381871" style="stroke: #000000; stroke-width: 0.6"/>
      </g>
     </g>
    </g>
    <g id="xtick_11">
     <g id="line2d_11">
      <g>
       <use xlink:href="#m58c230106c" x="205.669372" y="231.381871" style="stroke: #000000; stroke-width: 0.6"/>
      </g>
     </g>
    </g>
    <g id="xtick_12">
     <g id="line2d_12">
      <g>
       <use xlink:href="#m58c230106c" x="228.840086" y="231.381871" style="stroke: #000000; stroke-width: 0.6"/>
      </g>
     </g>
    </g>
    <g id="xtick_13">
     <g id="line2d_13">
      <g>
       <use xlink:href="#m58c230106c" x="245.27997" y="231.381871" style="stroke: #000000; stroke-width: 0.6"/>
      </g>
     </g>
    </g>
    <g id="xtick_14">
     <g id="line2d_14">
      <g>
       <use xlink:href="#m58c230106c" x="258.031734" y="231.381871" style="stroke: #000000; stroke-width: 0.6"/>
      </g>
     </g>
    </g>
    <g id="xtick_15">
     <g id="line2d_15">
      <g>
       <use xlink:href="#m58c230106c" x="268.450685" y="231.381871" style="stroke: #000000; stroke-width: 0.6"/>
      </g>
     </g>
    </g>
    <g id="xtick_16">
     <g id="line2d_16">
      <g>
       <use xlink:href="#m58c230106c" x="277.259781" y="231.381871" style="stroke: #000000; stroke-width: 0.6"/>
      </g>
     </g>
    </g>
    <g id="xtick_17">
     <g id="line2d_17">
      <g>
       <use xlink:href="#m58c230106c" x="284.890568" y="231.381871" style="stroke: #000000; stroke-width: 0.6"/>
      </g>
     </g>
    </g>
    <g id="xtick_18">
     <g id="line2d_18">
      <g>
       <use xlink:href="#m58c230106c" x="291.621399" y="231.381871" style="stroke: #000000; stroke-width: 0.6"/>
      </g>
     </g>
    </g>
    <g id="xtick_19">
     <g id="line2d_19">
      <g>
       <use xlink:href="#m58c230106c" x="337.252931" y="231.381871" style="stroke: #000000; stroke-width: 0.6"/>
      </g>
     </g>
    </g>
    <g id="text_3">
     <!-- $k$ -->
     <g transform="translate(208.664091 267.620524) scale(0.16 -0.16)">
      <defs>
       <path id="CMMI12-6b" d="M 1798 4257 
C 1805 4283 1818 4321 1818 4352 
C 1818 4416 1754 4416 1741 4416 
C 1734 4416 1504 4393 1389 4377 
C 1280 4377 1184 4358 1069 4358 
C 915 4345 870 4339 870 4224 
C 870 4160 934 4160 998 4160 
C 1325 4160 1325 4103 1325 4040 
C 1325 4015 1325 4002 1293 3888 
L 378 248 
C 352 152 352 140 352 101 
C 352 -38 461 -64 525 -64 
C 704 -64 742 77 794 275 
L 1094 1469 
C 1555 1418 1830 1226 1830 920 
C 1830 881 1830 856 1811 760 
C 1786 664 1786 588 1786 556 
C 1786 185 2029 -64 2355 -64 
C 2650 -64 2803 204 2854 294 
C 2989 530 3072 888 3072 913 
C 3072 945 3046 971 3008 971 
C 2950 971 2944 945 2918 843 
C 2829 511 2694 64 2368 64 
C 2240 64 2157 128 2157 370 
C 2157 492 2182 632 2208 728 
C 2234 843 2234 849 2234 926 
C 2234 1303 1894 1514 1306 1590 
C 1536 1731 1766 1980 1856 2076 
C 2221 2484 2470 2689 2765 2689 
C 2912 2689 2950 2650 2995 2612 
C 2758 2586 2669 2420 2669 2293 
C 2669 2139 2790 2088 2880 2088 
C 3053 2088 3206 2235 3206 2440 
C 3206 2625 3059 2816 2771 2816 
C 2419 2816 2131 2567 1677 2056 
C 1613 1980 1376 1737 1139 1648 
L 1798 4257 
z
" transform="scale(0.015625)"/>
      </defs>
      <use xlink:href="#CMMI12-6b" transform="scale(0.996264)"/>
     </g>
    </g>
   </g>
   <g id="matplotlib.axis_2">
    <g id="ytick_1">
     <g id="line2d_20">
      <defs>
       <path id="m9dda6d62f2" d="M 0 0 
L -3.5 0 
" style="stroke: #000000; stroke-width: 0.8"/>
      </defs>
      <g>
       <use xlink:href="#m9dda6d62f2" x="74.085813" y="191.970324" style="stroke: #000000; stroke-width: 0.8"/>
      </g>
     </g>
     <g id="text_4">
      <!-- $\mathdefault{10^{-5}}$ -->
      <g transform="translate(37.220224 197.505118) scale(0.16 -0.16)">
       <defs>
        <path id="CMSY10-0" d="M 4218 1472 
C 4326 1472 4442 1472 4442 1600 
C 4442 1728 4326 1728 4218 1728 
L 755 1728 
C 646 1728 531 1728 531 1600 
C 531 1472 646 1472 755 1472 
L 4218 1472 
z
" transform="scale(0.015625)"/>
        <path id="CMR17-35" d="M 730 3692 
C 794 3666 1056 3584 1325 3584 
C 1920 3584 2246 3911 2432 4100 
C 2432 4157 2432 4192 2394 4192 
C 2387 4192 2374 4192 2323 4163 
C 2099 4058 1837 3973 1517 3973 
C 1325 3973 1037 3999 723 4139 
C 653 4171 640 4171 634 4171 
C 602 4171 595 4164 595 4037 
L 595 2203 
C 595 2089 595 2057 659 2057 
C 691 2057 704 2070 736 2114 
C 941 2401 1222 2522 1542 2522 
C 1766 2522 2246 2382 2246 1289 
C 2246 1085 2246 715 2054 421 
C 1894 159 1645 25 1370 25 
C 947 25 518 320 403 814 
C 429 807 480 795 506 795 
C 589 795 749 840 749 1038 
C 749 1210 627 1280 506 1280 
C 358 1280 262 1190 262 1011 
C 262 454 704 -128 1382 -128 
C 2042 -128 2669 440 2669 1264 
C 2669 2030 2170 2624 1549 2624 
C 1222 2624 947 2503 730 2274 
L 730 3692 
z
" transform="scale(0.015625)"/>
       </defs>
       <use xlink:href="#CMR17-31" transform="scale(0.996264)"/>
       <use xlink:href="#CMR17-30" transform="translate(45.690477 0) scale(0.996264)"/>
       <use xlink:href="#CMSY10-0" transform="translate(91.380954 36.153639) scale(0.697382)"/>
       <use xlink:href="#CMR17-35" transform="translate(145.621947 36.153639) scale(0.697382)"/>
      </g>
     </g>
    </g>
    <g id="ytick_2">
     <g id="line2d_21">
      <g>
       <use xlink:href="#m9dda6d62f2" x="74.085813" y="135.585147" style="stroke: #000000; stroke-width: 0.8"/>
      </g>
     </g>
     <g id="text_5">
      <!-- $\mathdefault{10^{-3}}$ -->
      <g transform="translate(37.220224 141.119941) scale(0.16 -0.16)">
       <defs>
        <path id="CMR17-33" d="M 1414 2157 
C 1984 2157 2234 1662 2234 1090 
C 2234 320 1824 25 1453 25 
C 1114 25 563 194 390 693 
C 422 680 454 680 486 680 
C 640 680 755 782 755 948 
C 755 1133 614 1216 486 1216 
C 378 1216 211 1165 211 926 
C 211 335 787 -128 1466 -128 
C 2176 -128 2720 430 2720 1085 
C 2720 1707 2208 2157 1600 2227 
C 2086 2328 2554 2756 2554 3329 
C 2554 3820 2048 4179 1472 4179 
C 890 4179 378 3829 378 3329 
C 378 3110 544 3072 627 3072 
C 762 3072 877 3155 877 3321 
C 877 3486 762 3569 627 3569 
C 602 3569 570 3569 544 3557 
C 730 3959 1235 4032 1459 4032 
C 1683 4032 2106 3925 2106 3320 
C 2106 3143 2080 2828 1862 2550 
C 1670 2304 1453 2304 1242 2284 
C 1210 2284 1062 2269 1037 2269 
C 992 2263 966 2257 966 2208 
C 966 2163 973 2157 1101 2157 
L 1414 2157 
z
" transform="scale(0.015625)"/>
       </defs>
       <use xlink:href="#CMR17-31" transform="scale(0.996264)"/>
       <use xlink:href="#CMR17-30" transform="translate(45.690477 0) scale(0.996264)"/>
       <use xlink:href="#CMSY10-0" transform="translate(91.380954 36.153639) scale(0.697382)"/>
       <use xlink:href="#CMR17-33" transform="translate(145.621947 36.153639) scale(0.697382)"/>
      </g>
     </g>
    </g>
    <g id="ytick_3">
     <g id="line2d_22">
      <g>
       <use xlink:href="#m9dda6d62f2" x="74.085813" y="79.199971" style="stroke: #000000; stroke-width: 0.8"/>
      </g>
     </g>
     <g id="text_6">
      <!-- $\mathdefault{10^{-1}}$ -->
      <g transform="translate(37.220224 84.734765) scale(0.16 -0.16)">
       <use xlink:href="#CMR17-31" transform="scale(0.996264)"/>
       <use xlink:href="#CMR17-30" transform="translate(45.690477 0) scale(0.996264)"/>
       <use xlink:href="#CMSY10-0" transform="translate(91.380954 36.153639) scale(0.697382)"/>
       <use xlink:href="#CMR17-31" transform="translate(145.621947 36.153639) scale(0.697382)"/>
      </g>
     </g>
    </g>
    <g id="ytick_4">
     <g id="line2d_23">
      <g>
       <use xlink:href="#m9dda6d62f2" x="74.085813" y="22.814794" style="stroke: #000000; stroke-width: 0.8"/>
      </g>
     </g>
     <g id="text_7">
      <!-- $\mathdefault{10^{1}}$ -->
      <g transform="translate(45.89877 28.349588) scale(0.16 -0.16)">
       <use xlink:href="#CMR17-31" transform="scale(0.996264)"/>
       <use xlink:href="#CMR17-30" transform="translate(45.690477 0) scale(0.996264)"/>
       <use xlink:href="#CMR17-31" transform="translate(91.380954 36.153639) scale(0.697382)"/>
      </g>
     </g>
    </g>
    <g id="text_8">
     <!-- $E_v(k)$ -->
     <g transform="translate(29.235168 146.424868) rotate(-90) scale(0.16 -0.16)">
      <defs>
       <path id="CMMI12-45" d="M 4448 1489 
C 4454 1508 4474 1554 4474 1579 
C 4474 1611 4448 1643 4410 1643 
C 4384 1643 4371 1637 4352 1617 
C 4339 1611 4339 1598 4282 1469 
C 3904 570 3629 185 2605 185 
L 1670 185 
C 1581 185 1568 185 1530 192 
C 1459 198 1453 211 1453 262 
C 1453 307 1466 345 1478 403 
L 1920 2176 
L 2554 2176 
C 3053 2176 3091 2066 3091 1874 
C 3091 1810 3091 1752 3046 1560 
C 3034 1534 3027 1508 3027 1489 
C 3027 1444 3059 1425 3098 1425 
C 3155 1425 3162 1469 3187 1559 
L 3552 3042 
C 3552 3073 3526 3105 3488 3105 
C 3430 3105 3424 3080 3398 2990 
C 3270 2501 3142 2361 2573 2361 
L 1965 2361 
L 2362 3930 
C 2419 4154 2432 4154 2694 4154 
L 3610 4154 
C 4397 4154 4557 3943 4557 3458 
C 4557 3451 4557 3273 4531 3062 
C 4525 3036 4518 2998 4518 2985 
C 4518 2934 4550 2915 4589 2915 
C 4634 2915 4659 2941 4672 3055 
L 4806 4174 
C 4806 4195 4819 4263 4819 4277 
C 4819 4352 4762 4352 4646 4352 
L 1523 4352 
C 1402 4352 1338 4352 1338 4229 
C 1338 4154 1382 4154 1491 4154 
C 1888 4154 1888 4114 1888 4052 
C 1888 4020 1882 3994 1862 3924 
L 998 473 
C 941 249 928 185 480 185 
C 358 185 294 185 294 70 
C 294 0 333 0 461 0 
L 3674 0 
C 3814 0 3821 6 3866 110 
L 4448 1489 
z
" transform="scale(0.015625)"/>
       <path id="CMMI12-76" d="M 2925 2389 
C 2925 2791 2720 2816 2669 2816 
C 2515 2816 2374 2663 2374 2535 
C 2374 2459 2419 2414 2445 2389 
C 2509 2331 2675 2159 2675 1827 
C 2675 1558 2291 64 1523 64 
C 1133 64 1056 390 1056 626 
C 1056 945 1203 1392 1376 1852 
C 1478 2114 1504 2178 1504 2305 
C 1504 2574 1312 2816 998 2816 
C 410 2816 173 1890 173 1839 
C 173 1814 198 1782 243 1782 
C 301 1782 307 1807 333 1897 
C 486 2446 736 2689 979 2689 
C 1037 2689 1146 2689 1146 2478 
C 1146 2312 1075 2127 979 1884 
C 672 1067 672 869 672 715 
C 672 575 691 313 890 134 
C 1120 -64 1440 -64 1498 -64 
C 2560 -64 2925 2024 2925 2389 
z
" transform="scale(0.015625)"/>
       <path id="CMR17-28" d="M 1958 -1561 
C 1958 -1555 1958 -1542 1939 -1523 
C 1645 -1224 858 -407 858 1581 
C 858 3569 1632 4379 1946 4697 
C 1946 4704 1958 4717 1958 4736 
C 1958 4755 1939 4768 1914 4768 
C 1843 4768 1299 4296 986 3594 
C 666 2887 576 2199 576 1588 
C 576 1128 621 351 1005 -471 
C 1312 -1135 1837 -1600 1914 -1600 
C 1946 -1600 1958 -1587 1958 -1561 
z
" transform="scale(0.015625)"/>
       <path id="CMR17-29" d="M 1683 1581 
C 1683 2040 1638 2817 1254 3639 
C 947 4303 422 4768 346 4768 
C 326 4768 301 4761 301 4729 
C 301 4717 307 4710 314 4697 
C 621 4378 1402 3568 1402 1584 
C 1402 -407 627 -1217 314 -1537 
C 307 -1549 301 -1556 301 -1568 
C 301 -1600 326 -1600 346 -1600 
C 416 -1600 960 -1128 1274 -426 
C 1594 281 1683 969 1683 1581 
z
" transform="scale(0.015625)"/>
      </defs>
      <use xlink:href="#CMMI12-45" transform="scale(0.996264)"/>
      <use xlink:href="#CMMI12-76" transform="translate(72.211218 -14.943915) scale(0.697382)"/>
      <use xlink:href="#CMR17-28" transform="translate(108.223799 0) scale(0.996264)"/>
      <use xlink:href="#CMMI12-6b" transform="translate(143.504567 0) scale(0.996264)"/>
      <use xlink:href="#CMR17-29" transform="translate(197.583768 0) scale(0.996264)"/>
     </g>
    </g>
   </g>
   <g id="line2d_24">
    <path d="M 34.475215 10.191135 
L 74.085813 25.927776 
L 97.256528 39.109439 
L 113.696411 46.935845 
L 126.448176 49.167353 
L 136.867126 54.060882 
L 145.676223 54.326856 
L 153.307009 56.996383 
L 160.03784 57.447304 
L 166.058774 59.363315 
L 171.505371 62.033058 
L 176.477724 62.533646 
L 181.051846 62.305324 
L 185.286821 65.02345 
L 189.229488 66.282312 
L 192.917607 67.944707 
L 196.382063 68.240121 
L 199.648438 69.61093 
L 202.738165 70.563535 
L 205.669372 71.818353 
L 208.457535 73.238418 
L 211.115969 73.538429 
L 216.088322 76.140268 
L 218.421136 76.765438 
L 222.819153 78.847539 
L 224.897419 80.260686 
L 226.902748 80.426619 
L 228.840086 82.001721 
L 230.713894 82.477149 
L 232.528206 83.957609 
L 234.286683 84.581148 
L 237.649183 86.886279 
L 239.259037 87.475235 
L 240.824779 88.70079 
L 242.348763 89.447695 
L 243.833158 90.639298 
L 245.27997 91.455795 
L 246.691054 92.433431 
L 248.068133 93.604694 
L 249.412807 94.275564 
L 250.726567 95.4543 
L 252.010801 96.808219 
L 253.266808 97.550819 
L 254.495802 98.780669 
L 256.87723 100.677859 
L 260.273042 103.896057 
L 261.36157 104.762792 
L 262.429751 106.129052 
L 263.478331 106.87669 
L 265.519477 109.246884 
L 266.513346 109.926176 
L 267.490225 111.101263 
L 268.450685 112.036835 
L 269.395268 113.286917 
L 271.238848 115.172302 
L 272.138804 116.559004 
L 273.024806 117.006053 
L 273.897281 118.384117 
L 274.756636 119.108285 
L 278.070377 123.349659 
L 279.657868 125.26104 
L 280.435377 126.499225 
L 281.202449 127.23863 
L 284.171741 131.317236 
L 286.301652 134.075918 
L 287.678732 136.025045 
L 289.684061 138.739005 
L 290.337165 139.753151 
L 290.982889 140.395088 
L 292.252853 142.302649 
L 292.877406 143.035015 
L 294.1064 144.869416 
L 297.642333 149.659628 
L 309.93509 166.255026 
L 310.394097 166.76222 
L 310.849446 167.630068 
L 311.301196 168.00912 
L 312.19412 169.215683 
L 313.507879 170.956161 
L 324.501166 185.909402 
L 325.912251 187.759099 
L 326.604938 188.75886 
L 334.321723 198.692481 
L 334.621703 198.956485 
L 335.216979 199.67206 
L 336.966484 201.620995 
L 340.582766 205.178477 
L 341.650947 206.058952 
L 342.439181 206.737467 
L 343.473526 207.437419 
L 343.983762 207.817991 
L 344.740674 208.325907 
L 347.671881 209.930888 
L 348.381778 210.176051 
L 349.082965 210.471878 
L 350.004695 210.737413 
L 350.686365 210.948178 
L 351.36 211.097728 
L 351.582792 216.871761 
L 352.025786 220.532361 
L 352.465373 222.415347 
L 353.54977 225.537191 
L 355.034166 228.890251 
L 355.865395 230.79467 
L 364.111764 248.352613 
L 364.467815 249.051754 
L 367.239074 255.217292 
L 367.911388 257.086583 
L 368.078238 257.377171 
L 368.740808 259.381124 
L 368.905257 259.731358 
L 369.395784 261.445207 
L 369.558361 261.807152 
L 371.159195 268.516112 
L 371.943103 272.219589 
L 375.859034 289 
L 375.859034 289 
" clip-path="url(#p12165bb31b)" style="fill: none; stroke: #0000ff; stroke-width: 1.5; stroke-linecap: square"/>
   </g>
   <g id="line2d_25">
    <path d="M 34.475215 68.996055 
L 74.085813 81.538534 
L 97.256528 91.802059 
L 113.696411 99.279681 
L 126.448176 101.540168 
L 136.867126 105.82627 
L 145.676223 106.458601 
L 153.307009 110.411626 
L 160.03784 111.269573 
L 166.058774 113.488951 
L 171.505371 115.938765 
L 176.477724 116.862299 
L 181.051846 117.441606 
L 185.286821 120.132102 
L 189.229488 120.564056 
L 192.917607 122.067177 
L 196.382063 122.407733 
L 199.648438 124.498871 
L 202.738165 125.048611 
L 205.669372 125.836678 
L 208.457535 127.300078 
L 211.115969 127.835673 
L 216.088322 129.867714 
L 218.421136 130.200935 
L 220.662444 131.211661 
L 224.897419 132.793348 
L 226.902748 133.26084 
L 228.840086 134.536946 
L 230.713894 134.796722 
L 232.528206 135.732333 
L 234.286683 136.074946 
L 235.992661 137.069984 
L 239.259037 138.376919 
L 240.824779 139.163494 
L 242.348763 139.692644 
L 243.833158 140.483579 
L 245.27997 141.029456 
L 246.691054 141.420557 
L 248.068133 142.313644 
L 249.412807 142.744682 
L 250.726567 143.358048 
L 252.010801 144.318686 
L 255.69892 145.881952 
L 258.031734 147.03373 
L 259.163376 147.496772 
L 260.273042 148.092212 
L 261.36157 148.48351 
L 262.429751 149.566519 
L 263.478331 149.877809 
L 264.508017 150.6007 
L 265.519477 151.095488 
L 266.513346 151.412069 
L 267.490225 152.276398 
L 268.450685 152.718043 
L 269.395268 153.427345 
L 270.324492 153.955896 
L 271.238848 154.330637 
L 272.138804 155.276293 
L 273.024806 155.363639 
L 273.897281 156.245261 
L 275.603259 157.247449 
L 278.869635 159.468964 
L 279.657868 159.811585 
L 280.435377 160.677762 
L 281.202449 161.070474 
L 285.600466 164.208176 
L 286.301652 164.696931 
L 287.678732 165.921271 
L 290.337165 168.08037 
L 290.982889 168.418903 
L 292.252853 169.664507 
L 292.877406 169.983441 
L 293.495207 170.730084 
L 295.309518 172.205624 
L 295.90171 172.5539 
L 297.642333 174.233008 
L 298.210954 174.596457 
L 298.773974 175.24181 
L 299.88364 176.07894 
L 300.430496 176.746032 
L 301.508755 177.649844 
L 302.040349 178.340077 
L 302.567044 178.591916 
L 303.088929 179.332514 
L 303.606091 179.593329 
L 304.118615 180.231698 
L 304.626583 180.60316 
L 307.583071 183.56239 
L 308.061283 183.932205 
L 309.93509 185.814383 
L 310.394097 186.216257 
L 310.849446 186.892284 
L 311.301196 187.156596 
L 317.680975 193.652411 
L 318.082001 193.952133 
L 319.658543 195.56805 
L 329.622144 205.25791 
L 329.947763 205.490521 
L 330.271537 205.892977 
L 330.593488 206.044318 
L 336.966484 211.435471 
L 338.664015 212.688683 
L 339.218835 213.201146 
L 339.76832 213.514736 
L 341.914902 215.015355 
L 342.177642 215.123872 
L 342.699527 215.485302 
L 343.729213 216.093118 
L 345.239768 216.96202 
L 349.082965 218.701942 
L 349.314795 218.732918 
L 349.775653 218.949692 
L 350.460044 219.117506 
L 351.36 219.366486 
L 353.54977 223.960923 
L 353.977832 224.709186 
L 356.480978 229.1463 
L 360.613815 235.795981 
L 360.803354 236.019622 
L 361.180557 236.688289 
L 361.741734 237.486987 
L 361.927574 237.967312 
L 362.112813 238.114935 
L 363.392937 240.21526 
L 365.696809 244.136766 
L 366.215536 245.269288 
L 366.387404 245.426837 
L 366.729597 246.24124 
L 367.239074 247.213687 
L 367.911388 248.865328 
L 368.410483 249.976111 
L 370.364383 255.98235 
L 372.25368 264.281654 
L 372.869815 266.58291 
L 373.479378 269.044546 
L 375.709025 277.99179 
L 376.144702 280.071685 
L 376.863529 283.281765 
L 377.714354 287.864581 
L 377.854934 288.204206 
L 377.974311 289 
L 377.974311 289 
" clip-path="url(#p12165bb31b)" style="fill: none; stroke: #ff0000; stroke-width: 1.5; stroke-linecap: square"/>
   </g>
   <g id="line2d_26">
    <path d="M 34.475215 49.606116 
L 382.698435 173.954401 
L 382.698435 173.954401 
" clip-path="url(#p12165bb31b)" style="fill: none; stroke-dasharray: 5.18,2.24; stroke-dashoffset: 0; stroke: #000000; stroke-width: 1.4"/>
   </g>
   <g id="patch_3">
    <path d="M 74.085813 231.381871 
L 74.085813 22.814794 
" style="fill: none; stroke: #000000; stroke-width: 0.8; stroke-linejoin: miter; stroke-linecap: square"/>
   </g>
   <g id="patch_4">
    <path d="M 351.36 231.381871 
L 351.36 22.814794 
" style="fill: none; stroke: #000000; stroke-width: 0.8; stroke-linejoin: miter; stroke-linecap: square"/>
   </g>
   <g id="patch_5">
    <path d="M 74.085813 231.381871 
L 351.36 231.381871 
" style="fill: none; stroke: #000000; stroke-width: 0.8; stroke-linejoin: miter; stroke-linecap: square"/>
   </g>
   <g id="patch_6">
    <path d="M 74.085813 22.814794 
L 351.36 22.814794 
" style="fill: none; stroke: #000000; stroke-width: 0.8; stroke-linejoin: miter; stroke-linecap: square"/>
   </g>
   <g id="legend_1">
    <g id="line2d_27">
     <path d="M 88.485813 162.042694 
L 104.485813 162.042694 
L 120.485813 162.042694 
" style="fill: none; stroke: #0000ff; stroke-width: 1.5; stroke-linecap: square"/>
    </g>
    <g id="text_9">
     <!-- $M_{\rm A}=0.8, M_{\rm s}=10$ -->
     <g transform="translate(133.285813 167.642694) scale(0.16 -0.16)">
      <defs>
       <path id="CMMI12-4d" d="M 5811 3886 
C 5869 4103 5882 4167 6336 4167 
C 6458 4167 6515 4167 6515 4288 
C 6515 4352 6470 4352 6349 4352 
L 5581 4352 
C 5421 4352 5414 4346 5344 4243 
L 3008 562 
L 2528 4211 
C 2509 4352 2502 4352 2336 4352 
L 1542 4352 
C 1421 4352 1363 4352 1363 4231 
C 1363 4167 1421 4167 1517 4167 
C 1907 4167 1907 4116 1907 4046 
C 1907 4034 1907 3995 1882 3899 
L 1062 634 
C 986 327 838 186 410 186 
C 390 186 314 186 314 73 
C 314 0 371 0 397 0 
C 525 0 851 0 979 0 
L 1286 0 
C 1376 0 1485 0 1574 0 
C 1619 0 1690 0 1690 122 
C 1690 180 1626 186 1600 186 
C 1389 186 1184 224 1184 454 
C 1184 518 1184 524 1210 613 
L 2093 4129 
L 2099 4129 
L 2630 172 
C 2650 19 2656 0 2714 0 
C 2784 0 2816 51 2848 109 
L 5421 4161 
L 5427 4161 
L 4499 473 
C 4442 250 4429 186 3981 186 
C 3859 186 3795 186 3795 70 
C 3795 0 3853 0 3891 0 
C 4000 0 4128 0 4237 0 
L 4992 0 
C 5101 0 5235 0 5344 0 
C 5395 0 5466 0 5466 122 
C 5466 186 5408 186 5312 186 
C 4922 186 4922 234 4922 294 
C 4922 301 4922 345 4934 396 
L 5811 3886 
z
" transform="scale(0.015625)"/>
       <path id="CMR17-41" d="M 2323 4378 
C 2291 4461 2278 4480 2214 4480 
C 2150 4480 2138 4461 2106 4378 
L 749 566 
C 627 223 371 153 147 153 
L 147 -13 
C 262 0 518 0 640 0 
C 800 0 1056 0 1210 -13 
L 1210 153 
C 909 153 864 361 864 439 
C 864 497 877 530 890 569 
L 1229 1536 
L 2906 1536 
L 3290 442 
C 3322 365 3322 352 3322 327 
C 3322 153 3046 153 2925 153 
L 2925 0 
C 3110 0 3443 0 3642 0 
C 3808 0 4128 0 4282 -13 
L 4282 153 
C 3942 153 3827 153 3744 387 
L 2323 4378 
z
M 2067 3893 
L 2848 1702 
L 1286 1702 
L 2067 3893 
z
" transform="scale(0.015625)"/>
       <path id="CMR17-3d" d="M 4115 2017 
C 4211 2017 4307 2017 4307 2125 
C 4307 2240 4198 2240 4090 2240 
L 512 2240 
C 403 2240 294 2240 294 2125 
C 294 2017 390 2017 486 2017 
L 4115 2017 
z
M 4090 896 
C 4198 896 4307 896 4307 1011 
C 4307 1119 4211 1119 4115 1119 
L 486 1119 
C 390 1119 294 1119 294 1011 
C 294 896 403 896 512 896 
L 4090 896 
z
" transform="scale(0.015625)"/>
       <path id="CMMI12-3a" d="M 1178 307 
C 1178 492 1024 619 870 619 
C 685 619 557 466 557 313 
C 557 128 710 0 864 0 
C 1050 0 1178 153 1178 307 
z
" transform="scale(0.015625)"/>
       <path id="CMR17-38" d="M 1741 2264 
C 2144 2467 2554 2773 2554 3263 
C 2554 3841 1990 4179 1472 4179 
C 890 4179 378 3759 378 3180 
C 378 3021 416 2747 666 2505 
C 730 2442 998 2251 1171 2130 
C 883 1983 211 1634 211 934 
C 211 279 838 -128 1459 -128 
C 2144 -128 2720 362 2720 1010 
C 2720 1590 2330 1857 2074 2029 
L 1741 2264 
z
M 902 2822 
C 851 2854 595 3051 595 3351 
C 595 3739 998 4032 1459 4032 
C 1965 4032 2336 3676 2336 3262 
C 2336 2669 1670 2331 1638 2331 
C 1632 2331 1626 2331 1574 2370 
L 902 2822 
z
M 2080 1519 
C 2176 1449 2483 1240 2483 851 
C 2483 381 2010 25 1472 25 
C 890 25 448 438 448 940 
C 448 1443 838 1862 1280 2060 
L 2080 1519 
z
" transform="scale(0.015625)"/>
       <path id="CMMI12-3b" d="M 1248 -31 
C 1248 343 1126 619 864 619 
C 659 619 557 453 557 313 
C 557 172 653 0 870 0 
C 954 0 1024 26 1082 83 
C 1094 96 1101 96 1107 96 
C 1120 96 1120 5 1120 -27 
C 1120 -240 1082 -659 710 -1080 
C 640 -1157 640 -1170 640 -1183 
C 640 -1216 672 -1248 704 -1248 
C 755 -1248 1248 -771 1248 -31 
z
" transform="scale(0.015625)"/>
       <path id="CMR17-73" d="M 1978 2697 
C 1978 2813 1971 2819 1933 2819 
C 1907 2819 1901 2813 1824 2717 
C 1805 2691 1747 2626 1728 2601 
C 1523 2819 1235 2819 1126 2819 
C 416 2819 160 2447 160 2076 
C 160 1498 813 1365 998 1325 
C 1402 1243 1542 1217 1677 1101 
C 1760 1025 1901 884 1901 654 
C 1901 384 1747 38 1158 38 
C 602 38 403 460 288 1021 
C 269 1110 269 1117 218 1117 
C 166 1117 160 1110 160 983 
L 160 63 
C 160 -51 166 -58 205 -58 
C 237 -58 243 -51 275 0 
C 314 57 410 211 448 276 
C 576 103 800 -64 1158 -64 
C 1792 -64 2131 283 2131 784 
C 2131 1112 1958 1285 1875 1362 
C 1683 1561 1459 1606 1190 1657 
C 838 1735 390 1825 390 2217 
C 390 2383 480 2737 1126 2737 
C 1811 2737 1850 2094 1862 1888 
C 1869 1856 1901 1849 1920 1849 
C 1978 1849 1978 1869 1978 1978 
L 1978 2697 
z
" transform="scale(0.015625)"/>
      </defs>
      <use xlink:href="#CMMI12-4d" transform="scale(0.996264)"/>
      <use xlink:href="#CMR17-41" transform="translate(94.373425 -14.943915) scale(0.697382)"/>
      <use xlink:href="#CMR17-3d" transform="translate(170.896051 0) scale(0.996264)"/>
      <use xlink:href="#CMR17-30" transform="translate(270.284848 0) scale(0.996264)"/>
      <use xlink:href="#CMMI12-3a" transform="translate(315.975325 0) scale(0.996264)"/>
      <use xlink:href="#CMR17-38" transform="translate(343.072502 0) scale(0.996264)"/>
      <use xlink:href="#CMMI12-3b" transform="translate(388.762979 0) scale(0.996264)"/>
      <use xlink:href="#CMMI12-4d" transform="translate(432.464562 0) scale(0.996264)"/>
      <use xlink:href="#CMR17-73" transform="translate(526.837987 -14.943915) scale(0.697382)"/>
      <use xlink:href="#CMR17-3d" transform="translate(580.07095 0) scale(0.996264)"/>
      <use xlink:href="#CMR17-31" transform="translate(679.459747 0) scale(0.996264)"/>
      <use xlink:href="#CMR17-30" transform="translate(725.150224 0) scale(0.996264)"/>
     </g>
    </g>
    <g id="line2d_28">
     <path d="M 88.485813 184.342171 
L 104.485813 184.342171 
L 120.485813 184.342171 
" style="fill: none; stroke: #ff0000; stroke-width: 1.5; stroke-linecap: square"/>
    </g>
    <g id="text_10">
     <!-- $M_{\rm A}=0.8, M_{\rm s}=1$ -->
     <g transform="translate(133.285813 189.942171) scale(0.16 -0.16)">
      <use xlink:href="#CMMI12-4d" transform="scale(0.996264)"/>
      <use xlink:href="#CMR17-41" transform="translate(94.373425 -14.943915) scale(0.697382)"/>
      <use xlink:href="#CMR17-3d" transform="translate(170.896051 0) scale(0.996264)"/>
      <use xlink:href="#CMR17-30" transform="translate(270.284848 0) scale(0.996264)"/>
      <use xlink:href="#CMMI12-3a" transform="translate(315.975325 0) scale(0.996264)"/>
      <use xlink:href="#CMR17-38" transform="translate(343.072502 0) scale(0.996264)"/>
      <use xlink:href="#CMMI12-3b" transform="translate(388.762979 0) scale(0.996264)"/>
      <use xlink:href="#CMMI12-4d" transform="translate(432.464562 0) scale(0.996264)"/>
      <use xlink:href="#CMR17-73" transform="translate(526.837987 -14.943915) scale(0.697382)"/>
      <use xlink:href="#CMR17-3d" transform="translate(580.07095 0) scale(0.996264)"/>
      <use xlink:href="#CMR17-31" transform="translate(679.459747 0) scale(0.996264)"/>
     </g>
    </g>
    <g id="line2d_29">
     <path d="M 88.485813 207.396815 
L 104.485813 207.396815 
L 120.485813 207.396815 
" style="fill: none; stroke-dasharray: 5.18,2.24; stroke-dashoffset: 0; stroke: #000000; stroke-width: 1.4"/>
    </g>
    <g id="text_11">
     <!-- slope: $-5/3$ -->
     <g transform="translate(133.285813 212.996815) scale(0.16 -0.16)">
      <defs>
       <path id="CMR17-6c" d="M 979 4396 
L 218 4326 
L 218 4160 
C 595 4160 653 4122 653 3817 
L 653 426 
C 653 184 627 153 218 153 
L 218 -13 
C 371 0 653 0 813 0 
C 979 0 1261 0 1414 -13 
L 1414 153 
C 1005 153 979 178 979 426 
L 979 4396 
z
" transform="scale(0.015625)"/>
       <path id="CMR17-6f" d="M 2758 1356 
C 2758 2176 2163 2816 1466 2816 
C 768 2816 173 2176 173 1356 
C 173 551 768 -64 1466 -64 
C 2163 -64 2758 551 2758 1356 
z
M 1466 51 
C 1165 51 909 230 762 480 
C 602 767 582 1126 582 1408 
C 582 1677 595 2010 762 2298 
C 890 2509 1139 2714 1466 2714 
C 1754 2714 1997 2554 2150 2330 
C 2349 2029 2349 1607 2349 1408 
C 2349 1158 2336 775 2163 467 
C 1984 173 1709 51 1466 51 
z
" transform="scale(0.015625)"/>
       <path id="CMR17-70" d="M 1408 -1063 
C 998 -1063 973 -1037 973 -789 
L 973 402 
C 1158 134 1427 -38 1766 -38 
C 2406 -38 3053 523 3053 1388 
C 3053 2191 2496 2802 1837 2802 
C 1453 2802 1139 2592 960 2338 
L 960 2802 
L 198 2732 
L 198 2567 
C 576 2567 634 2528 634 2223 
L 634 -789 
C 634 -1031 608 -1063 198 -1063 
L 198 -1228 
C 352 -1216 634 -1216 800 -1216 
C 966 -1216 1254 -1216 1408 -1228 
L 1408 -1063 
z
M 973 2012 
C 973 2102 973 2235 1222 2471 
C 1254 2497 1472 2688 1792 2688 
C 2259 2688 2643 2108 2643 1382 
C 2643 656 2234 64 1728 64 
C 1498 64 1248 172 1056 472 
C 973 612 973 650 973 752 
L 973 2012 
z
" transform="scale(0.015625)"/>
       <path id="CMR17-65" d="M 2438 1472 
C 2464 1498 2464 1511 2464 1576 
C 2464 2238 2118 2816 1389 2816 
C 710 2816 173 2169 173 1383 
C 173 551 781 -64 1459 -64 
C 2176 -64 2458 607 2458 740 
C 2458 784 2419 784 2406 784 
C 2362 784 2355 771 2330 696 
C 2189 265 1837 51 1504 51 
C 1229 51 954 203 781 480 
C 582 803 582 1176 582 1472 
L 2438 1472 
z
M 589 1568 
C 634 2505 1126 2714 1382 2714 
C 1818 2714 2112 2297 2118 1568 
L 589 1568 
z
" transform="scale(0.015625)"/>
       <path id="CMR17-3a" d="M 1062 2491 
C 1062 2650 934 2752 800 2752 
C 672 2752 538 2650 538 2491 
C 538 2332 666 2230 800 2230 
C 928 2230 1062 2332 1062 2491 
z
M 1062 261 
C 1062 420 934 522 800 522 
C 672 522 538 420 538 261 
C 538 102 666 0 800 0 
C 928 0 1062 102 1062 261 
z
" transform="scale(0.015625)"/>
       <path id="CMMI12-3d" d="M 2746 4562 
C 2746 4569 2784 4666 2784 4678 
C 2784 4755 2720 4800 2669 4800 
C 2637 4800 2579 4800 2528 4659 
L 384 -1363 
C 384 -1370 346 -1465 346 -1478 
C 346 -1555 410 -1600 461 -1600 
C 499 -1600 557 -1593 602 -1459 
L 2746 4562 
z
" transform="scale(0.015625)"/>
      </defs>
      <use xlink:href="#CMR17-73" transform="scale(0.996264)"/>
      <use xlink:href="#CMR17-6c" transform="translate(35.801338 0) scale(0.996264)"/>
      <use xlink:href="#CMR17-6f" transform="translate(60.672396 0) scale(0.996264)"/>
      <use xlink:href="#CMR17-70" transform="translate(106.362873 0) scale(0.996264)"/>
      <use xlink:href="#CMR17-65" transform="translate(159.860682 0) scale(0.996264)"/>
      <use xlink:href="#CMR17-3a" transform="translate(200.346342 0) scale(0.996264)"/>
      <use xlink:href="#CMSY10-0" transform="translate(265.703061 0) scale(0.996264)"/>
      <use xlink:href="#CMR17-35" transform="translate(343.190529 0) scale(0.996264)"/>
      <use xlink:href="#CMMI12-3d" transform="translate(388.881006 0) scale(0.996264)"/>
      <use xlink:href="#CMR17-33" transform="translate(437.655925 0) scale(0.996264)"/>
     </g>
    </g>
   </g>
  </g>
  <g id="axes_2">
   <g id="patch_7">
    <path d="M 425.445813 231.381871 
L 702.72 231.381871 
L 702.72 22.814794 
L 425.445813 22.814794 
z
" style="fill: #ffffff"/>
   </g>
   <g id="matplotlib.axis_3">
    <g id="xtick_20">
     <g id="line2d_30">
      <g>
       <use xlink:href="#mcd3a51c37d" x="517.418774" y="231.381871" style="stroke: #000000; stroke-width: 0.8"/>
      </g>
     </g>
     <g id="text_12">
      <!-- $\mathdefault{10^{1}}$ -->
      <g transform="translate(506.825252 249.451459) scale(0.16 -0.16)">
       <use xlink:href="#CMR17-31" transform="scale(0.996264)"/>
       <use xlink:href="#CMR17-30" transform="translate(45.690477 0) scale(0.996264)"/>
       <use xlink:href="#CMR17-31" transform="translate(91.380954 36.153639) scale(0.697382)"/>
      </g>
     </g>
    </g>
    <g id="xtick_21">
     <g id="line2d_31">
      <g>
       <use xlink:href="#mcd3a51c37d" x="649.002333" y="231.381871" style="stroke: #000000; stroke-width: 0.8"/>
      </g>
     </g>
     <g id="text_13">
      <!-- $\mathdefault{10^{2}}$ -->
      <g transform="translate(638.408811 249.451459) scale(0.16 -0.16)">
       <use xlink:href="#CMR17-31" transform="scale(0.996264)"/>
       <use xlink:href="#CMR17-30" transform="translate(45.690477 0) scale(0.996264)"/>
       <use xlink:href="#CMR17-32" transform="translate(91.380954 36.153639) scale(0.697382)"/>
      </g>
     </g>
    </g>
    <g id="xtick_22">
     <g id="line2d_32">
      <g>
       <use xlink:href="#m58c230106c" x="425.445813" y="231.381871" style="stroke: #000000; stroke-width: 0.6"/>
      </g>
     </g>
    </g>
    <g id="xtick_23">
     <g id="line2d_33">
      <g>
       <use xlink:href="#m58c230106c" x="448.616528" y="231.381871" style="stroke: #000000; stroke-width: 0.6"/>
      </g>
     </g>
    </g>
    <g id="xtick_24">
     <g id="line2d_34">
      <g>
       <use xlink:href="#m58c230106c" x="465.056411" y="231.381871" style="stroke: #000000; stroke-width: 0.6"/>
      </g>
     </g>
    </g>
    <g id="xtick_25">
     <g id="line2d_35">
      <g>
       <use xlink:href="#m58c230106c" x="477.808176" y="231.381871" style="stroke: #000000; stroke-width: 0.6"/>
      </g>
     </g>
    </g>
    <g id="xtick_26">
     <g id="line2d_36">
      <g>
       <use xlink:href="#m58c230106c" x="488.227126" y="231.381871" style="stroke: #000000; stroke-width: 0.6"/>
      </g>
     </g>
    </g>
    <g id="xtick_27">
     <g id="line2d_37">
      <g>
       <use xlink:href="#m58c230106c" x="497.036223" y="231.381871" style="stroke: #000000; stroke-width: 0.6"/>
      </g>
     </g>
    </g>
    <g id="xtick_28">
     <g id="line2d_38">
      <g>
       <use xlink:href="#m58c230106c" x="504.667009" y="231.381871" style="stroke: #000000; stroke-width: 0.6"/>
      </g>
     </g>
    </g>
    <g id="xtick_29">
     <g id="line2d_39">
      <g>
       <use xlink:href="#m58c230106c" x="511.39784" y="231.381871" style="stroke: #000000; stroke-width: 0.6"/>
      </g>
     </g>
    </g>
    <g id="xtick_30">
     <g id="line2d_40">
      <g>
       <use xlink:href="#m58c230106c" x="557.029372" y="231.381871" style="stroke: #000000; stroke-width: 0.6"/>
      </g>
     </g>
    </g>
    <g id="xtick_31">
     <g id="line2d_41">
      <g>
       <use xlink:href="#m58c230106c" x="580.200086" y="231.381871" style="stroke: #000000; stroke-width: 0.6"/>
      </g>
     </g>
    </g>
    <g id="xtick_32">
     <g id="line2d_42">
      <g>
       <use xlink:href="#m58c230106c" x="596.63997" y="231.381871" style="stroke: #000000; stroke-width: 0.6"/>
      </g>
     </g>
    </g>
    <g id="xtick_33">
     <g id="line2d_43">
      <g>
       <use xlink:href="#m58c230106c" x="609.391734" y="231.381871" style="stroke: #000000; stroke-width: 0.6"/>
      </g>
     </g>
    </g>
    <g id="xtick_34">
     <g id="line2d_44">
      <g>
       <use xlink:href="#m58c230106c" x="619.810685" y="231.381871" style="stroke: #000000; stroke-width: 0.6"/>
      </g>
     </g>
    </g>
    <g id="xtick_35">
     <g id="line2d_45">
      <g>
       <use xlink:href="#m58c230106c" x="628.619781" y="231.381871" style="stroke: #000000; stroke-width: 0.6"/>
      </g>
     </g>
    </g>
    <g id="xtick_36">
     <g id="line2d_46">
      <g>
       <use xlink:href="#m58c230106c" x="636.250568" y="231.381871" style="stroke: #000000; stroke-width: 0.6"/>
      </g>
     </g>
    </g>
    <g id="xtick_37">
     <g id="line2d_47">
      <g>
       <use xlink:href="#m58c230106c" x="642.981399" y="231.381871" style="stroke: #000000; stroke-width: 0.6"/>
      </g>
     </g>
    </g>
    <g id="xtick_38">
     <g id="line2d_48">
      <g>
       <use xlink:href="#m58c230106c" x="688.612931" y="231.381871" style="stroke: #000000; stroke-width: 0.6"/>
      </g>
     </g>
    </g>
    <g id="text_14">
     <!-- $k$ -->
     <g transform="translate(560.024091 267.620524) scale(0.16 -0.16)">
      <use xlink:href="#CMMI12-6b" transform="scale(0.996264)"/>
     </g>
    </g>
   </g>
   <g id="matplotlib.axis_4">
    <g id="ytick_5">
     <g id="line2d_49">
      <g>
       <use xlink:href="#m9dda6d62f2" x="425.445813" y="191.970324" style="stroke: #000000; stroke-width: 0.8"/>
      </g>
     </g>
     <g id="text_15">
      <!-- $\mathdefault{10^{-5}}$ -->
      <g transform="translate(388.580224 197.505118) scale(0.16 -0.16)">
       <use xlink:href="#CMR17-31" transform="scale(0.996264)"/>
       <use xlink:href="#CMR17-30" transform="translate(45.690477 0) scale(0.996264)"/>
       <use xlink:href="#CMSY10-0" transform="translate(91.380954 36.153639) scale(0.697382)"/>
       <use xlink:href="#CMR17-35" transform="translate(145.621947 36.153639) scale(0.697382)"/>
      </g>
     </g>
    </g>
    <g id="ytick_6">
     <g id="line2d_50">
      <g>
       <use xlink:href="#m9dda6d62f2" x="425.445813" y="135.585147" style="stroke: #000000; stroke-width: 0.8"/>
      </g>
     </g>
     <g id="text_16">
      <!-- $\mathdefault{10^{-3}}$ -->
      <g transform="translate(388.580224 141.119941) scale(0.16 -0.16)">
       <use xlink:href="#CMR17-31" transform="scale(0.996264)"/>
       <use xlink:href="#CMR17-30" transform="translate(45.690477 0) scale(0.996264)"/>
       <use xlink:href="#CMSY10-0" transform="translate(91.380954 36.153639) scale(0.697382)"/>
       <use xlink:href="#CMR17-33" transform="translate(145.621947 36.153639) scale(0.697382)"/>
      </g>
     </g>
    </g>
    <g id="ytick_7">
     <g id="line2d_51">
      <g>
       <use xlink:href="#m9dda6d62f2" x="425.445813" y="79.199971" style="stroke: #000000; stroke-width: 0.8"/>
      </g>
     </g>
     <g id="text_17">
      <!-- $\mathdefault{10^{-1}}$ -->
      <g transform="translate(388.580224 84.734765) scale(0.16 -0.16)">
       <use xlink:href="#CMR17-31" transform="scale(0.996264)"/>
       <use xlink:href="#CMR17-30" transform="translate(45.690477 0) scale(0.996264)"/>
       <use xlink:href="#CMSY10-0" transform="translate(91.380954 36.153639) scale(0.697382)"/>
       <use xlink:href="#CMR17-31" transform="translate(145.621947 36.153639) scale(0.697382)"/>
      </g>
     </g>
    </g>
    <g id="ytick_8">
     <g id="line2d_52">
      <g>
       <use xlink:href="#m9dda6d62f2" x="425.445813" y="22.814794" style="stroke: #000000; stroke-width: 0.8"/>
      </g>
     </g>
     <g id="text_18">
      <!-- $\mathdefault{10^{1}}$ -->
      <g transform="translate(397.25877 28.349588) scale(0.16 -0.16)">
       <use xlink:href="#CMR17-31" transform="scale(0.996264)"/>
       <use xlink:href="#CMR17-30" transform="translate(45.690477 0) scale(0.996264)"/>
       <use xlink:href="#CMR17-31" transform="translate(91.380954 36.153639) scale(0.697382)"/>
      </g>
     </g>
    </g>
    <g id="text_19">
     <!-- $E_B(k)$ -->
     <g transform="translate(380.595168 148.032076) rotate(-90) scale(0.16 -0.16)">
      <defs>
       <path id="CMMI12-42" d="M 2342 3921 
C 2400 4160 2426 4160 2675 4160 
L 3507 4160 
C 4230 4160 4230 3544 4230 3485 
C 4230 2966 3712 2304 2867 2304 
L 1946 2304 
L 2342 3921 
z
M 3424 2275 
C 4122 2402 4755 2886 4755 3473 
C 4755 3970 4314 4352 3590 4352 
L 1536 4352 
C 1414 4352 1357 4352 1357 4226 
C 1357 4160 1414 4160 1510 4160 
C 1901 4160 1901 4112 1901 4044 
C 1901 4032 1901 3993 1875 3897 
L 1011 472 
C 954 249 941 185 493 185 
C 371 185 307 185 307 70 
C 307 0 346 0 474 0 
L 2669 0 
C 3648 0 4403 739 4403 1383 
C 4403 1906 3942 2224 3424 2275 
z
M 2515 185 
L 1651 185 
C 1562 185 1549 185 1510 192 
C 1440 198 1434 211 1434 261 
C 1434 305 1446 343 1459 399 
L 1907 2176 
L 3110 2176 
C 3866 2176 3866 1483 3866 1433 
C 3866 828 3309 185 2515 185 
z
" transform="scale(0.015625)"/>
      </defs>
      <use xlink:href="#CMMI12-45" transform="scale(0.996264)"/>
      <use xlink:href="#CMMI12-42" transform="translate(72.211218 -14.943915) scale(0.697382)"/>
      <use xlink:href="#CMR17-28" transform="translate(128.103976 0) scale(0.996264)"/>
      <use xlink:href="#CMMI12-6b" transform="translate(163.384744 0) scale(0.996264)"/>
      <use xlink:href="#CMR17-29" transform="translate(217.463944 0) scale(0.996264)"/>
     </g>
    </g>
   </g>
   <g id="line2d_53">
    <path d="M 385.835215 31.510531 
L 425.445813 35.974781 
L 448.616528 45.565265 
L 465.056411 54.83036 
L 477.808176 56.130644 
L 488.227126 58.985762 
L 497.036223 58.979057 
L 504.667009 62.730006 
L 511.39784 63.108434 
L 517.418774 65.055566 
L 522.865371 67.944743 
L 527.837724 67.345412 
L 532.411846 68.44145 
L 536.646821 70.21831 
L 540.589488 70.910683 
L 544.277607 72.451522 
L 547.742063 72.723023 
L 551.008438 74.605761 
L 554.098165 75.022883 
L 557.029372 76.252073 
L 559.817535 77.824772 
L 562.475969 78.249015 
L 565.01621 80.02809 
L 567.448322 80.631795 
L 569.781136 81.029219 
L 574.179153 82.89561 
L 576.257419 84.315016 
L 578.262748 84.8282 
L 580.200086 86.066326 
L 582.073894 86.83423 
L 583.888206 87.80698 
L 585.646683 88.454383 
L 587.352661 89.367735 
L 589.009183 90.488355 
L 590.619037 90.991035 
L 592.184779 92.086473 
L 596.63997 94.688034 
L 598.051054 95.266564 
L 599.428133 96.437043 
L 602.086567 97.953153 
L 603.370801 99.277497 
L 607.05892 101.53717 
L 608.23723 102.609792 
L 609.391734 103.386006 
L 611.633042 105.069811 
L 612.72157 105.771771 
L 613.789751 106.981942 
L 614.838331 107.493861 
L 615.868017 108.263645 
L 616.879477 109.370781 
L 617.873346 109.86717 
L 618.850225 110.92182 
L 619.810685 111.590313 
L 621.684492 113.28558 
L 622.598848 114.064604 
L 623.498804 115.114856 
L 624.384806 115.513698 
L 625.257281 116.823869 
L 626.116636 117.406609 
L 626.963259 118.121551 
L 628.619781 119.783617 
L 630.229635 121.513038 
L 631.017868 121.953906 
L 631.795377 123.113471 
L 637.661652 129.022678 
L 638.35434 130.166666 
L 640.383406 132.360493 
L 644.855207 137.378112 
L 650.133974 143.532708 
L 650.6915 144.3522 
L 651.24364 144.851424 
L 652.332168 146.256655 
L 652.868755 146.788587 
L 653.400349 147.527759 
L 653.927044 148.004719 
L 654.448929 148.795723 
L 654.966091 149.176219 
L 655.986583 150.451936 
L 658.943071 154.065297 
L 667.408121 164.470409 
L 668.637114 166.045169 
L 670.235709 167.898998 
L 671.018543 168.954428 
L 672.173047 170.54721 
L 673.304688 171.78336 
L 673.676976 172.440033 
L 675.142339 174.182893 
L 675.861166 175.195703 
L 676.217217 175.550251 
L 677.619644 177.479453 
L 679.325622 179.65709 
L 680.325286 180.966115 
L 682.908596 184.405826 
L 683.536581 185.14929 
L 684.465805 186.370434 
L 685.076998 187.2113 
L 686.576979 189.080302 
L 687.166119 189.880435 
L 694.576689 199.025567 
L 695.343762 199.822103 
L 696.100674 200.695867 
L 696.599768 201.224182 
L 698.071421 202.687454 
L 699.031881 203.56997 
L 702.046365 205.892802 
L 702.496336 206.142094 
L 702.72 206.319684 
L 702.942792 209.160996 
L 703.385786 211.537938 
L 704.478478 215.145449 
L 705.550667 217.946475 
L 706.603109 220.741731 
L 707.636519 223.315818 
L 709.648911 228.315316 
L 712.540557 235.655195 
L 715.292903 242.667006 
L 716.005013 244.570079 
L 718.259928 250.753032 
L 719.271388 254.024147 
L 719.770483 255.570217 
L 720.918361 259.966811 
L 721 260.359579 
L 721 260.359579 
" clip-path="url(#p082eb9615a)" style="fill: none; stroke: #0000ff; stroke-width: 1.5; stroke-linecap: square"/>
   </g>
   <g id="line2d_54">
    <path d="M 385.835215 80.778997 
L 425.445813 87.618208 
L 448.616528 97.119225 
L 465.056411 103.363525 
L 477.808176 106.322602 
L 488.227126 111.175851 
L 497.036223 110.115263 
L 511.39784 115.252498 
L 517.418774 117.270177 
L 522.865371 120.650707 
L 527.837724 120.325367 
L 532.411846 121.738605 
L 536.646821 123.353635 
L 540.589488 124.529761 
L 544.277607 125.863717 
L 547.742063 126.42321 
L 551.008438 127.740461 
L 554.098165 128.634706 
L 557.029372 129.105611 
L 559.817535 130.672854 
L 562.475969 131.276846 
L 565.01621 132.150293 
L 567.448322 133.489729 
L 569.781136 133.830609 
L 572.022444 135.078898 
L 574.179153 135.131972 
L 576.257419 136.345566 
L 578.262748 136.031671 
L 580.200086 137.741341 
L 582.073894 137.788541 
L 583.888206 138.906556 
L 585.646683 139.085987 
L 590.619037 141.503439 
L 592.184779 142.266045 
L 593.708763 142.57546 
L 596.63997 144.27963 
L 598.051054 144.575292 
L 599.428133 145.079813 
L 600.772807 145.421595 
L 602.086567 146.031265 
L 603.370801 146.866778 
L 605.855802 148.184516 
L 607.05892 148.493632 
L 610.523376 150.120847 
L 611.633042 150.805769 
L 612.72157 151.289187 
L 613.789751 152.104083 
L 614.838331 152.437128 
L 615.868017 153.21655 
L 617.873346 154.249735 
L 618.850225 154.920802 
L 619.810685 155.093119 
L 620.755268 155.990778 
L 622.598848 156.805699 
L 623.498804 157.673759 
L 624.384806 157.745034 
L 625.257281 158.627334 
L 626.963259 159.421875 
L 629.430377 161.222235 
L 630.229635 161.73967 
L 631.017868 161.994559 
L 631.795377 162.7448 
L 633.319361 163.760957 
L 634.803756 164.90988 
L 636.250568 165.91228 
L 636.960466 166.420234 
L 637.661652 166.782704 
L 639.038732 168.032786 
L 639.715024 168.278912 
L 641.697165 170.057206 
L 642.342889 170.345256 
L 643.612853 171.599437 
L 644.237406 171.981041 
L 644.855207 172.783038 
L 645.4664 173.12675 
L 646.669518 174.181368 
L 647.26171 174.590312 
L 648.427996 175.665202 
L 649.002333 176.215556 
L 649.570954 176.544234 
L 650.133974 177.289182 
L 650.6915 177.600532 
L 652.868755 179.575725 
L 653.400349 180.275643 
L 653.927044 180.685617 
L 654.966091 181.661349 
L 660.832367 187.457781 
L 663.109402 190.010319 
L 663.55412 190.293977 
L 663.995404 190.901449 
L 665.299172 192.170481 
L 665.727234 192.815079 
L 666.573857 193.618319 
L 667.820729 195.083935 
L 668.230379 195.43392 
L 669.040975 196.458142 
L 671.405975 198.978568 
L 673.304688 200.988325 
L 673.676976 201.574388 
L 674.046855 201.902805 
L 675.142339 203.181998 
L 675.861166 204.031079 
L 676.571064 204.813351 
L 678.64933 207.139058 
L 679.325622 207.789 
L 679.994004 208.592229 
L 686.280116 215.164907 
L 686.872308 215.643639 
L 687.749247 216.616355 
L 688.326484 217.042863 
L 690.578835 219.084249 
L 695.089213 222.46495 
L 695.597181 222.746993 
L 698.553669 224.256898 
L 698.793275 224.275088 
L 699.031881 224.408934 
L 699.269495 224.391357 
L 699.741778 224.582959 
L 702.046365 225.221904 
L 702.496336 225.279618 
L 702.72 225.310141 
L 703.606002 228.025814 
L 706.603109 236.292051 
L 707.018719 237.189463 
L 707.636519 238.727851 
L 709.846307 243.729254 
L 711.973815 248.112158 
L 712.163354 248.349347 
L 712.540557 249.182536 
L 713.101734 250.161792 
L 713.472813 250.943281 
L 714.571809 253.161365 
L 716.181662 256.30996 
L 719.10405 262.960538 
L 719.604602 264.523016 
L 719.770483 264.833793 
L 721 269.278293 
L 721 269.278293 
" clip-path="url(#p082eb9615a)" style="fill: none; stroke: #ff0000; stroke-width: 1.5; stroke-linecap: square"/>
   </g>
   <g id="line2d_55">
    <path d="M 385.835215 42.884718 
L 721 162.569919 
L 721 162.569919 
" clip-path="url(#p082eb9615a)" style="fill: none; stroke-dasharray: 5.18,2.24; stroke-dashoffset: 0; stroke: #000000; stroke-width: 1.4"/>
   </g>
   <g id="patch_8">
    <path d="M 425.445813 231.381871 
L 425.445813 22.814794 
" style="fill: none; stroke: #000000; stroke-width: 0.8; stroke-linejoin: miter; stroke-linecap: square"/>
   </g>
   <g id="patch_9">
    <path d="M 702.72 231.381871 
L 702.72 22.814794 
" style="fill: none; stroke: #000000; stroke-width: 0.8; stroke-linejoin: miter; stroke-linecap: square"/>
   </g>
   <g id="patch_10">
    <path d="M 425.445813 231.381871 
L 702.72 231.381871 
" style="fill: none; stroke: #000000; stroke-width: 0.8; stroke-linejoin: miter; stroke-linecap: square"/>
   </g>
   <g id="patch_11">
    <path d="M 425.445813 22.814794 
L 702.72 22.814794 
" style="fill: none; stroke: #000000; stroke-width: 0.8; stroke-linejoin: miter; stroke-linecap: square"/>
   </g>
   <g id="legend_2">
    <g id="line2d_56">
     <path d="M 439.845813 162.042694 
L 455.845813 162.042694 
L 471.845813 162.042694 
" style="fill: none; stroke: #0000ff; stroke-width: 1.5; stroke-linecap: square"/>
    </g>
    <g id="text_20">
     <!-- $M_{\rm A}=0.8, M_{\rm s}=10$ -->
     <g transform="translate(484.645813 167.642694) scale(0.16 -0.16)">
      <use xlink:href="#CMMI12-4d" transform="scale(0.996264)"/>
      <use xlink:href="#CMR17-41" transform="translate(94.373425 -14.943915) scale(0.697382)"/>
      <use xlink:href="#CMR17-3d" transform="translate(170.896051 0) scale(0.996264)"/>
      <use xlink:href="#CMR17-30" transform="translate(270.284848 0) scale(0.996264)"/>
      <use xlink:href="#CMMI12-3a" transform="translate(315.975325 0) scale(0.996264)"/>
      <use xlink:href="#CMR17-38" transform="translate(343.072502 0) scale(0.996264)"/>
      <use xlink:href="#CMMI12-3b" transform="translate(388.762979 0) scale(0.996264)"/>
      <use xlink:href="#CMMI12-4d" transform="translate(432.464562 0) scale(0.996264)"/>
      <use xlink:href="#CMR17-73" transform="translate(526.837987 -14.943915) scale(0.697382)"/>
      <use xlink:href="#CMR17-3d" transform="translate(580.07095 0) scale(0.996264)"/>
      <use xlink:href="#CMR17-31" transform="translate(679.459747 0) scale(0.996264)"/>
      <use xlink:href="#CMR17-30" transform="translate(725.150224 0) scale(0.996264)"/>
     </g>
    </g>
    <g id="line2d_57">
     <path d="M 439.845813 184.342171 
L 455.845813 184.342171 
L 471.845813 184.342171 
" style="fill: none; stroke: #ff0000; stroke-width: 1.5; stroke-linecap: square"/>
    </g>
    <g id="text_21">
     <!-- $M_{\rm A}=0.8, M_{\rm s}=1$ -->
     <g transform="translate(484.645813 189.942171) scale(0.16 -0.16)">
      <use xlink:href="#CMMI12-4d" transform="scale(0.996264)"/>
      <use xlink:href="#CMR17-41" transform="translate(94.373425 -14.943915) scale(0.697382)"/>
      <use xlink:href="#CMR17-3d" transform="translate(170.896051 0) scale(0.996264)"/>
      <use xlink:href="#CMR17-30" transform="translate(270.284848 0) scale(0.996264)"/>
      <use xlink:href="#CMMI12-3a" transform="translate(315.975325 0) scale(0.996264)"/>
      <use xlink:href="#CMR17-38" transform="translate(343.072502 0) scale(0.996264)"/>
      <use xlink:href="#CMMI12-3b" transform="translate(388.762979 0) scale(0.996264)"/>
      <use xlink:href="#CMMI12-4d" transform="translate(432.464562 0) scale(0.996264)"/>
      <use xlink:href="#CMR17-73" transform="translate(526.837987 -14.943915) scale(0.697382)"/>
      <use xlink:href="#CMR17-3d" transform="translate(580.07095 0) scale(0.996264)"/>
      <use xlink:href="#CMR17-31" transform="translate(679.459747 0) scale(0.996264)"/>
     </g>
    </g>
    <g id="line2d_58">
     <path d="M 439.845813 207.396815 
L 455.845813 207.396815 
L 471.845813 207.396815 
" style="fill: none; stroke-dasharray: 5.18,2.24; stroke-dashoffset: 0; stroke: #000000; stroke-width: 1.4"/>
    </g>
    <g id="text_22">
     <!-- slope: $-5/3$ -->
     <g transform="translate(484.645813 212.996815) scale(0.16 -0.16)">
      <use xlink:href="#CMR17-73" transform="scale(0.996264)"/>
      <use xlink:href="#CMR17-6c" transform="translate(35.801338 0) scale(0.996264)"/>
      <use xlink:href="#CMR17-6f" transform="translate(60.672396 0) scale(0.996264)"/>
      <use xlink:href="#CMR17-70" transform="translate(106.362873 0) scale(0.996264)"/>
      <use xlink:href="#CMR17-65" transform="translate(159.860682 0) scale(0.996264)"/>
      <use xlink:href="#CMR17-3a" transform="translate(200.346342 0) scale(0.996264)"/>
      <use xlink:href="#CMSY10-0" transform="translate(265.703061 0) scale(0.996264)"/>
      <use xlink:href="#CMR17-35" transform="translate(343.190529 0) scale(0.996264)"/>
      <use xlink:href="#CMMI12-3d" transform="translate(388.881006 0) scale(0.996264)"/>
      <use xlink:href="#CMR17-33" transform="translate(437.655925 0) scale(0.996264)"/>
     </g>
    </g>
   </g>
  </g>
 </g>
 <defs>
  <clipPath id="p12165bb31b">
   <rect x="74.085813" y="22.814794" width="277.274187" height="208.567077"/>
  </clipPath>
  <clipPath id="p082eb9615a">
   <rect x="425.445813" y="22.814794" width="277.274187" height="208.567077"/>
  </clipPath>
 </defs>
</svg>
